%TF.GenerationSoftware,KiCad,Pcbnew,(7.0.0)*%
%TF.CreationDate,2023-04-06T04:01:54-05:00*%
%TF.ProjectId,finalproj,66696e61-6c70-4726-9f6a-2e6b69636164,rev?*%
%TF.SameCoordinates,Original*%
%TF.FileFunction,Legend,Top*%
%TF.FilePolarity,Positive*%
%FSLAX46Y46*%
G04 Gerber Fmt 4.6, Leading zero omitted, Abs format (unit mm)*
G04 Created by KiCad (PCBNEW (7.0.0)) date 2023-04-06 04:01:54*
%MOMM*%
%LPD*%
G01*
G04 APERTURE LIST*
%ADD10C,0.150000*%
%ADD11C,0.120000*%
%ADD12C,0.127000*%
%ADD13C,0.200000*%
G04 APERTURE END LIST*
D10*
%TO.C,H4*%
X64738095Y-73837380D02*
X64738095Y-72837380D01*
X64738095Y-73313571D02*
X65309523Y-73313571D01*
X65309523Y-73837380D02*
X65309523Y-72837380D01*
X66214285Y-73170714D02*
X66214285Y-73837380D01*
X65976190Y-72789761D02*
X65738095Y-73504047D01*
X65738095Y-73504047D02*
X66357142Y-73504047D01*
%TO.C,H3*%
X64738095Y-65887380D02*
X64738095Y-64887380D01*
X64738095Y-65363571D02*
X65309523Y-65363571D01*
X65309523Y-65887380D02*
X65309523Y-64887380D01*
X65690476Y-64887380D02*
X66309523Y-64887380D01*
X66309523Y-64887380D02*
X65976190Y-65268333D01*
X65976190Y-65268333D02*
X66119047Y-65268333D01*
X66119047Y-65268333D02*
X66214285Y-65315952D01*
X66214285Y-65315952D02*
X66261904Y-65363571D01*
X66261904Y-65363571D02*
X66309523Y-65458809D01*
X66309523Y-65458809D02*
X66309523Y-65696904D01*
X66309523Y-65696904D02*
X66261904Y-65792142D01*
X66261904Y-65792142D02*
X66214285Y-65839761D01*
X66214285Y-65839761D02*
X66119047Y-65887380D01*
X66119047Y-65887380D02*
X65833333Y-65887380D01*
X65833333Y-65887380D02*
X65738095Y-65839761D01*
X65738095Y-65839761D02*
X65690476Y-65792142D01*
%TO.C,H2*%
X64738095Y-57937380D02*
X64738095Y-56937380D01*
X64738095Y-57413571D02*
X65309523Y-57413571D01*
X65309523Y-57937380D02*
X65309523Y-56937380D01*
X65738095Y-57032619D02*
X65785714Y-56985000D01*
X65785714Y-56985000D02*
X65880952Y-56937380D01*
X65880952Y-56937380D02*
X66119047Y-56937380D01*
X66119047Y-56937380D02*
X66214285Y-56985000D01*
X66214285Y-56985000D02*
X66261904Y-57032619D01*
X66261904Y-57032619D02*
X66309523Y-57127857D01*
X66309523Y-57127857D02*
X66309523Y-57223095D01*
X66309523Y-57223095D02*
X66261904Y-57365952D01*
X66261904Y-57365952D02*
X65690476Y-57937380D01*
X65690476Y-57937380D02*
X66309523Y-57937380D01*
%TO.C,H1*%
X64738095Y-49987380D02*
X64738095Y-48987380D01*
X64738095Y-49463571D02*
X65309523Y-49463571D01*
X65309523Y-49987380D02*
X65309523Y-48987380D01*
X66309523Y-49987380D02*
X65738095Y-49987380D01*
X66023809Y-49987380D02*
X66023809Y-48987380D01*
X66023809Y-48987380D02*
X65928571Y-49130238D01*
X65928571Y-49130238D02*
X65833333Y-49225476D01*
X65833333Y-49225476D02*
X65738095Y-49273095D01*
%TO.C,C43*%
X84407142Y-74022142D02*
X84359523Y-74069761D01*
X84359523Y-74069761D02*
X84216666Y-74117380D01*
X84216666Y-74117380D02*
X84121428Y-74117380D01*
X84121428Y-74117380D02*
X83978571Y-74069761D01*
X83978571Y-74069761D02*
X83883333Y-73974523D01*
X83883333Y-73974523D02*
X83835714Y-73879285D01*
X83835714Y-73879285D02*
X83788095Y-73688809D01*
X83788095Y-73688809D02*
X83788095Y-73545952D01*
X83788095Y-73545952D02*
X83835714Y-73355476D01*
X83835714Y-73355476D02*
X83883333Y-73260238D01*
X83883333Y-73260238D02*
X83978571Y-73165000D01*
X83978571Y-73165000D02*
X84121428Y-73117380D01*
X84121428Y-73117380D02*
X84216666Y-73117380D01*
X84216666Y-73117380D02*
X84359523Y-73165000D01*
X84359523Y-73165000D02*
X84407142Y-73212619D01*
X85264285Y-73450714D02*
X85264285Y-74117380D01*
X85026190Y-73069761D02*
X84788095Y-73784047D01*
X84788095Y-73784047D02*
X85407142Y-73784047D01*
X85692857Y-73117380D02*
X86311904Y-73117380D01*
X86311904Y-73117380D02*
X85978571Y-73498333D01*
X85978571Y-73498333D02*
X86121428Y-73498333D01*
X86121428Y-73498333D02*
X86216666Y-73545952D01*
X86216666Y-73545952D02*
X86264285Y-73593571D01*
X86264285Y-73593571D02*
X86311904Y-73688809D01*
X86311904Y-73688809D02*
X86311904Y-73926904D01*
X86311904Y-73926904D02*
X86264285Y-74022142D01*
X86264285Y-74022142D02*
X86216666Y-74069761D01*
X86216666Y-74069761D02*
X86121428Y-74117380D01*
X86121428Y-74117380D02*
X85835714Y-74117380D01*
X85835714Y-74117380D02*
X85740476Y-74069761D01*
X85740476Y-74069761D02*
X85692857Y-74022142D01*
%TO.C,C42*%
X84407142Y-71012142D02*
X84359523Y-71059761D01*
X84359523Y-71059761D02*
X84216666Y-71107380D01*
X84216666Y-71107380D02*
X84121428Y-71107380D01*
X84121428Y-71107380D02*
X83978571Y-71059761D01*
X83978571Y-71059761D02*
X83883333Y-70964523D01*
X83883333Y-70964523D02*
X83835714Y-70869285D01*
X83835714Y-70869285D02*
X83788095Y-70678809D01*
X83788095Y-70678809D02*
X83788095Y-70535952D01*
X83788095Y-70535952D02*
X83835714Y-70345476D01*
X83835714Y-70345476D02*
X83883333Y-70250238D01*
X83883333Y-70250238D02*
X83978571Y-70155000D01*
X83978571Y-70155000D02*
X84121428Y-70107380D01*
X84121428Y-70107380D02*
X84216666Y-70107380D01*
X84216666Y-70107380D02*
X84359523Y-70155000D01*
X84359523Y-70155000D02*
X84407142Y-70202619D01*
X85264285Y-70440714D02*
X85264285Y-71107380D01*
X85026190Y-70059761D02*
X84788095Y-70774047D01*
X84788095Y-70774047D02*
X85407142Y-70774047D01*
X85740476Y-70202619D02*
X85788095Y-70155000D01*
X85788095Y-70155000D02*
X85883333Y-70107380D01*
X85883333Y-70107380D02*
X86121428Y-70107380D01*
X86121428Y-70107380D02*
X86216666Y-70155000D01*
X86216666Y-70155000D02*
X86264285Y-70202619D01*
X86264285Y-70202619D02*
X86311904Y-70297857D01*
X86311904Y-70297857D02*
X86311904Y-70393095D01*
X86311904Y-70393095D02*
X86264285Y-70535952D01*
X86264285Y-70535952D02*
X85692857Y-71107380D01*
X85692857Y-71107380D02*
X86311904Y-71107380D01*
%TO.C,C41*%
X84407142Y-68002142D02*
X84359523Y-68049761D01*
X84359523Y-68049761D02*
X84216666Y-68097380D01*
X84216666Y-68097380D02*
X84121428Y-68097380D01*
X84121428Y-68097380D02*
X83978571Y-68049761D01*
X83978571Y-68049761D02*
X83883333Y-67954523D01*
X83883333Y-67954523D02*
X83835714Y-67859285D01*
X83835714Y-67859285D02*
X83788095Y-67668809D01*
X83788095Y-67668809D02*
X83788095Y-67525952D01*
X83788095Y-67525952D02*
X83835714Y-67335476D01*
X83835714Y-67335476D02*
X83883333Y-67240238D01*
X83883333Y-67240238D02*
X83978571Y-67145000D01*
X83978571Y-67145000D02*
X84121428Y-67097380D01*
X84121428Y-67097380D02*
X84216666Y-67097380D01*
X84216666Y-67097380D02*
X84359523Y-67145000D01*
X84359523Y-67145000D02*
X84407142Y-67192619D01*
X85264285Y-67430714D02*
X85264285Y-68097380D01*
X85026190Y-67049761D02*
X84788095Y-67764047D01*
X84788095Y-67764047D02*
X85407142Y-67764047D01*
X86311904Y-68097380D02*
X85740476Y-68097380D01*
X86026190Y-68097380D02*
X86026190Y-67097380D01*
X86026190Y-67097380D02*
X85930952Y-67240238D01*
X85930952Y-67240238D02*
X85835714Y-67335476D01*
X85835714Y-67335476D02*
X85740476Y-67383095D01*
%TO.C,C40*%
X84407142Y-64992142D02*
X84359523Y-65039761D01*
X84359523Y-65039761D02*
X84216666Y-65087380D01*
X84216666Y-65087380D02*
X84121428Y-65087380D01*
X84121428Y-65087380D02*
X83978571Y-65039761D01*
X83978571Y-65039761D02*
X83883333Y-64944523D01*
X83883333Y-64944523D02*
X83835714Y-64849285D01*
X83835714Y-64849285D02*
X83788095Y-64658809D01*
X83788095Y-64658809D02*
X83788095Y-64515952D01*
X83788095Y-64515952D02*
X83835714Y-64325476D01*
X83835714Y-64325476D02*
X83883333Y-64230238D01*
X83883333Y-64230238D02*
X83978571Y-64135000D01*
X83978571Y-64135000D02*
X84121428Y-64087380D01*
X84121428Y-64087380D02*
X84216666Y-64087380D01*
X84216666Y-64087380D02*
X84359523Y-64135000D01*
X84359523Y-64135000D02*
X84407142Y-64182619D01*
X85264285Y-64420714D02*
X85264285Y-65087380D01*
X85026190Y-64039761D02*
X84788095Y-64754047D01*
X84788095Y-64754047D02*
X85407142Y-64754047D01*
X85978571Y-64087380D02*
X86073809Y-64087380D01*
X86073809Y-64087380D02*
X86169047Y-64135000D01*
X86169047Y-64135000D02*
X86216666Y-64182619D01*
X86216666Y-64182619D02*
X86264285Y-64277857D01*
X86264285Y-64277857D02*
X86311904Y-64468333D01*
X86311904Y-64468333D02*
X86311904Y-64706428D01*
X86311904Y-64706428D02*
X86264285Y-64896904D01*
X86264285Y-64896904D02*
X86216666Y-64992142D01*
X86216666Y-64992142D02*
X86169047Y-65039761D01*
X86169047Y-65039761D02*
X86073809Y-65087380D01*
X86073809Y-65087380D02*
X85978571Y-65087380D01*
X85978571Y-65087380D02*
X85883333Y-65039761D01*
X85883333Y-65039761D02*
X85835714Y-64992142D01*
X85835714Y-64992142D02*
X85788095Y-64896904D01*
X85788095Y-64896904D02*
X85740476Y-64706428D01*
X85740476Y-64706428D02*
X85740476Y-64468333D01*
X85740476Y-64468333D02*
X85788095Y-64277857D01*
X85788095Y-64277857D02*
X85835714Y-64182619D01*
X85835714Y-64182619D02*
X85883333Y-64135000D01*
X85883333Y-64135000D02*
X85978571Y-64087380D01*
%TO.C,C39*%
X84407142Y-61982142D02*
X84359523Y-62029761D01*
X84359523Y-62029761D02*
X84216666Y-62077380D01*
X84216666Y-62077380D02*
X84121428Y-62077380D01*
X84121428Y-62077380D02*
X83978571Y-62029761D01*
X83978571Y-62029761D02*
X83883333Y-61934523D01*
X83883333Y-61934523D02*
X83835714Y-61839285D01*
X83835714Y-61839285D02*
X83788095Y-61648809D01*
X83788095Y-61648809D02*
X83788095Y-61505952D01*
X83788095Y-61505952D02*
X83835714Y-61315476D01*
X83835714Y-61315476D02*
X83883333Y-61220238D01*
X83883333Y-61220238D02*
X83978571Y-61125000D01*
X83978571Y-61125000D02*
X84121428Y-61077380D01*
X84121428Y-61077380D02*
X84216666Y-61077380D01*
X84216666Y-61077380D02*
X84359523Y-61125000D01*
X84359523Y-61125000D02*
X84407142Y-61172619D01*
X84740476Y-61077380D02*
X85359523Y-61077380D01*
X85359523Y-61077380D02*
X85026190Y-61458333D01*
X85026190Y-61458333D02*
X85169047Y-61458333D01*
X85169047Y-61458333D02*
X85264285Y-61505952D01*
X85264285Y-61505952D02*
X85311904Y-61553571D01*
X85311904Y-61553571D02*
X85359523Y-61648809D01*
X85359523Y-61648809D02*
X85359523Y-61886904D01*
X85359523Y-61886904D02*
X85311904Y-61982142D01*
X85311904Y-61982142D02*
X85264285Y-62029761D01*
X85264285Y-62029761D02*
X85169047Y-62077380D01*
X85169047Y-62077380D02*
X84883333Y-62077380D01*
X84883333Y-62077380D02*
X84788095Y-62029761D01*
X84788095Y-62029761D02*
X84740476Y-61982142D01*
X85835714Y-62077380D02*
X86026190Y-62077380D01*
X86026190Y-62077380D02*
X86121428Y-62029761D01*
X86121428Y-62029761D02*
X86169047Y-61982142D01*
X86169047Y-61982142D02*
X86264285Y-61839285D01*
X86264285Y-61839285D02*
X86311904Y-61648809D01*
X86311904Y-61648809D02*
X86311904Y-61267857D01*
X86311904Y-61267857D02*
X86264285Y-61172619D01*
X86264285Y-61172619D02*
X86216666Y-61125000D01*
X86216666Y-61125000D02*
X86121428Y-61077380D01*
X86121428Y-61077380D02*
X85930952Y-61077380D01*
X85930952Y-61077380D02*
X85835714Y-61125000D01*
X85835714Y-61125000D02*
X85788095Y-61172619D01*
X85788095Y-61172619D02*
X85740476Y-61267857D01*
X85740476Y-61267857D02*
X85740476Y-61505952D01*
X85740476Y-61505952D02*
X85788095Y-61601190D01*
X85788095Y-61601190D02*
X85835714Y-61648809D01*
X85835714Y-61648809D02*
X85930952Y-61696428D01*
X85930952Y-61696428D02*
X86121428Y-61696428D01*
X86121428Y-61696428D02*
X86216666Y-61648809D01*
X86216666Y-61648809D02*
X86264285Y-61601190D01*
X86264285Y-61601190D02*
X86311904Y-61505952D01*
%TO.C,C38*%
X84407142Y-58972142D02*
X84359523Y-59019761D01*
X84359523Y-59019761D02*
X84216666Y-59067380D01*
X84216666Y-59067380D02*
X84121428Y-59067380D01*
X84121428Y-59067380D02*
X83978571Y-59019761D01*
X83978571Y-59019761D02*
X83883333Y-58924523D01*
X83883333Y-58924523D02*
X83835714Y-58829285D01*
X83835714Y-58829285D02*
X83788095Y-58638809D01*
X83788095Y-58638809D02*
X83788095Y-58495952D01*
X83788095Y-58495952D02*
X83835714Y-58305476D01*
X83835714Y-58305476D02*
X83883333Y-58210238D01*
X83883333Y-58210238D02*
X83978571Y-58115000D01*
X83978571Y-58115000D02*
X84121428Y-58067380D01*
X84121428Y-58067380D02*
X84216666Y-58067380D01*
X84216666Y-58067380D02*
X84359523Y-58115000D01*
X84359523Y-58115000D02*
X84407142Y-58162619D01*
X84740476Y-58067380D02*
X85359523Y-58067380D01*
X85359523Y-58067380D02*
X85026190Y-58448333D01*
X85026190Y-58448333D02*
X85169047Y-58448333D01*
X85169047Y-58448333D02*
X85264285Y-58495952D01*
X85264285Y-58495952D02*
X85311904Y-58543571D01*
X85311904Y-58543571D02*
X85359523Y-58638809D01*
X85359523Y-58638809D02*
X85359523Y-58876904D01*
X85359523Y-58876904D02*
X85311904Y-58972142D01*
X85311904Y-58972142D02*
X85264285Y-59019761D01*
X85264285Y-59019761D02*
X85169047Y-59067380D01*
X85169047Y-59067380D02*
X84883333Y-59067380D01*
X84883333Y-59067380D02*
X84788095Y-59019761D01*
X84788095Y-59019761D02*
X84740476Y-58972142D01*
X85930952Y-58495952D02*
X85835714Y-58448333D01*
X85835714Y-58448333D02*
X85788095Y-58400714D01*
X85788095Y-58400714D02*
X85740476Y-58305476D01*
X85740476Y-58305476D02*
X85740476Y-58257857D01*
X85740476Y-58257857D02*
X85788095Y-58162619D01*
X85788095Y-58162619D02*
X85835714Y-58115000D01*
X85835714Y-58115000D02*
X85930952Y-58067380D01*
X85930952Y-58067380D02*
X86121428Y-58067380D01*
X86121428Y-58067380D02*
X86216666Y-58115000D01*
X86216666Y-58115000D02*
X86264285Y-58162619D01*
X86264285Y-58162619D02*
X86311904Y-58257857D01*
X86311904Y-58257857D02*
X86311904Y-58305476D01*
X86311904Y-58305476D02*
X86264285Y-58400714D01*
X86264285Y-58400714D02*
X86216666Y-58448333D01*
X86216666Y-58448333D02*
X86121428Y-58495952D01*
X86121428Y-58495952D02*
X85930952Y-58495952D01*
X85930952Y-58495952D02*
X85835714Y-58543571D01*
X85835714Y-58543571D02*
X85788095Y-58591190D01*
X85788095Y-58591190D02*
X85740476Y-58686428D01*
X85740476Y-58686428D02*
X85740476Y-58876904D01*
X85740476Y-58876904D02*
X85788095Y-58972142D01*
X85788095Y-58972142D02*
X85835714Y-59019761D01*
X85835714Y-59019761D02*
X85930952Y-59067380D01*
X85930952Y-59067380D02*
X86121428Y-59067380D01*
X86121428Y-59067380D02*
X86216666Y-59019761D01*
X86216666Y-59019761D02*
X86264285Y-58972142D01*
X86264285Y-58972142D02*
X86311904Y-58876904D01*
X86311904Y-58876904D02*
X86311904Y-58686428D01*
X86311904Y-58686428D02*
X86264285Y-58591190D01*
X86264285Y-58591190D02*
X86216666Y-58543571D01*
X86216666Y-58543571D02*
X86121428Y-58495952D01*
%TO.C,C37*%
X84407142Y-55962142D02*
X84359523Y-56009761D01*
X84359523Y-56009761D02*
X84216666Y-56057380D01*
X84216666Y-56057380D02*
X84121428Y-56057380D01*
X84121428Y-56057380D02*
X83978571Y-56009761D01*
X83978571Y-56009761D02*
X83883333Y-55914523D01*
X83883333Y-55914523D02*
X83835714Y-55819285D01*
X83835714Y-55819285D02*
X83788095Y-55628809D01*
X83788095Y-55628809D02*
X83788095Y-55485952D01*
X83788095Y-55485952D02*
X83835714Y-55295476D01*
X83835714Y-55295476D02*
X83883333Y-55200238D01*
X83883333Y-55200238D02*
X83978571Y-55105000D01*
X83978571Y-55105000D02*
X84121428Y-55057380D01*
X84121428Y-55057380D02*
X84216666Y-55057380D01*
X84216666Y-55057380D02*
X84359523Y-55105000D01*
X84359523Y-55105000D02*
X84407142Y-55152619D01*
X84740476Y-55057380D02*
X85359523Y-55057380D01*
X85359523Y-55057380D02*
X85026190Y-55438333D01*
X85026190Y-55438333D02*
X85169047Y-55438333D01*
X85169047Y-55438333D02*
X85264285Y-55485952D01*
X85264285Y-55485952D02*
X85311904Y-55533571D01*
X85311904Y-55533571D02*
X85359523Y-55628809D01*
X85359523Y-55628809D02*
X85359523Y-55866904D01*
X85359523Y-55866904D02*
X85311904Y-55962142D01*
X85311904Y-55962142D02*
X85264285Y-56009761D01*
X85264285Y-56009761D02*
X85169047Y-56057380D01*
X85169047Y-56057380D02*
X84883333Y-56057380D01*
X84883333Y-56057380D02*
X84788095Y-56009761D01*
X84788095Y-56009761D02*
X84740476Y-55962142D01*
X85692857Y-55057380D02*
X86359523Y-55057380D01*
X86359523Y-55057380D02*
X85930952Y-56057380D01*
%TO.C,C36*%
X84407142Y-52952142D02*
X84359523Y-52999761D01*
X84359523Y-52999761D02*
X84216666Y-53047380D01*
X84216666Y-53047380D02*
X84121428Y-53047380D01*
X84121428Y-53047380D02*
X83978571Y-52999761D01*
X83978571Y-52999761D02*
X83883333Y-52904523D01*
X83883333Y-52904523D02*
X83835714Y-52809285D01*
X83835714Y-52809285D02*
X83788095Y-52618809D01*
X83788095Y-52618809D02*
X83788095Y-52475952D01*
X83788095Y-52475952D02*
X83835714Y-52285476D01*
X83835714Y-52285476D02*
X83883333Y-52190238D01*
X83883333Y-52190238D02*
X83978571Y-52095000D01*
X83978571Y-52095000D02*
X84121428Y-52047380D01*
X84121428Y-52047380D02*
X84216666Y-52047380D01*
X84216666Y-52047380D02*
X84359523Y-52095000D01*
X84359523Y-52095000D02*
X84407142Y-52142619D01*
X84740476Y-52047380D02*
X85359523Y-52047380D01*
X85359523Y-52047380D02*
X85026190Y-52428333D01*
X85026190Y-52428333D02*
X85169047Y-52428333D01*
X85169047Y-52428333D02*
X85264285Y-52475952D01*
X85264285Y-52475952D02*
X85311904Y-52523571D01*
X85311904Y-52523571D02*
X85359523Y-52618809D01*
X85359523Y-52618809D02*
X85359523Y-52856904D01*
X85359523Y-52856904D02*
X85311904Y-52952142D01*
X85311904Y-52952142D02*
X85264285Y-52999761D01*
X85264285Y-52999761D02*
X85169047Y-53047380D01*
X85169047Y-53047380D02*
X84883333Y-53047380D01*
X84883333Y-53047380D02*
X84788095Y-52999761D01*
X84788095Y-52999761D02*
X84740476Y-52952142D01*
X86216666Y-52047380D02*
X86026190Y-52047380D01*
X86026190Y-52047380D02*
X85930952Y-52095000D01*
X85930952Y-52095000D02*
X85883333Y-52142619D01*
X85883333Y-52142619D02*
X85788095Y-52285476D01*
X85788095Y-52285476D02*
X85740476Y-52475952D01*
X85740476Y-52475952D02*
X85740476Y-52856904D01*
X85740476Y-52856904D02*
X85788095Y-52952142D01*
X85788095Y-52952142D02*
X85835714Y-52999761D01*
X85835714Y-52999761D02*
X85930952Y-53047380D01*
X85930952Y-53047380D02*
X86121428Y-53047380D01*
X86121428Y-53047380D02*
X86216666Y-52999761D01*
X86216666Y-52999761D02*
X86264285Y-52952142D01*
X86264285Y-52952142D02*
X86311904Y-52856904D01*
X86311904Y-52856904D02*
X86311904Y-52618809D01*
X86311904Y-52618809D02*
X86264285Y-52523571D01*
X86264285Y-52523571D02*
X86216666Y-52475952D01*
X86216666Y-52475952D02*
X86121428Y-52428333D01*
X86121428Y-52428333D02*
X85930952Y-52428333D01*
X85930952Y-52428333D02*
X85835714Y-52475952D01*
X85835714Y-52475952D02*
X85788095Y-52523571D01*
X85788095Y-52523571D02*
X85740476Y-52618809D01*
%TO.C,C35*%
X84407142Y-49942142D02*
X84359523Y-49989761D01*
X84359523Y-49989761D02*
X84216666Y-50037380D01*
X84216666Y-50037380D02*
X84121428Y-50037380D01*
X84121428Y-50037380D02*
X83978571Y-49989761D01*
X83978571Y-49989761D02*
X83883333Y-49894523D01*
X83883333Y-49894523D02*
X83835714Y-49799285D01*
X83835714Y-49799285D02*
X83788095Y-49608809D01*
X83788095Y-49608809D02*
X83788095Y-49465952D01*
X83788095Y-49465952D02*
X83835714Y-49275476D01*
X83835714Y-49275476D02*
X83883333Y-49180238D01*
X83883333Y-49180238D02*
X83978571Y-49085000D01*
X83978571Y-49085000D02*
X84121428Y-49037380D01*
X84121428Y-49037380D02*
X84216666Y-49037380D01*
X84216666Y-49037380D02*
X84359523Y-49085000D01*
X84359523Y-49085000D02*
X84407142Y-49132619D01*
X84740476Y-49037380D02*
X85359523Y-49037380D01*
X85359523Y-49037380D02*
X85026190Y-49418333D01*
X85026190Y-49418333D02*
X85169047Y-49418333D01*
X85169047Y-49418333D02*
X85264285Y-49465952D01*
X85264285Y-49465952D02*
X85311904Y-49513571D01*
X85311904Y-49513571D02*
X85359523Y-49608809D01*
X85359523Y-49608809D02*
X85359523Y-49846904D01*
X85359523Y-49846904D02*
X85311904Y-49942142D01*
X85311904Y-49942142D02*
X85264285Y-49989761D01*
X85264285Y-49989761D02*
X85169047Y-50037380D01*
X85169047Y-50037380D02*
X84883333Y-50037380D01*
X84883333Y-50037380D02*
X84788095Y-49989761D01*
X84788095Y-49989761D02*
X84740476Y-49942142D01*
X86264285Y-49037380D02*
X85788095Y-49037380D01*
X85788095Y-49037380D02*
X85740476Y-49513571D01*
X85740476Y-49513571D02*
X85788095Y-49465952D01*
X85788095Y-49465952D02*
X85883333Y-49418333D01*
X85883333Y-49418333D02*
X86121428Y-49418333D01*
X86121428Y-49418333D02*
X86216666Y-49465952D01*
X86216666Y-49465952D02*
X86264285Y-49513571D01*
X86264285Y-49513571D02*
X86311904Y-49608809D01*
X86311904Y-49608809D02*
X86311904Y-49846904D01*
X86311904Y-49846904D02*
X86264285Y-49942142D01*
X86264285Y-49942142D02*
X86216666Y-49989761D01*
X86216666Y-49989761D02*
X86121428Y-50037380D01*
X86121428Y-50037380D02*
X85883333Y-50037380D01*
X85883333Y-50037380D02*
X85788095Y-49989761D01*
X85788095Y-49989761D02*
X85740476Y-49942142D01*
%TO.C,C34*%
X29392142Y-36092857D02*
X29439761Y-36140476D01*
X29439761Y-36140476D02*
X29487380Y-36283333D01*
X29487380Y-36283333D02*
X29487380Y-36378571D01*
X29487380Y-36378571D02*
X29439761Y-36521428D01*
X29439761Y-36521428D02*
X29344523Y-36616666D01*
X29344523Y-36616666D02*
X29249285Y-36664285D01*
X29249285Y-36664285D02*
X29058809Y-36711904D01*
X29058809Y-36711904D02*
X28915952Y-36711904D01*
X28915952Y-36711904D02*
X28725476Y-36664285D01*
X28725476Y-36664285D02*
X28630238Y-36616666D01*
X28630238Y-36616666D02*
X28535000Y-36521428D01*
X28535000Y-36521428D02*
X28487380Y-36378571D01*
X28487380Y-36378571D02*
X28487380Y-36283333D01*
X28487380Y-36283333D02*
X28535000Y-36140476D01*
X28535000Y-36140476D02*
X28582619Y-36092857D01*
X28487380Y-35759523D02*
X28487380Y-35140476D01*
X28487380Y-35140476D02*
X28868333Y-35473809D01*
X28868333Y-35473809D02*
X28868333Y-35330952D01*
X28868333Y-35330952D02*
X28915952Y-35235714D01*
X28915952Y-35235714D02*
X28963571Y-35188095D01*
X28963571Y-35188095D02*
X29058809Y-35140476D01*
X29058809Y-35140476D02*
X29296904Y-35140476D01*
X29296904Y-35140476D02*
X29392142Y-35188095D01*
X29392142Y-35188095D02*
X29439761Y-35235714D01*
X29439761Y-35235714D02*
X29487380Y-35330952D01*
X29487380Y-35330952D02*
X29487380Y-35616666D01*
X29487380Y-35616666D02*
X29439761Y-35711904D01*
X29439761Y-35711904D02*
X29392142Y-35759523D01*
X28820714Y-34283333D02*
X29487380Y-34283333D01*
X28439761Y-34521428D02*
X29154047Y-34759523D01*
X29154047Y-34759523D02*
X29154047Y-34140476D01*
%TO.C,C33*%
X25982142Y-36092857D02*
X26029761Y-36140476D01*
X26029761Y-36140476D02*
X26077380Y-36283333D01*
X26077380Y-36283333D02*
X26077380Y-36378571D01*
X26077380Y-36378571D02*
X26029761Y-36521428D01*
X26029761Y-36521428D02*
X25934523Y-36616666D01*
X25934523Y-36616666D02*
X25839285Y-36664285D01*
X25839285Y-36664285D02*
X25648809Y-36711904D01*
X25648809Y-36711904D02*
X25505952Y-36711904D01*
X25505952Y-36711904D02*
X25315476Y-36664285D01*
X25315476Y-36664285D02*
X25220238Y-36616666D01*
X25220238Y-36616666D02*
X25125000Y-36521428D01*
X25125000Y-36521428D02*
X25077380Y-36378571D01*
X25077380Y-36378571D02*
X25077380Y-36283333D01*
X25077380Y-36283333D02*
X25125000Y-36140476D01*
X25125000Y-36140476D02*
X25172619Y-36092857D01*
X25077380Y-35759523D02*
X25077380Y-35140476D01*
X25077380Y-35140476D02*
X25458333Y-35473809D01*
X25458333Y-35473809D02*
X25458333Y-35330952D01*
X25458333Y-35330952D02*
X25505952Y-35235714D01*
X25505952Y-35235714D02*
X25553571Y-35188095D01*
X25553571Y-35188095D02*
X25648809Y-35140476D01*
X25648809Y-35140476D02*
X25886904Y-35140476D01*
X25886904Y-35140476D02*
X25982142Y-35188095D01*
X25982142Y-35188095D02*
X26029761Y-35235714D01*
X26029761Y-35235714D02*
X26077380Y-35330952D01*
X26077380Y-35330952D02*
X26077380Y-35616666D01*
X26077380Y-35616666D02*
X26029761Y-35711904D01*
X26029761Y-35711904D02*
X25982142Y-35759523D01*
X25077380Y-34807142D02*
X25077380Y-34188095D01*
X25077380Y-34188095D02*
X25458333Y-34521428D01*
X25458333Y-34521428D02*
X25458333Y-34378571D01*
X25458333Y-34378571D02*
X25505952Y-34283333D01*
X25505952Y-34283333D02*
X25553571Y-34235714D01*
X25553571Y-34235714D02*
X25648809Y-34188095D01*
X25648809Y-34188095D02*
X25886904Y-34188095D01*
X25886904Y-34188095D02*
X25982142Y-34235714D01*
X25982142Y-34235714D02*
X26029761Y-34283333D01*
X26029761Y-34283333D02*
X26077380Y-34378571D01*
X26077380Y-34378571D02*
X26077380Y-34664285D01*
X26077380Y-34664285D02*
X26029761Y-34759523D01*
X26029761Y-34759523D02*
X25982142Y-34807142D01*
%TO.C,C32*%
X79957142Y-68002142D02*
X79909523Y-68049761D01*
X79909523Y-68049761D02*
X79766666Y-68097380D01*
X79766666Y-68097380D02*
X79671428Y-68097380D01*
X79671428Y-68097380D02*
X79528571Y-68049761D01*
X79528571Y-68049761D02*
X79433333Y-67954523D01*
X79433333Y-67954523D02*
X79385714Y-67859285D01*
X79385714Y-67859285D02*
X79338095Y-67668809D01*
X79338095Y-67668809D02*
X79338095Y-67525952D01*
X79338095Y-67525952D02*
X79385714Y-67335476D01*
X79385714Y-67335476D02*
X79433333Y-67240238D01*
X79433333Y-67240238D02*
X79528571Y-67145000D01*
X79528571Y-67145000D02*
X79671428Y-67097380D01*
X79671428Y-67097380D02*
X79766666Y-67097380D01*
X79766666Y-67097380D02*
X79909523Y-67145000D01*
X79909523Y-67145000D02*
X79957142Y-67192619D01*
X80290476Y-67097380D02*
X80909523Y-67097380D01*
X80909523Y-67097380D02*
X80576190Y-67478333D01*
X80576190Y-67478333D02*
X80719047Y-67478333D01*
X80719047Y-67478333D02*
X80814285Y-67525952D01*
X80814285Y-67525952D02*
X80861904Y-67573571D01*
X80861904Y-67573571D02*
X80909523Y-67668809D01*
X80909523Y-67668809D02*
X80909523Y-67906904D01*
X80909523Y-67906904D02*
X80861904Y-68002142D01*
X80861904Y-68002142D02*
X80814285Y-68049761D01*
X80814285Y-68049761D02*
X80719047Y-68097380D01*
X80719047Y-68097380D02*
X80433333Y-68097380D01*
X80433333Y-68097380D02*
X80338095Y-68049761D01*
X80338095Y-68049761D02*
X80290476Y-68002142D01*
X81290476Y-67192619D02*
X81338095Y-67145000D01*
X81338095Y-67145000D02*
X81433333Y-67097380D01*
X81433333Y-67097380D02*
X81671428Y-67097380D01*
X81671428Y-67097380D02*
X81766666Y-67145000D01*
X81766666Y-67145000D02*
X81814285Y-67192619D01*
X81814285Y-67192619D02*
X81861904Y-67287857D01*
X81861904Y-67287857D02*
X81861904Y-67383095D01*
X81861904Y-67383095D02*
X81814285Y-67525952D01*
X81814285Y-67525952D02*
X81242857Y-68097380D01*
X81242857Y-68097380D02*
X81861904Y-68097380D01*
%TO.C,C31*%
X79957142Y-64992142D02*
X79909523Y-65039761D01*
X79909523Y-65039761D02*
X79766666Y-65087380D01*
X79766666Y-65087380D02*
X79671428Y-65087380D01*
X79671428Y-65087380D02*
X79528571Y-65039761D01*
X79528571Y-65039761D02*
X79433333Y-64944523D01*
X79433333Y-64944523D02*
X79385714Y-64849285D01*
X79385714Y-64849285D02*
X79338095Y-64658809D01*
X79338095Y-64658809D02*
X79338095Y-64515952D01*
X79338095Y-64515952D02*
X79385714Y-64325476D01*
X79385714Y-64325476D02*
X79433333Y-64230238D01*
X79433333Y-64230238D02*
X79528571Y-64135000D01*
X79528571Y-64135000D02*
X79671428Y-64087380D01*
X79671428Y-64087380D02*
X79766666Y-64087380D01*
X79766666Y-64087380D02*
X79909523Y-64135000D01*
X79909523Y-64135000D02*
X79957142Y-64182619D01*
X80290476Y-64087380D02*
X80909523Y-64087380D01*
X80909523Y-64087380D02*
X80576190Y-64468333D01*
X80576190Y-64468333D02*
X80719047Y-64468333D01*
X80719047Y-64468333D02*
X80814285Y-64515952D01*
X80814285Y-64515952D02*
X80861904Y-64563571D01*
X80861904Y-64563571D02*
X80909523Y-64658809D01*
X80909523Y-64658809D02*
X80909523Y-64896904D01*
X80909523Y-64896904D02*
X80861904Y-64992142D01*
X80861904Y-64992142D02*
X80814285Y-65039761D01*
X80814285Y-65039761D02*
X80719047Y-65087380D01*
X80719047Y-65087380D02*
X80433333Y-65087380D01*
X80433333Y-65087380D02*
X80338095Y-65039761D01*
X80338095Y-65039761D02*
X80290476Y-64992142D01*
X81861904Y-65087380D02*
X81290476Y-65087380D01*
X81576190Y-65087380D02*
X81576190Y-64087380D01*
X81576190Y-64087380D02*
X81480952Y-64230238D01*
X81480952Y-64230238D02*
X81385714Y-64325476D01*
X81385714Y-64325476D02*
X81290476Y-64373095D01*
%TO.C,C30*%
X79957142Y-61982142D02*
X79909523Y-62029761D01*
X79909523Y-62029761D02*
X79766666Y-62077380D01*
X79766666Y-62077380D02*
X79671428Y-62077380D01*
X79671428Y-62077380D02*
X79528571Y-62029761D01*
X79528571Y-62029761D02*
X79433333Y-61934523D01*
X79433333Y-61934523D02*
X79385714Y-61839285D01*
X79385714Y-61839285D02*
X79338095Y-61648809D01*
X79338095Y-61648809D02*
X79338095Y-61505952D01*
X79338095Y-61505952D02*
X79385714Y-61315476D01*
X79385714Y-61315476D02*
X79433333Y-61220238D01*
X79433333Y-61220238D02*
X79528571Y-61125000D01*
X79528571Y-61125000D02*
X79671428Y-61077380D01*
X79671428Y-61077380D02*
X79766666Y-61077380D01*
X79766666Y-61077380D02*
X79909523Y-61125000D01*
X79909523Y-61125000D02*
X79957142Y-61172619D01*
X80290476Y-61077380D02*
X80909523Y-61077380D01*
X80909523Y-61077380D02*
X80576190Y-61458333D01*
X80576190Y-61458333D02*
X80719047Y-61458333D01*
X80719047Y-61458333D02*
X80814285Y-61505952D01*
X80814285Y-61505952D02*
X80861904Y-61553571D01*
X80861904Y-61553571D02*
X80909523Y-61648809D01*
X80909523Y-61648809D02*
X80909523Y-61886904D01*
X80909523Y-61886904D02*
X80861904Y-61982142D01*
X80861904Y-61982142D02*
X80814285Y-62029761D01*
X80814285Y-62029761D02*
X80719047Y-62077380D01*
X80719047Y-62077380D02*
X80433333Y-62077380D01*
X80433333Y-62077380D02*
X80338095Y-62029761D01*
X80338095Y-62029761D02*
X80290476Y-61982142D01*
X81528571Y-61077380D02*
X81623809Y-61077380D01*
X81623809Y-61077380D02*
X81719047Y-61125000D01*
X81719047Y-61125000D02*
X81766666Y-61172619D01*
X81766666Y-61172619D02*
X81814285Y-61267857D01*
X81814285Y-61267857D02*
X81861904Y-61458333D01*
X81861904Y-61458333D02*
X81861904Y-61696428D01*
X81861904Y-61696428D02*
X81814285Y-61886904D01*
X81814285Y-61886904D02*
X81766666Y-61982142D01*
X81766666Y-61982142D02*
X81719047Y-62029761D01*
X81719047Y-62029761D02*
X81623809Y-62077380D01*
X81623809Y-62077380D02*
X81528571Y-62077380D01*
X81528571Y-62077380D02*
X81433333Y-62029761D01*
X81433333Y-62029761D02*
X81385714Y-61982142D01*
X81385714Y-61982142D02*
X81338095Y-61886904D01*
X81338095Y-61886904D02*
X81290476Y-61696428D01*
X81290476Y-61696428D02*
X81290476Y-61458333D01*
X81290476Y-61458333D02*
X81338095Y-61267857D01*
X81338095Y-61267857D02*
X81385714Y-61172619D01*
X81385714Y-61172619D02*
X81433333Y-61125000D01*
X81433333Y-61125000D02*
X81528571Y-61077380D01*
%TO.C,C29*%
X79957142Y-58972142D02*
X79909523Y-59019761D01*
X79909523Y-59019761D02*
X79766666Y-59067380D01*
X79766666Y-59067380D02*
X79671428Y-59067380D01*
X79671428Y-59067380D02*
X79528571Y-59019761D01*
X79528571Y-59019761D02*
X79433333Y-58924523D01*
X79433333Y-58924523D02*
X79385714Y-58829285D01*
X79385714Y-58829285D02*
X79338095Y-58638809D01*
X79338095Y-58638809D02*
X79338095Y-58495952D01*
X79338095Y-58495952D02*
X79385714Y-58305476D01*
X79385714Y-58305476D02*
X79433333Y-58210238D01*
X79433333Y-58210238D02*
X79528571Y-58115000D01*
X79528571Y-58115000D02*
X79671428Y-58067380D01*
X79671428Y-58067380D02*
X79766666Y-58067380D01*
X79766666Y-58067380D02*
X79909523Y-58115000D01*
X79909523Y-58115000D02*
X79957142Y-58162619D01*
X80338095Y-58162619D02*
X80385714Y-58115000D01*
X80385714Y-58115000D02*
X80480952Y-58067380D01*
X80480952Y-58067380D02*
X80719047Y-58067380D01*
X80719047Y-58067380D02*
X80814285Y-58115000D01*
X80814285Y-58115000D02*
X80861904Y-58162619D01*
X80861904Y-58162619D02*
X80909523Y-58257857D01*
X80909523Y-58257857D02*
X80909523Y-58353095D01*
X80909523Y-58353095D02*
X80861904Y-58495952D01*
X80861904Y-58495952D02*
X80290476Y-59067380D01*
X80290476Y-59067380D02*
X80909523Y-59067380D01*
X81385714Y-59067380D02*
X81576190Y-59067380D01*
X81576190Y-59067380D02*
X81671428Y-59019761D01*
X81671428Y-59019761D02*
X81719047Y-58972142D01*
X81719047Y-58972142D02*
X81814285Y-58829285D01*
X81814285Y-58829285D02*
X81861904Y-58638809D01*
X81861904Y-58638809D02*
X81861904Y-58257857D01*
X81861904Y-58257857D02*
X81814285Y-58162619D01*
X81814285Y-58162619D02*
X81766666Y-58115000D01*
X81766666Y-58115000D02*
X81671428Y-58067380D01*
X81671428Y-58067380D02*
X81480952Y-58067380D01*
X81480952Y-58067380D02*
X81385714Y-58115000D01*
X81385714Y-58115000D02*
X81338095Y-58162619D01*
X81338095Y-58162619D02*
X81290476Y-58257857D01*
X81290476Y-58257857D02*
X81290476Y-58495952D01*
X81290476Y-58495952D02*
X81338095Y-58591190D01*
X81338095Y-58591190D02*
X81385714Y-58638809D01*
X81385714Y-58638809D02*
X81480952Y-58686428D01*
X81480952Y-58686428D02*
X81671428Y-58686428D01*
X81671428Y-58686428D02*
X81766666Y-58638809D01*
X81766666Y-58638809D02*
X81814285Y-58591190D01*
X81814285Y-58591190D02*
X81861904Y-58495952D01*
%TO.C,C28*%
X22192142Y-36042857D02*
X22239761Y-36090476D01*
X22239761Y-36090476D02*
X22287380Y-36233333D01*
X22287380Y-36233333D02*
X22287380Y-36328571D01*
X22287380Y-36328571D02*
X22239761Y-36471428D01*
X22239761Y-36471428D02*
X22144523Y-36566666D01*
X22144523Y-36566666D02*
X22049285Y-36614285D01*
X22049285Y-36614285D02*
X21858809Y-36661904D01*
X21858809Y-36661904D02*
X21715952Y-36661904D01*
X21715952Y-36661904D02*
X21525476Y-36614285D01*
X21525476Y-36614285D02*
X21430238Y-36566666D01*
X21430238Y-36566666D02*
X21335000Y-36471428D01*
X21335000Y-36471428D02*
X21287380Y-36328571D01*
X21287380Y-36328571D02*
X21287380Y-36233333D01*
X21287380Y-36233333D02*
X21335000Y-36090476D01*
X21335000Y-36090476D02*
X21382619Y-36042857D01*
X21382619Y-35661904D02*
X21335000Y-35614285D01*
X21335000Y-35614285D02*
X21287380Y-35519047D01*
X21287380Y-35519047D02*
X21287380Y-35280952D01*
X21287380Y-35280952D02*
X21335000Y-35185714D01*
X21335000Y-35185714D02*
X21382619Y-35138095D01*
X21382619Y-35138095D02*
X21477857Y-35090476D01*
X21477857Y-35090476D02*
X21573095Y-35090476D01*
X21573095Y-35090476D02*
X21715952Y-35138095D01*
X21715952Y-35138095D02*
X22287380Y-35709523D01*
X22287380Y-35709523D02*
X22287380Y-35090476D01*
X21715952Y-34519047D02*
X21668333Y-34614285D01*
X21668333Y-34614285D02*
X21620714Y-34661904D01*
X21620714Y-34661904D02*
X21525476Y-34709523D01*
X21525476Y-34709523D02*
X21477857Y-34709523D01*
X21477857Y-34709523D02*
X21382619Y-34661904D01*
X21382619Y-34661904D02*
X21335000Y-34614285D01*
X21335000Y-34614285D02*
X21287380Y-34519047D01*
X21287380Y-34519047D02*
X21287380Y-34328571D01*
X21287380Y-34328571D02*
X21335000Y-34233333D01*
X21335000Y-34233333D02*
X21382619Y-34185714D01*
X21382619Y-34185714D02*
X21477857Y-34138095D01*
X21477857Y-34138095D02*
X21525476Y-34138095D01*
X21525476Y-34138095D02*
X21620714Y-34185714D01*
X21620714Y-34185714D02*
X21668333Y-34233333D01*
X21668333Y-34233333D02*
X21715952Y-34328571D01*
X21715952Y-34328571D02*
X21715952Y-34519047D01*
X21715952Y-34519047D02*
X21763571Y-34614285D01*
X21763571Y-34614285D02*
X21811190Y-34661904D01*
X21811190Y-34661904D02*
X21906428Y-34709523D01*
X21906428Y-34709523D02*
X22096904Y-34709523D01*
X22096904Y-34709523D02*
X22192142Y-34661904D01*
X22192142Y-34661904D02*
X22239761Y-34614285D01*
X22239761Y-34614285D02*
X22287380Y-34519047D01*
X22287380Y-34519047D02*
X22287380Y-34328571D01*
X22287380Y-34328571D02*
X22239761Y-34233333D01*
X22239761Y-34233333D02*
X22192142Y-34185714D01*
X22192142Y-34185714D02*
X22096904Y-34138095D01*
X22096904Y-34138095D02*
X21906428Y-34138095D01*
X21906428Y-34138095D02*
X21811190Y-34185714D01*
X21811190Y-34185714D02*
X21763571Y-34233333D01*
X21763571Y-34233333D02*
X21715952Y-34328571D01*
%TO.C,C27*%
X79957142Y-52952142D02*
X79909523Y-52999761D01*
X79909523Y-52999761D02*
X79766666Y-53047380D01*
X79766666Y-53047380D02*
X79671428Y-53047380D01*
X79671428Y-53047380D02*
X79528571Y-52999761D01*
X79528571Y-52999761D02*
X79433333Y-52904523D01*
X79433333Y-52904523D02*
X79385714Y-52809285D01*
X79385714Y-52809285D02*
X79338095Y-52618809D01*
X79338095Y-52618809D02*
X79338095Y-52475952D01*
X79338095Y-52475952D02*
X79385714Y-52285476D01*
X79385714Y-52285476D02*
X79433333Y-52190238D01*
X79433333Y-52190238D02*
X79528571Y-52095000D01*
X79528571Y-52095000D02*
X79671428Y-52047380D01*
X79671428Y-52047380D02*
X79766666Y-52047380D01*
X79766666Y-52047380D02*
X79909523Y-52095000D01*
X79909523Y-52095000D02*
X79957142Y-52142619D01*
X80338095Y-52142619D02*
X80385714Y-52095000D01*
X80385714Y-52095000D02*
X80480952Y-52047380D01*
X80480952Y-52047380D02*
X80719047Y-52047380D01*
X80719047Y-52047380D02*
X80814285Y-52095000D01*
X80814285Y-52095000D02*
X80861904Y-52142619D01*
X80861904Y-52142619D02*
X80909523Y-52237857D01*
X80909523Y-52237857D02*
X80909523Y-52333095D01*
X80909523Y-52333095D02*
X80861904Y-52475952D01*
X80861904Y-52475952D02*
X80290476Y-53047380D01*
X80290476Y-53047380D02*
X80909523Y-53047380D01*
X81242857Y-52047380D02*
X81909523Y-52047380D01*
X81909523Y-52047380D02*
X81480952Y-53047380D01*
%TO.C,C26*%
X79957142Y-49942142D02*
X79909523Y-49989761D01*
X79909523Y-49989761D02*
X79766666Y-50037380D01*
X79766666Y-50037380D02*
X79671428Y-50037380D01*
X79671428Y-50037380D02*
X79528571Y-49989761D01*
X79528571Y-49989761D02*
X79433333Y-49894523D01*
X79433333Y-49894523D02*
X79385714Y-49799285D01*
X79385714Y-49799285D02*
X79338095Y-49608809D01*
X79338095Y-49608809D02*
X79338095Y-49465952D01*
X79338095Y-49465952D02*
X79385714Y-49275476D01*
X79385714Y-49275476D02*
X79433333Y-49180238D01*
X79433333Y-49180238D02*
X79528571Y-49085000D01*
X79528571Y-49085000D02*
X79671428Y-49037380D01*
X79671428Y-49037380D02*
X79766666Y-49037380D01*
X79766666Y-49037380D02*
X79909523Y-49085000D01*
X79909523Y-49085000D02*
X79957142Y-49132619D01*
X80338095Y-49132619D02*
X80385714Y-49085000D01*
X80385714Y-49085000D02*
X80480952Y-49037380D01*
X80480952Y-49037380D02*
X80719047Y-49037380D01*
X80719047Y-49037380D02*
X80814285Y-49085000D01*
X80814285Y-49085000D02*
X80861904Y-49132619D01*
X80861904Y-49132619D02*
X80909523Y-49227857D01*
X80909523Y-49227857D02*
X80909523Y-49323095D01*
X80909523Y-49323095D02*
X80861904Y-49465952D01*
X80861904Y-49465952D02*
X80290476Y-50037380D01*
X80290476Y-50037380D02*
X80909523Y-50037380D01*
X81766666Y-49037380D02*
X81576190Y-49037380D01*
X81576190Y-49037380D02*
X81480952Y-49085000D01*
X81480952Y-49085000D02*
X81433333Y-49132619D01*
X81433333Y-49132619D02*
X81338095Y-49275476D01*
X81338095Y-49275476D02*
X81290476Y-49465952D01*
X81290476Y-49465952D02*
X81290476Y-49846904D01*
X81290476Y-49846904D02*
X81338095Y-49942142D01*
X81338095Y-49942142D02*
X81385714Y-49989761D01*
X81385714Y-49989761D02*
X81480952Y-50037380D01*
X81480952Y-50037380D02*
X81671428Y-50037380D01*
X81671428Y-50037380D02*
X81766666Y-49989761D01*
X81766666Y-49989761D02*
X81814285Y-49942142D01*
X81814285Y-49942142D02*
X81861904Y-49846904D01*
X81861904Y-49846904D02*
X81861904Y-49608809D01*
X81861904Y-49608809D02*
X81814285Y-49513571D01*
X81814285Y-49513571D02*
X81766666Y-49465952D01*
X81766666Y-49465952D02*
X81671428Y-49418333D01*
X81671428Y-49418333D02*
X81480952Y-49418333D01*
X81480952Y-49418333D02*
X81385714Y-49465952D01*
X81385714Y-49465952D02*
X81338095Y-49513571D01*
X81338095Y-49513571D02*
X81290476Y-49608809D01*
%TO.C,C25*%
X33192142Y-36042857D02*
X33239761Y-36090476D01*
X33239761Y-36090476D02*
X33287380Y-36233333D01*
X33287380Y-36233333D02*
X33287380Y-36328571D01*
X33287380Y-36328571D02*
X33239761Y-36471428D01*
X33239761Y-36471428D02*
X33144523Y-36566666D01*
X33144523Y-36566666D02*
X33049285Y-36614285D01*
X33049285Y-36614285D02*
X32858809Y-36661904D01*
X32858809Y-36661904D02*
X32715952Y-36661904D01*
X32715952Y-36661904D02*
X32525476Y-36614285D01*
X32525476Y-36614285D02*
X32430238Y-36566666D01*
X32430238Y-36566666D02*
X32335000Y-36471428D01*
X32335000Y-36471428D02*
X32287380Y-36328571D01*
X32287380Y-36328571D02*
X32287380Y-36233333D01*
X32287380Y-36233333D02*
X32335000Y-36090476D01*
X32335000Y-36090476D02*
X32382619Y-36042857D01*
X32382619Y-35661904D02*
X32335000Y-35614285D01*
X32335000Y-35614285D02*
X32287380Y-35519047D01*
X32287380Y-35519047D02*
X32287380Y-35280952D01*
X32287380Y-35280952D02*
X32335000Y-35185714D01*
X32335000Y-35185714D02*
X32382619Y-35138095D01*
X32382619Y-35138095D02*
X32477857Y-35090476D01*
X32477857Y-35090476D02*
X32573095Y-35090476D01*
X32573095Y-35090476D02*
X32715952Y-35138095D01*
X32715952Y-35138095D02*
X33287380Y-35709523D01*
X33287380Y-35709523D02*
X33287380Y-35090476D01*
X32287380Y-34185714D02*
X32287380Y-34661904D01*
X32287380Y-34661904D02*
X32763571Y-34709523D01*
X32763571Y-34709523D02*
X32715952Y-34661904D01*
X32715952Y-34661904D02*
X32668333Y-34566666D01*
X32668333Y-34566666D02*
X32668333Y-34328571D01*
X32668333Y-34328571D02*
X32715952Y-34233333D01*
X32715952Y-34233333D02*
X32763571Y-34185714D01*
X32763571Y-34185714D02*
X32858809Y-34138095D01*
X32858809Y-34138095D02*
X33096904Y-34138095D01*
X33096904Y-34138095D02*
X33192142Y-34185714D01*
X33192142Y-34185714D02*
X33239761Y-34233333D01*
X33239761Y-34233333D02*
X33287380Y-34328571D01*
X33287380Y-34328571D02*
X33287380Y-34566666D01*
X33287380Y-34566666D02*
X33239761Y-34661904D01*
X33239761Y-34661904D02*
X33192142Y-34709523D01*
%TO.C,C24*%
X75507142Y-71012142D02*
X75459523Y-71059761D01*
X75459523Y-71059761D02*
X75316666Y-71107380D01*
X75316666Y-71107380D02*
X75221428Y-71107380D01*
X75221428Y-71107380D02*
X75078571Y-71059761D01*
X75078571Y-71059761D02*
X74983333Y-70964523D01*
X74983333Y-70964523D02*
X74935714Y-70869285D01*
X74935714Y-70869285D02*
X74888095Y-70678809D01*
X74888095Y-70678809D02*
X74888095Y-70535952D01*
X74888095Y-70535952D02*
X74935714Y-70345476D01*
X74935714Y-70345476D02*
X74983333Y-70250238D01*
X74983333Y-70250238D02*
X75078571Y-70155000D01*
X75078571Y-70155000D02*
X75221428Y-70107380D01*
X75221428Y-70107380D02*
X75316666Y-70107380D01*
X75316666Y-70107380D02*
X75459523Y-70155000D01*
X75459523Y-70155000D02*
X75507142Y-70202619D01*
X75888095Y-70202619D02*
X75935714Y-70155000D01*
X75935714Y-70155000D02*
X76030952Y-70107380D01*
X76030952Y-70107380D02*
X76269047Y-70107380D01*
X76269047Y-70107380D02*
X76364285Y-70155000D01*
X76364285Y-70155000D02*
X76411904Y-70202619D01*
X76411904Y-70202619D02*
X76459523Y-70297857D01*
X76459523Y-70297857D02*
X76459523Y-70393095D01*
X76459523Y-70393095D02*
X76411904Y-70535952D01*
X76411904Y-70535952D02*
X75840476Y-71107380D01*
X75840476Y-71107380D02*
X76459523Y-71107380D01*
X77316666Y-70440714D02*
X77316666Y-71107380D01*
X77078571Y-70059761D02*
X76840476Y-70774047D01*
X76840476Y-70774047D02*
X77459523Y-70774047D01*
%TO.C,C23*%
X95857142Y-81262142D02*
X95809523Y-81309761D01*
X95809523Y-81309761D02*
X95666666Y-81357380D01*
X95666666Y-81357380D02*
X95571428Y-81357380D01*
X95571428Y-81357380D02*
X95428571Y-81309761D01*
X95428571Y-81309761D02*
X95333333Y-81214523D01*
X95333333Y-81214523D02*
X95285714Y-81119285D01*
X95285714Y-81119285D02*
X95238095Y-80928809D01*
X95238095Y-80928809D02*
X95238095Y-80785952D01*
X95238095Y-80785952D02*
X95285714Y-80595476D01*
X95285714Y-80595476D02*
X95333333Y-80500238D01*
X95333333Y-80500238D02*
X95428571Y-80405000D01*
X95428571Y-80405000D02*
X95571428Y-80357380D01*
X95571428Y-80357380D02*
X95666666Y-80357380D01*
X95666666Y-80357380D02*
X95809523Y-80405000D01*
X95809523Y-80405000D02*
X95857142Y-80452619D01*
X96238095Y-80452619D02*
X96285714Y-80405000D01*
X96285714Y-80405000D02*
X96380952Y-80357380D01*
X96380952Y-80357380D02*
X96619047Y-80357380D01*
X96619047Y-80357380D02*
X96714285Y-80405000D01*
X96714285Y-80405000D02*
X96761904Y-80452619D01*
X96761904Y-80452619D02*
X96809523Y-80547857D01*
X96809523Y-80547857D02*
X96809523Y-80643095D01*
X96809523Y-80643095D02*
X96761904Y-80785952D01*
X96761904Y-80785952D02*
X96190476Y-81357380D01*
X96190476Y-81357380D02*
X96809523Y-81357380D01*
X97142857Y-80357380D02*
X97761904Y-80357380D01*
X97761904Y-80357380D02*
X97428571Y-80738333D01*
X97428571Y-80738333D02*
X97571428Y-80738333D01*
X97571428Y-80738333D02*
X97666666Y-80785952D01*
X97666666Y-80785952D02*
X97714285Y-80833571D01*
X97714285Y-80833571D02*
X97761904Y-80928809D01*
X97761904Y-80928809D02*
X97761904Y-81166904D01*
X97761904Y-81166904D02*
X97714285Y-81262142D01*
X97714285Y-81262142D02*
X97666666Y-81309761D01*
X97666666Y-81309761D02*
X97571428Y-81357380D01*
X97571428Y-81357380D02*
X97285714Y-81357380D01*
X97285714Y-81357380D02*
X97190476Y-81309761D01*
X97190476Y-81309761D02*
X97142857Y-81262142D01*
%TO.C,C22*%
X95857142Y-78252142D02*
X95809523Y-78299761D01*
X95809523Y-78299761D02*
X95666666Y-78347380D01*
X95666666Y-78347380D02*
X95571428Y-78347380D01*
X95571428Y-78347380D02*
X95428571Y-78299761D01*
X95428571Y-78299761D02*
X95333333Y-78204523D01*
X95333333Y-78204523D02*
X95285714Y-78109285D01*
X95285714Y-78109285D02*
X95238095Y-77918809D01*
X95238095Y-77918809D02*
X95238095Y-77775952D01*
X95238095Y-77775952D02*
X95285714Y-77585476D01*
X95285714Y-77585476D02*
X95333333Y-77490238D01*
X95333333Y-77490238D02*
X95428571Y-77395000D01*
X95428571Y-77395000D02*
X95571428Y-77347380D01*
X95571428Y-77347380D02*
X95666666Y-77347380D01*
X95666666Y-77347380D02*
X95809523Y-77395000D01*
X95809523Y-77395000D02*
X95857142Y-77442619D01*
X96238095Y-77442619D02*
X96285714Y-77395000D01*
X96285714Y-77395000D02*
X96380952Y-77347380D01*
X96380952Y-77347380D02*
X96619047Y-77347380D01*
X96619047Y-77347380D02*
X96714285Y-77395000D01*
X96714285Y-77395000D02*
X96761904Y-77442619D01*
X96761904Y-77442619D02*
X96809523Y-77537857D01*
X96809523Y-77537857D02*
X96809523Y-77633095D01*
X96809523Y-77633095D02*
X96761904Y-77775952D01*
X96761904Y-77775952D02*
X96190476Y-78347380D01*
X96190476Y-78347380D02*
X96809523Y-78347380D01*
X97190476Y-77442619D02*
X97238095Y-77395000D01*
X97238095Y-77395000D02*
X97333333Y-77347380D01*
X97333333Y-77347380D02*
X97571428Y-77347380D01*
X97571428Y-77347380D02*
X97666666Y-77395000D01*
X97666666Y-77395000D02*
X97714285Y-77442619D01*
X97714285Y-77442619D02*
X97761904Y-77537857D01*
X97761904Y-77537857D02*
X97761904Y-77633095D01*
X97761904Y-77633095D02*
X97714285Y-77775952D01*
X97714285Y-77775952D02*
X97142857Y-78347380D01*
X97142857Y-78347380D02*
X97761904Y-78347380D01*
%TO.C,C21*%
X75507142Y-61982142D02*
X75459523Y-62029761D01*
X75459523Y-62029761D02*
X75316666Y-62077380D01*
X75316666Y-62077380D02*
X75221428Y-62077380D01*
X75221428Y-62077380D02*
X75078571Y-62029761D01*
X75078571Y-62029761D02*
X74983333Y-61934523D01*
X74983333Y-61934523D02*
X74935714Y-61839285D01*
X74935714Y-61839285D02*
X74888095Y-61648809D01*
X74888095Y-61648809D02*
X74888095Y-61505952D01*
X74888095Y-61505952D02*
X74935714Y-61315476D01*
X74935714Y-61315476D02*
X74983333Y-61220238D01*
X74983333Y-61220238D02*
X75078571Y-61125000D01*
X75078571Y-61125000D02*
X75221428Y-61077380D01*
X75221428Y-61077380D02*
X75316666Y-61077380D01*
X75316666Y-61077380D02*
X75459523Y-61125000D01*
X75459523Y-61125000D02*
X75507142Y-61172619D01*
X75888095Y-61172619D02*
X75935714Y-61125000D01*
X75935714Y-61125000D02*
X76030952Y-61077380D01*
X76030952Y-61077380D02*
X76269047Y-61077380D01*
X76269047Y-61077380D02*
X76364285Y-61125000D01*
X76364285Y-61125000D02*
X76411904Y-61172619D01*
X76411904Y-61172619D02*
X76459523Y-61267857D01*
X76459523Y-61267857D02*
X76459523Y-61363095D01*
X76459523Y-61363095D02*
X76411904Y-61505952D01*
X76411904Y-61505952D02*
X75840476Y-62077380D01*
X75840476Y-62077380D02*
X76459523Y-62077380D01*
X77411904Y-62077380D02*
X76840476Y-62077380D01*
X77126190Y-62077380D02*
X77126190Y-61077380D01*
X77126190Y-61077380D02*
X77030952Y-61220238D01*
X77030952Y-61220238D02*
X76935714Y-61315476D01*
X76935714Y-61315476D02*
X76840476Y-61363095D01*
%TO.C,C20*%
X95857142Y-73472142D02*
X95809523Y-73519761D01*
X95809523Y-73519761D02*
X95666666Y-73567380D01*
X95666666Y-73567380D02*
X95571428Y-73567380D01*
X95571428Y-73567380D02*
X95428571Y-73519761D01*
X95428571Y-73519761D02*
X95333333Y-73424523D01*
X95333333Y-73424523D02*
X95285714Y-73329285D01*
X95285714Y-73329285D02*
X95238095Y-73138809D01*
X95238095Y-73138809D02*
X95238095Y-72995952D01*
X95238095Y-72995952D02*
X95285714Y-72805476D01*
X95285714Y-72805476D02*
X95333333Y-72710238D01*
X95333333Y-72710238D02*
X95428571Y-72615000D01*
X95428571Y-72615000D02*
X95571428Y-72567380D01*
X95571428Y-72567380D02*
X95666666Y-72567380D01*
X95666666Y-72567380D02*
X95809523Y-72615000D01*
X95809523Y-72615000D02*
X95857142Y-72662619D01*
X96238095Y-72662619D02*
X96285714Y-72615000D01*
X96285714Y-72615000D02*
X96380952Y-72567380D01*
X96380952Y-72567380D02*
X96619047Y-72567380D01*
X96619047Y-72567380D02*
X96714285Y-72615000D01*
X96714285Y-72615000D02*
X96761904Y-72662619D01*
X96761904Y-72662619D02*
X96809523Y-72757857D01*
X96809523Y-72757857D02*
X96809523Y-72853095D01*
X96809523Y-72853095D02*
X96761904Y-72995952D01*
X96761904Y-72995952D02*
X96190476Y-73567380D01*
X96190476Y-73567380D02*
X96809523Y-73567380D01*
X97428571Y-72567380D02*
X97523809Y-72567380D01*
X97523809Y-72567380D02*
X97619047Y-72615000D01*
X97619047Y-72615000D02*
X97666666Y-72662619D01*
X97666666Y-72662619D02*
X97714285Y-72757857D01*
X97714285Y-72757857D02*
X97761904Y-72948333D01*
X97761904Y-72948333D02*
X97761904Y-73186428D01*
X97761904Y-73186428D02*
X97714285Y-73376904D01*
X97714285Y-73376904D02*
X97666666Y-73472142D01*
X97666666Y-73472142D02*
X97619047Y-73519761D01*
X97619047Y-73519761D02*
X97523809Y-73567380D01*
X97523809Y-73567380D02*
X97428571Y-73567380D01*
X97428571Y-73567380D02*
X97333333Y-73519761D01*
X97333333Y-73519761D02*
X97285714Y-73472142D01*
X97285714Y-73472142D02*
X97238095Y-73376904D01*
X97238095Y-73376904D02*
X97190476Y-73186428D01*
X97190476Y-73186428D02*
X97190476Y-72948333D01*
X97190476Y-72948333D02*
X97238095Y-72757857D01*
X97238095Y-72757857D02*
X97285714Y-72662619D01*
X97285714Y-72662619D02*
X97333333Y-72615000D01*
X97333333Y-72615000D02*
X97428571Y-72567380D01*
%TO.C,C19*%
X95857142Y-70462142D02*
X95809523Y-70509761D01*
X95809523Y-70509761D02*
X95666666Y-70557380D01*
X95666666Y-70557380D02*
X95571428Y-70557380D01*
X95571428Y-70557380D02*
X95428571Y-70509761D01*
X95428571Y-70509761D02*
X95333333Y-70414523D01*
X95333333Y-70414523D02*
X95285714Y-70319285D01*
X95285714Y-70319285D02*
X95238095Y-70128809D01*
X95238095Y-70128809D02*
X95238095Y-69985952D01*
X95238095Y-69985952D02*
X95285714Y-69795476D01*
X95285714Y-69795476D02*
X95333333Y-69700238D01*
X95333333Y-69700238D02*
X95428571Y-69605000D01*
X95428571Y-69605000D02*
X95571428Y-69557380D01*
X95571428Y-69557380D02*
X95666666Y-69557380D01*
X95666666Y-69557380D02*
X95809523Y-69605000D01*
X95809523Y-69605000D02*
X95857142Y-69652619D01*
X96809523Y-70557380D02*
X96238095Y-70557380D01*
X96523809Y-70557380D02*
X96523809Y-69557380D01*
X96523809Y-69557380D02*
X96428571Y-69700238D01*
X96428571Y-69700238D02*
X96333333Y-69795476D01*
X96333333Y-69795476D02*
X96238095Y-69843095D01*
X97285714Y-70557380D02*
X97476190Y-70557380D01*
X97476190Y-70557380D02*
X97571428Y-70509761D01*
X97571428Y-70509761D02*
X97619047Y-70462142D01*
X97619047Y-70462142D02*
X97714285Y-70319285D01*
X97714285Y-70319285D02*
X97761904Y-70128809D01*
X97761904Y-70128809D02*
X97761904Y-69747857D01*
X97761904Y-69747857D02*
X97714285Y-69652619D01*
X97714285Y-69652619D02*
X97666666Y-69605000D01*
X97666666Y-69605000D02*
X97571428Y-69557380D01*
X97571428Y-69557380D02*
X97380952Y-69557380D01*
X97380952Y-69557380D02*
X97285714Y-69605000D01*
X97285714Y-69605000D02*
X97238095Y-69652619D01*
X97238095Y-69652619D02*
X97190476Y-69747857D01*
X97190476Y-69747857D02*
X97190476Y-69985952D01*
X97190476Y-69985952D02*
X97238095Y-70081190D01*
X97238095Y-70081190D02*
X97285714Y-70128809D01*
X97285714Y-70128809D02*
X97380952Y-70176428D01*
X97380952Y-70176428D02*
X97571428Y-70176428D01*
X97571428Y-70176428D02*
X97666666Y-70128809D01*
X97666666Y-70128809D02*
X97714285Y-70081190D01*
X97714285Y-70081190D02*
X97761904Y-69985952D01*
%TO.C,C18*%
X95857142Y-67452142D02*
X95809523Y-67499761D01*
X95809523Y-67499761D02*
X95666666Y-67547380D01*
X95666666Y-67547380D02*
X95571428Y-67547380D01*
X95571428Y-67547380D02*
X95428571Y-67499761D01*
X95428571Y-67499761D02*
X95333333Y-67404523D01*
X95333333Y-67404523D02*
X95285714Y-67309285D01*
X95285714Y-67309285D02*
X95238095Y-67118809D01*
X95238095Y-67118809D02*
X95238095Y-66975952D01*
X95238095Y-66975952D02*
X95285714Y-66785476D01*
X95285714Y-66785476D02*
X95333333Y-66690238D01*
X95333333Y-66690238D02*
X95428571Y-66595000D01*
X95428571Y-66595000D02*
X95571428Y-66547380D01*
X95571428Y-66547380D02*
X95666666Y-66547380D01*
X95666666Y-66547380D02*
X95809523Y-66595000D01*
X95809523Y-66595000D02*
X95857142Y-66642619D01*
X96809523Y-67547380D02*
X96238095Y-67547380D01*
X96523809Y-67547380D02*
X96523809Y-66547380D01*
X96523809Y-66547380D02*
X96428571Y-66690238D01*
X96428571Y-66690238D02*
X96333333Y-66785476D01*
X96333333Y-66785476D02*
X96238095Y-66833095D01*
X97380952Y-66975952D02*
X97285714Y-66928333D01*
X97285714Y-66928333D02*
X97238095Y-66880714D01*
X97238095Y-66880714D02*
X97190476Y-66785476D01*
X97190476Y-66785476D02*
X97190476Y-66737857D01*
X97190476Y-66737857D02*
X97238095Y-66642619D01*
X97238095Y-66642619D02*
X97285714Y-66595000D01*
X97285714Y-66595000D02*
X97380952Y-66547380D01*
X97380952Y-66547380D02*
X97571428Y-66547380D01*
X97571428Y-66547380D02*
X97666666Y-66595000D01*
X97666666Y-66595000D02*
X97714285Y-66642619D01*
X97714285Y-66642619D02*
X97761904Y-66737857D01*
X97761904Y-66737857D02*
X97761904Y-66785476D01*
X97761904Y-66785476D02*
X97714285Y-66880714D01*
X97714285Y-66880714D02*
X97666666Y-66928333D01*
X97666666Y-66928333D02*
X97571428Y-66975952D01*
X97571428Y-66975952D02*
X97380952Y-66975952D01*
X97380952Y-66975952D02*
X97285714Y-67023571D01*
X97285714Y-67023571D02*
X97238095Y-67071190D01*
X97238095Y-67071190D02*
X97190476Y-67166428D01*
X97190476Y-67166428D02*
X97190476Y-67356904D01*
X97190476Y-67356904D02*
X97238095Y-67452142D01*
X97238095Y-67452142D02*
X97285714Y-67499761D01*
X97285714Y-67499761D02*
X97380952Y-67547380D01*
X97380952Y-67547380D02*
X97571428Y-67547380D01*
X97571428Y-67547380D02*
X97666666Y-67499761D01*
X97666666Y-67499761D02*
X97714285Y-67452142D01*
X97714285Y-67452142D02*
X97761904Y-67356904D01*
X97761904Y-67356904D02*
X97761904Y-67166428D01*
X97761904Y-67166428D02*
X97714285Y-67071190D01*
X97714285Y-67071190D02*
X97666666Y-67023571D01*
X97666666Y-67023571D02*
X97571428Y-66975952D01*
%TO.C,C17*%
X95857142Y-64442142D02*
X95809523Y-64489761D01*
X95809523Y-64489761D02*
X95666666Y-64537380D01*
X95666666Y-64537380D02*
X95571428Y-64537380D01*
X95571428Y-64537380D02*
X95428571Y-64489761D01*
X95428571Y-64489761D02*
X95333333Y-64394523D01*
X95333333Y-64394523D02*
X95285714Y-64299285D01*
X95285714Y-64299285D02*
X95238095Y-64108809D01*
X95238095Y-64108809D02*
X95238095Y-63965952D01*
X95238095Y-63965952D02*
X95285714Y-63775476D01*
X95285714Y-63775476D02*
X95333333Y-63680238D01*
X95333333Y-63680238D02*
X95428571Y-63585000D01*
X95428571Y-63585000D02*
X95571428Y-63537380D01*
X95571428Y-63537380D02*
X95666666Y-63537380D01*
X95666666Y-63537380D02*
X95809523Y-63585000D01*
X95809523Y-63585000D02*
X95857142Y-63632619D01*
X96809523Y-64537380D02*
X96238095Y-64537380D01*
X96523809Y-64537380D02*
X96523809Y-63537380D01*
X96523809Y-63537380D02*
X96428571Y-63680238D01*
X96428571Y-63680238D02*
X96333333Y-63775476D01*
X96333333Y-63775476D02*
X96238095Y-63823095D01*
X97142857Y-63537380D02*
X97809523Y-63537380D01*
X97809523Y-63537380D02*
X97380952Y-64537380D01*
%TO.C,C16*%
X95857142Y-61282142D02*
X95809523Y-61329761D01*
X95809523Y-61329761D02*
X95666666Y-61377380D01*
X95666666Y-61377380D02*
X95571428Y-61377380D01*
X95571428Y-61377380D02*
X95428571Y-61329761D01*
X95428571Y-61329761D02*
X95333333Y-61234523D01*
X95333333Y-61234523D02*
X95285714Y-61139285D01*
X95285714Y-61139285D02*
X95238095Y-60948809D01*
X95238095Y-60948809D02*
X95238095Y-60805952D01*
X95238095Y-60805952D02*
X95285714Y-60615476D01*
X95285714Y-60615476D02*
X95333333Y-60520238D01*
X95333333Y-60520238D02*
X95428571Y-60425000D01*
X95428571Y-60425000D02*
X95571428Y-60377380D01*
X95571428Y-60377380D02*
X95666666Y-60377380D01*
X95666666Y-60377380D02*
X95809523Y-60425000D01*
X95809523Y-60425000D02*
X95857142Y-60472619D01*
X96809523Y-61377380D02*
X96238095Y-61377380D01*
X96523809Y-61377380D02*
X96523809Y-60377380D01*
X96523809Y-60377380D02*
X96428571Y-60520238D01*
X96428571Y-60520238D02*
X96333333Y-60615476D01*
X96333333Y-60615476D02*
X96238095Y-60663095D01*
X97666666Y-60377380D02*
X97476190Y-60377380D01*
X97476190Y-60377380D02*
X97380952Y-60425000D01*
X97380952Y-60425000D02*
X97333333Y-60472619D01*
X97333333Y-60472619D02*
X97238095Y-60615476D01*
X97238095Y-60615476D02*
X97190476Y-60805952D01*
X97190476Y-60805952D02*
X97190476Y-61186904D01*
X97190476Y-61186904D02*
X97238095Y-61282142D01*
X97238095Y-61282142D02*
X97285714Y-61329761D01*
X97285714Y-61329761D02*
X97380952Y-61377380D01*
X97380952Y-61377380D02*
X97571428Y-61377380D01*
X97571428Y-61377380D02*
X97666666Y-61329761D01*
X97666666Y-61329761D02*
X97714285Y-61282142D01*
X97714285Y-61282142D02*
X97761904Y-61186904D01*
X97761904Y-61186904D02*
X97761904Y-60948809D01*
X97761904Y-60948809D02*
X97714285Y-60853571D01*
X97714285Y-60853571D02*
X97666666Y-60805952D01*
X97666666Y-60805952D02*
X97571428Y-60758333D01*
X97571428Y-60758333D02*
X97380952Y-60758333D01*
X97380952Y-60758333D02*
X97285714Y-60805952D01*
X97285714Y-60805952D02*
X97238095Y-60853571D01*
X97238095Y-60853571D02*
X97190476Y-60948809D01*
%TO.C,C15*%
X95857142Y-58272142D02*
X95809523Y-58319761D01*
X95809523Y-58319761D02*
X95666666Y-58367380D01*
X95666666Y-58367380D02*
X95571428Y-58367380D01*
X95571428Y-58367380D02*
X95428571Y-58319761D01*
X95428571Y-58319761D02*
X95333333Y-58224523D01*
X95333333Y-58224523D02*
X95285714Y-58129285D01*
X95285714Y-58129285D02*
X95238095Y-57938809D01*
X95238095Y-57938809D02*
X95238095Y-57795952D01*
X95238095Y-57795952D02*
X95285714Y-57605476D01*
X95285714Y-57605476D02*
X95333333Y-57510238D01*
X95333333Y-57510238D02*
X95428571Y-57415000D01*
X95428571Y-57415000D02*
X95571428Y-57367380D01*
X95571428Y-57367380D02*
X95666666Y-57367380D01*
X95666666Y-57367380D02*
X95809523Y-57415000D01*
X95809523Y-57415000D02*
X95857142Y-57462619D01*
X96809523Y-58367380D02*
X96238095Y-58367380D01*
X96523809Y-58367380D02*
X96523809Y-57367380D01*
X96523809Y-57367380D02*
X96428571Y-57510238D01*
X96428571Y-57510238D02*
X96333333Y-57605476D01*
X96333333Y-57605476D02*
X96238095Y-57653095D01*
X97714285Y-57367380D02*
X97238095Y-57367380D01*
X97238095Y-57367380D02*
X97190476Y-57843571D01*
X97190476Y-57843571D02*
X97238095Y-57795952D01*
X97238095Y-57795952D02*
X97333333Y-57748333D01*
X97333333Y-57748333D02*
X97571428Y-57748333D01*
X97571428Y-57748333D02*
X97666666Y-57795952D01*
X97666666Y-57795952D02*
X97714285Y-57843571D01*
X97714285Y-57843571D02*
X97761904Y-57938809D01*
X97761904Y-57938809D02*
X97761904Y-58176904D01*
X97761904Y-58176904D02*
X97714285Y-58272142D01*
X97714285Y-58272142D02*
X97666666Y-58319761D01*
X97666666Y-58319761D02*
X97571428Y-58367380D01*
X97571428Y-58367380D02*
X97333333Y-58367380D01*
X97333333Y-58367380D02*
X97238095Y-58319761D01*
X97238095Y-58319761D02*
X97190476Y-58272142D01*
%TO.C,C14*%
X95857142Y-55262142D02*
X95809523Y-55309761D01*
X95809523Y-55309761D02*
X95666666Y-55357380D01*
X95666666Y-55357380D02*
X95571428Y-55357380D01*
X95571428Y-55357380D02*
X95428571Y-55309761D01*
X95428571Y-55309761D02*
X95333333Y-55214523D01*
X95333333Y-55214523D02*
X95285714Y-55119285D01*
X95285714Y-55119285D02*
X95238095Y-54928809D01*
X95238095Y-54928809D02*
X95238095Y-54785952D01*
X95238095Y-54785952D02*
X95285714Y-54595476D01*
X95285714Y-54595476D02*
X95333333Y-54500238D01*
X95333333Y-54500238D02*
X95428571Y-54405000D01*
X95428571Y-54405000D02*
X95571428Y-54357380D01*
X95571428Y-54357380D02*
X95666666Y-54357380D01*
X95666666Y-54357380D02*
X95809523Y-54405000D01*
X95809523Y-54405000D02*
X95857142Y-54452619D01*
X96809523Y-55357380D02*
X96238095Y-55357380D01*
X96523809Y-55357380D02*
X96523809Y-54357380D01*
X96523809Y-54357380D02*
X96428571Y-54500238D01*
X96428571Y-54500238D02*
X96333333Y-54595476D01*
X96333333Y-54595476D02*
X96238095Y-54643095D01*
X97666666Y-54690714D02*
X97666666Y-55357380D01*
X97428571Y-54309761D02*
X97190476Y-55024047D01*
X97190476Y-55024047D02*
X97809523Y-55024047D01*
%TO.C,C6*%
X71533333Y-64992142D02*
X71485714Y-65039761D01*
X71485714Y-65039761D02*
X71342857Y-65087380D01*
X71342857Y-65087380D02*
X71247619Y-65087380D01*
X71247619Y-65087380D02*
X71104762Y-65039761D01*
X71104762Y-65039761D02*
X71009524Y-64944523D01*
X71009524Y-64944523D02*
X70961905Y-64849285D01*
X70961905Y-64849285D02*
X70914286Y-64658809D01*
X70914286Y-64658809D02*
X70914286Y-64515952D01*
X70914286Y-64515952D02*
X70961905Y-64325476D01*
X70961905Y-64325476D02*
X71009524Y-64230238D01*
X71009524Y-64230238D02*
X71104762Y-64135000D01*
X71104762Y-64135000D02*
X71247619Y-64087380D01*
X71247619Y-64087380D02*
X71342857Y-64087380D01*
X71342857Y-64087380D02*
X71485714Y-64135000D01*
X71485714Y-64135000D02*
X71533333Y-64182619D01*
X72390476Y-64087380D02*
X72200000Y-64087380D01*
X72200000Y-64087380D02*
X72104762Y-64135000D01*
X72104762Y-64135000D02*
X72057143Y-64182619D01*
X72057143Y-64182619D02*
X71961905Y-64325476D01*
X71961905Y-64325476D02*
X71914286Y-64515952D01*
X71914286Y-64515952D02*
X71914286Y-64896904D01*
X71914286Y-64896904D02*
X71961905Y-64992142D01*
X71961905Y-64992142D02*
X72009524Y-65039761D01*
X72009524Y-65039761D02*
X72104762Y-65087380D01*
X72104762Y-65087380D02*
X72295238Y-65087380D01*
X72295238Y-65087380D02*
X72390476Y-65039761D01*
X72390476Y-65039761D02*
X72438095Y-64992142D01*
X72438095Y-64992142D02*
X72485714Y-64896904D01*
X72485714Y-64896904D02*
X72485714Y-64658809D01*
X72485714Y-64658809D02*
X72438095Y-64563571D01*
X72438095Y-64563571D02*
X72390476Y-64515952D01*
X72390476Y-64515952D02*
X72295238Y-64468333D01*
X72295238Y-64468333D02*
X72104762Y-64468333D01*
X72104762Y-64468333D02*
X72009524Y-64515952D01*
X72009524Y-64515952D02*
X71961905Y-64563571D01*
X71961905Y-64563571D02*
X71914286Y-64658809D01*
%TO.C,C5*%
X71533333Y-61982142D02*
X71485714Y-62029761D01*
X71485714Y-62029761D02*
X71342857Y-62077380D01*
X71342857Y-62077380D02*
X71247619Y-62077380D01*
X71247619Y-62077380D02*
X71104762Y-62029761D01*
X71104762Y-62029761D02*
X71009524Y-61934523D01*
X71009524Y-61934523D02*
X70961905Y-61839285D01*
X70961905Y-61839285D02*
X70914286Y-61648809D01*
X70914286Y-61648809D02*
X70914286Y-61505952D01*
X70914286Y-61505952D02*
X70961905Y-61315476D01*
X70961905Y-61315476D02*
X71009524Y-61220238D01*
X71009524Y-61220238D02*
X71104762Y-61125000D01*
X71104762Y-61125000D02*
X71247619Y-61077380D01*
X71247619Y-61077380D02*
X71342857Y-61077380D01*
X71342857Y-61077380D02*
X71485714Y-61125000D01*
X71485714Y-61125000D02*
X71533333Y-61172619D01*
X72438095Y-61077380D02*
X71961905Y-61077380D01*
X71961905Y-61077380D02*
X71914286Y-61553571D01*
X71914286Y-61553571D02*
X71961905Y-61505952D01*
X71961905Y-61505952D02*
X72057143Y-61458333D01*
X72057143Y-61458333D02*
X72295238Y-61458333D01*
X72295238Y-61458333D02*
X72390476Y-61505952D01*
X72390476Y-61505952D02*
X72438095Y-61553571D01*
X72438095Y-61553571D02*
X72485714Y-61648809D01*
X72485714Y-61648809D02*
X72485714Y-61886904D01*
X72485714Y-61886904D02*
X72438095Y-61982142D01*
X72438095Y-61982142D02*
X72390476Y-62029761D01*
X72390476Y-62029761D02*
X72295238Y-62077380D01*
X72295238Y-62077380D02*
X72057143Y-62077380D01*
X72057143Y-62077380D02*
X71961905Y-62029761D01*
X71961905Y-62029761D02*
X71914286Y-61982142D01*
%TO.C,C4*%
X71533333Y-58972142D02*
X71485714Y-59019761D01*
X71485714Y-59019761D02*
X71342857Y-59067380D01*
X71342857Y-59067380D02*
X71247619Y-59067380D01*
X71247619Y-59067380D02*
X71104762Y-59019761D01*
X71104762Y-59019761D02*
X71009524Y-58924523D01*
X71009524Y-58924523D02*
X70961905Y-58829285D01*
X70961905Y-58829285D02*
X70914286Y-58638809D01*
X70914286Y-58638809D02*
X70914286Y-58495952D01*
X70914286Y-58495952D02*
X70961905Y-58305476D01*
X70961905Y-58305476D02*
X71009524Y-58210238D01*
X71009524Y-58210238D02*
X71104762Y-58115000D01*
X71104762Y-58115000D02*
X71247619Y-58067380D01*
X71247619Y-58067380D02*
X71342857Y-58067380D01*
X71342857Y-58067380D02*
X71485714Y-58115000D01*
X71485714Y-58115000D02*
X71533333Y-58162619D01*
X72390476Y-58400714D02*
X72390476Y-59067380D01*
X72152381Y-58019761D02*
X71914286Y-58734047D01*
X71914286Y-58734047D02*
X72533333Y-58734047D01*
%TO.C,C3*%
X71533333Y-55962142D02*
X71485714Y-56009761D01*
X71485714Y-56009761D02*
X71342857Y-56057380D01*
X71342857Y-56057380D02*
X71247619Y-56057380D01*
X71247619Y-56057380D02*
X71104762Y-56009761D01*
X71104762Y-56009761D02*
X71009524Y-55914523D01*
X71009524Y-55914523D02*
X70961905Y-55819285D01*
X70961905Y-55819285D02*
X70914286Y-55628809D01*
X70914286Y-55628809D02*
X70914286Y-55485952D01*
X70914286Y-55485952D02*
X70961905Y-55295476D01*
X70961905Y-55295476D02*
X71009524Y-55200238D01*
X71009524Y-55200238D02*
X71104762Y-55105000D01*
X71104762Y-55105000D02*
X71247619Y-55057380D01*
X71247619Y-55057380D02*
X71342857Y-55057380D01*
X71342857Y-55057380D02*
X71485714Y-55105000D01*
X71485714Y-55105000D02*
X71533333Y-55152619D01*
X71866667Y-55057380D02*
X72485714Y-55057380D01*
X72485714Y-55057380D02*
X72152381Y-55438333D01*
X72152381Y-55438333D02*
X72295238Y-55438333D01*
X72295238Y-55438333D02*
X72390476Y-55485952D01*
X72390476Y-55485952D02*
X72438095Y-55533571D01*
X72438095Y-55533571D02*
X72485714Y-55628809D01*
X72485714Y-55628809D02*
X72485714Y-55866904D01*
X72485714Y-55866904D02*
X72438095Y-55962142D01*
X72438095Y-55962142D02*
X72390476Y-56009761D01*
X72390476Y-56009761D02*
X72295238Y-56057380D01*
X72295238Y-56057380D02*
X72009524Y-56057380D01*
X72009524Y-56057380D02*
X71914286Y-56009761D01*
X71914286Y-56009761D02*
X71866667Y-55962142D01*
%TO.C,C2*%
X71533333Y-52952142D02*
X71485714Y-52999761D01*
X71485714Y-52999761D02*
X71342857Y-53047380D01*
X71342857Y-53047380D02*
X71247619Y-53047380D01*
X71247619Y-53047380D02*
X71104762Y-52999761D01*
X71104762Y-52999761D02*
X71009524Y-52904523D01*
X71009524Y-52904523D02*
X70961905Y-52809285D01*
X70961905Y-52809285D02*
X70914286Y-52618809D01*
X70914286Y-52618809D02*
X70914286Y-52475952D01*
X70914286Y-52475952D02*
X70961905Y-52285476D01*
X70961905Y-52285476D02*
X71009524Y-52190238D01*
X71009524Y-52190238D02*
X71104762Y-52095000D01*
X71104762Y-52095000D02*
X71247619Y-52047380D01*
X71247619Y-52047380D02*
X71342857Y-52047380D01*
X71342857Y-52047380D02*
X71485714Y-52095000D01*
X71485714Y-52095000D02*
X71533333Y-52142619D01*
X71914286Y-52142619D02*
X71961905Y-52095000D01*
X71961905Y-52095000D02*
X72057143Y-52047380D01*
X72057143Y-52047380D02*
X72295238Y-52047380D01*
X72295238Y-52047380D02*
X72390476Y-52095000D01*
X72390476Y-52095000D02*
X72438095Y-52142619D01*
X72438095Y-52142619D02*
X72485714Y-52237857D01*
X72485714Y-52237857D02*
X72485714Y-52333095D01*
X72485714Y-52333095D02*
X72438095Y-52475952D01*
X72438095Y-52475952D02*
X71866667Y-53047380D01*
X71866667Y-53047380D02*
X72485714Y-53047380D01*
%TO.C,C1*%
X71533333Y-49942142D02*
X71485714Y-49989761D01*
X71485714Y-49989761D02*
X71342857Y-50037380D01*
X71342857Y-50037380D02*
X71247619Y-50037380D01*
X71247619Y-50037380D02*
X71104762Y-49989761D01*
X71104762Y-49989761D02*
X71009524Y-49894523D01*
X71009524Y-49894523D02*
X70961905Y-49799285D01*
X70961905Y-49799285D02*
X70914286Y-49608809D01*
X70914286Y-49608809D02*
X70914286Y-49465952D01*
X70914286Y-49465952D02*
X70961905Y-49275476D01*
X70961905Y-49275476D02*
X71009524Y-49180238D01*
X71009524Y-49180238D02*
X71104762Y-49085000D01*
X71104762Y-49085000D02*
X71247619Y-49037380D01*
X71247619Y-49037380D02*
X71342857Y-49037380D01*
X71342857Y-49037380D02*
X71485714Y-49085000D01*
X71485714Y-49085000D02*
X71533333Y-49132619D01*
X72485714Y-50037380D02*
X71914286Y-50037380D01*
X72200000Y-50037380D02*
X72200000Y-49037380D01*
X72200000Y-49037380D02*
X72104762Y-49180238D01*
X72104762Y-49180238D02*
X72009524Y-49275476D01*
X72009524Y-49275476D02*
X71914286Y-49323095D01*
%TO.C,Y1*%
X38186761Y-72736761D02*
X38491523Y-72736761D01*
X37851523Y-72950094D02*
X38186761Y-72736761D01*
X38186761Y-72736761D02*
X37851523Y-72523427D01*
X38491523Y-71974856D02*
X38491523Y-72340571D01*
X38491523Y-72157714D02*
X37851523Y-72157714D01*
X37851523Y-72157714D02*
X37942952Y-72218666D01*
X37942952Y-72218666D02*
X38003904Y-72279618D01*
X38003904Y-72279618D02*
X38034380Y-72340571D01*
%TO.C,R6*%
X40233333Y-83747380D02*
X39900000Y-83271190D01*
X39661905Y-83747380D02*
X39661905Y-82747380D01*
X39661905Y-82747380D02*
X40042857Y-82747380D01*
X40042857Y-82747380D02*
X40138095Y-82795000D01*
X40138095Y-82795000D02*
X40185714Y-82842619D01*
X40185714Y-82842619D02*
X40233333Y-82937857D01*
X40233333Y-82937857D02*
X40233333Y-83080714D01*
X40233333Y-83080714D02*
X40185714Y-83175952D01*
X40185714Y-83175952D02*
X40138095Y-83223571D01*
X40138095Y-83223571D02*
X40042857Y-83271190D01*
X40042857Y-83271190D02*
X39661905Y-83271190D01*
X41090476Y-82747380D02*
X40900000Y-82747380D01*
X40900000Y-82747380D02*
X40804762Y-82795000D01*
X40804762Y-82795000D02*
X40757143Y-82842619D01*
X40757143Y-82842619D02*
X40661905Y-82985476D01*
X40661905Y-82985476D02*
X40614286Y-83175952D01*
X40614286Y-83175952D02*
X40614286Y-83556904D01*
X40614286Y-83556904D02*
X40661905Y-83652142D01*
X40661905Y-83652142D02*
X40709524Y-83699761D01*
X40709524Y-83699761D02*
X40804762Y-83747380D01*
X40804762Y-83747380D02*
X40995238Y-83747380D01*
X40995238Y-83747380D02*
X41090476Y-83699761D01*
X41090476Y-83699761D02*
X41138095Y-83652142D01*
X41138095Y-83652142D02*
X41185714Y-83556904D01*
X41185714Y-83556904D02*
X41185714Y-83318809D01*
X41185714Y-83318809D02*
X41138095Y-83223571D01*
X41138095Y-83223571D02*
X41090476Y-83175952D01*
X41090476Y-83175952D02*
X40995238Y-83128333D01*
X40995238Y-83128333D02*
X40804762Y-83128333D01*
X40804762Y-83128333D02*
X40709524Y-83175952D01*
X40709524Y-83175952D02*
X40661905Y-83223571D01*
X40661905Y-83223571D02*
X40614286Y-83318809D01*
%TO.C,POW1*%
X14969880Y-30678332D02*
X13969880Y-30678332D01*
X13969880Y-30678332D02*
X13969880Y-30297380D01*
X13969880Y-30297380D02*
X14017500Y-30202142D01*
X14017500Y-30202142D02*
X14065119Y-30154523D01*
X14065119Y-30154523D02*
X14160357Y-30106904D01*
X14160357Y-30106904D02*
X14303214Y-30106904D01*
X14303214Y-30106904D02*
X14398452Y-30154523D01*
X14398452Y-30154523D02*
X14446071Y-30202142D01*
X14446071Y-30202142D02*
X14493690Y-30297380D01*
X14493690Y-30297380D02*
X14493690Y-30678332D01*
X13969880Y-29487856D02*
X13969880Y-29297380D01*
X13969880Y-29297380D02*
X14017500Y-29202142D01*
X14017500Y-29202142D02*
X14112738Y-29106904D01*
X14112738Y-29106904D02*
X14303214Y-29059285D01*
X14303214Y-29059285D02*
X14636547Y-29059285D01*
X14636547Y-29059285D02*
X14827023Y-29106904D01*
X14827023Y-29106904D02*
X14922261Y-29202142D01*
X14922261Y-29202142D02*
X14969880Y-29297380D01*
X14969880Y-29297380D02*
X14969880Y-29487856D01*
X14969880Y-29487856D02*
X14922261Y-29583094D01*
X14922261Y-29583094D02*
X14827023Y-29678332D01*
X14827023Y-29678332D02*
X14636547Y-29725951D01*
X14636547Y-29725951D02*
X14303214Y-29725951D01*
X14303214Y-29725951D02*
X14112738Y-29678332D01*
X14112738Y-29678332D02*
X14017500Y-29583094D01*
X14017500Y-29583094D02*
X13969880Y-29487856D01*
X13969880Y-28725951D02*
X14969880Y-28487856D01*
X14969880Y-28487856D02*
X14255595Y-28297380D01*
X14255595Y-28297380D02*
X14969880Y-28106904D01*
X14969880Y-28106904D02*
X13969880Y-27868809D01*
X14969880Y-26964047D02*
X14969880Y-27535475D01*
X14969880Y-27249761D02*
X13969880Y-27249761D01*
X13969880Y-27249761D02*
X14112738Y-27344999D01*
X14112738Y-27344999D02*
X14207976Y-27440237D01*
X14207976Y-27440237D02*
X14255595Y-27535475D01*
%TO.C,U5*%
X81918095Y-41987380D02*
X81918095Y-42796904D01*
X81918095Y-42796904D02*
X81965714Y-42892142D01*
X81965714Y-42892142D02*
X82013333Y-42939761D01*
X82013333Y-42939761D02*
X82108571Y-42987380D01*
X82108571Y-42987380D02*
X82299047Y-42987380D01*
X82299047Y-42987380D02*
X82394285Y-42939761D01*
X82394285Y-42939761D02*
X82441904Y-42892142D01*
X82441904Y-42892142D02*
X82489523Y-42796904D01*
X82489523Y-42796904D02*
X82489523Y-41987380D01*
X83441904Y-41987380D02*
X82965714Y-41987380D01*
X82965714Y-41987380D02*
X82918095Y-42463571D01*
X82918095Y-42463571D02*
X82965714Y-42415952D01*
X82965714Y-42415952D02*
X83060952Y-42368333D01*
X83060952Y-42368333D02*
X83299047Y-42368333D01*
X83299047Y-42368333D02*
X83394285Y-42415952D01*
X83394285Y-42415952D02*
X83441904Y-42463571D01*
X83441904Y-42463571D02*
X83489523Y-42558809D01*
X83489523Y-42558809D02*
X83489523Y-42796904D01*
X83489523Y-42796904D02*
X83441904Y-42892142D01*
X83441904Y-42892142D02*
X83394285Y-42939761D01*
X83394285Y-42939761D02*
X83299047Y-42987380D01*
X83299047Y-42987380D02*
X83060952Y-42987380D01*
X83060952Y-42987380D02*
X82965714Y-42939761D01*
X82965714Y-42939761D02*
X82918095Y-42892142D01*
%TO.C,U4*%
X26958333Y-37715333D02*
X26958333Y-38848666D01*
X26958333Y-38848666D02*
X27025000Y-38982000D01*
X27025000Y-38982000D02*
X27091666Y-39048666D01*
X27091666Y-39048666D02*
X27225000Y-39115333D01*
X27225000Y-39115333D02*
X27491666Y-39115333D01*
X27491666Y-39115333D02*
X27625000Y-39048666D01*
X27625000Y-39048666D02*
X27691666Y-38982000D01*
X27691666Y-38982000D02*
X27758333Y-38848666D01*
X27758333Y-38848666D02*
X27758333Y-37715333D01*
X29025000Y-38182000D02*
X29025000Y-39115333D01*
X28691667Y-37648666D02*
X28358333Y-38648666D01*
X28358333Y-38648666D02*
X29225000Y-38648666D01*
%TO.C,U3*%
X41558333Y-37715333D02*
X41558333Y-38848666D01*
X41558333Y-38848666D02*
X41625000Y-38982000D01*
X41625000Y-38982000D02*
X41691666Y-39048666D01*
X41691666Y-39048666D02*
X41825000Y-39115333D01*
X41825000Y-39115333D02*
X42091666Y-39115333D01*
X42091666Y-39115333D02*
X42225000Y-39048666D01*
X42225000Y-39048666D02*
X42291666Y-38982000D01*
X42291666Y-38982000D02*
X42358333Y-38848666D01*
X42358333Y-38848666D02*
X42358333Y-37715333D01*
X42891667Y-37715333D02*
X43758333Y-37715333D01*
X43758333Y-37715333D02*
X43291667Y-38248666D01*
X43291667Y-38248666D02*
X43491667Y-38248666D01*
X43491667Y-38248666D02*
X43625000Y-38315333D01*
X43625000Y-38315333D02*
X43691667Y-38382000D01*
X43691667Y-38382000D02*
X43758333Y-38515333D01*
X43758333Y-38515333D02*
X43758333Y-38848666D01*
X43758333Y-38848666D02*
X43691667Y-38982000D01*
X43691667Y-38982000D02*
X43625000Y-39048666D01*
X43625000Y-39048666D02*
X43491667Y-39115333D01*
X43491667Y-39115333D02*
X43091667Y-39115333D01*
X43091667Y-39115333D02*
X42958333Y-39048666D01*
X42958333Y-39048666D02*
X42891667Y-38982000D01*
%TO.C,U2*%
X54958333Y-25115333D02*
X54958333Y-26248666D01*
X54958333Y-26248666D02*
X55025000Y-26382000D01*
X55025000Y-26382000D02*
X55091666Y-26448666D01*
X55091666Y-26448666D02*
X55225000Y-26515333D01*
X55225000Y-26515333D02*
X55491666Y-26515333D01*
X55491666Y-26515333D02*
X55625000Y-26448666D01*
X55625000Y-26448666D02*
X55691666Y-26382000D01*
X55691666Y-26382000D02*
X55758333Y-26248666D01*
X55758333Y-26248666D02*
X55758333Y-25115333D01*
X56358333Y-25248666D02*
X56425000Y-25182000D01*
X56425000Y-25182000D02*
X56558333Y-25115333D01*
X56558333Y-25115333D02*
X56891667Y-25115333D01*
X56891667Y-25115333D02*
X57025000Y-25182000D01*
X57025000Y-25182000D02*
X57091667Y-25248666D01*
X57091667Y-25248666D02*
X57158333Y-25382000D01*
X57158333Y-25382000D02*
X57158333Y-25515333D01*
X57158333Y-25515333D02*
X57091667Y-25715333D01*
X57091667Y-25715333D02*
X56291667Y-26515333D01*
X56291667Y-26515333D02*
X57158333Y-26515333D01*
%TO.C,U1*%
X55158333Y-13715333D02*
X55158333Y-14848666D01*
X55158333Y-14848666D02*
X55225000Y-14982000D01*
X55225000Y-14982000D02*
X55291666Y-15048666D01*
X55291666Y-15048666D02*
X55425000Y-15115333D01*
X55425000Y-15115333D02*
X55691666Y-15115333D01*
X55691666Y-15115333D02*
X55825000Y-15048666D01*
X55825000Y-15048666D02*
X55891666Y-14982000D01*
X55891666Y-14982000D02*
X55958333Y-14848666D01*
X55958333Y-14848666D02*
X55958333Y-13715333D01*
X57358333Y-15115333D02*
X56558333Y-15115333D01*
X56958333Y-15115333D02*
X56958333Y-13715333D01*
X56958333Y-13715333D02*
X56825000Y-13915333D01*
X56825000Y-13915333D02*
X56691667Y-14048666D01*
X56691667Y-14048666D02*
X56558333Y-14115333D01*
%TO.C,RV4*%
X42067380Y-18195238D02*
X41591190Y-18528571D01*
X42067380Y-18766666D02*
X41067380Y-18766666D01*
X41067380Y-18766666D02*
X41067380Y-18385714D01*
X41067380Y-18385714D02*
X41115000Y-18290476D01*
X41115000Y-18290476D02*
X41162619Y-18242857D01*
X41162619Y-18242857D02*
X41257857Y-18195238D01*
X41257857Y-18195238D02*
X41400714Y-18195238D01*
X41400714Y-18195238D02*
X41495952Y-18242857D01*
X41495952Y-18242857D02*
X41543571Y-18290476D01*
X41543571Y-18290476D02*
X41591190Y-18385714D01*
X41591190Y-18385714D02*
X41591190Y-18766666D01*
X41067380Y-17909523D02*
X42067380Y-17576190D01*
X42067380Y-17576190D02*
X41067380Y-17242857D01*
X41400714Y-16480952D02*
X42067380Y-16480952D01*
X41019761Y-16719047D02*
X41734047Y-16957142D01*
X41734047Y-16957142D02*
X41734047Y-16338095D01*
%TO.C,RV3*%
X24354761Y-46467380D02*
X24021428Y-45991190D01*
X23783333Y-46467380D02*
X23783333Y-45467380D01*
X23783333Y-45467380D02*
X24164285Y-45467380D01*
X24164285Y-45467380D02*
X24259523Y-45515000D01*
X24259523Y-45515000D02*
X24307142Y-45562619D01*
X24307142Y-45562619D02*
X24354761Y-45657857D01*
X24354761Y-45657857D02*
X24354761Y-45800714D01*
X24354761Y-45800714D02*
X24307142Y-45895952D01*
X24307142Y-45895952D02*
X24259523Y-45943571D01*
X24259523Y-45943571D02*
X24164285Y-45991190D01*
X24164285Y-45991190D02*
X23783333Y-45991190D01*
X24640476Y-45467380D02*
X24973809Y-46467380D01*
X24973809Y-46467380D02*
X25307142Y-45467380D01*
X25545238Y-45467380D02*
X26164285Y-45467380D01*
X26164285Y-45467380D02*
X25830952Y-45848333D01*
X25830952Y-45848333D02*
X25973809Y-45848333D01*
X25973809Y-45848333D02*
X26069047Y-45895952D01*
X26069047Y-45895952D02*
X26116666Y-45943571D01*
X26116666Y-45943571D02*
X26164285Y-46038809D01*
X26164285Y-46038809D02*
X26164285Y-46276904D01*
X26164285Y-46276904D02*
X26116666Y-46372142D01*
X26116666Y-46372142D02*
X26069047Y-46419761D01*
X26069047Y-46419761D02*
X25973809Y-46467380D01*
X25973809Y-46467380D02*
X25688095Y-46467380D01*
X25688095Y-46467380D02*
X25592857Y-46419761D01*
X25592857Y-46419761D02*
X25545238Y-46372142D01*
%TO.C,RV2*%
X42067380Y-34795238D02*
X41591190Y-35128571D01*
X42067380Y-35366666D02*
X41067380Y-35366666D01*
X41067380Y-35366666D02*
X41067380Y-34985714D01*
X41067380Y-34985714D02*
X41115000Y-34890476D01*
X41115000Y-34890476D02*
X41162619Y-34842857D01*
X41162619Y-34842857D02*
X41257857Y-34795238D01*
X41257857Y-34795238D02*
X41400714Y-34795238D01*
X41400714Y-34795238D02*
X41495952Y-34842857D01*
X41495952Y-34842857D02*
X41543571Y-34890476D01*
X41543571Y-34890476D02*
X41591190Y-34985714D01*
X41591190Y-34985714D02*
X41591190Y-35366666D01*
X41067380Y-34509523D02*
X42067380Y-34176190D01*
X42067380Y-34176190D02*
X41067380Y-33842857D01*
X41162619Y-33557142D02*
X41115000Y-33509523D01*
X41115000Y-33509523D02*
X41067380Y-33414285D01*
X41067380Y-33414285D02*
X41067380Y-33176190D01*
X41067380Y-33176190D02*
X41115000Y-33080952D01*
X41115000Y-33080952D02*
X41162619Y-33033333D01*
X41162619Y-33033333D02*
X41257857Y-32985714D01*
X41257857Y-32985714D02*
X41353095Y-32985714D01*
X41353095Y-32985714D02*
X41495952Y-33033333D01*
X41495952Y-33033333D02*
X42067380Y-33604761D01*
X42067380Y-33604761D02*
X42067380Y-32985714D01*
%TO.C,RV1*%
X42004761Y-47067380D02*
X41671428Y-46591190D01*
X41433333Y-47067380D02*
X41433333Y-46067380D01*
X41433333Y-46067380D02*
X41814285Y-46067380D01*
X41814285Y-46067380D02*
X41909523Y-46115000D01*
X41909523Y-46115000D02*
X41957142Y-46162619D01*
X41957142Y-46162619D02*
X42004761Y-46257857D01*
X42004761Y-46257857D02*
X42004761Y-46400714D01*
X42004761Y-46400714D02*
X41957142Y-46495952D01*
X41957142Y-46495952D02*
X41909523Y-46543571D01*
X41909523Y-46543571D02*
X41814285Y-46591190D01*
X41814285Y-46591190D02*
X41433333Y-46591190D01*
X42290476Y-46067380D02*
X42623809Y-47067380D01*
X42623809Y-47067380D02*
X42957142Y-46067380D01*
X43814285Y-47067380D02*
X43242857Y-47067380D01*
X43528571Y-47067380D02*
X43528571Y-46067380D01*
X43528571Y-46067380D02*
X43433333Y-46210238D01*
X43433333Y-46210238D02*
X43338095Y-46305476D01*
X43338095Y-46305476D02*
X43242857Y-46353095D01*
%TO.C,R7*%
X47747380Y-34766666D02*
X47271190Y-35099999D01*
X47747380Y-35338094D02*
X46747380Y-35338094D01*
X46747380Y-35338094D02*
X46747380Y-34957142D01*
X46747380Y-34957142D02*
X46795000Y-34861904D01*
X46795000Y-34861904D02*
X46842619Y-34814285D01*
X46842619Y-34814285D02*
X46937857Y-34766666D01*
X46937857Y-34766666D02*
X47080714Y-34766666D01*
X47080714Y-34766666D02*
X47175952Y-34814285D01*
X47175952Y-34814285D02*
X47223571Y-34861904D01*
X47223571Y-34861904D02*
X47271190Y-34957142D01*
X47271190Y-34957142D02*
X47271190Y-35338094D01*
X46747380Y-34433332D02*
X46747380Y-33766666D01*
X46747380Y-33766666D02*
X47747380Y-34195237D01*
%TO.C,R5*%
X31433333Y-47547380D02*
X31100000Y-47071190D01*
X30861905Y-47547380D02*
X30861905Y-46547380D01*
X30861905Y-46547380D02*
X31242857Y-46547380D01*
X31242857Y-46547380D02*
X31338095Y-46595000D01*
X31338095Y-46595000D02*
X31385714Y-46642619D01*
X31385714Y-46642619D02*
X31433333Y-46737857D01*
X31433333Y-46737857D02*
X31433333Y-46880714D01*
X31433333Y-46880714D02*
X31385714Y-46975952D01*
X31385714Y-46975952D02*
X31338095Y-47023571D01*
X31338095Y-47023571D02*
X31242857Y-47071190D01*
X31242857Y-47071190D02*
X30861905Y-47071190D01*
X32338095Y-46547380D02*
X31861905Y-46547380D01*
X31861905Y-46547380D02*
X31814286Y-47023571D01*
X31814286Y-47023571D02*
X31861905Y-46975952D01*
X31861905Y-46975952D02*
X31957143Y-46928333D01*
X31957143Y-46928333D02*
X32195238Y-46928333D01*
X32195238Y-46928333D02*
X32290476Y-46975952D01*
X32290476Y-46975952D02*
X32338095Y-47023571D01*
X32338095Y-47023571D02*
X32385714Y-47118809D01*
X32385714Y-47118809D02*
X32385714Y-47356904D01*
X32385714Y-47356904D02*
X32338095Y-47452142D01*
X32338095Y-47452142D02*
X32290476Y-47499761D01*
X32290476Y-47499761D02*
X32195238Y-47547380D01*
X32195238Y-47547380D02*
X31957143Y-47547380D01*
X31957143Y-47547380D02*
X31861905Y-47499761D01*
X31861905Y-47499761D02*
X31814286Y-47452142D01*
%TO.C,R3*%
X50587380Y-17966666D02*
X50111190Y-18299999D01*
X50587380Y-18538094D02*
X49587380Y-18538094D01*
X49587380Y-18538094D02*
X49587380Y-18157142D01*
X49587380Y-18157142D02*
X49635000Y-18061904D01*
X49635000Y-18061904D02*
X49682619Y-18014285D01*
X49682619Y-18014285D02*
X49777857Y-17966666D01*
X49777857Y-17966666D02*
X49920714Y-17966666D01*
X49920714Y-17966666D02*
X50015952Y-18014285D01*
X50015952Y-18014285D02*
X50063571Y-18061904D01*
X50063571Y-18061904D02*
X50111190Y-18157142D01*
X50111190Y-18157142D02*
X50111190Y-18538094D01*
X49587380Y-17633332D02*
X49587380Y-17014285D01*
X49587380Y-17014285D02*
X49968333Y-17347618D01*
X49968333Y-17347618D02*
X49968333Y-17204761D01*
X49968333Y-17204761D02*
X50015952Y-17109523D01*
X50015952Y-17109523D02*
X50063571Y-17061904D01*
X50063571Y-17061904D02*
X50158809Y-17014285D01*
X50158809Y-17014285D02*
X50396904Y-17014285D01*
X50396904Y-17014285D02*
X50492142Y-17061904D01*
X50492142Y-17061904D02*
X50539761Y-17109523D01*
X50539761Y-17109523D02*
X50587380Y-17204761D01*
X50587380Y-17204761D02*
X50587380Y-17490475D01*
X50587380Y-17490475D02*
X50539761Y-17585713D01*
X50539761Y-17585713D02*
X50492142Y-17633332D01*
%TO.C,R1*%
X48083333Y-47547380D02*
X47750000Y-47071190D01*
X47511905Y-47547380D02*
X47511905Y-46547380D01*
X47511905Y-46547380D02*
X47892857Y-46547380D01*
X47892857Y-46547380D02*
X47988095Y-46595000D01*
X47988095Y-46595000D02*
X48035714Y-46642619D01*
X48035714Y-46642619D02*
X48083333Y-46737857D01*
X48083333Y-46737857D02*
X48083333Y-46880714D01*
X48083333Y-46880714D02*
X48035714Y-46975952D01*
X48035714Y-46975952D02*
X47988095Y-47023571D01*
X47988095Y-47023571D02*
X47892857Y-47071190D01*
X47892857Y-47071190D02*
X47511905Y-47071190D01*
X49035714Y-47547380D02*
X48464286Y-47547380D01*
X48750000Y-47547380D02*
X48750000Y-46547380D01*
X48750000Y-46547380D02*
X48654762Y-46690238D01*
X48654762Y-46690238D02*
X48559524Y-46785476D01*
X48559524Y-46785476D02*
X48464286Y-46833095D01*
%TO.C,POW3*%
X102007380Y-87483332D02*
X101007380Y-87483332D01*
X101007380Y-87483332D02*
X101007380Y-87102380D01*
X101007380Y-87102380D02*
X101055000Y-87007142D01*
X101055000Y-87007142D02*
X101102619Y-86959523D01*
X101102619Y-86959523D02*
X101197857Y-86911904D01*
X101197857Y-86911904D02*
X101340714Y-86911904D01*
X101340714Y-86911904D02*
X101435952Y-86959523D01*
X101435952Y-86959523D02*
X101483571Y-87007142D01*
X101483571Y-87007142D02*
X101531190Y-87102380D01*
X101531190Y-87102380D02*
X101531190Y-87483332D01*
X101007380Y-86292856D02*
X101007380Y-86102380D01*
X101007380Y-86102380D02*
X101055000Y-86007142D01*
X101055000Y-86007142D02*
X101150238Y-85911904D01*
X101150238Y-85911904D02*
X101340714Y-85864285D01*
X101340714Y-85864285D02*
X101674047Y-85864285D01*
X101674047Y-85864285D02*
X101864523Y-85911904D01*
X101864523Y-85911904D02*
X101959761Y-86007142D01*
X101959761Y-86007142D02*
X102007380Y-86102380D01*
X102007380Y-86102380D02*
X102007380Y-86292856D01*
X102007380Y-86292856D02*
X101959761Y-86388094D01*
X101959761Y-86388094D02*
X101864523Y-86483332D01*
X101864523Y-86483332D02*
X101674047Y-86530951D01*
X101674047Y-86530951D02*
X101340714Y-86530951D01*
X101340714Y-86530951D02*
X101150238Y-86483332D01*
X101150238Y-86483332D02*
X101055000Y-86388094D01*
X101055000Y-86388094D02*
X101007380Y-86292856D01*
X101007380Y-85530951D02*
X102007380Y-85292856D01*
X102007380Y-85292856D02*
X101293095Y-85102380D01*
X101293095Y-85102380D02*
X102007380Y-84911904D01*
X102007380Y-84911904D02*
X101007380Y-84673809D01*
X101007380Y-84388094D02*
X101007380Y-83769047D01*
X101007380Y-83769047D02*
X101388333Y-84102380D01*
X101388333Y-84102380D02*
X101388333Y-83959523D01*
X101388333Y-83959523D02*
X101435952Y-83864285D01*
X101435952Y-83864285D02*
X101483571Y-83816666D01*
X101483571Y-83816666D02*
X101578809Y-83769047D01*
X101578809Y-83769047D02*
X101816904Y-83769047D01*
X101816904Y-83769047D02*
X101912142Y-83816666D01*
X101912142Y-83816666D02*
X101959761Y-83864285D01*
X101959761Y-83864285D02*
X102007380Y-83959523D01*
X102007380Y-83959523D02*
X102007380Y-84245237D01*
X102007380Y-84245237D02*
X101959761Y-84340475D01*
X101959761Y-84340475D02*
X101912142Y-84388094D01*
%TO.C,POW2*%
X68416667Y-22527380D02*
X68416667Y-21527380D01*
X68416667Y-21527380D02*
X68797619Y-21527380D01*
X68797619Y-21527380D02*
X68892857Y-21575000D01*
X68892857Y-21575000D02*
X68940476Y-21622619D01*
X68940476Y-21622619D02*
X68988095Y-21717857D01*
X68988095Y-21717857D02*
X68988095Y-21860714D01*
X68988095Y-21860714D02*
X68940476Y-21955952D01*
X68940476Y-21955952D02*
X68892857Y-22003571D01*
X68892857Y-22003571D02*
X68797619Y-22051190D01*
X68797619Y-22051190D02*
X68416667Y-22051190D01*
X69607143Y-21527380D02*
X69797619Y-21527380D01*
X69797619Y-21527380D02*
X69892857Y-21575000D01*
X69892857Y-21575000D02*
X69988095Y-21670238D01*
X69988095Y-21670238D02*
X70035714Y-21860714D01*
X70035714Y-21860714D02*
X70035714Y-22194047D01*
X70035714Y-22194047D02*
X69988095Y-22384523D01*
X69988095Y-22384523D02*
X69892857Y-22479761D01*
X69892857Y-22479761D02*
X69797619Y-22527380D01*
X69797619Y-22527380D02*
X69607143Y-22527380D01*
X69607143Y-22527380D02*
X69511905Y-22479761D01*
X69511905Y-22479761D02*
X69416667Y-22384523D01*
X69416667Y-22384523D02*
X69369048Y-22194047D01*
X69369048Y-22194047D02*
X69369048Y-21860714D01*
X69369048Y-21860714D02*
X69416667Y-21670238D01*
X69416667Y-21670238D02*
X69511905Y-21575000D01*
X69511905Y-21575000D02*
X69607143Y-21527380D01*
X70369048Y-21527380D02*
X70607143Y-22527380D01*
X70607143Y-22527380D02*
X70797619Y-21813095D01*
X70797619Y-21813095D02*
X70988095Y-22527380D01*
X70988095Y-22527380D02*
X71226191Y-21527380D01*
X71559524Y-21622619D02*
X71607143Y-21575000D01*
X71607143Y-21575000D02*
X71702381Y-21527380D01*
X71702381Y-21527380D02*
X71940476Y-21527380D01*
X71940476Y-21527380D02*
X72035714Y-21575000D01*
X72035714Y-21575000D02*
X72083333Y-21622619D01*
X72083333Y-21622619D02*
X72130952Y-21717857D01*
X72130952Y-21717857D02*
X72130952Y-21813095D01*
X72130952Y-21813095D02*
X72083333Y-21955952D01*
X72083333Y-21955952D02*
X71511905Y-22527380D01*
X71511905Y-22527380D02*
X72130952Y-22527380D01*
%TO.C,J11*%
X88190476Y-22027380D02*
X88190476Y-22741666D01*
X88190476Y-22741666D02*
X88142857Y-22884523D01*
X88142857Y-22884523D02*
X88047619Y-22979761D01*
X88047619Y-22979761D02*
X87904762Y-23027380D01*
X87904762Y-23027380D02*
X87809524Y-23027380D01*
X89190476Y-23027380D02*
X88619048Y-23027380D01*
X88904762Y-23027380D02*
X88904762Y-22027380D01*
X88904762Y-22027380D02*
X88809524Y-22170238D01*
X88809524Y-22170238D02*
X88714286Y-22265476D01*
X88714286Y-22265476D02*
X88619048Y-22313095D01*
X90142857Y-23027380D02*
X89571429Y-23027380D01*
X89857143Y-23027380D02*
X89857143Y-22027380D01*
X89857143Y-22027380D02*
X89761905Y-22170238D01*
X89761905Y-22170238D02*
X89666667Y-22265476D01*
X89666667Y-22265476D02*
X89571429Y-22313095D01*
%TO.C,J10*%
X100807380Y-34659523D02*
X101521666Y-34659523D01*
X101521666Y-34659523D02*
X101664523Y-34707142D01*
X101664523Y-34707142D02*
X101759761Y-34802380D01*
X101759761Y-34802380D02*
X101807380Y-34945237D01*
X101807380Y-34945237D02*
X101807380Y-35040475D01*
X101807380Y-33659523D02*
X101807380Y-34230951D01*
X101807380Y-33945237D02*
X100807380Y-33945237D01*
X100807380Y-33945237D02*
X100950238Y-34040475D01*
X100950238Y-34040475D02*
X101045476Y-34135713D01*
X101045476Y-34135713D02*
X101093095Y-34230951D01*
X100807380Y-33040475D02*
X100807380Y-32945237D01*
X100807380Y-32945237D02*
X100855000Y-32849999D01*
X100855000Y-32849999D02*
X100902619Y-32802380D01*
X100902619Y-32802380D02*
X100997857Y-32754761D01*
X100997857Y-32754761D02*
X101188333Y-32707142D01*
X101188333Y-32707142D02*
X101426428Y-32707142D01*
X101426428Y-32707142D02*
X101616904Y-32754761D01*
X101616904Y-32754761D02*
X101712142Y-32802380D01*
X101712142Y-32802380D02*
X101759761Y-32849999D01*
X101759761Y-32849999D02*
X101807380Y-32945237D01*
X101807380Y-32945237D02*
X101807380Y-33040475D01*
X101807380Y-33040475D02*
X101759761Y-33135713D01*
X101759761Y-33135713D02*
X101712142Y-33183332D01*
X101712142Y-33183332D02*
X101616904Y-33230951D01*
X101616904Y-33230951D02*
X101426428Y-33278570D01*
X101426428Y-33278570D02*
X101188333Y-33278570D01*
X101188333Y-33278570D02*
X100997857Y-33230951D01*
X100997857Y-33230951D02*
X100902619Y-33183332D01*
X100902619Y-33183332D02*
X100855000Y-33135713D01*
X100855000Y-33135713D02*
X100807380Y-33040475D01*
%TO.C,J9*%
X98817380Y-93533333D02*
X99531666Y-93533333D01*
X99531666Y-93533333D02*
X99674523Y-93580952D01*
X99674523Y-93580952D02*
X99769761Y-93676190D01*
X99769761Y-93676190D02*
X99817380Y-93819047D01*
X99817380Y-93819047D02*
X99817380Y-93914285D01*
X99817380Y-93009523D02*
X99817380Y-92819047D01*
X99817380Y-92819047D02*
X99769761Y-92723809D01*
X99769761Y-92723809D02*
X99722142Y-92676190D01*
X99722142Y-92676190D02*
X99579285Y-92580952D01*
X99579285Y-92580952D02*
X99388809Y-92533333D01*
X99388809Y-92533333D02*
X99007857Y-92533333D01*
X99007857Y-92533333D02*
X98912619Y-92580952D01*
X98912619Y-92580952D02*
X98865000Y-92628571D01*
X98865000Y-92628571D02*
X98817380Y-92723809D01*
X98817380Y-92723809D02*
X98817380Y-92914285D01*
X98817380Y-92914285D02*
X98865000Y-93009523D01*
X98865000Y-93009523D02*
X98912619Y-93057142D01*
X98912619Y-93057142D02*
X99007857Y-93104761D01*
X99007857Y-93104761D02*
X99245952Y-93104761D01*
X99245952Y-93104761D02*
X99341190Y-93057142D01*
X99341190Y-93057142D02*
X99388809Y-93009523D01*
X99388809Y-93009523D02*
X99436428Y-92914285D01*
X99436428Y-92914285D02*
X99436428Y-92723809D01*
X99436428Y-92723809D02*
X99388809Y-92628571D01*
X99388809Y-92628571D02*
X99341190Y-92580952D01*
X99341190Y-92580952D02*
X99245952Y-92533333D01*
%TO.C,J7*%
X93817380Y-97533333D02*
X94531666Y-97533333D01*
X94531666Y-97533333D02*
X94674523Y-97580952D01*
X94674523Y-97580952D02*
X94769761Y-97676190D01*
X94769761Y-97676190D02*
X94817380Y-97819047D01*
X94817380Y-97819047D02*
X94817380Y-97914285D01*
X93817380Y-97152380D02*
X93817380Y-96485714D01*
X93817380Y-96485714D02*
X94817380Y-96914285D01*
%TO.C,J5*%
X100807380Y-65133333D02*
X101521666Y-65133333D01*
X101521666Y-65133333D02*
X101664523Y-65180952D01*
X101664523Y-65180952D02*
X101759761Y-65276190D01*
X101759761Y-65276190D02*
X101807380Y-65419047D01*
X101807380Y-65419047D02*
X101807380Y-65514285D01*
X100807380Y-64180952D02*
X100807380Y-64657142D01*
X100807380Y-64657142D02*
X101283571Y-64704761D01*
X101283571Y-64704761D02*
X101235952Y-64657142D01*
X101235952Y-64657142D02*
X101188333Y-64561904D01*
X101188333Y-64561904D02*
X101188333Y-64323809D01*
X101188333Y-64323809D02*
X101235952Y-64228571D01*
X101235952Y-64228571D02*
X101283571Y-64180952D01*
X101283571Y-64180952D02*
X101378809Y-64133333D01*
X101378809Y-64133333D02*
X101616904Y-64133333D01*
X101616904Y-64133333D02*
X101712142Y-64180952D01*
X101712142Y-64180952D02*
X101759761Y-64228571D01*
X101759761Y-64228571D02*
X101807380Y-64323809D01*
X101807380Y-64323809D02*
X101807380Y-64561904D01*
X101807380Y-64561904D02*
X101759761Y-64657142D01*
X101759761Y-64657142D02*
X101712142Y-64704761D01*
%TO.C,D4*%
X88117380Y-27200594D02*
X87117380Y-27200594D01*
X87117380Y-27200594D02*
X87117380Y-26962499D01*
X87117380Y-26962499D02*
X87165000Y-26819642D01*
X87165000Y-26819642D02*
X87260238Y-26724404D01*
X87260238Y-26724404D02*
X87355476Y-26676785D01*
X87355476Y-26676785D02*
X87545952Y-26629166D01*
X87545952Y-26629166D02*
X87688809Y-26629166D01*
X87688809Y-26629166D02*
X87879285Y-26676785D01*
X87879285Y-26676785D02*
X87974523Y-26724404D01*
X87974523Y-26724404D02*
X88069761Y-26819642D01*
X88069761Y-26819642D02*
X88117380Y-26962499D01*
X88117380Y-26962499D02*
X88117380Y-27200594D01*
X87450714Y-25772023D02*
X88117380Y-25772023D01*
X87069761Y-26010118D02*
X87784047Y-26248213D01*
X87784047Y-26248213D02*
X87784047Y-25629166D01*
%TO.C,D3*%
X83667380Y-27200594D02*
X82667380Y-27200594D01*
X82667380Y-27200594D02*
X82667380Y-26962499D01*
X82667380Y-26962499D02*
X82715000Y-26819642D01*
X82715000Y-26819642D02*
X82810238Y-26724404D01*
X82810238Y-26724404D02*
X82905476Y-26676785D01*
X82905476Y-26676785D02*
X83095952Y-26629166D01*
X83095952Y-26629166D02*
X83238809Y-26629166D01*
X83238809Y-26629166D02*
X83429285Y-26676785D01*
X83429285Y-26676785D02*
X83524523Y-26724404D01*
X83524523Y-26724404D02*
X83619761Y-26819642D01*
X83619761Y-26819642D02*
X83667380Y-26962499D01*
X83667380Y-26962499D02*
X83667380Y-27200594D01*
X82667380Y-26295832D02*
X82667380Y-25676785D01*
X82667380Y-25676785D02*
X83048333Y-26010118D01*
X83048333Y-26010118D02*
X83048333Y-25867261D01*
X83048333Y-25867261D02*
X83095952Y-25772023D01*
X83095952Y-25772023D02*
X83143571Y-25724404D01*
X83143571Y-25724404D02*
X83238809Y-25676785D01*
X83238809Y-25676785D02*
X83476904Y-25676785D01*
X83476904Y-25676785D02*
X83572142Y-25724404D01*
X83572142Y-25724404D02*
X83619761Y-25772023D01*
X83619761Y-25772023D02*
X83667380Y-25867261D01*
X83667380Y-25867261D02*
X83667380Y-26152975D01*
X83667380Y-26152975D02*
X83619761Y-26248213D01*
X83619761Y-26248213D02*
X83572142Y-26295832D01*
%TO.C,D2*%
X97261905Y-34167380D02*
X97261905Y-33167380D01*
X97261905Y-33167380D02*
X97500000Y-33167380D01*
X97500000Y-33167380D02*
X97642857Y-33215000D01*
X97642857Y-33215000D02*
X97738095Y-33310238D01*
X97738095Y-33310238D02*
X97785714Y-33405476D01*
X97785714Y-33405476D02*
X97833333Y-33595952D01*
X97833333Y-33595952D02*
X97833333Y-33738809D01*
X97833333Y-33738809D02*
X97785714Y-33929285D01*
X97785714Y-33929285D02*
X97738095Y-34024523D01*
X97738095Y-34024523D02*
X97642857Y-34119761D01*
X97642857Y-34119761D02*
X97500000Y-34167380D01*
X97500000Y-34167380D02*
X97261905Y-34167380D01*
X98214286Y-33262619D02*
X98261905Y-33215000D01*
X98261905Y-33215000D02*
X98357143Y-33167380D01*
X98357143Y-33167380D02*
X98595238Y-33167380D01*
X98595238Y-33167380D02*
X98690476Y-33215000D01*
X98690476Y-33215000D02*
X98738095Y-33262619D01*
X98738095Y-33262619D02*
X98785714Y-33357857D01*
X98785714Y-33357857D02*
X98785714Y-33453095D01*
X98785714Y-33453095D02*
X98738095Y-33595952D01*
X98738095Y-33595952D02*
X98166667Y-34167380D01*
X98166667Y-34167380D02*
X98785714Y-34167380D01*
%TO.C,D1*%
X97261905Y-29717380D02*
X97261905Y-28717380D01*
X97261905Y-28717380D02*
X97500000Y-28717380D01*
X97500000Y-28717380D02*
X97642857Y-28765000D01*
X97642857Y-28765000D02*
X97738095Y-28860238D01*
X97738095Y-28860238D02*
X97785714Y-28955476D01*
X97785714Y-28955476D02*
X97833333Y-29145952D01*
X97833333Y-29145952D02*
X97833333Y-29288809D01*
X97833333Y-29288809D02*
X97785714Y-29479285D01*
X97785714Y-29479285D02*
X97738095Y-29574523D01*
X97738095Y-29574523D02*
X97642857Y-29669761D01*
X97642857Y-29669761D02*
X97500000Y-29717380D01*
X97500000Y-29717380D02*
X97261905Y-29717380D01*
X98785714Y-29717380D02*
X98214286Y-29717380D01*
X98500000Y-29717380D02*
X98500000Y-28717380D01*
X98500000Y-28717380D02*
X98404762Y-28860238D01*
X98404762Y-28860238D02*
X98309524Y-28955476D01*
X98309524Y-28955476D02*
X98214286Y-29003095D01*
%TO.C,Y2*%
X38291190Y-59476190D02*
X38767380Y-59476190D01*
X37767380Y-59809523D02*
X38291190Y-59476190D01*
X38291190Y-59476190D02*
X37767380Y-59142857D01*
X37862619Y-58857142D02*
X37815000Y-58809523D01*
X37815000Y-58809523D02*
X37767380Y-58714285D01*
X37767380Y-58714285D02*
X37767380Y-58476190D01*
X37767380Y-58476190D02*
X37815000Y-58380952D01*
X37815000Y-58380952D02*
X37862619Y-58333333D01*
X37862619Y-58333333D02*
X37957857Y-58285714D01*
X37957857Y-58285714D02*
X38053095Y-58285714D01*
X38053095Y-58285714D02*
X38195952Y-58333333D01*
X38195952Y-58333333D02*
X38767380Y-58904761D01*
X38767380Y-58904761D02*
X38767380Y-58285714D01*
%TO.C,U7*%
X52838095Y-56567380D02*
X52838095Y-57376904D01*
X52838095Y-57376904D02*
X52885714Y-57472142D01*
X52885714Y-57472142D02*
X52933333Y-57519761D01*
X52933333Y-57519761D02*
X53028571Y-57567380D01*
X53028571Y-57567380D02*
X53219047Y-57567380D01*
X53219047Y-57567380D02*
X53314285Y-57519761D01*
X53314285Y-57519761D02*
X53361904Y-57472142D01*
X53361904Y-57472142D02*
X53409523Y-57376904D01*
X53409523Y-57376904D02*
X53409523Y-56567380D01*
X53790476Y-56567380D02*
X54457142Y-56567380D01*
X54457142Y-56567380D02*
X54028571Y-57567380D01*
%TO.C,SW3*%
X15069761Y-79133332D02*
X15117380Y-78990475D01*
X15117380Y-78990475D02*
X15117380Y-78752380D01*
X15117380Y-78752380D02*
X15069761Y-78657142D01*
X15069761Y-78657142D02*
X15022142Y-78609523D01*
X15022142Y-78609523D02*
X14926904Y-78561904D01*
X14926904Y-78561904D02*
X14831666Y-78561904D01*
X14831666Y-78561904D02*
X14736428Y-78609523D01*
X14736428Y-78609523D02*
X14688809Y-78657142D01*
X14688809Y-78657142D02*
X14641190Y-78752380D01*
X14641190Y-78752380D02*
X14593571Y-78942856D01*
X14593571Y-78942856D02*
X14545952Y-79038094D01*
X14545952Y-79038094D02*
X14498333Y-79085713D01*
X14498333Y-79085713D02*
X14403095Y-79133332D01*
X14403095Y-79133332D02*
X14307857Y-79133332D01*
X14307857Y-79133332D02*
X14212619Y-79085713D01*
X14212619Y-79085713D02*
X14165000Y-79038094D01*
X14165000Y-79038094D02*
X14117380Y-78942856D01*
X14117380Y-78942856D02*
X14117380Y-78704761D01*
X14117380Y-78704761D02*
X14165000Y-78561904D01*
X14117380Y-78228570D02*
X15117380Y-77990475D01*
X15117380Y-77990475D02*
X14403095Y-77799999D01*
X14403095Y-77799999D02*
X15117380Y-77609523D01*
X15117380Y-77609523D02*
X14117380Y-77371428D01*
X14117380Y-77085713D02*
X14117380Y-76466666D01*
X14117380Y-76466666D02*
X14498333Y-76799999D01*
X14498333Y-76799999D02*
X14498333Y-76657142D01*
X14498333Y-76657142D02*
X14545952Y-76561904D01*
X14545952Y-76561904D02*
X14593571Y-76514285D01*
X14593571Y-76514285D02*
X14688809Y-76466666D01*
X14688809Y-76466666D02*
X14926904Y-76466666D01*
X14926904Y-76466666D02*
X15022142Y-76514285D01*
X15022142Y-76514285D02*
X15069761Y-76561904D01*
X15069761Y-76561904D02*
X15117380Y-76657142D01*
X15117380Y-76657142D02*
X15117380Y-76942856D01*
X15117380Y-76942856D02*
X15069761Y-77038094D01*
X15069761Y-77038094D02*
X15022142Y-77085713D01*
%TO.C,R10*%
X34947380Y-54242857D02*
X34471190Y-54576190D01*
X34947380Y-54814285D02*
X33947380Y-54814285D01*
X33947380Y-54814285D02*
X33947380Y-54433333D01*
X33947380Y-54433333D02*
X33995000Y-54338095D01*
X33995000Y-54338095D02*
X34042619Y-54290476D01*
X34042619Y-54290476D02*
X34137857Y-54242857D01*
X34137857Y-54242857D02*
X34280714Y-54242857D01*
X34280714Y-54242857D02*
X34375952Y-54290476D01*
X34375952Y-54290476D02*
X34423571Y-54338095D01*
X34423571Y-54338095D02*
X34471190Y-54433333D01*
X34471190Y-54433333D02*
X34471190Y-54814285D01*
X34947380Y-53290476D02*
X34947380Y-53861904D01*
X34947380Y-53576190D02*
X33947380Y-53576190D01*
X33947380Y-53576190D02*
X34090238Y-53671428D01*
X34090238Y-53671428D02*
X34185476Y-53766666D01*
X34185476Y-53766666D02*
X34233095Y-53861904D01*
X33947380Y-52671428D02*
X33947380Y-52576190D01*
X33947380Y-52576190D02*
X33995000Y-52480952D01*
X33995000Y-52480952D02*
X34042619Y-52433333D01*
X34042619Y-52433333D02*
X34137857Y-52385714D01*
X34137857Y-52385714D02*
X34328333Y-52338095D01*
X34328333Y-52338095D02*
X34566428Y-52338095D01*
X34566428Y-52338095D02*
X34756904Y-52385714D01*
X34756904Y-52385714D02*
X34852142Y-52433333D01*
X34852142Y-52433333D02*
X34899761Y-52480952D01*
X34899761Y-52480952D02*
X34947380Y-52576190D01*
X34947380Y-52576190D02*
X34947380Y-52671428D01*
X34947380Y-52671428D02*
X34899761Y-52766666D01*
X34899761Y-52766666D02*
X34852142Y-52814285D01*
X34852142Y-52814285D02*
X34756904Y-52861904D01*
X34756904Y-52861904D02*
X34566428Y-52909523D01*
X34566428Y-52909523D02*
X34328333Y-52909523D01*
X34328333Y-52909523D02*
X34137857Y-52861904D01*
X34137857Y-52861904D02*
X34042619Y-52814285D01*
X34042619Y-52814285D02*
X33995000Y-52766666D01*
X33995000Y-52766666D02*
X33947380Y-52671428D01*
%TO.C,R9*%
X34947380Y-64366666D02*
X34471190Y-64699999D01*
X34947380Y-64938094D02*
X33947380Y-64938094D01*
X33947380Y-64938094D02*
X33947380Y-64557142D01*
X33947380Y-64557142D02*
X33995000Y-64461904D01*
X33995000Y-64461904D02*
X34042619Y-64414285D01*
X34042619Y-64414285D02*
X34137857Y-64366666D01*
X34137857Y-64366666D02*
X34280714Y-64366666D01*
X34280714Y-64366666D02*
X34375952Y-64414285D01*
X34375952Y-64414285D02*
X34423571Y-64461904D01*
X34423571Y-64461904D02*
X34471190Y-64557142D01*
X34471190Y-64557142D02*
X34471190Y-64938094D01*
X34947380Y-63890475D02*
X34947380Y-63699999D01*
X34947380Y-63699999D02*
X34899761Y-63604761D01*
X34899761Y-63604761D02*
X34852142Y-63557142D01*
X34852142Y-63557142D02*
X34709285Y-63461904D01*
X34709285Y-63461904D02*
X34518809Y-63414285D01*
X34518809Y-63414285D02*
X34137857Y-63414285D01*
X34137857Y-63414285D02*
X34042619Y-63461904D01*
X34042619Y-63461904D02*
X33995000Y-63509523D01*
X33995000Y-63509523D02*
X33947380Y-63604761D01*
X33947380Y-63604761D02*
X33947380Y-63795237D01*
X33947380Y-63795237D02*
X33995000Y-63890475D01*
X33995000Y-63890475D02*
X34042619Y-63938094D01*
X34042619Y-63938094D02*
X34137857Y-63985713D01*
X34137857Y-63985713D02*
X34375952Y-63985713D01*
X34375952Y-63985713D02*
X34471190Y-63938094D01*
X34471190Y-63938094D02*
X34518809Y-63890475D01*
X34518809Y-63890475D02*
X34566428Y-63795237D01*
X34566428Y-63795237D02*
X34566428Y-63604761D01*
X34566428Y-63604761D02*
X34518809Y-63509523D01*
X34518809Y-63509523D02*
X34471190Y-63461904D01*
X34471190Y-63461904D02*
X34375952Y-63414285D01*
%TO.C,R8*%
X40233333Y-70787380D02*
X39900000Y-70311190D01*
X39661905Y-70787380D02*
X39661905Y-69787380D01*
X39661905Y-69787380D02*
X40042857Y-69787380D01*
X40042857Y-69787380D02*
X40138095Y-69835000D01*
X40138095Y-69835000D02*
X40185714Y-69882619D01*
X40185714Y-69882619D02*
X40233333Y-69977857D01*
X40233333Y-69977857D02*
X40233333Y-70120714D01*
X40233333Y-70120714D02*
X40185714Y-70215952D01*
X40185714Y-70215952D02*
X40138095Y-70263571D01*
X40138095Y-70263571D02*
X40042857Y-70311190D01*
X40042857Y-70311190D02*
X39661905Y-70311190D01*
X40804762Y-70215952D02*
X40709524Y-70168333D01*
X40709524Y-70168333D02*
X40661905Y-70120714D01*
X40661905Y-70120714D02*
X40614286Y-70025476D01*
X40614286Y-70025476D02*
X40614286Y-69977857D01*
X40614286Y-69977857D02*
X40661905Y-69882619D01*
X40661905Y-69882619D02*
X40709524Y-69835000D01*
X40709524Y-69835000D02*
X40804762Y-69787380D01*
X40804762Y-69787380D02*
X40995238Y-69787380D01*
X40995238Y-69787380D02*
X41090476Y-69835000D01*
X41090476Y-69835000D02*
X41138095Y-69882619D01*
X41138095Y-69882619D02*
X41185714Y-69977857D01*
X41185714Y-69977857D02*
X41185714Y-70025476D01*
X41185714Y-70025476D02*
X41138095Y-70120714D01*
X41138095Y-70120714D02*
X41090476Y-70168333D01*
X41090476Y-70168333D02*
X40995238Y-70215952D01*
X40995238Y-70215952D02*
X40804762Y-70215952D01*
X40804762Y-70215952D02*
X40709524Y-70263571D01*
X40709524Y-70263571D02*
X40661905Y-70311190D01*
X40661905Y-70311190D02*
X40614286Y-70406428D01*
X40614286Y-70406428D02*
X40614286Y-70596904D01*
X40614286Y-70596904D02*
X40661905Y-70692142D01*
X40661905Y-70692142D02*
X40709524Y-70739761D01*
X40709524Y-70739761D02*
X40804762Y-70787380D01*
X40804762Y-70787380D02*
X40995238Y-70787380D01*
X40995238Y-70787380D02*
X41090476Y-70739761D01*
X41090476Y-70739761D02*
X41138095Y-70692142D01*
X41138095Y-70692142D02*
X41185714Y-70596904D01*
X41185714Y-70596904D02*
X41185714Y-70406428D01*
X41185714Y-70406428D02*
X41138095Y-70311190D01*
X41138095Y-70311190D02*
X41090476Y-70263571D01*
X41090476Y-70263571D02*
X40995238Y-70215952D01*
%TO.C,R4*%
X53033333Y-93147380D02*
X52700000Y-92671190D01*
X52461905Y-93147380D02*
X52461905Y-92147380D01*
X52461905Y-92147380D02*
X52842857Y-92147380D01*
X52842857Y-92147380D02*
X52938095Y-92195000D01*
X52938095Y-92195000D02*
X52985714Y-92242619D01*
X52985714Y-92242619D02*
X53033333Y-92337857D01*
X53033333Y-92337857D02*
X53033333Y-92480714D01*
X53033333Y-92480714D02*
X52985714Y-92575952D01*
X52985714Y-92575952D02*
X52938095Y-92623571D01*
X52938095Y-92623571D02*
X52842857Y-92671190D01*
X52842857Y-92671190D02*
X52461905Y-92671190D01*
X53890476Y-92480714D02*
X53890476Y-93147380D01*
X53652381Y-92099761D02*
X53414286Y-92814047D01*
X53414286Y-92814047D02*
X54033333Y-92814047D01*
%TO.C,R2*%
X53033333Y-89857380D02*
X52700000Y-89381190D01*
X52461905Y-89857380D02*
X52461905Y-88857380D01*
X52461905Y-88857380D02*
X52842857Y-88857380D01*
X52842857Y-88857380D02*
X52938095Y-88905000D01*
X52938095Y-88905000D02*
X52985714Y-88952619D01*
X52985714Y-88952619D02*
X53033333Y-89047857D01*
X53033333Y-89047857D02*
X53033333Y-89190714D01*
X53033333Y-89190714D02*
X52985714Y-89285952D01*
X52985714Y-89285952D02*
X52938095Y-89333571D01*
X52938095Y-89333571D02*
X52842857Y-89381190D01*
X52842857Y-89381190D02*
X52461905Y-89381190D01*
X53414286Y-88952619D02*
X53461905Y-88905000D01*
X53461905Y-88905000D02*
X53557143Y-88857380D01*
X53557143Y-88857380D02*
X53795238Y-88857380D01*
X53795238Y-88857380D02*
X53890476Y-88905000D01*
X53890476Y-88905000D02*
X53938095Y-88952619D01*
X53938095Y-88952619D02*
X53985714Y-89047857D01*
X53985714Y-89047857D02*
X53985714Y-89143095D01*
X53985714Y-89143095D02*
X53938095Y-89285952D01*
X53938095Y-89285952D02*
X53366667Y-89857380D01*
X53366667Y-89857380D02*
X53985714Y-89857380D01*
%TO.C,J6*%
X17097380Y-50733333D02*
X17811666Y-50733333D01*
X17811666Y-50733333D02*
X17954523Y-50780952D01*
X17954523Y-50780952D02*
X18049761Y-50876190D01*
X18049761Y-50876190D02*
X18097380Y-51019047D01*
X18097380Y-51019047D02*
X18097380Y-51114285D01*
X17097380Y-49828571D02*
X17097380Y-50019047D01*
X17097380Y-50019047D02*
X17145000Y-50114285D01*
X17145000Y-50114285D02*
X17192619Y-50161904D01*
X17192619Y-50161904D02*
X17335476Y-50257142D01*
X17335476Y-50257142D02*
X17525952Y-50304761D01*
X17525952Y-50304761D02*
X17906904Y-50304761D01*
X17906904Y-50304761D02*
X18002142Y-50257142D01*
X18002142Y-50257142D02*
X18049761Y-50209523D01*
X18049761Y-50209523D02*
X18097380Y-50114285D01*
X18097380Y-50114285D02*
X18097380Y-49923809D01*
X18097380Y-49923809D02*
X18049761Y-49828571D01*
X18049761Y-49828571D02*
X18002142Y-49780952D01*
X18002142Y-49780952D02*
X17906904Y-49733333D01*
X17906904Y-49733333D02*
X17668809Y-49733333D01*
X17668809Y-49733333D02*
X17573571Y-49780952D01*
X17573571Y-49780952D02*
X17525952Y-49828571D01*
X17525952Y-49828571D02*
X17478333Y-49923809D01*
X17478333Y-49923809D02*
X17478333Y-50114285D01*
X17478333Y-50114285D02*
X17525952Y-50209523D01*
X17525952Y-50209523D02*
X17573571Y-50257142D01*
X17573571Y-50257142D02*
X17668809Y-50304761D01*
%TO.C,J4*%
X19866666Y-53497380D02*
X19866666Y-54211666D01*
X19866666Y-54211666D02*
X19819047Y-54354523D01*
X19819047Y-54354523D02*
X19723809Y-54449761D01*
X19723809Y-54449761D02*
X19580952Y-54497380D01*
X19580952Y-54497380D02*
X19485714Y-54497380D01*
X20771428Y-53830714D02*
X20771428Y-54497380D01*
X20533333Y-53449761D02*
X20295238Y-54164047D01*
X20295238Y-54164047D02*
X20914285Y-54164047D01*
%TO.C,J3*%
X17097380Y-47133333D02*
X17811666Y-47133333D01*
X17811666Y-47133333D02*
X17954523Y-47180952D01*
X17954523Y-47180952D02*
X18049761Y-47276190D01*
X18049761Y-47276190D02*
X18097380Y-47419047D01*
X18097380Y-47419047D02*
X18097380Y-47514285D01*
X17097380Y-46752380D02*
X17097380Y-46133333D01*
X17097380Y-46133333D02*
X17478333Y-46466666D01*
X17478333Y-46466666D02*
X17478333Y-46323809D01*
X17478333Y-46323809D02*
X17525952Y-46228571D01*
X17525952Y-46228571D02*
X17573571Y-46180952D01*
X17573571Y-46180952D02*
X17668809Y-46133333D01*
X17668809Y-46133333D02*
X17906904Y-46133333D01*
X17906904Y-46133333D02*
X18002142Y-46180952D01*
X18002142Y-46180952D02*
X18049761Y-46228571D01*
X18049761Y-46228571D02*
X18097380Y-46323809D01*
X18097380Y-46323809D02*
X18097380Y-46609523D01*
X18097380Y-46609523D02*
X18049761Y-46704761D01*
X18049761Y-46704761D02*
X18002142Y-46752380D01*
%TO.C,J2*%
X17097380Y-43533333D02*
X17811666Y-43533333D01*
X17811666Y-43533333D02*
X17954523Y-43580952D01*
X17954523Y-43580952D02*
X18049761Y-43676190D01*
X18049761Y-43676190D02*
X18097380Y-43819047D01*
X18097380Y-43819047D02*
X18097380Y-43914285D01*
X17192619Y-43104761D02*
X17145000Y-43057142D01*
X17145000Y-43057142D02*
X17097380Y-42961904D01*
X17097380Y-42961904D02*
X17097380Y-42723809D01*
X17097380Y-42723809D02*
X17145000Y-42628571D01*
X17145000Y-42628571D02*
X17192619Y-42580952D01*
X17192619Y-42580952D02*
X17287857Y-42533333D01*
X17287857Y-42533333D02*
X17383095Y-42533333D01*
X17383095Y-42533333D02*
X17525952Y-42580952D01*
X17525952Y-42580952D02*
X18097380Y-43152380D01*
X18097380Y-43152380D02*
X18097380Y-42533333D01*
%TO.C,J1*%
X17097380Y-39733333D02*
X17811666Y-39733333D01*
X17811666Y-39733333D02*
X17954523Y-39780952D01*
X17954523Y-39780952D02*
X18049761Y-39876190D01*
X18049761Y-39876190D02*
X18097380Y-40019047D01*
X18097380Y-40019047D02*
X18097380Y-40114285D01*
X18097380Y-38733333D02*
X18097380Y-39304761D01*
X18097380Y-39019047D02*
X17097380Y-39019047D01*
X17097380Y-39019047D02*
X17240238Y-39114285D01*
X17240238Y-39114285D02*
X17335476Y-39209523D01*
X17335476Y-39209523D02*
X17383095Y-39304761D01*
D11*
%TO.C,C43*%
X84788748Y-76165000D02*
X85311252Y-76165000D01*
X84788748Y-74695000D02*
X85311252Y-74695000D01*
%TO.C,C42*%
X84788748Y-73155000D02*
X85311252Y-73155000D01*
X84788748Y-71685000D02*
X85311252Y-71685000D01*
%TO.C,C41*%
X84788748Y-70145000D02*
X85311252Y-70145000D01*
X84788748Y-68675000D02*
X85311252Y-68675000D01*
%TO.C,C40*%
X84788748Y-67135000D02*
X85311252Y-67135000D01*
X84788748Y-65665000D02*
X85311252Y-65665000D01*
%TO.C,C39*%
X84788748Y-64125000D02*
X85311252Y-64125000D01*
X84788748Y-62655000D02*
X85311252Y-62655000D01*
%TO.C,C38*%
X84788748Y-61115000D02*
X85311252Y-61115000D01*
X84788748Y-59645000D02*
X85311252Y-59645000D01*
%TO.C,C37*%
X84788748Y-58105000D02*
X85311252Y-58105000D01*
X84788748Y-56635000D02*
X85311252Y-56635000D01*
%TO.C,C36*%
X84788748Y-55095000D02*
X85311252Y-55095000D01*
X84788748Y-53625000D02*
X85311252Y-53625000D01*
%TO.C,C35*%
X84788748Y-52085000D02*
X85311252Y-52085000D01*
X84788748Y-50615000D02*
X85311252Y-50615000D01*
%TO.C,C34*%
X31535000Y-35711252D02*
X31535000Y-35188748D01*
X30065000Y-35711252D02*
X30065000Y-35188748D01*
%TO.C,C33*%
X28125000Y-35711252D02*
X28125000Y-35188748D01*
X26655000Y-35711252D02*
X26655000Y-35188748D01*
%TO.C,C32*%
X80338748Y-70145000D02*
X80861252Y-70145000D01*
X80338748Y-68675000D02*
X80861252Y-68675000D01*
%TO.C,C31*%
X80338748Y-67135000D02*
X80861252Y-67135000D01*
X80338748Y-65665000D02*
X80861252Y-65665000D01*
%TO.C,C30*%
X80338748Y-64125000D02*
X80861252Y-64125000D01*
X80338748Y-62655000D02*
X80861252Y-62655000D01*
%TO.C,C29*%
X80338748Y-61115000D02*
X80861252Y-61115000D01*
X80338748Y-59645000D02*
X80861252Y-59645000D01*
%TO.C,C28*%
X24335000Y-35661252D02*
X24335000Y-35138748D01*
X22865000Y-35661252D02*
X22865000Y-35138748D01*
%TO.C,C27*%
X80338748Y-55095000D02*
X80861252Y-55095000D01*
X80338748Y-53625000D02*
X80861252Y-53625000D01*
%TO.C,C26*%
X80338748Y-52085000D02*
X80861252Y-52085000D01*
X80338748Y-50615000D02*
X80861252Y-50615000D01*
%TO.C,C25*%
X33865000Y-35661252D02*
X33865000Y-35138748D01*
X35335000Y-35661252D02*
X35335000Y-35138748D01*
%TO.C,C24*%
X75888748Y-73155000D02*
X76411252Y-73155000D01*
X75888748Y-71685000D02*
X76411252Y-71685000D01*
%TO.C,C23*%
X96238748Y-83405000D02*
X96761252Y-83405000D01*
X96238748Y-81935000D02*
X96761252Y-81935000D01*
%TO.C,C22*%
X96238748Y-80395000D02*
X96761252Y-80395000D01*
X96238748Y-78925000D02*
X96761252Y-78925000D01*
%TO.C,C21*%
X75888748Y-64125000D02*
X76411252Y-64125000D01*
X75888748Y-62655000D02*
X76411252Y-62655000D01*
%TO.C,C20*%
X96238748Y-75615000D02*
X96761252Y-75615000D01*
X96238748Y-74145000D02*
X96761252Y-74145000D01*
%TO.C,C19*%
X96238748Y-72605000D02*
X96761252Y-72605000D01*
X96238748Y-71135000D02*
X96761252Y-71135000D01*
%TO.C,C18*%
X96238748Y-69595000D02*
X96761252Y-69595000D01*
X96238748Y-68125000D02*
X96761252Y-68125000D01*
%TO.C,C17*%
X96238748Y-66585000D02*
X96761252Y-66585000D01*
X96238748Y-65115000D02*
X96761252Y-65115000D01*
%TO.C,C16*%
X96238748Y-63425000D02*
X96761252Y-63425000D01*
X96238748Y-61955000D02*
X96761252Y-61955000D01*
%TO.C,C15*%
X96238748Y-60415000D02*
X96761252Y-60415000D01*
X96238748Y-58945000D02*
X96761252Y-58945000D01*
%TO.C,C14*%
X96238748Y-57405000D02*
X96761252Y-57405000D01*
X96238748Y-55935000D02*
X96761252Y-55935000D01*
%TO.C,C6*%
X71438748Y-67135000D02*
X71961252Y-67135000D01*
X71438748Y-65665000D02*
X71961252Y-65665000D01*
%TO.C,C5*%
X71438748Y-64125000D02*
X71961252Y-64125000D01*
X71438748Y-62655000D02*
X71961252Y-62655000D01*
%TO.C,C4*%
X71438748Y-61115000D02*
X71961252Y-61115000D01*
X71438748Y-59645000D02*
X71961252Y-59645000D01*
%TO.C,C3*%
X71438748Y-58105000D02*
X71961252Y-58105000D01*
X71438748Y-56635000D02*
X71961252Y-56635000D01*
%TO.C,C2*%
X71438748Y-55095000D02*
X71961252Y-55095000D01*
X71438748Y-53625000D02*
X71961252Y-53625000D01*
%TO.C,C1*%
X71438748Y-52085000D02*
X71961252Y-52085000D01*
X71438748Y-50615000D02*
X71961252Y-50615000D01*
D12*
%TO.C,Y1*%
X32650000Y-72500000D02*
X32650000Y-83900000D01*
X37350000Y-72500000D02*
X37350000Y-83900000D01*
D11*
%TO.C,R6*%
X39672936Y-84290000D02*
X41127064Y-84290000D01*
X39672936Y-86110000D02*
X41127064Y-86110000D01*
D12*
%TO.C,POW1*%
X16000000Y-32100000D02*
X16000000Y-16700000D01*
X16000000Y-16700000D02*
X24000000Y-16700000D01*
X24000000Y-16700000D02*
X24000000Y-32100000D01*
X24000000Y-32100000D02*
X16000000Y-32100000D01*
D13*
X22322500Y-26940000D02*
G75*
G03*
X22322500Y-26940000I-100000J0D01*
G01*
X20100000Y-32850000D02*
G75*
G03*
X20100000Y-32850000I-100000J0D01*
G01*
D11*
%TO.C,U5*%
X92900000Y-41620000D02*
X72460000Y-41620000D01*
X81755000Y-36379000D02*
X81064000Y-36379000D01*
X86835000Y-36379000D02*
X86144000Y-36379000D01*
X78870000Y-36379000D02*
X78870000Y-32985000D01*
X76675000Y-36379000D02*
X75984000Y-36379000D01*
X76330000Y-36379000D02*
X76330000Y-32985000D01*
X86490000Y-36379000D02*
X86490000Y-32985000D01*
X84295000Y-36379000D02*
X83604000Y-36379000D01*
X83950000Y-36379000D02*
X83950000Y-32985000D01*
X72460000Y-41620000D02*
X72460000Y-36379000D01*
X81410000Y-36379000D02*
X81410000Y-32985000D01*
X89030000Y-36379000D02*
X89030000Y-32985000D01*
X79215000Y-36379000D02*
X78524000Y-36379000D01*
X92900000Y-39780000D02*
X72460000Y-39780000D01*
X73790000Y-36379000D02*
X73790000Y-32985000D01*
X92900000Y-41620000D02*
X92900000Y-36379000D01*
X92900000Y-36379000D02*
X91224000Y-36379000D01*
X84529000Y-41620000D02*
X84529000Y-39780000D01*
X80830000Y-41620000D02*
X80830000Y-39780000D01*
X74135000Y-36379000D02*
X72460000Y-36379000D01*
X91570000Y-36379000D02*
X91570000Y-32970000D01*
X89375000Y-36379000D02*
X88684000Y-36379000D01*
D12*
%TO.C,U4*%
X23590000Y-40140000D02*
X23590000Y-44840000D01*
X23590000Y-44840000D02*
X34130000Y-44840000D01*
X34130000Y-44840000D02*
X34130000Y-40140000D01*
X34130000Y-40140000D02*
X23590000Y-40140000D01*
D13*
X26420000Y-45540000D02*
G75*
G03*
X26420000Y-45540000I-100000J0D01*
G01*
D12*
%TO.C,U3*%
X38190000Y-40140000D02*
X38190000Y-44840000D01*
X38190000Y-44840000D02*
X48730000Y-44840000D01*
X48730000Y-44840000D02*
X48730000Y-40140000D01*
X48730000Y-40140000D02*
X38190000Y-40140000D01*
D13*
X41020000Y-45540000D02*
G75*
G03*
X41020000Y-45540000I-100000J0D01*
G01*
D12*
%TO.C,U2*%
X51590000Y-27540000D02*
X51590000Y-32240000D01*
X51590000Y-32240000D02*
X62130000Y-32240000D01*
X62130000Y-32240000D02*
X62130000Y-27540000D01*
X62130000Y-27540000D02*
X51590000Y-27540000D01*
D13*
X54420000Y-32940000D02*
G75*
G03*
X54420000Y-32940000I-100000J0D01*
G01*
D12*
%TO.C,U1*%
X51790000Y-16140000D02*
X51790000Y-20840000D01*
X51790000Y-20840000D02*
X62330000Y-20840000D01*
X62330000Y-20840000D02*
X62330000Y-16140000D01*
X62330000Y-16140000D02*
X51790000Y-16140000D01*
D13*
X54620000Y-21540000D02*
G75*
G03*
X54620000Y-21540000I-100000J0D01*
G01*
D11*
%TO.C,RV4*%
X44000000Y-19700000D02*
X44400000Y-19700000D01*
X45800000Y-18600000D02*
X45800000Y-15700000D01*
X45800000Y-15700000D02*
X45200000Y-15700000D01*
X42400000Y-20200000D02*
X43100000Y-20200000D01*
X42600000Y-15700000D02*
X43200000Y-15700000D01*
X42400000Y-19500000D02*
X42400000Y-20200000D01*
X42600000Y-18600000D02*
X42600000Y-15700000D01*
%TO.C,RV3*%
X22850000Y-48400000D02*
X22850000Y-48800000D01*
X23950000Y-50200000D02*
X26850000Y-50200000D01*
X26850000Y-50200000D02*
X26850000Y-49600000D01*
X22350000Y-46800000D02*
X22350000Y-47500000D01*
X26850000Y-47000000D02*
X26850000Y-47600000D01*
X23050000Y-46800000D02*
X22350000Y-46800000D01*
X23950000Y-47000000D02*
X26850000Y-47000000D01*
%TO.C,RV2*%
X44000000Y-36300000D02*
X44400000Y-36300000D01*
X45800000Y-35200000D02*
X45800000Y-32300000D01*
X45800000Y-32300000D02*
X45200000Y-32300000D01*
X42400000Y-36800000D02*
X43100000Y-36800000D01*
X42600000Y-32300000D02*
X43200000Y-32300000D01*
X42400000Y-36100000D02*
X42400000Y-36800000D01*
X42600000Y-35200000D02*
X42600000Y-32300000D01*
%TO.C,RV1*%
X40500000Y-49000000D02*
X40500000Y-49400000D01*
X41600000Y-50800000D02*
X44500000Y-50800000D01*
X44500000Y-50800000D02*
X44500000Y-50200000D01*
X40000000Y-47400000D02*
X40000000Y-48100000D01*
X44500000Y-47600000D02*
X44500000Y-48200000D01*
X40700000Y-47400000D02*
X40000000Y-47400000D01*
X41600000Y-47600000D02*
X44500000Y-47600000D01*
%TO.C,R7*%
X48290000Y-35327064D02*
X48290000Y-33872936D01*
X50110000Y-35327064D02*
X50110000Y-33872936D01*
%TO.C,R5*%
X30872936Y-48090000D02*
X32327064Y-48090000D01*
X30872936Y-49910000D02*
X32327064Y-49910000D01*
%TO.C,R3*%
X49310000Y-17072936D02*
X49310000Y-18527064D01*
X47490000Y-17072936D02*
X47490000Y-18527064D01*
%TO.C,R1*%
X47522936Y-48090000D02*
X48977064Y-48090000D01*
X47522936Y-49910000D02*
X48977064Y-49910000D01*
%TO.C,POW3*%
X109900000Y-89210000D02*
X109900000Y-82090000D01*
X109960000Y-89450000D02*
X110600000Y-89450000D01*
X104731000Y-82625000D02*
X104859000Y-82754000D01*
X110360000Y-89210000D02*
X110360000Y-82090000D01*
X102640000Y-89210000D02*
X110360000Y-89210000D01*
X106981000Y-84875000D02*
X107074000Y-84969000D01*
X104525000Y-82830000D02*
X104619000Y-82924000D01*
X110600000Y-89450000D02*
X110600000Y-89050000D01*
X106741000Y-85045000D02*
X106869000Y-85174000D01*
X102640000Y-89210000D02*
X102640000Y-82090000D01*
X102640000Y-82090000D02*
X110360000Y-82090000D01*
X108800000Y-89210000D02*
X108800000Y-82090000D01*
X104934000Y-88840000D02*
G75*
G03*
X106689894Y-88825358I866000J1439998D01*
G01*
X107479999Y-87400000D02*
G75*
G03*
X107224720Y-86509736I-1679989J3D01*
G01*
X104360000Y-86534000D02*
G75*
G03*
X104374642Y-88289894I1439998J-866000D01*
G01*
X107240000Y-88266000D02*
G75*
G03*
X107480098Y-87371326I-1440014J866003D01*
G01*
X106690999Y-85975001D02*
G75*
G03*
X104909808Y-85974497I-890999J-1425002D01*
G01*
X107480000Y-83900000D02*
G75*
G03*
X107480000Y-83900000I-1680000J0D01*
G01*
%TO.C,POW2*%
X73810000Y-13900000D02*
X66690000Y-13900000D01*
X74050000Y-13840000D02*
X74050000Y-13200000D01*
X67225000Y-19069000D02*
X67354000Y-18941000D01*
X73810000Y-13440000D02*
X66690000Y-13440000D01*
X73810000Y-21160000D02*
X73810000Y-13440000D01*
X69475000Y-16819000D02*
X69569000Y-16726000D01*
X67430000Y-19275000D02*
X67524000Y-19181000D01*
X74050000Y-13200000D02*
X73650000Y-13200000D01*
X69645000Y-17059000D02*
X69774000Y-16931000D01*
X73810000Y-21160000D02*
X66690000Y-21160000D01*
X66690000Y-21160000D02*
X66690000Y-13440000D01*
X73810000Y-15000000D02*
X66690000Y-15000000D01*
X73440000Y-18866000D02*
G75*
G03*
X73425358Y-17110106I-1439998J866000D01*
G01*
X72000000Y-16320001D02*
G75*
G03*
X71109736Y-16575280I-3J-1679989D01*
G01*
X71134000Y-19440000D02*
G75*
G03*
X72889894Y-19425358I866000J1439998D01*
G01*
X72866000Y-16560000D02*
G75*
G03*
X71971326Y-16319902I-866003J-1440014D01*
G01*
X70575001Y-17109001D02*
G75*
G03*
X70574497Y-18890192I1425002J-890999D01*
G01*
X70180000Y-18000000D02*
G75*
G03*
X70180000Y-18000000I-1680000J0D01*
G01*
%TO.C,J11*%
X93180000Y-19775000D02*
X93274000Y-19681000D01*
X95225000Y-17319000D02*
X95319000Y-17226000D01*
X91725000Y-17319000D02*
X91819000Y-17226000D01*
X78439000Y-21660000D02*
X78439000Y-13940000D01*
X81225000Y-17319000D02*
X81319000Y-17226000D01*
X91895000Y-17559000D02*
X92024000Y-17431000D01*
X81395000Y-17559000D02*
X81524000Y-17431000D01*
X89475000Y-19569000D02*
X89604000Y-19441000D01*
X82680000Y-19775000D02*
X82774000Y-19681000D01*
X99560000Y-13940000D02*
X78439000Y-13940000D01*
X79180000Y-19775000D02*
X79274000Y-19681000D01*
X99560000Y-21660000D02*
X78439000Y-21660000D01*
X88395000Y-17559000D02*
X88524000Y-17431000D01*
X89680000Y-19775000D02*
X89774000Y-19681000D01*
X85975000Y-19569000D02*
X86104000Y-19441000D01*
X92975000Y-19569000D02*
X93104000Y-19441000D01*
X84895000Y-17559000D02*
X85024000Y-17431000D01*
X99560000Y-14400000D02*
X78439000Y-14400000D01*
X99800000Y-14340000D02*
X99800000Y-13700000D01*
X99560000Y-15500000D02*
X78439000Y-15500000D01*
X88225000Y-17319000D02*
X88319000Y-17226000D01*
X78975000Y-19569000D02*
X79104000Y-19441000D01*
X95395000Y-17559000D02*
X95524000Y-17431000D01*
X99560000Y-21660000D02*
X99560000Y-13940000D01*
X82475000Y-19569000D02*
X82604000Y-19441000D01*
X86180000Y-19775000D02*
X86274000Y-19681000D01*
X99800000Y-13700000D02*
X99400000Y-13700000D01*
X84725000Y-17319000D02*
X84819000Y-17226000D01*
X96325001Y-17609001D02*
G75*
G03*
X96324497Y-19390192I1425002J-890999D01*
G01*
X98616000Y-17060000D02*
G75*
G03*
X97721326Y-16819902I-866003J-1440014D01*
G01*
X97750000Y-16820001D02*
G75*
G03*
X96859736Y-17075280I-3J-1679989D01*
G01*
X99190000Y-19366000D02*
G75*
G03*
X99175358Y-17610106I-1439998J866000D01*
G01*
X96884000Y-19940000D02*
G75*
G03*
X98639894Y-19925358I866000J1439998D01*
G01*
X92430000Y-18500000D02*
G75*
G03*
X92430000Y-18500000I-1680000J0D01*
G01*
X95930000Y-18500000D02*
G75*
G03*
X95930000Y-18500000I-1680000J0D01*
G01*
X88930000Y-18500000D02*
G75*
G03*
X88930000Y-18500000I-1680000J0D01*
G01*
X85430000Y-18500000D02*
G75*
G03*
X85430000Y-18500000I-1680000J0D01*
G01*
X81930000Y-18500000D02*
G75*
G03*
X81930000Y-18500000I-1680000J0D01*
G01*
%TO.C,J10*%
X104325000Y-38030000D02*
X104419000Y-38124000D01*
X106781000Y-40075000D02*
X106874000Y-40169000D01*
X106781000Y-36575000D02*
X106874000Y-36669000D01*
X102440000Y-23289000D02*
X110160000Y-23289000D01*
X106781000Y-26075000D02*
X106874000Y-26169000D01*
X106541000Y-36745000D02*
X106669000Y-36874000D01*
X106541000Y-26245000D02*
X106669000Y-26374000D01*
X104531000Y-34325000D02*
X104659000Y-34454000D01*
X104325000Y-27530000D02*
X104419000Y-27624000D01*
X110160000Y-44410000D02*
X110160000Y-23289000D01*
X104325000Y-24030000D02*
X104419000Y-24124000D01*
X102440000Y-44410000D02*
X102440000Y-23289000D01*
X106541000Y-33245000D02*
X106669000Y-33374000D01*
X104325000Y-34530000D02*
X104419000Y-34624000D01*
X104531000Y-30825000D02*
X104659000Y-30954000D01*
X104531000Y-37825000D02*
X104659000Y-37954000D01*
X106541000Y-29745000D02*
X106669000Y-29874000D01*
X109700000Y-44410000D02*
X109700000Y-23289000D01*
X109760000Y-44650000D02*
X110400000Y-44650000D01*
X108600000Y-44410000D02*
X108600000Y-23289000D01*
X106781000Y-33075000D02*
X106874000Y-33169000D01*
X104531000Y-23825000D02*
X104659000Y-23954000D01*
X106541000Y-40245000D02*
X106669000Y-40374000D01*
X102440000Y-44410000D02*
X110160000Y-44410000D01*
X104531000Y-27325000D02*
X104659000Y-27454000D01*
X104325000Y-31030000D02*
X104419000Y-31124000D01*
X110400000Y-44650000D02*
X110400000Y-44250000D01*
X106781000Y-29575000D02*
X106874000Y-29669000D01*
X106490999Y-41175001D02*
G75*
G03*
X104709808Y-41174497I-890999J-1425002D01*
G01*
X107040000Y-43466000D02*
G75*
G03*
X107280098Y-42571326I-1440014J866003D01*
G01*
X107279999Y-42600000D02*
G75*
G03*
X107024720Y-41709736I-1679989J3D01*
G01*
X104734000Y-44040000D02*
G75*
G03*
X106489894Y-44025358I866000J1439998D01*
G01*
X104160000Y-41734000D02*
G75*
G03*
X104174642Y-43489894I1439998J-866000D01*
G01*
X107280000Y-35600000D02*
G75*
G03*
X107280000Y-35600000I-1680000J0D01*
G01*
X107280000Y-39100000D02*
G75*
G03*
X107280000Y-39100000I-1680000J0D01*
G01*
X107280000Y-32100000D02*
G75*
G03*
X107280000Y-32100000I-1680000J0D01*
G01*
X107280000Y-28600000D02*
G75*
G03*
X107280000Y-28600000I-1680000J0D01*
G01*
X107280000Y-25100000D02*
G75*
G03*
X107280000Y-25100000I-1680000J0D01*
G01*
%TO.C,J9*%
X103050000Y-91870000D02*
X110730000Y-91870000D01*
X101780000Y-94530000D02*
X100450000Y-94530000D01*
X110730000Y-94530000D02*
X110730000Y-91870000D01*
X103050000Y-94530000D02*
X103050000Y-91870000D01*
X100450000Y-94530000D02*
X100450000Y-93200000D01*
X103050000Y-94530000D02*
X110730000Y-94530000D01*
%TO.C,J7*%
X98050000Y-98530000D02*
X110810000Y-98530000D01*
X96780000Y-98530000D02*
X95450000Y-98530000D01*
X95450000Y-98530000D02*
X95450000Y-97200000D01*
X98050000Y-98530000D02*
X98050000Y-95870000D01*
X110810000Y-98530000D02*
X110810000Y-95870000D01*
X98050000Y-95870000D02*
X110810000Y-95870000D01*
%TO.C,J5*%
X104325000Y-63730000D02*
X104419000Y-63824000D01*
X104531000Y-60025000D02*
X104659000Y-60154000D01*
X104531000Y-53025000D02*
X104659000Y-53154000D01*
X106781000Y-55275000D02*
X106874000Y-55369000D01*
X106541000Y-55445000D02*
X106669000Y-55574000D01*
X102440000Y-48990000D02*
X110160000Y-48990000D01*
X104531000Y-63525000D02*
X104659000Y-63654000D01*
X106781000Y-76275000D02*
X106874000Y-76369000D01*
X104325000Y-49730000D02*
X104419000Y-49824000D01*
X106541000Y-72945000D02*
X106669000Y-73074000D01*
X106541000Y-51945000D02*
X106669000Y-52074000D01*
X102440000Y-80610000D02*
X102440000Y-48990000D01*
X104531000Y-74025000D02*
X104659000Y-74154000D01*
X104531000Y-67025000D02*
X104659000Y-67154000D01*
X104325000Y-74230000D02*
X104419000Y-74324000D01*
X109760000Y-80850000D02*
X110400000Y-80850000D01*
X106541000Y-76445000D02*
X106669000Y-76574000D01*
X104325000Y-70730000D02*
X104419000Y-70824000D01*
X108600000Y-80610000D02*
X108600000Y-48990000D01*
X110400000Y-80850000D02*
X110400000Y-80450000D01*
X102440000Y-80610000D02*
X110160000Y-80610000D01*
X106781000Y-72775000D02*
X106874000Y-72869000D01*
X104531000Y-56525000D02*
X104659000Y-56654000D01*
X106781000Y-65775000D02*
X106874000Y-65869000D01*
X104531000Y-70525000D02*
X104659000Y-70654000D01*
X109700000Y-80610000D02*
X109700000Y-48990000D01*
X104325000Y-67230000D02*
X104419000Y-67324000D01*
X104531000Y-49525000D02*
X104659000Y-49654000D01*
X106781000Y-62275000D02*
X106874000Y-62369000D01*
X106781000Y-58775000D02*
X106874000Y-58869000D01*
X104325000Y-60230000D02*
X104419000Y-60324000D01*
X106541000Y-58945000D02*
X106669000Y-59074000D01*
X106541000Y-65945000D02*
X106669000Y-66074000D01*
X106781000Y-69275000D02*
X106874000Y-69369000D01*
X104325000Y-53230000D02*
X104419000Y-53324000D01*
X106781000Y-51775000D02*
X106874000Y-51869000D01*
X106541000Y-62445000D02*
X106669000Y-62574000D01*
X110160000Y-80610000D02*
X110160000Y-48990000D01*
X106541000Y-69445000D02*
X106669000Y-69574000D01*
X104325000Y-56730000D02*
X104419000Y-56824000D01*
X107279999Y-78800000D02*
G75*
G03*
X107024720Y-77909736I-1679989J3D01*
G01*
X107040000Y-79666000D02*
G75*
G03*
X107280098Y-78771326I-1440014J866003D01*
G01*
X106490999Y-77375001D02*
G75*
G03*
X104709808Y-77374497I-890999J-1425002D01*
G01*
X104160000Y-77934000D02*
G75*
G03*
X104174642Y-79689894I1439998J-866000D01*
G01*
X104734000Y-80240000D02*
G75*
G03*
X106489894Y-80225358I866000J1439998D01*
G01*
X107280000Y-57800000D02*
G75*
G03*
X107280000Y-57800000I-1680000J0D01*
G01*
X107280000Y-64800000D02*
G75*
G03*
X107280000Y-64800000I-1680000J0D01*
G01*
X107280000Y-71800000D02*
G75*
G03*
X107280000Y-71800000I-1680000J0D01*
G01*
X107280000Y-68300000D02*
G75*
G03*
X107280000Y-68300000I-1680000J0D01*
G01*
X107280000Y-54300000D02*
G75*
G03*
X107280000Y-54300000I-1680000J0D01*
G01*
X107280000Y-75300000D02*
G75*
G03*
X107280000Y-75300000I-1680000J0D01*
G01*
X107280000Y-61300000D02*
G75*
G03*
X107280000Y-61300000I-1680000J0D01*
G01*
X107280000Y-50800000D02*
G75*
G03*
X107280000Y-50800000I-1680000J0D01*
G01*
%TO.C,D4*%
X88590000Y-26462500D02*
X88590000Y-25812500D01*
X91710000Y-26462500D02*
X91710000Y-25812500D01*
X88590000Y-26462500D02*
X88590000Y-28137500D01*
X91710000Y-26462500D02*
X91710000Y-27112500D01*
%TO.C,D3*%
X84140000Y-26462500D02*
X84140000Y-25812500D01*
X87260000Y-26462500D02*
X87260000Y-25812500D01*
X84140000Y-26462500D02*
X84140000Y-28137500D01*
X87260000Y-26462500D02*
X87260000Y-27112500D01*
%TO.C,D2*%
X98000000Y-34640000D02*
X98650000Y-34640000D01*
X98000000Y-37760000D02*
X98650000Y-37760000D01*
X98000000Y-34640000D02*
X96325000Y-34640000D01*
X98000000Y-37760000D02*
X97350000Y-37760000D01*
%TO.C,D1*%
X98000000Y-30190000D02*
X98650000Y-30190000D01*
X98000000Y-33310000D02*
X98650000Y-33310000D01*
X98000000Y-30190000D02*
X96325000Y-30190000D01*
X98000000Y-33310000D02*
X97350000Y-33310000D01*
%TO.C,Y2*%
X35525000Y-58325000D02*
X35525000Y-59675000D01*
X37275000Y-58325000D02*
X37275000Y-59675000D01*
%TO.C,U7*%
X49440000Y-59490000D02*
X48490000Y-59490000D01*
X57760000Y-59490000D02*
X58710000Y-59490000D01*
X58710000Y-69710000D02*
X58710000Y-68760000D01*
X57760000Y-69710000D02*
X58710000Y-69710000D01*
X49440000Y-69710000D02*
X48490000Y-69710000D01*
X48490000Y-59490000D02*
X48490000Y-60440000D01*
X58710000Y-59490000D02*
X58710000Y-60440000D01*
X48490000Y-69710000D02*
X48490000Y-68760000D01*
X48490000Y-60440000D02*
X47150000Y-60440000D01*
%TO.C,SW3*%
X19750000Y-74300000D02*
X18250000Y-74300000D01*
X15750000Y-75550000D02*
X15750000Y-80050000D01*
X18250000Y-81300000D02*
X19750000Y-81300000D01*
X22250000Y-80050000D02*
X22250000Y-75550000D01*
%TO.C,R10*%
X35490000Y-54327064D02*
X35490000Y-52872936D01*
X37310000Y-54327064D02*
X37310000Y-52872936D01*
%TO.C,R9*%
X35490000Y-64927064D02*
X35490000Y-63472936D01*
X37310000Y-64927064D02*
X37310000Y-63472936D01*
%TO.C,R8*%
X41127064Y-69510000D02*
X39672936Y-69510000D01*
X41127064Y-67690000D02*
X39672936Y-67690000D01*
%TO.C,R4*%
X52472936Y-93690000D02*
X53927064Y-93690000D01*
X52472936Y-95510000D02*
X53927064Y-95510000D01*
%TO.C,R2*%
X52472936Y-90400000D02*
X53927064Y-90400000D01*
X52472936Y-92220000D02*
X53927064Y-92220000D01*
%TO.C,J6*%
X16730000Y-49070000D02*
X16730000Y-50400000D01*
X14130000Y-49070000D02*
X14130000Y-51730000D01*
X14070000Y-49070000D02*
X14070000Y-51730000D01*
X14130000Y-51730000D02*
X14070000Y-51730000D01*
X14130000Y-49070000D02*
X14070000Y-49070000D01*
X15400000Y-49070000D02*
X16730000Y-49070000D01*
%TO.C,J4*%
X18870000Y-57730000D02*
X18870000Y-70490000D01*
X18870000Y-56460000D02*
X18870000Y-55130000D01*
X18870000Y-55130000D02*
X20200000Y-55130000D01*
X18870000Y-57730000D02*
X21530000Y-57730000D01*
X18870000Y-70490000D02*
X21530000Y-70490000D01*
X21530000Y-57730000D02*
X21530000Y-70490000D01*
%TO.C,J3*%
X16730000Y-45470000D02*
X16730000Y-46800000D01*
X14130000Y-45470000D02*
X14130000Y-48130000D01*
X14070000Y-45470000D02*
X14070000Y-48130000D01*
X14130000Y-48130000D02*
X14070000Y-48130000D01*
X14130000Y-45470000D02*
X14070000Y-45470000D01*
X15400000Y-45470000D02*
X16730000Y-45470000D01*
%TO.C,J2*%
X15400000Y-41870000D02*
X16730000Y-41870000D01*
X14130000Y-41870000D02*
X14070000Y-41870000D01*
X14130000Y-44530000D02*
X14070000Y-44530000D01*
X14070000Y-41870000D02*
X14070000Y-44530000D01*
X14130000Y-41870000D02*
X14130000Y-44530000D01*
X16730000Y-41870000D02*
X16730000Y-43200000D01*
%TO.C,J1*%
X16730000Y-38070000D02*
X16730000Y-39400000D01*
X14130000Y-38070000D02*
X14130000Y-40730000D01*
X14070000Y-38070000D02*
X14070000Y-40730000D01*
X14130000Y-40730000D02*
X14070000Y-40730000D01*
X14130000Y-38070000D02*
X14070000Y-38070000D01*
X15400000Y-38070000D02*
X16730000Y-38070000D01*
%TO.C,G\u002A\u002A\u002A*%
G36*
X81542555Y-93884178D02*
G01*
X81794790Y-93949051D01*
X82032892Y-94052747D01*
X82251972Y-94193163D01*
X82447143Y-94368194D01*
X82613518Y-94575736D01*
X82740107Y-94800358D01*
X82834759Y-95059073D01*
X82884039Y-95323790D01*
X82888974Y-95589445D01*
X82850590Y-95850971D01*
X82769913Y-96103303D01*
X82647970Y-96341375D01*
X82485786Y-96560122D01*
X82356970Y-96691658D01*
X82191908Y-96820993D01*
X82000872Y-96934989D01*
X81802120Y-97023696D01*
X81673677Y-97064041D01*
X81527188Y-97091841D01*
X81361378Y-97108652D01*
X81196563Y-97113293D01*
X81053063Y-97104581D01*
X81030656Y-97101440D01*
X80768051Y-97037388D01*
X80521253Y-96932115D01*
X80295286Y-96789813D01*
X80095175Y-96614672D01*
X79925942Y-96410884D01*
X79792612Y-96182640D01*
X79723413Y-96010801D01*
X79658687Y-95744955D01*
X79638854Y-95479424D01*
X79661617Y-95218836D01*
X79724677Y-94967818D01*
X79825738Y-94730997D01*
X79962500Y-94513000D01*
X80132667Y-94318456D01*
X80333941Y-94151990D01*
X80564024Y-94018232D01*
X80749927Y-93943543D01*
X81015236Y-93879319D01*
X81281075Y-93860233D01*
X81542555Y-93884178D01*
G37*
G36*
X87473205Y-101701556D02*
G01*
X87473205Y-102055994D01*
X87741514Y-102097109D01*
X88150400Y-102175564D01*
X88522753Y-102279822D01*
X88857578Y-102409439D01*
X89153876Y-102563971D01*
X89410649Y-102742975D01*
X89611263Y-102929050D01*
X89697700Y-103028022D01*
X89774044Y-103127373D01*
X89835605Y-103219613D01*
X89877694Y-103297254D01*
X89895622Y-103352806D01*
X89890638Y-103375228D01*
X89864791Y-103389819D01*
X89800807Y-103421865D01*
X89703884Y-103468882D01*
X89579218Y-103528385D01*
X89432004Y-103597888D01*
X89267440Y-103674908D01*
X89142688Y-103732898D01*
X88968578Y-103813895D01*
X88807791Y-103889248D01*
X88665587Y-103956449D01*
X88547225Y-104012990D01*
X88457966Y-104056364D01*
X88403068Y-104084063D01*
X88387870Y-104092808D01*
X88347283Y-104095560D01*
X88278508Y-104059862D01*
X88272794Y-104056029D01*
X88123351Y-103975608D01*
X87929529Y-103906462D01*
X87693423Y-103849116D01*
X87417126Y-103804094D01*
X87156533Y-103776270D01*
X86913537Y-103764184D01*
X86656218Y-103766637D01*
X86394873Y-103782501D01*
X86139795Y-103810652D01*
X85901281Y-103849963D01*
X85689626Y-103899307D01*
X85521031Y-103955166D01*
X85386350Y-104009305D01*
X85380228Y-105679463D01*
X85374105Y-107349621D01*
X85950522Y-107365365D01*
X86127375Y-107369452D01*
X86339463Y-107373143D01*
X86574325Y-107376297D01*
X86819496Y-107378770D01*
X87062513Y-107380419D01*
X87290914Y-107381099D01*
X87319491Y-107381109D01*
X87536964Y-107380901D01*
X87711470Y-107380127D01*
X87847742Y-107378568D01*
X87950512Y-107376002D01*
X88024513Y-107372207D01*
X88074477Y-107366963D01*
X88105135Y-107360049D01*
X88121221Y-107351242D01*
X88126522Y-107343384D01*
X88131801Y-107306641D01*
X88136219Y-107232105D01*
X88139386Y-107129679D01*
X88140916Y-107009266D01*
X88140998Y-106973713D01*
X88140998Y-106641766D01*
X87330106Y-106641766D01*
X86519214Y-106641766D01*
X86519214Y-105771250D01*
X86519214Y-104900734D01*
X88202559Y-104900734D01*
X89885905Y-104900734D01*
X89878005Y-106993550D01*
X89877058Y-107309733D01*
X89876618Y-107615330D01*
X89876664Y-107906549D01*
X89877174Y-108179596D01*
X89878126Y-108430679D01*
X89879497Y-108656002D01*
X89881265Y-108851775D01*
X89883409Y-109014202D01*
X89885907Y-109139491D01*
X89888736Y-109223849D01*
X89891171Y-109258899D01*
X89895226Y-109481015D01*
X89855111Y-109696214D01*
X89774340Y-109898841D01*
X89656426Y-110083242D01*
X89504883Y-110243762D01*
X89323223Y-110374746D01*
X89145199Y-110459603D01*
X88915720Y-110523269D01*
X88689243Y-110539566D01*
X88464106Y-110508407D01*
X88238645Y-110429706D01*
X88197430Y-110410255D01*
X87998578Y-110287306D01*
X87832243Y-110131899D01*
X87701297Y-109948950D01*
X87608617Y-109743371D01*
X87557076Y-109520077D01*
X87548576Y-109300966D01*
X87557252Y-109129141D01*
X87187294Y-109113796D01*
X87037554Y-109108709D01*
X86856830Y-109104325D01*
X86661838Y-109100948D01*
X86469292Y-109098880D01*
X86337563Y-109098372D01*
X85857789Y-109098292D01*
X85869707Y-109264862D01*
X85864179Y-109498101D01*
X85816194Y-109717460D01*
X85729934Y-109919076D01*
X85609578Y-110099084D01*
X85459307Y-110253620D01*
X85283302Y-110378820D01*
X85085742Y-110470821D01*
X84870807Y-110525758D01*
X84642679Y-110539768D01*
X84503909Y-110527319D01*
X84298616Y-110474097D01*
X84104276Y-110379496D01*
X83927285Y-110249617D01*
X83774039Y-110090563D01*
X83650932Y-109908436D01*
X83564360Y-109709337D01*
X83536573Y-109604372D01*
X83519516Y-109459973D01*
X83520575Y-109295965D01*
X83538322Y-109132287D01*
X83571329Y-108988878D01*
X83583064Y-108955194D01*
X83590979Y-108933993D01*
X83598018Y-108912195D01*
X83604231Y-108887019D01*
X83609669Y-108855684D01*
X83614385Y-108815410D01*
X83618430Y-108763415D01*
X83621856Y-108696919D01*
X83624713Y-108613141D01*
X83627054Y-108509300D01*
X83628930Y-108382614D01*
X83630392Y-108230304D01*
X83631493Y-108049589D01*
X83632283Y-107837686D01*
X83632814Y-107591817D01*
X83633138Y-107309199D01*
X83633306Y-106987052D01*
X83633369Y-106622595D01*
X83633380Y-106239763D01*
X83633357Y-105822115D01*
X83633373Y-105449344D01*
X83633564Y-105118626D01*
X83634065Y-104827139D01*
X83635010Y-104572058D01*
X83636536Y-104350562D01*
X83638776Y-104159827D01*
X83641867Y-103997031D01*
X83645943Y-103859349D01*
X83651140Y-103743959D01*
X83657592Y-103648039D01*
X83665435Y-103568764D01*
X83674804Y-103503313D01*
X83685834Y-103448861D01*
X83698660Y-103402586D01*
X83713417Y-103361665D01*
X83730241Y-103323275D01*
X83749266Y-103284593D01*
X83770628Y-103242795D01*
X83777479Y-103229293D01*
X83909959Y-103018880D01*
X84085109Y-102825849D01*
X84300803Y-102651203D01*
X84554912Y-102495942D01*
X84845309Y-102361067D01*
X85169867Y-102247581D01*
X85526457Y-102156483D01*
X85912953Y-102088775D01*
X86286679Y-102048503D01*
X86495364Y-102032202D01*
X86495364Y-101689660D01*
X86495364Y-101347119D01*
X86984284Y-101347119D01*
X87473205Y-101347119D01*
X87473205Y-101701556D01*
G37*
G36*
X87047144Y-94310918D02*
G01*
X87088904Y-94357597D01*
X87151648Y-94440108D01*
X87236353Y-94559779D01*
X87343996Y-94717941D01*
X87442003Y-94865088D01*
X87709234Y-95276245D01*
X87946146Y-95656399D01*
X88154781Y-96009591D01*
X88337183Y-96339859D01*
X88495393Y-96651244D01*
X88631456Y-96947784D01*
X88747412Y-97233521D01*
X88845306Y-97512493D01*
X88927179Y-97788741D01*
X88934824Y-97817353D01*
X88961721Y-97922461D01*
X88981100Y-98010658D01*
X88994237Y-98093767D01*
X89002408Y-98183609D01*
X89006887Y-98292004D01*
X89008950Y-98430776D01*
X89009443Y-98508997D01*
X89008347Y-98702935D01*
X89001527Y-98860195D01*
X88986899Y-98991661D01*
X88962379Y-99108215D01*
X88925883Y-99220741D01*
X88875327Y-99340120D01*
X88833610Y-99427212D01*
X88690050Y-99668600D01*
X88514199Y-99875769D01*
X88305094Y-100049502D01*
X88061774Y-100190580D01*
X87783275Y-100299787D01*
X87746589Y-100311042D01*
X87652765Y-100337001D01*
X87564723Y-100355796D01*
X87470201Y-100368989D01*
X87356939Y-100378139D01*
X87212675Y-100384809D01*
X87150476Y-100386913D01*
X87024563Y-100389824D01*
X86904579Y-100389842D01*
X86785611Y-100386311D01*
X86662746Y-100378577D01*
X86531074Y-100365982D01*
X86385680Y-100347870D01*
X86221654Y-100323588D01*
X86034082Y-100292477D01*
X85818053Y-100253884D01*
X85568654Y-100207151D01*
X85280973Y-100151623D01*
X85052453Y-100106828D01*
X84683795Y-100034869D01*
X84355582Y-99972287D01*
X84061693Y-99918119D01*
X83796007Y-99871401D01*
X83552406Y-99831167D01*
X83324767Y-99796455D01*
X83106971Y-99766299D01*
X82892898Y-99739736D01*
X82676427Y-99715802D01*
X82451437Y-99693532D01*
X82396560Y-99688426D01*
X82221042Y-99672270D01*
X82235617Y-99788239D01*
X82245449Y-99880893D01*
X82257181Y-100015686D01*
X82270467Y-100187112D01*
X82284959Y-100389665D01*
X82300309Y-100617836D01*
X82316170Y-100866120D01*
X82332194Y-101129009D01*
X82348034Y-101400997D01*
X82363343Y-101676577D01*
X82377773Y-101950242D01*
X82390976Y-102216485D01*
X82397179Y-102348809D01*
X82404068Y-102531790D01*
X82409987Y-102755070D01*
X82414936Y-103012478D01*
X82418916Y-103297845D01*
X82421927Y-103605000D01*
X82423969Y-103927772D01*
X82425043Y-104259991D01*
X82425150Y-104595487D01*
X82424288Y-104928088D01*
X82422460Y-105251624D01*
X82419665Y-105559926D01*
X82415903Y-105846822D01*
X82411175Y-106106142D01*
X82405482Y-106331715D01*
X82398823Y-106517371D01*
X82396936Y-106558292D01*
X82370258Y-107068173D01*
X82341244Y-107553943D01*
X82310307Y-108009481D01*
X82277857Y-108428663D01*
X82249332Y-108752471D01*
X82232532Y-108924267D01*
X82213312Y-109108864D01*
X82192446Y-109299875D01*
X82170713Y-109490916D01*
X82148886Y-109675602D01*
X82127743Y-109847548D01*
X82108059Y-110000370D01*
X82090611Y-110127683D01*
X82076174Y-110223102D01*
X82065525Y-110280241D01*
X82062266Y-110291546D01*
X82052489Y-110302693D01*
X82030400Y-110308646D01*
X81990293Y-110308848D01*
X81926464Y-110302742D01*
X81833208Y-110289770D01*
X81704820Y-110269374D01*
X81535596Y-110240998D01*
X81522688Y-110238802D01*
X81332538Y-110206437D01*
X81123218Y-110170793D01*
X80911493Y-110134727D01*
X80714133Y-110101095D01*
X80555537Y-110074055D01*
X80113081Y-109998593D01*
X80154881Y-109694141D01*
X80178754Y-109507823D01*
X80204661Y-109283743D01*
X80231652Y-109031745D01*
X80258773Y-108761675D01*
X80285073Y-108483374D01*
X80309600Y-108206689D01*
X80331401Y-107941463D01*
X80349525Y-107697540D01*
X80353209Y-107643457D01*
X80374134Y-107318517D01*
X80391873Y-107015614D01*
X80406658Y-106726926D01*
X80418720Y-106444634D01*
X80428292Y-106160918D01*
X80435605Y-105867958D01*
X80440891Y-105557933D01*
X80444383Y-105223024D01*
X80446311Y-104855410D01*
X80446904Y-104483363D01*
X80445713Y-103970913D01*
X80441646Y-103496933D01*
X80434346Y-103052260D01*
X80423455Y-102627729D01*
X80408616Y-102214179D01*
X80389470Y-101802445D01*
X80365660Y-101383364D01*
X80336829Y-100947773D01*
X80302619Y-100486508D01*
X80279612Y-100196696D01*
X80237588Y-99678292D01*
X80116946Y-99689985D01*
X79518015Y-99754932D01*
X78956777Y-99830747D01*
X78424065Y-99919400D01*
X77910710Y-100022862D01*
X77407543Y-100143105D01*
X76905395Y-100282100D01*
X76395098Y-100441817D01*
X76013392Y-100572197D01*
X75884695Y-100617505D01*
X75770068Y-100657717D01*
X75677785Y-100689940D01*
X75616119Y-100711283D01*
X75595126Y-100718353D01*
X75582027Y-100712588D01*
X75563053Y-100686293D01*
X75536736Y-100636061D01*
X75501608Y-100558488D01*
X75456200Y-100450168D01*
X75399045Y-100307695D01*
X75328673Y-100127663D01*
X75243616Y-99906666D01*
X75231417Y-99874786D01*
X75158271Y-99682291D01*
X75090825Y-99502426D01*
X75030950Y-99340362D01*
X74980518Y-99201270D01*
X74941400Y-99090321D01*
X74915469Y-99012685D01*
X74904596Y-98973535D01*
X74904378Y-98971196D01*
X74909536Y-98937821D01*
X74927914Y-98906338D01*
X74963874Y-98874633D01*
X75021774Y-98840594D01*
X75105976Y-98802105D01*
X75220838Y-98757054D01*
X75370720Y-98703326D01*
X75559984Y-98638809D01*
X75656432Y-98606601D01*
X76346495Y-98389128D01*
X77015326Y-98203618D01*
X77674681Y-98047582D01*
X78336317Y-97918529D01*
X79011989Y-97813969D01*
X79713455Y-97731413D01*
X79853205Y-97717764D01*
X79975458Y-97709001D01*
X80137608Y-97701624D01*
X80332632Y-97695635D01*
X80553508Y-97691037D01*
X80793214Y-97687833D01*
X81044727Y-97686024D01*
X81301026Y-97685612D01*
X81555088Y-97686600D01*
X81799891Y-97688991D01*
X82028414Y-97692785D01*
X82233632Y-97697987D01*
X82408525Y-97704597D01*
X82546071Y-97712619D01*
X82595928Y-97716888D01*
X82886186Y-97747120D01*
X83165094Y-97779481D01*
X83439854Y-97815112D01*
X83717665Y-97855152D01*
X84005728Y-97900742D01*
X84311242Y-97953022D01*
X84641409Y-98013133D01*
X85003428Y-98082213D01*
X85404499Y-98161405D01*
X85410200Y-98162545D01*
X85717241Y-98223460D01*
X85981467Y-98274658D01*
X86206628Y-98316759D01*
X86396473Y-98350389D01*
X86554753Y-98376168D01*
X86685218Y-98394719D01*
X86791617Y-98406666D01*
X86877701Y-98412631D01*
X86922213Y-98413597D01*
X86993746Y-98412402D01*
X87028206Y-98404492D01*
X87036219Y-98383382D01*
X87029664Y-98348011D01*
X86979993Y-98172201D01*
X86906160Y-97966069D01*
X86811577Y-97738217D01*
X86699652Y-97497247D01*
X86663278Y-97423832D01*
X86552762Y-97208564D01*
X86442592Y-97004185D01*
X86327711Y-96802204D01*
X86203063Y-96594134D01*
X86063594Y-96371486D01*
X85904247Y-96125771D01*
X85766189Y-95917554D01*
X85429124Y-95412965D01*
X86210490Y-94862289D01*
X86382222Y-94741519D01*
X86542554Y-94629268D01*
X86687134Y-94528546D01*
X86811609Y-94442362D01*
X86911627Y-94373725D01*
X86982836Y-94325647D01*
X87020883Y-94301135D01*
X87025390Y-94298743D01*
X87047144Y-94310918D01*
G37*
%TD*%
M02*
