M48
INCH,TZ
T1C0.0157
T2C0.0394
T3C0.0472
T4C0.0488
T5C0.1772
%
G90
G05
T1
X6614Y-30236
X7874Y-20236
X9685Y-8717
X10000Y-9055
X11024Y-39291
X13543Y-15118
X13780Y-15354
X14724Y-12992
X14724Y-13386
X14882Y-22835
X16457Y-24488
X16772Y-9921
X16772Y-17717
X17008Y-17480
X17008Y-24409
X17008Y-40000
X17087Y-9685
X17323Y-9291
X17559Y-30236
X17795Y-29449
X17953Y-28976
X18268Y-30394
X19921Y-23386
X21024Y-12598
X21024Y-12992
X21654Y-23465
X22047Y-39921
X23488Y-8898
X23780Y-23307
X24646Y-40157
X25118Y-11969
X25276Y-31024
X25354Y-24331
X25512Y-12126
X25669Y-6299
X25827Y-12992
X25827Y-13386
X27402Y-33465
X27874Y-34803
X29914Y-13148
X29921Y-16772
X30000Y-12756
X30378Y-8387
X30709Y-29528
X30808Y-28524
X31102Y-40236
X31181Y-25039
X31339Y-13465
X33150Y-25039
X33307Y-16299
X33527Y-24472
X33622Y-27559
X33858Y-22598
X34173Y-12441
X35100Y-16142
X35118Y-8976
X35433Y-28189
X36055Y-16850
X36446Y-21000
X36538Y-12601
X36929Y-9843
X36929Y-19921
X39134Y-40709
T2
X7425Y-23228
X7425Y-24228
X7425Y-25228
X7425Y-26228
X7425Y-27228
X7425Y-28228
X7425Y-29228
X7425Y-30228
X7425Y-31228
X7425Y-32228
X7425Y-33228
X7425Y-34228
X7425Y-35228
X7425Y-36228
X7425Y-37228
X7425Y-38228
X7425Y-39228
X7425Y-40228
X8425Y-23228
X8425Y-24228
X8425Y-25228
X8425Y-26228
X8425Y-27228
X8425Y-28228
X8425Y-29228
X8425Y-30228
X8425Y-31228
X8425Y-32228
X8425Y-33228
X8425Y-34228
X8425Y-35228
X8425Y-36228
X8425Y-37228
X8425Y-38228
X8425Y-39228
X8425Y-40228
X9921Y-20945
X9921Y-21945
X10000Y-41732
X10000Y-42732
X10921Y-20945
X10921Y-21945
X11000Y-41732
X11000Y-42732
X11921Y-20945
X11921Y-21945
X12000Y-41732
X12000Y-42732
X12921Y-20945
X12921Y-21945
X13000Y-41732
X13000Y-42732
X13921Y-20945
X13921Y-21945
X14000Y-41732
X14000Y-42732
X14921Y-20945
X14921Y-21945
X15000Y-41732
X15000Y-42732
X15921Y-20945
X15921Y-21945
X16000Y-41732
X16000Y-42732
X16921Y-20945
X16921Y-21945
X17000Y-41732
X17000Y-42732
X17921Y-20945
X17921Y-21945
X18000Y-41732
X18000Y-42732
X18921Y-20945
X18921Y-21945
X19000Y-41732
X19000Y-42732
X19921Y-20945
X19921Y-21945
X20000Y-41732
X20000Y-42732
X20921Y-20945
X20921Y-21945
X21000Y-41732
X21000Y-42732
X21921Y-20945
X21921Y-21945
X22000Y-41732
X22000Y-42732
X22921Y-20945
X22921Y-21945
X23000Y-41732
X23000Y-42732
X23921Y-20945
X23921Y-21945
X24000Y-41732
X24000Y-42732
X24921Y-20945
X24921Y-21945
X25000Y-41732
X25000Y-42732
X25921Y-20945
X25921Y-21945
X26000Y-41732
X26000Y-42732
X26921Y-20945
X26921Y-21945
X27000Y-41732
X27000Y-42732
X28528Y-23386
X28528Y-24386
X28528Y-25386
X28528Y-26386
X28528Y-27386
X28528Y-28386
X28528Y-29386
X28528Y-30386
X28528Y-31386
X28528Y-32386
X28528Y-33386
X28528Y-34386
X28528Y-35386
X28528Y-36386
X28528Y-37386
X28528Y-38386
X28528Y-39386
X28528Y-40386
X29528Y-23386
X29528Y-24386
X29528Y-25386
X29528Y-26386
X29528Y-27386
X29528Y-28386
X29528Y-29386
X29528Y-30386
X29528Y-31386
X29528Y-32386
X29528Y-33386
X29528Y-34386
X29528Y-35386
X29528Y-36386
X29528Y-37386
X29528Y-38386
X29528Y-39386
X29528Y-40386
X32173Y-12854
X32173Y-13854
X32173Y-14854
X32173Y-15854
X32173Y-16854
X32173Y-17854
X32173Y-18854
X32173Y-19854
X34173Y-13354
X34173Y-14354
X34173Y-15354
X34173Y-16354
X34173Y-17354
X34173Y-18354
X34173Y-19354
X39000Y-23500
X39000Y-24500
X39000Y-25500
X39000Y-26500
X39000Y-27500
X39000Y-28500
X39134Y-33465
X39134Y-34465
X39134Y-35465
X39134Y-36465
T3
X14622Y-7000
X16000Y-7000
X18110Y-7008
X19488Y-7008
X23488Y-7000
X24866Y-7000
X26244Y-7000
X27622Y-7000
X29000Y-7000
X30378Y-7000
X33110Y-7000
X34488Y-7000
X35866Y-7000
X37244Y-7000
X38622Y-7000
X39000Y-9976
X39000Y-11354
X39000Y-12732
X39000Y-14110
X39000Y-15488
X39000Y-16866
X39000Y-18244
X39000Y-19622
X39000Y-21000
X40000Y-7000
T4
X7000Y-16000
X7000Y-17000
X7000Y-18000
X11890Y-16000
X11890Y-17000
X11890Y-18000
X12000Y-10000
X12000Y-11000
X12000Y-12000
X19551Y-10315
X20551Y-10315
X21551Y-10315
T5
X6880Y-7583
X7000Y-10417
T0
M30
