%TF.GenerationSoftware,KiCad,Pcbnew,(7.0.0)*%
%TF.CreationDate,2023-04-06T04:01:54-05:00*%
%TF.ProjectId,finalproj,66696e61-6c70-4726-9f6a-2e6b69636164,rev?*%
%TF.SameCoordinates,Original*%
%TF.FileFunction,Copper,L2,Bot*%
%TF.FilePolarity,Positive*%
%FSLAX46Y46*%
G04 Gerber Fmt 4.6, Leading zero omitted, Abs format (unit mm)*
G04 Created by KiCad (PCBNEW (7.0.0)) date 2023-04-06 04:01:54*
%MOMM*%
%LPD*%
G01*
G04 APERTURE LIST*
%TA.AperFunction,ComponentPad*%
%ADD10R,6.000000X6.000000*%
%TD*%
%TA.AperFunction,ComponentPad*%
%ADD11C,6.000000*%
%TD*%
%TA.AperFunction,ComponentPad*%
%ADD12R,1.800000X1.800000*%
%TD*%
%TA.AperFunction,ComponentPad*%
%ADD13O,1.800000X1.800000*%
%TD*%
%TA.AperFunction,ComponentPad*%
%ADD14R,1.860000X1.860000*%
%TD*%
%TA.AperFunction,ComponentPad*%
%ADD15C,1.860000*%
%TD*%
%TA.AperFunction,ComponentPad*%
%ADD16R,2.400000X2.400000*%
%TD*%
%TA.AperFunction,ComponentPad*%
%ADD17C,2.400000*%
%TD*%
%TA.AperFunction,ComponentPad*%
%ADD18R,1.700000X1.700000*%
%TD*%
%TA.AperFunction,ComponentPad*%
%ADD19O,1.700000X1.700000*%
%TD*%
%TA.AperFunction,ComponentPad*%
%ADD20C,2.000000*%
%TD*%
G04 APERTURE END LIST*
D10*
%TO.P,POW1,1,Pin_1*%
%TO.N,EXT_GND*%
X19999999Y-27999999D03*
D11*
%TO.P,POW1,2,Pin_2*%
%TO.N,BATTERY_VIN*%
X19695000Y-20800000D03*
%TD*%
D12*
%TO.P,U5,1,SENSE_A*%
%TO.N,EXT_GND*%
X91569999Y-31919999D03*
D13*
%TO.P,U5,2,OUT1*%
%TO.N,MotorOutA1*%
X90299999Y-36999999D03*
%TO.P,U5,3,OUT2*%
%TO.N,MotorOutA2*%
X89029999Y-31919999D03*
%TO.P,U5,4,Vs*%
%TO.N,EXT_5*%
X87759999Y-36999999D03*
%TO.P,U5,5,IN1*%
%TO.N,MotorAIn1*%
X86489999Y-31919999D03*
%TO.P,U5,6,EnA*%
%TO.N,MotorAPWM*%
X85219999Y-36999999D03*
%TO.P,U5,7,IN2*%
%TO.N,MotorAIn2*%
X83949999Y-31919999D03*
%TO.P,U5,8,GND*%
%TO.N,EXT_GND*%
X82679999Y-36999999D03*
%TO.P,U5,9,Vss*%
%TO.N,EXT_12*%
X81409999Y-31919999D03*
%TO.P,U5,10,IN3*%
%TO.N,MotorBIn1*%
X80139999Y-36999999D03*
%TO.P,U5,11,EnB*%
%TO.N,MotorBPWM*%
X78869999Y-31919999D03*
%TO.P,U5,12,IN4*%
%TO.N,MotorBIn2*%
X77599999Y-36999999D03*
%TO.P,U5,13,OUT3*%
%TO.N,MotorOutB1*%
X76329999Y-31919999D03*
%TO.P,U5,14,OUT4*%
%TO.N,MotorOutB2*%
X75059999Y-36999999D03*
%TO.P,U5,15,SENSE_B*%
%TO.N,EXT_GND*%
X73789999Y-31919999D03*
%TD*%
D14*
%TO.P,U4,1,GND*%
%TO.N,Net-(U4-GND)*%
X26319999Y-42999999D03*
D15*
%TO.P,U4,2,VO*%
%TO.N,EXT_3.3*%
X28860000Y-43000000D03*
%TO.P,U4,3,VI*%
%TO.N,BATTERY_VIN*%
X31400000Y-43000000D03*
%TD*%
D14*
%TO.P,U3,1,GND*%
%TO.N,Net-(U3-GND)*%
X40919999Y-42999999D03*
D15*
%TO.P,U3,2,VO*%
%TO.N,EXT_5*%
X43460000Y-43000000D03*
%TO.P,U3,3,VI*%
%TO.N,BATTERY_VIN*%
X46000000Y-43000000D03*
%TD*%
D14*
%TO.P,U2,1,GND*%
%TO.N,Net-(U2-GND)*%
X54319999Y-30399999D03*
D15*
%TO.P,U2,2,VO*%
%TO.N,EXT_12*%
X56860000Y-30400000D03*
%TO.P,U2,3,VI*%
%TO.N,BATTERY_VIN*%
X59400000Y-30400000D03*
%TD*%
D14*
%TO.P,U1,1,GND*%
%TO.N,Net-(U1-GND)*%
X54519999Y-18999999D03*
D15*
%TO.P,U1,2,VO*%
%TO.N,12V_IC*%
X57060000Y-19000000D03*
%TO.P,U1,3,VI*%
%TO.N,BATTERY_VIN*%
X59600000Y-19000000D03*
%TD*%
D16*
%TO.P,POW3,1,VIN*%
%TO.N,EXT_12*%
X105799999Y-87399999D03*
D17*
%TO.P,POW3,2,GND*%
%TO.N,EXT_GND*%
X105800000Y-83900000D03*
%TD*%
D16*
%TO.P,POW2,1,VIN*%
%TO.N,12V_IC*%
X71999999Y-17999999D03*
D17*
%TO.P,POW2,2,GND*%
%TO.N,EXT_GND*%
X68500000Y-18000000D03*
%TD*%
D16*
%TO.P,J11,1,Power+*%
%TO.N,MotorOutB1*%
X97749999Y-18499999D03*
D17*
%TO.P,J11,2,Encoder_Power-*%
%TO.N,EXT_GND*%
X94250000Y-18500000D03*
%TO.P,J11,3,Signal_Feedback*%
%TO.N,EncoderBFeedback1*%
X90750000Y-18500000D03*
%TO.P,J11,4,Signal_Feedback*%
%TO.N,EncoderBFeedback2*%
X87250000Y-18500000D03*
%TO.P,J11,5,Encoder_Power+*%
%TO.N,EXT_5*%
X83750000Y-18500000D03*
%TO.P,J11,6,Power-*%
%TO.N,MotorOutB2*%
X80250000Y-18500000D03*
%TD*%
D16*
%TO.P,J10,1,Power+*%
%TO.N,MotorOutA1*%
X105599999Y-42599999D03*
D17*
%TO.P,J10,2,Encoder_Power-*%
%TO.N,EXT_GND*%
X105600000Y-39100000D03*
%TO.P,J10,3,Signal_Feedback*%
%TO.N,EncoderAFeedback1*%
X105600000Y-35600000D03*
%TO.P,J10,4,Signal_Feedback*%
%TO.N,EncoderAFeedback2*%
X105600000Y-32100000D03*
%TO.P,J10,5,Encoder_Power+*%
%TO.N,EXT_5*%
X105600000Y-28600000D03*
%TO.P,J10,6,Power-*%
%TO.N,MotorOutA2*%
X105600000Y-25100000D03*
%TD*%
D18*
%TO.P,J9,1,VIN*%
%TO.N,EXT_5*%
X101779999Y-93199999D03*
D19*
%TO.P,J9,2,TX*%
%TO.N,RPI_UART_TX*%
X104319999Y-93199999D03*
%TO.P,J9,3,RX*%
%TO.N,RPI_UART_RX*%
X106859999Y-93199999D03*
%TO.P,J9,4,GND*%
%TO.N,EXT_GND*%
X109399999Y-93199999D03*
%TD*%
D18*
%TO.P,J7,1,POWER_IN*%
%TO.N,EXT_5*%
X96779999Y-97199999D03*
D19*
%TO.P,J7,2,POWER_EN*%
%TO.N,EXT_GND*%
X99319999Y-97199999D03*
%TO.P,J7,3,MODE*%
X101859999Y-97199999D03*
%TO.P,J7,4,SCL*%
%TO.N,LIDAR_SCL*%
X104399999Y-97199999D03*
%TO.P,J7,5,SDA*%
%TO.N,LIDAR_SDA*%
X106939999Y-97199999D03*
%TO.P,J7,6,GND*%
%TO.N,EXT_GND*%
X109479999Y-97199999D03*
%TD*%
D16*
%TO.P,J5,1,IOREF*%
%TO.N,EXT_5*%
X105599999Y-78799999D03*
D17*
%TO.P,J5,2,GND*%
%TO.N,EXT_GND*%
X105600000Y-75300000D03*
%TO.P,J5,3,MODE*%
%TO.N,unconnected-(J5-MODE-Pad3)*%
X105600000Y-71800000D03*
%TO.P,J5,4,MODE*%
%TO.N,unconnected-(J5-MODE-Pad4)*%
X105600000Y-68300000D03*
%TO.P,J5,5,MODE*%
%TO.N,unconnected-(J5-MODE-Pad5)*%
X105600000Y-64800000D03*
%TO.P,J5,6,DIR*%
%TO.N,STEP_DIR*%
X105600000Y-61300000D03*
%TO.P,J5,7,STEP*%
%TO.N,STEP_PWM*%
X105600000Y-57800000D03*
%TO.P,J5,8,NSTANDBY*%
%TO.N,EXT_5*%
X105600000Y-54300000D03*
%TO.P,J5,9,ENB*%
X105600000Y-50800000D03*
%TD*%
D20*
%TO.P,SW3,1,1*%
%TO.N,NRST*%
X16750000Y-74550000D03*
X16750000Y-81050000D03*
%TO.P,SW3,2,2*%
%TO.N,EXT_GND*%
X21250000Y-74550000D03*
X21250000Y-81050000D03*
%TD*%
D18*
%TO.P,J6,1,Pin_1*%
%TO.N,EXT_GND*%
X15399999Y-50399999D03*
%TD*%
%TO.P,J4,1,Pin_1*%
%TO.N,EXT_3.3*%
X20199999Y-56459999D03*
D19*
%TO.P,J4,2,Pin_2*%
%TO.N,SWCLK*%
X20199999Y-58999999D03*
%TO.P,J4,3,Pin_3*%
%TO.N,EXT_GND*%
X20199999Y-61539999D03*
%TO.P,J4,4,Pin_4*%
%TO.N,SWDIO*%
X20199999Y-64079999D03*
%TO.P,J4,5,Pin_5*%
%TO.N,NRST*%
X20199999Y-66619999D03*
%TO.P,J4,6,Pin_6*%
%TO.N,SWO*%
X20199999Y-69159999D03*
%TD*%
D18*
%TO.P,J3,1,Pin_1*%
%TO.N,EXT_3.3*%
X15399999Y-46799999D03*
%TD*%
%TO.P,J2,1,Pin_1*%
%TO.N,EXT_5*%
X15399999Y-43199999D03*
%TD*%
%TO.P,J1,1,Pin_1*%
%TO.N,EXT_12*%
X15399999Y-39399999D03*
%TD*%
%TA.AperFunction,Conductor*%
%TO.N,EXT_GND*%
G36*
X111437500Y-12717113D02*
G01*
X111482887Y-12762500D01*
X111499500Y-12824500D01*
X111499500Y-111575500D01*
X111482887Y-111637500D01*
X111437500Y-111682887D01*
X111375500Y-111699500D01*
X13024500Y-111699500D01*
X12962500Y-111682887D01*
X12917113Y-111637500D01*
X12900500Y-111575500D01*
X12900500Y-98098638D01*
X95421500Y-98098638D01*
X95428011Y-98159201D01*
X95430717Y-98166458D01*
X95430719Y-98166463D01*
X95476011Y-98287894D01*
X95479111Y-98296204D01*
X95566739Y-98413261D01*
X95683796Y-98500889D01*
X95820799Y-98551989D01*
X95881362Y-98558500D01*
X97675328Y-98558500D01*
X97678638Y-98558500D01*
X97739201Y-98551989D01*
X97876204Y-98500889D01*
X97993261Y-98413261D01*
X98080889Y-98296204D01*
X98129222Y-98166617D01*
X98164200Y-98116240D01*
X98219045Y-98088787D01*
X98280338Y-98090976D01*
X98333084Y-98122272D01*
X98445090Y-98234278D01*
X98453356Y-98241215D01*
X98637991Y-98370498D01*
X98647323Y-98375886D01*
X98851602Y-98471143D01*
X98861736Y-98474831D01*
X99056219Y-98526943D01*
X99067448Y-98527311D01*
X99070000Y-98516369D01*
X99570000Y-98516369D01*
X99572551Y-98527311D01*
X99583780Y-98526943D01*
X99778263Y-98474831D01*
X99788397Y-98471143D01*
X99992676Y-98375886D01*
X100002008Y-98370498D01*
X100186643Y-98241215D01*
X100194909Y-98234278D01*
X100354278Y-98074909D01*
X100361215Y-98066643D01*
X100488425Y-97884969D01*
X100532743Y-97846104D01*
X100590000Y-97832093D01*
X100647257Y-97846104D01*
X100691575Y-97884969D01*
X100818784Y-98066643D01*
X100825721Y-98074909D01*
X100985090Y-98234278D01*
X100993356Y-98241215D01*
X101177991Y-98370498D01*
X101187323Y-98375886D01*
X101391602Y-98471143D01*
X101401736Y-98474831D01*
X101596219Y-98526943D01*
X101607448Y-98527311D01*
X101610000Y-98516369D01*
X102110000Y-98516369D01*
X102112551Y-98527311D01*
X102123780Y-98526943D01*
X102318263Y-98474831D01*
X102328397Y-98471143D01*
X102532676Y-98375886D01*
X102542008Y-98370498D01*
X102726643Y-98241215D01*
X102734909Y-98234278D01*
X102894278Y-98074909D01*
X102901219Y-98066638D01*
X103024868Y-97890049D01*
X103070072Y-97850726D01*
X103128436Y-97837188D01*
X103186335Y-97852595D01*
X103230252Y-97893351D01*
X103321470Y-98032972D01*
X103321478Y-98032982D01*
X103324278Y-98037268D01*
X103327752Y-98041041D01*
X103327753Y-98041043D01*
X103473288Y-98199135D01*
X103473291Y-98199138D01*
X103476760Y-98202906D01*
X103480801Y-98206051D01*
X103650376Y-98338039D01*
X103650381Y-98338042D01*
X103654424Y-98341189D01*
X103658931Y-98343628D01*
X103658934Y-98343630D01*
X103847919Y-98445903D01*
X103852426Y-98448342D01*
X104065365Y-98521444D01*
X104287431Y-98558500D01*
X104507436Y-98558500D01*
X104512569Y-98558500D01*
X104734635Y-98521444D01*
X104947574Y-98448342D01*
X105145576Y-98341189D01*
X105323240Y-98202906D01*
X105475722Y-98037268D01*
X105566190Y-97898795D01*
X105610982Y-97857561D01*
X105670000Y-97842616D01*
X105729018Y-97857561D01*
X105773809Y-97898795D01*
X105861470Y-98032972D01*
X105861478Y-98032982D01*
X105864278Y-98037268D01*
X105867752Y-98041041D01*
X105867753Y-98041043D01*
X106013288Y-98199135D01*
X106013291Y-98199138D01*
X106016760Y-98202906D01*
X106020801Y-98206051D01*
X106190376Y-98338039D01*
X106190381Y-98338042D01*
X106194424Y-98341189D01*
X106198931Y-98343628D01*
X106198934Y-98343630D01*
X106387919Y-98445903D01*
X106392426Y-98448342D01*
X106605365Y-98521444D01*
X106827431Y-98558500D01*
X107047436Y-98558500D01*
X107052569Y-98558500D01*
X107274635Y-98521444D01*
X107487574Y-98448342D01*
X107685576Y-98341189D01*
X107863240Y-98202906D01*
X108015722Y-98037268D01*
X108109748Y-97893349D01*
X108153663Y-97852595D01*
X108211562Y-97837188D01*
X108269927Y-97850726D01*
X108315131Y-97890048D01*
X108438784Y-98066643D01*
X108445721Y-98074909D01*
X108605090Y-98234278D01*
X108613356Y-98241215D01*
X108797991Y-98370498D01*
X108807323Y-98375886D01*
X109011602Y-98471143D01*
X109021736Y-98474831D01*
X109216219Y-98526943D01*
X109227448Y-98527311D01*
X109230000Y-98516369D01*
X109730000Y-98516369D01*
X109732551Y-98527311D01*
X109743780Y-98526943D01*
X109938263Y-98474831D01*
X109948397Y-98471143D01*
X110152676Y-98375886D01*
X110162008Y-98370498D01*
X110346643Y-98241215D01*
X110354909Y-98234278D01*
X110514278Y-98074909D01*
X110521215Y-98066643D01*
X110650498Y-97882008D01*
X110655886Y-97872676D01*
X110751143Y-97668397D01*
X110754831Y-97658263D01*
X110806943Y-97463780D01*
X110807311Y-97452551D01*
X110796369Y-97450000D01*
X109746326Y-97450000D01*
X109733450Y-97453450D01*
X109730000Y-97466326D01*
X109730000Y-98516369D01*
X109230000Y-98516369D01*
X109230000Y-96933674D01*
X109730000Y-96933674D01*
X109733450Y-96946549D01*
X109746326Y-96950000D01*
X110796369Y-96950000D01*
X110807311Y-96947448D01*
X110806943Y-96936219D01*
X110754831Y-96741736D01*
X110751143Y-96731602D01*
X110655889Y-96527332D01*
X110650491Y-96517982D01*
X110521215Y-96333357D01*
X110514280Y-96325092D01*
X110354909Y-96165721D01*
X110346643Y-96158784D01*
X110162008Y-96029501D01*
X110152676Y-96024113D01*
X109948397Y-95928856D01*
X109938263Y-95925168D01*
X109743780Y-95873056D01*
X109732551Y-95872688D01*
X109730000Y-95883631D01*
X109730000Y-96933674D01*
X109230000Y-96933674D01*
X109230000Y-95883631D01*
X109227448Y-95872688D01*
X109216219Y-95873056D01*
X109021736Y-95925168D01*
X109011602Y-95928856D01*
X108807332Y-96024110D01*
X108797982Y-96029508D01*
X108613357Y-96158784D01*
X108605092Y-96165719D01*
X108445719Y-96325092D01*
X108438788Y-96333352D01*
X108315132Y-96509952D01*
X108269928Y-96549274D01*
X108211564Y-96562812D01*
X108153665Y-96547405D01*
X108109748Y-96506649D01*
X108018529Y-96367027D01*
X108018523Y-96367019D01*
X108015722Y-96362732D01*
X107966279Y-96309023D01*
X107866711Y-96200864D01*
X107866708Y-96200861D01*
X107863240Y-96197094D01*
X107850597Y-96187253D01*
X107689623Y-96061960D01*
X107689615Y-96061955D01*
X107685576Y-96058811D01*
X107681071Y-96056373D01*
X107681065Y-96056369D01*
X107492080Y-95954096D01*
X107492074Y-95954093D01*
X107487574Y-95951658D01*
X107482733Y-95949996D01*
X107482726Y-95949993D01*
X107279488Y-95880222D01*
X107279487Y-95880221D01*
X107274635Y-95878556D01*
X107269585Y-95877713D01*
X107269576Y-95877711D01*
X107057631Y-95842344D01*
X107057622Y-95842343D01*
X107052569Y-95841500D01*
X106827431Y-95841500D01*
X106822378Y-95842343D01*
X106822368Y-95842344D01*
X106610423Y-95877711D01*
X106610411Y-95877713D01*
X106605365Y-95878556D01*
X106600515Y-95880220D01*
X106600511Y-95880222D01*
X106397273Y-95949993D01*
X106397262Y-95949997D01*
X106392426Y-95951658D01*
X106387929Y-95954091D01*
X106387919Y-95954096D01*
X106198934Y-96056369D01*
X106198922Y-96056376D01*
X106194424Y-96058811D01*
X106190389Y-96061951D01*
X106190376Y-96061960D01*
X106020801Y-96193948D01*
X106020795Y-96193952D01*
X106016760Y-96197094D01*
X106013297Y-96200855D01*
X106013288Y-96200864D01*
X105867753Y-96358956D01*
X105867747Y-96358963D01*
X105864278Y-96362732D01*
X105861481Y-96367012D01*
X105861474Y-96367022D01*
X105773809Y-96501205D01*
X105729017Y-96542438D01*
X105670000Y-96557383D01*
X105610983Y-96542438D01*
X105566191Y-96501205D01*
X105478525Y-96367022D01*
X105478523Y-96367020D01*
X105475722Y-96362732D01*
X105426279Y-96309023D01*
X105326711Y-96200864D01*
X105326708Y-96200861D01*
X105323240Y-96197094D01*
X105310597Y-96187253D01*
X105149623Y-96061960D01*
X105149615Y-96061955D01*
X105145576Y-96058811D01*
X105141071Y-96056373D01*
X105141065Y-96056369D01*
X104952080Y-95954096D01*
X104952074Y-95954093D01*
X104947574Y-95951658D01*
X104942733Y-95949996D01*
X104942726Y-95949993D01*
X104739488Y-95880222D01*
X104739487Y-95880221D01*
X104734635Y-95878556D01*
X104729585Y-95877713D01*
X104729576Y-95877711D01*
X104517631Y-95842344D01*
X104517622Y-95842343D01*
X104512569Y-95841500D01*
X104287431Y-95841500D01*
X104282378Y-95842343D01*
X104282368Y-95842344D01*
X104070423Y-95877711D01*
X104070411Y-95877713D01*
X104065365Y-95878556D01*
X104060515Y-95880220D01*
X104060511Y-95880222D01*
X103857273Y-95949993D01*
X103857262Y-95949997D01*
X103852426Y-95951658D01*
X103847929Y-95954091D01*
X103847919Y-95954096D01*
X103658934Y-96056369D01*
X103658922Y-96056376D01*
X103654424Y-96058811D01*
X103650389Y-96061951D01*
X103650376Y-96061960D01*
X103480801Y-96193948D01*
X103480795Y-96193952D01*
X103476760Y-96197094D01*
X103473297Y-96200855D01*
X103473288Y-96200864D01*
X103327753Y-96358956D01*
X103327747Y-96358963D01*
X103324278Y-96362732D01*
X103321480Y-96367014D01*
X103321468Y-96367030D01*
X103230250Y-96506650D01*
X103186334Y-96547405D01*
X103128435Y-96562812D01*
X103070071Y-96549274D01*
X103024867Y-96509951D01*
X102901215Y-96333357D01*
X102894280Y-96325092D01*
X102734909Y-96165721D01*
X102726643Y-96158784D01*
X102542008Y-96029501D01*
X102532676Y-96024113D01*
X102328397Y-95928856D01*
X102318263Y-95925168D01*
X102123780Y-95873056D01*
X102112551Y-95872688D01*
X102110000Y-95883631D01*
X102110000Y-98516369D01*
X101610000Y-98516369D01*
X101610000Y-97466326D01*
X101606549Y-97453450D01*
X101593674Y-97450000D01*
X99586326Y-97450000D01*
X99573450Y-97453450D01*
X99570000Y-97466326D01*
X99570000Y-98516369D01*
X99070000Y-98516369D01*
X99070000Y-96933674D01*
X99570000Y-96933674D01*
X99573450Y-96946549D01*
X99586326Y-96950000D01*
X101593674Y-96950000D01*
X101606549Y-96946549D01*
X101610000Y-96933674D01*
X101610000Y-95883631D01*
X101607448Y-95872688D01*
X101596219Y-95873056D01*
X101401736Y-95925168D01*
X101391602Y-95928856D01*
X101187332Y-96024110D01*
X101177982Y-96029508D01*
X100993357Y-96158784D01*
X100985092Y-96165719D01*
X100825719Y-96325092D01*
X100818788Y-96333352D01*
X100691575Y-96515032D01*
X100647257Y-96553897D01*
X100590000Y-96567908D01*
X100532743Y-96553897D01*
X100488425Y-96515032D01*
X100361211Y-96333352D01*
X100354280Y-96325092D01*
X100194909Y-96165721D01*
X100186643Y-96158784D01*
X100002008Y-96029501D01*
X99992676Y-96024113D01*
X99788397Y-95928856D01*
X99778263Y-95925168D01*
X99583780Y-95873056D01*
X99572551Y-95872688D01*
X99570000Y-95883631D01*
X99570000Y-96933674D01*
X99070000Y-96933674D01*
X99070000Y-95883631D01*
X99067448Y-95872688D01*
X99056219Y-95873056D01*
X98861736Y-95925168D01*
X98851602Y-95928856D01*
X98647332Y-96024110D01*
X98637982Y-96029508D01*
X98453357Y-96158784D01*
X98445098Y-96165714D01*
X98333084Y-96277728D01*
X98280337Y-96309023D01*
X98219045Y-96311212D01*
X98164200Y-96283759D01*
X98129221Y-96233379D01*
X98115687Y-96197094D01*
X98080889Y-96103796D01*
X97993261Y-95986739D01*
X97946398Y-95951658D01*
X97883304Y-95904426D01*
X97883303Y-95904425D01*
X97876204Y-95899111D01*
X97867896Y-95896012D01*
X97867894Y-95896011D01*
X97746463Y-95850719D01*
X97746458Y-95850717D01*
X97739201Y-95848011D01*
X97731497Y-95847182D01*
X97731494Y-95847182D01*
X97681924Y-95841853D01*
X97681918Y-95841852D01*
X97678638Y-95841500D01*
X95881362Y-95841500D01*
X95878082Y-95841852D01*
X95878075Y-95841853D01*
X95828505Y-95847182D01*
X95828500Y-95847182D01*
X95820799Y-95848011D01*
X95813543Y-95850717D01*
X95813536Y-95850719D01*
X95692105Y-95896011D01*
X95692099Y-95896013D01*
X95683796Y-95899111D01*
X95676698Y-95904423D01*
X95676695Y-95904426D01*
X95573835Y-95981426D01*
X95573831Y-95981429D01*
X95566739Y-95986739D01*
X95561429Y-95993831D01*
X95561426Y-95993835D01*
X95484426Y-96096695D01*
X95484423Y-96096698D01*
X95479111Y-96103796D01*
X95476013Y-96112099D01*
X95476011Y-96112105D01*
X95430719Y-96233536D01*
X95430717Y-96233543D01*
X95428011Y-96240799D01*
X95427182Y-96248500D01*
X95427182Y-96248505D01*
X95423392Y-96283759D01*
X95421500Y-96301362D01*
X95421500Y-98098638D01*
X12900500Y-98098638D01*
X12900500Y-94098638D01*
X100421500Y-94098638D01*
X100421852Y-94101918D01*
X100421853Y-94101924D01*
X100424191Y-94123676D01*
X100428011Y-94159201D01*
X100430717Y-94166458D01*
X100430719Y-94166463D01*
X100476011Y-94287894D01*
X100479111Y-94296204D01*
X100566739Y-94413261D01*
X100683796Y-94500889D01*
X100820799Y-94551989D01*
X100881362Y-94558500D01*
X102675328Y-94558500D01*
X102678638Y-94558500D01*
X102739201Y-94551989D01*
X102876204Y-94500889D01*
X102993261Y-94413261D01*
X103080889Y-94296204D01*
X103126137Y-94174889D01*
X103162089Y-94123676D01*
X103218470Y-94096538D01*
X103280925Y-94100386D01*
X103333548Y-94134240D01*
X103393288Y-94199135D01*
X103393291Y-94199138D01*
X103396760Y-94202906D01*
X103400801Y-94206051D01*
X103570376Y-94338039D01*
X103570381Y-94338042D01*
X103574424Y-94341189D01*
X103578931Y-94343628D01*
X103578934Y-94343630D01*
X103767919Y-94445903D01*
X103772426Y-94448342D01*
X103985365Y-94521444D01*
X104207431Y-94558500D01*
X104427436Y-94558500D01*
X104432569Y-94558500D01*
X104654635Y-94521444D01*
X104867574Y-94448342D01*
X105065576Y-94341189D01*
X105243240Y-94202906D01*
X105395722Y-94037268D01*
X105486190Y-93898795D01*
X105530982Y-93857561D01*
X105590000Y-93842616D01*
X105649018Y-93857561D01*
X105693809Y-93898795D01*
X105781470Y-94032972D01*
X105781478Y-94032982D01*
X105784278Y-94037268D01*
X105787752Y-94041041D01*
X105787753Y-94041043D01*
X105933288Y-94199135D01*
X105933291Y-94199138D01*
X105936760Y-94202906D01*
X105940801Y-94206051D01*
X106110376Y-94338039D01*
X106110381Y-94338042D01*
X106114424Y-94341189D01*
X106118931Y-94343628D01*
X106118934Y-94343630D01*
X106307919Y-94445903D01*
X106312426Y-94448342D01*
X106525365Y-94521444D01*
X106747431Y-94558500D01*
X106967436Y-94558500D01*
X106972569Y-94558500D01*
X107194635Y-94521444D01*
X107407574Y-94448342D01*
X107605576Y-94341189D01*
X107783240Y-94202906D01*
X107935722Y-94037268D01*
X108029748Y-93893349D01*
X108073663Y-93852595D01*
X108131562Y-93837188D01*
X108189927Y-93850726D01*
X108235131Y-93890048D01*
X108358784Y-94066643D01*
X108365721Y-94074909D01*
X108525090Y-94234278D01*
X108533356Y-94241215D01*
X108717991Y-94370498D01*
X108727323Y-94375886D01*
X108931602Y-94471143D01*
X108941736Y-94474831D01*
X109136219Y-94526943D01*
X109147448Y-94527311D01*
X109150000Y-94516369D01*
X109650000Y-94516369D01*
X109652551Y-94527311D01*
X109663780Y-94526943D01*
X109858263Y-94474831D01*
X109868397Y-94471143D01*
X110072676Y-94375886D01*
X110082008Y-94370498D01*
X110266643Y-94241215D01*
X110274909Y-94234278D01*
X110434278Y-94074909D01*
X110441215Y-94066643D01*
X110570498Y-93882008D01*
X110575886Y-93872676D01*
X110671143Y-93668397D01*
X110674831Y-93658263D01*
X110726943Y-93463780D01*
X110727311Y-93452551D01*
X110716369Y-93450000D01*
X109666326Y-93450000D01*
X109653450Y-93453450D01*
X109650000Y-93466326D01*
X109650000Y-94516369D01*
X109150000Y-94516369D01*
X109150000Y-92933674D01*
X109650000Y-92933674D01*
X109653450Y-92946549D01*
X109666326Y-92950000D01*
X110716369Y-92950000D01*
X110727311Y-92947448D01*
X110726943Y-92936219D01*
X110674831Y-92741736D01*
X110671143Y-92731602D01*
X110575889Y-92527332D01*
X110570491Y-92517982D01*
X110441215Y-92333357D01*
X110434280Y-92325092D01*
X110274909Y-92165721D01*
X110266643Y-92158784D01*
X110082008Y-92029501D01*
X110072676Y-92024113D01*
X109868397Y-91928856D01*
X109858263Y-91925168D01*
X109663780Y-91873056D01*
X109652551Y-91872688D01*
X109650000Y-91883631D01*
X109650000Y-92933674D01*
X109150000Y-92933674D01*
X109150000Y-91883631D01*
X109147448Y-91872688D01*
X109136219Y-91873056D01*
X108941736Y-91925168D01*
X108931602Y-91928856D01*
X108727332Y-92024110D01*
X108717982Y-92029508D01*
X108533357Y-92158784D01*
X108525092Y-92165719D01*
X108365719Y-92325092D01*
X108358788Y-92333352D01*
X108235132Y-92509952D01*
X108189928Y-92549274D01*
X108131564Y-92562812D01*
X108073665Y-92547405D01*
X108029748Y-92506649D01*
X107938529Y-92367027D01*
X107938523Y-92367019D01*
X107935722Y-92362732D01*
X107901072Y-92325092D01*
X107786711Y-92200864D01*
X107786706Y-92200859D01*
X107783240Y-92197094D01*
X107770597Y-92187253D01*
X107609623Y-92061960D01*
X107609615Y-92061955D01*
X107605576Y-92058811D01*
X107601071Y-92056373D01*
X107601065Y-92056369D01*
X107412080Y-91954096D01*
X107412074Y-91954093D01*
X107407574Y-91951658D01*
X107402733Y-91949996D01*
X107402726Y-91949993D01*
X107199488Y-91880222D01*
X107199487Y-91880221D01*
X107194635Y-91878556D01*
X107189585Y-91877713D01*
X107189576Y-91877711D01*
X106977631Y-91842344D01*
X106977622Y-91842343D01*
X106972569Y-91841500D01*
X106747431Y-91841500D01*
X106742378Y-91842343D01*
X106742368Y-91842344D01*
X106530423Y-91877711D01*
X106530411Y-91877713D01*
X106525365Y-91878556D01*
X106520515Y-91880220D01*
X106520511Y-91880222D01*
X106317273Y-91949993D01*
X106317262Y-91949997D01*
X106312426Y-91951658D01*
X106307929Y-91954091D01*
X106307919Y-91954096D01*
X106118934Y-92056369D01*
X106118922Y-92056376D01*
X106114424Y-92058811D01*
X106110389Y-92061951D01*
X106110376Y-92061960D01*
X105940801Y-92193948D01*
X105940795Y-92193952D01*
X105936760Y-92197094D01*
X105933297Y-92200855D01*
X105933288Y-92200864D01*
X105787753Y-92358956D01*
X105787747Y-92358963D01*
X105784278Y-92362732D01*
X105781481Y-92367012D01*
X105781474Y-92367022D01*
X105693809Y-92501205D01*
X105649017Y-92542438D01*
X105590000Y-92557383D01*
X105530983Y-92542438D01*
X105486191Y-92501205D01*
X105398525Y-92367022D01*
X105398523Y-92367020D01*
X105395722Y-92362732D01*
X105361072Y-92325092D01*
X105246711Y-92200864D01*
X105246706Y-92200859D01*
X105243240Y-92197094D01*
X105230597Y-92187253D01*
X105069623Y-92061960D01*
X105069615Y-92061955D01*
X105065576Y-92058811D01*
X105061071Y-92056373D01*
X105061065Y-92056369D01*
X104872080Y-91954096D01*
X104872074Y-91954093D01*
X104867574Y-91951658D01*
X104862733Y-91949996D01*
X104862726Y-91949993D01*
X104659488Y-91880222D01*
X104659487Y-91880221D01*
X104654635Y-91878556D01*
X104649585Y-91877713D01*
X104649576Y-91877711D01*
X104437631Y-91842344D01*
X104437622Y-91842343D01*
X104432569Y-91841500D01*
X104207431Y-91841500D01*
X104202378Y-91842343D01*
X104202368Y-91842344D01*
X103990423Y-91877711D01*
X103990411Y-91877713D01*
X103985365Y-91878556D01*
X103980515Y-91880220D01*
X103980511Y-91880222D01*
X103777273Y-91949993D01*
X103777262Y-91949997D01*
X103772426Y-91951658D01*
X103767929Y-91954091D01*
X103767919Y-91954096D01*
X103578934Y-92056369D01*
X103578922Y-92056376D01*
X103574424Y-92058811D01*
X103570389Y-92061951D01*
X103570376Y-92061960D01*
X103400801Y-92193948D01*
X103400795Y-92193952D01*
X103396760Y-92197094D01*
X103393294Y-92200858D01*
X103393294Y-92200859D01*
X103333548Y-92265760D01*
X103280924Y-92299613D01*
X103218470Y-92303461D01*
X103162089Y-92276323D01*
X103126137Y-92225110D01*
X103115687Y-92197094D01*
X103080889Y-92103796D01*
X102993261Y-91986739D01*
X102946398Y-91951658D01*
X102883304Y-91904426D01*
X102883303Y-91904425D01*
X102876204Y-91899111D01*
X102867896Y-91896012D01*
X102867894Y-91896011D01*
X102746463Y-91850719D01*
X102746458Y-91850717D01*
X102739201Y-91848011D01*
X102731497Y-91847182D01*
X102731494Y-91847182D01*
X102681924Y-91841853D01*
X102681918Y-91841852D01*
X102678638Y-91841500D01*
X100881362Y-91841500D01*
X100878082Y-91841852D01*
X100878075Y-91841853D01*
X100828505Y-91847182D01*
X100828500Y-91847182D01*
X100820799Y-91848011D01*
X100813543Y-91850717D01*
X100813536Y-91850719D01*
X100692105Y-91896011D01*
X100692099Y-91896013D01*
X100683796Y-91899111D01*
X100676698Y-91904423D01*
X100676695Y-91904426D01*
X100573835Y-91981426D01*
X100573831Y-91981429D01*
X100566739Y-91986739D01*
X100561429Y-91993831D01*
X100561426Y-91993835D01*
X100484426Y-92096695D01*
X100484423Y-92096698D01*
X100479111Y-92103796D01*
X100476013Y-92112099D01*
X100476011Y-92112105D01*
X100430719Y-92233536D01*
X100430717Y-92233543D01*
X100428011Y-92240799D01*
X100427182Y-92248500D01*
X100427182Y-92248505D01*
X100421853Y-92298075D01*
X100421500Y-92301362D01*
X100421500Y-94098638D01*
X12900500Y-94098638D01*
X12900500Y-88648638D01*
X104091500Y-88648638D01*
X104098011Y-88709201D01*
X104100717Y-88716458D01*
X104100719Y-88716463D01*
X104146011Y-88837894D01*
X104149111Y-88846204D01*
X104236739Y-88963261D01*
X104353796Y-89050889D01*
X104490799Y-89101989D01*
X104551362Y-89108500D01*
X107045328Y-89108500D01*
X107048638Y-89108500D01*
X107109201Y-89101989D01*
X107246204Y-89050889D01*
X107363261Y-88963261D01*
X107450889Y-88846204D01*
X107501989Y-88709201D01*
X107508500Y-88648638D01*
X107508500Y-86151362D01*
X107501989Y-86090799D01*
X107450889Y-85953796D01*
X107363261Y-85836739D01*
X107246204Y-85749111D01*
X107237896Y-85746012D01*
X107237894Y-85746011D01*
X107116463Y-85700719D01*
X107116458Y-85700717D01*
X107109201Y-85698011D01*
X107101497Y-85697182D01*
X107101494Y-85697182D01*
X107051924Y-85691853D01*
X107051918Y-85691852D01*
X107048638Y-85691500D01*
X106541292Y-85691500D01*
X106477692Y-85673948D01*
X106432098Y-85626260D01*
X106417417Y-85561937D01*
X106437805Y-85499189D01*
X106487491Y-85455780D01*
X106648200Y-85378386D01*
X106656219Y-85373756D01*
X106801881Y-85274444D01*
X106809429Y-85266385D01*
X106803512Y-85257065D01*
X105811542Y-84265095D01*
X105800000Y-84258431D01*
X105788457Y-84265095D01*
X104796486Y-85257065D01*
X104790569Y-85266385D01*
X104798116Y-85274444D01*
X104943780Y-85373756D01*
X104951800Y-85378386D01*
X105112510Y-85455780D01*
X105162196Y-85499189D01*
X105182584Y-85561937D01*
X105167903Y-85626260D01*
X105122309Y-85673948D01*
X105058709Y-85691500D01*
X104551362Y-85691500D01*
X104548082Y-85691852D01*
X104548075Y-85691853D01*
X104498505Y-85697182D01*
X104498500Y-85697182D01*
X104490799Y-85698011D01*
X104483543Y-85700717D01*
X104483536Y-85700719D01*
X104362105Y-85746011D01*
X104362099Y-85746013D01*
X104353796Y-85749111D01*
X104346698Y-85754423D01*
X104346695Y-85754426D01*
X104243835Y-85831426D01*
X104243831Y-85831429D01*
X104236739Y-85836739D01*
X104231429Y-85843831D01*
X104231426Y-85843835D01*
X104154426Y-85946695D01*
X104154423Y-85946698D01*
X104149111Y-85953796D01*
X104146013Y-85962099D01*
X104146011Y-85962105D01*
X104100719Y-86083536D01*
X104100717Y-86083543D01*
X104098011Y-86090799D01*
X104097182Y-86098500D01*
X104097182Y-86098505D01*
X104091853Y-86148075D01*
X104091500Y-86151362D01*
X104091500Y-88648638D01*
X12900500Y-88648638D01*
X12900500Y-83904630D01*
X104095580Y-83904630D01*
X104113927Y-84149453D01*
X104115306Y-84158606D01*
X104169936Y-84397957D01*
X104172669Y-84406817D01*
X104262360Y-84635346D01*
X104266379Y-84643692D01*
X104389135Y-84856310D01*
X104394347Y-84863955D01*
X104422537Y-84899305D01*
X104433773Y-84907278D01*
X104445832Y-84900613D01*
X105434904Y-83911542D01*
X105441568Y-83900000D01*
X105441567Y-83899999D01*
X106158431Y-83899999D01*
X106165095Y-83911542D01*
X107154167Y-84900614D01*
X107166224Y-84907278D01*
X107177461Y-84899306D01*
X107205653Y-84863954D01*
X107210863Y-84856312D01*
X107333620Y-84643692D01*
X107337639Y-84635346D01*
X107427330Y-84406817D01*
X107430063Y-84397957D01*
X107484693Y-84158606D01*
X107486072Y-84149453D01*
X107504420Y-83904630D01*
X107504420Y-83895370D01*
X107486072Y-83650546D01*
X107484693Y-83641393D01*
X107430063Y-83402042D01*
X107427330Y-83393182D01*
X107337639Y-83164653D01*
X107333620Y-83156307D01*
X107210864Y-82943689D01*
X107205652Y-82936044D01*
X107177460Y-82900691D01*
X107166225Y-82892720D01*
X107154167Y-82899384D01*
X106165095Y-83888457D01*
X106158431Y-83899999D01*
X105441567Y-83899999D01*
X105434904Y-83888457D01*
X104445832Y-82899385D01*
X104433773Y-82892721D01*
X104422538Y-82900693D01*
X104394343Y-82936048D01*
X104389137Y-82943685D01*
X104266379Y-83156307D01*
X104262360Y-83164653D01*
X104172669Y-83393182D01*
X104169936Y-83402042D01*
X104115306Y-83641393D01*
X104113927Y-83650546D01*
X104095580Y-83895370D01*
X104095580Y-83904630D01*
X12900500Y-83904630D01*
X12900500Y-81050000D01*
X15236835Y-81050000D01*
X15255465Y-81286711D01*
X15310895Y-81517594D01*
X15312756Y-81522087D01*
X15312758Y-81522093D01*
X15399894Y-81732460D01*
X15399898Y-81732468D01*
X15401760Y-81736963D01*
X15422407Y-81770656D01*
X15523277Y-81935261D01*
X15523282Y-81935268D01*
X15525824Y-81939416D01*
X15528984Y-81943115D01*
X15528987Y-81943120D01*
X15676870Y-82116268D01*
X15680031Y-82119969D01*
X15683731Y-82123129D01*
X15819797Y-82239341D01*
X15860584Y-82274176D01*
X15864734Y-82276719D01*
X15864738Y-82276722D01*
X15913989Y-82306903D01*
X16063037Y-82398240D01*
X16067536Y-82400103D01*
X16067539Y-82400105D01*
X16130652Y-82426247D01*
X16282406Y-82489105D01*
X16513289Y-82544535D01*
X16750000Y-82563165D01*
X16986711Y-82544535D01*
X17217594Y-82489105D01*
X17436963Y-82398240D01*
X17639416Y-82274176D01*
X17640503Y-82273248D01*
X20385749Y-82273248D01*
X20393855Y-82284439D01*
X20422717Y-82306903D01*
X20431279Y-82312496D01*
X20640885Y-82425929D01*
X20650239Y-82430032D01*
X20875656Y-82507417D01*
X20885568Y-82509928D01*
X21120643Y-82549155D01*
X21130839Y-82550000D01*
X21369161Y-82550000D01*
X21379356Y-82549155D01*
X21472494Y-82533613D01*
X104790568Y-82533613D01*
X104796484Y-82542931D01*
X105788457Y-83534904D01*
X105800000Y-83541568D01*
X105811542Y-83534904D01*
X106803512Y-82542933D01*
X106809429Y-82533613D01*
X106801881Y-82525554D01*
X106656220Y-82426243D01*
X106648200Y-82421613D01*
X106427001Y-82315089D01*
X106418390Y-82311710D01*
X106183776Y-82239341D01*
X106174760Y-82237283D01*
X105931982Y-82200691D01*
X105922760Y-82200000D01*
X105677240Y-82200000D01*
X105668017Y-82200691D01*
X105425239Y-82237283D01*
X105416223Y-82239341D01*
X105181609Y-82311710D01*
X105172999Y-82315089D01*
X104951808Y-82421609D01*
X104943775Y-82426247D01*
X104798116Y-82525555D01*
X104790568Y-82533613D01*
X21472494Y-82533613D01*
X21614431Y-82509928D01*
X21624343Y-82507417D01*
X21849760Y-82430032D01*
X21859114Y-82425929D01*
X22068723Y-82312495D01*
X22077281Y-82306903D01*
X22106146Y-82284437D01*
X22114250Y-82273250D01*
X22107589Y-82261142D01*
X21261542Y-81415095D01*
X21250000Y-81408431D01*
X21238457Y-81415095D01*
X20392408Y-82261143D01*
X20385749Y-82273248D01*
X17640503Y-82273248D01*
X17819969Y-82119969D01*
X17974176Y-81939416D01*
X18098240Y-81736963D01*
X18189105Y-81517594D01*
X18244535Y-81286711D01*
X18262762Y-81055117D01*
X19745283Y-81055117D01*
X19764962Y-81292618D01*
X19766646Y-81302712D01*
X19825153Y-81533747D01*
X19828472Y-81543414D01*
X19924208Y-81761673D01*
X19929070Y-81770656D01*
X20018999Y-81908304D01*
X20026963Y-81916024D01*
X20036345Y-81910100D01*
X20884904Y-81061542D01*
X20891568Y-81050000D01*
X21608431Y-81050000D01*
X21615095Y-81061542D01*
X22463653Y-81910100D01*
X22473034Y-81916024D01*
X22481002Y-81908299D01*
X22570924Y-81770664D01*
X22575792Y-81761669D01*
X22671527Y-81543414D01*
X22674846Y-81533747D01*
X22733353Y-81302712D01*
X22735037Y-81292618D01*
X22754717Y-81055117D01*
X22754717Y-81044883D01*
X22735037Y-80807381D01*
X22733353Y-80797287D01*
X22674846Y-80566252D01*
X22671527Y-80556585D01*
X22575792Y-80338330D01*
X22570924Y-80329335D01*
X22481002Y-80191699D01*
X22473034Y-80183974D01*
X22463653Y-80189898D01*
X21615095Y-81038457D01*
X21608431Y-81050000D01*
X20891568Y-81050000D01*
X20884904Y-81038457D01*
X20036345Y-80189898D01*
X20026964Y-80183974D01*
X20018997Y-80191699D01*
X19929072Y-80329338D01*
X19924207Y-80338328D01*
X19828472Y-80556585D01*
X19825153Y-80566252D01*
X19766646Y-80797287D01*
X19764962Y-80807381D01*
X19745283Y-81044883D01*
X19745283Y-81055117D01*
X18262762Y-81055117D01*
X18263165Y-81050000D01*
X18244535Y-80813289D01*
X18189105Y-80582406D01*
X18098240Y-80363037D01*
X18017202Y-80230796D01*
X17976722Y-80164738D01*
X17976719Y-80164734D01*
X17974176Y-80160584D01*
X17923708Y-80101494D01*
X17823129Y-79983731D01*
X17819969Y-79980031D01*
X17816268Y-79976870D01*
X17643120Y-79828987D01*
X17643115Y-79828984D01*
X17640499Y-79826749D01*
X20385748Y-79826749D01*
X20392408Y-79838855D01*
X21238457Y-80684904D01*
X21250000Y-80691568D01*
X21261542Y-80684904D01*
X21897807Y-80048638D01*
X103891500Y-80048638D01*
X103898011Y-80109201D01*
X103900717Y-80116458D01*
X103900719Y-80116463D01*
X103928781Y-80191699D01*
X103949111Y-80246204D01*
X104036739Y-80363261D01*
X104153796Y-80450889D01*
X104290799Y-80501989D01*
X104351362Y-80508500D01*
X106845328Y-80508500D01*
X106848638Y-80508500D01*
X106909201Y-80501989D01*
X107046204Y-80450889D01*
X107163261Y-80363261D01*
X107250889Y-80246204D01*
X107301989Y-80109201D01*
X107308500Y-80048638D01*
X107308500Y-77551362D01*
X107301989Y-77490799D01*
X107250889Y-77353796D01*
X107163261Y-77236739D01*
X107104123Y-77192469D01*
X107053304Y-77154426D01*
X107053303Y-77154425D01*
X107046204Y-77149111D01*
X107037896Y-77146012D01*
X107037894Y-77146011D01*
X106916463Y-77100719D01*
X106916458Y-77100717D01*
X106909201Y-77098011D01*
X106901497Y-77097182D01*
X106901494Y-77097182D01*
X106851924Y-77091853D01*
X106851918Y-77091852D01*
X106848638Y-77091500D01*
X106341292Y-77091500D01*
X106277692Y-77073948D01*
X106232098Y-77026260D01*
X106217417Y-76961937D01*
X106237805Y-76899189D01*
X106287491Y-76855780D01*
X106448200Y-76778386D01*
X106456219Y-76773756D01*
X106601881Y-76674444D01*
X106609429Y-76666385D01*
X106603512Y-76657065D01*
X105611542Y-75665095D01*
X105600000Y-75658431D01*
X105588457Y-75665095D01*
X104596486Y-76657065D01*
X104590569Y-76666385D01*
X104598116Y-76674444D01*
X104743780Y-76773756D01*
X104751800Y-76778386D01*
X104912510Y-76855780D01*
X104962196Y-76899189D01*
X104982584Y-76961937D01*
X104967903Y-77026260D01*
X104922309Y-77073948D01*
X104858709Y-77091500D01*
X104351362Y-77091500D01*
X104348082Y-77091852D01*
X104348075Y-77091853D01*
X104298505Y-77097182D01*
X104298500Y-77097182D01*
X104290799Y-77098011D01*
X104283543Y-77100717D01*
X104283536Y-77100719D01*
X104162105Y-77146011D01*
X104162099Y-77146013D01*
X104153796Y-77149111D01*
X104146698Y-77154423D01*
X104146695Y-77154426D01*
X104043835Y-77231426D01*
X104043831Y-77231429D01*
X104036739Y-77236739D01*
X104031429Y-77243831D01*
X104031426Y-77243835D01*
X103954426Y-77346695D01*
X103954423Y-77346698D01*
X103949111Y-77353796D01*
X103946013Y-77362099D01*
X103946011Y-77362105D01*
X103900719Y-77483536D01*
X103900717Y-77483543D01*
X103898011Y-77490799D01*
X103897182Y-77498500D01*
X103897182Y-77498505D01*
X103891853Y-77548075D01*
X103891500Y-77551362D01*
X103891500Y-80048638D01*
X21897807Y-80048638D01*
X22107590Y-79838855D01*
X22114250Y-79826749D01*
X22106143Y-79815559D01*
X22077286Y-79793099D01*
X22068719Y-79787503D01*
X21859114Y-79674070D01*
X21849760Y-79669967D01*
X21624343Y-79592582D01*
X21614431Y-79590071D01*
X21379356Y-79550844D01*
X21369161Y-79550000D01*
X21130839Y-79550000D01*
X21120643Y-79550844D01*
X20885568Y-79590071D01*
X20875656Y-79592582D01*
X20650239Y-79669967D01*
X20640885Y-79674070D01*
X20431276Y-79787504D01*
X20422717Y-79793096D01*
X20393854Y-79815560D01*
X20385748Y-79826749D01*
X17640499Y-79826749D01*
X17639416Y-79825824D01*
X17635268Y-79823282D01*
X17635261Y-79823277D01*
X17507175Y-79744786D01*
X17436963Y-79701760D01*
X17432468Y-79699898D01*
X17432460Y-79699894D01*
X17222093Y-79612758D01*
X17222087Y-79612756D01*
X17217594Y-79610895D01*
X17212865Y-79609759D01*
X17212860Y-79609758D01*
X16991444Y-79556601D01*
X16991440Y-79556600D01*
X16986711Y-79555465D01*
X16981858Y-79555083D01*
X16754854Y-79537217D01*
X16750000Y-79536835D01*
X16745146Y-79537217D01*
X16518141Y-79555083D01*
X16518139Y-79555083D01*
X16513289Y-79555465D01*
X16508561Y-79556599D01*
X16508555Y-79556601D01*
X16287139Y-79609758D01*
X16287130Y-79609760D01*
X16282406Y-79610895D01*
X16277916Y-79612754D01*
X16277906Y-79612758D01*
X16067539Y-79699894D01*
X16067526Y-79699900D01*
X16063037Y-79701760D01*
X16058883Y-79704305D01*
X16058882Y-79704306D01*
X15864738Y-79823277D01*
X15864725Y-79823286D01*
X15860584Y-79825824D01*
X15856889Y-79828979D01*
X15856879Y-79828987D01*
X15683731Y-79976870D01*
X15683724Y-79976876D01*
X15680031Y-79980031D01*
X15676876Y-79983724D01*
X15676870Y-79983731D01*
X15528987Y-80156879D01*
X15528979Y-80156889D01*
X15525824Y-80160584D01*
X15523286Y-80164725D01*
X15523277Y-80164738D01*
X15405972Y-80356164D01*
X15401760Y-80363037D01*
X15399900Y-80367526D01*
X15399894Y-80367539D01*
X15312758Y-80577906D01*
X15312754Y-80577916D01*
X15310895Y-80582406D01*
X15309760Y-80587130D01*
X15309758Y-80587139D01*
X15256601Y-80808555D01*
X15256599Y-80808561D01*
X15255465Y-80813289D01*
X15236835Y-81050000D01*
X12900500Y-81050000D01*
X12900500Y-77739596D01*
X63595687Y-77739596D01*
X63596181Y-77744093D01*
X63596182Y-77744098D01*
X63610961Y-77878416D01*
X63626114Y-78016124D01*
X63627259Y-78020504D01*
X63627261Y-78020514D01*
X63660468Y-78147530D01*
X63696480Y-78285276D01*
X63698245Y-78289430D01*
X63698248Y-78289438D01*
X63753441Y-78419318D01*
X63805284Y-78541314D01*
X63950208Y-78778781D01*
X64128163Y-78992617D01*
X64131538Y-78995641D01*
X64131539Y-78995642D01*
X64239073Y-79091993D01*
X64335357Y-79178263D01*
X64567373Y-79331763D01*
X64819267Y-79449846D01*
X65085669Y-79529995D01*
X65360901Y-79570500D01*
X65567201Y-79570500D01*
X65569463Y-79570500D01*
X65777455Y-79555277D01*
X66048997Y-79494788D01*
X66308838Y-79395408D01*
X66551440Y-79259253D01*
X66771632Y-79089226D01*
X66964722Y-78888951D01*
X67126593Y-78662696D01*
X67253797Y-78415283D01*
X67343621Y-78151986D01*
X67394152Y-77878416D01*
X67404313Y-77600404D01*
X67373886Y-77323876D01*
X67303520Y-77054724D01*
X67194716Y-76798686D01*
X67049792Y-76561219D01*
X66871837Y-76347383D01*
X66819640Y-76300614D01*
X66668023Y-76164765D01*
X66668019Y-76164761D01*
X66664643Y-76161737D01*
X66432627Y-76008237D01*
X66428533Y-76006317D01*
X66428528Y-76006315D01*
X66184834Y-75892076D01*
X66184828Y-75892073D01*
X66180733Y-75890154D01*
X66176394Y-75888848D01*
X66176390Y-75888847D01*
X65918677Y-75811312D01*
X65918670Y-75811310D01*
X65914331Y-75810005D01*
X65909852Y-75809345D01*
X65909844Y-75809344D01*
X65643573Y-75770158D01*
X65643567Y-75770157D01*
X65639099Y-75769500D01*
X65430537Y-75769500D01*
X65428288Y-75769664D01*
X65428277Y-75769665D01*
X65227075Y-75784391D01*
X65227068Y-75784391D01*
X65222545Y-75784723D01*
X65218120Y-75785708D01*
X65218111Y-75785710D01*
X64955434Y-75844224D01*
X64955421Y-75844227D01*
X64951003Y-75845212D01*
X64946774Y-75846829D01*
X64946762Y-75846833D01*
X64695393Y-75942973D01*
X64695383Y-75942977D01*
X64691162Y-75944592D01*
X64687221Y-75946803D01*
X64687212Y-75946808D01*
X64452511Y-76078529D01*
X64452505Y-76078532D01*
X64448560Y-76080747D01*
X64444989Y-76083504D01*
X64444976Y-76083513D01*
X64231952Y-76248006D01*
X64231947Y-76248009D01*
X64228368Y-76250774D01*
X64225221Y-76254037D01*
X64225221Y-76254038D01*
X64038427Y-76447782D01*
X64038421Y-76447788D01*
X64035278Y-76451049D01*
X64032639Y-76454737D01*
X64032637Y-76454740D01*
X63876046Y-76673614D01*
X63876040Y-76673623D01*
X63873407Y-76677304D01*
X63871334Y-76681334D01*
X63871332Y-76681339D01*
X63748277Y-76920681D01*
X63748271Y-76920692D01*
X63746203Y-76924717D01*
X63744743Y-76928996D01*
X63744739Y-76929006D01*
X63657840Y-77183730D01*
X63656379Y-77188014D01*
X63655556Y-77192467D01*
X63655556Y-77192469D01*
X63606671Y-77457123D01*
X63606669Y-77457136D01*
X63605848Y-77461584D01*
X63605682Y-77466111D01*
X63605682Y-77466116D01*
X63600609Y-77604931D01*
X63595687Y-77739596D01*
X12900500Y-77739596D01*
X12900500Y-74550000D01*
X15236835Y-74550000D01*
X15255465Y-74786711D01*
X15256600Y-74791440D01*
X15256601Y-74791444D01*
X15292642Y-74941568D01*
X15310895Y-75017594D01*
X15312756Y-75022087D01*
X15312758Y-75022093D01*
X15399894Y-75232460D01*
X15399898Y-75232468D01*
X15401760Y-75236963D01*
X15422407Y-75270656D01*
X15523277Y-75435261D01*
X15523282Y-75435268D01*
X15525824Y-75439416D01*
X15528984Y-75443115D01*
X15528987Y-75443120D01*
X15627622Y-75558606D01*
X15680031Y-75619969D01*
X15683731Y-75623129D01*
X15855879Y-75770158D01*
X15860584Y-75774176D01*
X15864734Y-75776719D01*
X15864738Y-75776722D01*
X15899391Y-75797957D01*
X16063037Y-75898240D01*
X16067536Y-75900103D01*
X16067539Y-75900105D01*
X16139790Y-75930032D01*
X16282406Y-75989105D01*
X16513289Y-76044535D01*
X16750000Y-76063165D01*
X16986711Y-76044535D01*
X17217594Y-75989105D01*
X17436963Y-75898240D01*
X17639416Y-75774176D01*
X17640503Y-75773248D01*
X20385749Y-75773248D01*
X20393855Y-75784439D01*
X20422717Y-75806903D01*
X20431279Y-75812496D01*
X20640885Y-75925929D01*
X20650239Y-75930032D01*
X20875656Y-76007417D01*
X20885568Y-76009928D01*
X21120643Y-76049155D01*
X21130839Y-76050000D01*
X21369161Y-76050000D01*
X21379356Y-76049155D01*
X21614431Y-76009928D01*
X21624343Y-76007417D01*
X21849760Y-75930032D01*
X21859114Y-75925929D01*
X22068723Y-75812495D01*
X22077281Y-75806903D01*
X22106146Y-75784437D01*
X22114250Y-75773250D01*
X22107589Y-75761142D01*
X21261542Y-74915095D01*
X21249999Y-74908431D01*
X21238457Y-74915095D01*
X20392408Y-75761143D01*
X20385749Y-75773248D01*
X17640503Y-75773248D01*
X17819969Y-75619969D01*
X17974176Y-75439416D01*
X18098240Y-75236963D01*
X18189105Y-75017594D01*
X18244535Y-74786711D01*
X18262762Y-74555117D01*
X19745283Y-74555117D01*
X19764962Y-74792618D01*
X19766646Y-74802712D01*
X19825153Y-75033747D01*
X19828472Y-75043414D01*
X19924208Y-75261673D01*
X19929070Y-75270656D01*
X20018999Y-75408304D01*
X20026963Y-75416024D01*
X20036345Y-75410100D01*
X20884904Y-74561542D01*
X20891568Y-74550000D01*
X21608431Y-74550000D01*
X21615095Y-74561542D01*
X22463653Y-75410100D01*
X22473034Y-75416024D01*
X22481002Y-75408299D01*
X22548733Y-75304630D01*
X103895580Y-75304630D01*
X103913927Y-75549453D01*
X103915306Y-75558606D01*
X103969936Y-75797957D01*
X103972669Y-75806817D01*
X104062360Y-76035346D01*
X104066379Y-76043692D01*
X104189135Y-76256310D01*
X104194347Y-76263955D01*
X104222537Y-76299305D01*
X104233773Y-76307278D01*
X104245832Y-76300613D01*
X105234904Y-75311542D01*
X105241568Y-75300000D01*
X105958431Y-75300000D01*
X105965095Y-75311542D01*
X106954167Y-76300614D01*
X106966224Y-76307278D01*
X106977461Y-76299306D01*
X107005653Y-76263954D01*
X107010863Y-76256312D01*
X107133620Y-76043692D01*
X107137639Y-76035346D01*
X107227330Y-75806817D01*
X107230063Y-75797957D01*
X107284693Y-75558606D01*
X107286072Y-75549453D01*
X107304420Y-75304630D01*
X107304420Y-75295370D01*
X107286072Y-75050546D01*
X107284693Y-75041393D01*
X107230063Y-74802042D01*
X107227330Y-74793182D01*
X107137639Y-74564653D01*
X107133620Y-74556307D01*
X107010864Y-74343689D01*
X107005652Y-74336044D01*
X106977460Y-74300691D01*
X106966225Y-74292720D01*
X106954167Y-74299384D01*
X105965095Y-75288457D01*
X105958431Y-75300000D01*
X105241568Y-75300000D01*
X105234904Y-75288457D01*
X104245832Y-74299385D01*
X104233773Y-74292721D01*
X104222538Y-74300693D01*
X104194343Y-74336048D01*
X104189137Y-74343685D01*
X104066379Y-74556307D01*
X104062360Y-74564653D01*
X103972669Y-74793182D01*
X103969936Y-74802042D01*
X103915306Y-75041393D01*
X103913927Y-75050546D01*
X103895580Y-75295370D01*
X103895580Y-75304630D01*
X22548733Y-75304630D01*
X22570924Y-75270664D01*
X22575792Y-75261669D01*
X22671527Y-75043414D01*
X22674846Y-75033747D01*
X22733353Y-74802712D01*
X22735037Y-74792618D01*
X22754717Y-74555117D01*
X22754717Y-74544883D01*
X22735037Y-74307381D01*
X22733353Y-74297287D01*
X22674846Y-74066252D01*
X22671527Y-74056585D01*
X22575792Y-73838330D01*
X22570924Y-73829335D01*
X22481002Y-73691699D01*
X22473034Y-73683974D01*
X22463653Y-73689898D01*
X21615095Y-74538457D01*
X21608431Y-74550000D01*
X20891568Y-74550000D01*
X20884904Y-74538457D01*
X20036345Y-73689898D01*
X20026964Y-73683974D01*
X20018997Y-73691699D01*
X19929072Y-73829338D01*
X19924207Y-73838328D01*
X19828472Y-74056585D01*
X19825153Y-74066252D01*
X19766646Y-74297287D01*
X19764962Y-74307381D01*
X19745283Y-74544883D01*
X19745283Y-74555117D01*
X18262762Y-74555117D01*
X18263165Y-74550000D01*
X18244535Y-74313289D01*
X18189105Y-74082406D01*
X18098240Y-73863037D01*
X18005506Y-73711710D01*
X17976722Y-73664738D01*
X17976719Y-73664734D01*
X17974176Y-73660584D01*
X17956713Y-73640138D01*
X17823129Y-73483731D01*
X17819969Y-73480031D01*
X17816268Y-73476870D01*
X17643120Y-73328987D01*
X17643115Y-73328984D01*
X17640499Y-73326749D01*
X20385748Y-73326749D01*
X20392408Y-73338855D01*
X21238457Y-74184904D01*
X21250000Y-74191568D01*
X21261542Y-74184904D01*
X22107590Y-73338855D01*
X22114250Y-73326749D01*
X22106143Y-73315559D01*
X22077286Y-73293099D01*
X22068719Y-73287503D01*
X21859114Y-73174070D01*
X21849760Y-73169967D01*
X21624343Y-73092582D01*
X21614431Y-73090071D01*
X21379356Y-73050844D01*
X21369161Y-73050000D01*
X21130839Y-73050000D01*
X21120643Y-73050844D01*
X20885568Y-73090071D01*
X20875656Y-73092582D01*
X20650239Y-73169967D01*
X20640885Y-73174070D01*
X20431276Y-73287504D01*
X20422717Y-73293096D01*
X20393854Y-73315560D01*
X20385748Y-73326749D01*
X17640499Y-73326749D01*
X17639416Y-73325824D01*
X17635268Y-73323282D01*
X17635261Y-73323277D01*
X17507175Y-73244786D01*
X17436963Y-73201760D01*
X17432468Y-73199898D01*
X17432460Y-73199894D01*
X17222093Y-73112758D01*
X17222087Y-73112756D01*
X17217594Y-73110895D01*
X17212865Y-73109759D01*
X17212860Y-73109758D01*
X16991444Y-73056601D01*
X16991440Y-73056600D01*
X16986711Y-73055465D01*
X16981858Y-73055083D01*
X16754854Y-73037217D01*
X16750000Y-73036835D01*
X16745146Y-73037217D01*
X16518141Y-73055083D01*
X16518139Y-73055083D01*
X16513289Y-73055465D01*
X16508561Y-73056599D01*
X16508555Y-73056601D01*
X16287139Y-73109758D01*
X16287130Y-73109760D01*
X16282406Y-73110895D01*
X16277916Y-73112754D01*
X16277906Y-73112758D01*
X16067539Y-73199894D01*
X16067526Y-73199900D01*
X16063037Y-73201760D01*
X16058883Y-73204305D01*
X16058882Y-73204306D01*
X15864738Y-73323277D01*
X15864725Y-73323286D01*
X15860584Y-73325824D01*
X15856889Y-73328979D01*
X15856879Y-73328987D01*
X15683731Y-73476870D01*
X15683724Y-73476876D01*
X15680031Y-73480031D01*
X15676876Y-73483724D01*
X15676870Y-73483731D01*
X15528987Y-73656879D01*
X15528979Y-73656889D01*
X15525824Y-73660584D01*
X15523286Y-73664725D01*
X15523277Y-73664738D01*
X15404306Y-73858882D01*
X15401760Y-73863037D01*
X15399900Y-73867526D01*
X15399894Y-73867539D01*
X15312758Y-74077906D01*
X15312754Y-74077916D01*
X15310895Y-74082406D01*
X15309760Y-74087130D01*
X15309758Y-74087139D01*
X15256601Y-74308555D01*
X15256599Y-74308561D01*
X15255465Y-74313289D01*
X15236835Y-74550000D01*
X12900500Y-74550000D01*
X12900500Y-71800000D01*
X103886709Y-71800000D01*
X103905845Y-72055353D01*
X103906874Y-72059862D01*
X103906876Y-72059874D01*
X103961793Y-72300476D01*
X103962826Y-72305001D01*
X103964521Y-72309320D01*
X103964522Y-72309323D01*
X104054680Y-72539044D01*
X104054683Y-72539050D01*
X104056378Y-72543369D01*
X104058696Y-72547384D01*
X104058699Y-72547390D01*
X104182092Y-72761112D01*
X104182096Y-72761117D01*
X104184413Y-72765131D01*
X104344069Y-72965334D01*
X104531781Y-73139505D01*
X104743355Y-73283754D01*
X104974065Y-73394858D01*
X105107303Y-73435956D01*
X105160380Y-73468755D01*
X105190765Y-73523250D01*
X105190766Y-73585643D01*
X105160381Y-73640138D01*
X105107304Y-73672938D01*
X104981609Y-73711710D01*
X104972999Y-73715089D01*
X104751808Y-73821609D01*
X104743775Y-73826247D01*
X104598116Y-73925555D01*
X104590568Y-73933613D01*
X104596484Y-73942931D01*
X105588457Y-74934904D01*
X105599999Y-74941568D01*
X105611542Y-74934904D01*
X106603512Y-73942933D01*
X106609429Y-73933613D01*
X106601881Y-73925554D01*
X106456220Y-73826243D01*
X106448200Y-73821613D01*
X106227001Y-73715089D01*
X106218390Y-73711710D01*
X106092695Y-73672938D01*
X106039618Y-73640138D01*
X106009233Y-73585643D01*
X106009234Y-73523250D01*
X106039619Y-73468755D01*
X106092694Y-73435957D01*
X106225935Y-73394858D01*
X106456646Y-73283754D01*
X106668219Y-73139505D01*
X106855931Y-72965334D01*
X107015587Y-72765131D01*
X107143622Y-72543369D01*
X107237174Y-72305001D01*
X107294155Y-72055353D01*
X107313291Y-71800000D01*
X107294155Y-71544647D01*
X107237174Y-71294999D01*
X107143622Y-71056631D01*
X107141300Y-71052609D01*
X107017907Y-70838887D01*
X107017905Y-70838885D01*
X107015587Y-70834869D01*
X106855931Y-70634666D01*
X106668219Y-70460495D01*
X106588148Y-70405903D01*
X106460482Y-70318861D01*
X106460478Y-70318859D01*
X106456646Y-70316246D01*
X106452460Y-70314230D01*
X106230118Y-70207156D01*
X106230113Y-70207154D01*
X106225935Y-70205142D01*
X106221502Y-70203774D01*
X106221498Y-70203773D01*
X106145338Y-70180281D01*
X106107113Y-70168490D01*
X106054037Y-70135692D01*
X106023652Y-70081197D01*
X106023652Y-70018803D01*
X106054037Y-69964308D01*
X106107113Y-69931509D01*
X106225935Y-69894858D01*
X106456646Y-69783754D01*
X106668219Y-69639505D01*
X106855931Y-69465334D01*
X107015587Y-69265131D01*
X107143622Y-69043369D01*
X107237174Y-68805001D01*
X107294155Y-68555353D01*
X107313291Y-68300000D01*
X107294155Y-68044647D01*
X107237174Y-67794999D01*
X107143622Y-67556631D01*
X107088434Y-67461043D01*
X107017907Y-67338887D01*
X107017905Y-67338885D01*
X107015587Y-67334869D01*
X106855931Y-67134666D01*
X106668219Y-66960495D01*
X106505189Y-66849342D01*
X106460482Y-66818861D01*
X106460478Y-66818859D01*
X106456646Y-66816246D01*
X106452460Y-66814230D01*
X106230118Y-66707156D01*
X106230113Y-66707154D01*
X106225935Y-66705142D01*
X106221504Y-66703775D01*
X106221501Y-66703774D01*
X106107113Y-66668490D01*
X106054036Y-66635690D01*
X106023651Y-66581195D01*
X106023652Y-66518801D01*
X106054037Y-66464306D01*
X106107112Y-66431509D01*
X106225935Y-66394858D01*
X106456646Y-66283754D01*
X106668219Y-66139505D01*
X106855931Y-65965334D01*
X107015587Y-65765131D01*
X107143622Y-65543369D01*
X107237174Y-65305001D01*
X107294155Y-65055353D01*
X107313291Y-64800000D01*
X107294155Y-64544647D01*
X107237174Y-64294999D01*
X107143622Y-64056631D01*
X107015587Y-63834869D01*
X106855931Y-63634666D01*
X106668219Y-63460495D01*
X106522977Y-63361470D01*
X106460482Y-63318861D01*
X106460478Y-63318859D01*
X106456646Y-63316246D01*
X106382971Y-63280766D01*
X106230118Y-63207156D01*
X106230113Y-63207154D01*
X106225935Y-63205142D01*
X106221502Y-63203774D01*
X106221498Y-63203773D01*
X106145338Y-63180281D01*
X106107113Y-63168490D01*
X106054037Y-63135692D01*
X106023652Y-63081197D01*
X106023652Y-63018803D01*
X106054037Y-62964308D01*
X106107113Y-62931509D01*
X106225935Y-62894858D01*
X106456646Y-62783754D01*
X106668219Y-62639505D01*
X106855931Y-62465334D01*
X107015587Y-62265131D01*
X107143622Y-62043369D01*
X107237174Y-61805001D01*
X107294155Y-61555353D01*
X107313291Y-61300000D01*
X107294155Y-61044647D01*
X107237174Y-60794999D01*
X107143622Y-60556631D01*
X107110226Y-60498788D01*
X107017907Y-60338887D01*
X107017905Y-60338885D01*
X107015587Y-60334869D01*
X106855931Y-60134666D01*
X106668219Y-59960495D01*
X106593195Y-59909344D01*
X106460482Y-59818861D01*
X106460478Y-59818859D01*
X106456646Y-59816246D01*
X106452460Y-59814230D01*
X106230118Y-59707156D01*
X106230113Y-59707154D01*
X106225935Y-59705142D01*
X106221502Y-59703774D01*
X106221498Y-59703773D01*
X106145338Y-59680281D01*
X106107113Y-59668490D01*
X106054037Y-59635692D01*
X106023652Y-59581197D01*
X106023652Y-59518803D01*
X106054037Y-59464308D01*
X106107113Y-59431509D01*
X106225935Y-59394858D01*
X106456646Y-59283754D01*
X106668219Y-59139505D01*
X106855931Y-58965334D01*
X107015587Y-58765131D01*
X107143622Y-58543369D01*
X107237174Y-58305001D01*
X107294155Y-58055353D01*
X107313291Y-57800000D01*
X107294155Y-57544647D01*
X107237174Y-57294999D01*
X107143622Y-57056631D01*
X107015587Y-56834869D01*
X106855931Y-56634666D01*
X106668219Y-56460495D01*
X106664385Y-56457881D01*
X106460482Y-56318861D01*
X106460478Y-56318859D01*
X106456646Y-56316246D01*
X106452460Y-56314230D01*
X106230118Y-56207156D01*
X106230113Y-56207154D01*
X106225935Y-56205142D01*
X106221502Y-56203774D01*
X106221498Y-56203773D01*
X106145338Y-56180281D01*
X106107113Y-56168490D01*
X106054037Y-56135692D01*
X106023652Y-56081197D01*
X106023652Y-56018803D01*
X106054037Y-55964308D01*
X106107113Y-55931509D01*
X106225935Y-55894858D01*
X106456646Y-55783754D01*
X106668219Y-55639505D01*
X106855931Y-55465334D01*
X107015587Y-55265131D01*
X107143622Y-55043369D01*
X107237174Y-54805001D01*
X107294155Y-54555353D01*
X107313291Y-54300000D01*
X107294155Y-54044647D01*
X107237174Y-53794999D01*
X107143622Y-53556631D01*
X107015587Y-53334869D01*
X106855931Y-53134666D01*
X106668219Y-52960495D01*
X106657012Y-52952854D01*
X106460482Y-52818861D01*
X106460478Y-52818859D01*
X106456646Y-52816246D01*
X106452460Y-52814230D01*
X106230118Y-52707156D01*
X106230113Y-52707154D01*
X106225935Y-52705142D01*
X106221504Y-52703775D01*
X106221501Y-52703774D01*
X106107113Y-52668490D01*
X106054036Y-52635690D01*
X106023651Y-52581195D01*
X106023652Y-52518801D01*
X106054037Y-52464306D01*
X106107112Y-52431509D01*
X106225935Y-52394858D01*
X106456646Y-52283754D01*
X106668219Y-52139505D01*
X106855931Y-51965334D01*
X107015587Y-51765131D01*
X107143622Y-51543369D01*
X107237174Y-51305001D01*
X107294155Y-51055353D01*
X107313291Y-50800000D01*
X107294155Y-50544647D01*
X107237174Y-50294999D01*
X107143622Y-50056631D01*
X107015587Y-49834869D01*
X106855931Y-49634666D01*
X106668219Y-49460495D01*
X106631350Y-49435358D01*
X106460482Y-49318861D01*
X106460478Y-49318859D01*
X106456646Y-49316246D01*
X106424593Y-49300810D01*
X106230118Y-49207156D01*
X106230113Y-49207154D01*
X106225935Y-49205142D01*
X106221502Y-49203774D01*
X106221498Y-49203773D01*
X105985678Y-49131033D01*
X105985677Y-49131032D01*
X105981243Y-49129665D01*
X105976655Y-49128973D01*
X105976653Y-49128973D01*
X105732619Y-49092191D01*
X105732618Y-49092190D01*
X105728034Y-49091500D01*
X105471966Y-49091500D01*
X105467382Y-49092190D01*
X105467380Y-49092191D01*
X105223346Y-49128973D01*
X105223341Y-49128973D01*
X105218757Y-49129665D01*
X105214324Y-49131032D01*
X105214321Y-49131033D01*
X104978502Y-49203773D01*
X104978497Y-49203774D01*
X104974065Y-49205142D01*
X104969886Y-49207154D01*
X104969882Y-49207156D01*
X104747540Y-49314230D01*
X104747533Y-49314233D01*
X104743355Y-49316246D01*
X104739522Y-49318859D01*
X104739519Y-49318861D01*
X104568650Y-49435358D01*
X104531781Y-49460495D01*
X104528389Y-49463641D01*
X104528383Y-49463647D01*
X104490406Y-49498885D01*
X104344069Y-49634666D01*
X104341180Y-49638288D01*
X104341176Y-49638293D01*
X104187305Y-49831242D01*
X104184413Y-49834869D01*
X104182099Y-49838875D01*
X104182092Y-49838887D01*
X104058699Y-50052609D01*
X104058693Y-50052620D01*
X104056378Y-50056631D01*
X104054685Y-50060944D01*
X104054680Y-50060955D01*
X103964522Y-50290676D01*
X103964519Y-50290683D01*
X103962826Y-50294999D01*
X103961794Y-50299517D01*
X103961793Y-50299523D01*
X103906876Y-50540125D01*
X103906873Y-50540139D01*
X103905845Y-50544647D01*
X103886709Y-50800000D01*
X103905845Y-51055353D01*
X103906874Y-51059862D01*
X103906876Y-51059874D01*
X103960433Y-51294518D01*
X103962826Y-51305001D01*
X103964521Y-51309320D01*
X103964522Y-51309323D01*
X104054680Y-51539044D01*
X104054683Y-51539050D01*
X104056378Y-51543369D01*
X104058696Y-51547384D01*
X104058699Y-51547390D01*
X104182092Y-51761112D01*
X104182096Y-51761117D01*
X104184413Y-51765131D01*
X104344069Y-51965334D01*
X104531781Y-52139505D01*
X104743355Y-52283754D01*
X104974065Y-52394858D01*
X105092887Y-52431509D01*
X105145962Y-52464306D01*
X105176347Y-52518801D01*
X105176348Y-52581195D01*
X105145963Y-52635690D01*
X105092886Y-52668490D01*
X104978499Y-52703774D01*
X104978495Y-52703775D01*
X104974065Y-52705142D01*
X104969886Y-52707154D01*
X104969882Y-52707156D01*
X104747540Y-52814230D01*
X104747533Y-52814233D01*
X104743355Y-52816246D01*
X104739522Y-52818859D01*
X104739519Y-52818861D01*
X104542988Y-52952854D01*
X104531781Y-52960495D01*
X104528389Y-52963641D01*
X104528383Y-52963647D01*
X104404056Y-53079006D01*
X104344069Y-53134666D01*
X104341180Y-53138288D01*
X104341176Y-53138293D01*
X104187305Y-53331242D01*
X104184413Y-53334869D01*
X104182099Y-53338875D01*
X104182092Y-53338887D01*
X104058699Y-53552609D01*
X104058693Y-53552620D01*
X104056378Y-53556631D01*
X104054685Y-53560944D01*
X104054680Y-53560955D01*
X103964522Y-53790676D01*
X103964519Y-53790683D01*
X103962826Y-53794999D01*
X103961794Y-53799517D01*
X103961793Y-53799523D01*
X103906876Y-54040125D01*
X103906873Y-54040139D01*
X103905845Y-54044647D01*
X103905498Y-54049266D01*
X103905498Y-54049272D01*
X103888350Y-54278099D01*
X103886709Y-54300000D01*
X103887056Y-54304630D01*
X103896846Y-54435276D01*
X103905845Y-54555353D01*
X103906874Y-54559862D01*
X103906876Y-54559874D01*
X103961793Y-54800476D01*
X103962826Y-54805001D01*
X103964521Y-54809320D01*
X103964522Y-54809323D01*
X104054680Y-55039044D01*
X104054683Y-55039050D01*
X104056378Y-55043369D01*
X104058696Y-55047384D01*
X104058699Y-55047390D01*
X104182092Y-55261112D01*
X104182096Y-55261117D01*
X104184413Y-55265131D01*
X104344069Y-55465334D01*
X104531781Y-55639505D01*
X104743355Y-55783754D01*
X104974065Y-55894858D01*
X105092886Y-55931509D01*
X105145963Y-55964308D01*
X105176348Y-56018803D01*
X105176348Y-56081197D01*
X105145963Y-56135692D01*
X105092886Y-56168490D01*
X105048831Y-56182079D01*
X104978499Y-56203774D01*
X104978495Y-56203775D01*
X104974065Y-56205142D01*
X104969886Y-56207154D01*
X104969882Y-56207156D01*
X104747540Y-56314230D01*
X104747533Y-56314233D01*
X104743355Y-56316246D01*
X104739522Y-56318859D01*
X104739519Y-56318861D01*
X104535615Y-56457881D01*
X104531781Y-56460495D01*
X104528389Y-56463641D01*
X104528383Y-56463647D01*
X104347470Y-56631510D01*
X104344069Y-56634666D01*
X104341180Y-56638288D01*
X104341176Y-56638293D01*
X104187305Y-56831242D01*
X104184413Y-56834869D01*
X104182099Y-56838875D01*
X104182092Y-56838887D01*
X104058699Y-57052609D01*
X104058693Y-57052620D01*
X104056378Y-57056631D01*
X104054685Y-57060944D01*
X104054680Y-57060955D01*
X103964522Y-57290676D01*
X103964519Y-57290683D01*
X103962826Y-57294999D01*
X103961794Y-57299517D01*
X103961793Y-57299523D01*
X103906876Y-57540125D01*
X103906873Y-57540139D01*
X103905845Y-57544647D01*
X103905498Y-57549266D01*
X103905498Y-57549272D01*
X103890038Y-57755573D01*
X103886709Y-57800000D01*
X103887056Y-57804630D01*
X103898117Y-57952238D01*
X103905845Y-58055353D01*
X103906874Y-58059862D01*
X103906876Y-58059874D01*
X103961793Y-58300476D01*
X103962826Y-58305001D01*
X103964521Y-58309320D01*
X103964522Y-58309323D01*
X104054680Y-58539044D01*
X104054683Y-58539050D01*
X104056378Y-58543369D01*
X104058696Y-58547384D01*
X104058699Y-58547390D01*
X104182092Y-58761112D01*
X104182096Y-58761117D01*
X104184413Y-58765131D01*
X104344069Y-58965334D01*
X104531781Y-59139505D01*
X104743355Y-59283754D01*
X104974065Y-59394858D01*
X105092887Y-59431509D01*
X105145962Y-59464306D01*
X105176347Y-59518801D01*
X105176348Y-59581195D01*
X105145963Y-59635690D01*
X105092886Y-59668490D01*
X104978499Y-59703774D01*
X104978495Y-59703775D01*
X104974065Y-59705142D01*
X104969886Y-59707154D01*
X104969882Y-59707156D01*
X104747540Y-59814230D01*
X104747533Y-59814233D01*
X104743355Y-59816246D01*
X104739522Y-59818859D01*
X104739519Y-59818861D01*
X104605836Y-59910005D01*
X104531781Y-59960495D01*
X104528389Y-59963641D01*
X104528383Y-59963647D01*
X104369859Y-60110736D01*
X104344069Y-60134666D01*
X104341180Y-60138288D01*
X104341176Y-60138293D01*
X104187305Y-60331242D01*
X104184413Y-60334869D01*
X104182099Y-60338875D01*
X104182092Y-60338887D01*
X104058699Y-60552609D01*
X104058693Y-60552620D01*
X104056378Y-60556631D01*
X104054685Y-60560944D01*
X104054680Y-60560955D01*
X103964522Y-60790676D01*
X103964519Y-60790683D01*
X103962826Y-60794999D01*
X103961794Y-60799517D01*
X103961793Y-60799523D01*
X103906876Y-61040125D01*
X103906873Y-61040139D01*
X103905845Y-61044647D01*
X103905498Y-61049266D01*
X103905498Y-61049272D01*
X103897908Y-61150561D01*
X103886709Y-61300000D01*
X103905845Y-61555353D01*
X103906874Y-61559862D01*
X103906876Y-61559874D01*
X103937924Y-61695901D01*
X103962826Y-61805001D01*
X103964521Y-61809320D01*
X103964522Y-61809323D01*
X104054680Y-62039044D01*
X104054683Y-62039050D01*
X104056378Y-62043369D01*
X104058696Y-62047384D01*
X104058699Y-62047390D01*
X104182092Y-62261112D01*
X104182096Y-62261117D01*
X104184413Y-62265131D01*
X104344069Y-62465334D01*
X104531781Y-62639505D01*
X104743355Y-62783754D01*
X104974065Y-62894858D01*
X105092886Y-62931509D01*
X105145963Y-62964308D01*
X105176348Y-63018803D01*
X105176348Y-63081197D01*
X105145963Y-63135692D01*
X105092886Y-63168490D01*
X105048831Y-63182079D01*
X104978499Y-63203774D01*
X104978495Y-63203775D01*
X104974065Y-63205142D01*
X104969886Y-63207154D01*
X104969882Y-63207156D01*
X104747540Y-63314230D01*
X104747533Y-63314233D01*
X104743355Y-63316246D01*
X104739522Y-63318859D01*
X104739519Y-63318861D01*
X104573923Y-63431763D01*
X104531781Y-63460495D01*
X104528389Y-63463641D01*
X104528383Y-63463647D01*
X104347470Y-63631510D01*
X104344069Y-63634666D01*
X104341180Y-63638288D01*
X104341176Y-63638293D01*
X104315492Y-63670500D01*
X104184413Y-63834869D01*
X104182099Y-63838875D01*
X104182092Y-63838887D01*
X104058699Y-64052609D01*
X104058693Y-64052620D01*
X104056378Y-64056631D01*
X104054685Y-64060944D01*
X104054680Y-64060955D01*
X103964522Y-64290676D01*
X103964519Y-64290683D01*
X103962826Y-64294999D01*
X103961794Y-64299517D01*
X103961793Y-64299523D01*
X103906876Y-64540125D01*
X103906873Y-64540139D01*
X103905845Y-64544647D01*
X103886709Y-64800000D01*
X103905845Y-65055353D01*
X103906874Y-65059862D01*
X103906876Y-65059874D01*
X103958609Y-65286526D01*
X103962826Y-65305001D01*
X103964521Y-65309320D01*
X103964522Y-65309323D01*
X104054680Y-65539044D01*
X104054683Y-65539050D01*
X104056378Y-65543369D01*
X104058696Y-65547384D01*
X104058699Y-65547390D01*
X104182092Y-65761112D01*
X104182096Y-65761117D01*
X104184413Y-65765131D01*
X104344069Y-65965334D01*
X104531781Y-66139505D01*
X104743355Y-66283754D01*
X104974065Y-66394858D01*
X105092887Y-66431509D01*
X105145962Y-66464306D01*
X105176347Y-66518801D01*
X105176348Y-66581195D01*
X105145963Y-66635690D01*
X105092886Y-66668490D01*
X104978499Y-66703774D01*
X104978495Y-66703775D01*
X104974065Y-66705142D01*
X104969886Y-66707154D01*
X104969882Y-66707156D01*
X104747540Y-66814230D01*
X104747533Y-66814233D01*
X104743355Y-66816246D01*
X104739522Y-66818859D01*
X104739519Y-66818861D01*
X104694812Y-66849342D01*
X104531781Y-66960495D01*
X104528389Y-66963641D01*
X104528383Y-66963647D01*
X104416659Y-67067312D01*
X104344069Y-67134666D01*
X104341180Y-67138288D01*
X104341176Y-67138293D01*
X104187305Y-67331242D01*
X104184413Y-67334869D01*
X104182099Y-67338875D01*
X104182092Y-67338887D01*
X104058699Y-67552609D01*
X104058693Y-67552620D01*
X104056378Y-67556631D01*
X104054685Y-67560944D01*
X104054680Y-67560955D01*
X103964522Y-67790676D01*
X103964519Y-67790683D01*
X103962826Y-67794999D01*
X103961794Y-67799517D01*
X103961793Y-67799523D01*
X103906876Y-68040125D01*
X103906873Y-68040139D01*
X103905845Y-68044647D01*
X103905498Y-68049266D01*
X103905498Y-68049272D01*
X103899185Y-68133513D01*
X103886709Y-68300000D01*
X103887056Y-68304630D01*
X103902888Y-68515903D01*
X103905845Y-68555353D01*
X103906874Y-68559862D01*
X103906876Y-68559874D01*
X103945092Y-68727304D01*
X103962826Y-68805001D01*
X103964521Y-68809320D01*
X103964522Y-68809323D01*
X104054680Y-69039044D01*
X104054683Y-69039050D01*
X104056378Y-69043369D01*
X104058696Y-69047384D01*
X104058699Y-69047390D01*
X104182092Y-69261112D01*
X104182096Y-69261117D01*
X104184413Y-69265131D01*
X104344069Y-69465334D01*
X104531781Y-69639505D01*
X104743355Y-69783754D01*
X104974065Y-69894858D01*
X105092886Y-69931509D01*
X105145963Y-69964308D01*
X105176348Y-70018803D01*
X105176348Y-70081197D01*
X105145963Y-70135692D01*
X105092886Y-70168490D01*
X105048831Y-70182079D01*
X104978499Y-70203774D01*
X104978495Y-70203775D01*
X104974065Y-70205142D01*
X104969886Y-70207154D01*
X104969882Y-70207156D01*
X104747540Y-70314230D01*
X104747533Y-70314233D01*
X104743355Y-70316246D01*
X104739522Y-70318859D01*
X104739519Y-70318861D01*
X104535615Y-70457881D01*
X104531781Y-70460495D01*
X104528389Y-70463641D01*
X104528383Y-70463647D01*
X104390791Y-70591314D01*
X104344069Y-70634666D01*
X104341180Y-70638288D01*
X104341176Y-70638293D01*
X104192350Y-70824916D01*
X104184413Y-70834869D01*
X104182099Y-70838875D01*
X104182092Y-70838887D01*
X104058699Y-71052609D01*
X104058693Y-71052620D01*
X104056378Y-71056631D01*
X104054685Y-71060944D01*
X104054680Y-71060955D01*
X103964522Y-71290676D01*
X103964519Y-71290683D01*
X103962826Y-71294999D01*
X103961794Y-71299517D01*
X103961793Y-71299523D01*
X103906876Y-71540125D01*
X103906873Y-71540139D01*
X103905845Y-71544647D01*
X103905498Y-71549266D01*
X103905498Y-71549272D01*
X103888350Y-71778099D01*
X103886709Y-71800000D01*
X12900500Y-71800000D01*
X12900500Y-69160000D01*
X18836844Y-69160000D01*
X18837268Y-69165117D01*
X18855011Y-69379248D01*
X18855012Y-69379256D01*
X18855436Y-69384368D01*
X18856693Y-69389335D01*
X18856695Y-69389342D01*
X18888799Y-69516116D01*
X18910704Y-69602616D01*
X18912764Y-69607312D01*
X18999080Y-69804096D01*
X18999083Y-69804101D01*
X19001140Y-69808791D01*
X19056054Y-69892843D01*
X19121474Y-69992977D01*
X19121477Y-69992981D01*
X19124278Y-69997268D01*
X19127752Y-70001041D01*
X19127753Y-70001043D01*
X19273288Y-70159135D01*
X19273291Y-70159138D01*
X19276760Y-70162906D01*
X19280801Y-70166051D01*
X19450376Y-70298039D01*
X19450381Y-70298042D01*
X19454424Y-70301189D01*
X19458931Y-70303628D01*
X19458934Y-70303630D01*
X19487079Y-70318861D01*
X19652426Y-70408342D01*
X19865365Y-70481444D01*
X20087431Y-70518500D01*
X20307436Y-70518500D01*
X20312569Y-70518500D01*
X20534635Y-70481444D01*
X20747574Y-70408342D01*
X20945576Y-70301189D01*
X21123240Y-70162906D01*
X21275722Y-69997268D01*
X21398860Y-69808791D01*
X21407280Y-69789596D01*
X63595687Y-69789596D01*
X63596181Y-69794093D01*
X63596182Y-69794098D01*
X63619773Y-70008500D01*
X63626114Y-70066124D01*
X63627259Y-70070504D01*
X63627261Y-70070514D01*
X63662458Y-70205142D01*
X63696480Y-70335276D01*
X63698245Y-70339430D01*
X63698248Y-70339438D01*
X63803512Y-70587145D01*
X63805284Y-70591314D01*
X63950208Y-70828781D01*
X64128163Y-71042617D01*
X64131538Y-71045641D01*
X64131539Y-71045642D01*
X64239073Y-71141993D01*
X64335357Y-71228263D01*
X64567373Y-71381763D01*
X64819267Y-71499846D01*
X65085669Y-71579995D01*
X65360901Y-71620500D01*
X65567201Y-71620500D01*
X65569463Y-71620500D01*
X65777455Y-71605277D01*
X66048997Y-71544788D01*
X66308838Y-71445408D01*
X66551440Y-71309253D01*
X66771632Y-71139226D01*
X66964722Y-70938951D01*
X67126593Y-70712696D01*
X67253797Y-70465283D01*
X67343621Y-70201986D01*
X67394152Y-69928416D01*
X67404313Y-69650404D01*
X67373886Y-69373876D01*
X67303520Y-69104724D01*
X67194716Y-68848686D01*
X67049792Y-68611219D01*
X66871837Y-68397383D01*
X66868460Y-68394357D01*
X66668023Y-68214765D01*
X66668019Y-68214761D01*
X66664643Y-68211737D01*
X66432627Y-68058237D01*
X66428533Y-68056317D01*
X66428528Y-68056315D01*
X66184834Y-67942076D01*
X66184828Y-67942073D01*
X66180733Y-67940154D01*
X66176394Y-67938848D01*
X66176390Y-67938847D01*
X65918677Y-67861312D01*
X65918670Y-67861310D01*
X65914331Y-67860005D01*
X65909852Y-67859345D01*
X65909844Y-67859344D01*
X65643573Y-67820158D01*
X65643567Y-67820157D01*
X65639099Y-67819500D01*
X65430537Y-67819500D01*
X65428288Y-67819664D01*
X65428277Y-67819665D01*
X65227075Y-67834391D01*
X65227068Y-67834391D01*
X65222545Y-67834723D01*
X65218120Y-67835708D01*
X65218111Y-67835710D01*
X64955434Y-67894224D01*
X64955421Y-67894227D01*
X64951003Y-67895212D01*
X64946774Y-67896829D01*
X64946762Y-67896833D01*
X64695393Y-67992973D01*
X64695383Y-67992977D01*
X64691162Y-67994592D01*
X64687221Y-67996803D01*
X64687212Y-67996808D01*
X64452511Y-68128529D01*
X64452505Y-68128532D01*
X64448560Y-68130747D01*
X64444989Y-68133504D01*
X64444976Y-68133513D01*
X64231952Y-68298006D01*
X64231947Y-68298009D01*
X64228368Y-68300774D01*
X64225221Y-68304037D01*
X64225221Y-68304038D01*
X64038427Y-68497782D01*
X64038421Y-68497788D01*
X64035278Y-68501049D01*
X64032639Y-68504737D01*
X64032637Y-68504740D01*
X63876046Y-68723614D01*
X63876040Y-68723623D01*
X63873407Y-68727304D01*
X63871334Y-68731334D01*
X63871332Y-68731339D01*
X63748277Y-68970681D01*
X63748271Y-68970692D01*
X63746203Y-68974717D01*
X63744743Y-68978996D01*
X63744739Y-68979006D01*
X63657840Y-69233730D01*
X63656379Y-69238014D01*
X63655556Y-69242467D01*
X63655556Y-69242469D01*
X63606671Y-69507123D01*
X63606669Y-69507136D01*
X63605848Y-69511584D01*
X63605682Y-69516111D01*
X63605682Y-69516116D01*
X63595901Y-69783754D01*
X63595687Y-69789596D01*
X21407280Y-69789596D01*
X21489296Y-69602616D01*
X21544564Y-69384368D01*
X21563156Y-69160000D01*
X21544564Y-68935632D01*
X21489296Y-68717384D01*
X21398860Y-68511209D01*
X21275722Y-68322732D01*
X21250533Y-68295370D01*
X21126711Y-68160864D01*
X21126708Y-68160861D01*
X21123240Y-68157094D01*
X21110597Y-68147253D01*
X20949623Y-68021960D01*
X20949615Y-68021955D01*
X20945576Y-68018811D01*
X20941064Y-68016369D01*
X20941061Y-68016367D01*
X20909070Y-67999055D01*
X20861564Y-67953474D01*
X20844086Y-67890000D01*
X20861564Y-67826526D01*
X20909070Y-67780945D01*
X20909109Y-67780923D01*
X20945576Y-67761189D01*
X21123240Y-67622906D01*
X21275722Y-67457268D01*
X21398860Y-67268791D01*
X21489296Y-67062616D01*
X21544564Y-66844368D01*
X21563156Y-66620000D01*
X21544564Y-66395632D01*
X21489296Y-66177384D01*
X21398860Y-65971209D01*
X21275722Y-65782732D01*
X21123240Y-65617094D01*
X21110597Y-65607253D01*
X20949623Y-65481960D01*
X20949615Y-65481955D01*
X20945576Y-65478811D01*
X20941064Y-65476369D01*
X20941061Y-65476367D01*
X20909070Y-65459055D01*
X20861564Y-65413474D01*
X20844086Y-65350000D01*
X20861564Y-65286526D01*
X20909070Y-65240945D01*
X20909109Y-65240923D01*
X20945576Y-65221189D01*
X21123240Y-65082906D01*
X21275722Y-64917268D01*
X21398860Y-64728791D01*
X21489296Y-64522616D01*
X21544564Y-64304368D01*
X21563156Y-64080000D01*
X21544564Y-63855632D01*
X21489296Y-63637384D01*
X21398860Y-63431209D01*
X21275722Y-63242732D01*
X21239858Y-63203774D01*
X21126711Y-63080864D01*
X21126708Y-63080861D01*
X21123240Y-63077094D01*
X21048349Y-63018803D01*
X20949623Y-62941960D01*
X20949615Y-62941955D01*
X20945576Y-62938811D01*
X20941071Y-62936373D01*
X20941065Y-62936369D01*
X20902305Y-62915394D01*
X20856665Y-62872844D01*
X20837526Y-62813454D01*
X20849734Y-62752263D01*
X20890198Y-62704764D01*
X21066643Y-62581215D01*
X21074909Y-62574278D01*
X21234278Y-62414909D01*
X21241215Y-62406643D01*
X21370498Y-62222008D01*
X21375886Y-62212676D01*
X21471143Y-62008397D01*
X21474831Y-61998263D01*
X21517346Y-61839596D01*
X63595687Y-61839596D01*
X63596181Y-61844093D01*
X63596182Y-61844098D01*
X63618108Y-62043369D01*
X63626114Y-62116124D01*
X63627259Y-62120504D01*
X63627261Y-62120514D01*
X63691366Y-62365716D01*
X63696480Y-62385276D01*
X63698245Y-62389430D01*
X63698248Y-62389438D01*
X63803175Y-62636351D01*
X63805284Y-62641314D01*
X63807641Y-62645176D01*
X63946584Y-62872844D01*
X63950208Y-62878781D01*
X63953106Y-62882264D01*
X63953108Y-62882266D01*
X64115245Y-63077094D01*
X64128163Y-63092617D01*
X64131538Y-63095641D01*
X64131539Y-63095642D01*
X64300489Y-63247022D01*
X64335357Y-63278263D01*
X64567373Y-63431763D01*
X64819267Y-63549846D01*
X65085669Y-63629995D01*
X65360901Y-63670500D01*
X65567201Y-63670500D01*
X65569463Y-63670500D01*
X65777455Y-63655277D01*
X66048997Y-63594788D01*
X66308838Y-63495408D01*
X66551440Y-63359253D01*
X66771632Y-63189226D01*
X66964722Y-62988951D01*
X67126593Y-62762696D01*
X67253797Y-62515283D01*
X67343621Y-62251986D01*
X67394152Y-61978416D01*
X67404313Y-61700404D01*
X67373886Y-61423876D01*
X67303520Y-61154724D01*
X67194716Y-60898686D01*
X67049792Y-60661219D01*
X66871837Y-60447383D01*
X66791314Y-60375234D01*
X66668023Y-60264765D01*
X66668019Y-60264761D01*
X66664643Y-60261737D01*
X66432627Y-60108237D01*
X66428533Y-60106317D01*
X66428528Y-60106315D01*
X66184834Y-59992076D01*
X66184828Y-59992073D01*
X66180733Y-59990154D01*
X66176394Y-59988848D01*
X66176390Y-59988847D01*
X65918677Y-59911312D01*
X65918670Y-59911310D01*
X65914331Y-59910005D01*
X65909852Y-59909345D01*
X65909844Y-59909344D01*
X65643573Y-59870158D01*
X65643567Y-59870157D01*
X65639099Y-59869500D01*
X65430537Y-59869500D01*
X65428288Y-59869664D01*
X65428277Y-59869665D01*
X65227075Y-59884391D01*
X65227068Y-59884391D01*
X65222545Y-59884723D01*
X65218120Y-59885708D01*
X65218111Y-59885710D01*
X64955434Y-59944224D01*
X64955421Y-59944227D01*
X64951003Y-59945212D01*
X64946774Y-59946829D01*
X64946762Y-59946833D01*
X64695393Y-60042973D01*
X64695383Y-60042977D01*
X64691162Y-60044592D01*
X64687221Y-60046803D01*
X64687212Y-60046808D01*
X64452511Y-60178529D01*
X64452505Y-60178532D01*
X64448560Y-60180747D01*
X64444989Y-60183504D01*
X64444976Y-60183513D01*
X64231952Y-60348006D01*
X64231947Y-60348009D01*
X64228368Y-60350774D01*
X64225221Y-60354037D01*
X64225221Y-60354038D01*
X64038427Y-60547782D01*
X64038421Y-60547788D01*
X64035278Y-60551049D01*
X64032639Y-60554737D01*
X64032637Y-60554740D01*
X63876046Y-60773614D01*
X63876040Y-60773623D01*
X63873407Y-60777304D01*
X63871334Y-60781334D01*
X63871332Y-60781339D01*
X63748277Y-61020681D01*
X63748271Y-61020692D01*
X63746203Y-61024717D01*
X63744743Y-61028996D01*
X63744739Y-61029006D01*
X63657840Y-61283730D01*
X63656379Y-61288014D01*
X63655556Y-61292467D01*
X63655556Y-61292469D01*
X63606671Y-61557123D01*
X63606669Y-61557136D01*
X63605848Y-61561584D01*
X63605682Y-61566111D01*
X63605682Y-61566116D01*
X63597117Y-61800476D01*
X63595687Y-61839596D01*
X21517346Y-61839596D01*
X21526943Y-61803780D01*
X21527311Y-61792551D01*
X21516369Y-61790000D01*
X18883631Y-61790000D01*
X18872688Y-61792551D01*
X18873056Y-61803780D01*
X18925168Y-61998263D01*
X18928856Y-62008397D01*
X19024113Y-62212676D01*
X19029501Y-62222008D01*
X19158784Y-62406643D01*
X19165721Y-62414909D01*
X19325090Y-62574278D01*
X19333356Y-62581215D01*
X19509801Y-62704764D01*
X19550264Y-62752263D01*
X19562473Y-62813454D01*
X19543334Y-62872844D01*
X19497695Y-62915393D01*
X19458939Y-62936366D01*
X19458924Y-62936375D01*
X19454424Y-62938811D01*
X19450389Y-62941951D01*
X19450376Y-62941960D01*
X19280801Y-63073948D01*
X19280795Y-63073952D01*
X19276760Y-63077094D01*
X19273297Y-63080855D01*
X19273288Y-63080864D01*
X19127753Y-63238956D01*
X19127747Y-63238963D01*
X19124278Y-63242732D01*
X19121481Y-63247012D01*
X19121474Y-63247022D01*
X19003942Y-63426920D01*
X19001140Y-63431209D01*
X18999085Y-63435892D01*
X18999080Y-63435903D01*
X18912764Y-63632687D01*
X18910704Y-63637384D01*
X18909446Y-63642349D01*
X18909445Y-63642354D01*
X18856695Y-63850657D01*
X18856693Y-63850666D01*
X18855436Y-63855632D01*
X18855012Y-63860741D01*
X18855011Y-63860751D01*
X18839114Y-64052609D01*
X18836844Y-64080000D01*
X18837268Y-64085117D01*
X18855011Y-64299248D01*
X18855012Y-64299256D01*
X18855436Y-64304368D01*
X18856693Y-64309335D01*
X18856695Y-64309342D01*
X18909445Y-64517645D01*
X18910704Y-64522616D01*
X18912764Y-64527312D01*
X18999080Y-64724096D01*
X18999083Y-64724101D01*
X19001140Y-64728791D01*
X19044638Y-64795370D01*
X19121474Y-64912977D01*
X19121477Y-64912981D01*
X19124278Y-64917268D01*
X19127752Y-64921041D01*
X19127753Y-64921043D01*
X19273288Y-65079135D01*
X19273291Y-65079138D01*
X19276760Y-65082906D01*
X19280801Y-65086051D01*
X19450376Y-65218039D01*
X19450381Y-65218042D01*
X19454424Y-65221189D01*
X19458931Y-65223628D01*
X19458934Y-65223630D01*
X19490930Y-65240945D01*
X19538436Y-65286526D01*
X19555913Y-65350000D01*
X19538436Y-65413474D01*
X19490930Y-65459055D01*
X19458934Y-65476369D01*
X19458922Y-65476376D01*
X19454424Y-65478811D01*
X19450389Y-65481951D01*
X19450376Y-65481960D01*
X19280801Y-65613948D01*
X19280795Y-65613952D01*
X19276760Y-65617094D01*
X19273297Y-65620855D01*
X19273288Y-65620864D01*
X19127753Y-65778956D01*
X19127747Y-65778963D01*
X19124278Y-65782732D01*
X19121481Y-65787012D01*
X19121474Y-65787022D01*
X19004978Y-65965334D01*
X19001140Y-65971209D01*
X18999085Y-65975892D01*
X18999080Y-65975903D01*
X18926173Y-66142118D01*
X18910704Y-66177384D01*
X18909446Y-66182349D01*
X18909445Y-66182354D01*
X18856695Y-66390657D01*
X18856693Y-66390666D01*
X18855436Y-66395632D01*
X18855012Y-66400741D01*
X18855011Y-66400751D01*
X18839206Y-66591500D01*
X18836844Y-66620000D01*
X18837268Y-66625117D01*
X18855011Y-66839248D01*
X18855012Y-66839256D01*
X18855436Y-66844368D01*
X18856693Y-66849335D01*
X18856695Y-66849342D01*
X18909445Y-67057645D01*
X18910704Y-67062616D01*
X18912764Y-67067312D01*
X18999080Y-67264096D01*
X18999083Y-67264101D01*
X19001140Y-67268791D01*
X19041941Y-67331242D01*
X19121474Y-67452977D01*
X19121477Y-67452981D01*
X19124278Y-67457268D01*
X19127752Y-67461041D01*
X19127753Y-67461043D01*
X19273288Y-67619135D01*
X19273291Y-67619138D01*
X19276760Y-67622906D01*
X19280801Y-67626051D01*
X19450376Y-67758039D01*
X19450381Y-67758042D01*
X19454424Y-67761189D01*
X19458931Y-67763628D01*
X19458934Y-67763630D01*
X19490930Y-67780945D01*
X19538436Y-67826526D01*
X19555913Y-67890000D01*
X19538436Y-67953474D01*
X19490930Y-67999055D01*
X19458934Y-68016369D01*
X19458922Y-68016376D01*
X19454424Y-68018811D01*
X19450389Y-68021951D01*
X19450376Y-68021960D01*
X19280801Y-68153948D01*
X19280795Y-68153952D01*
X19276760Y-68157094D01*
X19273297Y-68160855D01*
X19273288Y-68160864D01*
X19127753Y-68318956D01*
X19127747Y-68318963D01*
X19124278Y-68322732D01*
X19121481Y-68327012D01*
X19121474Y-68327022D01*
X19009912Y-68497782D01*
X19001140Y-68511209D01*
X18999085Y-68515892D01*
X18999080Y-68515903D01*
X18912764Y-68712687D01*
X18910704Y-68717384D01*
X18909446Y-68722349D01*
X18909445Y-68722354D01*
X18856695Y-68930657D01*
X18856693Y-68930666D01*
X18855436Y-68935632D01*
X18855012Y-68940741D01*
X18855011Y-68940751D01*
X18846508Y-69043369D01*
X18836844Y-69160000D01*
X12900500Y-69160000D01*
X12900500Y-59000000D01*
X18836844Y-59000000D01*
X18837268Y-59005117D01*
X18855011Y-59219248D01*
X18855012Y-59219256D01*
X18855436Y-59224368D01*
X18856693Y-59229335D01*
X18856695Y-59229342D01*
X18898610Y-59394858D01*
X18910704Y-59442616D01*
X18912764Y-59447312D01*
X18999080Y-59644096D01*
X18999083Y-59644101D01*
X19001140Y-59648791D01*
X19037062Y-59703774D01*
X19121474Y-59832977D01*
X19121477Y-59832981D01*
X19124278Y-59837268D01*
X19127752Y-59841041D01*
X19127753Y-59841043D01*
X19273288Y-59999135D01*
X19273291Y-59999138D01*
X19276760Y-60002906D01*
X19280801Y-60006051D01*
X19450376Y-60138039D01*
X19450381Y-60138042D01*
X19454424Y-60141189D01*
X19497691Y-60164604D01*
X19497695Y-60164606D01*
X19543335Y-60207155D01*
X19562475Y-60266545D01*
X19550267Y-60327737D01*
X19509803Y-60375236D01*
X19333352Y-60498788D01*
X19325092Y-60505719D01*
X19165719Y-60665092D01*
X19158784Y-60673357D01*
X19029508Y-60857982D01*
X19024110Y-60867332D01*
X18928856Y-61071602D01*
X18925168Y-61081736D01*
X18873056Y-61276219D01*
X18872688Y-61287448D01*
X18883631Y-61290000D01*
X21516369Y-61290000D01*
X21527311Y-61287448D01*
X21526943Y-61276219D01*
X21474831Y-61081736D01*
X21471143Y-61071602D01*
X21375889Y-60867332D01*
X21370491Y-60857982D01*
X21241215Y-60673357D01*
X21234280Y-60665092D01*
X21074909Y-60505721D01*
X21066635Y-60498778D01*
X20890198Y-60375234D01*
X20849734Y-60327735D01*
X20837526Y-60266543D01*
X20856666Y-60207153D01*
X20902304Y-60164606D01*
X20945576Y-60141189D01*
X21123240Y-60002906D01*
X21275722Y-59837268D01*
X21398860Y-59648791D01*
X21489296Y-59442616D01*
X21544564Y-59224368D01*
X21563156Y-59000000D01*
X21544564Y-58775632D01*
X21489296Y-58557384D01*
X21398860Y-58351209D01*
X21275722Y-58162732D01*
X21130506Y-58004987D01*
X21101735Y-57952239D01*
X21101142Y-57892152D01*
X21128869Y-57838841D01*
X21178404Y-57804826D01*
X21296204Y-57760889D01*
X21413261Y-57673261D01*
X21500889Y-57556204D01*
X21551989Y-57419201D01*
X21558500Y-57358638D01*
X21558500Y-55561362D01*
X21551989Y-55500799D01*
X21500889Y-55363796D01*
X21413261Y-55246739D01*
X21398863Y-55235961D01*
X21303304Y-55164426D01*
X21303303Y-55164425D01*
X21296204Y-55159111D01*
X21287896Y-55156012D01*
X21287894Y-55156011D01*
X21166463Y-55110719D01*
X21166458Y-55110717D01*
X21159201Y-55108011D01*
X21151497Y-55107182D01*
X21151494Y-55107182D01*
X21101924Y-55101853D01*
X21101918Y-55101852D01*
X21098638Y-55101500D01*
X19301362Y-55101500D01*
X19298082Y-55101852D01*
X19298075Y-55101853D01*
X19248505Y-55107182D01*
X19248500Y-55107182D01*
X19240799Y-55108011D01*
X19233543Y-55110717D01*
X19233536Y-55110719D01*
X19112105Y-55156011D01*
X19112099Y-55156013D01*
X19103796Y-55159111D01*
X19096698Y-55164423D01*
X19096695Y-55164426D01*
X18993835Y-55241426D01*
X18993831Y-55241429D01*
X18986739Y-55246739D01*
X18981429Y-55253831D01*
X18981426Y-55253835D01*
X18904426Y-55356695D01*
X18904423Y-55356698D01*
X18899111Y-55363796D01*
X18896013Y-55372099D01*
X18896011Y-55372105D01*
X18850719Y-55493536D01*
X18850717Y-55493543D01*
X18848011Y-55500799D01*
X18847182Y-55508500D01*
X18847182Y-55508505D01*
X18843215Y-55545408D01*
X18841500Y-55561362D01*
X18841500Y-57358638D01*
X18848011Y-57419201D01*
X18850717Y-57426458D01*
X18850719Y-57426463D01*
X18894800Y-57544647D01*
X18899111Y-57556204D01*
X18986739Y-57673261D01*
X19103796Y-57760889D01*
X19221595Y-57804826D01*
X19271130Y-57838841D01*
X19298857Y-57892152D01*
X19298264Y-57952238D01*
X19269490Y-58004991D01*
X19127753Y-58158956D01*
X19127747Y-58158963D01*
X19124278Y-58162732D01*
X19121481Y-58167012D01*
X19121474Y-58167022D01*
X19034285Y-58300476D01*
X19001140Y-58351209D01*
X18999085Y-58355892D01*
X18999080Y-58355903D01*
X18912764Y-58552687D01*
X18910704Y-58557384D01*
X18909446Y-58562349D01*
X18909445Y-58562354D01*
X18856695Y-58770657D01*
X18856693Y-58770666D01*
X18855436Y-58775632D01*
X18855012Y-58780741D01*
X18855011Y-58780751D01*
X18839455Y-58968489D01*
X18836844Y-59000000D01*
X12900500Y-59000000D01*
X12900500Y-53889596D01*
X63595687Y-53889596D01*
X63596181Y-53894093D01*
X63596182Y-53894098D01*
X63613256Y-54049272D01*
X63626114Y-54166124D01*
X63627259Y-54170504D01*
X63627261Y-54170514D01*
X63660468Y-54297530D01*
X63696480Y-54435276D01*
X63698245Y-54439430D01*
X63698248Y-54439438D01*
X63753441Y-54569318D01*
X63805284Y-54691314D01*
X63950208Y-54928781D01*
X64128163Y-55142617D01*
X64131538Y-55145641D01*
X64131539Y-55145642D01*
X64260411Y-55261112D01*
X64335357Y-55328263D01*
X64567373Y-55481763D01*
X64819267Y-55599846D01*
X65085669Y-55679995D01*
X65360901Y-55720500D01*
X65567201Y-55720500D01*
X65569463Y-55720500D01*
X65777455Y-55705277D01*
X66048997Y-55644788D01*
X66308838Y-55545408D01*
X66551440Y-55409253D01*
X66771632Y-55239226D01*
X66964722Y-55038951D01*
X67126593Y-54812696D01*
X67253797Y-54565283D01*
X67343621Y-54301986D01*
X67394152Y-54028416D01*
X67404313Y-53750404D01*
X67373886Y-53473876D01*
X67303520Y-53204724D01*
X67194716Y-52948686D01*
X67049792Y-52711219D01*
X66871837Y-52497383D01*
X66798316Y-52431508D01*
X66668023Y-52314765D01*
X66668019Y-52314761D01*
X66664643Y-52311737D01*
X66432627Y-52158237D01*
X66428533Y-52156317D01*
X66428528Y-52156315D01*
X66184834Y-52042076D01*
X66184828Y-52042073D01*
X66180733Y-52040154D01*
X66176394Y-52038848D01*
X66176390Y-52038847D01*
X65918677Y-51961312D01*
X65918670Y-51961310D01*
X65914331Y-51960005D01*
X65909852Y-51959345D01*
X65909844Y-51959344D01*
X65643573Y-51920158D01*
X65643567Y-51920157D01*
X65639099Y-51919500D01*
X65430537Y-51919500D01*
X65428288Y-51919664D01*
X65428277Y-51919665D01*
X65227075Y-51934391D01*
X65227068Y-51934391D01*
X65222545Y-51934723D01*
X65218120Y-51935708D01*
X65218111Y-51935710D01*
X64955434Y-51994224D01*
X64955421Y-51994227D01*
X64951003Y-51995212D01*
X64946774Y-51996829D01*
X64946762Y-51996833D01*
X64695393Y-52092973D01*
X64695383Y-52092977D01*
X64691162Y-52094592D01*
X64687221Y-52096803D01*
X64687212Y-52096808D01*
X64452511Y-52228529D01*
X64452505Y-52228532D01*
X64448560Y-52230747D01*
X64444989Y-52233504D01*
X64444976Y-52233513D01*
X64231952Y-52398006D01*
X64231947Y-52398009D01*
X64228368Y-52400774D01*
X64225221Y-52404037D01*
X64225221Y-52404038D01*
X64038427Y-52597782D01*
X64038421Y-52597788D01*
X64035278Y-52601049D01*
X64032639Y-52604737D01*
X64032637Y-52604740D01*
X63876046Y-52823614D01*
X63876040Y-52823623D01*
X63873407Y-52827304D01*
X63871334Y-52831334D01*
X63871332Y-52831339D01*
X63748277Y-53070681D01*
X63748271Y-53070692D01*
X63746203Y-53074717D01*
X63744743Y-53078996D01*
X63744739Y-53079006D01*
X63700358Y-53209099D01*
X63656379Y-53338014D01*
X63655556Y-53342467D01*
X63655556Y-53342469D01*
X63606671Y-53607123D01*
X63606669Y-53607136D01*
X63605848Y-53611584D01*
X63605682Y-53616111D01*
X63605682Y-53616116D01*
X63600609Y-53754931D01*
X63595687Y-53889596D01*
X12900500Y-53889596D01*
X12900500Y-51294518D01*
X14050000Y-51294518D01*
X14050353Y-51301114D01*
X14055573Y-51349667D01*
X14059111Y-51364641D01*
X14103547Y-51483777D01*
X14111962Y-51499189D01*
X14187498Y-51600092D01*
X14199907Y-51612501D01*
X14300810Y-51688037D01*
X14316222Y-51696452D01*
X14435358Y-51740888D01*
X14450332Y-51744426D01*
X14498885Y-51749646D01*
X14505482Y-51750000D01*
X15133674Y-51750000D01*
X15146549Y-51746549D01*
X15150000Y-51733674D01*
X15650000Y-51733674D01*
X15653450Y-51746549D01*
X15666326Y-51750000D01*
X16294518Y-51750000D01*
X16301114Y-51749646D01*
X16349667Y-51744426D01*
X16364641Y-51740888D01*
X16483777Y-51696452D01*
X16499189Y-51688037D01*
X16600092Y-51612501D01*
X16612501Y-51600092D01*
X16688037Y-51499189D01*
X16696452Y-51483777D01*
X16740888Y-51364641D01*
X16744426Y-51349667D01*
X16749646Y-51301114D01*
X16750000Y-51294518D01*
X16750000Y-50666326D01*
X16746549Y-50653450D01*
X16733674Y-50650000D01*
X15666326Y-50650000D01*
X15653450Y-50653450D01*
X15650000Y-50666326D01*
X15650000Y-51733674D01*
X15150000Y-51733674D01*
X15150000Y-50666326D01*
X15146549Y-50653450D01*
X15133674Y-50650000D01*
X14066326Y-50650000D01*
X14053450Y-50653450D01*
X14050000Y-50666326D01*
X14050000Y-51294518D01*
X12900500Y-51294518D01*
X12900500Y-50133674D01*
X14050000Y-50133674D01*
X14053450Y-50146549D01*
X14066326Y-50150000D01*
X15133674Y-50150000D01*
X15146549Y-50146549D01*
X15150000Y-50133674D01*
X15650000Y-50133674D01*
X15653450Y-50146549D01*
X15666326Y-50150000D01*
X16733674Y-50150000D01*
X16746549Y-50146549D01*
X16750000Y-50133674D01*
X16750000Y-49505482D01*
X16749646Y-49498885D01*
X16744426Y-49450332D01*
X16740888Y-49435358D01*
X16696452Y-49316222D01*
X16688037Y-49300810D01*
X16612501Y-49199907D01*
X16600092Y-49187498D01*
X16499189Y-49111962D01*
X16483777Y-49103547D01*
X16364641Y-49059111D01*
X16349667Y-49055573D01*
X16301114Y-49050353D01*
X16294518Y-49050000D01*
X15666326Y-49050000D01*
X15653450Y-49053450D01*
X15650000Y-49066326D01*
X15650000Y-50133674D01*
X15150000Y-50133674D01*
X15150000Y-49066326D01*
X15146549Y-49053450D01*
X15133674Y-49050000D01*
X14505482Y-49050000D01*
X14498885Y-49050353D01*
X14450332Y-49055573D01*
X14435358Y-49059111D01*
X14316222Y-49103547D01*
X14300810Y-49111962D01*
X14199907Y-49187498D01*
X14187498Y-49199907D01*
X14111962Y-49300810D01*
X14103547Y-49316222D01*
X14059111Y-49435358D01*
X14055573Y-49450332D01*
X14050353Y-49498885D01*
X14050000Y-49505482D01*
X14050000Y-50133674D01*
X12900500Y-50133674D01*
X12900500Y-47698638D01*
X14041500Y-47698638D01*
X14048011Y-47759201D01*
X14050717Y-47766458D01*
X14050719Y-47766463D01*
X14096011Y-47887894D01*
X14099111Y-47896204D01*
X14186739Y-48013261D01*
X14303796Y-48100889D01*
X14440799Y-48151989D01*
X14501362Y-48158500D01*
X16295328Y-48158500D01*
X16298638Y-48158500D01*
X16359201Y-48151989D01*
X16496204Y-48100889D01*
X16613261Y-48013261D01*
X16700889Y-47896204D01*
X16751989Y-47759201D01*
X16758500Y-47698638D01*
X16758500Y-45901362D01*
X16751989Y-45840799D01*
X16700889Y-45703796D01*
X16613261Y-45586739D01*
X16496204Y-45499111D01*
X16487896Y-45496012D01*
X16487894Y-45496011D01*
X16366463Y-45450719D01*
X16366458Y-45450717D01*
X16359201Y-45448011D01*
X16351497Y-45447182D01*
X16351494Y-45447182D01*
X16301924Y-45441853D01*
X16301918Y-45441852D01*
X16298638Y-45441500D01*
X14501362Y-45441500D01*
X14498082Y-45441852D01*
X14498075Y-45441853D01*
X14448505Y-45447182D01*
X14448500Y-45447182D01*
X14440799Y-45448011D01*
X14433543Y-45450717D01*
X14433536Y-45450719D01*
X14312105Y-45496011D01*
X14312099Y-45496013D01*
X14303796Y-45499111D01*
X14296698Y-45504423D01*
X14296695Y-45504426D01*
X14193835Y-45581426D01*
X14193831Y-45581429D01*
X14186739Y-45586739D01*
X14181429Y-45593831D01*
X14181426Y-45593835D01*
X14104426Y-45696695D01*
X14104423Y-45696698D01*
X14099111Y-45703796D01*
X14096013Y-45712099D01*
X14096011Y-45712105D01*
X14050719Y-45833536D01*
X14050717Y-45833543D01*
X14048011Y-45840799D01*
X14047182Y-45848500D01*
X14047182Y-45848505D01*
X14041853Y-45898075D01*
X14041500Y-45901362D01*
X14041500Y-47698638D01*
X12900500Y-47698638D01*
X12900500Y-44098638D01*
X14041500Y-44098638D01*
X14048011Y-44159201D01*
X14050717Y-44166458D01*
X14050719Y-44166463D01*
X14080226Y-44245573D01*
X14099111Y-44296204D01*
X14104425Y-44303303D01*
X14104426Y-44303304D01*
X14176258Y-44399261D01*
X14186739Y-44413261D01*
X14303796Y-44500889D01*
X14440799Y-44551989D01*
X14501362Y-44558500D01*
X16295328Y-44558500D01*
X16298638Y-44558500D01*
X16359201Y-44551989D01*
X16496204Y-44500889D01*
X16613261Y-44413261D01*
X16700889Y-44296204D01*
X16751989Y-44159201D01*
X16758500Y-44098638D01*
X16758500Y-43978638D01*
X24881500Y-43978638D01*
X24888011Y-44039201D01*
X24890717Y-44046458D01*
X24890719Y-44046463D01*
X24936011Y-44167894D01*
X24939111Y-44176204D01*
X24944425Y-44183303D01*
X24944426Y-44183304D01*
X24997339Y-44253988D01*
X25026739Y-44293261D01*
X25143796Y-44380889D01*
X25280799Y-44431989D01*
X25341362Y-44438500D01*
X27295328Y-44438500D01*
X27298638Y-44438500D01*
X27359201Y-44431989D01*
X27496204Y-44380889D01*
X27613261Y-44293261D01*
X27700889Y-44176204D01*
X27715712Y-44136461D01*
X27747825Y-44088645D01*
X27798078Y-44060495D01*
X27855628Y-44058088D01*
X27908056Y-44081942D01*
X28066464Y-44205236D01*
X28066472Y-44205241D01*
X28070519Y-44208391D01*
X28280181Y-44321855D01*
X28505659Y-44399261D01*
X28740802Y-44438500D01*
X28974065Y-44438500D01*
X28979198Y-44438500D01*
X29214341Y-44399261D01*
X29439819Y-44321855D01*
X29649481Y-44208391D01*
X29837609Y-44061966D01*
X29999069Y-43886573D01*
X30026190Y-43845060D01*
X30070979Y-43803827D01*
X30129997Y-43788881D01*
X30189015Y-43803825D01*
X30233807Y-43845058D01*
X30258127Y-43882282D01*
X30258129Y-43882285D01*
X30260931Y-43886573D01*
X30422391Y-44061966D01*
X30610519Y-44208391D01*
X30820181Y-44321855D01*
X31045659Y-44399261D01*
X31280802Y-44438500D01*
X31514065Y-44438500D01*
X31519198Y-44438500D01*
X31754341Y-44399261D01*
X31979819Y-44321855D01*
X32189481Y-44208391D01*
X32377609Y-44061966D01*
X32454318Y-43978638D01*
X39481500Y-43978638D01*
X39488011Y-44039201D01*
X39490717Y-44046458D01*
X39490719Y-44046463D01*
X39536011Y-44167894D01*
X39539111Y-44176204D01*
X39544425Y-44183303D01*
X39544426Y-44183304D01*
X39597339Y-44253988D01*
X39626739Y-44293261D01*
X39743796Y-44380889D01*
X39880799Y-44431989D01*
X39941362Y-44438500D01*
X41895328Y-44438500D01*
X41898638Y-44438500D01*
X41959201Y-44431989D01*
X42096204Y-44380889D01*
X42213261Y-44293261D01*
X42300889Y-44176204D01*
X42315712Y-44136461D01*
X42347825Y-44088645D01*
X42398078Y-44060495D01*
X42455628Y-44058088D01*
X42508056Y-44081942D01*
X42666464Y-44205236D01*
X42666472Y-44205241D01*
X42670519Y-44208391D01*
X42880181Y-44321855D01*
X43105659Y-44399261D01*
X43340802Y-44438500D01*
X43574065Y-44438500D01*
X43579198Y-44438500D01*
X43814341Y-44399261D01*
X44039819Y-44321855D01*
X44249481Y-44208391D01*
X44437609Y-44061966D01*
X44599069Y-43886573D01*
X44626190Y-43845060D01*
X44670979Y-43803827D01*
X44729997Y-43788881D01*
X44789015Y-43803825D01*
X44833807Y-43845058D01*
X44858127Y-43882282D01*
X44858129Y-43882285D01*
X44860931Y-43886573D01*
X45022391Y-44061966D01*
X45210519Y-44208391D01*
X45420181Y-44321855D01*
X45645659Y-44399261D01*
X45880802Y-44438500D01*
X46114065Y-44438500D01*
X46119198Y-44438500D01*
X46354341Y-44399261D01*
X46579819Y-44321855D01*
X46789481Y-44208391D01*
X46977609Y-44061966D01*
X47139069Y-43886573D01*
X47163853Y-43848638D01*
X103891500Y-43848638D01*
X103891852Y-43851918D01*
X103891853Y-43851924D01*
X103895983Y-43890342D01*
X103898011Y-43909201D01*
X103900717Y-43916458D01*
X103900719Y-43916463D01*
X103943624Y-44031494D01*
X103949111Y-44046204D01*
X103954425Y-44053303D01*
X103954426Y-44053304D01*
X103990822Y-44101924D01*
X104036739Y-44163261D01*
X104153796Y-44250889D01*
X104290799Y-44301989D01*
X104351362Y-44308500D01*
X106845328Y-44308500D01*
X106848638Y-44308500D01*
X106909201Y-44301989D01*
X107046204Y-44250889D01*
X107163261Y-44163261D01*
X107250889Y-44046204D01*
X107301989Y-43909201D01*
X107308500Y-43848638D01*
X107308500Y-41351362D01*
X107301989Y-41290799D01*
X107250889Y-41153796D01*
X107163261Y-41036739D01*
X107046204Y-40949111D01*
X107037896Y-40946012D01*
X107037894Y-40946011D01*
X106916463Y-40900719D01*
X106916458Y-40900717D01*
X106909201Y-40898011D01*
X106901497Y-40897182D01*
X106901494Y-40897182D01*
X106851924Y-40891853D01*
X106851918Y-40891852D01*
X106848638Y-40891500D01*
X106341292Y-40891500D01*
X106277692Y-40873948D01*
X106232098Y-40826260D01*
X106217417Y-40761937D01*
X106237805Y-40699189D01*
X106287491Y-40655780D01*
X106448200Y-40578386D01*
X106456219Y-40573756D01*
X106601881Y-40474444D01*
X106609429Y-40466385D01*
X106603512Y-40457065D01*
X105611542Y-39465095D01*
X105599999Y-39458431D01*
X105588457Y-39465095D01*
X104596486Y-40457065D01*
X104590569Y-40466385D01*
X104598116Y-40474444D01*
X104743780Y-40573756D01*
X104751800Y-40578386D01*
X104912510Y-40655780D01*
X104962196Y-40699189D01*
X104982584Y-40761937D01*
X104967903Y-40826260D01*
X104922309Y-40873948D01*
X104858709Y-40891500D01*
X104351362Y-40891500D01*
X104348082Y-40891852D01*
X104348075Y-40891853D01*
X104298505Y-40897182D01*
X104298500Y-40897182D01*
X104290799Y-40898011D01*
X104283543Y-40900717D01*
X104283536Y-40900719D01*
X104162105Y-40946011D01*
X104162099Y-40946013D01*
X104153796Y-40949111D01*
X104146698Y-40954423D01*
X104146695Y-40954426D01*
X104043835Y-41031426D01*
X104043831Y-41031429D01*
X104036739Y-41036739D01*
X104031429Y-41043831D01*
X104031426Y-41043835D01*
X103954426Y-41146695D01*
X103954423Y-41146698D01*
X103949111Y-41153796D01*
X103946013Y-41162099D01*
X103946011Y-41162105D01*
X103900719Y-41283536D01*
X103900717Y-41283543D01*
X103898011Y-41290799D01*
X103897182Y-41298500D01*
X103897182Y-41298505D01*
X103891853Y-41348075D01*
X103891500Y-41351362D01*
X103891500Y-43848638D01*
X47163853Y-43848638D01*
X47269459Y-43686997D01*
X47365221Y-43468681D01*
X47423743Y-43237581D01*
X47443430Y-43000000D01*
X47423743Y-42762419D01*
X47365221Y-42531319D01*
X47269459Y-42313003D01*
X47139069Y-42113427D01*
X46977609Y-41938034D01*
X46934429Y-41904426D01*
X46793527Y-41794758D01*
X46793526Y-41794757D01*
X46789481Y-41791609D01*
X46632656Y-41706739D01*
X46584321Y-41680581D01*
X46584317Y-41680579D01*
X46579819Y-41678145D01*
X46574978Y-41676483D01*
X46574971Y-41676480D01*
X46359190Y-41602403D01*
X46359182Y-41602401D01*
X46354341Y-41600739D01*
X46349294Y-41599896D01*
X46349287Y-41599895D01*
X46124260Y-41562344D01*
X46124251Y-41562343D01*
X46119198Y-41561500D01*
X45880802Y-41561500D01*
X45875749Y-41562343D01*
X45875739Y-41562344D01*
X45650712Y-41599895D01*
X45650702Y-41599897D01*
X45645659Y-41600739D01*
X45640820Y-41602400D01*
X45640809Y-41602403D01*
X45425028Y-41676480D01*
X45425017Y-41676484D01*
X45420181Y-41678145D01*
X45415686Y-41680577D01*
X45415678Y-41680581D01*
X45215027Y-41789169D01*
X45215023Y-41789171D01*
X45210519Y-41791609D01*
X45206479Y-41794753D01*
X45206472Y-41794758D01*
X45026438Y-41934883D01*
X45026430Y-41934890D01*
X45022391Y-41938034D01*
X45018921Y-41941802D01*
X45018917Y-41941807D01*
X44864401Y-42109657D01*
X44864398Y-42109660D01*
X44860931Y-42113427D01*
X44858134Y-42117706D01*
X44858123Y-42117722D01*
X44833808Y-42154940D01*
X44789017Y-42196173D01*
X44730000Y-42211118D01*
X44670983Y-42196173D01*
X44626192Y-42154940D01*
X44601876Y-42117722D01*
X44601870Y-42117714D01*
X44599069Y-42113427D01*
X44437609Y-41938034D01*
X44394429Y-41904426D01*
X44253527Y-41794758D01*
X44253526Y-41794757D01*
X44249481Y-41791609D01*
X44092656Y-41706739D01*
X44044321Y-41680581D01*
X44044317Y-41680579D01*
X44039819Y-41678145D01*
X44034978Y-41676483D01*
X44034971Y-41676480D01*
X43819190Y-41602403D01*
X43819182Y-41602401D01*
X43814341Y-41600739D01*
X43809294Y-41599896D01*
X43809287Y-41599895D01*
X43584260Y-41562344D01*
X43584251Y-41562343D01*
X43579198Y-41561500D01*
X43340802Y-41561500D01*
X43335749Y-41562343D01*
X43335739Y-41562344D01*
X43110712Y-41599895D01*
X43110702Y-41599897D01*
X43105659Y-41600739D01*
X43100820Y-41602400D01*
X43100809Y-41602403D01*
X42885028Y-41676480D01*
X42885017Y-41676484D01*
X42880181Y-41678145D01*
X42875686Y-41680577D01*
X42875678Y-41680581D01*
X42675027Y-41789169D01*
X42675023Y-41789171D01*
X42670519Y-41791609D01*
X42666479Y-41794753D01*
X42666472Y-41794758D01*
X42508056Y-41918058D01*
X42455628Y-41941911D01*
X42398078Y-41939504D01*
X42347825Y-41911355D01*
X42315712Y-41863538D01*
X42309611Y-41847182D01*
X42300889Y-41823796D01*
X42213261Y-41706739D01*
X42096204Y-41619111D01*
X42087896Y-41616012D01*
X42087894Y-41616011D01*
X41966463Y-41570719D01*
X41966458Y-41570717D01*
X41959201Y-41568011D01*
X41951497Y-41567182D01*
X41951494Y-41567182D01*
X41901924Y-41561853D01*
X41901918Y-41561852D01*
X41898638Y-41561500D01*
X39941362Y-41561500D01*
X39938082Y-41561852D01*
X39938075Y-41561853D01*
X39888505Y-41567182D01*
X39888500Y-41567182D01*
X39880799Y-41568011D01*
X39873543Y-41570717D01*
X39873536Y-41570719D01*
X39752105Y-41616011D01*
X39752099Y-41616013D01*
X39743796Y-41619111D01*
X39736698Y-41624423D01*
X39736695Y-41624426D01*
X39633835Y-41701426D01*
X39633831Y-41701429D01*
X39626739Y-41706739D01*
X39621429Y-41713831D01*
X39621426Y-41713835D01*
X39544426Y-41816695D01*
X39544423Y-41816698D01*
X39539111Y-41823796D01*
X39536013Y-41832099D01*
X39536011Y-41832105D01*
X39490719Y-41953536D01*
X39490717Y-41953543D01*
X39488011Y-41960799D01*
X39487182Y-41968500D01*
X39487182Y-41968505D01*
X39485793Y-41981426D01*
X39481500Y-42021362D01*
X39481500Y-43978638D01*
X32454318Y-43978638D01*
X32539069Y-43886573D01*
X32669459Y-43686997D01*
X32765221Y-43468681D01*
X32823743Y-43237581D01*
X32843430Y-43000000D01*
X32823743Y-42762419D01*
X32765221Y-42531319D01*
X32669459Y-42313003D01*
X32539069Y-42113427D01*
X32377609Y-41938034D01*
X32334429Y-41904426D01*
X32193527Y-41794758D01*
X32193526Y-41794757D01*
X32189481Y-41791609D01*
X32032656Y-41706739D01*
X31984321Y-41680581D01*
X31984317Y-41680579D01*
X31979819Y-41678145D01*
X31974978Y-41676483D01*
X31974971Y-41676480D01*
X31759190Y-41602403D01*
X31759182Y-41602401D01*
X31754341Y-41600739D01*
X31749294Y-41599896D01*
X31749287Y-41599895D01*
X31524260Y-41562344D01*
X31524251Y-41562343D01*
X31519198Y-41561500D01*
X31280802Y-41561500D01*
X31275749Y-41562343D01*
X31275739Y-41562344D01*
X31050712Y-41599895D01*
X31050702Y-41599897D01*
X31045659Y-41600739D01*
X31040820Y-41602400D01*
X31040809Y-41602403D01*
X30825028Y-41676480D01*
X30825017Y-41676484D01*
X30820181Y-41678145D01*
X30815686Y-41680577D01*
X30815678Y-41680581D01*
X30615027Y-41789169D01*
X30615023Y-41789171D01*
X30610519Y-41791609D01*
X30606479Y-41794753D01*
X30606472Y-41794758D01*
X30426438Y-41934883D01*
X30426430Y-41934890D01*
X30422391Y-41938034D01*
X30418921Y-41941802D01*
X30418917Y-41941807D01*
X30264401Y-42109657D01*
X30264398Y-42109660D01*
X30260931Y-42113427D01*
X30258134Y-42117706D01*
X30258123Y-42117722D01*
X30233808Y-42154940D01*
X30189017Y-42196173D01*
X30130000Y-42211118D01*
X30070983Y-42196173D01*
X30026192Y-42154940D01*
X30001876Y-42117722D01*
X30001870Y-42117714D01*
X29999069Y-42113427D01*
X29837609Y-41938034D01*
X29794429Y-41904426D01*
X29653527Y-41794758D01*
X29653526Y-41794757D01*
X29649481Y-41791609D01*
X29492656Y-41706739D01*
X29444321Y-41680581D01*
X29444317Y-41680579D01*
X29439819Y-41678145D01*
X29434978Y-41676483D01*
X29434971Y-41676480D01*
X29219190Y-41602403D01*
X29219182Y-41602401D01*
X29214341Y-41600739D01*
X29209294Y-41599896D01*
X29209287Y-41599895D01*
X28984260Y-41562344D01*
X28984251Y-41562343D01*
X28979198Y-41561500D01*
X28740802Y-41561500D01*
X28735749Y-41562343D01*
X28735739Y-41562344D01*
X28510712Y-41599895D01*
X28510702Y-41599897D01*
X28505659Y-41600739D01*
X28500820Y-41602400D01*
X28500809Y-41602403D01*
X28285028Y-41676480D01*
X28285017Y-41676484D01*
X28280181Y-41678145D01*
X28275686Y-41680577D01*
X28275678Y-41680581D01*
X28075027Y-41789169D01*
X28075023Y-41789171D01*
X28070519Y-41791609D01*
X28066479Y-41794753D01*
X28066472Y-41794758D01*
X27908056Y-41918058D01*
X27855628Y-41941911D01*
X27798078Y-41939504D01*
X27747825Y-41911355D01*
X27715712Y-41863538D01*
X27709611Y-41847182D01*
X27700889Y-41823796D01*
X27613261Y-41706739D01*
X27496204Y-41619111D01*
X27487896Y-41616012D01*
X27487894Y-41616011D01*
X27366463Y-41570719D01*
X27366458Y-41570717D01*
X27359201Y-41568011D01*
X27351497Y-41567182D01*
X27351494Y-41567182D01*
X27301924Y-41561853D01*
X27301918Y-41561852D01*
X27298638Y-41561500D01*
X25341362Y-41561500D01*
X25338082Y-41561852D01*
X25338075Y-41561853D01*
X25288505Y-41567182D01*
X25288500Y-41567182D01*
X25280799Y-41568011D01*
X25273543Y-41570717D01*
X25273536Y-41570719D01*
X25152105Y-41616011D01*
X25152099Y-41616013D01*
X25143796Y-41619111D01*
X25136698Y-41624423D01*
X25136695Y-41624426D01*
X25033835Y-41701426D01*
X25033831Y-41701429D01*
X25026739Y-41706739D01*
X25021429Y-41713831D01*
X25021426Y-41713835D01*
X24944426Y-41816695D01*
X24944423Y-41816698D01*
X24939111Y-41823796D01*
X24936013Y-41832099D01*
X24936011Y-41832105D01*
X24890719Y-41953536D01*
X24890717Y-41953543D01*
X24888011Y-41960799D01*
X24887182Y-41968500D01*
X24887182Y-41968505D01*
X24885793Y-41981426D01*
X24881500Y-42021362D01*
X24881500Y-43978638D01*
X16758500Y-43978638D01*
X16758500Y-42301362D01*
X16751989Y-42240799D01*
X16700889Y-42103796D01*
X16613261Y-41986739D01*
X16588903Y-41968505D01*
X16503304Y-41904426D01*
X16503303Y-41904425D01*
X16496204Y-41899111D01*
X16487896Y-41896012D01*
X16487894Y-41896011D01*
X16366463Y-41850719D01*
X16366458Y-41850717D01*
X16359201Y-41848011D01*
X16351497Y-41847182D01*
X16351494Y-41847182D01*
X16301924Y-41841853D01*
X16301918Y-41841852D01*
X16298638Y-41841500D01*
X14501362Y-41841500D01*
X14498082Y-41841852D01*
X14498075Y-41841853D01*
X14448505Y-41847182D01*
X14448500Y-41847182D01*
X14440799Y-41848011D01*
X14433543Y-41850717D01*
X14433536Y-41850719D01*
X14312105Y-41896011D01*
X14312099Y-41896013D01*
X14303796Y-41899111D01*
X14296698Y-41904423D01*
X14296695Y-41904426D01*
X14193835Y-41981426D01*
X14193831Y-41981429D01*
X14186739Y-41986739D01*
X14181429Y-41993831D01*
X14181426Y-41993835D01*
X14104426Y-42096695D01*
X14104423Y-42096698D01*
X14099111Y-42103796D01*
X14096013Y-42112099D01*
X14096011Y-42112105D01*
X14050719Y-42233536D01*
X14050717Y-42233543D01*
X14048011Y-42240799D01*
X14047182Y-42248500D01*
X14047182Y-42248505D01*
X14041853Y-42298075D01*
X14041500Y-42301362D01*
X14041500Y-44098638D01*
X12900500Y-44098638D01*
X12900500Y-40298638D01*
X14041500Y-40298638D01*
X14048011Y-40359201D01*
X14050717Y-40366458D01*
X14050719Y-40366463D01*
X14096011Y-40487894D01*
X14099111Y-40496204D01*
X14186739Y-40613261D01*
X14303796Y-40700889D01*
X14440799Y-40751989D01*
X14501362Y-40758500D01*
X16295328Y-40758500D01*
X16298638Y-40758500D01*
X16359201Y-40751989D01*
X16496204Y-40700889D01*
X16613261Y-40613261D01*
X16700889Y-40496204D01*
X16751989Y-40359201D01*
X16758500Y-40298638D01*
X16758500Y-39104630D01*
X103895580Y-39104630D01*
X103913927Y-39349453D01*
X103915306Y-39358606D01*
X103969936Y-39597957D01*
X103972669Y-39606817D01*
X104062360Y-39835346D01*
X104066379Y-39843692D01*
X104189135Y-40056310D01*
X104194347Y-40063955D01*
X104222537Y-40099305D01*
X104233773Y-40107278D01*
X104245832Y-40100613D01*
X105234904Y-39111542D01*
X105241568Y-39100000D01*
X105958431Y-39100000D01*
X105965095Y-39111542D01*
X106954167Y-40100614D01*
X106966224Y-40107278D01*
X106977461Y-40099306D01*
X107005653Y-40063954D01*
X107010863Y-40056312D01*
X107133620Y-39843692D01*
X107137639Y-39835346D01*
X107227330Y-39606817D01*
X107230063Y-39597957D01*
X107284693Y-39358606D01*
X107286072Y-39349453D01*
X107304420Y-39104630D01*
X107304420Y-39095370D01*
X107286072Y-38850546D01*
X107284693Y-38841393D01*
X107230063Y-38602042D01*
X107227330Y-38593182D01*
X107137639Y-38364653D01*
X107133620Y-38356307D01*
X107010864Y-38143689D01*
X107005652Y-38136044D01*
X106977460Y-38100691D01*
X106966225Y-38092720D01*
X106954167Y-38099384D01*
X105965095Y-39088457D01*
X105958431Y-39100000D01*
X105241568Y-39100000D01*
X105234904Y-39088457D01*
X104245832Y-38099385D01*
X104233773Y-38092721D01*
X104222538Y-38100693D01*
X104194343Y-38136048D01*
X104189137Y-38143685D01*
X104066379Y-38356307D01*
X104062360Y-38364653D01*
X103972669Y-38593182D01*
X103969936Y-38602042D01*
X103915306Y-38841393D01*
X103913927Y-38850546D01*
X103895580Y-39095370D01*
X103895580Y-39104630D01*
X16758500Y-39104630D01*
X16758500Y-38501362D01*
X16751989Y-38440799D01*
X16700889Y-38303796D01*
X16613261Y-38186739D01*
X16496204Y-38099111D01*
X16487896Y-38096012D01*
X16487894Y-38096011D01*
X16366463Y-38050719D01*
X16366458Y-38050717D01*
X16359201Y-38048011D01*
X16351497Y-38047182D01*
X16351494Y-38047182D01*
X16301924Y-38041853D01*
X16301918Y-38041852D01*
X16298638Y-38041500D01*
X14501362Y-38041500D01*
X14498082Y-38041852D01*
X14498075Y-38041853D01*
X14448505Y-38047182D01*
X14448500Y-38047182D01*
X14440799Y-38048011D01*
X14433543Y-38050717D01*
X14433536Y-38050719D01*
X14312105Y-38096011D01*
X14312099Y-38096013D01*
X14303796Y-38099111D01*
X14296698Y-38104423D01*
X14296695Y-38104426D01*
X14193835Y-38181426D01*
X14193831Y-38181429D01*
X14186739Y-38186739D01*
X14181429Y-38193831D01*
X14181426Y-38193835D01*
X14104426Y-38296695D01*
X14104423Y-38296698D01*
X14099111Y-38303796D01*
X14096013Y-38312099D01*
X14096011Y-38312105D01*
X14050719Y-38433536D01*
X14050717Y-38433543D01*
X14048011Y-38440799D01*
X14047182Y-38448500D01*
X14047182Y-38448505D01*
X14041853Y-38498075D01*
X14041500Y-38501362D01*
X14041500Y-40298638D01*
X12900500Y-40298638D01*
X12900500Y-37000000D01*
X73646673Y-37000000D01*
X73647097Y-37005117D01*
X73665524Y-37227506D01*
X73665525Y-37227514D01*
X73665949Y-37232626D01*
X73667206Y-37237593D01*
X73667208Y-37237600D01*
X73688898Y-37323250D01*
X73723251Y-37458907D01*
X73725311Y-37463603D01*
X73814955Y-37667972D01*
X73814958Y-37667978D01*
X73817016Y-37672669D01*
X73819816Y-37676955D01*
X73819820Y-37676962D01*
X73938459Y-37858552D01*
X73944686Y-37868083D01*
X73948160Y-37871856D01*
X73948161Y-37871858D01*
X74093534Y-38029775D01*
X74102780Y-38039818D01*
X74286983Y-38183190D01*
X74291490Y-38185629D01*
X74291493Y-38185631D01*
X74306653Y-38193835D01*
X74492273Y-38294287D01*
X74713049Y-38370080D01*
X74943288Y-38408500D01*
X75171579Y-38408500D01*
X75176712Y-38408500D01*
X75406951Y-38370080D01*
X75627727Y-38294287D01*
X75833017Y-38183190D01*
X76017220Y-38039818D01*
X76175314Y-37868083D01*
X76226192Y-37790207D01*
X76270982Y-37748975D01*
X76330000Y-37734030D01*
X76389018Y-37748975D01*
X76433807Y-37790207D01*
X76484686Y-37868083D01*
X76488160Y-37871856D01*
X76488161Y-37871858D01*
X76633534Y-38029775D01*
X76642780Y-38039818D01*
X76826983Y-38183190D01*
X76831490Y-38185629D01*
X76831493Y-38185631D01*
X76846653Y-38193835D01*
X77032273Y-38294287D01*
X77253049Y-38370080D01*
X77483288Y-38408500D01*
X77711579Y-38408500D01*
X77716712Y-38408500D01*
X77946951Y-38370080D01*
X78167727Y-38294287D01*
X78373017Y-38183190D01*
X78557220Y-38039818D01*
X78715314Y-37868083D01*
X78766192Y-37790207D01*
X78810982Y-37748975D01*
X78870000Y-37734030D01*
X78929018Y-37748975D01*
X78973807Y-37790207D01*
X79024686Y-37868083D01*
X79028160Y-37871856D01*
X79028161Y-37871858D01*
X79173534Y-38029775D01*
X79182780Y-38039818D01*
X79366983Y-38183190D01*
X79371490Y-38185629D01*
X79371493Y-38185631D01*
X79386653Y-38193835D01*
X79572273Y-38294287D01*
X79793049Y-38370080D01*
X80023288Y-38408500D01*
X80251579Y-38408500D01*
X80256712Y-38408500D01*
X80486951Y-38370080D01*
X80707727Y-38294287D01*
X80913017Y-38183190D01*
X81097220Y-38039818D01*
X81255314Y-37868083D01*
X81311267Y-37782439D01*
X81356058Y-37741206D01*
X81415076Y-37726261D01*
X81474093Y-37741206D01*
X81518885Y-37782439D01*
X81568615Y-37858557D01*
X81574886Y-37866614D01*
X81725087Y-38029775D01*
X81732597Y-38036688D01*
X81907602Y-38172901D01*
X81916154Y-38178488D01*
X82111194Y-38284039D01*
X82120547Y-38288141D01*
X82330288Y-38360145D01*
X82340200Y-38362656D01*
X82416679Y-38375418D01*
X82427636Y-38374851D01*
X82430000Y-38364134D01*
X82930000Y-38364134D01*
X82932363Y-38374851D01*
X82943320Y-38375418D01*
X83019799Y-38362656D01*
X83029711Y-38360145D01*
X83239452Y-38288141D01*
X83248805Y-38284039D01*
X83443845Y-38178488D01*
X83452397Y-38172901D01*
X83627402Y-38036688D01*
X83634912Y-38029775D01*
X83785113Y-37866614D01*
X83791387Y-37858552D01*
X83841114Y-37782440D01*
X83885905Y-37741207D01*
X83944922Y-37726261D01*
X84003940Y-37741206D01*
X84048731Y-37782439D01*
X84101875Y-37863782D01*
X84101881Y-37863790D01*
X84104686Y-37868083D01*
X84108160Y-37871856D01*
X84108161Y-37871858D01*
X84253534Y-38029775D01*
X84262780Y-38039818D01*
X84446983Y-38183190D01*
X84451490Y-38185629D01*
X84451493Y-38185631D01*
X84466653Y-38193835D01*
X84652273Y-38294287D01*
X84873049Y-38370080D01*
X85103288Y-38408500D01*
X85331579Y-38408500D01*
X85336712Y-38408500D01*
X85566951Y-38370080D01*
X85787727Y-38294287D01*
X85993017Y-38183190D01*
X86177220Y-38039818D01*
X86335314Y-37868083D01*
X86386192Y-37790207D01*
X86430982Y-37748975D01*
X86490000Y-37734030D01*
X86549018Y-37748975D01*
X86593807Y-37790207D01*
X86644686Y-37868083D01*
X86648160Y-37871856D01*
X86648161Y-37871858D01*
X86793534Y-38029775D01*
X86802780Y-38039818D01*
X86986983Y-38183190D01*
X86991490Y-38185629D01*
X86991493Y-38185631D01*
X87006653Y-38193835D01*
X87192273Y-38294287D01*
X87413049Y-38370080D01*
X87643288Y-38408500D01*
X87871579Y-38408500D01*
X87876712Y-38408500D01*
X88106951Y-38370080D01*
X88327727Y-38294287D01*
X88533017Y-38183190D01*
X88717220Y-38039818D01*
X88875314Y-37868083D01*
X88926192Y-37790207D01*
X88970982Y-37748975D01*
X89030000Y-37734030D01*
X89089018Y-37748975D01*
X89133807Y-37790207D01*
X89184686Y-37868083D01*
X89188160Y-37871856D01*
X89188161Y-37871858D01*
X89333534Y-38029775D01*
X89342780Y-38039818D01*
X89526983Y-38183190D01*
X89531490Y-38185629D01*
X89531493Y-38185631D01*
X89546653Y-38193835D01*
X89732273Y-38294287D01*
X89953049Y-38370080D01*
X90183288Y-38408500D01*
X90411579Y-38408500D01*
X90416712Y-38408500D01*
X90646951Y-38370080D01*
X90867727Y-38294287D01*
X91073017Y-38183190D01*
X91257220Y-38039818D01*
X91415314Y-37868083D01*
X91542984Y-37672669D01*
X91636749Y-37458907D01*
X91694051Y-37232626D01*
X91713327Y-37000000D01*
X91694051Y-36767374D01*
X91636749Y-36541093D01*
X91542984Y-36327331D01*
X91415314Y-36131917D01*
X91386370Y-36100476D01*
X91260688Y-35963949D01*
X91260686Y-35963947D01*
X91257220Y-35960182D01*
X91073017Y-35816810D01*
X91068512Y-35814372D01*
X91068506Y-35814368D01*
X90872233Y-35708151D01*
X90872227Y-35708148D01*
X90867727Y-35705713D01*
X90862886Y-35704051D01*
X90862879Y-35704048D01*
X90651804Y-35631586D01*
X90651803Y-35631585D01*
X90646951Y-35629920D01*
X90641901Y-35629077D01*
X90641892Y-35629075D01*
X90467654Y-35600000D01*
X103886709Y-35600000D01*
X103887056Y-35604630D01*
X103903727Y-35827098D01*
X103905845Y-35855353D01*
X103906874Y-35859862D01*
X103906876Y-35859874D01*
X103961793Y-36100476D01*
X103962826Y-36105001D01*
X103964521Y-36109320D01*
X103964522Y-36109323D01*
X104054680Y-36339044D01*
X104054683Y-36339050D01*
X104056378Y-36343369D01*
X104058696Y-36347384D01*
X104058699Y-36347390D01*
X104182092Y-36561112D01*
X104182096Y-36561117D01*
X104184413Y-36565131D01*
X104344069Y-36765334D01*
X104531781Y-36939505D01*
X104743355Y-37083754D01*
X104974065Y-37194858D01*
X105107303Y-37235956D01*
X105160380Y-37268755D01*
X105190765Y-37323250D01*
X105190766Y-37385643D01*
X105160381Y-37440138D01*
X105107304Y-37472938D01*
X104981609Y-37511710D01*
X104972999Y-37515089D01*
X104751808Y-37621609D01*
X104743775Y-37626247D01*
X104598116Y-37725555D01*
X104590568Y-37733613D01*
X104596484Y-37742931D01*
X105588457Y-38734904D01*
X105600000Y-38741568D01*
X105611542Y-38734904D01*
X106603512Y-37742933D01*
X106609429Y-37733613D01*
X106601881Y-37725554D01*
X106456220Y-37626243D01*
X106448200Y-37621613D01*
X106227001Y-37515089D01*
X106218390Y-37511710D01*
X106092695Y-37472938D01*
X106039618Y-37440138D01*
X106009233Y-37385643D01*
X106009234Y-37323250D01*
X106039619Y-37268755D01*
X106092694Y-37235957D01*
X106225935Y-37194858D01*
X106456646Y-37083754D01*
X106668219Y-36939505D01*
X106855931Y-36765334D01*
X107015587Y-36565131D01*
X107143622Y-36343369D01*
X107237174Y-36105001D01*
X107294155Y-35855353D01*
X107313291Y-35600000D01*
X107294155Y-35344647D01*
X107237174Y-35094999D01*
X107143622Y-34856631D01*
X107015587Y-34634869D01*
X106855931Y-34434666D01*
X106668219Y-34260495D01*
X106664385Y-34257881D01*
X106460482Y-34118861D01*
X106460478Y-34118859D01*
X106456646Y-34116246D01*
X106452460Y-34114230D01*
X106230118Y-34007156D01*
X106230113Y-34007154D01*
X106225935Y-34005142D01*
X106221502Y-34003774D01*
X106221498Y-34003773D01*
X106145338Y-33980281D01*
X106107113Y-33968490D01*
X106054037Y-33935692D01*
X106023652Y-33881197D01*
X106023652Y-33818803D01*
X106054037Y-33764308D01*
X106107113Y-33731509D01*
X106225935Y-33694858D01*
X106456646Y-33583754D01*
X106668219Y-33439505D01*
X106855931Y-33265334D01*
X107015587Y-33065131D01*
X107143622Y-32843369D01*
X107237174Y-32605001D01*
X107294155Y-32355353D01*
X107313291Y-32100000D01*
X107294155Y-31844647D01*
X107237174Y-31594999D01*
X107143622Y-31356631D01*
X107126736Y-31327384D01*
X107017907Y-31138887D01*
X107017905Y-31138885D01*
X107015587Y-31134869D01*
X106855931Y-30934666D01*
X106668219Y-30760495D01*
X106535352Y-30669907D01*
X106460482Y-30618861D01*
X106460478Y-30618859D01*
X106456646Y-30616246D01*
X106452460Y-30614230D01*
X106230118Y-30507156D01*
X106230113Y-30507154D01*
X106225935Y-30505142D01*
X106221502Y-30503774D01*
X106221498Y-30503773D01*
X106145338Y-30480281D01*
X106107113Y-30468490D01*
X106054037Y-30435692D01*
X106023652Y-30381197D01*
X106023652Y-30318803D01*
X106054037Y-30264308D01*
X106107113Y-30231509D01*
X106225935Y-30194858D01*
X106456646Y-30083754D01*
X106668219Y-29939505D01*
X106855931Y-29765334D01*
X107015587Y-29565131D01*
X107143622Y-29343369D01*
X107237174Y-29105001D01*
X107294155Y-28855353D01*
X107313291Y-28600000D01*
X107294155Y-28344647D01*
X107237174Y-28094999D01*
X107143622Y-27856631D01*
X107080066Y-27746549D01*
X107017907Y-27638887D01*
X107017905Y-27638885D01*
X107015587Y-27634869D01*
X106855931Y-27434666D01*
X106668219Y-27260495D01*
X106664385Y-27257881D01*
X106460482Y-27118861D01*
X106460478Y-27118859D01*
X106456646Y-27116246D01*
X106452460Y-27114230D01*
X106230118Y-27007156D01*
X106230113Y-27007154D01*
X106225935Y-27005142D01*
X106221502Y-27003774D01*
X106221498Y-27003773D01*
X106145338Y-26980281D01*
X106107113Y-26968490D01*
X106054037Y-26935692D01*
X106023652Y-26881197D01*
X106023652Y-26818803D01*
X106054037Y-26764308D01*
X106107113Y-26731509D01*
X106225935Y-26694858D01*
X106456646Y-26583754D01*
X106668219Y-26439505D01*
X106855931Y-26265334D01*
X107015587Y-26065131D01*
X107143622Y-25843369D01*
X107237174Y-25605001D01*
X107294155Y-25355353D01*
X107313291Y-25100000D01*
X107294155Y-24844647D01*
X107237174Y-24594999D01*
X107143622Y-24356631D01*
X107073802Y-24235699D01*
X107017907Y-24138887D01*
X107017905Y-24138885D01*
X107015587Y-24134869D01*
X106855931Y-23934666D01*
X106668219Y-23760495D01*
X106664385Y-23757881D01*
X106460482Y-23618861D01*
X106460478Y-23618859D01*
X106456646Y-23616246D01*
X106452460Y-23614230D01*
X106230118Y-23507156D01*
X106230113Y-23507154D01*
X106225935Y-23505142D01*
X106221502Y-23503774D01*
X106221498Y-23503773D01*
X105985678Y-23431033D01*
X105985677Y-23431032D01*
X105981243Y-23429665D01*
X105976655Y-23428973D01*
X105976653Y-23428973D01*
X105732619Y-23392191D01*
X105732618Y-23392190D01*
X105728034Y-23391500D01*
X105471966Y-23391500D01*
X105467382Y-23392190D01*
X105467380Y-23392191D01*
X105223346Y-23428973D01*
X105223341Y-23428973D01*
X105218757Y-23429665D01*
X105214324Y-23431032D01*
X105214321Y-23431033D01*
X104978502Y-23503773D01*
X104978497Y-23503774D01*
X104974065Y-23505142D01*
X104969886Y-23507154D01*
X104969882Y-23507156D01*
X104747540Y-23614230D01*
X104747533Y-23614233D01*
X104743355Y-23616246D01*
X104739522Y-23618859D01*
X104739519Y-23618861D01*
X104702496Y-23644103D01*
X104531781Y-23760495D01*
X104528389Y-23763641D01*
X104528383Y-23763647D01*
X104347470Y-23931510D01*
X104344069Y-23934666D01*
X104341180Y-23938288D01*
X104341176Y-23938293D01*
X104283405Y-24010736D01*
X104184413Y-24134869D01*
X104182099Y-24138875D01*
X104182092Y-24138887D01*
X104058699Y-24352609D01*
X104058693Y-24352620D01*
X104056378Y-24356631D01*
X104054685Y-24360944D01*
X104054680Y-24360955D01*
X103964522Y-24590676D01*
X103964519Y-24590683D01*
X103962826Y-24594999D01*
X103961794Y-24599517D01*
X103961793Y-24599523D01*
X103906876Y-24840125D01*
X103906873Y-24840139D01*
X103905845Y-24844647D01*
X103886709Y-25100000D01*
X103905845Y-25355353D01*
X103906874Y-25359862D01*
X103906876Y-25359874D01*
X103961793Y-25600476D01*
X103962826Y-25605001D01*
X103964521Y-25609320D01*
X103964522Y-25609323D01*
X104054680Y-25839044D01*
X104054683Y-25839050D01*
X104056378Y-25843369D01*
X104058696Y-25847384D01*
X104058699Y-25847390D01*
X104182092Y-26061112D01*
X104182096Y-26061117D01*
X104184413Y-26065131D01*
X104344069Y-26265334D01*
X104531781Y-26439505D01*
X104743355Y-26583754D01*
X104974065Y-26694858D01*
X105092886Y-26731509D01*
X105145963Y-26764308D01*
X105176348Y-26818803D01*
X105176348Y-26881197D01*
X105145963Y-26935692D01*
X105092886Y-26968490D01*
X105048831Y-26982079D01*
X104978499Y-27003774D01*
X104978495Y-27003775D01*
X104974065Y-27005142D01*
X104969886Y-27007154D01*
X104969882Y-27007156D01*
X104747540Y-27114230D01*
X104747533Y-27114233D01*
X104743355Y-27116246D01*
X104739522Y-27118859D01*
X104739519Y-27118861D01*
X104535615Y-27257881D01*
X104531781Y-27260495D01*
X104528389Y-27263641D01*
X104528383Y-27263647D01*
X104347470Y-27431510D01*
X104344069Y-27434666D01*
X104341180Y-27438288D01*
X104341176Y-27438293D01*
X104187305Y-27631242D01*
X104184413Y-27634869D01*
X104182099Y-27638875D01*
X104182092Y-27638887D01*
X104058699Y-27852609D01*
X104058693Y-27852620D01*
X104056378Y-27856631D01*
X104054685Y-27860944D01*
X104054680Y-27860955D01*
X103964522Y-28090676D01*
X103964519Y-28090683D01*
X103962826Y-28094999D01*
X103961794Y-28099517D01*
X103961793Y-28099523D01*
X103906876Y-28340125D01*
X103906873Y-28340139D01*
X103905845Y-28344647D01*
X103886709Y-28600000D01*
X103905845Y-28855353D01*
X103906874Y-28859862D01*
X103906876Y-28859874D01*
X103939408Y-29002403D01*
X103962826Y-29105001D01*
X103964521Y-29109320D01*
X103964522Y-29109323D01*
X104054680Y-29339044D01*
X104054683Y-29339050D01*
X104056378Y-29343369D01*
X104058696Y-29347384D01*
X104058699Y-29347390D01*
X104182092Y-29561112D01*
X104182096Y-29561117D01*
X104184413Y-29565131D01*
X104344069Y-29765334D01*
X104531781Y-29939505D01*
X104743355Y-30083754D01*
X104974065Y-30194858D01*
X105092887Y-30231509D01*
X105145962Y-30264306D01*
X105176347Y-30318801D01*
X105176348Y-30381195D01*
X105145963Y-30435690D01*
X105092886Y-30468490D01*
X104978499Y-30503774D01*
X104978495Y-30503775D01*
X104974065Y-30505142D01*
X104969886Y-30507154D01*
X104969882Y-30507156D01*
X104747540Y-30614230D01*
X104747533Y-30614233D01*
X104743355Y-30616246D01*
X104739522Y-30618859D01*
X104739519Y-30618861D01*
X104664649Y-30669907D01*
X104531781Y-30760495D01*
X104528389Y-30763641D01*
X104528383Y-30763647D01*
X104359517Y-30920332D01*
X104344069Y-30934666D01*
X104341180Y-30938288D01*
X104341176Y-30938293D01*
X104187305Y-31131242D01*
X104184413Y-31134869D01*
X104182099Y-31138875D01*
X104182092Y-31138887D01*
X104058699Y-31352609D01*
X104058693Y-31352620D01*
X104056378Y-31356631D01*
X104054685Y-31360944D01*
X104054680Y-31360955D01*
X103964522Y-31590676D01*
X103964519Y-31590683D01*
X103962826Y-31594999D01*
X103961794Y-31599517D01*
X103961793Y-31599523D01*
X103906876Y-31840125D01*
X103906873Y-31840139D01*
X103905845Y-31844647D01*
X103886709Y-32100000D01*
X103905845Y-32355353D01*
X103906874Y-32359862D01*
X103906876Y-32359874D01*
X103961793Y-32600476D01*
X103962826Y-32605001D01*
X103964521Y-32609320D01*
X103964522Y-32609323D01*
X104054680Y-32839044D01*
X104054683Y-32839050D01*
X104056378Y-32843369D01*
X104058696Y-32847384D01*
X104058699Y-32847390D01*
X104182092Y-33061112D01*
X104182096Y-33061117D01*
X104184413Y-33065131D01*
X104344069Y-33265334D01*
X104531781Y-33439505D01*
X104743355Y-33583754D01*
X104974065Y-33694858D01*
X105092886Y-33731509D01*
X105145963Y-33764308D01*
X105176348Y-33818803D01*
X105176348Y-33881197D01*
X105145963Y-33935692D01*
X105092886Y-33968490D01*
X105048831Y-33982079D01*
X104978499Y-34003774D01*
X104978495Y-34003775D01*
X104974065Y-34005142D01*
X104969886Y-34007154D01*
X104969882Y-34007156D01*
X104747540Y-34114230D01*
X104747533Y-34114233D01*
X104743355Y-34116246D01*
X104739522Y-34118859D01*
X104739519Y-34118861D01*
X104535615Y-34257881D01*
X104531781Y-34260495D01*
X104528389Y-34263641D01*
X104528383Y-34263647D01*
X104347470Y-34431510D01*
X104344069Y-34434666D01*
X104341180Y-34438288D01*
X104341176Y-34438293D01*
X104187305Y-34631242D01*
X104184413Y-34634869D01*
X104182099Y-34638875D01*
X104182092Y-34638887D01*
X104058699Y-34852609D01*
X104058693Y-34852620D01*
X104056378Y-34856631D01*
X104054685Y-34860944D01*
X104054680Y-34860955D01*
X103964522Y-35090676D01*
X103964519Y-35090683D01*
X103962826Y-35094999D01*
X103961794Y-35099517D01*
X103961793Y-35099523D01*
X103906876Y-35340125D01*
X103906873Y-35340139D01*
X103905845Y-35344647D01*
X103886709Y-35600000D01*
X90467654Y-35600000D01*
X90421774Y-35592344D01*
X90421765Y-35592343D01*
X90416712Y-35591500D01*
X90183288Y-35591500D01*
X90178235Y-35592343D01*
X90178225Y-35592344D01*
X89958107Y-35629075D01*
X89958095Y-35629077D01*
X89953049Y-35629920D01*
X89948199Y-35631584D01*
X89948195Y-35631586D01*
X89737120Y-35704048D01*
X89737109Y-35704052D01*
X89732273Y-35705713D01*
X89727776Y-35708146D01*
X89727766Y-35708151D01*
X89531493Y-35814368D01*
X89531481Y-35814375D01*
X89526983Y-35816810D01*
X89522940Y-35819956D01*
X89522935Y-35819960D01*
X89346821Y-35957036D01*
X89346815Y-35957040D01*
X89342780Y-35960182D01*
X89339318Y-35963941D01*
X89339311Y-35963949D01*
X89188161Y-36128141D01*
X89188155Y-36128148D01*
X89184686Y-36131917D01*
X89181881Y-36136209D01*
X89181882Y-36136209D01*
X89133809Y-36209791D01*
X89089017Y-36251024D01*
X89030000Y-36265969D01*
X88970983Y-36251024D01*
X88926191Y-36209791D01*
X88875314Y-36131917D01*
X88846370Y-36100476D01*
X88720688Y-35963949D01*
X88720686Y-35963947D01*
X88717220Y-35960182D01*
X88533017Y-35816810D01*
X88528512Y-35814372D01*
X88528506Y-35814368D01*
X88332233Y-35708151D01*
X88332227Y-35708148D01*
X88327727Y-35705713D01*
X88322886Y-35704051D01*
X88322879Y-35704048D01*
X88111804Y-35631586D01*
X88111803Y-35631585D01*
X88106951Y-35629920D01*
X88101901Y-35629077D01*
X88101892Y-35629075D01*
X87881774Y-35592344D01*
X87881765Y-35592343D01*
X87876712Y-35591500D01*
X87643288Y-35591500D01*
X87638235Y-35592343D01*
X87638225Y-35592344D01*
X87418107Y-35629075D01*
X87418095Y-35629077D01*
X87413049Y-35629920D01*
X87408199Y-35631584D01*
X87408195Y-35631586D01*
X87197120Y-35704048D01*
X87197109Y-35704052D01*
X87192273Y-35705713D01*
X87187776Y-35708146D01*
X87187766Y-35708151D01*
X86991493Y-35814368D01*
X86991481Y-35814375D01*
X86986983Y-35816810D01*
X86982940Y-35819956D01*
X86982935Y-35819960D01*
X86806821Y-35957036D01*
X86806815Y-35957040D01*
X86802780Y-35960182D01*
X86799318Y-35963941D01*
X86799311Y-35963949D01*
X86648161Y-36128141D01*
X86648155Y-36128148D01*
X86644686Y-36131917D01*
X86641881Y-36136209D01*
X86641882Y-36136209D01*
X86593809Y-36209791D01*
X86549017Y-36251024D01*
X86490000Y-36265969D01*
X86430983Y-36251024D01*
X86386191Y-36209791D01*
X86335314Y-36131917D01*
X86306370Y-36100476D01*
X86180688Y-35963949D01*
X86180686Y-35963947D01*
X86177220Y-35960182D01*
X85993017Y-35816810D01*
X85988512Y-35814372D01*
X85988506Y-35814368D01*
X85792233Y-35708151D01*
X85792227Y-35708148D01*
X85787727Y-35705713D01*
X85782886Y-35704051D01*
X85782879Y-35704048D01*
X85571804Y-35631586D01*
X85571803Y-35631585D01*
X85566951Y-35629920D01*
X85561901Y-35629077D01*
X85561892Y-35629075D01*
X85341774Y-35592344D01*
X85341765Y-35592343D01*
X85336712Y-35591500D01*
X85103288Y-35591500D01*
X85098235Y-35592343D01*
X85098225Y-35592344D01*
X84878107Y-35629075D01*
X84878095Y-35629077D01*
X84873049Y-35629920D01*
X84868199Y-35631584D01*
X84868195Y-35631586D01*
X84657120Y-35704048D01*
X84657109Y-35704052D01*
X84652273Y-35705713D01*
X84647776Y-35708146D01*
X84647766Y-35708151D01*
X84451493Y-35814368D01*
X84451481Y-35814375D01*
X84446983Y-35816810D01*
X84442940Y-35819956D01*
X84442935Y-35819960D01*
X84266821Y-35957036D01*
X84266815Y-35957040D01*
X84262780Y-35960182D01*
X84259318Y-35963941D01*
X84259311Y-35963949D01*
X84108161Y-36128141D01*
X84108155Y-36128148D01*
X84104686Y-36131917D01*
X84101884Y-36136204D01*
X84101879Y-36136212D01*
X84048731Y-36217561D01*
X84003940Y-36258793D01*
X83944922Y-36273738D01*
X83885905Y-36258793D01*
X83841114Y-36217559D01*
X83791388Y-36141447D01*
X83785113Y-36133385D01*
X83634912Y-35970224D01*
X83627402Y-35963311D01*
X83452397Y-35827098D01*
X83443845Y-35821511D01*
X83248805Y-35715960D01*
X83239452Y-35711858D01*
X83029711Y-35639854D01*
X83019799Y-35637343D01*
X82943320Y-35624581D01*
X82932363Y-35625148D01*
X82930000Y-35635866D01*
X82930000Y-38364134D01*
X82430000Y-38364134D01*
X82430000Y-35635866D01*
X82427636Y-35625148D01*
X82416679Y-35624581D01*
X82340200Y-35637343D01*
X82330288Y-35639854D01*
X82120547Y-35711858D01*
X82111194Y-35715960D01*
X81916154Y-35821511D01*
X81907602Y-35827098D01*
X81732597Y-35963311D01*
X81725087Y-35970224D01*
X81574886Y-36133385D01*
X81568609Y-36141450D01*
X81518884Y-36217560D01*
X81474093Y-36258793D01*
X81415076Y-36273738D01*
X81356059Y-36258793D01*
X81311268Y-36217560D01*
X81258123Y-36136217D01*
X81258121Y-36136214D01*
X81255314Y-36131917D01*
X81226370Y-36100476D01*
X81100688Y-35963949D01*
X81100686Y-35963947D01*
X81097220Y-35960182D01*
X80913017Y-35816810D01*
X80908512Y-35814372D01*
X80908506Y-35814368D01*
X80712233Y-35708151D01*
X80712227Y-35708148D01*
X80707727Y-35705713D01*
X80702886Y-35704051D01*
X80702879Y-35704048D01*
X80491804Y-35631586D01*
X80491803Y-35631585D01*
X80486951Y-35629920D01*
X80481901Y-35629077D01*
X80481892Y-35629075D01*
X80261774Y-35592344D01*
X80261765Y-35592343D01*
X80256712Y-35591500D01*
X80023288Y-35591500D01*
X80018235Y-35592343D01*
X80018225Y-35592344D01*
X79798107Y-35629075D01*
X79798095Y-35629077D01*
X79793049Y-35629920D01*
X79788199Y-35631584D01*
X79788195Y-35631586D01*
X79577120Y-35704048D01*
X79577109Y-35704052D01*
X79572273Y-35705713D01*
X79567776Y-35708146D01*
X79567766Y-35708151D01*
X79371493Y-35814368D01*
X79371481Y-35814375D01*
X79366983Y-35816810D01*
X79362940Y-35819956D01*
X79362935Y-35819960D01*
X79186821Y-35957036D01*
X79186815Y-35957040D01*
X79182780Y-35960182D01*
X79179318Y-35963941D01*
X79179311Y-35963949D01*
X79028161Y-36128141D01*
X79028155Y-36128148D01*
X79024686Y-36131917D01*
X79021881Y-36136209D01*
X79021882Y-36136209D01*
X78973809Y-36209791D01*
X78929017Y-36251024D01*
X78870000Y-36265969D01*
X78810983Y-36251024D01*
X78766191Y-36209791D01*
X78715314Y-36131917D01*
X78686370Y-36100476D01*
X78560688Y-35963949D01*
X78560686Y-35963947D01*
X78557220Y-35960182D01*
X78373017Y-35816810D01*
X78368512Y-35814372D01*
X78368506Y-35814368D01*
X78172233Y-35708151D01*
X78172227Y-35708148D01*
X78167727Y-35705713D01*
X78162886Y-35704051D01*
X78162879Y-35704048D01*
X77951804Y-35631586D01*
X77951803Y-35631585D01*
X77946951Y-35629920D01*
X77941901Y-35629077D01*
X77941892Y-35629075D01*
X77721774Y-35592344D01*
X77721765Y-35592343D01*
X77716712Y-35591500D01*
X77483288Y-35591500D01*
X77478235Y-35592343D01*
X77478225Y-35592344D01*
X77258107Y-35629075D01*
X77258095Y-35629077D01*
X77253049Y-35629920D01*
X77248199Y-35631584D01*
X77248195Y-35631586D01*
X77037120Y-35704048D01*
X77037109Y-35704052D01*
X77032273Y-35705713D01*
X77027776Y-35708146D01*
X77027766Y-35708151D01*
X76831493Y-35814368D01*
X76831481Y-35814375D01*
X76826983Y-35816810D01*
X76822940Y-35819956D01*
X76822935Y-35819960D01*
X76646821Y-35957036D01*
X76646815Y-35957040D01*
X76642780Y-35960182D01*
X76639318Y-35963941D01*
X76639311Y-35963949D01*
X76488161Y-36128141D01*
X76488155Y-36128148D01*
X76484686Y-36131917D01*
X76481881Y-36136209D01*
X76481882Y-36136209D01*
X76433809Y-36209791D01*
X76389017Y-36251024D01*
X76330000Y-36265969D01*
X76270983Y-36251024D01*
X76226191Y-36209791D01*
X76175314Y-36131917D01*
X76146370Y-36100476D01*
X76020688Y-35963949D01*
X76020686Y-35963947D01*
X76017220Y-35960182D01*
X75833017Y-35816810D01*
X75828512Y-35814372D01*
X75828506Y-35814368D01*
X75632233Y-35708151D01*
X75632227Y-35708148D01*
X75627727Y-35705713D01*
X75622886Y-35704051D01*
X75622879Y-35704048D01*
X75411804Y-35631586D01*
X75411803Y-35631585D01*
X75406951Y-35629920D01*
X75401901Y-35629077D01*
X75401892Y-35629075D01*
X75181774Y-35592344D01*
X75181765Y-35592343D01*
X75176712Y-35591500D01*
X74943288Y-35591500D01*
X74938235Y-35592343D01*
X74938225Y-35592344D01*
X74718107Y-35629075D01*
X74718095Y-35629077D01*
X74713049Y-35629920D01*
X74708199Y-35631584D01*
X74708195Y-35631586D01*
X74497120Y-35704048D01*
X74497109Y-35704052D01*
X74492273Y-35705713D01*
X74487776Y-35708146D01*
X74487766Y-35708151D01*
X74291493Y-35814368D01*
X74291481Y-35814375D01*
X74286983Y-35816810D01*
X74282940Y-35819956D01*
X74282935Y-35819960D01*
X74106821Y-35957036D01*
X74106815Y-35957040D01*
X74102780Y-35960182D01*
X74099318Y-35963941D01*
X74099311Y-35963949D01*
X73948161Y-36128141D01*
X73948155Y-36128148D01*
X73944686Y-36131917D01*
X73941881Y-36136208D01*
X73941878Y-36136214D01*
X73819820Y-36323037D01*
X73819813Y-36323049D01*
X73817016Y-36327331D01*
X73814961Y-36332015D01*
X73814955Y-36332027D01*
X73725311Y-36536396D01*
X73723251Y-36541093D01*
X73721993Y-36546058D01*
X73721992Y-36546063D01*
X73667208Y-36762399D01*
X73667206Y-36762408D01*
X73665949Y-36767374D01*
X73665525Y-36772483D01*
X73665524Y-36772493D01*
X73651469Y-36942118D01*
X73646673Y-37000000D01*
X12900500Y-37000000D01*
X12900500Y-32172525D01*
X72412361Y-32172525D01*
X72412592Y-32183724D01*
X72460059Y-32371166D01*
X72463378Y-32380833D01*
X72552457Y-32583915D01*
X72557319Y-32592898D01*
X72678615Y-32778557D01*
X72684886Y-32786614D01*
X72835087Y-32949775D01*
X72842597Y-32956688D01*
X73017602Y-33092901D01*
X73026154Y-33098488D01*
X73221194Y-33204039D01*
X73230547Y-33208141D01*
X73440288Y-33280145D01*
X73450200Y-33282656D01*
X73526679Y-33295418D01*
X73537636Y-33294851D01*
X73540000Y-33284134D01*
X74040000Y-33284134D01*
X74042363Y-33294851D01*
X74053320Y-33295418D01*
X74129799Y-33282656D01*
X74139711Y-33280145D01*
X74349452Y-33208141D01*
X74358805Y-33204039D01*
X74553845Y-33098488D01*
X74562397Y-33092901D01*
X74737402Y-32956688D01*
X74744912Y-32949775D01*
X74895113Y-32786614D01*
X74901387Y-32778552D01*
X74951114Y-32702440D01*
X74995905Y-32661207D01*
X75054922Y-32646261D01*
X75113940Y-32661206D01*
X75158731Y-32702439D01*
X75211875Y-32783782D01*
X75211881Y-32783790D01*
X75214686Y-32788083D01*
X75218160Y-32791856D01*
X75218161Y-32791858D01*
X75363534Y-32949775D01*
X75372780Y-32959818D01*
X75556983Y-33103190D01*
X75561490Y-33105629D01*
X75561493Y-33105631D01*
X75703537Y-33182501D01*
X75762273Y-33214287D01*
X75983049Y-33290080D01*
X76213288Y-33328500D01*
X76441579Y-33328500D01*
X76446712Y-33328500D01*
X76676951Y-33290080D01*
X76897727Y-33214287D01*
X77103017Y-33103190D01*
X77287220Y-32959818D01*
X77445314Y-32788083D01*
X77496192Y-32710207D01*
X77540982Y-32668975D01*
X77600000Y-32654030D01*
X77659018Y-32668975D01*
X77703807Y-32710207D01*
X77754686Y-32788083D01*
X77758160Y-32791856D01*
X77758161Y-32791858D01*
X77903534Y-32949775D01*
X77912780Y-32959818D01*
X78096983Y-33103190D01*
X78101490Y-33105629D01*
X78101493Y-33105631D01*
X78243537Y-33182501D01*
X78302273Y-33214287D01*
X78523049Y-33290080D01*
X78753288Y-33328500D01*
X78981579Y-33328500D01*
X78986712Y-33328500D01*
X79216951Y-33290080D01*
X79437727Y-33214287D01*
X79643017Y-33103190D01*
X79827220Y-32959818D01*
X79985314Y-32788083D01*
X80036192Y-32710207D01*
X80080982Y-32668975D01*
X80140000Y-32654030D01*
X80199018Y-32668975D01*
X80243807Y-32710207D01*
X80294686Y-32788083D01*
X80298160Y-32791856D01*
X80298161Y-32791858D01*
X80443534Y-32949775D01*
X80452780Y-32959818D01*
X80636983Y-33103190D01*
X80641490Y-33105629D01*
X80641493Y-33105631D01*
X80783537Y-33182501D01*
X80842273Y-33214287D01*
X81063049Y-33290080D01*
X81293288Y-33328500D01*
X81521579Y-33328500D01*
X81526712Y-33328500D01*
X81756951Y-33290080D01*
X81977727Y-33214287D01*
X82183017Y-33103190D01*
X82367220Y-32959818D01*
X82525314Y-32788083D01*
X82576192Y-32710207D01*
X82620982Y-32668975D01*
X82680000Y-32654030D01*
X82739018Y-32668975D01*
X82783807Y-32710207D01*
X82834686Y-32788083D01*
X82838160Y-32791856D01*
X82838161Y-32791858D01*
X82983534Y-32949775D01*
X82992780Y-32959818D01*
X83176983Y-33103190D01*
X83181490Y-33105629D01*
X83181493Y-33105631D01*
X83323537Y-33182501D01*
X83382273Y-33214287D01*
X83603049Y-33290080D01*
X83833288Y-33328500D01*
X84061579Y-33328500D01*
X84066712Y-33328500D01*
X84296951Y-33290080D01*
X84517727Y-33214287D01*
X84723017Y-33103190D01*
X84907220Y-32959818D01*
X85065314Y-32788083D01*
X85116192Y-32710207D01*
X85160982Y-32668975D01*
X85220000Y-32654030D01*
X85279018Y-32668975D01*
X85323807Y-32710207D01*
X85374686Y-32788083D01*
X85378160Y-32791856D01*
X85378161Y-32791858D01*
X85523534Y-32949775D01*
X85532780Y-32959818D01*
X85716983Y-33103190D01*
X85721490Y-33105629D01*
X85721493Y-33105631D01*
X85863537Y-33182501D01*
X85922273Y-33214287D01*
X86143049Y-33290080D01*
X86373288Y-33328500D01*
X86601579Y-33328500D01*
X86606712Y-33328500D01*
X86836951Y-33290080D01*
X87057727Y-33214287D01*
X87263017Y-33103190D01*
X87447220Y-32959818D01*
X87605314Y-32788083D01*
X87656192Y-32710207D01*
X87700982Y-32668975D01*
X87760000Y-32654030D01*
X87819018Y-32668975D01*
X87863807Y-32710207D01*
X87914686Y-32788083D01*
X87918160Y-32791856D01*
X87918161Y-32791858D01*
X88063534Y-32949775D01*
X88072780Y-32959818D01*
X88256983Y-33103190D01*
X88261490Y-33105629D01*
X88261493Y-33105631D01*
X88403537Y-33182501D01*
X88462273Y-33214287D01*
X88683049Y-33290080D01*
X88913288Y-33328500D01*
X89141579Y-33328500D01*
X89146712Y-33328500D01*
X89376951Y-33290080D01*
X89597727Y-33214287D01*
X89803017Y-33103190D01*
X89987220Y-32959818D01*
X89993641Y-32952842D01*
X90046262Y-32918984D01*
X90108719Y-32915132D01*
X90165105Y-32942269D01*
X90201059Y-32993484D01*
X90223548Y-33053779D01*
X90231962Y-33069189D01*
X90307498Y-33170092D01*
X90319907Y-33182501D01*
X90420810Y-33258037D01*
X90436222Y-33266452D01*
X90555358Y-33310888D01*
X90570332Y-33314426D01*
X90618885Y-33319646D01*
X90625482Y-33320000D01*
X91303674Y-33320000D01*
X91316549Y-33316549D01*
X91320000Y-33303674D01*
X91820000Y-33303674D01*
X91823450Y-33316549D01*
X91836326Y-33320000D01*
X92514518Y-33320000D01*
X92521114Y-33319646D01*
X92569667Y-33314426D01*
X92584641Y-33310888D01*
X92703777Y-33266452D01*
X92719189Y-33258037D01*
X92820092Y-33182501D01*
X92832501Y-33170092D01*
X92908037Y-33069189D01*
X92916452Y-33053777D01*
X92960888Y-32934641D01*
X92964426Y-32919667D01*
X92969646Y-32871114D01*
X92970000Y-32864518D01*
X92970000Y-32186326D01*
X92966549Y-32173450D01*
X92953674Y-32170000D01*
X91836326Y-32170000D01*
X91823450Y-32173450D01*
X91820000Y-32186326D01*
X91820000Y-33303674D01*
X91320000Y-33303674D01*
X91320000Y-31653674D01*
X91820000Y-31653674D01*
X91823450Y-31666549D01*
X91836326Y-31670000D01*
X92953674Y-31670000D01*
X92966549Y-31666549D01*
X92970000Y-31653674D01*
X92970000Y-30975482D01*
X92969646Y-30968885D01*
X92964426Y-30920332D01*
X92960888Y-30905358D01*
X92916452Y-30786222D01*
X92908037Y-30770810D01*
X92832501Y-30669907D01*
X92820092Y-30657498D01*
X92719189Y-30581962D01*
X92703777Y-30573547D01*
X92584641Y-30529111D01*
X92569667Y-30525573D01*
X92521114Y-30520353D01*
X92514518Y-30520000D01*
X91836326Y-30520000D01*
X91823450Y-30523450D01*
X91820000Y-30536326D01*
X91820000Y-31653674D01*
X91320000Y-31653674D01*
X91320000Y-30536326D01*
X91316549Y-30523450D01*
X91303674Y-30520000D01*
X90625482Y-30520000D01*
X90618885Y-30520353D01*
X90570332Y-30525573D01*
X90555358Y-30529111D01*
X90436222Y-30573547D01*
X90420810Y-30581962D01*
X90319907Y-30657498D01*
X90307498Y-30669907D01*
X90231962Y-30770810D01*
X90223548Y-30786220D01*
X90201059Y-30846515D01*
X90165106Y-30897729D01*
X90108723Y-30924866D01*
X90046268Y-30921017D01*
X89993645Y-30887161D01*
X89990691Y-30883952D01*
X89990688Y-30883949D01*
X89987220Y-30880182D01*
X89803017Y-30736810D01*
X89798512Y-30734372D01*
X89798506Y-30734368D01*
X89602233Y-30628151D01*
X89602227Y-30628148D01*
X89597727Y-30625713D01*
X89592886Y-30624051D01*
X89592879Y-30624048D01*
X89381804Y-30551586D01*
X89381803Y-30551585D01*
X89376951Y-30549920D01*
X89371901Y-30549077D01*
X89371892Y-30549075D01*
X89151774Y-30512344D01*
X89151765Y-30512343D01*
X89146712Y-30511500D01*
X88913288Y-30511500D01*
X88908235Y-30512343D01*
X88908225Y-30512344D01*
X88688107Y-30549075D01*
X88688095Y-30549077D01*
X88683049Y-30549920D01*
X88678199Y-30551584D01*
X88678195Y-30551586D01*
X88467120Y-30624048D01*
X88467109Y-30624052D01*
X88462273Y-30625713D01*
X88457776Y-30628146D01*
X88457766Y-30628151D01*
X88261493Y-30734368D01*
X88261481Y-30734375D01*
X88256983Y-30736810D01*
X88252940Y-30739956D01*
X88252935Y-30739960D01*
X88076821Y-30877036D01*
X88076815Y-30877040D01*
X88072780Y-30880182D01*
X88069318Y-30883941D01*
X88069311Y-30883949D01*
X87918161Y-31048141D01*
X87918155Y-31048148D01*
X87914686Y-31051917D01*
X87873707Y-31114641D01*
X87863809Y-31129791D01*
X87819017Y-31171024D01*
X87760000Y-31185969D01*
X87700983Y-31171024D01*
X87656191Y-31129791D01*
X87605314Y-31051917D01*
X87488355Y-30924866D01*
X87450688Y-30883949D01*
X87450686Y-30883947D01*
X87447220Y-30880182D01*
X87263017Y-30736810D01*
X87258512Y-30734372D01*
X87258506Y-30734368D01*
X87062233Y-30628151D01*
X87062227Y-30628148D01*
X87057727Y-30625713D01*
X87052886Y-30624051D01*
X87052879Y-30624048D01*
X86841804Y-30551586D01*
X86841803Y-30551585D01*
X86836951Y-30549920D01*
X86831901Y-30549077D01*
X86831892Y-30549075D01*
X86611774Y-30512344D01*
X86611765Y-30512343D01*
X86606712Y-30511500D01*
X86373288Y-30511500D01*
X86368235Y-30512343D01*
X86368225Y-30512344D01*
X86148107Y-30549075D01*
X86148095Y-30549077D01*
X86143049Y-30549920D01*
X86138199Y-30551584D01*
X86138195Y-30551586D01*
X85927120Y-30624048D01*
X85927109Y-30624052D01*
X85922273Y-30625713D01*
X85917776Y-30628146D01*
X85917766Y-30628151D01*
X85721493Y-30734368D01*
X85721481Y-30734375D01*
X85716983Y-30736810D01*
X85712940Y-30739956D01*
X85712935Y-30739960D01*
X85536821Y-30877036D01*
X85536815Y-30877040D01*
X85532780Y-30880182D01*
X85529318Y-30883941D01*
X85529311Y-30883949D01*
X85378161Y-31048141D01*
X85378155Y-31048148D01*
X85374686Y-31051917D01*
X85333707Y-31114641D01*
X85323809Y-31129791D01*
X85279017Y-31171024D01*
X85220000Y-31185969D01*
X85160983Y-31171024D01*
X85116191Y-31129791D01*
X85065314Y-31051917D01*
X84948355Y-30924866D01*
X84910688Y-30883949D01*
X84910686Y-30883947D01*
X84907220Y-30880182D01*
X84723017Y-30736810D01*
X84718512Y-30734372D01*
X84718506Y-30734368D01*
X84522233Y-30628151D01*
X84522227Y-30628148D01*
X84517727Y-30625713D01*
X84512886Y-30624051D01*
X84512879Y-30624048D01*
X84301804Y-30551586D01*
X84301803Y-30551585D01*
X84296951Y-30549920D01*
X84291901Y-30549077D01*
X84291892Y-30549075D01*
X84071774Y-30512344D01*
X84071765Y-30512343D01*
X84066712Y-30511500D01*
X83833288Y-30511500D01*
X83828235Y-30512343D01*
X83828225Y-30512344D01*
X83608107Y-30549075D01*
X83608095Y-30549077D01*
X83603049Y-30549920D01*
X83598199Y-30551584D01*
X83598195Y-30551586D01*
X83387120Y-30624048D01*
X83387109Y-30624052D01*
X83382273Y-30625713D01*
X83377776Y-30628146D01*
X83377766Y-30628151D01*
X83181493Y-30734368D01*
X83181481Y-30734375D01*
X83176983Y-30736810D01*
X83172940Y-30739956D01*
X83172935Y-30739960D01*
X82996821Y-30877036D01*
X82996815Y-30877040D01*
X82992780Y-30880182D01*
X82989318Y-30883941D01*
X82989311Y-30883949D01*
X82838161Y-31048141D01*
X82838155Y-31048148D01*
X82834686Y-31051917D01*
X82793707Y-31114641D01*
X82783809Y-31129791D01*
X82739017Y-31171024D01*
X82680000Y-31185969D01*
X82620983Y-31171024D01*
X82576191Y-31129791D01*
X82525314Y-31051917D01*
X82408355Y-30924866D01*
X82370688Y-30883949D01*
X82370686Y-30883947D01*
X82367220Y-30880182D01*
X82183017Y-30736810D01*
X82178512Y-30734372D01*
X82178506Y-30734368D01*
X81982233Y-30628151D01*
X81982227Y-30628148D01*
X81977727Y-30625713D01*
X81972886Y-30624051D01*
X81972879Y-30624048D01*
X81761804Y-30551586D01*
X81761803Y-30551585D01*
X81756951Y-30549920D01*
X81751901Y-30549077D01*
X81751892Y-30549075D01*
X81531774Y-30512344D01*
X81531765Y-30512343D01*
X81526712Y-30511500D01*
X81293288Y-30511500D01*
X81288235Y-30512343D01*
X81288225Y-30512344D01*
X81068107Y-30549075D01*
X81068095Y-30549077D01*
X81063049Y-30549920D01*
X81058199Y-30551584D01*
X81058195Y-30551586D01*
X80847120Y-30624048D01*
X80847109Y-30624052D01*
X80842273Y-30625713D01*
X80837776Y-30628146D01*
X80837766Y-30628151D01*
X80641493Y-30734368D01*
X80641481Y-30734375D01*
X80636983Y-30736810D01*
X80632940Y-30739956D01*
X80632935Y-30739960D01*
X80456821Y-30877036D01*
X80456815Y-30877040D01*
X80452780Y-30880182D01*
X80449318Y-30883941D01*
X80449311Y-30883949D01*
X80298161Y-31048141D01*
X80298155Y-31048148D01*
X80294686Y-31051917D01*
X80253707Y-31114641D01*
X80243809Y-31129791D01*
X80199017Y-31171024D01*
X80140000Y-31185969D01*
X80080983Y-31171024D01*
X80036191Y-31129791D01*
X79985314Y-31051917D01*
X79868355Y-30924866D01*
X79830688Y-30883949D01*
X79830686Y-30883947D01*
X79827220Y-30880182D01*
X79643017Y-30736810D01*
X79638512Y-30734372D01*
X79638506Y-30734368D01*
X79442233Y-30628151D01*
X79442227Y-30628148D01*
X79437727Y-30625713D01*
X79432886Y-30624051D01*
X79432879Y-30624048D01*
X79221804Y-30551586D01*
X79221803Y-30551585D01*
X79216951Y-30549920D01*
X79211901Y-30549077D01*
X79211892Y-30549075D01*
X78991774Y-30512344D01*
X78991765Y-30512343D01*
X78986712Y-30511500D01*
X78753288Y-30511500D01*
X78748235Y-30512343D01*
X78748225Y-30512344D01*
X78528107Y-30549075D01*
X78528095Y-30549077D01*
X78523049Y-30549920D01*
X78518199Y-30551584D01*
X78518195Y-30551586D01*
X78307120Y-30624048D01*
X78307109Y-30624052D01*
X78302273Y-30625713D01*
X78297776Y-30628146D01*
X78297766Y-30628151D01*
X78101493Y-30734368D01*
X78101481Y-30734375D01*
X78096983Y-30736810D01*
X78092940Y-30739956D01*
X78092935Y-30739960D01*
X77916821Y-30877036D01*
X77916815Y-30877040D01*
X77912780Y-30880182D01*
X77909318Y-30883941D01*
X77909311Y-30883949D01*
X77758161Y-31048141D01*
X77758155Y-31048148D01*
X77754686Y-31051917D01*
X77713707Y-31114641D01*
X77703809Y-31129791D01*
X77659017Y-31171024D01*
X77600000Y-31185969D01*
X77540983Y-31171024D01*
X77496191Y-31129791D01*
X77445314Y-31051917D01*
X77328355Y-30924866D01*
X77290688Y-30883949D01*
X77290686Y-30883947D01*
X77287220Y-30880182D01*
X77103017Y-30736810D01*
X77098512Y-30734372D01*
X77098506Y-30734368D01*
X76902233Y-30628151D01*
X76902227Y-30628148D01*
X76897727Y-30625713D01*
X76892886Y-30624051D01*
X76892879Y-30624048D01*
X76681804Y-30551586D01*
X76681803Y-30551585D01*
X76676951Y-30549920D01*
X76671901Y-30549077D01*
X76671892Y-30549075D01*
X76451774Y-30512344D01*
X76451765Y-30512343D01*
X76446712Y-30511500D01*
X76213288Y-30511500D01*
X76208235Y-30512343D01*
X76208225Y-30512344D01*
X75988107Y-30549075D01*
X75988095Y-30549077D01*
X75983049Y-30549920D01*
X75978199Y-30551584D01*
X75978195Y-30551586D01*
X75767120Y-30624048D01*
X75767109Y-30624052D01*
X75762273Y-30625713D01*
X75757776Y-30628146D01*
X75757766Y-30628151D01*
X75561493Y-30734368D01*
X75561481Y-30734375D01*
X75556983Y-30736810D01*
X75552940Y-30739956D01*
X75552935Y-30739960D01*
X75376821Y-30877036D01*
X75376815Y-30877040D01*
X75372780Y-30880182D01*
X75369318Y-30883941D01*
X75369311Y-30883949D01*
X75218161Y-31048141D01*
X75218155Y-31048148D01*
X75214686Y-31051917D01*
X75211884Y-31056204D01*
X75211879Y-31056212D01*
X75158731Y-31137561D01*
X75113940Y-31178793D01*
X75054922Y-31193738D01*
X74995905Y-31178793D01*
X74951114Y-31137559D01*
X74901388Y-31061447D01*
X74895113Y-31053385D01*
X74744912Y-30890224D01*
X74737402Y-30883311D01*
X74562397Y-30747098D01*
X74553845Y-30741511D01*
X74358805Y-30635960D01*
X74349452Y-30631858D01*
X74139711Y-30559854D01*
X74129799Y-30557343D01*
X74053320Y-30544581D01*
X74042363Y-30545148D01*
X74040000Y-30555866D01*
X74040000Y-33284134D01*
X73540000Y-33284134D01*
X73540000Y-32186326D01*
X73536549Y-32173450D01*
X73523674Y-32170000D01*
X72423276Y-32170000D01*
X72412361Y-32172525D01*
X12900500Y-32172525D01*
X12900500Y-31044518D01*
X16500000Y-31044518D01*
X16500353Y-31051114D01*
X16505573Y-31099667D01*
X16509111Y-31114641D01*
X16553547Y-31233777D01*
X16561962Y-31249189D01*
X16637498Y-31350092D01*
X16649907Y-31362501D01*
X16750810Y-31438037D01*
X16766222Y-31446452D01*
X16885358Y-31490888D01*
X16900332Y-31494426D01*
X16948885Y-31499646D01*
X16955482Y-31500000D01*
X19733674Y-31500000D01*
X19746549Y-31496549D01*
X19750000Y-31483674D01*
X20250000Y-31483674D01*
X20253450Y-31496549D01*
X20266326Y-31500000D01*
X23044518Y-31500000D01*
X23051114Y-31499646D01*
X23099667Y-31494426D01*
X23114641Y-31490888D01*
X23233777Y-31446452D01*
X23249189Y-31438037D01*
X23328536Y-31378638D01*
X52881500Y-31378638D01*
X52888011Y-31439201D01*
X52890716Y-31446452D01*
X52890719Y-31446463D01*
X52936011Y-31567894D01*
X52939111Y-31576204D01*
X52944425Y-31583303D01*
X52944426Y-31583304D01*
X53006742Y-31666549D01*
X53026739Y-31693261D01*
X53143796Y-31780889D01*
X53280799Y-31831989D01*
X53341362Y-31838500D01*
X55295328Y-31838500D01*
X55298638Y-31838500D01*
X55359201Y-31831989D01*
X55496204Y-31780889D01*
X55613261Y-31693261D01*
X55700889Y-31576204D01*
X55715712Y-31536461D01*
X55747825Y-31488645D01*
X55798078Y-31460495D01*
X55855628Y-31458088D01*
X55908056Y-31481942D01*
X56066464Y-31605236D01*
X56066472Y-31605241D01*
X56070519Y-31608391D01*
X56280181Y-31721855D01*
X56505659Y-31799261D01*
X56740802Y-31838500D01*
X56974065Y-31838500D01*
X56979198Y-31838500D01*
X57214341Y-31799261D01*
X57439819Y-31721855D01*
X57649481Y-31608391D01*
X57837609Y-31461966D01*
X57999069Y-31286573D01*
X58026190Y-31245060D01*
X58070982Y-31203826D01*
X58130000Y-31188881D01*
X58189018Y-31203826D01*
X58233809Y-31245060D01*
X58235142Y-31247101D01*
X58260931Y-31286573D01*
X58422391Y-31461966D01*
X58426437Y-31465115D01*
X58426438Y-31465116D01*
X58471257Y-31500000D01*
X58610519Y-31608391D01*
X58820181Y-31721855D01*
X59045659Y-31799261D01*
X59280802Y-31838500D01*
X59514065Y-31838500D01*
X59519198Y-31838500D01*
X59754341Y-31799261D01*
X59979819Y-31721855D01*
X60080306Y-31667474D01*
X72412361Y-31667474D01*
X72423276Y-31670000D01*
X73523674Y-31670000D01*
X73536549Y-31666549D01*
X73540000Y-31653674D01*
X73540000Y-30555866D01*
X73537636Y-30545148D01*
X73526679Y-30544581D01*
X73450200Y-30557343D01*
X73440288Y-30559854D01*
X73230547Y-30631858D01*
X73221194Y-30635960D01*
X73026154Y-30741511D01*
X73017602Y-30747098D01*
X72842597Y-30883311D01*
X72835087Y-30890224D01*
X72684886Y-31053385D01*
X72678615Y-31061442D01*
X72557319Y-31247101D01*
X72552457Y-31256084D01*
X72463378Y-31459166D01*
X72460059Y-31468833D01*
X72412592Y-31656275D01*
X72412361Y-31667474D01*
X60080306Y-31667474D01*
X60189481Y-31608391D01*
X60377609Y-31461966D01*
X60539069Y-31286573D01*
X60669459Y-31086997D01*
X60765221Y-30868681D01*
X60823743Y-30637581D01*
X60843430Y-30400000D01*
X60823743Y-30162419D01*
X60765221Y-29931319D01*
X60669459Y-29713003D01*
X60539069Y-29513427D01*
X60377609Y-29338034D01*
X60189481Y-29191609D01*
X60032656Y-29106739D01*
X59984321Y-29080581D01*
X59984317Y-29080579D01*
X59979819Y-29078145D01*
X59974978Y-29076483D01*
X59974971Y-29076480D01*
X59759190Y-29002403D01*
X59759182Y-29002401D01*
X59754341Y-29000739D01*
X59749294Y-28999896D01*
X59749287Y-28999895D01*
X59524260Y-28962344D01*
X59524251Y-28962343D01*
X59519198Y-28961500D01*
X59280802Y-28961500D01*
X59275749Y-28962343D01*
X59275739Y-28962344D01*
X59050712Y-28999895D01*
X59050702Y-28999897D01*
X59045659Y-29000739D01*
X59040820Y-29002400D01*
X59040809Y-29002403D01*
X58825028Y-29076480D01*
X58825017Y-29076484D01*
X58820181Y-29078145D01*
X58815686Y-29080577D01*
X58815678Y-29080581D01*
X58615027Y-29189169D01*
X58615023Y-29189171D01*
X58610519Y-29191609D01*
X58606479Y-29194753D01*
X58606472Y-29194758D01*
X58426438Y-29334883D01*
X58426430Y-29334890D01*
X58422391Y-29338034D01*
X58418921Y-29341802D01*
X58418917Y-29341807D01*
X58264401Y-29509657D01*
X58264398Y-29509660D01*
X58260931Y-29513427D01*
X58258134Y-29517706D01*
X58258123Y-29517722D01*
X58233808Y-29554940D01*
X58189017Y-29596173D01*
X58130000Y-29611118D01*
X58070983Y-29596173D01*
X58026192Y-29554940D01*
X58001876Y-29517722D01*
X58001870Y-29517714D01*
X57999069Y-29513427D01*
X57837609Y-29338034D01*
X57649481Y-29191609D01*
X57492656Y-29106739D01*
X57444321Y-29080581D01*
X57444317Y-29080579D01*
X57439819Y-29078145D01*
X57434978Y-29076483D01*
X57434971Y-29076480D01*
X57219190Y-29002403D01*
X57219182Y-29002401D01*
X57214341Y-29000739D01*
X57209294Y-28999896D01*
X57209287Y-28999895D01*
X56984260Y-28962344D01*
X56984251Y-28962343D01*
X56979198Y-28961500D01*
X56740802Y-28961500D01*
X56735749Y-28962343D01*
X56735739Y-28962344D01*
X56510712Y-28999895D01*
X56510702Y-28999897D01*
X56505659Y-29000739D01*
X56500820Y-29002400D01*
X56500809Y-29002403D01*
X56285028Y-29076480D01*
X56285017Y-29076484D01*
X56280181Y-29078145D01*
X56275686Y-29080577D01*
X56275678Y-29080581D01*
X56075027Y-29189169D01*
X56075023Y-29189171D01*
X56070519Y-29191609D01*
X56066479Y-29194753D01*
X56066472Y-29194758D01*
X55908056Y-29318058D01*
X55855628Y-29341911D01*
X55798078Y-29339504D01*
X55747825Y-29311355D01*
X55715712Y-29263538D01*
X55703988Y-29232105D01*
X55700889Y-29223796D01*
X55613261Y-29106739D01*
X55496204Y-29019111D01*
X55487896Y-29016012D01*
X55487894Y-29016011D01*
X55366463Y-28970719D01*
X55366458Y-28970717D01*
X55359201Y-28968011D01*
X55351497Y-28967182D01*
X55351494Y-28967182D01*
X55301924Y-28961853D01*
X55301918Y-28961852D01*
X55298638Y-28961500D01*
X53341362Y-28961500D01*
X53338082Y-28961852D01*
X53338075Y-28961853D01*
X53288505Y-28967182D01*
X53288500Y-28967182D01*
X53280799Y-28968011D01*
X53273543Y-28970717D01*
X53273536Y-28970719D01*
X53152105Y-29016011D01*
X53152099Y-29016013D01*
X53143796Y-29019111D01*
X53136698Y-29024423D01*
X53136695Y-29024426D01*
X53033835Y-29101426D01*
X53033831Y-29101429D01*
X53026739Y-29106739D01*
X53021429Y-29113831D01*
X53021426Y-29113835D01*
X52944426Y-29216695D01*
X52944423Y-29216698D01*
X52939111Y-29223796D01*
X52936013Y-29232099D01*
X52936011Y-29232105D01*
X52890719Y-29353536D01*
X52890717Y-29353543D01*
X52888011Y-29360799D01*
X52887182Y-29368500D01*
X52887182Y-29368505D01*
X52881853Y-29418075D01*
X52881500Y-29421362D01*
X52881500Y-31378638D01*
X23328536Y-31378638D01*
X23350092Y-31362501D01*
X23362501Y-31350092D01*
X23438037Y-31249189D01*
X23446452Y-31233777D01*
X23490888Y-31114641D01*
X23494426Y-31099667D01*
X23499646Y-31051114D01*
X23500000Y-31044518D01*
X23500000Y-28266326D01*
X23496549Y-28253450D01*
X23483674Y-28250000D01*
X20266326Y-28250000D01*
X20253450Y-28253450D01*
X20250000Y-28266326D01*
X20250000Y-31483674D01*
X19750000Y-31483674D01*
X19750000Y-28266326D01*
X19746549Y-28253450D01*
X19733674Y-28250000D01*
X16516326Y-28250000D01*
X16503450Y-28253450D01*
X16500000Y-28266326D01*
X16500000Y-31044518D01*
X12900500Y-31044518D01*
X12900500Y-20800000D01*
X16181685Y-20800000D01*
X16200931Y-21167241D01*
X16201436Y-21170434D01*
X16201438Y-21170446D01*
X16257949Y-21527241D01*
X16258459Y-21530459D01*
X16259297Y-21533588D01*
X16259300Y-21533600D01*
X16352801Y-21882549D01*
X16352804Y-21882560D01*
X16353639Y-21885674D01*
X16354794Y-21888683D01*
X16354798Y-21888695D01*
X16484263Y-22225962D01*
X16485427Y-22228994D01*
X16486896Y-22231877D01*
X16486900Y-22231886D01*
X16650905Y-22553764D01*
X16652380Y-22556658D01*
X16852668Y-22865075D01*
X17084098Y-23150867D01*
X17344133Y-23410902D01*
X17629925Y-23642332D01*
X17938342Y-23842620D01*
X18266006Y-24009573D01*
X18609326Y-24141361D01*
X18964541Y-24236541D01*
X19071787Y-24253527D01*
X19127875Y-24277624D01*
X19165669Y-24325565D01*
X19176007Y-24385729D01*
X19156384Y-24443535D01*
X19111557Y-24484973D01*
X19052389Y-24500000D01*
X16955482Y-24500000D01*
X16948885Y-24500353D01*
X16900332Y-24505573D01*
X16885358Y-24509111D01*
X16766222Y-24553547D01*
X16750810Y-24561962D01*
X16649907Y-24637498D01*
X16637498Y-24649907D01*
X16561962Y-24750810D01*
X16553547Y-24766222D01*
X16509111Y-24885358D01*
X16505573Y-24900332D01*
X16500353Y-24948885D01*
X16500000Y-24955482D01*
X16500000Y-27733674D01*
X16503450Y-27746549D01*
X16516326Y-27750000D01*
X23483674Y-27750000D01*
X23496549Y-27746549D01*
X23500000Y-27733674D01*
X23500000Y-24955482D01*
X23499646Y-24948885D01*
X23494426Y-24900332D01*
X23490888Y-24885358D01*
X23446452Y-24766222D01*
X23438037Y-24750810D01*
X23362501Y-24649907D01*
X23350092Y-24637498D01*
X23249189Y-24561962D01*
X23233777Y-24553547D01*
X23114641Y-24509111D01*
X23099667Y-24505573D01*
X23051114Y-24500353D01*
X23044518Y-24500000D01*
X20337611Y-24500000D01*
X20278443Y-24484973D01*
X20233616Y-24443535D01*
X20213993Y-24385729D01*
X20224331Y-24325565D01*
X20262125Y-24277624D01*
X20318213Y-24253527D01*
X20425459Y-24236541D01*
X20780674Y-24141361D01*
X21123994Y-24009573D01*
X21451658Y-23842620D01*
X21760075Y-23642332D01*
X22045867Y-23410902D01*
X22305902Y-23150867D01*
X22537332Y-22865075D01*
X22737620Y-22556658D01*
X22904573Y-22228994D01*
X23036361Y-21885674D01*
X23131541Y-21530459D01*
X23189069Y-21167241D01*
X23208315Y-20800000D01*
X23189069Y-20432759D01*
X23131541Y-20069541D01*
X23107184Y-19978638D01*
X53081500Y-19978638D01*
X53081852Y-19981918D01*
X53081853Y-19981924D01*
X53082266Y-19985769D01*
X53088011Y-20039201D01*
X53090717Y-20046458D01*
X53090719Y-20046463D01*
X53136011Y-20167894D01*
X53139111Y-20176204D01*
X53144425Y-20183303D01*
X53144426Y-20183304D01*
X53163287Y-20208500D01*
X53226739Y-20293261D01*
X53343796Y-20380889D01*
X53480799Y-20431989D01*
X53541362Y-20438500D01*
X55495328Y-20438500D01*
X55498638Y-20438500D01*
X55559201Y-20431989D01*
X55696204Y-20380889D01*
X55813261Y-20293261D01*
X55900889Y-20176204D01*
X55915712Y-20136461D01*
X55947825Y-20088645D01*
X55998078Y-20060495D01*
X56055628Y-20058088D01*
X56108056Y-20081942D01*
X56266464Y-20205236D01*
X56266472Y-20205241D01*
X56270519Y-20208391D01*
X56480181Y-20321855D01*
X56705659Y-20399261D01*
X56940802Y-20438500D01*
X57174065Y-20438500D01*
X57179198Y-20438500D01*
X57414341Y-20399261D01*
X57639819Y-20321855D01*
X57849481Y-20208391D01*
X58037609Y-20061966D01*
X58199069Y-19886573D01*
X58226190Y-19845060D01*
X58270982Y-19803826D01*
X58330000Y-19788881D01*
X58389018Y-19803826D01*
X58433809Y-19845060D01*
X58453006Y-19874444D01*
X58460931Y-19886573D01*
X58622391Y-20061966D01*
X58626437Y-20065115D01*
X58626438Y-20065116D01*
X58716455Y-20135178D01*
X58810519Y-20208391D01*
X59020181Y-20321855D01*
X59245659Y-20399261D01*
X59480802Y-20438500D01*
X59714065Y-20438500D01*
X59719198Y-20438500D01*
X59954341Y-20399261D01*
X60179819Y-20321855D01*
X60389481Y-20208391D01*
X60577609Y-20061966D01*
X60739069Y-19886573D01*
X60869459Y-19686997D01*
X60965221Y-19468681D01*
X60991126Y-19366385D01*
X67490569Y-19366385D01*
X67498116Y-19374444D01*
X67643780Y-19473756D01*
X67651800Y-19478386D01*
X67872999Y-19584910D01*
X67881609Y-19588289D01*
X68116223Y-19660658D01*
X68125239Y-19662716D01*
X68368017Y-19699308D01*
X68377240Y-19700000D01*
X68622760Y-19700000D01*
X68631982Y-19699308D01*
X68874760Y-19662716D01*
X68883776Y-19660658D01*
X69118390Y-19588289D01*
X69127001Y-19584910D01*
X69348200Y-19478386D01*
X69356219Y-19473756D01*
X69501881Y-19374444D01*
X69509429Y-19366385D01*
X69503512Y-19357065D01*
X68511542Y-18365095D01*
X68500000Y-18358431D01*
X68488457Y-18365095D01*
X67496486Y-19357065D01*
X67490569Y-19366385D01*
X60991126Y-19366385D01*
X61023743Y-19237581D01*
X61043430Y-19000000D01*
X61023743Y-18762419D01*
X60965221Y-18531319D01*
X60869459Y-18313003D01*
X60739069Y-18113427D01*
X60638915Y-18004630D01*
X66795580Y-18004630D01*
X66813927Y-18249453D01*
X66815306Y-18258606D01*
X66869936Y-18497957D01*
X66872669Y-18506817D01*
X66962360Y-18735346D01*
X66966379Y-18743692D01*
X67089135Y-18956310D01*
X67094347Y-18963955D01*
X67122537Y-18999305D01*
X67133773Y-19007278D01*
X67145832Y-19000613D01*
X68134904Y-18011542D01*
X68141568Y-18000000D01*
X68858431Y-18000000D01*
X68865095Y-18011542D01*
X69854167Y-19000614D01*
X69866224Y-19007278D01*
X69877461Y-18999306D01*
X69905653Y-18963954D01*
X69910863Y-18956312D01*
X70033620Y-18743692D01*
X70037633Y-18735357D01*
X70052071Y-18698572D01*
X70093122Y-18644658D01*
X70156384Y-18620373D01*
X70222967Y-18632971D01*
X70272984Y-18678689D01*
X70291500Y-18743874D01*
X70291500Y-19248638D01*
X70298011Y-19309201D01*
X70300717Y-19316458D01*
X70300719Y-19316463D01*
X70346011Y-19437894D01*
X70349111Y-19446204D01*
X70354425Y-19453303D01*
X70354426Y-19453304D01*
X70394830Y-19507278D01*
X70436739Y-19563261D01*
X70553796Y-19650889D01*
X70690799Y-19701989D01*
X70751362Y-19708500D01*
X73245328Y-19708500D01*
X73248638Y-19708500D01*
X73309201Y-19701989D01*
X73446204Y-19650889D01*
X73563261Y-19563261D01*
X73650889Y-19446204D01*
X73701989Y-19309201D01*
X73708500Y-19248638D01*
X73708500Y-18500000D01*
X78536709Y-18500000D01*
X78537056Y-18504630D01*
X78554984Y-18743874D01*
X78555845Y-18755353D01*
X78556874Y-18759862D01*
X78556876Y-18759874D01*
X78611793Y-19000476D01*
X78612826Y-19005001D01*
X78614521Y-19009320D01*
X78614522Y-19009323D01*
X78704680Y-19239044D01*
X78704683Y-19239050D01*
X78706378Y-19243369D01*
X78708696Y-19247384D01*
X78708699Y-19247390D01*
X78832092Y-19461112D01*
X78832096Y-19461117D01*
X78834413Y-19465131D01*
X78994069Y-19665334D01*
X79181781Y-19839505D01*
X79393355Y-19983754D01*
X79624065Y-20094858D01*
X79868757Y-20170335D01*
X80121966Y-20208500D01*
X80373397Y-20208500D01*
X80378034Y-20208500D01*
X80631243Y-20170335D01*
X80875935Y-20094858D01*
X81106646Y-19983754D01*
X81318219Y-19839505D01*
X81505931Y-19665334D01*
X81665587Y-19465131D01*
X81793622Y-19243369D01*
X81884572Y-19011628D01*
X81918415Y-18963551D01*
X81970602Y-18936467D01*
X82029398Y-18936467D01*
X82081585Y-18963551D01*
X82115427Y-19011628D01*
X82147710Y-19093885D01*
X82204680Y-19239044D01*
X82204683Y-19239050D01*
X82206378Y-19243369D01*
X82208696Y-19247384D01*
X82208699Y-19247390D01*
X82332092Y-19461112D01*
X82332096Y-19461117D01*
X82334413Y-19465131D01*
X82494069Y-19665334D01*
X82681781Y-19839505D01*
X82893355Y-19983754D01*
X83124065Y-20094858D01*
X83368757Y-20170335D01*
X83621966Y-20208500D01*
X83873397Y-20208500D01*
X83878034Y-20208500D01*
X84131243Y-20170335D01*
X84375935Y-20094858D01*
X84606646Y-19983754D01*
X84818219Y-19839505D01*
X85005931Y-19665334D01*
X85165587Y-19465131D01*
X85293622Y-19243369D01*
X85384572Y-19011628D01*
X85418415Y-18963551D01*
X85470602Y-18936467D01*
X85529398Y-18936467D01*
X85581585Y-18963551D01*
X85615427Y-19011628D01*
X85647710Y-19093885D01*
X85704680Y-19239044D01*
X85704683Y-19239050D01*
X85706378Y-19243369D01*
X85708696Y-19247384D01*
X85708699Y-19247390D01*
X85832092Y-19461112D01*
X85832096Y-19461117D01*
X85834413Y-19465131D01*
X85994069Y-19665334D01*
X86181781Y-19839505D01*
X86393355Y-19983754D01*
X86624065Y-20094858D01*
X86868757Y-20170335D01*
X87121966Y-20208500D01*
X87373397Y-20208500D01*
X87378034Y-20208500D01*
X87631243Y-20170335D01*
X87875935Y-20094858D01*
X88106646Y-19983754D01*
X88318219Y-19839505D01*
X88505931Y-19665334D01*
X88665587Y-19465131D01*
X88793622Y-19243369D01*
X88884572Y-19011628D01*
X88918415Y-18963551D01*
X88970602Y-18936467D01*
X89029398Y-18936467D01*
X89081585Y-18963551D01*
X89115427Y-19011628D01*
X89147710Y-19093885D01*
X89204680Y-19239044D01*
X89204683Y-19239050D01*
X89206378Y-19243369D01*
X89208696Y-19247384D01*
X89208699Y-19247390D01*
X89332092Y-19461112D01*
X89332096Y-19461117D01*
X89334413Y-19465131D01*
X89494069Y-19665334D01*
X89681781Y-19839505D01*
X89893355Y-19983754D01*
X90124065Y-20094858D01*
X90368757Y-20170335D01*
X90621966Y-20208500D01*
X90873397Y-20208500D01*
X90878034Y-20208500D01*
X91131243Y-20170335D01*
X91375935Y-20094858D01*
X91606646Y-19983754D01*
X91778794Y-19866385D01*
X93240569Y-19866385D01*
X93248116Y-19874444D01*
X93393780Y-19973756D01*
X93401800Y-19978386D01*
X93622999Y-20084910D01*
X93631609Y-20088289D01*
X93866223Y-20160658D01*
X93875239Y-20162716D01*
X94118017Y-20199308D01*
X94127240Y-20200000D01*
X94372760Y-20200000D01*
X94381982Y-20199308D01*
X94624760Y-20162716D01*
X94633776Y-20160658D01*
X94868390Y-20088289D01*
X94877001Y-20084910D01*
X95098200Y-19978386D01*
X95106219Y-19973756D01*
X95251881Y-19874444D01*
X95259429Y-19866385D01*
X95253512Y-19857065D01*
X94261542Y-18865095D01*
X94250000Y-18858431D01*
X94238457Y-18865095D01*
X93246486Y-19857065D01*
X93240569Y-19866385D01*
X91778794Y-19866385D01*
X91818219Y-19839505D01*
X92005931Y-19665334D01*
X92165587Y-19465131D01*
X92293622Y-19243369D01*
X92387174Y-19005001D01*
X92387564Y-19005154D01*
X92418753Y-18954667D01*
X92473240Y-18924274D01*
X92535631Y-18924262D01*
X92590130Y-18954633D01*
X92619963Y-19002884D01*
X92620971Y-19002489D01*
X92712360Y-19235346D01*
X92716379Y-19243692D01*
X92839135Y-19456310D01*
X92844347Y-19463955D01*
X92872537Y-19499305D01*
X92883773Y-19507278D01*
X92895832Y-19500613D01*
X93884904Y-18511542D01*
X93891568Y-18500000D01*
X94608431Y-18500000D01*
X94615095Y-18511542D01*
X95604167Y-19500614D01*
X95616224Y-19507278D01*
X95627461Y-19499306D01*
X95655653Y-19463954D01*
X95660863Y-19456312D01*
X95783620Y-19243692D01*
X95787633Y-19235357D01*
X95802071Y-19198572D01*
X95843122Y-19144658D01*
X95906384Y-19120373D01*
X95972967Y-19132971D01*
X96022984Y-19178689D01*
X96041500Y-19243874D01*
X96041500Y-19748638D01*
X96048011Y-19809201D01*
X96050717Y-19816458D01*
X96050719Y-19816463D01*
X96078275Y-19890342D01*
X96099111Y-19946204D01*
X96186739Y-20063261D01*
X96303796Y-20150889D01*
X96440799Y-20201989D01*
X96501362Y-20208500D01*
X98995328Y-20208500D01*
X98998638Y-20208500D01*
X99059201Y-20201989D01*
X99196204Y-20150889D01*
X99313261Y-20063261D01*
X99400889Y-19946204D01*
X99451989Y-19809201D01*
X99458500Y-19748638D01*
X99458500Y-17251362D01*
X99451989Y-17190799D01*
X99400889Y-17053796D01*
X99313261Y-16936739D01*
X99271052Y-16905142D01*
X99203304Y-16854426D01*
X99203303Y-16854425D01*
X99196204Y-16849111D01*
X99187896Y-16846012D01*
X99187894Y-16846011D01*
X99066463Y-16800719D01*
X99066458Y-16800717D01*
X99059201Y-16798011D01*
X99051497Y-16797182D01*
X99051494Y-16797182D01*
X99001924Y-16791853D01*
X99001918Y-16791852D01*
X98998638Y-16791500D01*
X96501362Y-16791500D01*
X96498082Y-16791852D01*
X96498075Y-16791853D01*
X96448505Y-16797182D01*
X96448500Y-16797182D01*
X96440799Y-16798011D01*
X96433543Y-16800717D01*
X96433536Y-16800719D01*
X96312105Y-16846011D01*
X96312099Y-16846013D01*
X96303796Y-16849111D01*
X96296698Y-16854423D01*
X96296695Y-16854426D01*
X96193835Y-16931426D01*
X96193831Y-16931429D01*
X96186739Y-16936739D01*
X96181429Y-16943831D01*
X96181426Y-16943835D01*
X96104426Y-17046695D01*
X96104423Y-17046698D01*
X96099111Y-17053796D01*
X96096013Y-17062099D01*
X96096011Y-17062105D01*
X96050719Y-17183536D01*
X96050717Y-17183543D01*
X96048011Y-17190799D01*
X96047182Y-17198500D01*
X96047182Y-17198505D01*
X96041853Y-17248075D01*
X96041500Y-17251362D01*
X96041500Y-17254672D01*
X96041500Y-17756126D01*
X96022984Y-17821311D01*
X95972967Y-17867029D01*
X95906384Y-17879627D01*
X95843122Y-17855342D01*
X95802071Y-17801428D01*
X95787633Y-17764642D01*
X95783620Y-17756307D01*
X95660864Y-17543689D01*
X95655652Y-17536044D01*
X95627460Y-17500691D01*
X95616225Y-17492720D01*
X95604167Y-17499384D01*
X94615095Y-18488457D01*
X94608431Y-18500000D01*
X93891568Y-18500000D01*
X93884904Y-18488457D01*
X92895832Y-17499385D01*
X92883773Y-17492721D01*
X92872538Y-17500693D01*
X92844343Y-17536048D01*
X92839137Y-17543685D01*
X92716379Y-17756307D01*
X92712360Y-17764653D01*
X92620971Y-17997511D01*
X92619965Y-17997116D01*
X92590125Y-18045370D01*
X92535627Y-18075738D01*
X92473240Y-18075725D01*
X92418755Y-18045334D01*
X92387563Y-17994846D01*
X92387174Y-17994999D01*
X92293622Y-17756631D01*
X92217293Y-17624426D01*
X92167907Y-17538887D01*
X92167905Y-17538885D01*
X92165587Y-17534869D01*
X92005931Y-17334666D01*
X91818219Y-17160495D01*
X91814385Y-17157881D01*
X91778791Y-17133613D01*
X93240568Y-17133613D01*
X93246484Y-17142931D01*
X94238457Y-18134904D01*
X94250000Y-18141568D01*
X94261542Y-18134904D01*
X95253512Y-17142933D01*
X95259429Y-17133613D01*
X95251881Y-17125554D01*
X95106220Y-17026243D01*
X95098200Y-17021613D01*
X94877001Y-16915089D01*
X94868390Y-16911710D01*
X94633776Y-16839341D01*
X94624760Y-16837283D01*
X94381982Y-16800691D01*
X94372760Y-16800000D01*
X94127240Y-16800000D01*
X94118017Y-16800691D01*
X93875239Y-16837283D01*
X93866223Y-16839341D01*
X93631609Y-16911710D01*
X93622999Y-16915089D01*
X93401808Y-17021609D01*
X93393775Y-17026247D01*
X93248116Y-17125555D01*
X93240568Y-17133613D01*
X91778791Y-17133613D01*
X91610482Y-17018861D01*
X91610478Y-17018859D01*
X91606646Y-17016246D01*
X91557794Y-16992720D01*
X91380118Y-16907156D01*
X91380113Y-16907154D01*
X91375935Y-16905142D01*
X91371502Y-16903774D01*
X91371498Y-16903773D01*
X91135678Y-16831033D01*
X91135677Y-16831032D01*
X91131243Y-16829665D01*
X91126655Y-16828973D01*
X91126653Y-16828973D01*
X90882619Y-16792191D01*
X90882618Y-16792190D01*
X90878034Y-16791500D01*
X90621966Y-16791500D01*
X90617382Y-16792190D01*
X90617380Y-16792191D01*
X90373346Y-16828973D01*
X90373341Y-16828973D01*
X90368757Y-16829665D01*
X90364324Y-16831032D01*
X90364321Y-16831033D01*
X90128502Y-16903773D01*
X90128497Y-16903774D01*
X90124065Y-16905142D01*
X90119886Y-16907154D01*
X90119882Y-16907156D01*
X89897540Y-17014230D01*
X89897533Y-17014233D01*
X89893355Y-17016246D01*
X89889522Y-17018859D01*
X89889519Y-17018861D01*
X89685615Y-17157881D01*
X89681781Y-17160495D01*
X89678389Y-17163641D01*
X89678383Y-17163647D01*
X89508462Y-17321311D01*
X89494069Y-17334666D01*
X89491180Y-17338288D01*
X89491176Y-17338293D01*
X89337305Y-17531242D01*
X89334413Y-17534869D01*
X89332099Y-17538875D01*
X89332092Y-17538887D01*
X89208699Y-17752609D01*
X89208693Y-17752620D01*
X89206378Y-17756631D01*
X89204685Y-17760944D01*
X89204680Y-17760955D01*
X89115428Y-17988369D01*
X89081584Y-18036448D01*
X89029398Y-18063532D01*
X88970602Y-18063532D01*
X88918416Y-18036448D01*
X88884572Y-17988369D01*
X88795319Y-17760955D01*
X88793622Y-17756631D01*
X88717293Y-17624426D01*
X88667907Y-17538887D01*
X88667905Y-17538885D01*
X88665587Y-17534869D01*
X88505931Y-17334666D01*
X88318219Y-17160495D01*
X88314385Y-17157881D01*
X88110482Y-17018861D01*
X88110478Y-17018859D01*
X88106646Y-17016246D01*
X88057794Y-16992720D01*
X87880118Y-16907156D01*
X87880113Y-16907154D01*
X87875935Y-16905142D01*
X87871502Y-16903774D01*
X87871498Y-16903773D01*
X87635678Y-16831033D01*
X87635677Y-16831032D01*
X87631243Y-16829665D01*
X87626655Y-16828973D01*
X87626653Y-16828973D01*
X87382619Y-16792191D01*
X87382618Y-16792190D01*
X87378034Y-16791500D01*
X87121966Y-16791500D01*
X87117382Y-16792190D01*
X87117380Y-16792191D01*
X86873346Y-16828973D01*
X86873341Y-16828973D01*
X86868757Y-16829665D01*
X86864324Y-16831032D01*
X86864321Y-16831033D01*
X86628502Y-16903773D01*
X86628497Y-16903774D01*
X86624065Y-16905142D01*
X86619886Y-16907154D01*
X86619882Y-16907156D01*
X86397540Y-17014230D01*
X86397533Y-17014233D01*
X86393355Y-17016246D01*
X86389522Y-17018859D01*
X86389519Y-17018861D01*
X86185615Y-17157881D01*
X86181781Y-17160495D01*
X86178389Y-17163641D01*
X86178383Y-17163647D01*
X86008462Y-17321311D01*
X85994069Y-17334666D01*
X85991180Y-17338288D01*
X85991176Y-17338293D01*
X85837305Y-17531242D01*
X85834413Y-17534869D01*
X85832099Y-17538875D01*
X85832092Y-17538887D01*
X85708699Y-17752609D01*
X85708693Y-17752620D01*
X85706378Y-17756631D01*
X85704685Y-17760944D01*
X85704680Y-17760955D01*
X85615428Y-17988369D01*
X85581584Y-18036448D01*
X85529398Y-18063532D01*
X85470602Y-18063532D01*
X85418416Y-18036448D01*
X85384572Y-17988369D01*
X85295319Y-17760955D01*
X85293622Y-17756631D01*
X85217293Y-17624426D01*
X85167907Y-17538887D01*
X85167905Y-17538885D01*
X85165587Y-17534869D01*
X85005931Y-17334666D01*
X84818219Y-17160495D01*
X84814385Y-17157881D01*
X84610482Y-17018861D01*
X84610478Y-17018859D01*
X84606646Y-17016246D01*
X84557794Y-16992720D01*
X84380118Y-16907156D01*
X84380113Y-16907154D01*
X84375935Y-16905142D01*
X84371502Y-16903774D01*
X84371498Y-16903773D01*
X84135678Y-16831033D01*
X84135677Y-16831032D01*
X84131243Y-16829665D01*
X84126655Y-16828973D01*
X84126653Y-16828973D01*
X83882619Y-16792191D01*
X83882618Y-16792190D01*
X83878034Y-16791500D01*
X83621966Y-16791500D01*
X83617382Y-16792190D01*
X83617380Y-16792191D01*
X83373346Y-16828973D01*
X83373341Y-16828973D01*
X83368757Y-16829665D01*
X83364324Y-16831032D01*
X83364321Y-16831033D01*
X83128502Y-16903773D01*
X83128497Y-16903774D01*
X83124065Y-16905142D01*
X83119886Y-16907154D01*
X83119882Y-16907156D01*
X82897540Y-17014230D01*
X82897533Y-17014233D01*
X82893355Y-17016246D01*
X82889522Y-17018859D01*
X82889519Y-17018861D01*
X82685615Y-17157881D01*
X82681781Y-17160495D01*
X82678389Y-17163641D01*
X82678383Y-17163647D01*
X82508462Y-17321311D01*
X82494069Y-17334666D01*
X82491180Y-17338288D01*
X82491176Y-17338293D01*
X82337305Y-17531242D01*
X82334413Y-17534869D01*
X82332099Y-17538875D01*
X82332092Y-17538887D01*
X82208699Y-17752609D01*
X82208693Y-17752620D01*
X82206378Y-17756631D01*
X82204685Y-17760944D01*
X82204680Y-17760955D01*
X82115428Y-17988369D01*
X82081584Y-18036448D01*
X82029398Y-18063532D01*
X81970602Y-18063532D01*
X81918416Y-18036448D01*
X81884572Y-17988369D01*
X81795319Y-17760955D01*
X81793622Y-17756631D01*
X81717293Y-17624426D01*
X81667907Y-17538887D01*
X81667905Y-17538885D01*
X81665587Y-17534869D01*
X81505931Y-17334666D01*
X81318219Y-17160495D01*
X81314385Y-17157881D01*
X81110482Y-17018861D01*
X81110478Y-17018859D01*
X81106646Y-17016246D01*
X81057794Y-16992720D01*
X80880118Y-16907156D01*
X80880113Y-16907154D01*
X80875935Y-16905142D01*
X80871502Y-16903774D01*
X80871498Y-16903773D01*
X80635678Y-16831033D01*
X80635677Y-16831032D01*
X80631243Y-16829665D01*
X80626655Y-16828973D01*
X80626653Y-16828973D01*
X80382619Y-16792191D01*
X80382618Y-16792190D01*
X80378034Y-16791500D01*
X80121966Y-16791500D01*
X80117382Y-16792190D01*
X80117380Y-16792191D01*
X79873346Y-16828973D01*
X79873341Y-16828973D01*
X79868757Y-16829665D01*
X79864324Y-16831032D01*
X79864321Y-16831033D01*
X79628502Y-16903773D01*
X79628497Y-16903774D01*
X79624065Y-16905142D01*
X79619886Y-16907154D01*
X79619882Y-16907156D01*
X79397540Y-17014230D01*
X79397533Y-17014233D01*
X79393355Y-17016246D01*
X79389522Y-17018859D01*
X79389519Y-17018861D01*
X79185615Y-17157881D01*
X79181781Y-17160495D01*
X79178389Y-17163641D01*
X79178383Y-17163647D01*
X79008462Y-17321311D01*
X78994069Y-17334666D01*
X78991180Y-17338288D01*
X78991176Y-17338293D01*
X78837305Y-17531242D01*
X78834413Y-17534869D01*
X78832099Y-17538875D01*
X78832092Y-17538887D01*
X78708699Y-17752609D01*
X78708693Y-17752620D01*
X78706378Y-17756631D01*
X78704685Y-17760944D01*
X78704680Y-17760955D01*
X78614522Y-17990676D01*
X78614519Y-17990683D01*
X78612826Y-17994999D01*
X78611794Y-17999517D01*
X78611793Y-17999523D01*
X78556876Y-18240125D01*
X78556873Y-18240139D01*
X78555845Y-18244647D01*
X78555498Y-18249266D01*
X78555498Y-18249272D01*
X78540693Y-18446838D01*
X78536709Y-18500000D01*
X73708500Y-18500000D01*
X73708500Y-16751362D01*
X73701989Y-16690799D01*
X73650889Y-16553796D01*
X73563261Y-16436739D01*
X73446204Y-16349111D01*
X73437896Y-16346012D01*
X73437894Y-16346011D01*
X73316463Y-16300719D01*
X73316458Y-16300717D01*
X73309201Y-16298011D01*
X73301497Y-16297182D01*
X73301494Y-16297182D01*
X73251924Y-16291853D01*
X73251918Y-16291852D01*
X73248638Y-16291500D01*
X70751362Y-16291500D01*
X70748082Y-16291852D01*
X70748075Y-16291853D01*
X70698505Y-16297182D01*
X70698500Y-16297182D01*
X70690799Y-16298011D01*
X70683543Y-16300717D01*
X70683536Y-16300719D01*
X70562105Y-16346011D01*
X70562099Y-16346013D01*
X70553796Y-16349111D01*
X70546698Y-16354423D01*
X70546695Y-16354426D01*
X70443835Y-16431426D01*
X70443831Y-16431429D01*
X70436739Y-16436739D01*
X70431429Y-16443831D01*
X70431426Y-16443835D01*
X70354426Y-16546695D01*
X70354423Y-16546698D01*
X70349111Y-16553796D01*
X70346013Y-16562099D01*
X70346011Y-16562105D01*
X70300719Y-16683536D01*
X70300717Y-16683543D01*
X70298011Y-16690799D01*
X70297182Y-16698500D01*
X70297182Y-16698505D01*
X70291853Y-16748075D01*
X70291500Y-16751362D01*
X70291500Y-16754672D01*
X70291500Y-17256126D01*
X70272984Y-17321311D01*
X70222967Y-17367029D01*
X70156384Y-17379627D01*
X70093122Y-17355342D01*
X70052071Y-17301428D01*
X70037633Y-17264642D01*
X70033620Y-17256307D01*
X69910864Y-17043689D01*
X69905652Y-17036044D01*
X69877460Y-17000691D01*
X69866225Y-16992720D01*
X69854167Y-16999384D01*
X68865095Y-17988457D01*
X68858431Y-18000000D01*
X68141568Y-18000000D01*
X68134904Y-17988457D01*
X67145832Y-16999385D01*
X67133773Y-16992721D01*
X67122538Y-17000693D01*
X67094343Y-17036048D01*
X67089137Y-17043685D01*
X66966379Y-17256307D01*
X66962360Y-17264653D01*
X66872669Y-17493182D01*
X66869936Y-17502042D01*
X66815306Y-17741393D01*
X66813927Y-17750546D01*
X66795580Y-17995370D01*
X66795580Y-18004630D01*
X60638915Y-18004630D01*
X60577609Y-17938034D01*
X60502567Y-17879627D01*
X60393527Y-17794758D01*
X60393526Y-17794757D01*
X60389481Y-17791609D01*
X60313604Y-17750546D01*
X60184321Y-17680581D01*
X60184317Y-17680579D01*
X60179819Y-17678145D01*
X60174978Y-17676483D01*
X60174971Y-17676480D01*
X59959190Y-17602403D01*
X59959182Y-17602401D01*
X59954341Y-17600739D01*
X59949294Y-17599896D01*
X59949287Y-17599895D01*
X59724260Y-17562344D01*
X59724251Y-17562343D01*
X59719198Y-17561500D01*
X59480802Y-17561500D01*
X59475749Y-17562343D01*
X59475739Y-17562344D01*
X59250712Y-17599895D01*
X59250702Y-17599897D01*
X59245659Y-17600739D01*
X59240820Y-17602400D01*
X59240809Y-17602403D01*
X59025028Y-17676480D01*
X59025017Y-17676484D01*
X59020181Y-17678145D01*
X59015686Y-17680577D01*
X59015678Y-17680581D01*
X58815027Y-17789169D01*
X58815023Y-17789171D01*
X58810519Y-17791609D01*
X58806479Y-17794753D01*
X58806472Y-17794758D01*
X58626438Y-17934883D01*
X58626430Y-17934890D01*
X58622391Y-17938034D01*
X58618921Y-17941802D01*
X58618917Y-17941807D01*
X58464401Y-18109657D01*
X58464398Y-18109660D01*
X58460931Y-18113427D01*
X58458134Y-18117706D01*
X58458123Y-18117722D01*
X58433808Y-18154940D01*
X58389017Y-18196173D01*
X58330000Y-18211118D01*
X58270983Y-18196173D01*
X58226192Y-18154940D01*
X58201876Y-18117722D01*
X58201870Y-18117714D01*
X58199069Y-18113427D01*
X58037609Y-17938034D01*
X57962567Y-17879627D01*
X57853527Y-17794758D01*
X57853526Y-17794757D01*
X57849481Y-17791609D01*
X57773604Y-17750546D01*
X57644321Y-17680581D01*
X57644317Y-17680579D01*
X57639819Y-17678145D01*
X57634978Y-17676483D01*
X57634971Y-17676480D01*
X57419190Y-17602403D01*
X57419182Y-17602401D01*
X57414341Y-17600739D01*
X57409294Y-17599896D01*
X57409287Y-17599895D01*
X57184260Y-17562344D01*
X57184251Y-17562343D01*
X57179198Y-17561500D01*
X56940802Y-17561500D01*
X56935749Y-17562343D01*
X56935739Y-17562344D01*
X56710712Y-17599895D01*
X56710702Y-17599897D01*
X56705659Y-17600739D01*
X56700820Y-17602400D01*
X56700809Y-17602403D01*
X56485028Y-17676480D01*
X56485017Y-17676484D01*
X56480181Y-17678145D01*
X56475686Y-17680577D01*
X56475678Y-17680581D01*
X56275027Y-17789169D01*
X56275023Y-17789171D01*
X56270519Y-17791609D01*
X56266479Y-17794753D01*
X56266472Y-17794758D01*
X56108056Y-17918058D01*
X56055628Y-17941911D01*
X55998078Y-17939504D01*
X55947825Y-17911355D01*
X55915712Y-17863538D01*
X55903988Y-17832105D01*
X55900889Y-17823796D01*
X55813261Y-17706739D01*
X55696204Y-17619111D01*
X55687896Y-17616012D01*
X55687894Y-17616011D01*
X55566463Y-17570719D01*
X55566458Y-17570717D01*
X55559201Y-17568011D01*
X55551497Y-17567182D01*
X55551494Y-17567182D01*
X55501924Y-17561853D01*
X55501918Y-17561852D01*
X55498638Y-17561500D01*
X53541362Y-17561500D01*
X53538082Y-17561852D01*
X53538075Y-17561853D01*
X53488505Y-17567182D01*
X53488500Y-17567182D01*
X53480799Y-17568011D01*
X53473543Y-17570717D01*
X53473536Y-17570719D01*
X53352105Y-17616011D01*
X53352099Y-17616013D01*
X53343796Y-17619111D01*
X53336698Y-17624423D01*
X53336695Y-17624426D01*
X53233835Y-17701426D01*
X53233831Y-17701429D01*
X53226739Y-17706739D01*
X53221429Y-17713831D01*
X53221426Y-17713835D01*
X53144426Y-17816695D01*
X53144423Y-17816698D01*
X53139111Y-17823796D01*
X53136013Y-17832099D01*
X53136011Y-17832105D01*
X53090719Y-17953536D01*
X53090717Y-17953543D01*
X53088011Y-17960799D01*
X53087182Y-17968500D01*
X53087182Y-17968505D01*
X53081853Y-18018075D01*
X53081500Y-18021362D01*
X53081500Y-19978638D01*
X23107184Y-19978638D01*
X23036361Y-19714326D01*
X22904573Y-19371006D01*
X22902218Y-19366385D01*
X22739094Y-19046236D01*
X22737620Y-19043343D01*
X22537332Y-18734925D01*
X22305902Y-18449133D01*
X22045867Y-18189098D01*
X22003685Y-18154940D01*
X21818068Y-18004630D01*
X21760075Y-17957668D01*
X21451658Y-17757380D01*
X21448770Y-17755908D01*
X21448764Y-17755905D01*
X21126886Y-17591900D01*
X21126877Y-17591896D01*
X21123994Y-17590427D01*
X21072653Y-17570719D01*
X20783695Y-17459798D01*
X20783683Y-17459794D01*
X20780674Y-17458639D01*
X20777560Y-17457804D01*
X20777549Y-17457801D01*
X20428600Y-17364300D01*
X20428588Y-17364297D01*
X20425459Y-17363459D01*
X20422246Y-17362950D01*
X20422241Y-17362949D01*
X20065446Y-17306438D01*
X20065434Y-17306436D01*
X20062241Y-17305931D01*
X20059008Y-17305761D01*
X20059003Y-17305761D01*
X19698244Y-17286855D01*
X19695000Y-17286685D01*
X19691756Y-17286855D01*
X19330996Y-17305761D01*
X19330989Y-17305761D01*
X19327759Y-17305931D01*
X19324567Y-17306436D01*
X19324553Y-17306438D01*
X18967758Y-17362949D01*
X18967749Y-17362950D01*
X18964541Y-17363459D01*
X18961415Y-17364296D01*
X18961399Y-17364300D01*
X18612450Y-17457801D01*
X18612433Y-17457806D01*
X18609326Y-17458639D01*
X18606321Y-17459792D01*
X18606304Y-17459798D01*
X18269037Y-17589263D01*
X18269028Y-17589266D01*
X18266006Y-17590427D01*
X18263129Y-17591892D01*
X18263113Y-17591900D01*
X17941236Y-17755905D01*
X17941222Y-17755912D01*
X17938343Y-17757380D01*
X17935622Y-17759146D01*
X17935615Y-17759151D01*
X17632653Y-17955896D01*
X17632647Y-17955900D01*
X17629925Y-17957668D01*
X17627405Y-17959708D01*
X17627399Y-17959713D01*
X17346651Y-18187058D01*
X17346640Y-18187067D01*
X17344133Y-18189098D01*
X17341848Y-18191382D01*
X17341838Y-18191392D01*
X17086392Y-18446838D01*
X17086382Y-18446848D01*
X17084098Y-18449133D01*
X17082067Y-18451640D01*
X17082058Y-18451651D01*
X16854713Y-18732399D01*
X16854708Y-18732405D01*
X16852668Y-18734925D01*
X16850900Y-18737647D01*
X16850896Y-18737653D01*
X16654151Y-19040615D01*
X16654146Y-19040622D01*
X16652380Y-19043343D01*
X16650912Y-19046222D01*
X16650905Y-19046236D01*
X16486900Y-19368113D01*
X16486892Y-19368129D01*
X16485427Y-19371006D01*
X16484266Y-19374028D01*
X16484263Y-19374037D01*
X16354798Y-19711304D01*
X16354792Y-19711321D01*
X16353639Y-19714326D01*
X16352806Y-19717433D01*
X16352801Y-19717450D01*
X16259300Y-20066399D01*
X16259296Y-20066415D01*
X16258459Y-20069541D01*
X16257950Y-20072749D01*
X16257949Y-20072758D01*
X16201438Y-20429553D01*
X16201436Y-20429567D01*
X16200931Y-20432759D01*
X16200761Y-20435989D01*
X16200761Y-20435996D01*
X16200630Y-20438500D01*
X16181685Y-20800000D01*
X12900500Y-20800000D01*
X12900500Y-16633613D01*
X67490568Y-16633613D01*
X67496484Y-16642931D01*
X68488457Y-17634904D01*
X68500000Y-17641568D01*
X68511542Y-17634904D01*
X69503512Y-16642933D01*
X69509429Y-16633613D01*
X69501881Y-16625554D01*
X69356220Y-16526243D01*
X69348200Y-16521613D01*
X69127001Y-16415089D01*
X69118390Y-16411710D01*
X68883776Y-16339341D01*
X68874760Y-16337283D01*
X68631982Y-16300691D01*
X68622760Y-16300000D01*
X68377240Y-16300000D01*
X68368017Y-16300691D01*
X68125239Y-16337283D01*
X68116223Y-16339341D01*
X67881609Y-16411710D01*
X67872999Y-16415089D01*
X67651808Y-16521609D01*
X67643775Y-16526247D01*
X67498116Y-16625555D01*
X67490568Y-16633613D01*
X12900500Y-16633613D01*
X12900500Y-12824500D01*
X12917113Y-12762500D01*
X12962500Y-12717113D01*
X13024500Y-12700500D01*
X111375500Y-12700500D01*
X111437500Y-12717113D01*
G37*
%TD.AperFunction*%
%TD*%
M02*
