%TF.GenerationSoftware,KiCad,Pcbnew,7.0.0*%
%TF.CreationDate,2023-03-08T02:35:56-06:00*%
%TF.ProjectId,finalproj_breakout,66696e61-6c70-4726-9f6a-5f627265616b,rev?*%
%TF.SameCoordinates,Original*%
%TF.FileFunction,Paste,Top*%
%TF.FilePolarity,Positive*%
%FSLAX46Y46*%
G04 Gerber Fmt 4.6, Leading zero omitted, Abs format (unit mm)*
G04 Created by KiCad (PCBNEW 7.0.0) date 2023-03-08 02:35:56*
%MOMM*%
%LPD*%
G01*
G04 APERTURE LIST*
G04 Aperture macros list*
%AMRoundRect*
0 Rectangle with rounded corners*
0 $1 Rounding radius*
0 $2 $3 $4 $5 $6 $7 $8 $9 X,Y pos of 4 corners*
0 Add a 4 corners polygon primitive as box body*
4,1,4,$2,$3,$4,$5,$6,$7,$8,$9,$2,$3,0*
0 Add four circle primitives for the rounded corners*
1,1,$1+$1,$2,$3*
1,1,$1+$1,$4,$5*
1,1,$1+$1,$6,$7*
1,1,$1+$1,$8,$9*
0 Add four rect primitives between the rounded corners*
20,1,$1+$1,$2,$3,$4,$5,0*
20,1,$1+$1,$4,$5,$6,$7,0*
20,1,$1+$1,$6,$7,$8,$9,0*
20,1,$1+$1,$8,$9,$2,$3,0*%
G04 Aperture macros list end*
%ADD10RoundRect,0.075000X-0.662500X-0.075000X0.662500X-0.075000X0.662500X0.075000X-0.662500X0.075000X0*%
%ADD11RoundRect,0.075000X-0.075000X-0.662500X0.075000X-0.662500X0.075000X0.662500X-0.075000X0.662500X0*%
G04 APERTURE END LIST*
D10*
%TO.C,U1*%
X181615500Y-70498000D03*
X181615500Y-70998000D03*
X181615500Y-71498000D03*
X181615500Y-71998000D03*
X181615500Y-72498000D03*
X181615500Y-72998000D03*
X181615500Y-73498000D03*
X181615500Y-73998000D03*
X181615500Y-74498000D03*
X181615500Y-74998000D03*
X181615500Y-75498000D03*
X181615500Y-75998000D03*
X181615500Y-76498000D03*
X181615500Y-76998000D03*
X181615500Y-77498000D03*
X181615500Y-77998000D03*
X181615500Y-78498000D03*
X181615500Y-78998000D03*
X181615500Y-79498000D03*
X181615500Y-79998000D03*
X181615500Y-80498000D03*
X181615500Y-80998000D03*
X181615500Y-81498000D03*
X181615500Y-81998000D03*
X181615500Y-82498000D03*
X181615500Y-82998000D03*
X181615500Y-83498000D03*
X181615500Y-83998000D03*
X181615500Y-84498000D03*
X181615500Y-84998000D03*
X181615500Y-85498000D03*
X181615500Y-85998000D03*
X181615500Y-86498000D03*
X181615500Y-86998000D03*
X181615500Y-87498000D03*
X181615500Y-87998000D03*
D11*
X183528000Y-89910500D03*
X184028000Y-89910500D03*
X184528000Y-89910500D03*
X185028000Y-89910500D03*
X185528000Y-89910500D03*
X186028000Y-89910500D03*
X186528000Y-89910500D03*
X187028000Y-89910500D03*
X187528000Y-89910500D03*
X188028000Y-89910500D03*
X188528000Y-89910500D03*
X189028000Y-89910500D03*
X189528000Y-89910500D03*
X190028000Y-89910500D03*
X190528000Y-89910500D03*
X191028000Y-89910500D03*
X191528000Y-89910500D03*
X192028000Y-89910500D03*
X192528000Y-89910500D03*
X193028000Y-89910500D03*
X193528000Y-89910500D03*
X194028000Y-89910500D03*
X194528000Y-89910500D03*
X195028000Y-89910500D03*
X195528000Y-89910500D03*
X196028000Y-89910500D03*
X196528000Y-89910500D03*
X197028000Y-89910500D03*
X197528000Y-89910500D03*
X198028000Y-89910500D03*
X198528000Y-89910500D03*
X199028000Y-89910500D03*
X199528000Y-89910500D03*
X200028000Y-89910500D03*
X200528000Y-89910500D03*
X201028000Y-89910500D03*
D10*
X202940500Y-87998000D03*
X202940500Y-87498000D03*
X202940500Y-86998000D03*
X202940500Y-86498000D03*
X202940500Y-85998000D03*
X202940500Y-85498000D03*
X202940500Y-84998000D03*
X202940500Y-84498000D03*
X202940500Y-83998000D03*
X202940500Y-83498000D03*
X202940500Y-82998000D03*
X202940500Y-82498000D03*
X202940500Y-81998000D03*
X202940500Y-81498000D03*
X202940500Y-80998000D03*
X202940500Y-80498000D03*
X202940500Y-79998000D03*
X202940500Y-79498000D03*
X202940500Y-78998000D03*
X202940500Y-78498000D03*
X202940500Y-77998000D03*
X202940500Y-77498000D03*
X202940500Y-76998000D03*
X202940500Y-76498000D03*
X202940500Y-75998000D03*
X202940500Y-75498000D03*
X202940500Y-74998000D03*
X202940500Y-74498000D03*
X202940500Y-73998000D03*
X202940500Y-73498000D03*
X202940500Y-72998000D03*
X202940500Y-72498000D03*
X202940500Y-71998000D03*
X202940500Y-71498000D03*
X202940500Y-70998000D03*
X202940500Y-70498000D03*
D11*
X201028000Y-68585500D03*
X200528000Y-68585500D03*
X200028000Y-68585500D03*
X199528000Y-68585500D03*
X199028000Y-68585500D03*
X198528000Y-68585500D03*
X198028000Y-68585500D03*
X197528000Y-68585500D03*
X197028000Y-68585500D03*
X196528000Y-68585500D03*
X196028000Y-68585500D03*
X195528000Y-68585500D03*
X195028000Y-68585500D03*
X194528000Y-68585500D03*
X194028000Y-68585500D03*
X193528000Y-68585500D03*
X193028000Y-68585500D03*
X192528000Y-68585500D03*
X192028000Y-68585500D03*
X191528000Y-68585500D03*
X191028000Y-68585500D03*
X190528000Y-68585500D03*
X190028000Y-68585500D03*
X189528000Y-68585500D03*
X189028000Y-68585500D03*
X188528000Y-68585500D03*
X188028000Y-68585500D03*
X187528000Y-68585500D03*
X187028000Y-68585500D03*
X186528000Y-68585500D03*
X186028000Y-68585500D03*
X185528000Y-68585500D03*
X185028000Y-68585500D03*
X184528000Y-68585500D03*
X184028000Y-68585500D03*
X183528000Y-68585500D03*
%TD*%
M02*
