M48
INCH,TZ
T1C0.0157
T2C0.0394
T3C0.0472
T4C0.0488
T5C0.1772
%
G90
G05
T1
X6614Y-30236
X7874Y-20236
X9685Y-8717
X10000Y-9055
X11024Y-39291
X13543Y-15118
X13780Y-15354
X14724Y-12992
X14724Y-13386
X14882Y-22835
X16457Y-24488
X16772Y-9921
X16772Y-17717
X17008Y-17480
X17008Y-24409
X17008Y-40000
X17087Y-9685
X17323Y-9291
X17559Y-30236
X17795Y-29449
X17953Y-28976
X18268Y-30394
X19921Y-23386
X21024Y-12598
X21024Y-12992
X21654Y-23465
X22047Y-39921
X23488Y-8898
X24646Y-40157
X25118Y-11969
X25276Y-31024
X25354Y-24331
X25512Y-12126
X25669Y-6299
X25827Y-12992
X25827Y-13386
X27402Y-33465
X27874Y-34803
X29914Y-13148
X29921Y-16772
X30000Y-12756
X30378Y-8387
X30709Y-29528
X30808Y-28524
X31102Y-40236
X31181Y-25039
X31339Y-13465
X33150Y-25039
X33307Y-16299
X33527Y-24472
X33622Y-27559
X33858Y-22598
X34173Y-12441
X35100Y-16142
X35118Y-8976
X35433Y-28189
X36055Y-16850
X36446Y-21000
X36538Y-12601
X36929Y-9843
X36929Y-19921
X39134Y-40709
T2
X7425Y-23228
X7425Y-24228
X7425Y-25228
X7425Y-26228
X7425Y-27228
X7425Y-28228
X7425Y-29228
X7425Y-30228
X7425Y-31228
X7425Y-32228
X7425Y-33228
X7425Y-34228
X7425Y-35228
X7425Y-36228
X7425Y-37228
X7425Y-38228
X7425Y-39228
X7425Y-40228
X8425Y-23228
X8425Y-24228
X8425Y-25228
X8425Y-26228
X8425Y-27228
X8425Y-28228
X8425Y-29228
X8425Y-30228
X8425Y-31228
X8425Y-32228
X8425Y-33228
X8425Y-34228
X8425Y-35228
X8425Y-36228
X8425Y-37228
X8425Y-38228
X8425Y-39228
X8425Y-40228
X9979Y-41932
X9979Y-42932
X10335Y-20761
X10335Y-21761
X10979Y-41932
X10979Y-42932
X11335Y-20761
X11335Y-21761
X11979Y-41932
X11979Y-42932
X12335Y-20761
X12335Y-21761
X12979Y-41932
X12979Y-42932
X13335Y-20761
X13335Y-21761
X13979Y-41932
X13979Y-42932
X14335Y-20761
X14335Y-21761
X14979Y-41932
X14979Y-42932
X15335Y-20761
X15335Y-21761
X15979Y-41932
X15979Y-42932
X16335Y-20761
X16335Y-21761
X16979Y-41932
X16979Y-42932
X17335Y-20761
X17335Y-21761
X17979Y-41932
X17979Y-42932
X18335Y-20761
X18335Y-21761
X18979Y-41932
X18979Y-42932
X19335Y-20761
X19335Y-21761
X19979Y-41932
X19979Y-42932
X20335Y-20761
X20335Y-21761
X20979Y-41932
X20979Y-42932
X21335Y-20761
X21335Y-21761
X21979Y-41932
X21979Y-42932
X22335Y-20761
X22335Y-21761
X22979Y-41932
X22979Y-42932
X23335Y-20761
X23335Y-21761
X23979Y-41932
X23979Y-42932
X24335Y-20761
X24335Y-21761
X24979Y-41932
X24979Y-42932
X25335Y-20761
X25335Y-21761
X25979Y-41932
X25979Y-42932
X26335Y-20761
X26335Y-21761
X26979Y-41932
X26979Y-42932
X27335Y-20761
X27335Y-21761
X28699Y-23240
X28699Y-24240
X28699Y-25240
X28699Y-26240
X28699Y-27240
X28699Y-28240
X28699Y-29240
X28699Y-30240
X28699Y-31240
X28699Y-32240
X28699Y-33240
X28699Y-34240
X28699Y-35240
X28699Y-36240
X28699Y-37240
X28699Y-38240
X28699Y-39240
X28699Y-40240
X29699Y-23240
X29699Y-24240
X29699Y-25240
X29699Y-26240
X29699Y-27240
X29699Y-28240
X29699Y-29240
X29699Y-30240
X29699Y-31240
X29699Y-32240
X29699Y-33240
X29699Y-34240
X29699Y-35240
X29699Y-36240
X29699Y-37240
X29699Y-38240
X29699Y-39240
X29699Y-40240
X32173Y-12854
X32173Y-13854
X32173Y-14854
X32173Y-15854
X32173Y-16854
X32173Y-17854
X32173Y-18854
X32173Y-19854
X34173Y-13354
X34173Y-14354
X34173Y-15354
X34173Y-16354
X34173Y-17354
X34173Y-18354
X34173Y-19354
X39000Y-23500
X39000Y-24500
X39000Y-25500
X39000Y-26500
X39000Y-27500
X39000Y-28500
X39134Y-33465
X39134Y-34465
X39134Y-35465
X39134Y-36465
T3
X14622Y-7000
X16000Y-7000
X18110Y-7008
X19488Y-7008
X23488Y-7000
X24866Y-7000
X26244Y-7000
X27622Y-7000
X29000Y-7000
X30378Y-7000
X33110Y-7000
X34488Y-7000
X35866Y-7000
X37244Y-7000
X38622Y-7000
X39000Y-9976
X39000Y-11354
X39000Y-12732
X39000Y-14110
X39000Y-15488
X39000Y-16866
X39000Y-18244
X39000Y-19622
X39000Y-21000
X40000Y-7000
T4
X7000Y-16000
X7000Y-17000
X7000Y-18000
X11890Y-16000
X11890Y-17000
X11890Y-18000
X12000Y-10000
X12000Y-11000
X12000Y-12000
X19551Y-10315
X20551Y-10315
X21551Y-10315
T5
X6880Y-7583
X7000Y-10417
T0
M30
