%TF.GenerationSoftware,KiCad,Pcbnew,(7.0.0)*%
%TF.CreationDate,2023-03-07T12:31:48-06:00*%
%TF.ProjectId,finalproj,66696e61-6c70-4726-9f6a-2e6b69636164,rev?*%
%TF.SameCoordinates,Original*%
%TF.FileFunction,Paste,Top*%
%TF.FilePolarity,Positive*%
%FSLAX46Y46*%
G04 Gerber Fmt 4.6, Leading zero omitted, Abs format (unit mm)*
G04 Created by KiCad (PCBNEW (7.0.0)) date 2023-03-07 12:31:48*
%MOMM*%
%LPD*%
G01*
G04 APERTURE LIST*
G04 Aperture macros list*
%AMRoundRect*
0 Rectangle with rounded corners*
0 $1 Rounding radius*
0 $2 $3 $4 $5 $6 $7 $8 $9 X,Y pos of 4 corners*
0 Add a 4 corners polygon primitive as box body*
4,1,4,$2,$3,$4,$5,$6,$7,$8,$9,$2,$3,0*
0 Add four circle primitives for the rounded corners*
1,1,$1+$1,$2,$3*
1,1,$1+$1,$4,$5*
1,1,$1+$1,$6,$7*
1,1,$1+$1,$8,$9*
0 Add four rect primitives between the rounded corners*
20,1,$1+$1,$2,$3,$4,$5,0*
20,1,$1+$1,$4,$5,$6,$7,0*
20,1,$1+$1,$6,$7,$8,$9,0*
20,1,$1+$1,$8,$9,$2,$3,0*%
G04 Aperture macros list end*
%ADD10RoundRect,0.250000X-0.250000X-0.475000X0.250000X-0.475000X0.250000X0.475000X-0.250000X0.475000X0*%
%ADD11RoundRect,0.250000X-0.475000X0.250000X-0.475000X-0.250000X0.475000X-0.250000X0.475000X0.250000X0*%
%ADD12RoundRect,0.150000X0.150000X-0.587500X0.150000X0.587500X-0.150000X0.587500X-0.150000X-0.587500X0*%
G04 APERTURE END LIST*
D10*
%TO.C,C3*%
X53250000Y-15400000D03*
X55150000Y-15400000D03*
%TD*%
%TO.C,C6*%
X53250000Y-20600000D03*
X55150000Y-20600000D03*
%TD*%
%TO.C,C5*%
X53250000Y-17800000D03*
X55150000Y-17800000D03*
%TD*%
D11*
%TO.C,C4*%
X44400000Y-26250000D03*
X44400000Y-28150000D03*
%TD*%
%TO.C,C1*%
X61800000Y-37250000D03*
X61800000Y-39150000D03*
%TD*%
%TO.C,C2*%
X56200000Y-37400000D03*
X56200000Y-39300000D03*
%TD*%
D10*
%TO.C,C28*%
X21900000Y-46600000D03*
X23800000Y-46600000D03*
%TD*%
D11*
%TO.C,C24*%
X15240000Y-33660000D03*
X15240000Y-35560000D03*
%TD*%
D10*
%TO.C,C33*%
X21910000Y-40170000D03*
X23810000Y-40170000D03*
%TD*%
%TO.C,C35*%
X28450000Y-35600000D03*
X30350000Y-35600000D03*
%TD*%
D11*
%TO.C,C25*%
X24600000Y-25900000D03*
X24600000Y-27800000D03*
%TD*%
D10*
%TO.C,C27*%
X33720000Y-42960000D03*
X35620000Y-42960000D03*
%TD*%
D12*
%TO.C,D1*%
X72650000Y-26737500D03*
X74550000Y-26737500D03*
X73600000Y-24862500D03*
%TD*%
D10*
%TO.C,C34*%
X21910000Y-43180000D03*
X23810000Y-43180000D03*
%TD*%
D12*
%TO.C,D3*%
X91850000Y-26875000D03*
X93750000Y-26875000D03*
X92800000Y-25000000D03*
%TD*%
D10*
%TO.C,C26*%
X34650000Y-30640000D03*
X36550000Y-30640000D03*
%TD*%
D12*
%TO.C,D2*%
X60050000Y-26675000D03*
X61950000Y-26675000D03*
X61000000Y-24800000D03*
%TD*%
D10*
%TO.C,C31*%
X33720000Y-45340000D03*
X35620000Y-45340000D03*
%TD*%
%TO.C,C32*%
X33650000Y-40600000D03*
X35550000Y-40600000D03*
%TD*%
D12*
%TO.C,D4*%
X85450000Y-26875000D03*
X87350000Y-26875000D03*
X86400000Y-25000000D03*
%TD*%
D10*
%TO.C,C29*%
X34650000Y-26000000D03*
X36550000Y-26000000D03*
%TD*%
%TO.C,C30*%
X34650000Y-28200000D03*
X36550000Y-28200000D03*
%TD*%
M02*
