%TF.GenerationSoftware,KiCad,Pcbnew,(7.0.0)*%
%TF.CreationDate,2023-03-08T14:59:29-06:00*%
%TF.ProjectId,finalproj,66696e61-6c70-4726-9f6a-2e6b69636164,rev?*%
%TF.SameCoordinates,Original*%
%TF.FileFunction,Soldermask,Bot*%
%TF.FilePolarity,Negative*%
%FSLAX46Y46*%
G04 Gerber Fmt 4.6, Leading zero omitted, Abs format (unit mm)*
G04 Created by KiCad (PCBNEW (7.0.0)) date 2023-03-08 14:59:29*
%MOMM*%
%LPD*%
G01*
G04 APERTURE LIST*
%ADD10R,2.400000X2.400000*%
%ADD11C,2.400000*%
%ADD12R,1.860000X1.860000*%
%ADD13C,1.860000*%
%ADD14R,1.700000X1.700000*%
%ADD15O,1.700000X1.700000*%
%ADD16C,3.200000*%
%ADD17R,6.000000X6.000000*%
%ADD18C,6.000000*%
%ADD19R,1.800000X1.800000*%
%ADD20O,1.800000X1.800000*%
G04 APERTURE END LIST*
D10*
%TO.C,J5*%
X99059999Y-53339999D03*
D11*
X99060000Y-49840000D03*
X99060000Y-46340000D03*
X99060000Y-42840000D03*
X99060000Y-39340000D03*
X99060000Y-35840000D03*
X99060000Y-32340000D03*
X99060000Y-28840000D03*
X99060000Y-25340000D03*
%TD*%
D12*
%TO.C,U2*%
X30479999Y-30479999D03*
D13*
X30480000Y-27940000D03*
X30480000Y-25400000D03*
%TD*%
D14*
%TO.C,MCU1*%
X21399999Y-58999999D03*
D15*
X18859999Y-58999999D03*
X21399999Y-61539999D03*
X18859999Y-61539999D03*
X21399999Y-64079999D03*
X18859999Y-64079999D03*
X21399999Y-66619999D03*
X18859999Y-66619999D03*
X21399999Y-69159999D03*
X18859999Y-69159999D03*
X21399999Y-71699999D03*
X18859999Y-71699999D03*
X21399999Y-74239999D03*
X18859999Y-74239999D03*
X21399999Y-76779999D03*
X18859999Y-76779999D03*
X21399999Y-79319999D03*
X18859999Y-79319999D03*
X21399999Y-81859999D03*
X18859999Y-81859999D03*
X21399999Y-84399999D03*
X18859999Y-84399999D03*
X21399999Y-86939999D03*
X18859999Y-86939999D03*
X21399999Y-89479999D03*
X18859999Y-89479999D03*
X21399999Y-92019999D03*
X18859999Y-92019999D03*
X21399999Y-94559999D03*
X18859999Y-94559999D03*
X21399999Y-97099999D03*
X18859999Y-97099999D03*
X21399999Y-99639999D03*
X18859999Y-99639999D03*
X21399999Y-102179999D03*
X18859999Y-102179999D03*
%TD*%
D14*
%TO.C,MCU4*%
X26250999Y-52731999D03*
D15*
X26250999Y-55271999D03*
X28790999Y-52731999D03*
X28790999Y-55271999D03*
X31330999Y-52731999D03*
X31330999Y-55271999D03*
X33870999Y-52731999D03*
X33870999Y-55271999D03*
X36410999Y-52731999D03*
X36410999Y-55271999D03*
X38950999Y-52731999D03*
X38950999Y-55271999D03*
X41490999Y-52731999D03*
X41490999Y-55271999D03*
X44030999Y-52731999D03*
X44030999Y-55271999D03*
X46570999Y-52731999D03*
X46570999Y-55271999D03*
X49110999Y-52731999D03*
X49110999Y-55271999D03*
X51650999Y-52731999D03*
X51650999Y-55271999D03*
X54190999Y-52731999D03*
X54190999Y-55271999D03*
X56730999Y-52731999D03*
X56730999Y-55271999D03*
X59270999Y-52731999D03*
X59270999Y-55271999D03*
X61810999Y-52731999D03*
X61810999Y-55271999D03*
X64350999Y-52731999D03*
X64350999Y-55271999D03*
X66890999Y-52731999D03*
X66890999Y-55271999D03*
X69430999Y-52731999D03*
X69430999Y-55271999D03*
%TD*%
D14*
%TO.C,J7*%
X99059999Y-59689999D03*
D15*
X99059999Y-62229999D03*
X99059999Y-64769999D03*
X99059999Y-67309999D03*
X99059999Y-69849999D03*
X99059999Y-72389999D03*
%TD*%
D16*
%TO.C,H3*%
X107600000Y-108200000D03*
%TD*%
D14*
%TO.C,MCU2*%
X25346999Y-106507999D03*
D15*
X25346999Y-109047999D03*
X27886999Y-106507999D03*
X27886999Y-109047999D03*
X30426999Y-106507999D03*
X30426999Y-109047999D03*
X32966999Y-106507999D03*
X32966999Y-109047999D03*
X35506999Y-106507999D03*
X35506999Y-109047999D03*
X38046999Y-106507999D03*
X38046999Y-109047999D03*
X40586999Y-106507999D03*
X40586999Y-109047999D03*
X43126999Y-106507999D03*
X43126999Y-109047999D03*
X45666999Y-106507999D03*
X45666999Y-109047999D03*
X48206999Y-106507999D03*
X48206999Y-109047999D03*
X50746999Y-106507999D03*
X50746999Y-109047999D03*
X53286999Y-106507999D03*
X53286999Y-109047999D03*
X55826999Y-106507999D03*
X55826999Y-109047999D03*
X58366999Y-106507999D03*
X58366999Y-109047999D03*
X60906999Y-106507999D03*
X60906999Y-109047999D03*
X63446999Y-106507999D03*
X63446999Y-109047999D03*
X65986999Y-106507999D03*
X65986999Y-109047999D03*
X68526999Y-106507999D03*
X68526999Y-109047999D03*
%TD*%
D16*
%TO.C,H2*%
X107800000Y-16800000D03*
%TD*%
D10*
%TO.C,POW3*%
X40639999Y-17779999D03*
D11*
X37140000Y-17780000D03*
%TD*%
D12*
%TO.C,U4*%
X17779999Y-45719999D03*
D13*
X17780000Y-43180000D03*
X17780000Y-40640000D03*
%TD*%
D14*
%TO.C,MCU3*%
X75434999Y-59029999D03*
D15*
X72894999Y-59029999D03*
X75434999Y-61569999D03*
X72894999Y-61569999D03*
X75434999Y-64109999D03*
X72894999Y-64109999D03*
X75434999Y-66649999D03*
X72894999Y-66649999D03*
X75434999Y-69189999D03*
X72894999Y-69189999D03*
X75434999Y-71729999D03*
X72894999Y-71729999D03*
X75434999Y-74269999D03*
X72894999Y-74269999D03*
X75434999Y-76809999D03*
X72894999Y-76809999D03*
X75434999Y-79349999D03*
X72894999Y-79349999D03*
X75434999Y-81889999D03*
X72894999Y-81889999D03*
X75434999Y-84429999D03*
X72894999Y-84429999D03*
X75434999Y-86969999D03*
X72894999Y-86969999D03*
X75434999Y-89509999D03*
X72894999Y-89509999D03*
X75434999Y-92049999D03*
X72894999Y-92049999D03*
X75434999Y-94589999D03*
X72894999Y-94589999D03*
X75434999Y-97129999D03*
X72894999Y-97129999D03*
X75434999Y-99669999D03*
X72894999Y-99669999D03*
X75434999Y-102209999D03*
X72894999Y-102209999D03*
%TD*%
D12*
%TO.C,U1*%
X54739999Y-26199999D03*
D13*
X52200000Y-26200000D03*
X49660000Y-26200000D03*
%TD*%
D16*
%TO.C,H4*%
X15800000Y-108200000D03*
%TD*%
D10*
%TO.C,J11*%
X101599999Y-17779999D03*
D11*
X98100000Y-17780000D03*
X94600000Y-17780000D03*
X91100000Y-17780000D03*
X87600000Y-17780000D03*
X84100000Y-17780000D03*
%TD*%
D14*
%TO.C,J9*%
X99399999Y-84999999D03*
D15*
X99399999Y-87539999D03*
X99399999Y-90079999D03*
X99399999Y-92619999D03*
%TD*%
D10*
%TO.C,POW2*%
X49499999Y-17799999D03*
D11*
X46000000Y-17800000D03*
%TD*%
D17*
%TO.C,POW1*%
X17779999Y-26459999D03*
D18*
X17475000Y-19260000D03*
%TD*%
D16*
%TO.C,H1*%
X27400000Y-16400000D03*
%TD*%
D19*
%TO.C,U5*%
X81719999Y-32649999D03*
D20*
X86799999Y-33919999D03*
X81719999Y-35189999D03*
X86799999Y-36459999D03*
X81719999Y-37729999D03*
X86799999Y-38999999D03*
X81719999Y-40269999D03*
X86799999Y-41539999D03*
X81719999Y-42809999D03*
X86799999Y-44079999D03*
X81719999Y-45349999D03*
X86799999Y-46619999D03*
X81719999Y-47889999D03*
X86799999Y-49159999D03*
X81719999Y-50429999D03*
%TD*%
D10*
%TO.C,J10*%
X77159999Y-17779999D03*
D11*
X73660000Y-17780000D03*
X70160000Y-17780000D03*
X66660000Y-17780000D03*
X63160000Y-17780000D03*
X59660000Y-17780000D03*
%TD*%
D12*
%TO.C,U3*%
X30199999Y-45719999D03*
D13*
X30200000Y-43180000D03*
X30200000Y-40640000D03*
%TD*%
M02*
