%TF.GenerationSoftware,KiCad,Pcbnew,(7.0.0)*%
%TF.CreationDate,2023-03-07T12:31:48-06:00*%
%TF.ProjectId,finalproj,66696e61-6c70-4726-9f6a-2e6b69636164,rev?*%
%TF.SameCoordinates,Original*%
%TF.FileFunction,Legend,Top*%
%TF.FilePolarity,Positive*%
%FSLAX46Y46*%
G04 Gerber Fmt 4.6, Leading zero omitted, Abs format (unit mm)*
G04 Created by KiCad (PCBNEW (7.0.0)) date 2023-03-07 12:31:48*
%MOMM*%
%LPD*%
G01*
G04 APERTURE LIST*
%ADD10C,0.150000*%
%ADD11C,0.120000*%
%ADD12C,0.200000*%
%ADD13C,0.127000*%
G04 APERTURE END LIST*
D10*
%TO.C,C3*%
X56633333Y-15672142D02*
X56585714Y-15719761D01*
X56585714Y-15719761D02*
X56442857Y-15767380D01*
X56442857Y-15767380D02*
X56347619Y-15767380D01*
X56347619Y-15767380D02*
X56204762Y-15719761D01*
X56204762Y-15719761D02*
X56109524Y-15624523D01*
X56109524Y-15624523D02*
X56061905Y-15529285D01*
X56061905Y-15529285D02*
X56014286Y-15338809D01*
X56014286Y-15338809D02*
X56014286Y-15195952D01*
X56014286Y-15195952D02*
X56061905Y-15005476D01*
X56061905Y-15005476D02*
X56109524Y-14910238D01*
X56109524Y-14910238D02*
X56204762Y-14815000D01*
X56204762Y-14815000D02*
X56347619Y-14767380D01*
X56347619Y-14767380D02*
X56442857Y-14767380D01*
X56442857Y-14767380D02*
X56585714Y-14815000D01*
X56585714Y-14815000D02*
X56633333Y-14862619D01*
X56966667Y-14767380D02*
X57585714Y-14767380D01*
X57585714Y-14767380D02*
X57252381Y-15148333D01*
X57252381Y-15148333D02*
X57395238Y-15148333D01*
X57395238Y-15148333D02*
X57490476Y-15195952D01*
X57490476Y-15195952D02*
X57538095Y-15243571D01*
X57538095Y-15243571D02*
X57585714Y-15338809D01*
X57585714Y-15338809D02*
X57585714Y-15576904D01*
X57585714Y-15576904D02*
X57538095Y-15672142D01*
X57538095Y-15672142D02*
X57490476Y-15719761D01*
X57490476Y-15719761D02*
X57395238Y-15767380D01*
X57395238Y-15767380D02*
X57109524Y-15767380D01*
X57109524Y-15767380D02*
X57014286Y-15719761D01*
X57014286Y-15719761D02*
X56966667Y-15672142D01*
%TO.C,C6*%
X56633333Y-20872142D02*
X56585714Y-20919761D01*
X56585714Y-20919761D02*
X56442857Y-20967380D01*
X56442857Y-20967380D02*
X56347619Y-20967380D01*
X56347619Y-20967380D02*
X56204762Y-20919761D01*
X56204762Y-20919761D02*
X56109524Y-20824523D01*
X56109524Y-20824523D02*
X56061905Y-20729285D01*
X56061905Y-20729285D02*
X56014286Y-20538809D01*
X56014286Y-20538809D02*
X56014286Y-20395952D01*
X56014286Y-20395952D02*
X56061905Y-20205476D01*
X56061905Y-20205476D02*
X56109524Y-20110238D01*
X56109524Y-20110238D02*
X56204762Y-20015000D01*
X56204762Y-20015000D02*
X56347619Y-19967380D01*
X56347619Y-19967380D02*
X56442857Y-19967380D01*
X56442857Y-19967380D02*
X56585714Y-20015000D01*
X56585714Y-20015000D02*
X56633333Y-20062619D01*
X57490476Y-19967380D02*
X57300000Y-19967380D01*
X57300000Y-19967380D02*
X57204762Y-20015000D01*
X57204762Y-20015000D02*
X57157143Y-20062619D01*
X57157143Y-20062619D02*
X57061905Y-20205476D01*
X57061905Y-20205476D02*
X57014286Y-20395952D01*
X57014286Y-20395952D02*
X57014286Y-20776904D01*
X57014286Y-20776904D02*
X57061905Y-20872142D01*
X57061905Y-20872142D02*
X57109524Y-20919761D01*
X57109524Y-20919761D02*
X57204762Y-20967380D01*
X57204762Y-20967380D02*
X57395238Y-20967380D01*
X57395238Y-20967380D02*
X57490476Y-20919761D01*
X57490476Y-20919761D02*
X57538095Y-20872142D01*
X57538095Y-20872142D02*
X57585714Y-20776904D01*
X57585714Y-20776904D02*
X57585714Y-20538809D01*
X57585714Y-20538809D02*
X57538095Y-20443571D01*
X57538095Y-20443571D02*
X57490476Y-20395952D01*
X57490476Y-20395952D02*
X57395238Y-20348333D01*
X57395238Y-20348333D02*
X57204762Y-20348333D01*
X57204762Y-20348333D02*
X57109524Y-20395952D01*
X57109524Y-20395952D02*
X57061905Y-20443571D01*
X57061905Y-20443571D02*
X57014286Y-20538809D01*
%TO.C,C5*%
X56433333Y-18272142D02*
X56385714Y-18319761D01*
X56385714Y-18319761D02*
X56242857Y-18367380D01*
X56242857Y-18367380D02*
X56147619Y-18367380D01*
X56147619Y-18367380D02*
X56004762Y-18319761D01*
X56004762Y-18319761D02*
X55909524Y-18224523D01*
X55909524Y-18224523D02*
X55861905Y-18129285D01*
X55861905Y-18129285D02*
X55814286Y-17938809D01*
X55814286Y-17938809D02*
X55814286Y-17795952D01*
X55814286Y-17795952D02*
X55861905Y-17605476D01*
X55861905Y-17605476D02*
X55909524Y-17510238D01*
X55909524Y-17510238D02*
X56004762Y-17415000D01*
X56004762Y-17415000D02*
X56147619Y-17367380D01*
X56147619Y-17367380D02*
X56242857Y-17367380D01*
X56242857Y-17367380D02*
X56385714Y-17415000D01*
X56385714Y-17415000D02*
X56433333Y-17462619D01*
X57338095Y-17367380D02*
X56861905Y-17367380D01*
X56861905Y-17367380D02*
X56814286Y-17843571D01*
X56814286Y-17843571D02*
X56861905Y-17795952D01*
X56861905Y-17795952D02*
X56957143Y-17748333D01*
X56957143Y-17748333D02*
X57195238Y-17748333D01*
X57195238Y-17748333D02*
X57290476Y-17795952D01*
X57290476Y-17795952D02*
X57338095Y-17843571D01*
X57338095Y-17843571D02*
X57385714Y-17938809D01*
X57385714Y-17938809D02*
X57385714Y-18176904D01*
X57385714Y-18176904D02*
X57338095Y-18272142D01*
X57338095Y-18272142D02*
X57290476Y-18319761D01*
X57290476Y-18319761D02*
X57195238Y-18367380D01*
X57195238Y-18367380D02*
X56957143Y-18367380D01*
X56957143Y-18367380D02*
X56861905Y-18319761D01*
X56861905Y-18319761D02*
X56814286Y-18272142D01*
%TO.C,C4*%
X46352142Y-27366666D02*
X46399761Y-27414285D01*
X46399761Y-27414285D02*
X46447380Y-27557142D01*
X46447380Y-27557142D02*
X46447380Y-27652380D01*
X46447380Y-27652380D02*
X46399761Y-27795237D01*
X46399761Y-27795237D02*
X46304523Y-27890475D01*
X46304523Y-27890475D02*
X46209285Y-27938094D01*
X46209285Y-27938094D02*
X46018809Y-27985713D01*
X46018809Y-27985713D02*
X45875952Y-27985713D01*
X45875952Y-27985713D02*
X45685476Y-27938094D01*
X45685476Y-27938094D02*
X45590238Y-27890475D01*
X45590238Y-27890475D02*
X45495000Y-27795237D01*
X45495000Y-27795237D02*
X45447380Y-27652380D01*
X45447380Y-27652380D02*
X45447380Y-27557142D01*
X45447380Y-27557142D02*
X45495000Y-27414285D01*
X45495000Y-27414285D02*
X45542619Y-27366666D01*
X45780714Y-26509523D02*
X46447380Y-26509523D01*
X45399761Y-26747618D02*
X46114047Y-26985713D01*
X46114047Y-26985713D02*
X46114047Y-26366666D01*
%TO.C,U1*%
X51968333Y-29713333D02*
X51968333Y-30846666D01*
X51968333Y-30846666D02*
X52035000Y-30980000D01*
X52035000Y-30980000D02*
X52101666Y-31046666D01*
X52101666Y-31046666D02*
X52235000Y-31113333D01*
X52235000Y-31113333D02*
X52501666Y-31113333D01*
X52501666Y-31113333D02*
X52635000Y-31046666D01*
X52635000Y-31046666D02*
X52701666Y-30980000D01*
X52701666Y-30980000D02*
X52768333Y-30846666D01*
X52768333Y-30846666D02*
X52768333Y-29713333D01*
X54168333Y-31113333D02*
X53368333Y-31113333D01*
X53768333Y-31113333D02*
X53768333Y-29713333D01*
X53768333Y-29713333D02*
X53635000Y-29913333D01*
X53635000Y-29913333D02*
X53501667Y-30046666D01*
X53501667Y-30046666D02*
X53368333Y-30113333D01*
%TO.C,C1*%
X63752142Y-38366666D02*
X63799761Y-38414285D01*
X63799761Y-38414285D02*
X63847380Y-38557142D01*
X63847380Y-38557142D02*
X63847380Y-38652380D01*
X63847380Y-38652380D02*
X63799761Y-38795237D01*
X63799761Y-38795237D02*
X63704523Y-38890475D01*
X63704523Y-38890475D02*
X63609285Y-38938094D01*
X63609285Y-38938094D02*
X63418809Y-38985713D01*
X63418809Y-38985713D02*
X63275952Y-38985713D01*
X63275952Y-38985713D02*
X63085476Y-38938094D01*
X63085476Y-38938094D02*
X62990238Y-38890475D01*
X62990238Y-38890475D02*
X62895000Y-38795237D01*
X62895000Y-38795237D02*
X62847380Y-38652380D01*
X62847380Y-38652380D02*
X62847380Y-38557142D01*
X62847380Y-38557142D02*
X62895000Y-38414285D01*
X62895000Y-38414285D02*
X62942619Y-38366666D01*
X63847380Y-37414285D02*
X63847380Y-37985713D01*
X63847380Y-37699999D02*
X62847380Y-37699999D01*
X62847380Y-37699999D02*
X62990238Y-37795237D01*
X62990238Y-37795237D02*
X63085476Y-37890475D01*
X63085476Y-37890475D02*
X63133095Y-37985713D01*
%TO.C,C2*%
X58152142Y-38516666D02*
X58199761Y-38564285D01*
X58199761Y-38564285D02*
X58247380Y-38707142D01*
X58247380Y-38707142D02*
X58247380Y-38802380D01*
X58247380Y-38802380D02*
X58199761Y-38945237D01*
X58199761Y-38945237D02*
X58104523Y-39040475D01*
X58104523Y-39040475D02*
X58009285Y-39088094D01*
X58009285Y-39088094D02*
X57818809Y-39135713D01*
X57818809Y-39135713D02*
X57675952Y-39135713D01*
X57675952Y-39135713D02*
X57485476Y-39088094D01*
X57485476Y-39088094D02*
X57390238Y-39040475D01*
X57390238Y-39040475D02*
X57295000Y-38945237D01*
X57295000Y-38945237D02*
X57247380Y-38802380D01*
X57247380Y-38802380D02*
X57247380Y-38707142D01*
X57247380Y-38707142D02*
X57295000Y-38564285D01*
X57295000Y-38564285D02*
X57342619Y-38516666D01*
X57342619Y-38135713D02*
X57295000Y-38088094D01*
X57295000Y-38088094D02*
X57247380Y-37992856D01*
X57247380Y-37992856D02*
X57247380Y-37754761D01*
X57247380Y-37754761D02*
X57295000Y-37659523D01*
X57295000Y-37659523D02*
X57342619Y-37611904D01*
X57342619Y-37611904D02*
X57437857Y-37564285D01*
X57437857Y-37564285D02*
X57533095Y-37564285D01*
X57533095Y-37564285D02*
X57675952Y-37611904D01*
X57675952Y-37611904D02*
X58247380Y-38183332D01*
X58247380Y-38183332D02*
X58247380Y-37564285D01*
%TO.C,J9*%
X99066666Y-82037380D02*
X99066666Y-82751666D01*
X99066666Y-82751666D02*
X99019047Y-82894523D01*
X99019047Y-82894523D02*
X98923809Y-82989761D01*
X98923809Y-82989761D02*
X98780952Y-83037380D01*
X98780952Y-83037380D02*
X98685714Y-83037380D01*
X99590476Y-83037380D02*
X99780952Y-83037380D01*
X99780952Y-83037380D02*
X99876190Y-82989761D01*
X99876190Y-82989761D02*
X99923809Y-82942142D01*
X99923809Y-82942142D02*
X100019047Y-82799285D01*
X100019047Y-82799285D02*
X100066666Y-82608809D01*
X100066666Y-82608809D02*
X100066666Y-82227857D01*
X100066666Y-82227857D02*
X100019047Y-82132619D01*
X100019047Y-82132619D02*
X99971428Y-82085000D01*
X99971428Y-82085000D02*
X99876190Y-82037380D01*
X99876190Y-82037380D02*
X99685714Y-82037380D01*
X99685714Y-82037380D02*
X99590476Y-82085000D01*
X99590476Y-82085000D02*
X99542857Y-82132619D01*
X99542857Y-82132619D02*
X99495238Y-82227857D01*
X99495238Y-82227857D02*
X99495238Y-82465952D01*
X99495238Y-82465952D02*
X99542857Y-82561190D01*
X99542857Y-82561190D02*
X99590476Y-82608809D01*
X99590476Y-82608809D02*
X99685714Y-82656428D01*
X99685714Y-82656428D02*
X99876190Y-82656428D01*
X99876190Y-82656428D02*
X99971428Y-82608809D01*
X99971428Y-82608809D02*
X100019047Y-82561190D01*
X100019047Y-82561190D02*
X100066666Y-82465952D01*
%TO.C,J7*%
X98726666Y-56727380D02*
X98726666Y-57441666D01*
X98726666Y-57441666D02*
X98679047Y-57584523D01*
X98679047Y-57584523D02*
X98583809Y-57679761D01*
X98583809Y-57679761D02*
X98440952Y-57727380D01*
X98440952Y-57727380D02*
X98345714Y-57727380D01*
X99107619Y-56727380D02*
X99774285Y-56727380D01*
X99774285Y-56727380D02*
X99345714Y-57727380D01*
%TO.C,H4*%
X15038095Y-104367380D02*
X15038095Y-103367380D01*
X15038095Y-103843571D02*
X15609523Y-103843571D01*
X15609523Y-104367380D02*
X15609523Y-103367380D01*
X16514285Y-103700714D02*
X16514285Y-104367380D01*
X16276190Y-103319761D02*
X16038095Y-104034047D01*
X16038095Y-104034047D02*
X16657142Y-104034047D01*
%TO.C,H3*%
X106838095Y-104367380D02*
X106838095Y-103367380D01*
X106838095Y-103843571D02*
X107409523Y-103843571D01*
X107409523Y-104367380D02*
X107409523Y-103367380D01*
X107790476Y-103367380D02*
X108409523Y-103367380D01*
X108409523Y-103367380D02*
X108076190Y-103748333D01*
X108076190Y-103748333D02*
X108219047Y-103748333D01*
X108219047Y-103748333D02*
X108314285Y-103795952D01*
X108314285Y-103795952D02*
X108361904Y-103843571D01*
X108361904Y-103843571D02*
X108409523Y-103938809D01*
X108409523Y-103938809D02*
X108409523Y-104176904D01*
X108409523Y-104176904D02*
X108361904Y-104272142D01*
X108361904Y-104272142D02*
X108314285Y-104319761D01*
X108314285Y-104319761D02*
X108219047Y-104367380D01*
X108219047Y-104367380D02*
X107933333Y-104367380D01*
X107933333Y-104367380D02*
X107838095Y-104319761D01*
X107838095Y-104319761D02*
X107790476Y-104272142D01*
%TO.C,H2*%
X108038095Y-21567380D02*
X108038095Y-20567380D01*
X108038095Y-21043571D02*
X108609523Y-21043571D01*
X108609523Y-21567380D02*
X108609523Y-20567380D01*
X109038095Y-20662619D02*
X109085714Y-20615000D01*
X109085714Y-20615000D02*
X109180952Y-20567380D01*
X109180952Y-20567380D02*
X109419047Y-20567380D01*
X109419047Y-20567380D02*
X109514285Y-20615000D01*
X109514285Y-20615000D02*
X109561904Y-20662619D01*
X109561904Y-20662619D02*
X109609523Y-20757857D01*
X109609523Y-20757857D02*
X109609523Y-20853095D01*
X109609523Y-20853095D02*
X109561904Y-20995952D01*
X109561904Y-20995952D02*
X108990476Y-21567380D01*
X108990476Y-21567380D02*
X109609523Y-21567380D01*
%TO.C,H1*%
X30838095Y-14367380D02*
X30838095Y-13367380D01*
X30838095Y-13843571D02*
X31409523Y-13843571D01*
X31409523Y-14367380D02*
X31409523Y-13367380D01*
X32409523Y-14367380D02*
X31838095Y-14367380D01*
X32123809Y-14367380D02*
X32123809Y-13367380D01*
X32123809Y-13367380D02*
X32028571Y-13510238D01*
X32028571Y-13510238D02*
X31933333Y-13605476D01*
X31933333Y-13605476D02*
X31838095Y-13653095D01*
%TO.C,J5*%
X94267380Y-39673333D02*
X94981666Y-39673333D01*
X94981666Y-39673333D02*
X95124523Y-39720952D01*
X95124523Y-39720952D02*
X95219761Y-39816190D01*
X95219761Y-39816190D02*
X95267380Y-39959047D01*
X95267380Y-39959047D02*
X95267380Y-40054285D01*
X94267380Y-38720952D02*
X94267380Y-39197142D01*
X94267380Y-39197142D02*
X94743571Y-39244761D01*
X94743571Y-39244761D02*
X94695952Y-39197142D01*
X94695952Y-39197142D02*
X94648333Y-39101904D01*
X94648333Y-39101904D02*
X94648333Y-38863809D01*
X94648333Y-38863809D02*
X94695952Y-38768571D01*
X94695952Y-38768571D02*
X94743571Y-38720952D01*
X94743571Y-38720952D02*
X94838809Y-38673333D01*
X94838809Y-38673333D02*
X95076904Y-38673333D01*
X95076904Y-38673333D02*
X95172142Y-38720952D01*
X95172142Y-38720952D02*
X95219761Y-38768571D01*
X95219761Y-38768571D02*
X95267380Y-38863809D01*
X95267380Y-38863809D02*
X95267380Y-39101904D01*
X95267380Y-39101904D02*
X95219761Y-39197142D01*
X95219761Y-39197142D02*
X95172142Y-39244761D01*
%TO.C,U2*%
X28714333Y-22066666D02*
X29847666Y-22066666D01*
X29847666Y-22066666D02*
X29981000Y-22000000D01*
X29981000Y-22000000D02*
X30047666Y-21933333D01*
X30047666Y-21933333D02*
X30114333Y-21800000D01*
X30114333Y-21800000D02*
X30114333Y-21533333D01*
X30114333Y-21533333D02*
X30047666Y-21400000D01*
X30047666Y-21400000D02*
X29981000Y-21333333D01*
X29981000Y-21333333D02*
X29847666Y-21266666D01*
X29847666Y-21266666D02*
X28714333Y-21266666D01*
X28847666Y-20666666D02*
X28781000Y-20599999D01*
X28781000Y-20599999D02*
X28714333Y-20466666D01*
X28714333Y-20466666D02*
X28714333Y-20133333D01*
X28714333Y-20133333D02*
X28781000Y-19999999D01*
X28781000Y-19999999D02*
X28847666Y-19933333D01*
X28847666Y-19933333D02*
X28981000Y-19866666D01*
X28981000Y-19866666D02*
X29114333Y-19866666D01*
X29114333Y-19866666D02*
X29314333Y-19933333D01*
X29314333Y-19933333D02*
X30114333Y-20733333D01*
X30114333Y-20733333D02*
X30114333Y-19866666D01*
%TO.C,MCU1*%
X23366667Y-63367380D02*
X23366667Y-62367380D01*
X23366667Y-62367380D02*
X23700000Y-63081666D01*
X23700000Y-63081666D02*
X24033333Y-62367380D01*
X24033333Y-62367380D02*
X24033333Y-63367380D01*
X25080952Y-63272142D02*
X25033333Y-63319761D01*
X25033333Y-63319761D02*
X24890476Y-63367380D01*
X24890476Y-63367380D02*
X24795238Y-63367380D01*
X24795238Y-63367380D02*
X24652381Y-63319761D01*
X24652381Y-63319761D02*
X24557143Y-63224523D01*
X24557143Y-63224523D02*
X24509524Y-63129285D01*
X24509524Y-63129285D02*
X24461905Y-62938809D01*
X24461905Y-62938809D02*
X24461905Y-62795952D01*
X24461905Y-62795952D02*
X24509524Y-62605476D01*
X24509524Y-62605476D02*
X24557143Y-62510238D01*
X24557143Y-62510238D02*
X24652381Y-62415000D01*
X24652381Y-62415000D02*
X24795238Y-62367380D01*
X24795238Y-62367380D02*
X24890476Y-62367380D01*
X24890476Y-62367380D02*
X25033333Y-62415000D01*
X25033333Y-62415000D02*
X25080952Y-62462619D01*
X25509524Y-62367380D02*
X25509524Y-63176904D01*
X25509524Y-63176904D02*
X25557143Y-63272142D01*
X25557143Y-63272142D02*
X25604762Y-63319761D01*
X25604762Y-63319761D02*
X25700000Y-63367380D01*
X25700000Y-63367380D02*
X25890476Y-63367380D01*
X25890476Y-63367380D02*
X25985714Y-63319761D01*
X25985714Y-63319761D02*
X26033333Y-63272142D01*
X26033333Y-63272142D02*
X26080952Y-63176904D01*
X26080952Y-63176904D02*
X26080952Y-62367380D01*
X27080952Y-63367380D02*
X26509524Y-63367380D01*
X26795238Y-63367380D02*
X26795238Y-62367380D01*
X26795238Y-62367380D02*
X26700000Y-62510238D01*
X26700000Y-62510238D02*
X26604762Y-62605476D01*
X26604762Y-62605476D02*
X26509524Y-62653095D01*
%TO.C,C28*%
X26272142Y-47242857D02*
X26319761Y-47290476D01*
X26319761Y-47290476D02*
X26367380Y-47433333D01*
X26367380Y-47433333D02*
X26367380Y-47528571D01*
X26367380Y-47528571D02*
X26319761Y-47671428D01*
X26319761Y-47671428D02*
X26224523Y-47766666D01*
X26224523Y-47766666D02*
X26129285Y-47814285D01*
X26129285Y-47814285D02*
X25938809Y-47861904D01*
X25938809Y-47861904D02*
X25795952Y-47861904D01*
X25795952Y-47861904D02*
X25605476Y-47814285D01*
X25605476Y-47814285D02*
X25510238Y-47766666D01*
X25510238Y-47766666D02*
X25415000Y-47671428D01*
X25415000Y-47671428D02*
X25367380Y-47528571D01*
X25367380Y-47528571D02*
X25367380Y-47433333D01*
X25367380Y-47433333D02*
X25415000Y-47290476D01*
X25415000Y-47290476D02*
X25462619Y-47242857D01*
X25462619Y-46861904D02*
X25415000Y-46814285D01*
X25415000Y-46814285D02*
X25367380Y-46719047D01*
X25367380Y-46719047D02*
X25367380Y-46480952D01*
X25367380Y-46480952D02*
X25415000Y-46385714D01*
X25415000Y-46385714D02*
X25462619Y-46338095D01*
X25462619Y-46338095D02*
X25557857Y-46290476D01*
X25557857Y-46290476D02*
X25653095Y-46290476D01*
X25653095Y-46290476D02*
X25795952Y-46338095D01*
X25795952Y-46338095D02*
X26367380Y-46909523D01*
X26367380Y-46909523D02*
X26367380Y-46290476D01*
X25795952Y-45719047D02*
X25748333Y-45814285D01*
X25748333Y-45814285D02*
X25700714Y-45861904D01*
X25700714Y-45861904D02*
X25605476Y-45909523D01*
X25605476Y-45909523D02*
X25557857Y-45909523D01*
X25557857Y-45909523D02*
X25462619Y-45861904D01*
X25462619Y-45861904D02*
X25415000Y-45814285D01*
X25415000Y-45814285D02*
X25367380Y-45719047D01*
X25367380Y-45719047D02*
X25367380Y-45528571D01*
X25367380Y-45528571D02*
X25415000Y-45433333D01*
X25415000Y-45433333D02*
X25462619Y-45385714D01*
X25462619Y-45385714D02*
X25557857Y-45338095D01*
X25557857Y-45338095D02*
X25605476Y-45338095D01*
X25605476Y-45338095D02*
X25700714Y-45385714D01*
X25700714Y-45385714D02*
X25748333Y-45433333D01*
X25748333Y-45433333D02*
X25795952Y-45528571D01*
X25795952Y-45528571D02*
X25795952Y-45719047D01*
X25795952Y-45719047D02*
X25843571Y-45814285D01*
X25843571Y-45814285D02*
X25891190Y-45861904D01*
X25891190Y-45861904D02*
X25986428Y-45909523D01*
X25986428Y-45909523D02*
X26176904Y-45909523D01*
X26176904Y-45909523D02*
X26272142Y-45861904D01*
X26272142Y-45861904D02*
X26319761Y-45814285D01*
X26319761Y-45814285D02*
X26367380Y-45719047D01*
X26367380Y-45719047D02*
X26367380Y-45528571D01*
X26367380Y-45528571D02*
X26319761Y-45433333D01*
X26319761Y-45433333D02*
X26272142Y-45385714D01*
X26272142Y-45385714D02*
X26176904Y-45338095D01*
X26176904Y-45338095D02*
X25986428Y-45338095D01*
X25986428Y-45338095D02*
X25891190Y-45385714D01*
X25891190Y-45385714D02*
X25843571Y-45433333D01*
X25843571Y-45433333D02*
X25795952Y-45528571D01*
%TO.C,MCU4*%
X31966667Y-58967380D02*
X31966667Y-57967380D01*
X31966667Y-57967380D02*
X32300000Y-58681666D01*
X32300000Y-58681666D02*
X32633333Y-57967380D01*
X32633333Y-57967380D02*
X32633333Y-58967380D01*
X33680952Y-58872142D02*
X33633333Y-58919761D01*
X33633333Y-58919761D02*
X33490476Y-58967380D01*
X33490476Y-58967380D02*
X33395238Y-58967380D01*
X33395238Y-58967380D02*
X33252381Y-58919761D01*
X33252381Y-58919761D02*
X33157143Y-58824523D01*
X33157143Y-58824523D02*
X33109524Y-58729285D01*
X33109524Y-58729285D02*
X33061905Y-58538809D01*
X33061905Y-58538809D02*
X33061905Y-58395952D01*
X33061905Y-58395952D02*
X33109524Y-58205476D01*
X33109524Y-58205476D02*
X33157143Y-58110238D01*
X33157143Y-58110238D02*
X33252381Y-58015000D01*
X33252381Y-58015000D02*
X33395238Y-57967380D01*
X33395238Y-57967380D02*
X33490476Y-57967380D01*
X33490476Y-57967380D02*
X33633333Y-58015000D01*
X33633333Y-58015000D02*
X33680952Y-58062619D01*
X34109524Y-57967380D02*
X34109524Y-58776904D01*
X34109524Y-58776904D02*
X34157143Y-58872142D01*
X34157143Y-58872142D02*
X34204762Y-58919761D01*
X34204762Y-58919761D02*
X34300000Y-58967380D01*
X34300000Y-58967380D02*
X34490476Y-58967380D01*
X34490476Y-58967380D02*
X34585714Y-58919761D01*
X34585714Y-58919761D02*
X34633333Y-58872142D01*
X34633333Y-58872142D02*
X34680952Y-58776904D01*
X34680952Y-58776904D02*
X34680952Y-57967380D01*
X35585714Y-58300714D02*
X35585714Y-58967380D01*
X35347619Y-57919761D02*
X35109524Y-58634047D01*
X35109524Y-58634047D02*
X35728571Y-58634047D01*
%TO.C,C24*%
X17192142Y-35252857D02*
X17239761Y-35300476D01*
X17239761Y-35300476D02*
X17287380Y-35443333D01*
X17287380Y-35443333D02*
X17287380Y-35538571D01*
X17287380Y-35538571D02*
X17239761Y-35681428D01*
X17239761Y-35681428D02*
X17144523Y-35776666D01*
X17144523Y-35776666D02*
X17049285Y-35824285D01*
X17049285Y-35824285D02*
X16858809Y-35871904D01*
X16858809Y-35871904D02*
X16715952Y-35871904D01*
X16715952Y-35871904D02*
X16525476Y-35824285D01*
X16525476Y-35824285D02*
X16430238Y-35776666D01*
X16430238Y-35776666D02*
X16335000Y-35681428D01*
X16335000Y-35681428D02*
X16287380Y-35538571D01*
X16287380Y-35538571D02*
X16287380Y-35443333D01*
X16287380Y-35443333D02*
X16335000Y-35300476D01*
X16335000Y-35300476D02*
X16382619Y-35252857D01*
X16382619Y-34871904D02*
X16335000Y-34824285D01*
X16335000Y-34824285D02*
X16287380Y-34729047D01*
X16287380Y-34729047D02*
X16287380Y-34490952D01*
X16287380Y-34490952D02*
X16335000Y-34395714D01*
X16335000Y-34395714D02*
X16382619Y-34348095D01*
X16382619Y-34348095D02*
X16477857Y-34300476D01*
X16477857Y-34300476D02*
X16573095Y-34300476D01*
X16573095Y-34300476D02*
X16715952Y-34348095D01*
X16715952Y-34348095D02*
X17287380Y-34919523D01*
X17287380Y-34919523D02*
X17287380Y-34300476D01*
X16620714Y-33443333D02*
X17287380Y-33443333D01*
X16239761Y-33681428D02*
X16954047Y-33919523D01*
X16954047Y-33919523D02*
X16954047Y-33300476D01*
%TO.C,C33*%
X26072142Y-41042857D02*
X26119761Y-41090476D01*
X26119761Y-41090476D02*
X26167380Y-41233333D01*
X26167380Y-41233333D02*
X26167380Y-41328571D01*
X26167380Y-41328571D02*
X26119761Y-41471428D01*
X26119761Y-41471428D02*
X26024523Y-41566666D01*
X26024523Y-41566666D02*
X25929285Y-41614285D01*
X25929285Y-41614285D02*
X25738809Y-41661904D01*
X25738809Y-41661904D02*
X25595952Y-41661904D01*
X25595952Y-41661904D02*
X25405476Y-41614285D01*
X25405476Y-41614285D02*
X25310238Y-41566666D01*
X25310238Y-41566666D02*
X25215000Y-41471428D01*
X25215000Y-41471428D02*
X25167380Y-41328571D01*
X25167380Y-41328571D02*
X25167380Y-41233333D01*
X25167380Y-41233333D02*
X25215000Y-41090476D01*
X25215000Y-41090476D02*
X25262619Y-41042857D01*
X25167380Y-40709523D02*
X25167380Y-40090476D01*
X25167380Y-40090476D02*
X25548333Y-40423809D01*
X25548333Y-40423809D02*
X25548333Y-40280952D01*
X25548333Y-40280952D02*
X25595952Y-40185714D01*
X25595952Y-40185714D02*
X25643571Y-40138095D01*
X25643571Y-40138095D02*
X25738809Y-40090476D01*
X25738809Y-40090476D02*
X25976904Y-40090476D01*
X25976904Y-40090476D02*
X26072142Y-40138095D01*
X26072142Y-40138095D02*
X26119761Y-40185714D01*
X26119761Y-40185714D02*
X26167380Y-40280952D01*
X26167380Y-40280952D02*
X26167380Y-40566666D01*
X26167380Y-40566666D02*
X26119761Y-40661904D01*
X26119761Y-40661904D02*
X26072142Y-40709523D01*
X25167380Y-39757142D02*
X25167380Y-39138095D01*
X25167380Y-39138095D02*
X25548333Y-39471428D01*
X25548333Y-39471428D02*
X25548333Y-39328571D01*
X25548333Y-39328571D02*
X25595952Y-39233333D01*
X25595952Y-39233333D02*
X25643571Y-39185714D01*
X25643571Y-39185714D02*
X25738809Y-39138095D01*
X25738809Y-39138095D02*
X25976904Y-39138095D01*
X25976904Y-39138095D02*
X26072142Y-39185714D01*
X26072142Y-39185714D02*
X26119761Y-39233333D01*
X26119761Y-39233333D02*
X26167380Y-39328571D01*
X26167380Y-39328571D02*
X26167380Y-39614285D01*
X26167380Y-39614285D02*
X26119761Y-39709523D01*
X26119761Y-39709523D02*
X26072142Y-39757142D01*
%TO.C,C35*%
X32157142Y-36072142D02*
X32109523Y-36119761D01*
X32109523Y-36119761D02*
X31966666Y-36167380D01*
X31966666Y-36167380D02*
X31871428Y-36167380D01*
X31871428Y-36167380D02*
X31728571Y-36119761D01*
X31728571Y-36119761D02*
X31633333Y-36024523D01*
X31633333Y-36024523D02*
X31585714Y-35929285D01*
X31585714Y-35929285D02*
X31538095Y-35738809D01*
X31538095Y-35738809D02*
X31538095Y-35595952D01*
X31538095Y-35595952D02*
X31585714Y-35405476D01*
X31585714Y-35405476D02*
X31633333Y-35310238D01*
X31633333Y-35310238D02*
X31728571Y-35215000D01*
X31728571Y-35215000D02*
X31871428Y-35167380D01*
X31871428Y-35167380D02*
X31966666Y-35167380D01*
X31966666Y-35167380D02*
X32109523Y-35215000D01*
X32109523Y-35215000D02*
X32157142Y-35262619D01*
X32490476Y-35167380D02*
X33109523Y-35167380D01*
X33109523Y-35167380D02*
X32776190Y-35548333D01*
X32776190Y-35548333D02*
X32919047Y-35548333D01*
X32919047Y-35548333D02*
X33014285Y-35595952D01*
X33014285Y-35595952D02*
X33061904Y-35643571D01*
X33061904Y-35643571D02*
X33109523Y-35738809D01*
X33109523Y-35738809D02*
X33109523Y-35976904D01*
X33109523Y-35976904D02*
X33061904Y-36072142D01*
X33061904Y-36072142D02*
X33014285Y-36119761D01*
X33014285Y-36119761D02*
X32919047Y-36167380D01*
X32919047Y-36167380D02*
X32633333Y-36167380D01*
X32633333Y-36167380D02*
X32538095Y-36119761D01*
X32538095Y-36119761D02*
X32490476Y-36072142D01*
X34014285Y-35167380D02*
X33538095Y-35167380D01*
X33538095Y-35167380D02*
X33490476Y-35643571D01*
X33490476Y-35643571D02*
X33538095Y-35595952D01*
X33538095Y-35595952D02*
X33633333Y-35548333D01*
X33633333Y-35548333D02*
X33871428Y-35548333D01*
X33871428Y-35548333D02*
X33966666Y-35595952D01*
X33966666Y-35595952D02*
X34014285Y-35643571D01*
X34014285Y-35643571D02*
X34061904Y-35738809D01*
X34061904Y-35738809D02*
X34061904Y-35976904D01*
X34061904Y-35976904D02*
X34014285Y-36072142D01*
X34014285Y-36072142D02*
X33966666Y-36119761D01*
X33966666Y-36119761D02*
X33871428Y-36167380D01*
X33871428Y-36167380D02*
X33633333Y-36167380D01*
X33633333Y-36167380D02*
X33538095Y-36119761D01*
X33538095Y-36119761D02*
X33490476Y-36072142D01*
%TO.C,C25*%
X26872142Y-30042857D02*
X26919761Y-30090476D01*
X26919761Y-30090476D02*
X26967380Y-30233333D01*
X26967380Y-30233333D02*
X26967380Y-30328571D01*
X26967380Y-30328571D02*
X26919761Y-30471428D01*
X26919761Y-30471428D02*
X26824523Y-30566666D01*
X26824523Y-30566666D02*
X26729285Y-30614285D01*
X26729285Y-30614285D02*
X26538809Y-30661904D01*
X26538809Y-30661904D02*
X26395952Y-30661904D01*
X26395952Y-30661904D02*
X26205476Y-30614285D01*
X26205476Y-30614285D02*
X26110238Y-30566666D01*
X26110238Y-30566666D02*
X26015000Y-30471428D01*
X26015000Y-30471428D02*
X25967380Y-30328571D01*
X25967380Y-30328571D02*
X25967380Y-30233333D01*
X25967380Y-30233333D02*
X26015000Y-30090476D01*
X26015000Y-30090476D02*
X26062619Y-30042857D01*
X26062619Y-29661904D02*
X26015000Y-29614285D01*
X26015000Y-29614285D02*
X25967380Y-29519047D01*
X25967380Y-29519047D02*
X25967380Y-29280952D01*
X25967380Y-29280952D02*
X26015000Y-29185714D01*
X26015000Y-29185714D02*
X26062619Y-29138095D01*
X26062619Y-29138095D02*
X26157857Y-29090476D01*
X26157857Y-29090476D02*
X26253095Y-29090476D01*
X26253095Y-29090476D02*
X26395952Y-29138095D01*
X26395952Y-29138095D02*
X26967380Y-29709523D01*
X26967380Y-29709523D02*
X26967380Y-29090476D01*
X25967380Y-28185714D02*
X25967380Y-28661904D01*
X25967380Y-28661904D02*
X26443571Y-28709523D01*
X26443571Y-28709523D02*
X26395952Y-28661904D01*
X26395952Y-28661904D02*
X26348333Y-28566666D01*
X26348333Y-28566666D02*
X26348333Y-28328571D01*
X26348333Y-28328571D02*
X26395952Y-28233333D01*
X26395952Y-28233333D02*
X26443571Y-28185714D01*
X26443571Y-28185714D02*
X26538809Y-28138095D01*
X26538809Y-28138095D02*
X26776904Y-28138095D01*
X26776904Y-28138095D02*
X26872142Y-28185714D01*
X26872142Y-28185714D02*
X26919761Y-28233333D01*
X26919761Y-28233333D02*
X26967380Y-28328571D01*
X26967380Y-28328571D02*
X26967380Y-28566666D01*
X26967380Y-28566666D02*
X26919761Y-28661904D01*
X26919761Y-28661904D02*
X26872142Y-28709523D01*
%TO.C,C27*%
X39272142Y-43642857D02*
X39319761Y-43690476D01*
X39319761Y-43690476D02*
X39367380Y-43833333D01*
X39367380Y-43833333D02*
X39367380Y-43928571D01*
X39367380Y-43928571D02*
X39319761Y-44071428D01*
X39319761Y-44071428D02*
X39224523Y-44166666D01*
X39224523Y-44166666D02*
X39129285Y-44214285D01*
X39129285Y-44214285D02*
X38938809Y-44261904D01*
X38938809Y-44261904D02*
X38795952Y-44261904D01*
X38795952Y-44261904D02*
X38605476Y-44214285D01*
X38605476Y-44214285D02*
X38510238Y-44166666D01*
X38510238Y-44166666D02*
X38415000Y-44071428D01*
X38415000Y-44071428D02*
X38367380Y-43928571D01*
X38367380Y-43928571D02*
X38367380Y-43833333D01*
X38367380Y-43833333D02*
X38415000Y-43690476D01*
X38415000Y-43690476D02*
X38462619Y-43642857D01*
X38462619Y-43261904D02*
X38415000Y-43214285D01*
X38415000Y-43214285D02*
X38367380Y-43119047D01*
X38367380Y-43119047D02*
X38367380Y-42880952D01*
X38367380Y-42880952D02*
X38415000Y-42785714D01*
X38415000Y-42785714D02*
X38462619Y-42738095D01*
X38462619Y-42738095D02*
X38557857Y-42690476D01*
X38557857Y-42690476D02*
X38653095Y-42690476D01*
X38653095Y-42690476D02*
X38795952Y-42738095D01*
X38795952Y-42738095D02*
X39367380Y-43309523D01*
X39367380Y-43309523D02*
X39367380Y-42690476D01*
X38367380Y-42357142D02*
X38367380Y-41690476D01*
X38367380Y-41690476D02*
X39367380Y-42119047D01*
%TO.C,D1*%
X76967380Y-26738094D02*
X75967380Y-26738094D01*
X75967380Y-26738094D02*
X75967380Y-26499999D01*
X75967380Y-26499999D02*
X76015000Y-26357142D01*
X76015000Y-26357142D02*
X76110238Y-26261904D01*
X76110238Y-26261904D02*
X76205476Y-26214285D01*
X76205476Y-26214285D02*
X76395952Y-26166666D01*
X76395952Y-26166666D02*
X76538809Y-26166666D01*
X76538809Y-26166666D02*
X76729285Y-26214285D01*
X76729285Y-26214285D02*
X76824523Y-26261904D01*
X76824523Y-26261904D02*
X76919761Y-26357142D01*
X76919761Y-26357142D02*
X76967380Y-26499999D01*
X76967380Y-26499999D02*
X76967380Y-26738094D01*
X76967380Y-25214285D02*
X76967380Y-25785713D01*
X76967380Y-25499999D02*
X75967380Y-25499999D01*
X75967380Y-25499999D02*
X76110238Y-25595237D01*
X76110238Y-25595237D02*
X76205476Y-25690475D01*
X76205476Y-25690475D02*
X76253095Y-25785713D01*
%TO.C,C34*%
X26072142Y-44042857D02*
X26119761Y-44090476D01*
X26119761Y-44090476D02*
X26167380Y-44233333D01*
X26167380Y-44233333D02*
X26167380Y-44328571D01*
X26167380Y-44328571D02*
X26119761Y-44471428D01*
X26119761Y-44471428D02*
X26024523Y-44566666D01*
X26024523Y-44566666D02*
X25929285Y-44614285D01*
X25929285Y-44614285D02*
X25738809Y-44661904D01*
X25738809Y-44661904D02*
X25595952Y-44661904D01*
X25595952Y-44661904D02*
X25405476Y-44614285D01*
X25405476Y-44614285D02*
X25310238Y-44566666D01*
X25310238Y-44566666D02*
X25215000Y-44471428D01*
X25215000Y-44471428D02*
X25167380Y-44328571D01*
X25167380Y-44328571D02*
X25167380Y-44233333D01*
X25167380Y-44233333D02*
X25215000Y-44090476D01*
X25215000Y-44090476D02*
X25262619Y-44042857D01*
X25167380Y-43709523D02*
X25167380Y-43090476D01*
X25167380Y-43090476D02*
X25548333Y-43423809D01*
X25548333Y-43423809D02*
X25548333Y-43280952D01*
X25548333Y-43280952D02*
X25595952Y-43185714D01*
X25595952Y-43185714D02*
X25643571Y-43138095D01*
X25643571Y-43138095D02*
X25738809Y-43090476D01*
X25738809Y-43090476D02*
X25976904Y-43090476D01*
X25976904Y-43090476D02*
X26072142Y-43138095D01*
X26072142Y-43138095D02*
X26119761Y-43185714D01*
X26119761Y-43185714D02*
X26167380Y-43280952D01*
X26167380Y-43280952D02*
X26167380Y-43566666D01*
X26167380Y-43566666D02*
X26119761Y-43661904D01*
X26119761Y-43661904D02*
X26072142Y-43709523D01*
X25500714Y-42233333D02*
X26167380Y-42233333D01*
X25119761Y-42471428D02*
X25834047Y-42709523D01*
X25834047Y-42709523D02*
X25834047Y-42090476D01*
%TO.C,MCU2*%
X32566667Y-103567380D02*
X32566667Y-102567380D01*
X32566667Y-102567380D02*
X32900000Y-103281666D01*
X32900000Y-103281666D02*
X33233333Y-102567380D01*
X33233333Y-102567380D02*
X33233333Y-103567380D01*
X34280952Y-103472142D02*
X34233333Y-103519761D01*
X34233333Y-103519761D02*
X34090476Y-103567380D01*
X34090476Y-103567380D02*
X33995238Y-103567380D01*
X33995238Y-103567380D02*
X33852381Y-103519761D01*
X33852381Y-103519761D02*
X33757143Y-103424523D01*
X33757143Y-103424523D02*
X33709524Y-103329285D01*
X33709524Y-103329285D02*
X33661905Y-103138809D01*
X33661905Y-103138809D02*
X33661905Y-102995952D01*
X33661905Y-102995952D02*
X33709524Y-102805476D01*
X33709524Y-102805476D02*
X33757143Y-102710238D01*
X33757143Y-102710238D02*
X33852381Y-102615000D01*
X33852381Y-102615000D02*
X33995238Y-102567380D01*
X33995238Y-102567380D02*
X34090476Y-102567380D01*
X34090476Y-102567380D02*
X34233333Y-102615000D01*
X34233333Y-102615000D02*
X34280952Y-102662619D01*
X34709524Y-102567380D02*
X34709524Y-103376904D01*
X34709524Y-103376904D02*
X34757143Y-103472142D01*
X34757143Y-103472142D02*
X34804762Y-103519761D01*
X34804762Y-103519761D02*
X34900000Y-103567380D01*
X34900000Y-103567380D02*
X35090476Y-103567380D01*
X35090476Y-103567380D02*
X35185714Y-103519761D01*
X35185714Y-103519761D02*
X35233333Y-103472142D01*
X35233333Y-103472142D02*
X35280952Y-103376904D01*
X35280952Y-103376904D02*
X35280952Y-102567380D01*
X35709524Y-102662619D02*
X35757143Y-102615000D01*
X35757143Y-102615000D02*
X35852381Y-102567380D01*
X35852381Y-102567380D02*
X36090476Y-102567380D01*
X36090476Y-102567380D02*
X36185714Y-102615000D01*
X36185714Y-102615000D02*
X36233333Y-102662619D01*
X36233333Y-102662619D02*
X36280952Y-102757857D01*
X36280952Y-102757857D02*
X36280952Y-102853095D01*
X36280952Y-102853095D02*
X36233333Y-102995952D01*
X36233333Y-102995952D02*
X35661905Y-103567380D01*
X35661905Y-103567380D02*
X36280952Y-103567380D01*
%TO.C,D3*%
X90767380Y-26675594D02*
X89767380Y-26675594D01*
X89767380Y-26675594D02*
X89767380Y-26437499D01*
X89767380Y-26437499D02*
X89815000Y-26294642D01*
X89815000Y-26294642D02*
X89910238Y-26199404D01*
X89910238Y-26199404D02*
X90005476Y-26151785D01*
X90005476Y-26151785D02*
X90195952Y-26104166D01*
X90195952Y-26104166D02*
X90338809Y-26104166D01*
X90338809Y-26104166D02*
X90529285Y-26151785D01*
X90529285Y-26151785D02*
X90624523Y-26199404D01*
X90624523Y-26199404D02*
X90719761Y-26294642D01*
X90719761Y-26294642D02*
X90767380Y-26437499D01*
X90767380Y-26437499D02*
X90767380Y-26675594D01*
X89767380Y-25770832D02*
X89767380Y-25151785D01*
X89767380Y-25151785D02*
X90148333Y-25485118D01*
X90148333Y-25485118D02*
X90148333Y-25342261D01*
X90148333Y-25342261D02*
X90195952Y-25247023D01*
X90195952Y-25247023D02*
X90243571Y-25199404D01*
X90243571Y-25199404D02*
X90338809Y-25151785D01*
X90338809Y-25151785D02*
X90576904Y-25151785D01*
X90576904Y-25151785D02*
X90672142Y-25199404D01*
X90672142Y-25199404D02*
X90719761Y-25247023D01*
X90719761Y-25247023D02*
X90767380Y-25342261D01*
X90767380Y-25342261D02*
X90767380Y-25627975D01*
X90767380Y-25627975D02*
X90719761Y-25723213D01*
X90719761Y-25723213D02*
X90672142Y-25770832D01*
%TO.C,C26*%
X38672142Y-30442857D02*
X38719761Y-30490476D01*
X38719761Y-30490476D02*
X38767380Y-30633333D01*
X38767380Y-30633333D02*
X38767380Y-30728571D01*
X38767380Y-30728571D02*
X38719761Y-30871428D01*
X38719761Y-30871428D02*
X38624523Y-30966666D01*
X38624523Y-30966666D02*
X38529285Y-31014285D01*
X38529285Y-31014285D02*
X38338809Y-31061904D01*
X38338809Y-31061904D02*
X38195952Y-31061904D01*
X38195952Y-31061904D02*
X38005476Y-31014285D01*
X38005476Y-31014285D02*
X37910238Y-30966666D01*
X37910238Y-30966666D02*
X37815000Y-30871428D01*
X37815000Y-30871428D02*
X37767380Y-30728571D01*
X37767380Y-30728571D02*
X37767380Y-30633333D01*
X37767380Y-30633333D02*
X37815000Y-30490476D01*
X37815000Y-30490476D02*
X37862619Y-30442857D01*
X37862619Y-30061904D02*
X37815000Y-30014285D01*
X37815000Y-30014285D02*
X37767380Y-29919047D01*
X37767380Y-29919047D02*
X37767380Y-29680952D01*
X37767380Y-29680952D02*
X37815000Y-29585714D01*
X37815000Y-29585714D02*
X37862619Y-29538095D01*
X37862619Y-29538095D02*
X37957857Y-29490476D01*
X37957857Y-29490476D02*
X38053095Y-29490476D01*
X38053095Y-29490476D02*
X38195952Y-29538095D01*
X38195952Y-29538095D02*
X38767380Y-30109523D01*
X38767380Y-30109523D02*
X38767380Y-29490476D01*
X37767380Y-28633333D02*
X37767380Y-28823809D01*
X37767380Y-28823809D02*
X37815000Y-28919047D01*
X37815000Y-28919047D02*
X37862619Y-28966666D01*
X37862619Y-28966666D02*
X38005476Y-29061904D01*
X38005476Y-29061904D02*
X38195952Y-29109523D01*
X38195952Y-29109523D02*
X38576904Y-29109523D01*
X38576904Y-29109523D02*
X38672142Y-29061904D01*
X38672142Y-29061904D02*
X38719761Y-29014285D01*
X38719761Y-29014285D02*
X38767380Y-28919047D01*
X38767380Y-28919047D02*
X38767380Y-28728571D01*
X38767380Y-28728571D02*
X38719761Y-28633333D01*
X38719761Y-28633333D02*
X38672142Y-28585714D01*
X38672142Y-28585714D02*
X38576904Y-28538095D01*
X38576904Y-28538095D02*
X38338809Y-28538095D01*
X38338809Y-28538095D02*
X38243571Y-28585714D01*
X38243571Y-28585714D02*
X38195952Y-28633333D01*
X38195952Y-28633333D02*
X38148333Y-28728571D01*
X38148333Y-28728571D02*
X38148333Y-28919047D01*
X38148333Y-28919047D02*
X38195952Y-29014285D01*
X38195952Y-29014285D02*
X38243571Y-29061904D01*
X38243571Y-29061904D02*
X38338809Y-29109523D01*
%TO.C,D2*%
X64567380Y-26138094D02*
X63567380Y-26138094D01*
X63567380Y-26138094D02*
X63567380Y-25899999D01*
X63567380Y-25899999D02*
X63615000Y-25757142D01*
X63615000Y-25757142D02*
X63710238Y-25661904D01*
X63710238Y-25661904D02*
X63805476Y-25614285D01*
X63805476Y-25614285D02*
X63995952Y-25566666D01*
X63995952Y-25566666D02*
X64138809Y-25566666D01*
X64138809Y-25566666D02*
X64329285Y-25614285D01*
X64329285Y-25614285D02*
X64424523Y-25661904D01*
X64424523Y-25661904D02*
X64519761Y-25757142D01*
X64519761Y-25757142D02*
X64567380Y-25899999D01*
X64567380Y-25899999D02*
X64567380Y-26138094D01*
X63662619Y-25185713D02*
X63615000Y-25138094D01*
X63615000Y-25138094D02*
X63567380Y-25042856D01*
X63567380Y-25042856D02*
X63567380Y-24804761D01*
X63567380Y-24804761D02*
X63615000Y-24709523D01*
X63615000Y-24709523D02*
X63662619Y-24661904D01*
X63662619Y-24661904D02*
X63757857Y-24614285D01*
X63757857Y-24614285D02*
X63853095Y-24614285D01*
X63853095Y-24614285D02*
X63995952Y-24661904D01*
X63995952Y-24661904D02*
X64567380Y-25233332D01*
X64567380Y-25233332D02*
X64567380Y-24614285D01*
%TO.C,POW3*%
X38766667Y-22967380D02*
X38766667Y-21967380D01*
X38766667Y-21967380D02*
X39147619Y-21967380D01*
X39147619Y-21967380D02*
X39242857Y-22015000D01*
X39242857Y-22015000D02*
X39290476Y-22062619D01*
X39290476Y-22062619D02*
X39338095Y-22157857D01*
X39338095Y-22157857D02*
X39338095Y-22300714D01*
X39338095Y-22300714D02*
X39290476Y-22395952D01*
X39290476Y-22395952D02*
X39242857Y-22443571D01*
X39242857Y-22443571D02*
X39147619Y-22491190D01*
X39147619Y-22491190D02*
X38766667Y-22491190D01*
X39957143Y-21967380D02*
X40147619Y-21967380D01*
X40147619Y-21967380D02*
X40242857Y-22015000D01*
X40242857Y-22015000D02*
X40338095Y-22110238D01*
X40338095Y-22110238D02*
X40385714Y-22300714D01*
X40385714Y-22300714D02*
X40385714Y-22634047D01*
X40385714Y-22634047D02*
X40338095Y-22824523D01*
X40338095Y-22824523D02*
X40242857Y-22919761D01*
X40242857Y-22919761D02*
X40147619Y-22967380D01*
X40147619Y-22967380D02*
X39957143Y-22967380D01*
X39957143Y-22967380D02*
X39861905Y-22919761D01*
X39861905Y-22919761D02*
X39766667Y-22824523D01*
X39766667Y-22824523D02*
X39719048Y-22634047D01*
X39719048Y-22634047D02*
X39719048Y-22300714D01*
X39719048Y-22300714D02*
X39766667Y-22110238D01*
X39766667Y-22110238D02*
X39861905Y-22015000D01*
X39861905Y-22015000D02*
X39957143Y-21967380D01*
X40719048Y-21967380D02*
X40957143Y-22967380D01*
X40957143Y-22967380D02*
X41147619Y-22253095D01*
X41147619Y-22253095D02*
X41338095Y-22967380D01*
X41338095Y-22967380D02*
X41576191Y-21967380D01*
X41861905Y-21967380D02*
X42480952Y-21967380D01*
X42480952Y-21967380D02*
X42147619Y-22348333D01*
X42147619Y-22348333D02*
X42290476Y-22348333D01*
X42290476Y-22348333D02*
X42385714Y-22395952D01*
X42385714Y-22395952D02*
X42433333Y-22443571D01*
X42433333Y-22443571D02*
X42480952Y-22538809D01*
X42480952Y-22538809D02*
X42480952Y-22776904D01*
X42480952Y-22776904D02*
X42433333Y-22872142D01*
X42433333Y-22872142D02*
X42385714Y-22919761D01*
X42385714Y-22919761D02*
X42290476Y-22967380D01*
X42290476Y-22967380D02*
X42004762Y-22967380D01*
X42004762Y-22967380D02*
X41909524Y-22919761D01*
X41909524Y-22919761D02*
X41861905Y-22872142D01*
%TO.C,C31*%
X37872142Y-46042857D02*
X37919761Y-46090476D01*
X37919761Y-46090476D02*
X37967380Y-46233333D01*
X37967380Y-46233333D02*
X37967380Y-46328571D01*
X37967380Y-46328571D02*
X37919761Y-46471428D01*
X37919761Y-46471428D02*
X37824523Y-46566666D01*
X37824523Y-46566666D02*
X37729285Y-46614285D01*
X37729285Y-46614285D02*
X37538809Y-46661904D01*
X37538809Y-46661904D02*
X37395952Y-46661904D01*
X37395952Y-46661904D02*
X37205476Y-46614285D01*
X37205476Y-46614285D02*
X37110238Y-46566666D01*
X37110238Y-46566666D02*
X37015000Y-46471428D01*
X37015000Y-46471428D02*
X36967380Y-46328571D01*
X36967380Y-46328571D02*
X36967380Y-46233333D01*
X36967380Y-46233333D02*
X37015000Y-46090476D01*
X37015000Y-46090476D02*
X37062619Y-46042857D01*
X36967380Y-45709523D02*
X36967380Y-45090476D01*
X36967380Y-45090476D02*
X37348333Y-45423809D01*
X37348333Y-45423809D02*
X37348333Y-45280952D01*
X37348333Y-45280952D02*
X37395952Y-45185714D01*
X37395952Y-45185714D02*
X37443571Y-45138095D01*
X37443571Y-45138095D02*
X37538809Y-45090476D01*
X37538809Y-45090476D02*
X37776904Y-45090476D01*
X37776904Y-45090476D02*
X37872142Y-45138095D01*
X37872142Y-45138095D02*
X37919761Y-45185714D01*
X37919761Y-45185714D02*
X37967380Y-45280952D01*
X37967380Y-45280952D02*
X37967380Y-45566666D01*
X37967380Y-45566666D02*
X37919761Y-45661904D01*
X37919761Y-45661904D02*
X37872142Y-45709523D01*
X37967380Y-44138095D02*
X37967380Y-44709523D01*
X37967380Y-44423809D02*
X36967380Y-44423809D01*
X36967380Y-44423809D02*
X37110238Y-44519047D01*
X37110238Y-44519047D02*
X37205476Y-44614285D01*
X37205476Y-44614285D02*
X37253095Y-44709523D01*
%TO.C,U4*%
X15914333Y-51266666D02*
X17047666Y-51266666D01*
X17047666Y-51266666D02*
X17181000Y-51200000D01*
X17181000Y-51200000D02*
X17247666Y-51133333D01*
X17247666Y-51133333D02*
X17314333Y-51000000D01*
X17314333Y-51000000D02*
X17314333Y-50733333D01*
X17314333Y-50733333D02*
X17247666Y-50600000D01*
X17247666Y-50600000D02*
X17181000Y-50533333D01*
X17181000Y-50533333D02*
X17047666Y-50466666D01*
X17047666Y-50466666D02*
X15914333Y-50466666D01*
X16381000Y-49199999D02*
X17314333Y-49199999D01*
X15847666Y-49533333D02*
X16847666Y-49866666D01*
X16847666Y-49866666D02*
X16847666Y-48999999D01*
%TO.C,MCU3*%
X69567380Y-72033332D02*
X68567380Y-72033332D01*
X68567380Y-72033332D02*
X69281666Y-71699999D01*
X69281666Y-71699999D02*
X68567380Y-71366666D01*
X68567380Y-71366666D02*
X69567380Y-71366666D01*
X69472142Y-70319047D02*
X69519761Y-70366666D01*
X69519761Y-70366666D02*
X69567380Y-70509523D01*
X69567380Y-70509523D02*
X69567380Y-70604761D01*
X69567380Y-70604761D02*
X69519761Y-70747618D01*
X69519761Y-70747618D02*
X69424523Y-70842856D01*
X69424523Y-70842856D02*
X69329285Y-70890475D01*
X69329285Y-70890475D02*
X69138809Y-70938094D01*
X69138809Y-70938094D02*
X68995952Y-70938094D01*
X68995952Y-70938094D02*
X68805476Y-70890475D01*
X68805476Y-70890475D02*
X68710238Y-70842856D01*
X68710238Y-70842856D02*
X68615000Y-70747618D01*
X68615000Y-70747618D02*
X68567380Y-70604761D01*
X68567380Y-70604761D02*
X68567380Y-70509523D01*
X68567380Y-70509523D02*
X68615000Y-70366666D01*
X68615000Y-70366666D02*
X68662619Y-70319047D01*
X68567380Y-69890475D02*
X69376904Y-69890475D01*
X69376904Y-69890475D02*
X69472142Y-69842856D01*
X69472142Y-69842856D02*
X69519761Y-69795237D01*
X69519761Y-69795237D02*
X69567380Y-69699999D01*
X69567380Y-69699999D02*
X69567380Y-69509523D01*
X69567380Y-69509523D02*
X69519761Y-69414285D01*
X69519761Y-69414285D02*
X69472142Y-69366666D01*
X69472142Y-69366666D02*
X69376904Y-69319047D01*
X69376904Y-69319047D02*
X68567380Y-69319047D01*
X68567380Y-68938094D02*
X68567380Y-68319047D01*
X68567380Y-68319047D02*
X68948333Y-68652380D01*
X68948333Y-68652380D02*
X68948333Y-68509523D01*
X68948333Y-68509523D02*
X68995952Y-68414285D01*
X68995952Y-68414285D02*
X69043571Y-68366666D01*
X69043571Y-68366666D02*
X69138809Y-68319047D01*
X69138809Y-68319047D02*
X69376904Y-68319047D01*
X69376904Y-68319047D02*
X69472142Y-68366666D01*
X69472142Y-68366666D02*
X69519761Y-68414285D01*
X69519761Y-68414285D02*
X69567380Y-68509523D01*
X69567380Y-68509523D02*
X69567380Y-68795237D01*
X69567380Y-68795237D02*
X69519761Y-68890475D01*
X69519761Y-68890475D02*
X69472142Y-68938094D01*
%TO.C,C32*%
X37672142Y-42242857D02*
X37719761Y-42290476D01*
X37719761Y-42290476D02*
X37767380Y-42433333D01*
X37767380Y-42433333D02*
X37767380Y-42528571D01*
X37767380Y-42528571D02*
X37719761Y-42671428D01*
X37719761Y-42671428D02*
X37624523Y-42766666D01*
X37624523Y-42766666D02*
X37529285Y-42814285D01*
X37529285Y-42814285D02*
X37338809Y-42861904D01*
X37338809Y-42861904D02*
X37195952Y-42861904D01*
X37195952Y-42861904D02*
X37005476Y-42814285D01*
X37005476Y-42814285D02*
X36910238Y-42766666D01*
X36910238Y-42766666D02*
X36815000Y-42671428D01*
X36815000Y-42671428D02*
X36767380Y-42528571D01*
X36767380Y-42528571D02*
X36767380Y-42433333D01*
X36767380Y-42433333D02*
X36815000Y-42290476D01*
X36815000Y-42290476D02*
X36862619Y-42242857D01*
X36767380Y-41909523D02*
X36767380Y-41290476D01*
X36767380Y-41290476D02*
X37148333Y-41623809D01*
X37148333Y-41623809D02*
X37148333Y-41480952D01*
X37148333Y-41480952D02*
X37195952Y-41385714D01*
X37195952Y-41385714D02*
X37243571Y-41338095D01*
X37243571Y-41338095D02*
X37338809Y-41290476D01*
X37338809Y-41290476D02*
X37576904Y-41290476D01*
X37576904Y-41290476D02*
X37672142Y-41338095D01*
X37672142Y-41338095D02*
X37719761Y-41385714D01*
X37719761Y-41385714D02*
X37767380Y-41480952D01*
X37767380Y-41480952D02*
X37767380Y-41766666D01*
X37767380Y-41766666D02*
X37719761Y-41861904D01*
X37719761Y-41861904D02*
X37672142Y-41909523D01*
X36862619Y-40909523D02*
X36815000Y-40861904D01*
X36815000Y-40861904D02*
X36767380Y-40766666D01*
X36767380Y-40766666D02*
X36767380Y-40528571D01*
X36767380Y-40528571D02*
X36815000Y-40433333D01*
X36815000Y-40433333D02*
X36862619Y-40385714D01*
X36862619Y-40385714D02*
X36957857Y-40338095D01*
X36957857Y-40338095D02*
X37053095Y-40338095D01*
X37053095Y-40338095D02*
X37195952Y-40385714D01*
X37195952Y-40385714D02*
X37767380Y-40957142D01*
X37767380Y-40957142D02*
X37767380Y-40338095D01*
%TO.C,D4*%
X84367380Y-26675594D02*
X83367380Y-26675594D01*
X83367380Y-26675594D02*
X83367380Y-26437499D01*
X83367380Y-26437499D02*
X83415000Y-26294642D01*
X83415000Y-26294642D02*
X83510238Y-26199404D01*
X83510238Y-26199404D02*
X83605476Y-26151785D01*
X83605476Y-26151785D02*
X83795952Y-26104166D01*
X83795952Y-26104166D02*
X83938809Y-26104166D01*
X83938809Y-26104166D02*
X84129285Y-26151785D01*
X84129285Y-26151785D02*
X84224523Y-26199404D01*
X84224523Y-26199404D02*
X84319761Y-26294642D01*
X84319761Y-26294642D02*
X84367380Y-26437499D01*
X84367380Y-26437499D02*
X84367380Y-26675594D01*
X83700714Y-25247023D02*
X84367380Y-25247023D01*
X83319761Y-25485118D02*
X84034047Y-25723213D01*
X84034047Y-25723213D02*
X84034047Y-25104166D01*
%TO.C,J11*%
X92040476Y-21307380D02*
X92040476Y-22021666D01*
X92040476Y-22021666D02*
X91992857Y-22164523D01*
X91992857Y-22164523D02*
X91897619Y-22259761D01*
X91897619Y-22259761D02*
X91754762Y-22307380D01*
X91754762Y-22307380D02*
X91659524Y-22307380D01*
X93040476Y-22307380D02*
X92469048Y-22307380D01*
X92754762Y-22307380D02*
X92754762Y-21307380D01*
X92754762Y-21307380D02*
X92659524Y-21450238D01*
X92659524Y-21450238D02*
X92564286Y-21545476D01*
X92564286Y-21545476D02*
X92469048Y-21593095D01*
X93992857Y-22307380D02*
X93421429Y-22307380D01*
X93707143Y-22307380D02*
X93707143Y-21307380D01*
X93707143Y-21307380D02*
X93611905Y-21450238D01*
X93611905Y-21450238D02*
X93516667Y-21545476D01*
X93516667Y-21545476D02*
X93421429Y-21593095D01*
%TO.C,POW2*%
X45916667Y-22327380D02*
X45916667Y-21327380D01*
X45916667Y-21327380D02*
X46297619Y-21327380D01*
X46297619Y-21327380D02*
X46392857Y-21375000D01*
X46392857Y-21375000D02*
X46440476Y-21422619D01*
X46440476Y-21422619D02*
X46488095Y-21517857D01*
X46488095Y-21517857D02*
X46488095Y-21660714D01*
X46488095Y-21660714D02*
X46440476Y-21755952D01*
X46440476Y-21755952D02*
X46392857Y-21803571D01*
X46392857Y-21803571D02*
X46297619Y-21851190D01*
X46297619Y-21851190D02*
X45916667Y-21851190D01*
X47107143Y-21327380D02*
X47297619Y-21327380D01*
X47297619Y-21327380D02*
X47392857Y-21375000D01*
X47392857Y-21375000D02*
X47488095Y-21470238D01*
X47488095Y-21470238D02*
X47535714Y-21660714D01*
X47535714Y-21660714D02*
X47535714Y-21994047D01*
X47535714Y-21994047D02*
X47488095Y-22184523D01*
X47488095Y-22184523D02*
X47392857Y-22279761D01*
X47392857Y-22279761D02*
X47297619Y-22327380D01*
X47297619Y-22327380D02*
X47107143Y-22327380D01*
X47107143Y-22327380D02*
X47011905Y-22279761D01*
X47011905Y-22279761D02*
X46916667Y-22184523D01*
X46916667Y-22184523D02*
X46869048Y-21994047D01*
X46869048Y-21994047D02*
X46869048Y-21660714D01*
X46869048Y-21660714D02*
X46916667Y-21470238D01*
X46916667Y-21470238D02*
X47011905Y-21375000D01*
X47011905Y-21375000D02*
X47107143Y-21327380D01*
X47869048Y-21327380D02*
X48107143Y-22327380D01*
X48107143Y-22327380D02*
X48297619Y-21613095D01*
X48297619Y-21613095D02*
X48488095Y-22327380D01*
X48488095Y-22327380D02*
X48726191Y-21327380D01*
X49059524Y-21422619D02*
X49107143Y-21375000D01*
X49107143Y-21375000D02*
X49202381Y-21327380D01*
X49202381Y-21327380D02*
X49440476Y-21327380D01*
X49440476Y-21327380D02*
X49535714Y-21375000D01*
X49535714Y-21375000D02*
X49583333Y-21422619D01*
X49583333Y-21422619D02*
X49630952Y-21517857D01*
X49630952Y-21517857D02*
X49630952Y-21613095D01*
X49630952Y-21613095D02*
X49583333Y-21755952D01*
X49583333Y-21755952D02*
X49011905Y-22327380D01*
X49011905Y-22327380D02*
X49630952Y-22327380D01*
%TO.C,POW1*%
X23367380Y-17033332D02*
X22367380Y-17033332D01*
X22367380Y-17033332D02*
X22367380Y-16652380D01*
X22367380Y-16652380D02*
X22415000Y-16557142D01*
X22415000Y-16557142D02*
X22462619Y-16509523D01*
X22462619Y-16509523D02*
X22557857Y-16461904D01*
X22557857Y-16461904D02*
X22700714Y-16461904D01*
X22700714Y-16461904D02*
X22795952Y-16509523D01*
X22795952Y-16509523D02*
X22843571Y-16557142D01*
X22843571Y-16557142D02*
X22891190Y-16652380D01*
X22891190Y-16652380D02*
X22891190Y-17033332D01*
X22367380Y-15842856D02*
X22367380Y-15652380D01*
X22367380Y-15652380D02*
X22415000Y-15557142D01*
X22415000Y-15557142D02*
X22510238Y-15461904D01*
X22510238Y-15461904D02*
X22700714Y-15414285D01*
X22700714Y-15414285D02*
X23034047Y-15414285D01*
X23034047Y-15414285D02*
X23224523Y-15461904D01*
X23224523Y-15461904D02*
X23319761Y-15557142D01*
X23319761Y-15557142D02*
X23367380Y-15652380D01*
X23367380Y-15652380D02*
X23367380Y-15842856D01*
X23367380Y-15842856D02*
X23319761Y-15938094D01*
X23319761Y-15938094D02*
X23224523Y-16033332D01*
X23224523Y-16033332D02*
X23034047Y-16080951D01*
X23034047Y-16080951D02*
X22700714Y-16080951D01*
X22700714Y-16080951D02*
X22510238Y-16033332D01*
X22510238Y-16033332D02*
X22415000Y-15938094D01*
X22415000Y-15938094D02*
X22367380Y-15842856D01*
X22367380Y-15080951D02*
X23367380Y-14842856D01*
X23367380Y-14842856D02*
X22653095Y-14652380D01*
X22653095Y-14652380D02*
X23367380Y-14461904D01*
X23367380Y-14461904D02*
X22367380Y-14223809D01*
X23367380Y-13319047D02*
X23367380Y-13890475D01*
X23367380Y-13604761D02*
X22367380Y-13604761D01*
X22367380Y-13604761D02*
X22510238Y-13699999D01*
X22510238Y-13699999D02*
X22605476Y-13795237D01*
X22605476Y-13795237D02*
X22653095Y-13890475D01*
%TO.C,C29*%
X38872142Y-26642857D02*
X38919761Y-26690476D01*
X38919761Y-26690476D02*
X38967380Y-26833333D01*
X38967380Y-26833333D02*
X38967380Y-26928571D01*
X38967380Y-26928571D02*
X38919761Y-27071428D01*
X38919761Y-27071428D02*
X38824523Y-27166666D01*
X38824523Y-27166666D02*
X38729285Y-27214285D01*
X38729285Y-27214285D02*
X38538809Y-27261904D01*
X38538809Y-27261904D02*
X38395952Y-27261904D01*
X38395952Y-27261904D02*
X38205476Y-27214285D01*
X38205476Y-27214285D02*
X38110238Y-27166666D01*
X38110238Y-27166666D02*
X38015000Y-27071428D01*
X38015000Y-27071428D02*
X37967380Y-26928571D01*
X37967380Y-26928571D02*
X37967380Y-26833333D01*
X37967380Y-26833333D02*
X38015000Y-26690476D01*
X38015000Y-26690476D02*
X38062619Y-26642857D01*
X38062619Y-26261904D02*
X38015000Y-26214285D01*
X38015000Y-26214285D02*
X37967380Y-26119047D01*
X37967380Y-26119047D02*
X37967380Y-25880952D01*
X37967380Y-25880952D02*
X38015000Y-25785714D01*
X38015000Y-25785714D02*
X38062619Y-25738095D01*
X38062619Y-25738095D02*
X38157857Y-25690476D01*
X38157857Y-25690476D02*
X38253095Y-25690476D01*
X38253095Y-25690476D02*
X38395952Y-25738095D01*
X38395952Y-25738095D02*
X38967380Y-26309523D01*
X38967380Y-26309523D02*
X38967380Y-25690476D01*
X38967380Y-25214285D02*
X38967380Y-25023809D01*
X38967380Y-25023809D02*
X38919761Y-24928571D01*
X38919761Y-24928571D02*
X38872142Y-24880952D01*
X38872142Y-24880952D02*
X38729285Y-24785714D01*
X38729285Y-24785714D02*
X38538809Y-24738095D01*
X38538809Y-24738095D02*
X38157857Y-24738095D01*
X38157857Y-24738095D02*
X38062619Y-24785714D01*
X38062619Y-24785714D02*
X38015000Y-24833333D01*
X38015000Y-24833333D02*
X37967380Y-24928571D01*
X37967380Y-24928571D02*
X37967380Y-25119047D01*
X37967380Y-25119047D02*
X38015000Y-25214285D01*
X38015000Y-25214285D02*
X38062619Y-25261904D01*
X38062619Y-25261904D02*
X38157857Y-25309523D01*
X38157857Y-25309523D02*
X38395952Y-25309523D01*
X38395952Y-25309523D02*
X38491190Y-25261904D01*
X38491190Y-25261904D02*
X38538809Y-25214285D01*
X38538809Y-25214285D02*
X38586428Y-25119047D01*
X38586428Y-25119047D02*
X38586428Y-24928571D01*
X38586428Y-24928571D02*
X38538809Y-24833333D01*
X38538809Y-24833333D02*
X38491190Y-24785714D01*
X38491190Y-24785714D02*
X38395952Y-24738095D01*
%TO.C,C30*%
X40272142Y-28842857D02*
X40319761Y-28890476D01*
X40319761Y-28890476D02*
X40367380Y-29033333D01*
X40367380Y-29033333D02*
X40367380Y-29128571D01*
X40367380Y-29128571D02*
X40319761Y-29271428D01*
X40319761Y-29271428D02*
X40224523Y-29366666D01*
X40224523Y-29366666D02*
X40129285Y-29414285D01*
X40129285Y-29414285D02*
X39938809Y-29461904D01*
X39938809Y-29461904D02*
X39795952Y-29461904D01*
X39795952Y-29461904D02*
X39605476Y-29414285D01*
X39605476Y-29414285D02*
X39510238Y-29366666D01*
X39510238Y-29366666D02*
X39415000Y-29271428D01*
X39415000Y-29271428D02*
X39367380Y-29128571D01*
X39367380Y-29128571D02*
X39367380Y-29033333D01*
X39367380Y-29033333D02*
X39415000Y-28890476D01*
X39415000Y-28890476D02*
X39462619Y-28842857D01*
X39367380Y-28509523D02*
X39367380Y-27890476D01*
X39367380Y-27890476D02*
X39748333Y-28223809D01*
X39748333Y-28223809D02*
X39748333Y-28080952D01*
X39748333Y-28080952D02*
X39795952Y-27985714D01*
X39795952Y-27985714D02*
X39843571Y-27938095D01*
X39843571Y-27938095D02*
X39938809Y-27890476D01*
X39938809Y-27890476D02*
X40176904Y-27890476D01*
X40176904Y-27890476D02*
X40272142Y-27938095D01*
X40272142Y-27938095D02*
X40319761Y-27985714D01*
X40319761Y-27985714D02*
X40367380Y-28080952D01*
X40367380Y-28080952D02*
X40367380Y-28366666D01*
X40367380Y-28366666D02*
X40319761Y-28461904D01*
X40319761Y-28461904D02*
X40272142Y-28509523D01*
X39367380Y-27271428D02*
X39367380Y-27176190D01*
X39367380Y-27176190D02*
X39415000Y-27080952D01*
X39415000Y-27080952D02*
X39462619Y-27033333D01*
X39462619Y-27033333D02*
X39557857Y-26985714D01*
X39557857Y-26985714D02*
X39748333Y-26938095D01*
X39748333Y-26938095D02*
X39986428Y-26938095D01*
X39986428Y-26938095D02*
X40176904Y-26985714D01*
X40176904Y-26985714D02*
X40272142Y-27033333D01*
X40272142Y-27033333D02*
X40319761Y-27080952D01*
X40319761Y-27080952D02*
X40367380Y-27176190D01*
X40367380Y-27176190D02*
X40367380Y-27271428D01*
X40367380Y-27271428D02*
X40319761Y-27366666D01*
X40319761Y-27366666D02*
X40272142Y-27414285D01*
X40272142Y-27414285D02*
X40176904Y-27461904D01*
X40176904Y-27461904D02*
X39986428Y-27509523D01*
X39986428Y-27509523D02*
X39748333Y-27509523D01*
X39748333Y-27509523D02*
X39557857Y-27461904D01*
X39557857Y-27461904D02*
X39462619Y-27414285D01*
X39462619Y-27414285D02*
X39415000Y-27366666D01*
X39415000Y-27366666D02*
X39367380Y-27271428D01*
%TO.C,U5*%
X91787380Y-42301904D02*
X92596904Y-42301904D01*
X92596904Y-42301904D02*
X92692142Y-42254285D01*
X92692142Y-42254285D02*
X92739761Y-42206666D01*
X92739761Y-42206666D02*
X92787380Y-42111428D01*
X92787380Y-42111428D02*
X92787380Y-41920952D01*
X92787380Y-41920952D02*
X92739761Y-41825714D01*
X92739761Y-41825714D02*
X92692142Y-41778095D01*
X92692142Y-41778095D02*
X92596904Y-41730476D01*
X92596904Y-41730476D02*
X91787380Y-41730476D01*
X91787380Y-40778095D02*
X91787380Y-41254285D01*
X91787380Y-41254285D02*
X92263571Y-41301904D01*
X92263571Y-41301904D02*
X92215952Y-41254285D01*
X92215952Y-41254285D02*
X92168333Y-41159047D01*
X92168333Y-41159047D02*
X92168333Y-40920952D01*
X92168333Y-40920952D02*
X92215952Y-40825714D01*
X92215952Y-40825714D02*
X92263571Y-40778095D01*
X92263571Y-40778095D02*
X92358809Y-40730476D01*
X92358809Y-40730476D02*
X92596904Y-40730476D01*
X92596904Y-40730476D02*
X92692142Y-40778095D01*
X92692142Y-40778095D02*
X92739761Y-40825714D01*
X92739761Y-40825714D02*
X92787380Y-40920952D01*
X92787380Y-40920952D02*
X92787380Y-41159047D01*
X92787380Y-41159047D02*
X92739761Y-41254285D01*
X92739761Y-41254285D02*
X92692142Y-41301904D01*
%TO.C,J10*%
X67600476Y-21307380D02*
X67600476Y-22021666D01*
X67600476Y-22021666D02*
X67552857Y-22164523D01*
X67552857Y-22164523D02*
X67457619Y-22259761D01*
X67457619Y-22259761D02*
X67314762Y-22307380D01*
X67314762Y-22307380D02*
X67219524Y-22307380D01*
X68600476Y-22307380D02*
X68029048Y-22307380D01*
X68314762Y-22307380D02*
X68314762Y-21307380D01*
X68314762Y-21307380D02*
X68219524Y-21450238D01*
X68219524Y-21450238D02*
X68124286Y-21545476D01*
X68124286Y-21545476D02*
X68029048Y-21593095D01*
X69219524Y-21307380D02*
X69314762Y-21307380D01*
X69314762Y-21307380D02*
X69410000Y-21355000D01*
X69410000Y-21355000D02*
X69457619Y-21402619D01*
X69457619Y-21402619D02*
X69505238Y-21497857D01*
X69505238Y-21497857D02*
X69552857Y-21688333D01*
X69552857Y-21688333D02*
X69552857Y-21926428D01*
X69552857Y-21926428D02*
X69505238Y-22116904D01*
X69505238Y-22116904D02*
X69457619Y-22212142D01*
X69457619Y-22212142D02*
X69410000Y-22259761D01*
X69410000Y-22259761D02*
X69314762Y-22307380D01*
X69314762Y-22307380D02*
X69219524Y-22307380D01*
X69219524Y-22307380D02*
X69124286Y-22259761D01*
X69124286Y-22259761D02*
X69076667Y-22212142D01*
X69076667Y-22212142D02*
X69029048Y-22116904D01*
X69029048Y-22116904D02*
X68981429Y-21926428D01*
X68981429Y-21926428D02*
X68981429Y-21688333D01*
X68981429Y-21688333D02*
X69029048Y-21497857D01*
X69029048Y-21497857D02*
X69076667Y-21402619D01*
X69076667Y-21402619D02*
X69124286Y-21355000D01*
X69124286Y-21355000D02*
X69219524Y-21307380D01*
%TO.C,U3*%
X28314333Y-50866666D02*
X29447666Y-50866666D01*
X29447666Y-50866666D02*
X29581000Y-50800000D01*
X29581000Y-50800000D02*
X29647666Y-50733333D01*
X29647666Y-50733333D02*
X29714333Y-50600000D01*
X29714333Y-50600000D02*
X29714333Y-50333333D01*
X29714333Y-50333333D02*
X29647666Y-50200000D01*
X29647666Y-50200000D02*
X29581000Y-50133333D01*
X29581000Y-50133333D02*
X29447666Y-50066666D01*
X29447666Y-50066666D02*
X28314333Y-50066666D01*
X28314333Y-49533333D02*
X28314333Y-48666666D01*
X28314333Y-48666666D02*
X28847666Y-49133333D01*
X28847666Y-49133333D02*
X28847666Y-48933333D01*
X28847666Y-48933333D02*
X28914333Y-48799999D01*
X28914333Y-48799999D02*
X28981000Y-48733333D01*
X28981000Y-48733333D02*
X29114333Y-48666666D01*
X29114333Y-48666666D02*
X29447666Y-48666666D01*
X29447666Y-48666666D02*
X29581000Y-48733333D01*
X29581000Y-48733333D02*
X29647666Y-48799999D01*
X29647666Y-48799999D02*
X29714333Y-48933333D01*
X29714333Y-48933333D02*
X29714333Y-49333333D01*
X29714333Y-49333333D02*
X29647666Y-49466666D01*
X29647666Y-49466666D02*
X29581000Y-49533333D01*
D11*
%TO.C,C3*%
X53938748Y-14665000D02*
X54461252Y-14665000D01*
X53938748Y-16135000D02*
X54461252Y-16135000D01*
%TO.C,C6*%
X53938748Y-19865000D02*
X54461252Y-19865000D01*
X53938748Y-21335000D02*
X54461252Y-21335000D01*
%TO.C,C5*%
X53938748Y-17065000D02*
X54461252Y-17065000D01*
X53938748Y-18535000D02*
X54461252Y-18535000D01*
%TO.C,C4*%
X45135000Y-26938748D02*
X45135000Y-27461252D01*
X43665000Y-26938748D02*
X43665000Y-27461252D01*
D12*
%TO.C,U1*%
X54840000Y-23660000D02*
G75*
G03*
X54840000Y-23660000I-100000J0D01*
G01*
D13*
X46930000Y-29060000D02*
X57470000Y-29060000D01*
X46930000Y-24360000D02*
X46930000Y-29060000D01*
X57470000Y-24360000D02*
X46930000Y-24360000D01*
X57470000Y-29060000D02*
X57470000Y-24360000D01*
D11*
%TO.C,C1*%
X62535000Y-37938748D02*
X62535000Y-38461252D01*
X61065000Y-37938748D02*
X61065000Y-38461252D01*
%TO.C,C2*%
X56935000Y-38088748D02*
X56935000Y-38611252D01*
X55465000Y-38088748D02*
X55465000Y-38611252D01*
%TO.C,J9*%
X100730000Y-86270000D02*
X100730000Y-93950000D01*
X98070000Y-85000000D02*
X98070000Y-83670000D01*
X98070000Y-93950000D02*
X100730000Y-93950000D01*
X98070000Y-86270000D02*
X100730000Y-86270000D01*
X98070000Y-83670000D02*
X99400000Y-83670000D01*
X98070000Y-86270000D02*
X98070000Y-93950000D01*
%TO.C,J7*%
X97730000Y-60960000D02*
X97730000Y-73720000D01*
X97730000Y-59690000D02*
X97730000Y-58360000D01*
X97730000Y-58360000D02*
X99060000Y-58360000D01*
X97730000Y-60960000D02*
X100390000Y-60960000D01*
X97730000Y-73720000D02*
X100390000Y-73720000D01*
X100390000Y-60960000D02*
X100390000Y-73720000D01*
%TO.C,J5*%
X103220000Y-55390000D02*
X103860000Y-55390000D01*
X103860000Y-55390000D02*
X103860000Y-54990000D01*
X95900000Y-55150000D02*
X103620000Y-55150000D01*
X95900000Y-55150000D02*
X95900000Y-23530000D01*
X102060000Y-55150000D02*
X102060000Y-23530000D01*
X103160000Y-55150000D02*
X103160000Y-23530000D01*
X103620000Y-55150000D02*
X103620000Y-23530000D01*
X100001000Y-50985000D02*
X100129000Y-51114000D01*
X100241000Y-50815000D02*
X100334000Y-50909000D01*
X97785000Y-48770000D02*
X97879000Y-48864000D01*
X97991000Y-48565000D02*
X98119000Y-48694000D01*
X100001000Y-47485000D02*
X100129000Y-47614000D01*
X100241000Y-47315000D02*
X100334000Y-47409000D01*
X97785000Y-45270000D02*
X97879000Y-45364000D01*
X97991000Y-45065000D02*
X98119000Y-45194000D01*
X100001000Y-43985000D02*
X100129000Y-44114000D01*
X100241000Y-43815000D02*
X100334000Y-43909000D01*
X97785000Y-41770000D02*
X97879000Y-41864000D01*
X97991000Y-41565000D02*
X98119000Y-41694000D01*
X100001000Y-40485000D02*
X100129000Y-40614000D01*
X100241000Y-40315000D02*
X100334000Y-40409000D01*
X97785000Y-38270000D02*
X97879000Y-38364000D01*
X97991000Y-38065000D02*
X98119000Y-38194000D01*
X100001000Y-36985000D02*
X100129000Y-37114000D01*
X100241000Y-36815000D02*
X100334000Y-36909000D01*
X97785000Y-34770000D02*
X97879000Y-34864000D01*
X97991000Y-34565000D02*
X98119000Y-34694000D01*
X100001000Y-33485000D02*
X100129000Y-33614000D01*
X100241000Y-33315000D02*
X100334000Y-33409000D01*
X97785000Y-31270000D02*
X97879000Y-31364000D01*
X97991000Y-31065000D02*
X98119000Y-31194000D01*
X100001000Y-29985000D02*
X100129000Y-30114000D01*
X100241000Y-29815000D02*
X100334000Y-29909000D01*
X97785000Y-27770000D02*
X97879000Y-27864000D01*
X97991000Y-27565000D02*
X98119000Y-27694000D01*
X100001000Y-26485000D02*
X100129000Y-26614000D01*
X100241000Y-26315000D02*
X100334000Y-26409000D01*
X97785000Y-24270000D02*
X97879000Y-24364000D01*
X97991000Y-24065000D02*
X98119000Y-24194000D01*
X95900000Y-23530000D02*
X103620000Y-23530000D01*
X98194000Y-54780000D02*
G75*
G03*
X99949894Y-54765358I866000J1439998D01*
G01*
X97620000Y-52474000D02*
G75*
G03*
X97634642Y-54229894I1439998J-866000D01*
G01*
X100500000Y-54206000D02*
G75*
G03*
X100740098Y-53311326I-1440014J866003D01*
G01*
X100739999Y-53340000D02*
G75*
G03*
X100484720Y-52449736I-1679989J3D01*
G01*
X99950999Y-51915001D02*
G75*
G03*
X98169808Y-51914497I-890999J-1425002D01*
G01*
X100740000Y-49840000D02*
G75*
G03*
X100740000Y-49840000I-1680000J0D01*
G01*
X100740000Y-46340000D02*
G75*
G03*
X100740000Y-46340000I-1680000J0D01*
G01*
X100740000Y-42840000D02*
G75*
G03*
X100740000Y-42840000I-1680000J0D01*
G01*
X100740000Y-39340000D02*
G75*
G03*
X100740000Y-39340000I-1680000J0D01*
G01*
X100740000Y-35840000D02*
G75*
G03*
X100740000Y-35840000I-1680000J0D01*
G01*
X100740000Y-32340000D02*
G75*
G03*
X100740000Y-32340000I-1680000J0D01*
G01*
X100740000Y-28840000D02*
G75*
G03*
X100740000Y-28840000I-1680000J0D01*
G01*
X100740000Y-25340000D02*
G75*
G03*
X100740000Y-25340000I-1680000J0D01*
G01*
D13*
%TO.C,U2*%
X27620000Y-33210000D02*
X32320000Y-33210000D01*
X32320000Y-33210000D02*
X32320000Y-22670000D01*
X27620000Y-22670000D02*
X27620000Y-33210000D01*
X32320000Y-22670000D02*
X27620000Y-22670000D01*
D12*
X33120000Y-30480000D02*
G75*
G03*
X33120000Y-30480000I-100000J0D01*
G01*
%TO.C,G\u002A\u002A\u002A*%
G36*
X83775266Y-84801473D02*
G01*
X84027501Y-84866346D01*
X84265603Y-84970042D01*
X84484683Y-85110458D01*
X84679854Y-85285489D01*
X84846229Y-85493031D01*
X84972818Y-85717653D01*
X85067470Y-85976368D01*
X85116750Y-86241085D01*
X85121685Y-86506740D01*
X85083301Y-86768266D01*
X85002624Y-87020598D01*
X84880681Y-87258670D01*
X84718497Y-87477417D01*
X84589681Y-87608953D01*
X84424619Y-87738288D01*
X84233583Y-87852284D01*
X84034831Y-87940991D01*
X83906388Y-87981336D01*
X83759899Y-88009136D01*
X83594089Y-88025947D01*
X83429274Y-88030588D01*
X83285774Y-88021876D01*
X83263367Y-88018735D01*
X83000762Y-87954683D01*
X82753964Y-87849410D01*
X82527997Y-87707108D01*
X82327886Y-87531967D01*
X82158653Y-87328179D01*
X82025323Y-87099935D01*
X81956124Y-86928096D01*
X81891398Y-86662250D01*
X81871565Y-86396719D01*
X81894328Y-86136131D01*
X81957388Y-85885113D01*
X82058449Y-85648292D01*
X82195211Y-85430295D01*
X82365378Y-85235751D01*
X82566652Y-85069285D01*
X82796735Y-84935527D01*
X82982638Y-84860838D01*
X83247947Y-84796614D01*
X83513786Y-84777528D01*
X83775266Y-84801473D01*
G37*
G36*
X89705916Y-92618851D02*
G01*
X89705916Y-92973289D01*
X89974225Y-93014404D01*
X90383111Y-93092859D01*
X90755464Y-93197117D01*
X91090289Y-93326734D01*
X91386587Y-93481266D01*
X91643360Y-93660270D01*
X91843974Y-93846345D01*
X91930411Y-93945317D01*
X92006755Y-94044668D01*
X92068316Y-94136908D01*
X92110405Y-94214549D01*
X92128333Y-94270101D01*
X92123349Y-94292523D01*
X92097502Y-94307114D01*
X92033518Y-94339160D01*
X91936595Y-94386177D01*
X91811929Y-94445680D01*
X91664715Y-94515183D01*
X91500151Y-94592203D01*
X91375399Y-94650193D01*
X91201289Y-94731190D01*
X91040502Y-94806543D01*
X90898298Y-94873744D01*
X90779936Y-94930285D01*
X90690677Y-94973659D01*
X90635779Y-95001358D01*
X90620581Y-95010103D01*
X90579994Y-95012855D01*
X90511219Y-94977157D01*
X90505505Y-94973324D01*
X90356062Y-94892903D01*
X90162240Y-94823757D01*
X89926134Y-94766411D01*
X89649837Y-94721389D01*
X89389244Y-94693565D01*
X89146248Y-94681479D01*
X88888929Y-94683932D01*
X88627584Y-94699796D01*
X88372506Y-94727947D01*
X88133992Y-94767258D01*
X87922337Y-94816602D01*
X87753742Y-94872461D01*
X87619061Y-94926600D01*
X87612939Y-96596758D01*
X87606816Y-98266916D01*
X88183233Y-98282660D01*
X88360086Y-98286747D01*
X88572174Y-98290438D01*
X88807036Y-98293592D01*
X89052207Y-98296065D01*
X89295224Y-98297714D01*
X89523625Y-98298394D01*
X89552202Y-98298404D01*
X89769675Y-98298196D01*
X89944181Y-98297422D01*
X90080453Y-98295863D01*
X90183223Y-98293297D01*
X90257224Y-98289502D01*
X90307188Y-98284258D01*
X90337846Y-98277344D01*
X90353932Y-98268537D01*
X90359233Y-98260679D01*
X90364512Y-98223936D01*
X90368930Y-98149400D01*
X90372097Y-98046974D01*
X90373627Y-97926561D01*
X90373709Y-97891008D01*
X90373709Y-97559061D01*
X89562817Y-97559061D01*
X88751925Y-97559061D01*
X88751925Y-96688545D01*
X88751925Y-95818029D01*
X90435270Y-95818029D01*
X92118616Y-95818029D01*
X92110716Y-97910845D01*
X92109769Y-98227028D01*
X92109329Y-98532625D01*
X92109375Y-98823844D01*
X92109885Y-99096891D01*
X92110837Y-99347974D01*
X92112208Y-99573297D01*
X92113976Y-99769070D01*
X92116120Y-99931497D01*
X92118618Y-100056786D01*
X92121447Y-100141144D01*
X92123882Y-100176194D01*
X92127937Y-100398310D01*
X92087822Y-100613509D01*
X92007051Y-100816136D01*
X91889137Y-101000537D01*
X91737594Y-101161057D01*
X91555934Y-101292041D01*
X91377910Y-101376898D01*
X91148431Y-101440564D01*
X90921954Y-101456861D01*
X90696817Y-101425702D01*
X90471356Y-101347001D01*
X90430141Y-101327550D01*
X90231289Y-101204601D01*
X90064954Y-101049194D01*
X89934008Y-100866245D01*
X89841328Y-100660666D01*
X89789787Y-100437372D01*
X89781287Y-100218261D01*
X89789963Y-100046436D01*
X89420005Y-100031091D01*
X89270265Y-100026004D01*
X89089541Y-100021620D01*
X88894549Y-100018243D01*
X88702003Y-100016175D01*
X88570274Y-100015667D01*
X88090500Y-100015587D01*
X88102418Y-100182157D01*
X88096890Y-100415396D01*
X88048905Y-100634755D01*
X87962645Y-100836371D01*
X87842289Y-101016379D01*
X87692018Y-101170915D01*
X87516013Y-101296115D01*
X87318453Y-101388116D01*
X87103518Y-101443053D01*
X86875390Y-101457063D01*
X86736620Y-101444614D01*
X86531327Y-101391392D01*
X86336987Y-101296791D01*
X86159996Y-101166912D01*
X86006750Y-101007858D01*
X85883643Y-100825731D01*
X85797071Y-100626632D01*
X85769284Y-100521667D01*
X85752227Y-100377268D01*
X85753286Y-100213260D01*
X85771033Y-100049582D01*
X85804040Y-99906173D01*
X85815775Y-99872489D01*
X85823690Y-99851288D01*
X85830729Y-99829490D01*
X85836942Y-99804314D01*
X85842380Y-99772979D01*
X85847096Y-99732705D01*
X85851141Y-99680710D01*
X85854567Y-99614214D01*
X85857424Y-99530436D01*
X85859765Y-99426595D01*
X85861641Y-99299909D01*
X85863103Y-99147599D01*
X85864204Y-98966884D01*
X85864994Y-98754981D01*
X85865525Y-98509112D01*
X85865849Y-98226494D01*
X85866017Y-97904347D01*
X85866080Y-97539890D01*
X85866091Y-97157058D01*
X85866068Y-96739410D01*
X85866084Y-96366639D01*
X85866275Y-96035921D01*
X85866776Y-95744434D01*
X85867721Y-95489353D01*
X85869247Y-95267857D01*
X85871487Y-95077122D01*
X85874578Y-94914326D01*
X85878654Y-94776644D01*
X85883851Y-94661254D01*
X85890303Y-94565334D01*
X85898146Y-94486059D01*
X85907515Y-94420608D01*
X85918545Y-94366156D01*
X85931371Y-94319881D01*
X85946128Y-94278960D01*
X85962952Y-94240570D01*
X85981977Y-94201888D01*
X86003339Y-94160090D01*
X86010190Y-94146588D01*
X86142670Y-93936175D01*
X86317820Y-93743144D01*
X86533514Y-93568498D01*
X86787623Y-93413237D01*
X87078020Y-93278362D01*
X87402578Y-93164876D01*
X87759168Y-93073778D01*
X88145664Y-93006070D01*
X88519390Y-92965798D01*
X88728075Y-92949497D01*
X88728075Y-92606955D01*
X88728075Y-92264414D01*
X89216995Y-92264414D01*
X89705916Y-92264414D01*
X89705916Y-92618851D01*
G37*
G36*
X89279855Y-85228213D02*
G01*
X89321615Y-85274892D01*
X89384359Y-85357403D01*
X89469064Y-85477074D01*
X89576707Y-85635236D01*
X89674714Y-85782383D01*
X89941945Y-86193540D01*
X90178857Y-86573694D01*
X90387492Y-86926886D01*
X90569894Y-87257154D01*
X90728104Y-87568539D01*
X90864167Y-87865079D01*
X90980123Y-88150816D01*
X91078017Y-88429788D01*
X91159890Y-88706036D01*
X91167535Y-88734648D01*
X91194432Y-88839756D01*
X91213811Y-88927953D01*
X91226948Y-89011062D01*
X91235119Y-89100904D01*
X91239598Y-89209299D01*
X91241661Y-89348071D01*
X91242154Y-89426292D01*
X91241058Y-89620230D01*
X91234238Y-89777490D01*
X91219610Y-89908956D01*
X91195090Y-90025510D01*
X91158594Y-90138036D01*
X91108038Y-90257415D01*
X91066321Y-90344507D01*
X90922761Y-90585895D01*
X90746910Y-90793064D01*
X90537805Y-90966797D01*
X90294485Y-91107875D01*
X90015986Y-91217082D01*
X89979300Y-91228337D01*
X89885476Y-91254296D01*
X89797434Y-91273091D01*
X89702912Y-91286284D01*
X89589650Y-91295434D01*
X89445386Y-91302104D01*
X89383187Y-91304208D01*
X89257274Y-91307119D01*
X89137290Y-91307137D01*
X89018322Y-91303606D01*
X88895457Y-91295872D01*
X88763785Y-91283277D01*
X88618391Y-91265165D01*
X88454365Y-91240883D01*
X88266793Y-91209772D01*
X88050764Y-91171179D01*
X87801365Y-91124446D01*
X87513684Y-91068918D01*
X87285164Y-91024123D01*
X86916506Y-90952164D01*
X86588293Y-90889582D01*
X86294404Y-90835414D01*
X86028718Y-90788696D01*
X85785117Y-90748462D01*
X85557478Y-90713750D01*
X85339682Y-90683594D01*
X85125609Y-90657031D01*
X84909138Y-90633097D01*
X84684148Y-90610827D01*
X84629271Y-90605721D01*
X84453753Y-90589565D01*
X84468328Y-90705534D01*
X84478160Y-90798188D01*
X84489892Y-90932981D01*
X84503178Y-91104407D01*
X84517670Y-91306960D01*
X84533020Y-91535131D01*
X84548881Y-91783415D01*
X84564905Y-92046304D01*
X84580745Y-92318292D01*
X84596054Y-92593872D01*
X84610484Y-92867537D01*
X84623687Y-93133780D01*
X84629890Y-93266104D01*
X84636779Y-93449085D01*
X84642698Y-93672365D01*
X84647647Y-93929773D01*
X84651627Y-94215140D01*
X84654638Y-94522295D01*
X84656680Y-94845067D01*
X84657754Y-95177286D01*
X84657861Y-95512782D01*
X84656999Y-95845383D01*
X84655171Y-96168919D01*
X84652376Y-96477221D01*
X84648614Y-96764117D01*
X84643886Y-97023437D01*
X84638193Y-97249010D01*
X84631534Y-97434666D01*
X84629647Y-97475587D01*
X84602969Y-97985468D01*
X84573955Y-98471238D01*
X84543018Y-98926776D01*
X84510568Y-99345958D01*
X84482043Y-99669766D01*
X84465243Y-99841562D01*
X84446023Y-100026159D01*
X84425157Y-100217170D01*
X84403424Y-100408211D01*
X84381597Y-100592897D01*
X84360454Y-100764843D01*
X84340770Y-100917665D01*
X84323322Y-101044978D01*
X84308885Y-101140397D01*
X84298236Y-101197536D01*
X84294977Y-101208841D01*
X84285200Y-101219988D01*
X84263111Y-101225941D01*
X84223004Y-101226143D01*
X84159175Y-101220037D01*
X84065919Y-101207065D01*
X83937531Y-101186669D01*
X83768307Y-101158293D01*
X83755399Y-101156097D01*
X83565249Y-101123732D01*
X83355929Y-101088088D01*
X83144204Y-101052022D01*
X82946844Y-101018390D01*
X82788248Y-100991350D01*
X82345792Y-100915888D01*
X82387592Y-100611436D01*
X82411465Y-100425118D01*
X82437372Y-100201038D01*
X82464363Y-99949040D01*
X82491484Y-99678970D01*
X82517784Y-99400669D01*
X82542311Y-99123984D01*
X82564112Y-98858758D01*
X82582236Y-98614835D01*
X82585920Y-98560752D01*
X82606845Y-98235812D01*
X82624584Y-97932909D01*
X82639369Y-97644221D01*
X82651431Y-97361929D01*
X82661003Y-97078213D01*
X82668316Y-96785253D01*
X82673602Y-96475228D01*
X82677094Y-96140319D01*
X82679022Y-95772705D01*
X82679615Y-95400658D01*
X82678424Y-94888208D01*
X82674357Y-94414228D01*
X82667057Y-93969555D01*
X82656166Y-93545024D01*
X82641327Y-93131474D01*
X82622181Y-92719740D01*
X82598371Y-92300659D01*
X82569540Y-91865068D01*
X82535330Y-91403803D01*
X82512323Y-91113991D01*
X82470299Y-90595587D01*
X82349657Y-90607280D01*
X81750726Y-90672227D01*
X81189488Y-90748042D01*
X80656776Y-90836695D01*
X80143421Y-90940157D01*
X79640254Y-91060400D01*
X79138106Y-91199395D01*
X78627809Y-91359112D01*
X78246103Y-91489492D01*
X78117406Y-91534800D01*
X78002779Y-91575012D01*
X77910496Y-91607235D01*
X77848830Y-91628578D01*
X77827837Y-91635648D01*
X77814738Y-91629883D01*
X77795764Y-91603588D01*
X77769447Y-91553356D01*
X77734319Y-91475783D01*
X77688911Y-91367463D01*
X77631756Y-91224990D01*
X77561384Y-91044958D01*
X77476327Y-90823961D01*
X77464128Y-90792081D01*
X77390982Y-90599586D01*
X77323536Y-90419721D01*
X77263661Y-90257657D01*
X77213229Y-90118565D01*
X77174111Y-90007616D01*
X77148180Y-89929980D01*
X77137307Y-89890830D01*
X77137089Y-89888491D01*
X77142247Y-89855116D01*
X77160625Y-89823633D01*
X77196585Y-89791928D01*
X77254485Y-89757889D01*
X77338687Y-89719400D01*
X77453549Y-89674349D01*
X77603431Y-89620621D01*
X77792695Y-89556104D01*
X77889143Y-89523896D01*
X78579206Y-89306423D01*
X79248037Y-89120913D01*
X79907392Y-88964877D01*
X80569028Y-88835824D01*
X81244700Y-88731264D01*
X81946166Y-88648708D01*
X82085916Y-88635059D01*
X82208169Y-88626296D01*
X82370319Y-88618919D01*
X82565343Y-88612930D01*
X82786219Y-88608332D01*
X83025925Y-88605128D01*
X83277438Y-88603319D01*
X83533737Y-88602907D01*
X83787799Y-88603895D01*
X84032602Y-88606286D01*
X84261125Y-88610080D01*
X84466343Y-88615282D01*
X84641236Y-88621892D01*
X84778782Y-88629914D01*
X84828639Y-88634183D01*
X85118897Y-88664415D01*
X85397805Y-88696776D01*
X85672565Y-88732407D01*
X85950376Y-88772447D01*
X86238439Y-88818037D01*
X86543953Y-88870317D01*
X86874120Y-88930428D01*
X87236139Y-88999508D01*
X87637210Y-89078700D01*
X87642911Y-89079840D01*
X87949952Y-89140755D01*
X88214178Y-89191953D01*
X88439339Y-89234054D01*
X88629184Y-89267684D01*
X88787464Y-89293463D01*
X88917929Y-89312014D01*
X89024328Y-89323961D01*
X89110412Y-89329926D01*
X89154924Y-89330892D01*
X89226457Y-89329697D01*
X89260917Y-89321787D01*
X89268930Y-89300677D01*
X89262375Y-89265306D01*
X89212704Y-89089496D01*
X89138871Y-88883364D01*
X89044288Y-88655512D01*
X88932363Y-88414542D01*
X88895989Y-88341127D01*
X88785473Y-88125859D01*
X88675303Y-87921480D01*
X88560422Y-87719499D01*
X88435774Y-87511429D01*
X88296305Y-87288781D01*
X88136958Y-87043066D01*
X87998900Y-86834849D01*
X87661835Y-86330260D01*
X88443201Y-85779584D01*
X88614933Y-85658814D01*
X88775265Y-85546563D01*
X88919845Y-85445841D01*
X89044320Y-85359657D01*
X89144338Y-85291020D01*
X89215547Y-85242942D01*
X89253594Y-85218430D01*
X89258101Y-85216038D01*
X89279855Y-85228213D01*
G37*
D11*
%TO.C,MCU1*%
X17530000Y-57670000D02*
X17530000Y-103510000D01*
X17530000Y-57670000D02*
X20130000Y-57670000D01*
X17530000Y-103510000D02*
X22730000Y-103510000D01*
X20130000Y-57670000D02*
X20130000Y-60270000D01*
X20130000Y-60270000D02*
X22730000Y-60270000D01*
X21400000Y-57670000D02*
X22730000Y-57670000D01*
X22730000Y-57670000D02*
X22730000Y-59000000D01*
X22730000Y-60270000D02*
X22730000Y-103510000D01*
%TO.C,C28*%
X22588748Y-45865000D02*
X23111252Y-45865000D01*
X22588748Y-47335000D02*
X23111252Y-47335000D01*
%TO.C,MCU4*%
X23870000Y-57070000D02*
X69710000Y-57070000D01*
X23870000Y-57070000D02*
X23870000Y-54470000D01*
X69710000Y-57070000D02*
X69710000Y-51870000D01*
X23870000Y-54470000D02*
X26470000Y-54470000D01*
X26470000Y-54470000D02*
X26470000Y-51870000D01*
X23870000Y-53200000D02*
X23870000Y-51870000D01*
X23870000Y-51870000D02*
X25200000Y-51870000D01*
X26470000Y-51870000D02*
X69710000Y-51870000D01*
%TO.C,C24*%
X15975000Y-34348748D02*
X15975000Y-34871252D01*
X14505000Y-34348748D02*
X14505000Y-34871252D01*
%TO.C,C33*%
X22598748Y-39435000D02*
X23121252Y-39435000D01*
X22598748Y-40905000D02*
X23121252Y-40905000D01*
%TO.C,C35*%
X29138748Y-34865000D02*
X29661252Y-34865000D01*
X29138748Y-36335000D02*
X29661252Y-36335000D01*
%TO.C,C25*%
X25335000Y-26588748D02*
X25335000Y-27111252D01*
X23865000Y-26588748D02*
X23865000Y-27111252D01*
%TO.C,C27*%
X34408748Y-42225000D02*
X34931252Y-42225000D01*
X34408748Y-43695000D02*
X34931252Y-43695000D01*
%TO.C,D1*%
X72040000Y-25800000D02*
X72040000Y-27475000D01*
X72040000Y-25800000D02*
X72040000Y-25150000D01*
X75160000Y-25800000D02*
X75160000Y-26450000D01*
X75160000Y-25800000D02*
X75160000Y-25150000D01*
%TO.C,C34*%
X22598748Y-42445000D02*
X23121252Y-42445000D01*
X22598748Y-43915000D02*
X23121252Y-43915000D01*
%TO.C,MCU2*%
X24070000Y-109870000D02*
X69910000Y-109870000D01*
X24070000Y-109870000D02*
X24070000Y-107270000D01*
X69910000Y-109870000D02*
X69910000Y-104670000D01*
X24070000Y-107270000D02*
X26670000Y-107270000D01*
X26670000Y-107270000D02*
X26670000Y-104670000D01*
X24070000Y-106000000D02*
X24070000Y-104670000D01*
X24070000Y-104670000D02*
X25400000Y-104670000D01*
X26670000Y-104670000D02*
X69910000Y-104670000D01*
%TO.C,D3*%
X91240000Y-25937500D02*
X91240000Y-27612500D01*
X91240000Y-25937500D02*
X91240000Y-25287500D01*
X94360000Y-25937500D02*
X94360000Y-26587500D01*
X94360000Y-25937500D02*
X94360000Y-25287500D01*
%TO.C,C26*%
X35338748Y-29905000D02*
X35861252Y-29905000D01*
X35338748Y-31375000D02*
X35861252Y-31375000D01*
%TO.C,D2*%
X59440000Y-25737500D02*
X59440000Y-27412500D01*
X59440000Y-25737500D02*
X59440000Y-25087500D01*
X62560000Y-25737500D02*
X62560000Y-26387500D01*
X62560000Y-25737500D02*
X62560000Y-25087500D01*
%TO.C,POW3*%
X42690000Y-13620000D02*
X42690000Y-12980000D01*
X42690000Y-12980000D02*
X42290000Y-12980000D01*
X42450000Y-20940000D02*
X42450000Y-13220000D01*
X42450000Y-20940000D02*
X35330000Y-20940000D01*
X42450000Y-14780000D02*
X35330000Y-14780000D01*
X42450000Y-13680000D02*
X35330000Y-13680000D01*
X42450000Y-13220000D02*
X35330000Y-13220000D01*
X38285000Y-16839000D02*
X38414000Y-16711000D01*
X38115000Y-16599000D02*
X38209000Y-16506000D01*
X36070000Y-19055000D02*
X36164000Y-18961000D01*
X35865000Y-18849000D02*
X35994000Y-18721000D01*
X35330000Y-20940000D02*
X35330000Y-13220000D01*
X42080000Y-18646000D02*
G75*
G03*
X42065358Y-16890106I-1439998J866000D01*
G01*
X39774000Y-19220000D02*
G75*
G03*
X41529894Y-19205358I866000J1439998D01*
G01*
X41506000Y-16340000D02*
G75*
G03*
X40611326Y-16099902I-866003J-1440014D01*
G01*
X40640000Y-16100001D02*
G75*
G03*
X39749736Y-16355280I-3J-1679989D01*
G01*
X39215001Y-16889001D02*
G75*
G03*
X39214497Y-18670192I1425002J-890999D01*
G01*
X38820000Y-17780000D02*
G75*
G03*
X38820000Y-17780000I-1680000J0D01*
G01*
%TO.C,C31*%
X34408748Y-44605000D02*
X34931252Y-44605000D01*
X34408748Y-46075000D02*
X34931252Y-46075000D01*
D13*
%TO.C,U4*%
X14920000Y-48450000D02*
X19620000Y-48450000D01*
X19620000Y-48450000D02*
X19620000Y-37910000D01*
X14920000Y-37910000D02*
X14920000Y-48450000D01*
X19620000Y-37910000D02*
X14920000Y-37910000D01*
D12*
X20420000Y-45720000D02*
G75*
G03*
X20420000Y-45720000I-100000J0D01*
G01*
D11*
%TO.C,MCU3*%
X71130000Y-58070000D02*
X71130000Y-103910000D01*
X71130000Y-58070000D02*
X73730000Y-58070000D01*
X71130000Y-103910000D02*
X76330000Y-103910000D01*
X73730000Y-58070000D02*
X73730000Y-60670000D01*
X73730000Y-60670000D02*
X76330000Y-60670000D01*
X75000000Y-58070000D02*
X76330000Y-58070000D01*
X76330000Y-58070000D02*
X76330000Y-59400000D01*
X76330000Y-60670000D02*
X76330000Y-103910000D01*
%TO.C,C32*%
X34338748Y-39865000D02*
X34861252Y-39865000D01*
X34338748Y-41335000D02*
X34861252Y-41335000D01*
%TO.C,D4*%
X84840000Y-25937500D02*
X84840000Y-27612500D01*
X84840000Y-25937500D02*
X84840000Y-25287500D01*
X87960000Y-25937500D02*
X87960000Y-26587500D01*
X87960000Y-25937500D02*
X87960000Y-25287500D01*
%TO.C,J11*%
X103650000Y-13620000D02*
X103650000Y-12980000D01*
X103650000Y-12980000D02*
X103250000Y-12980000D01*
X103410000Y-20940000D02*
X103410000Y-13220000D01*
X103410000Y-20940000D02*
X82289000Y-20940000D01*
X103410000Y-14780000D02*
X82289000Y-14780000D01*
X103410000Y-13680000D02*
X82289000Y-13680000D01*
X103410000Y-13220000D02*
X82289000Y-13220000D01*
X99245000Y-16839000D02*
X99374000Y-16711000D01*
X99075000Y-16599000D02*
X99169000Y-16506000D01*
X97030000Y-19055000D02*
X97124000Y-18961000D01*
X96825000Y-18849000D02*
X96954000Y-18721000D01*
X95745000Y-16839000D02*
X95874000Y-16711000D01*
X95575000Y-16599000D02*
X95669000Y-16506000D01*
X93530000Y-19055000D02*
X93624000Y-18961000D01*
X93325000Y-18849000D02*
X93454000Y-18721000D01*
X92245000Y-16839000D02*
X92374000Y-16711000D01*
X92075000Y-16599000D02*
X92169000Y-16506000D01*
X90030000Y-19055000D02*
X90124000Y-18961000D01*
X89825000Y-18849000D02*
X89954000Y-18721000D01*
X88745000Y-16839000D02*
X88874000Y-16711000D01*
X88575000Y-16599000D02*
X88669000Y-16506000D01*
X86530000Y-19055000D02*
X86624000Y-18961000D01*
X86325000Y-18849000D02*
X86454000Y-18721000D01*
X85245000Y-16839000D02*
X85374000Y-16711000D01*
X85075000Y-16599000D02*
X85169000Y-16506000D01*
X83030000Y-19055000D02*
X83124000Y-18961000D01*
X82825000Y-18849000D02*
X82954000Y-18721000D01*
X82289000Y-20940000D02*
X82289000Y-13220000D01*
X103040000Y-18646000D02*
G75*
G03*
X103025358Y-16890106I-1439998J866000D01*
G01*
X100734000Y-19220000D02*
G75*
G03*
X102489894Y-19205358I866000J1439998D01*
G01*
X102466000Y-16340000D02*
G75*
G03*
X101571326Y-16099902I-866003J-1440014D01*
G01*
X101600000Y-16100001D02*
G75*
G03*
X100709736Y-16355280I-3J-1679989D01*
G01*
X100175001Y-16889001D02*
G75*
G03*
X100174497Y-18670192I1425002J-890999D01*
G01*
X99780000Y-17780000D02*
G75*
G03*
X99780000Y-17780000I-1680000J0D01*
G01*
X96280000Y-17780000D02*
G75*
G03*
X96280000Y-17780000I-1680000J0D01*
G01*
X92780000Y-17780000D02*
G75*
G03*
X92780000Y-17780000I-1680000J0D01*
G01*
X89280000Y-17780000D02*
G75*
G03*
X89280000Y-17780000I-1680000J0D01*
G01*
X85780000Y-17780000D02*
G75*
G03*
X85780000Y-17780000I-1680000J0D01*
G01*
%TO.C,POW2*%
X51550000Y-13640000D02*
X51550000Y-13000000D01*
X51550000Y-13000000D02*
X51150000Y-13000000D01*
X51310000Y-20960000D02*
X51310000Y-13240000D01*
X51310000Y-20960000D02*
X44190000Y-20960000D01*
X51310000Y-14800000D02*
X44190000Y-14800000D01*
X51310000Y-13700000D02*
X44190000Y-13700000D01*
X51310000Y-13240000D02*
X44190000Y-13240000D01*
X47145000Y-16859000D02*
X47274000Y-16731000D01*
X46975000Y-16619000D02*
X47069000Y-16526000D01*
X44930000Y-19075000D02*
X45024000Y-18981000D01*
X44725000Y-18869000D02*
X44854000Y-18741000D01*
X44190000Y-20960000D02*
X44190000Y-13240000D01*
X50940000Y-18666000D02*
G75*
G03*
X50925358Y-16910106I-1439998J866000D01*
G01*
X48634000Y-19240000D02*
G75*
G03*
X50389894Y-19225358I866000J1439998D01*
G01*
X50366000Y-16360000D02*
G75*
G03*
X49471326Y-16119902I-866003J-1440014D01*
G01*
X49500000Y-16120001D02*
G75*
G03*
X48609736Y-16375280I-3J-1679989D01*
G01*
X48075001Y-16909001D02*
G75*
G03*
X48074497Y-18690192I1425002J-890999D01*
G01*
X47680000Y-17800000D02*
G75*
G03*
X47680000Y-17800000I-1680000J0D01*
G01*
D13*
%TO.C,POW1*%
X13780000Y-30560000D02*
X13780000Y-15160000D01*
X21780000Y-30560000D02*
X13780000Y-30560000D01*
X13780000Y-15160000D02*
X21780000Y-15160000D01*
X21780000Y-15160000D02*
X21780000Y-30560000D01*
D12*
X17880000Y-31310000D02*
G75*
G03*
X17880000Y-31310000I-100000J0D01*
G01*
X20102500Y-25400000D02*
G75*
G03*
X20102500Y-25400000I-100000J0D01*
G01*
D11*
%TO.C,C29*%
X35338748Y-25265000D02*
X35861252Y-25265000D01*
X35338748Y-26735000D02*
X35861252Y-26735000D01*
%TO.C,C30*%
X35338748Y-27465000D02*
X35861252Y-27465000D01*
X35338748Y-28935000D02*
X35861252Y-28935000D01*
%TO.C,U5*%
X91420000Y-31320000D02*
X86179000Y-31320000D01*
X91420000Y-31320000D02*
X91420000Y-51760000D01*
X89580000Y-31320000D02*
X89580000Y-51760000D01*
X86179000Y-31320000D02*
X86179000Y-32996000D01*
X86179000Y-32650000D02*
X82770000Y-32650000D01*
X86179000Y-34845000D02*
X86179000Y-35536000D01*
X86179000Y-35190000D02*
X82785000Y-35190000D01*
X86179000Y-37385000D02*
X86179000Y-38076000D01*
X86179000Y-37730000D02*
X82785000Y-37730000D01*
X91420000Y-39691000D02*
X89580000Y-39691000D01*
X86179000Y-39925000D02*
X86179000Y-40616000D01*
X86179000Y-40270000D02*
X82785000Y-40270000D01*
X86179000Y-42465000D02*
X86179000Y-43156000D01*
X86179000Y-42810000D02*
X82785000Y-42810000D01*
X91420000Y-43390000D02*
X89580000Y-43390000D01*
X86179000Y-45005000D02*
X86179000Y-45696000D01*
X86179000Y-45350000D02*
X82785000Y-45350000D01*
X86179000Y-47545000D02*
X86179000Y-48236000D01*
X86179000Y-47890000D02*
X82785000Y-47890000D01*
X86179000Y-50085000D02*
X86179000Y-51760000D01*
X86179000Y-50430000D02*
X82785000Y-50430000D01*
X91420000Y-51760000D02*
X86179000Y-51760000D01*
%TO.C,J10*%
X79210000Y-13620000D02*
X79210000Y-12980000D01*
X79210000Y-12980000D02*
X78810000Y-12980000D01*
X78970000Y-20940000D02*
X78970000Y-13220000D01*
X78970000Y-20940000D02*
X57849000Y-20940000D01*
X78970000Y-14780000D02*
X57849000Y-14780000D01*
X78970000Y-13680000D02*
X57849000Y-13680000D01*
X78970000Y-13220000D02*
X57849000Y-13220000D01*
X74805000Y-16839000D02*
X74934000Y-16711000D01*
X74635000Y-16599000D02*
X74729000Y-16506000D01*
X72590000Y-19055000D02*
X72684000Y-18961000D01*
X72385000Y-18849000D02*
X72514000Y-18721000D01*
X71305000Y-16839000D02*
X71434000Y-16711000D01*
X71135000Y-16599000D02*
X71229000Y-16506000D01*
X69090000Y-19055000D02*
X69184000Y-18961000D01*
X68885000Y-18849000D02*
X69014000Y-18721000D01*
X67805000Y-16839000D02*
X67934000Y-16711000D01*
X67635000Y-16599000D02*
X67729000Y-16506000D01*
X65590000Y-19055000D02*
X65684000Y-18961000D01*
X65385000Y-18849000D02*
X65514000Y-18721000D01*
X64305000Y-16839000D02*
X64434000Y-16711000D01*
X64135000Y-16599000D02*
X64229000Y-16506000D01*
X62090000Y-19055000D02*
X62184000Y-18961000D01*
X61885000Y-18849000D02*
X62014000Y-18721000D01*
X60805000Y-16839000D02*
X60934000Y-16711000D01*
X60635000Y-16599000D02*
X60729000Y-16506000D01*
X58590000Y-19055000D02*
X58684000Y-18961000D01*
X58385000Y-18849000D02*
X58514000Y-18721000D01*
X57849000Y-20940000D02*
X57849000Y-13220000D01*
X78600000Y-18646000D02*
G75*
G03*
X78585358Y-16890106I-1439998J866000D01*
G01*
X76294000Y-19220000D02*
G75*
G03*
X78049894Y-19205358I866000J1439998D01*
G01*
X78026000Y-16340000D02*
G75*
G03*
X77131326Y-16099902I-866003J-1440014D01*
G01*
X77160000Y-16100001D02*
G75*
G03*
X76269736Y-16355280I-3J-1679989D01*
G01*
X75735001Y-16889001D02*
G75*
G03*
X75734497Y-18670192I1425002J-890999D01*
G01*
X75340000Y-17780000D02*
G75*
G03*
X75340000Y-17780000I-1680000J0D01*
G01*
X71840000Y-17780000D02*
G75*
G03*
X71840000Y-17780000I-1680000J0D01*
G01*
X68340000Y-17780000D02*
G75*
G03*
X68340000Y-17780000I-1680000J0D01*
G01*
X64840000Y-17780000D02*
G75*
G03*
X64840000Y-17780000I-1680000J0D01*
G01*
X61340000Y-17780000D02*
G75*
G03*
X61340000Y-17780000I-1680000J0D01*
G01*
D13*
%TO.C,U3*%
X27340000Y-48450000D02*
X32040000Y-48450000D01*
X32040000Y-48450000D02*
X32040000Y-37910000D01*
X27340000Y-37910000D02*
X27340000Y-48450000D01*
X32040000Y-37910000D02*
X27340000Y-37910000D01*
D12*
X32840000Y-45720000D02*
G75*
G03*
X32840000Y-45720000I-100000J0D01*
G01*
%TD*%
M02*
