%TF.GenerationSoftware,KiCad,Pcbnew,(7.0.0)*%
%TF.CreationDate,2023-04-07T04:20:21-05:00*%
%TF.ProjectId,finalproj,66696e61-6c70-4726-9f6a-2e6b69636164,rev?*%
%TF.SameCoordinates,Original*%
%TF.FileFunction,Legend,Top*%
%TF.FilePolarity,Positive*%
%FSLAX46Y46*%
G04 Gerber Fmt 4.6, Leading zero omitted, Abs format (unit mm)*
G04 Created by KiCad (PCBNEW (7.0.0)) date 2023-04-07 04:20:21*
%MOMM*%
%LPD*%
G01*
G04 APERTURE LIST*
%ADD10C,0.150000*%
%ADD11C,0.120000*%
%ADD12C,0.127000*%
%ADD13C,0.200000*%
G04 APERTURE END LIST*
D10*
%TO.C,C25*%
X61176142Y-11094142D02*
X61128523Y-11141761D01*
X61128523Y-11141761D02*
X60985666Y-11189380D01*
X60985666Y-11189380D02*
X60890428Y-11189380D01*
X60890428Y-11189380D02*
X60747571Y-11141761D01*
X60747571Y-11141761D02*
X60652333Y-11046523D01*
X60652333Y-11046523D02*
X60604714Y-10951285D01*
X60604714Y-10951285D02*
X60557095Y-10760809D01*
X60557095Y-10760809D02*
X60557095Y-10617952D01*
X60557095Y-10617952D02*
X60604714Y-10427476D01*
X60604714Y-10427476D02*
X60652333Y-10332238D01*
X60652333Y-10332238D02*
X60747571Y-10237000D01*
X60747571Y-10237000D02*
X60890428Y-10189380D01*
X60890428Y-10189380D02*
X60985666Y-10189380D01*
X60985666Y-10189380D02*
X61128523Y-10237000D01*
X61128523Y-10237000D02*
X61176142Y-10284619D01*
X61557095Y-10284619D02*
X61604714Y-10237000D01*
X61604714Y-10237000D02*
X61699952Y-10189380D01*
X61699952Y-10189380D02*
X61938047Y-10189380D01*
X61938047Y-10189380D02*
X62033285Y-10237000D01*
X62033285Y-10237000D02*
X62080904Y-10284619D01*
X62080904Y-10284619D02*
X62128523Y-10379857D01*
X62128523Y-10379857D02*
X62128523Y-10475095D01*
X62128523Y-10475095D02*
X62080904Y-10617952D01*
X62080904Y-10617952D02*
X61509476Y-11189380D01*
X61509476Y-11189380D02*
X62128523Y-11189380D01*
X63033285Y-10189380D02*
X62557095Y-10189380D01*
X62557095Y-10189380D02*
X62509476Y-10665571D01*
X62509476Y-10665571D02*
X62557095Y-10617952D01*
X62557095Y-10617952D02*
X62652333Y-10570333D01*
X62652333Y-10570333D02*
X62890428Y-10570333D01*
X62890428Y-10570333D02*
X62985666Y-10617952D01*
X62985666Y-10617952D02*
X63033285Y-10665571D01*
X63033285Y-10665571D02*
X63080904Y-10760809D01*
X63080904Y-10760809D02*
X63080904Y-10998904D01*
X63080904Y-10998904D02*
X63033285Y-11094142D01*
X63033285Y-11094142D02*
X62985666Y-11141761D01*
X62985666Y-11141761D02*
X62890428Y-11189380D01*
X62890428Y-11189380D02*
X62652333Y-11189380D01*
X62652333Y-11189380D02*
X62557095Y-11141761D01*
X62557095Y-11141761D02*
X62509476Y-11094142D01*
%TO.C,J3*%
X20405380Y-21796333D02*
X21119666Y-21796333D01*
X21119666Y-21796333D02*
X21262523Y-21843952D01*
X21262523Y-21843952D02*
X21357761Y-21939190D01*
X21357761Y-21939190D02*
X21405380Y-22082047D01*
X21405380Y-22082047D02*
X21405380Y-22177285D01*
X20405380Y-21415380D02*
X20405380Y-20796333D01*
X20405380Y-20796333D02*
X20786333Y-21129666D01*
X20786333Y-21129666D02*
X20786333Y-20986809D01*
X20786333Y-20986809D02*
X20833952Y-20891571D01*
X20833952Y-20891571D02*
X20881571Y-20843952D01*
X20881571Y-20843952D02*
X20976809Y-20796333D01*
X20976809Y-20796333D02*
X21214904Y-20796333D01*
X21214904Y-20796333D02*
X21310142Y-20843952D01*
X21310142Y-20843952D02*
X21357761Y-20891571D01*
X21357761Y-20891571D02*
X21405380Y-20986809D01*
X21405380Y-20986809D02*
X21405380Y-21272523D01*
X21405380Y-21272523D02*
X21357761Y-21367761D01*
X21357761Y-21367761D02*
X21310142Y-21415380D01*
%TO.C,D2*%
X89117380Y-58600594D02*
X88117380Y-58600594D01*
X88117380Y-58600594D02*
X88117380Y-58362499D01*
X88117380Y-58362499D02*
X88165000Y-58219642D01*
X88165000Y-58219642D02*
X88260238Y-58124404D01*
X88260238Y-58124404D02*
X88355476Y-58076785D01*
X88355476Y-58076785D02*
X88545952Y-58029166D01*
X88545952Y-58029166D02*
X88688809Y-58029166D01*
X88688809Y-58029166D02*
X88879285Y-58076785D01*
X88879285Y-58076785D02*
X88974523Y-58124404D01*
X88974523Y-58124404D02*
X89069761Y-58219642D01*
X89069761Y-58219642D02*
X89117380Y-58362499D01*
X89117380Y-58362499D02*
X89117380Y-58600594D01*
X88212619Y-57648213D02*
X88165000Y-57600594D01*
X88165000Y-57600594D02*
X88117380Y-57505356D01*
X88117380Y-57505356D02*
X88117380Y-57267261D01*
X88117380Y-57267261D02*
X88165000Y-57172023D01*
X88165000Y-57172023D02*
X88212619Y-57124404D01*
X88212619Y-57124404D02*
X88307857Y-57076785D01*
X88307857Y-57076785D02*
X88403095Y-57076785D01*
X88403095Y-57076785D02*
X88545952Y-57124404D01*
X88545952Y-57124404D02*
X89117380Y-57695832D01*
X89117380Y-57695832D02*
X89117380Y-57076785D01*
%TO.C,C41*%
X35120342Y-50106942D02*
X35072723Y-50154561D01*
X35072723Y-50154561D02*
X34929866Y-50202180D01*
X34929866Y-50202180D02*
X34834628Y-50202180D01*
X34834628Y-50202180D02*
X34691771Y-50154561D01*
X34691771Y-50154561D02*
X34596533Y-50059323D01*
X34596533Y-50059323D02*
X34548914Y-49964085D01*
X34548914Y-49964085D02*
X34501295Y-49773609D01*
X34501295Y-49773609D02*
X34501295Y-49630752D01*
X34501295Y-49630752D02*
X34548914Y-49440276D01*
X34548914Y-49440276D02*
X34596533Y-49345038D01*
X34596533Y-49345038D02*
X34691771Y-49249800D01*
X34691771Y-49249800D02*
X34834628Y-49202180D01*
X34834628Y-49202180D02*
X34929866Y-49202180D01*
X34929866Y-49202180D02*
X35072723Y-49249800D01*
X35072723Y-49249800D02*
X35120342Y-49297419D01*
X35977485Y-49535514D02*
X35977485Y-50202180D01*
X35739390Y-49154561D02*
X35501295Y-49868847D01*
X35501295Y-49868847D02*
X36120342Y-49868847D01*
X37025104Y-50202180D02*
X36453676Y-50202180D01*
X36739390Y-50202180D02*
X36739390Y-49202180D01*
X36739390Y-49202180D02*
X36644152Y-49345038D01*
X36644152Y-49345038D02*
X36548914Y-49440276D01*
X36548914Y-49440276D02*
X36453676Y-49487895D01*
%TO.C,J6*%
X14466666Y-30097380D02*
X14466666Y-30811666D01*
X14466666Y-30811666D02*
X14419047Y-30954523D01*
X14419047Y-30954523D02*
X14323809Y-31049761D01*
X14323809Y-31049761D02*
X14180952Y-31097380D01*
X14180952Y-31097380D02*
X14085714Y-31097380D01*
X15371428Y-30097380D02*
X15180952Y-30097380D01*
X15180952Y-30097380D02*
X15085714Y-30145000D01*
X15085714Y-30145000D02*
X15038095Y-30192619D01*
X15038095Y-30192619D02*
X14942857Y-30335476D01*
X14942857Y-30335476D02*
X14895238Y-30525952D01*
X14895238Y-30525952D02*
X14895238Y-30906904D01*
X14895238Y-30906904D02*
X14942857Y-31002142D01*
X14942857Y-31002142D02*
X14990476Y-31049761D01*
X14990476Y-31049761D02*
X15085714Y-31097380D01*
X15085714Y-31097380D02*
X15276190Y-31097380D01*
X15276190Y-31097380D02*
X15371428Y-31049761D01*
X15371428Y-31049761D02*
X15419047Y-31002142D01*
X15419047Y-31002142D02*
X15466666Y-30906904D01*
X15466666Y-30906904D02*
X15466666Y-30668809D01*
X15466666Y-30668809D02*
X15419047Y-30573571D01*
X15419047Y-30573571D02*
X15371428Y-30525952D01*
X15371428Y-30525952D02*
X15276190Y-30478333D01*
X15276190Y-30478333D02*
X15085714Y-30478333D01*
X15085714Y-30478333D02*
X14990476Y-30525952D01*
X14990476Y-30525952D02*
X14942857Y-30573571D01*
X14942857Y-30573571D02*
X14895238Y-30668809D01*
%TO.C,C32*%
X19484142Y-28368142D02*
X19436523Y-28415761D01*
X19436523Y-28415761D02*
X19293666Y-28463380D01*
X19293666Y-28463380D02*
X19198428Y-28463380D01*
X19198428Y-28463380D02*
X19055571Y-28415761D01*
X19055571Y-28415761D02*
X18960333Y-28320523D01*
X18960333Y-28320523D02*
X18912714Y-28225285D01*
X18912714Y-28225285D02*
X18865095Y-28034809D01*
X18865095Y-28034809D02*
X18865095Y-27891952D01*
X18865095Y-27891952D02*
X18912714Y-27701476D01*
X18912714Y-27701476D02*
X18960333Y-27606238D01*
X18960333Y-27606238D02*
X19055571Y-27511000D01*
X19055571Y-27511000D02*
X19198428Y-27463380D01*
X19198428Y-27463380D02*
X19293666Y-27463380D01*
X19293666Y-27463380D02*
X19436523Y-27511000D01*
X19436523Y-27511000D02*
X19484142Y-27558619D01*
X19817476Y-27463380D02*
X20436523Y-27463380D01*
X20436523Y-27463380D02*
X20103190Y-27844333D01*
X20103190Y-27844333D02*
X20246047Y-27844333D01*
X20246047Y-27844333D02*
X20341285Y-27891952D01*
X20341285Y-27891952D02*
X20388904Y-27939571D01*
X20388904Y-27939571D02*
X20436523Y-28034809D01*
X20436523Y-28034809D02*
X20436523Y-28272904D01*
X20436523Y-28272904D02*
X20388904Y-28368142D01*
X20388904Y-28368142D02*
X20341285Y-28415761D01*
X20341285Y-28415761D02*
X20246047Y-28463380D01*
X20246047Y-28463380D02*
X19960333Y-28463380D01*
X19960333Y-28463380D02*
X19865095Y-28415761D01*
X19865095Y-28415761D02*
X19817476Y-28368142D01*
X20817476Y-27558619D02*
X20865095Y-27511000D01*
X20865095Y-27511000D02*
X20960333Y-27463380D01*
X20960333Y-27463380D02*
X21198428Y-27463380D01*
X21198428Y-27463380D02*
X21293666Y-27511000D01*
X21293666Y-27511000D02*
X21341285Y-27558619D01*
X21341285Y-27558619D02*
X21388904Y-27653857D01*
X21388904Y-27653857D02*
X21388904Y-27749095D01*
X21388904Y-27749095D02*
X21341285Y-27891952D01*
X21341285Y-27891952D02*
X20769857Y-28463380D01*
X20769857Y-28463380D02*
X21388904Y-28463380D01*
%TO.C,C18*%
X71950342Y-89872142D02*
X71902723Y-89919761D01*
X71902723Y-89919761D02*
X71759866Y-89967380D01*
X71759866Y-89967380D02*
X71664628Y-89967380D01*
X71664628Y-89967380D02*
X71521771Y-89919761D01*
X71521771Y-89919761D02*
X71426533Y-89824523D01*
X71426533Y-89824523D02*
X71378914Y-89729285D01*
X71378914Y-89729285D02*
X71331295Y-89538809D01*
X71331295Y-89538809D02*
X71331295Y-89395952D01*
X71331295Y-89395952D02*
X71378914Y-89205476D01*
X71378914Y-89205476D02*
X71426533Y-89110238D01*
X71426533Y-89110238D02*
X71521771Y-89015000D01*
X71521771Y-89015000D02*
X71664628Y-88967380D01*
X71664628Y-88967380D02*
X71759866Y-88967380D01*
X71759866Y-88967380D02*
X71902723Y-89015000D01*
X71902723Y-89015000D02*
X71950342Y-89062619D01*
X72902723Y-89967380D02*
X72331295Y-89967380D01*
X72617009Y-89967380D02*
X72617009Y-88967380D01*
X72617009Y-88967380D02*
X72521771Y-89110238D01*
X72521771Y-89110238D02*
X72426533Y-89205476D01*
X72426533Y-89205476D02*
X72331295Y-89253095D01*
X73474152Y-89395952D02*
X73378914Y-89348333D01*
X73378914Y-89348333D02*
X73331295Y-89300714D01*
X73331295Y-89300714D02*
X73283676Y-89205476D01*
X73283676Y-89205476D02*
X73283676Y-89157857D01*
X73283676Y-89157857D02*
X73331295Y-89062619D01*
X73331295Y-89062619D02*
X73378914Y-89015000D01*
X73378914Y-89015000D02*
X73474152Y-88967380D01*
X73474152Y-88967380D02*
X73664628Y-88967380D01*
X73664628Y-88967380D02*
X73759866Y-89015000D01*
X73759866Y-89015000D02*
X73807485Y-89062619D01*
X73807485Y-89062619D02*
X73855104Y-89157857D01*
X73855104Y-89157857D02*
X73855104Y-89205476D01*
X73855104Y-89205476D02*
X73807485Y-89300714D01*
X73807485Y-89300714D02*
X73759866Y-89348333D01*
X73759866Y-89348333D02*
X73664628Y-89395952D01*
X73664628Y-89395952D02*
X73474152Y-89395952D01*
X73474152Y-89395952D02*
X73378914Y-89443571D01*
X73378914Y-89443571D02*
X73331295Y-89491190D01*
X73331295Y-89491190D02*
X73283676Y-89586428D01*
X73283676Y-89586428D02*
X73283676Y-89776904D01*
X73283676Y-89776904D02*
X73331295Y-89872142D01*
X73331295Y-89872142D02*
X73378914Y-89919761D01*
X73378914Y-89919761D02*
X73474152Y-89967380D01*
X73474152Y-89967380D02*
X73664628Y-89967380D01*
X73664628Y-89967380D02*
X73759866Y-89919761D01*
X73759866Y-89919761D02*
X73807485Y-89872142D01*
X73807485Y-89872142D02*
X73855104Y-89776904D01*
X73855104Y-89776904D02*
X73855104Y-89586428D01*
X73855104Y-89586428D02*
X73807485Y-89491190D01*
X73807485Y-89491190D02*
X73759866Y-89443571D01*
X73759866Y-89443571D02*
X73664628Y-89395952D01*
%TO.C,C6*%
X46442333Y-16682142D02*
X46394714Y-16729761D01*
X46394714Y-16729761D02*
X46251857Y-16777380D01*
X46251857Y-16777380D02*
X46156619Y-16777380D01*
X46156619Y-16777380D02*
X46013762Y-16729761D01*
X46013762Y-16729761D02*
X45918524Y-16634523D01*
X45918524Y-16634523D02*
X45870905Y-16539285D01*
X45870905Y-16539285D02*
X45823286Y-16348809D01*
X45823286Y-16348809D02*
X45823286Y-16205952D01*
X45823286Y-16205952D02*
X45870905Y-16015476D01*
X45870905Y-16015476D02*
X45918524Y-15920238D01*
X45918524Y-15920238D02*
X46013762Y-15825000D01*
X46013762Y-15825000D02*
X46156619Y-15777380D01*
X46156619Y-15777380D02*
X46251857Y-15777380D01*
X46251857Y-15777380D02*
X46394714Y-15825000D01*
X46394714Y-15825000D02*
X46442333Y-15872619D01*
X47299476Y-15777380D02*
X47109000Y-15777380D01*
X47109000Y-15777380D02*
X47013762Y-15825000D01*
X47013762Y-15825000D02*
X46966143Y-15872619D01*
X46966143Y-15872619D02*
X46870905Y-16015476D01*
X46870905Y-16015476D02*
X46823286Y-16205952D01*
X46823286Y-16205952D02*
X46823286Y-16586904D01*
X46823286Y-16586904D02*
X46870905Y-16682142D01*
X46870905Y-16682142D02*
X46918524Y-16729761D01*
X46918524Y-16729761D02*
X47013762Y-16777380D01*
X47013762Y-16777380D02*
X47204238Y-16777380D01*
X47204238Y-16777380D02*
X47299476Y-16729761D01*
X47299476Y-16729761D02*
X47347095Y-16682142D01*
X47347095Y-16682142D02*
X47394714Y-16586904D01*
X47394714Y-16586904D02*
X47394714Y-16348809D01*
X47394714Y-16348809D02*
X47347095Y-16253571D01*
X47347095Y-16253571D02*
X47299476Y-16205952D01*
X47299476Y-16205952D02*
X47204238Y-16158333D01*
X47204238Y-16158333D02*
X47013762Y-16158333D01*
X47013762Y-16158333D02*
X46918524Y-16205952D01*
X46918524Y-16205952D02*
X46870905Y-16253571D01*
X46870905Y-16253571D02*
X46823286Y-16348809D01*
%TO.C,RV1*%
X36395380Y-34631238D02*
X35919190Y-34964571D01*
X36395380Y-35202666D02*
X35395380Y-35202666D01*
X35395380Y-35202666D02*
X35395380Y-34821714D01*
X35395380Y-34821714D02*
X35443000Y-34726476D01*
X35443000Y-34726476D02*
X35490619Y-34678857D01*
X35490619Y-34678857D02*
X35585857Y-34631238D01*
X35585857Y-34631238D02*
X35728714Y-34631238D01*
X35728714Y-34631238D02*
X35823952Y-34678857D01*
X35823952Y-34678857D02*
X35871571Y-34726476D01*
X35871571Y-34726476D02*
X35919190Y-34821714D01*
X35919190Y-34821714D02*
X35919190Y-35202666D01*
X35395380Y-34345523D02*
X36395380Y-34012190D01*
X36395380Y-34012190D02*
X35395380Y-33678857D01*
X36395380Y-32821714D02*
X36395380Y-33393142D01*
X36395380Y-33107428D02*
X35395380Y-33107428D01*
X35395380Y-33107428D02*
X35538238Y-33202666D01*
X35538238Y-33202666D02*
X35633476Y-33297904D01*
X35633476Y-33297904D02*
X35681095Y-33393142D01*
%TO.C,J10*%
X102457380Y-30908523D02*
X103171666Y-30908523D01*
X103171666Y-30908523D02*
X103314523Y-30956142D01*
X103314523Y-30956142D02*
X103409761Y-31051380D01*
X103409761Y-31051380D02*
X103457380Y-31194237D01*
X103457380Y-31194237D02*
X103457380Y-31289475D01*
X103457380Y-29908523D02*
X103457380Y-30479951D01*
X103457380Y-30194237D02*
X102457380Y-30194237D01*
X102457380Y-30194237D02*
X102600238Y-30289475D01*
X102600238Y-30289475D02*
X102695476Y-30384713D01*
X102695476Y-30384713D02*
X102743095Y-30479951D01*
X102457380Y-29289475D02*
X102457380Y-29194237D01*
X102457380Y-29194237D02*
X102505000Y-29098999D01*
X102505000Y-29098999D02*
X102552619Y-29051380D01*
X102552619Y-29051380D02*
X102647857Y-29003761D01*
X102647857Y-29003761D02*
X102838333Y-28956142D01*
X102838333Y-28956142D02*
X103076428Y-28956142D01*
X103076428Y-28956142D02*
X103266904Y-29003761D01*
X103266904Y-29003761D02*
X103362142Y-29051380D01*
X103362142Y-29051380D02*
X103409761Y-29098999D01*
X103409761Y-29098999D02*
X103457380Y-29194237D01*
X103457380Y-29194237D02*
X103457380Y-29289475D01*
X103457380Y-29289475D02*
X103409761Y-29384713D01*
X103409761Y-29384713D02*
X103362142Y-29432332D01*
X103362142Y-29432332D02*
X103266904Y-29479951D01*
X103266904Y-29479951D02*
X103076428Y-29527570D01*
X103076428Y-29527570D02*
X102838333Y-29527570D01*
X102838333Y-29527570D02*
X102647857Y-29479951D01*
X102647857Y-29479951D02*
X102552619Y-29432332D01*
X102552619Y-29432332D02*
X102505000Y-29384713D01*
X102505000Y-29384713D02*
X102457380Y-29289475D01*
%TO.C,C23*%
X75099942Y-74287742D02*
X75052323Y-74335361D01*
X75052323Y-74335361D02*
X74909466Y-74382980D01*
X74909466Y-74382980D02*
X74814228Y-74382980D01*
X74814228Y-74382980D02*
X74671371Y-74335361D01*
X74671371Y-74335361D02*
X74576133Y-74240123D01*
X74576133Y-74240123D02*
X74528514Y-74144885D01*
X74528514Y-74144885D02*
X74480895Y-73954409D01*
X74480895Y-73954409D02*
X74480895Y-73811552D01*
X74480895Y-73811552D02*
X74528514Y-73621076D01*
X74528514Y-73621076D02*
X74576133Y-73525838D01*
X74576133Y-73525838D02*
X74671371Y-73430600D01*
X74671371Y-73430600D02*
X74814228Y-73382980D01*
X74814228Y-73382980D02*
X74909466Y-73382980D01*
X74909466Y-73382980D02*
X75052323Y-73430600D01*
X75052323Y-73430600D02*
X75099942Y-73478219D01*
X75480895Y-73478219D02*
X75528514Y-73430600D01*
X75528514Y-73430600D02*
X75623752Y-73382980D01*
X75623752Y-73382980D02*
X75861847Y-73382980D01*
X75861847Y-73382980D02*
X75957085Y-73430600D01*
X75957085Y-73430600D02*
X76004704Y-73478219D01*
X76004704Y-73478219D02*
X76052323Y-73573457D01*
X76052323Y-73573457D02*
X76052323Y-73668695D01*
X76052323Y-73668695D02*
X76004704Y-73811552D01*
X76004704Y-73811552D02*
X75433276Y-74382980D01*
X75433276Y-74382980D02*
X76052323Y-74382980D01*
X76385657Y-73382980D02*
X77004704Y-73382980D01*
X77004704Y-73382980D02*
X76671371Y-73763933D01*
X76671371Y-73763933D02*
X76814228Y-73763933D01*
X76814228Y-73763933D02*
X76909466Y-73811552D01*
X76909466Y-73811552D02*
X76957085Y-73859171D01*
X76957085Y-73859171D02*
X77004704Y-73954409D01*
X77004704Y-73954409D02*
X77004704Y-74192504D01*
X77004704Y-74192504D02*
X76957085Y-74287742D01*
X76957085Y-74287742D02*
X76909466Y-74335361D01*
X76909466Y-74335361D02*
X76814228Y-74382980D01*
X76814228Y-74382980D02*
X76528514Y-74382980D01*
X76528514Y-74382980D02*
X76433276Y-74335361D01*
X76433276Y-74335361D02*
X76385657Y-74287742D01*
%TO.C,J9*%
X54822380Y-103203333D02*
X55536666Y-103203333D01*
X55536666Y-103203333D02*
X55679523Y-103250952D01*
X55679523Y-103250952D02*
X55774761Y-103346190D01*
X55774761Y-103346190D02*
X55822380Y-103489047D01*
X55822380Y-103489047D02*
X55822380Y-103584285D01*
X55822380Y-102679523D02*
X55822380Y-102489047D01*
X55822380Y-102489047D02*
X55774761Y-102393809D01*
X55774761Y-102393809D02*
X55727142Y-102346190D01*
X55727142Y-102346190D02*
X55584285Y-102250952D01*
X55584285Y-102250952D02*
X55393809Y-102203333D01*
X55393809Y-102203333D02*
X55012857Y-102203333D01*
X55012857Y-102203333D02*
X54917619Y-102250952D01*
X54917619Y-102250952D02*
X54870000Y-102298571D01*
X54870000Y-102298571D02*
X54822380Y-102393809D01*
X54822380Y-102393809D02*
X54822380Y-102584285D01*
X54822380Y-102584285D02*
X54870000Y-102679523D01*
X54870000Y-102679523D02*
X54917619Y-102727142D01*
X54917619Y-102727142D02*
X55012857Y-102774761D01*
X55012857Y-102774761D02*
X55250952Y-102774761D01*
X55250952Y-102774761D02*
X55346190Y-102727142D01*
X55346190Y-102727142D02*
X55393809Y-102679523D01*
X55393809Y-102679523D02*
X55441428Y-102584285D01*
X55441428Y-102584285D02*
X55441428Y-102393809D01*
X55441428Y-102393809D02*
X55393809Y-102298571D01*
X55393809Y-102298571D02*
X55346190Y-102250952D01*
X55346190Y-102250952D02*
X55250952Y-102203333D01*
%TO.C,D1*%
X88917380Y-62800594D02*
X87917380Y-62800594D01*
X87917380Y-62800594D02*
X87917380Y-62562499D01*
X87917380Y-62562499D02*
X87965000Y-62419642D01*
X87965000Y-62419642D02*
X88060238Y-62324404D01*
X88060238Y-62324404D02*
X88155476Y-62276785D01*
X88155476Y-62276785D02*
X88345952Y-62229166D01*
X88345952Y-62229166D02*
X88488809Y-62229166D01*
X88488809Y-62229166D02*
X88679285Y-62276785D01*
X88679285Y-62276785D02*
X88774523Y-62324404D01*
X88774523Y-62324404D02*
X88869761Y-62419642D01*
X88869761Y-62419642D02*
X88917380Y-62562499D01*
X88917380Y-62562499D02*
X88917380Y-62800594D01*
X88917380Y-61276785D02*
X88917380Y-61848213D01*
X88917380Y-61562499D02*
X87917380Y-61562499D01*
X87917380Y-61562499D02*
X88060238Y-61657737D01*
X88060238Y-61657737D02*
X88155476Y-61752975D01*
X88155476Y-61752975D02*
X88203095Y-61848213D01*
%TO.C,12V_IC*%
X49128666Y-25152333D02*
X48328666Y-25152333D01*
X48728666Y-25152333D02*
X48728666Y-23752333D01*
X48728666Y-23752333D02*
X48595333Y-23952333D01*
X48595333Y-23952333D02*
X48462000Y-24085666D01*
X48462000Y-24085666D02*
X48328666Y-24152333D01*
X49661999Y-23885666D02*
X49728666Y-23819000D01*
X49728666Y-23819000D02*
X49861999Y-23752333D01*
X49861999Y-23752333D02*
X50195333Y-23752333D01*
X50195333Y-23752333D02*
X50328666Y-23819000D01*
X50328666Y-23819000D02*
X50395333Y-23885666D01*
X50395333Y-23885666D02*
X50461999Y-24019000D01*
X50461999Y-24019000D02*
X50461999Y-24152333D01*
X50461999Y-24152333D02*
X50395333Y-24352333D01*
X50395333Y-24352333D02*
X49595333Y-25152333D01*
X49595333Y-25152333D02*
X50461999Y-25152333D01*
X50861999Y-23752333D02*
X51328666Y-25152333D01*
X51328666Y-25152333D02*
X51795332Y-23752333D01*
X51928666Y-25285666D02*
X52995332Y-25285666D01*
X53328666Y-25152333D02*
X53328666Y-23752333D01*
X54795333Y-25019000D02*
X54728666Y-25085666D01*
X54728666Y-25085666D02*
X54528666Y-25152333D01*
X54528666Y-25152333D02*
X54395333Y-25152333D01*
X54395333Y-25152333D02*
X54195333Y-25085666D01*
X54195333Y-25085666D02*
X54062000Y-24952333D01*
X54062000Y-24952333D02*
X53995333Y-24819000D01*
X53995333Y-24819000D02*
X53928666Y-24552333D01*
X53928666Y-24552333D02*
X53928666Y-24352333D01*
X53928666Y-24352333D02*
X53995333Y-24085666D01*
X53995333Y-24085666D02*
X54062000Y-23952333D01*
X54062000Y-23952333D02*
X54195333Y-23819000D01*
X54195333Y-23819000D02*
X54395333Y-23752333D01*
X54395333Y-23752333D02*
X54528666Y-23752333D01*
X54528666Y-23752333D02*
X54728666Y-23819000D01*
X54728666Y-23819000D02*
X54795333Y-23885666D01*
%TO.C,Y2*%
X44227809Y-89280390D02*
X44227809Y-89756580D01*
X43894476Y-88756580D02*
X44227809Y-89280390D01*
X44227809Y-89280390D02*
X44561142Y-88756580D01*
X44846857Y-88851819D02*
X44894476Y-88804200D01*
X44894476Y-88804200D02*
X44989714Y-88756580D01*
X44989714Y-88756580D02*
X45227809Y-88756580D01*
X45227809Y-88756580D02*
X45323047Y-88804200D01*
X45323047Y-88804200D02*
X45370666Y-88851819D01*
X45370666Y-88851819D02*
X45418285Y-88947057D01*
X45418285Y-88947057D02*
X45418285Y-89042295D01*
X45418285Y-89042295D02*
X45370666Y-89185152D01*
X45370666Y-89185152D02*
X44799238Y-89756580D01*
X44799238Y-89756580D02*
X45418285Y-89756580D01*
%TO.C,R10*%
X39034980Y-92743257D02*
X38558790Y-93076590D01*
X39034980Y-93314685D02*
X38034980Y-93314685D01*
X38034980Y-93314685D02*
X38034980Y-92933733D01*
X38034980Y-92933733D02*
X38082600Y-92838495D01*
X38082600Y-92838495D02*
X38130219Y-92790876D01*
X38130219Y-92790876D02*
X38225457Y-92743257D01*
X38225457Y-92743257D02*
X38368314Y-92743257D01*
X38368314Y-92743257D02*
X38463552Y-92790876D01*
X38463552Y-92790876D02*
X38511171Y-92838495D01*
X38511171Y-92838495D02*
X38558790Y-92933733D01*
X38558790Y-92933733D02*
X38558790Y-93314685D01*
X39034980Y-91790876D02*
X39034980Y-92362304D01*
X39034980Y-92076590D02*
X38034980Y-92076590D01*
X38034980Y-92076590D02*
X38177838Y-92171828D01*
X38177838Y-92171828D02*
X38273076Y-92267066D01*
X38273076Y-92267066D02*
X38320695Y-92362304D01*
X38034980Y-91171828D02*
X38034980Y-91076590D01*
X38034980Y-91076590D02*
X38082600Y-90981352D01*
X38082600Y-90981352D02*
X38130219Y-90933733D01*
X38130219Y-90933733D02*
X38225457Y-90886114D01*
X38225457Y-90886114D02*
X38415933Y-90838495D01*
X38415933Y-90838495D02*
X38654028Y-90838495D01*
X38654028Y-90838495D02*
X38844504Y-90886114D01*
X38844504Y-90886114D02*
X38939742Y-90933733D01*
X38939742Y-90933733D02*
X38987361Y-90981352D01*
X38987361Y-90981352D02*
X39034980Y-91076590D01*
X39034980Y-91076590D02*
X39034980Y-91171828D01*
X39034980Y-91171828D02*
X38987361Y-91267066D01*
X38987361Y-91267066D02*
X38939742Y-91314685D01*
X38939742Y-91314685D02*
X38844504Y-91362304D01*
X38844504Y-91362304D02*
X38654028Y-91409923D01*
X38654028Y-91409923D02*
X38415933Y-91409923D01*
X38415933Y-91409923D02*
X38225457Y-91362304D01*
X38225457Y-91362304D02*
X38130219Y-91314685D01*
X38130219Y-91314685D02*
X38082600Y-91267066D01*
X38082600Y-91267066D02*
X38034980Y-91171828D01*
%TO.C,H2*%
X107638095Y-9967380D02*
X107638095Y-8967380D01*
X107638095Y-9443571D02*
X108209523Y-9443571D01*
X108209523Y-9967380D02*
X108209523Y-8967380D01*
X108638095Y-9062619D02*
X108685714Y-9015000D01*
X108685714Y-9015000D02*
X108780952Y-8967380D01*
X108780952Y-8967380D02*
X109019047Y-8967380D01*
X109019047Y-8967380D02*
X109114285Y-9015000D01*
X109114285Y-9015000D02*
X109161904Y-9062619D01*
X109161904Y-9062619D02*
X109209523Y-9157857D01*
X109209523Y-9157857D02*
X109209523Y-9253095D01*
X109209523Y-9253095D02*
X109161904Y-9395952D01*
X109161904Y-9395952D02*
X108590476Y-9967380D01*
X108590476Y-9967380D02*
X109209523Y-9967380D01*
%TO.C,5V*%
X27927334Y-36960333D02*
X27260667Y-36960333D01*
X27260667Y-36960333D02*
X27194000Y-37627000D01*
X27194000Y-37627000D02*
X27260667Y-37560333D01*
X27260667Y-37560333D02*
X27394000Y-37493666D01*
X27394000Y-37493666D02*
X27727334Y-37493666D01*
X27727334Y-37493666D02*
X27860667Y-37560333D01*
X27860667Y-37560333D02*
X27927334Y-37627000D01*
X27927334Y-37627000D02*
X27994000Y-37760333D01*
X27994000Y-37760333D02*
X27994000Y-38093666D01*
X27994000Y-38093666D02*
X27927334Y-38227000D01*
X27927334Y-38227000D02*
X27860667Y-38293666D01*
X27860667Y-38293666D02*
X27727334Y-38360333D01*
X27727334Y-38360333D02*
X27394000Y-38360333D01*
X27394000Y-38360333D02*
X27260667Y-38293666D01*
X27260667Y-38293666D02*
X27194000Y-38227000D01*
X28394000Y-36960333D02*
X28860667Y-38360333D01*
X28860667Y-38360333D02*
X29327333Y-36960333D01*
%TO.C,C33*%
X22357142Y-11672142D02*
X22309523Y-11719761D01*
X22309523Y-11719761D02*
X22166666Y-11767380D01*
X22166666Y-11767380D02*
X22071428Y-11767380D01*
X22071428Y-11767380D02*
X21928571Y-11719761D01*
X21928571Y-11719761D02*
X21833333Y-11624523D01*
X21833333Y-11624523D02*
X21785714Y-11529285D01*
X21785714Y-11529285D02*
X21738095Y-11338809D01*
X21738095Y-11338809D02*
X21738095Y-11195952D01*
X21738095Y-11195952D02*
X21785714Y-11005476D01*
X21785714Y-11005476D02*
X21833333Y-10910238D01*
X21833333Y-10910238D02*
X21928571Y-10815000D01*
X21928571Y-10815000D02*
X22071428Y-10767380D01*
X22071428Y-10767380D02*
X22166666Y-10767380D01*
X22166666Y-10767380D02*
X22309523Y-10815000D01*
X22309523Y-10815000D02*
X22357142Y-10862619D01*
X22690476Y-10767380D02*
X23309523Y-10767380D01*
X23309523Y-10767380D02*
X22976190Y-11148333D01*
X22976190Y-11148333D02*
X23119047Y-11148333D01*
X23119047Y-11148333D02*
X23214285Y-11195952D01*
X23214285Y-11195952D02*
X23261904Y-11243571D01*
X23261904Y-11243571D02*
X23309523Y-11338809D01*
X23309523Y-11338809D02*
X23309523Y-11576904D01*
X23309523Y-11576904D02*
X23261904Y-11672142D01*
X23261904Y-11672142D02*
X23214285Y-11719761D01*
X23214285Y-11719761D02*
X23119047Y-11767380D01*
X23119047Y-11767380D02*
X22833333Y-11767380D01*
X22833333Y-11767380D02*
X22738095Y-11719761D01*
X22738095Y-11719761D02*
X22690476Y-11672142D01*
X23642857Y-10767380D02*
X24261904Y-10767380D01*
X24261904Y-10767380D02*
X23928571Y-11148333D01*
X23928571Y-11148333D02*
X24071428Y-11148333D01*
X24071428Y-11148333D02*
X24166666Y-11195952D01*
X24166666Y-11195952D02*
X24214285Y-11243571D01*
X24214285Y-11243571D02*
X24261904Y-11338809D01*
X24261904Y-11338809D02*
X24261904Y-11576904D01*
X24261904Y-11576904D02*
X24214285Y-11672142D01*
X24214285Y-11672142D02*
X24166666Y-11719761D01*
X24166666Y-11719761D02*
X24071428Y-11767380D01*
X24071428Y-11767380D02*
X23785714Y-11767380D01*
X23785714Y-11767380D02*
X23690476Y-11719761D01*
X23690476Y-11719761D02*
X23642857Y-11672142D01*
%TO.C,C22*%
X72102742Y-74236942D02*
X72055123Y-74284561D01*
X72055123Y-74284561D02*
X71912266Y-74332180D01*
X71912266Y-74332180D02*
X71817028Y-74332180D01*
X71817028Y-74332180D02*
X71674171Y-74284561D01*
X71674171Y-74284561D02*
X71578933Y-74189323D01*
X71578933Y-74189323D02*
X71531314Y-74094085D01*
X71531314Y-74094085D02*
X71483695Y-73903609D01*
X71483695Y-73903609D02*
X71483695Y-73760752D01*
X71483695Y-73760752D02*
X71531314Y-73570276D01*
X71531314Y-73570276D02*
X71578933Y-73475038D01*
X71578933Y-73475038D02*
X71674171Y-73379800D01*
X71674171Y-73379800D02*
X71817028Y-73332180D01*
X71817028Y-73332180D02*
X71912266Y-73332180D01*
X71912266Y-73332180D02*
X72055123Y-73379800D01*
X72055123Y-73379800D02*
X72102742Y-73427419D01*
X72483695Y-73427419D02*
X72531314Y-73379800D01*
X72531314Y-73379800D02*
X72626552Y-73332180D01*
X72626552Y-73332180D02*
X72864647Y-73332180D01*
X72864647Y-73332180D02*
X72959885Y-73379800D01*
X72959885Y-73379800D02*
X73007504Y-73427419D01*
X73007504Y-73427419D02*
X73055123Y-73522657D01*
X73055123Y-73522657D02*
X73055123Y-73617895D01*
X73055123Y-73617895D02*
X73007504Y-73760752D01*
X73007504Y-73760752D02*
X72436076Y-74332180D01*
X72436076Y-74332180D02*
X73055123Y-74332180D01*
X73436076Y-73427419D02*
X73483695Y-73379800D01*
X73483695Y-73379800D02*
X73578933Y-73332180D01*
X73578933Y-73332180D02*
X73817028Y-73332180D01*
X73817028Y-73332180D02*
X73912266Y-73379800D01*
X73912266Y-73379800D02*
X73959885Y-73427419D01*
X73959885Y-73427419D02*
X74007504Y-73522657D01*
X74007504Y-73522657D02*
X74007504Y-73617895D01*
X74007504Y-73617895D02*
X73959885Y-73760752D01*
X73959885Y-73760752D02*
X73388457Y-74332180D01*
X73388457Y-74332180D02*
X74007504Y-74332180D01*
%TO.C,C19*%
X75594342Y-89872142D02*
X75546723Y-89919761D01*
X75546723Y-89919761D02*
X75403866Y-89967380D01*
X75403866Y-89967380D02*
X75308628Y-89967380D01*
X75308628Y-89967380D02*
X75165771Y-89919761D01*
X75165771Y-89919761D02*
X75070533Y-89824523D01*
X75070533Y-89824523D02*
X75022914Y-89729285D01*
X75022914Y-89729285D02*
X74975295Y-89538809D01*
X74975295Y-89538809D02*
X74975295Y-89395952D01*
X74975295Y-89395952D02*
X75022914Y-89205476D01*
X75022914Y-89205476D02*
X75070533Y-89110238D01*
X75070533Y-89110238D02*
X75165771Y-89015000D01*
X75165771Y-89015000D02*
X75308628Y-88967380D01*
X75308628Y-88967380D02*
X75403866Y-88967380D01*
X75403866Y-88967380D02*
X75546723Y-89015000D01*
X75546723Y-89015000D02*
X75594342Y-89062619D01*
X76546723Y-89967380D02*
X75975295Y-89967380D01*
X76261009Y-89967380D02*
X76261009Y-88967380D01*
X76261009Y-88967380D02*
X76165771Y-89110238D01*
X76165771Y-89110238D02*
X76070533Y-89205476D01*
X76070533Y-89205476D02*
X75975295Y-89253095D01*
X77022914Y-89967380D02*
X77213390Y-89967380D01*
X77213390Y-89967380D02*
X77308628Y-89919761D01*
X77308628Y-89919761D02*
X77356247Y-89872142D01*
X77356247Y-89872142D02*
X77451485Y-89729285D01*
X77451485Y-89729285D02*
X77499104Y-89538809D01*
X77499104Y-89538809D02*
X77499104Y-89157857D01*
X77499104Y-89157857D02*
X77451485Y-89062619D01*
X77451485Y-89062619D02*
X77403866Y-89015000D01*
X77403866Y-89015000D02*
X77308628Y-88967380D01*
X77308628Y-88967380D02*
X77118152Y-88967380D01*
X77118152Y-88967380D02*
X77022914Y-89015000D01*
X77022914Y-89015000D02*
X76975295Y-89062619D01*
X76975295Y-89062619D02*
X76927676Y-89157857D01*
X76927676Y-89157857D02*
X76927676Y-89395952D01*
X76927676Y-89395952D02*
X76975295Y-89491190D01*
X76975295Y-89491190D02*
X77022914Y-89538809D01*
X77022914Y-89538809D02*
X77118152Y-89586428D01*
X77118152Y-89586428D02*
X77308628Y-89586428D01*
X77308628Y-89586428D02*
X77403866Y-89538809D01*
X77403866Y-89538809D02*
X77451485Y-89491190D01*
X77451485Y-89491190D02*
X77499104Y-89395952D01*
%TO.C,C1*%
X99304142Y-30458666D02*
X99351761Y-30506285D01*
X99351761Y-30506285D02*
X99399380Y-30649142D01*
X99399380Y-30649142D02*
X99399380Y-30744380D01*
X99399380Y-30744380D02*
X99351761Y-30887237D01*
X99351761Y-30887237D02*
X99256523Y-30982475D01*
X99256523Y-30982475D02*
X99161285Y-31030094D01*
X99161285Y-31030094D02*
X98970809Y-31077713D01*
X98970809Y-31077713D02*
X98827952Y-31077713D01*
X98827952Y-31077713D02*
X98637476Y-31030094D01*
X98637476Y-31030094D02*
X98542238Y-30982475D01*
X98542238Y-30982475D02*
X98447000Y-30887237D01*
X98447000Y-30887237D02*
X98399380Y-30744380D01*
X98399380Y-30744380D02*
X98399380Y-30649142D01*
X98399380Y-30649142D02*
X98447000Y-30506285D01*
X98447000Y-30506285D02*
X98494619Y-30458666D01*
X99399380Y-29506285D02*
X99399380Y-30077713D01*
X99399380Y-29791999D02*
X98399380Y-29791999D01*
X98399380Y-29791999D02*
X98542238Y-29887237D01*
X98542238Y-29887237D02*
X98637476Y-29982475D01*
X98637476Y-29982475D02*
X98685095Y-30077713D01*
%TO.C,D3*%
X82325780Y-57626194D02*
X81325780Y-57626194D01*
X81325780Y-57626194D02*
X81325780Y-57388099D01*
X81325780Y-57388099D02*
X81373400Y-57245242D01*
X81373400Y-57245242D02*
X81468638Y-57150004D01*
X81468638Y-57150004D02*
X81563876Y-57102385D01*
X81563876Y-57102385D02*
X81754352Y-57054766D01*
X81754352Y-57054766D02*
X81897209Y-57054766D01*
X81897209Y-57054766D02*
X82087685Y-57102385D01*
X82087685Y-57102385D02*
X82182923Y-57150004D01*
X82182923Y-57150004D02*
X82278161Y-57245242D01*
X82278161Y-57245242D02*
X82325780Y-57388099D01*
X82325780Y-57388099D02*
X82325780Y-57626194D01*
X81325780Y-56721432D02*
X81325780Y-56102385D01*
X81325780Y-56102385D02*
X81706733Y-56435718D01*
X81706733Y-56435718D02*
X81706733Y-56292861D01*
X81706733Y-56292861D02*
X81754352Y-56197623D01*
X81754352Y-56197623D02*
X81801971Y-56150004D01*
X81801971Y-56150004D02*
X81897209Y-56102385D01*
X81897209Y-56102385D02*
X82135304Y-56102385D01*
X82135304Y-56102385D02*
X82230542Y-56150004D01*
X82230542Y-56150004D02*
X82278161Y-56197623D01*
X82278161Y-56197623D02*
X82325780Y-56292861D01*
X82325780Y-56292861D02*
X82325780Y-56578575D01*
X82325780Y-56578575D02*
X82278161Y-56673813D01*
X82278161Y-56673813D02*
X82230542Y-56721432D01*
%TO.C,C20*%
X68807942Y-84078142D02*
X68760323Y-84125761D01*
X68760323Y-84125761D02*
X68617466Y-84173380D01*
X68617466Y-84173380D02*
X68522228Y-84173380D01*
X68522228Y-84173380D02*
X68379371Y-84125761D01*
X68379371Y-84125761D02*
X68284133Y-84030523D01*
X68284133Y-84030523D02*
X68236514Y-83935285D01*
X68236514Y-83935285D02*
X68188895Y-83744809D01*
X68188895Y-83744809D02*
X68188895Y-83601952D01*
X68188895Y-83601952D02*
X68236514Y-83411476D01*
X68236514Y-83411476D02*
X68284133Y-83316238D01*
X68284133Y-83316238D02*
X68379371Y-83221000D01*
X68379371Y-83221000D02*
X68522228Y-83173380D01*
X68522228Y-83173380D02*
X68617466Y-83173380D01*
X68617466Y-83173380D02*
X68760323Y-83221000D01*
X68760323Y-83221000D02*
X68807942Y-83268619D01*
X69188895Y-83268619D02*
X69236514Y-83221000D01*
X69236514Y-83221000D02*
X69331752Y-83173380D01*
X69331752Y-83173380D02*
X69569847Y-83173380D01*
X69569847Y-83173380D02*
X69665085Y-83221000D01*
X69665085Y-83221000D02*
X69712704Y-83268619D01*
X69712704Y-83268619D02*
X69760323Y-83363857D01*
X69760323Y-83363857D02*
X69760323Y-83459095D01*
X69760323Y-83459095D02*
X69712704Y-83601952D01*
X69712704Y-83601952D02*
X69141276Y-84173380D01*
X69141276Y-84173380D02*
X69760323Y-84173380D01*
X70379371Y-83173380D02*
X70474609Y-83173380D01*
X70474609Y-83173380D02*
X70569847Y-83221000D01*
X70569847Y-83221000D02*
X70617466Y-83268619D01*
X70617466Y-83268619D02*
X70665085Y-83363857D01*
X70665085Y-83363857D02*
X70712704Y-83554333D01*
X70712704Y-83554333D02*
X70712704Y-83792428D01*
X70712704Y-83792428D02*
X70665085Y-83982904D01*
X70665085Y-83982904D02*
X70617466Y-84078142D01*
X70617466Y-84078142D02*
X70569847Y-84125761D01*
X70569847Y-84125761D02*
X70474609Y-84173380D01*
X70474609Y-84173380D02*
X70379371Y-84173380D01*
X70379371Y-84173380D02*
X70284133Y-84125761D01*
X70284133Y-84125761D02*
X70236514Y-84078142D01*
X70236514Y-84078142D02*
X70188895Y-83982904D01*
X70188895Y-83982904D02*
X70141276Y-83792428D01*
X70141276Y-83792428D02*
X70141276Y-83554333D01*
X70141276Y-83554333D02*
X70188895Y-83363857D01*
X70188895Y-83363857D02*
X70236514Y-83268619D01*
X70236514Y-83268619D02*
X70284133Y-83221000D01*
X70284133Y-83221000D02*
X70379371Y-83173380D01*
%TO.C,C35*%
X66794142Y-29355142D02*
X66746523Y-29402761D01*
X66746523Y-29402761D02*
X66603666Y-29450380D01*
X66603666Y-29450380D02*
X66508428Y-29450380D01*
X66508428Y-29450380D02*
X66365571Y-29402761D01*
X66365571Y-29402761D02*
X66270333Y-29307523D01*
X66270333Y-29307523D02*
X66222714Y-29212285D01*
X66222714Y-29212285D02*
X66175095Y-29021809D01*
X66175095Y-29021809D02*
X66175095Y-28878952D01*
X66175095Y-28878952D02*
X66222714Y-28688476D01*
X66222714Y-28688476D02*
X66270333Y-28593238D01*
X66270333Y-28593238D02*
X66365571Y-28498000D01*
X66365571Y-28498000D02*
X66508428Y-28450380D01*
X66508428Y-28450380D02*
X66603666Y-28450380D01*
X66603666Y-28450380D02*
X66746523Y-28498000D01*
X66746523Y-28498000D02*
X66794142Y-28545619D01*
X67127476Y-28450380D02*
X67746523Y-28450380D01*
X67746523Y-28450380D02*
X67413190Y-28831333D01*
X67413190Y-28831333D02*
X67556047Y-28831333D01*
X67556047Y-28831333D02*
X67651285Y-28878952D01*
X67651285Y-28878952D02*
X67698904Y-28926571D01*
X67698904Y-28926571D02*
X67746523Y-29021809D01*
X67746523Y-29021809D02*
X67746523Y-29259904D01*
X67746523Y-29259904D02*
X67698904Y-29355142D01*
X67698904Y-29355142D02*
X67651285Y-29402761D01*
X67651285Y-29402761D02*
X67556047Y-29450380D01*
X67556047Y-29450380D02*
X67270333Y-29450380D01*
X67270333Y-29450380D02*
X67175095Y-29402761D01*
X67175095Y-29402761D02*
X67127476Y-29355142D01*
X68651285Y-28450380D02*
X68175095Y-28450380D01*
X68175095Y-28450380D02*
X68127476Y-28926571D01*
X68127476Y-28926571D02*
X68175095Y-28878952D01*
X68175095Y-28878952D02*
X68270333Y-28831333D01*
X68270333Y-28831333D02*
X68508428Y-28831333D01*
X68508428Y-28831333D02*
X68603666Y-28878952D01*
X68603666Y-28878952D02*
X68651285Y-28926571D01*
X68651285Y-28926571D02*
X68698904Y-29021809D01*
X68698904Y-29021809D02*
X68698904Y-29259904D01*
X68698904Y-29259904D02*
X68651285Y-29355142D01*
X68651285Y-29355142D02*
X68603666Y-29402761D01*
X68603666Y-29402761D02*
X68508428Y-29450380D01*
X68508428Y-29450380D02*
X68270333Y-29450380D01*
X68270333Y-29450380D02*
X68175095Y-29402761D01*
X68175095Y-29402761D02*
X68127476Y-29355142D01*
%TO.C,C21*%
X62501542Y-87651742D02*
X62453923Y-87699361D01*
X62453923Y-87699361D02*
X62311066Y-87746980D01*
X62311066Y-87746980D02*
X62215828Y-87746980D01*
X62215828Y-87746980D02*
X62072971Y-87699361D01*
X62072971Y-87699361D02*
X61977733Y-87604123D01*
X61977733Y-87604123D02*
X61930114Y-87508885D01*
X61930114Y-87508885D02*
X61882495Y-87318409D01*
X61882495Y-87318409D02*
X61882495Y-87175552D01*
X61882495Y-87175552D02*
X61930114Y-86985076D01*
X61930114Y-86985076D02*
X61977733Y-86889838D01*
X61977733Y-86889838D02*
X62072971Y-86794600D01*
X62072971Y-86794600D02*
X62215828Y-86746980D01*
X62215828Y-86746980D02*
X62311066Y-86746980D01*
X62311066Y-86746980D02*
X62453923Y-86794600D01*
X62453923Y-86794600D02*
X62501542Y-86842219D01*
X62882495Y-86842219D02*
X62930114Y-86794600D01*
X62930114Y-86794600D02*
X63025352Y-86746980D01*
X63025352Y-86746980D02*
X63263447Y-86746980D01*
X63263447Y-86746980D02*
X63358685Y-86794600D01*
X63358685Y-86794600D02*
X63406304Y-86842219D01*
X63406304Y-86842219D02*
X63453923Y-86937457D01*
X63453923Y-86937457D02*
X63453923Y-87032695D01*
X63453923Y-87032695D02*
X63406304Y-87175552D01*
X63406304Y-87175552D02*
X62834876Y-87746980D01*
X62834876Y-87746980D02*
X63453923Y-87746980D01*
X64406304Y-87746980D02*
X63834876Y-87746980D01*
X64120590Y-87746980D02*
X64120590Y-86746980D01*
X64120590Y-86746980D02*
X64025352Y-86889838D01*
X64025352Y-86889838D02*
X63930114Y-86985076D01*
X63930114Y-86985076D02*
X63834876Y-87032695D01*
%TO.C,C29*%
X44061142Y-33419142D02*
X44013523Y-33466761D01*
X44013523Y-33466761D02*
X43870666Y-33514380D01*
X43870666Y-33514380D02*
X43775428Y-33514380D01*
X43775428Y-33514380D02*
X43632571Y-33466761D01*
X43632571Y-33466761D02*
X43537333Y-33371523D01*
X43537333Y-33371523D02*
X43489714Y-33276285D01*
X43489714Y-33276285D02*
X43442095Y-33085809D01*
X43442095Y-33085809D02*
X43442095Y-32942952D01*
X43442095Y-32942952D02*
X43489714Y-32752476D01*
X43489714Y-32752476D02*
X43537333Y-32657238D01*
X43537333Y-32657238D02*
X43632571Y-32562000D01*
X43632571Y-32562000D02*
X43775428Y-32514380D01*
X43775428Y-32514380D02*
X43870666Y-32514380D01*
X43870666Y-32514380D02*
X44013523Y-32562000D01*
X44013523Y-32562000D02*
X44061142Y-32609619D01*
X44442095Y-32609619D02*
X44489714Y-32562000D01*
X44489714Y-32562000D02*
X44584952Y-32514380D01*
X44584952Y-32514380D02*
X44823047Y-32514380D01*
X44823047Y-32514380D02*
X44918285Y-32562000D01*
X44918285Y-32562000D02*
X44965904Y-32609619D01*
X44965904Y-32609619D02*
X45013523Y-32704857D01*
X45013523Y-32704857D02*
X45013523Y-32800095D01*
X45013523Y-32800095D02*
X44965904Y-32942952D01*
X44965904Y-32942952D02*
X44394476Y-33514380D01*
X44394476Y-33514380D02*
X45013523Y-33514380D01*
X45489714Y-33514380D02*
X45680190Y-33514380D01*
X45680190Y-33514380D02*
X45775428Y-33466761D01*
X45775428Y-33466761D02*
X45823047Y-33419142D01*
X45823047Y-33419142D02*
X45918285Y-33276285D01*
X45918285Y-33276285D02*
X45965904Y-33085809D01*
X45965904Y-33085809D02*
X45965904Y-32704857D01*
X45965904Y-32704857D02*
X45918285Y-32609619D01*
X45918285Y-32609619D02*
X45870666Y-32562000D01*
X45870666Y-32562000D02*
X45775428Y-32514380D01*
X45775428Y-32514380D02*
X45584952Y-32514380D01*
X45584952Y-32514380D02*
X45489714Y-32562000D01*
X45489714Y-32562000D02*
X45442095Y-32609619D01*
X45442095Y-32609619D02*
X45394476Y-32704857D01*
X45394476Y-32704857D02*
X45394476Y-32942952D01*
X45394476Y-32942952D02*
X45442095Y-33038190D01*
X45442095Y-33038190D02*
X45489714Y-33085809D01*
X45489714Y-33085809D02*
X45584952Y-33133428D01*
X45584952Y-33133428D02*
X45775428Y-33133428D01*
X45775428Y-33133428D02*
X45870666Y-33085809D01*
X45870666Y-33085809D02*
X45918285Y-33038190D01*
X45918285Y-33038190D02*
X45965904Y-32942952D01*
%TO.C,BOOT1*%
X12663571Y-97006333D02*
X12711190Y-96863476D01*
X12711190Y-96863476D02*
X12758809Y-96815857D01*
X12758809Y-96815857D02*
X12854047Y-96768238D01*
X12854047Y-96768238D02*
X12996904Y-96768238D01*
X12996904Y-96768238D02*
X13092142Y-96815857D01*
X13092142Y-96815857D02*
X13139761Y-96863476D01*
X13139761Y-96863476D02*
X13187380Y-96958714D01*
X13187380Y-96958714D02*
X13187380Y-97339666D01*
X13187380Y-97339666D02*
X12187380Y-97339666D01*
X12187380Y-97339666D02*
X12187380Y-97006333D01*
X12187380Y-97006333D02*
X12235000Y-96911095D01*
X12235000Y-96911095D02*
X12282619Y-96863476D01*
X12282619Y-96863476D02*
X12377857Y-96815857D01*
X12377857Y-96815857D02*
X12473095Y-96815857D01*
X12473095Y-96815857D02*
X12568333Y-96863476D01*
X12568333Y-96863476D02*
X12615952Y-96911095D01*
X12615952Y-96911095D02*
X12663571Y-97006333D01*
X12663571Y-97006333D02*
X12663571Y-97339666D01*
X12187380Y-96149190D02*
X12187380Y-95958714D01*
X12187380Y-95958714D02*
X12235000Y-95863476D01*
X12235000Y-95863476D02*
X12330238Y-95768238D01*
X12330238Y-95768238D02*
X12520714Y-95720619D01*
X12520714Y-95720619D02*
X12854047Y-95720619D01*
X12854047Y-95720619D02*
X13044523Y-95768238D01*
X13044523Y-95768238D02*
X13139761Y-95863476D01*
X13139761Y-95863476D02*
X13187380Y-95958714D01*
X13187380Y-95958714D02*
X13187380Y-96149190D01*
X13187380Y-96149190D02*
X13139761Y-96244428D01*
X13139761Y-96244428D02*
X13044523Y-96339666D01*
X13044523Y-96339666D02*
X12854047Y-96387285D01*
X12854047Y-96387285D02*
X12520714Y-96387285D01*
X12520714Y-96387285D02*
X12330238Y-96339666D01*
X12330238Y-96339666D02*
X12235000Y-96244428D01*
X12235000Y-96244428D02*
X12187380Y-96149190D01*
X12187380Y-95101571D02*
X12187380Y-94911095D01*
X12187380Y-94911095D02*
X12235000Y-94815857D01*
X12235000Y-94815857D02*
X12330238Y-94720619D01*
X12330238Y-94720619D02*
X12520714Y-94673000D01*
X12520714Y-94673000D02*
X12854047Y-94673000D01*
X12854047Y-94673000D02*
X13044523Y-94720619D01*
X13044523Y-94720619D02*
X13139761Y-94815857D01*
X13139761Y-94815857D02*
X13187380Y-94911095D01*
X13187380Y-94911095D02*
X13187380Y-95101571D01*
X13187380Y-95101571D02*
X13139761Y-95196809D01*
X13139761Y-95196809D02*
X13044523Y-95292047D01*
X13044523Y-95292047D02*
X12854047Y-95339666D01*
X12854047Y-95339666D02*
X12520714Y-95339666D01*
X12520714Y-95339666D02*
X12330238Y-95292047D01*
X12330238Y-95292047D02*
X12235000Y-95196809D01*
X12235000Y-95196809D02*
X12187380Y-95101571D01*
X12187380Y-94387285D02*
X12187380Y-93815857D01*
X13187380Y-94101571D02*
X12187380Y-94101571D01*
X13187380Y-92958714D02*
X13187380Y-93530142D01*
X13187380Y-93244428D02*
X12187380Y-93244428D01*
X12187380Y-93244428D02*
X12330238Y-93339666D01*
X12330238Y-93339666D02*
X12425476Y-93434904D01*
X12425476Y-93434904D02*
X12473095Y-93530142D01*
X22036761Y-97852952D02*
X22084380Y-97710095D01*
X22084380Y-97710095D02*
X22084380Y-97472000D01*
X22084380Y-97472000D02*
X22036761Y-97376762D01*
X22036761Y-97376762D02*
X21989142Y-97329143D01*
X21989142Y-97329143D02*
X21893904Y-97281524D01*
X21893904Y-97281524D02*
X21798666Y-97281524D01*
X21798666Y-97281524D02*
X21703428Y-97329143D01*
X21703428Y-97329143D02*
X21655809Y-97376762D01*
X21655809Y-97376762D02*
X21608190Y-97472000D01*
X21608190Y-97472000D02*
X21560571Y-97662476D01*
X21560571Y-97662476D02*
X21512952Y-97757714D01*
X21512952Y-97757714D02*
X21465333Y-97805333D01*
X21465333Y-97805333D02*
X21370095Y-97852952D01*
X21370095Y-97852952D02*
X21274857Y-97852952D01*
X21274857Y-97852952D02*
X21179619Y-97805333D01*
X21179619Y-97805333D02*
X21132000Y-97757714D01*
X21132000Y-97757714D02*
X21084380Y-97662476D01*
X21084380Y-97662476D02*
X21084380Y-97424381D01*
X21084380Y-97424381D02*
X21132000Y-97281524D01*
X21084380Y-96948190D02*
X22084380Y-96710095D01*
X22084380Y-96710095D02*
X21370095Y-96519619D01*
X21370095Y-96519619D02*
X22084380Y-96329143D01*
X22084380Y-96329143D02*
X21084380Y-96091048D01*
X22179619Y-95948191D02*
X22179619Y-95186286D01*
X22084380Y-94948190D02*
X21084380Y-94948190D01*
X21084380Y-94948190D02*
X21084380Y-94710095D01*
X21084380Y-94710095D02*
X21132000Y-94567238D01*
X21132000Y-94567238D02*
X21227238Y-94472000D01*
X21227238Y-94472000D02*
X21322476Y-94424381D01*
X21322476Y-94424381D02*
X21512952Y-94376762D01*
X21512952Y-94376762D02*
X21655809Y-94376762D01*
X21655809Y-94376762D02*
X21846285Y-94424381D01*
X21846285Y-94424381D02*
X21941523Y-94472000D01*
X21941523Y-94472000D02*
X22036761Y-94567238D01*
X22036761Y-94567238D02*
X22084380Y-94710095D01*
X22084380Y-94710095D02*
X22084380Y-94948190D01*
X22084380Y-93948190D02*
X21084380Y-93948190D01*
X21084380Y-93948190D02*
X21084380Y-93567238D01*
X21084380Y-93567238D02*
X21132000Y-93472000D01*
X21132000Y-93472000D02*
X21179619Y-93424381D01*
X21179619Y-93424381D02*
X21274857Y-93376762D01*
X21274857Y-93376762D02*
X21417714Y-93376762D01*
X21417714Y-93376762D02*
X21512952Y-93424381D01*
X21512952Y-93424381D02*
X21560571Y-93472000D01*
X21560571Y-93472000D02*
X21608190Y-93567238D01*
X21608190Y-93567238D02*
X21608190Y-93948190D01*
X22084380Y-92948190D02*
X21084380Y-92948190D01*
X21084380Y-92948190D02*
X21084380Y-92710095D01*
X21084380Y-92710095D02*
X21132000Y-92567238D01*
X21132000Y-92567238D02*
X21227238Y-92472000D01*
X21227238Y-92472000D02*
X21322476Y-92424381D01*
X21322476Y-92424381D02*
X21512952Y-92376762D01*
X21512952Y-92376762D02*
X21655809Y-92376762D01*
X21655809Y-92376762D02*
X21846285Y-92424381D01*
X21846285Y-92424381D02*
X21941523Y-92472000D01*
X21941523Y-92472000D02*
X22036761Y-92567238D01*
X22036761Y-92567238D02*
X22084380Y-92710095D01*
X22084380Y-92710095D02*
X22084380Y-92948190D01*
X21084380Y-92091047D02*
X21084380Y-91519619D01*
X22084380Y-91805333D02*
X21084380Y-91805333D01*
X22179619Y-91424381D02*
X22179619Y-90662476D01*
X22084380Y-90519618D02*
X21417714Y-89995809D01*
X21417714Y-90519618D02*
X22084380Y-89995809D01*
X21179619Y-89662475D02*
X21132000Y-89614856D01*
X21132000Y-89614856D02*
X21084380Y-89519618D01*
X21084380Y-89519618D02*
X21084380Y-89281523D01*
X21084380Y-89281523D02*
X21132000Y-89186285D01*
X21132000Y-89186285D02*
X21179619Y-89138666D01*
X21179619Y-89138666D02*
X21274857Y-89091047D01*
X21274857Y-89091047D02*
X21370095Y-89091047D01*
X21370095Y-89091047D02*
X21512952Y-89138666D01*
X21512952Y-89138666D02*
X22084380Y-89710094D01*
X22084380Y-89710094D02*
X22084380Y-89091047D01*
%TO.C,C38*%
X27551142Y-93588142D02*
X27503523Y-93635761D01*
X27503523Y-93635761D02*
X27360666Y-93683380D01*
X27360666Y-93683380D02*
X27265428Y-93683380D01*
X27265428Y-93683380D02*
X27122571Y-93635761D01*
X27122571Y-93635761D02*
X27027333Y-93540523D01*
X27027333Y-93540523D02*
X26979714Y-93445285D01*
X26979714Y-93445285D02*
X26932095Y-93254809D01*
X26932095Y-93254809D02*
X26932095Y-93111952D01*
X26932095Y-93111952D02*
X26979714Y-92921476D01*
X26979714Y-92921476D02*
X27027333Y-92826238D01*
X27027333Y-92826238D02*
X27122571Y-92731000D01*
X27122571Y-92731000D02*
X27265428Y-92683380D01*
X27265428Y-92683380D02*
X27360666Y-92683380D01*
X27360666Y-92683380D02*
X27503523Y-92731000D01*
X27503523Y-92731000D02*
X27551142Y-92778619D01*
X27884476Y-92683380D02*
X28503523Y-92683380D01*
X28503523Y-92683380D02*
X28170190Y-93064333D01*
X28170190Y-93064333D02*
X28313047Y-93064333D01*
X28313047Y-93064333D02*
X28408285Y-93111952D01*
X28408285Y-93111952D02*
X28455904Y-93159571D01*
X28455904Y-93159571D02*
X28503523Y-93254809D01*
X28503523Y-93254809D02*
X28503523Y-93492904D01*
X28503523Y-93492904D02*
X28455904Y-93588142D01*
X28455904Y-93588142D02*
X28408285Y-93635761D01*
X28408285Y-93635761D02*
X28313047Y-93683380D01*
X28313047Y-93683380D02*
X28027333Y-93683380D01*
X28027333Y-93683380D02*
X27932095Y-93635761D01*
X27932095Y-93635761D02*
X27884476Y-93588142D01*
X29074952Y-93111952D02*
X28979714Y-93064333D01*
X28979714Y-93064333D02*
X28932095Y-93016714D01*
X28932095Y-93016714D02*
X28884476Y-92921476D01*
X28884476Y-92921476D02*
X28884476Y-92873857D01*
X28884476Y-92873857D02*
X28932095Y-92778619D01*
X28932095Y-92778619D02*
X28979714Y-92731000D01*
X28979714Y-92731000D02*
X29074952Y-92683380D01*
X29074952Y-92683380D02*
X29265428Y-92683380D01*
X29265428Y-92683380D02*
X29360666Y-92731000D01*
X29360666Y-92731000D02*
X29408285Y-92778619D01*
X29408285Y-92778619D02*
X29455904Y-92873857D01*
X29455904Y-92873857D02*
X29455904Y-92921476D01*
X29455904Y-92921476D02*
X29408285Y-93016714D01*
X29408285Y-93016714D02*
X29360666Y-93064333D01*
X29360666Y-93064333D02*
X29265428Y-93111952D01*
X29265428Y-93111952D02*
X29074952Y-93111952D01*
X29074952Y-93111952D02*
X28979714Y-93159571D01*
X28979714Y-93159571D02*
X28932095Y-93207190D01*
X28932095Y-93207190D02*
X28884476Y-93302428D01*
X28884476Y-93302428D02*
X28884476Y-93492904D01*
X28884476Y-93492904D02*
X28932095Y-93588142D01*
X28932095Y-93588142D02*
X28979714Y-93635761D01*
X28979714Y-93635761D02*
X29074952Y-93683380D01*
X29074952Y-93683380D02*
X29265428Y-93683380D01*
X29265428Y-93683380D02*
X29360666Y-93635761D01*
X29360666Y-93635761D02*
X29408285Y-93588142D01*
X29408285Y-93588142D02*
X29455904Y-93492904D01*
X29455904Y-93492904D02*
X29455904Y-93302428D01*
X29455904Y-93302428D02*
X29408285Y-93207190D01*
X29408285Y-93207190D02*
X29360666Y-93159571D01*
X29360666Y-93159571D02*
X29265428Y-93111952D01*
%TO.C,J1*%
X42237380Y-36733333D02*
X42951666Y-36733333D01*
X42951666Y-36733333D02*
X43094523Y-36780952D01*
X43094523Y-36780952D02*
X43189761Y-36876190D01*
X43189761Y-36876190D02*
X43237380Y-37019047D01*
X43237380Y-37019047D02*
X43237380Y-37114285D01*
X43237380Y-35733333D02*
X43237380Y-36304761D01*
X43237380Y-36019047D02*
X42237380Y-36019047D01*
X42237380Y-36019047D02*
X42380238Y-36114285D01*
X42380238Y-36114285D02*
X42475476Y-36209523D01*
X42475476Y-36209523D02*
X42523095Y-36304761D01*
%TO.C,C28*%
X37157142Y-20072142D02*
X37109523Y-20119761D01*
X37109523Y-20119761D02*
X36966666Y-20167380D01*
X36966666Y-20167380D02*
X36871428Y-20167380D01*
X36871428Y-20167380D02*
X36728571Y-20119761D01*
X36728571Y-20119761D02*
X36633333Y-20024523D01*
X36633333Y-20024523D02*
X36585714Y-19929285D01*
X36585714Y-19929285D02*
X36538095Y-19738809D01*
X36538095Y-19738809D02*
X36538095Y-19595952D01*
X36538095Y-19595952D02*
X36585714Y-19405476D01*
X36585714Y-19405476D02*
X36633333Y-19310238D01*
X36633333Y-19310238D02*
X36728571Y-19215000D01*
X36728571Y-19215000D02*
X36871428Y-19167380D01*
X36871428Y-19167380D02*
X36966666Y-19167380D01*
X36966666Y-19167380D02*
X37109523Y-19215000D01*
X37109523Y-19215000D02*
X37157142Y-19262619D01*
X37538095Y-19262619D02*
X37585714Y-19215000D01*
X37585714Y-19215000D02*
X37680952Y-19167380D01*
X37680952Y-19167380D02*
X37919047Y-19167380D01*
X37919047Y-19167380D02*
X38014285Y-19215000D01*
X38014285Y-19215000D02*
X38061904Y-19262619D01*
X38061904Y-19262619D02*
X38109523Y-19357857D01*
X38109523Y-19357857D02*
X38109523Y-19453095D01*
X38109523Y-19453095D02*
X38061904Y-19595952D01*
X38061904Y-19595952D02*
X37490476Y-20167380D01*
X37490476Y-20167380D02*
X38109523Y-20167380D01*
X38680952Y-19595952D02*
X38585714Y-19548333D01*
X38585714Y-19548333D02*
X38538095Y-19500714D01*
X38538095Y-19500714D02*
X38490476Y-19405476D01*
X38490476Y-19405476D02*
X38490476Y-19357857D01*
X38490476Y-19357857D02*
X38538095Y-19262619D01*
X38538095Y-19262619D02*
X38585714Y-19215000D01*
X38585714Y-19215000D02*
X38680952Y-19167380D01*
X38680952Y-19167380D02*
X38871428Y-19167380D01*
X38871428Y-19167380D02*
X38966666Y-19215000D01*
X38966666Y-19215000D02*
X39014285Y-19262619D01*
X39014285Y-19262619D02*
X39061904Y-19357857D01*
X39061904Y-19357857D02*
X39061904Y-19405476D01*
X39061904Y-19405476D02*
X39014285Y-19500714D01*
X39014285Y-19500714D02*
X38966666Y-19548333D01*
X38966666Y-19548333D02*
X38871428Y-19595952D01*
X38871428Y-19595952D02*
X38680952Y-19595952D01*
X38680952Y-19595952D02*
X38585714Y-19643571D01*
X38585714Y-19643571D02*
X38538095Y-19691190D01*
X38538095Y-19691190D02*
X38490476Y-19786428D01*
X38490476Y-19786428D02*
X38490476Y-19976904D01*
X38490476Y-19976904D02*
X38538095Y-20072142D01*
X38538095Y-20072142D02*
X38585714Y-20119761D01*
X38585714Y-20119761D02*
X38680952Y-20167380D01*
X38680952Y-20167380D02*
X38871428Y-20167380D01*
X38871428Y-20167380D02*
X38966666Y-20119761D01*
X38966666Y-20119761D02*
X39014285Y-20072142D01*
X39014285Y-20072142D02*
X39061904Y-19976904D01*
X39061904Y-19976904D02*
X39061904Y-19786428D01*
X39061904Y-19786428D02*
X39014285Y-19691190D01*
X39014285Y-19691190D02*
X38966666Y-19643571D01*
X38966666Y-19643571D02*
X38871428Y-19595952D01*
%TO.C,C39*%
X27891542Y-73529342D02*
X27843923Y-73576961D01*
X27843923Y-73576961D02*
X27701066Y-73624580D01*
X27701066Y-73624580D02*
X27605828Y-73624580D01*
X27605828Y-73624580D02*
X27462971Y-73576961D01*
X27462971Y-73576961D02*
X27367733Y-73481723D01*
X27367733Y-73481723D02*
X27320114Y-73386485D01*
X27320114Y-73386485D02*
X27272495Y-73196009D01*
X27272495Y-73196009D02*
X27272495Y-73053152D01*
X27272495Y-73053152D02*
X27320114Y-72862676D01*
X27320114Y-72862676D02*
X27367733Y-72767438D01*
X27367733Y-72767438D02*
X27462971Y-72672200D01*
X27462971Y-72672200D02*
X27605828Y-72624580D01*
X27605828Y-72624580D02*
X27701066Y-72624580D01*
X27701066Y-72624580D02*
X27843923Y-72672200D01*
X27843923Y-72672200D02*
X27891542Y-72719819D01*
X28224876Y-72624580D02*
X28843923Y-72624580D01*
X28843923Y-72624580D02*
X28510590Y-73005533D01*
X28510590Y-73005533D02*
X28653447Y-73005533D01*
X28653447Y-73005533D02*
X28748685Y-73053152D01*
X28748685Y-73053152D02*
X28796304Y-73100771D01*
X28796304Y-73100771D02*
X28843923Y-73196009D01*
X28843923Y-73196009D02*
X28843923Y-73434104D01*
X28843923Y-73434104D02*
X28796304Y-73529342D01*
X28796304Y-73529342D02*
X28748685Y-73576961D01*
X28748685Y-73576961D02*
X28653447Y-73624580D01*
X28653447Y-73624580D02*
X28367733Y-73624580D01*
X28367733Y-73624580D02*
X28272495Y-73576961D01*
X28272495Y-73576961D02*
X28224876Y-73529342D01*
X29320114Y-73624580D02*
X29510590Y-73624580D01*
X29510590Y-73624580D02*
X29605828Y-73576961D01*
X29605828Y-73576961D02*
X29653447Y-73529342D01*
X29653447Y-73529342D02*
X29748685Y-73386485D01*
X29748685Y-73386485D02*
X29796304Y-73196009D01*
X29796304Y-73196009D02*
X29796304Y-72815057D01*
X29796304Y-72815057D02*
X29748685Y-72719819D01*
X29748685Y-72719819D02*
X29701066Y-72672200D01*
X29701066Y-72672200D02*
X29605828Y-72624580D01*
X29605828Y-72624580D02*
X29415352Y-72624580D01*
X29415352Y-72624580D02*
X29320114Y-72672200D01*
X29320114Y-72672200D02*
X29272495Y-72719819D01*
X29272495Y-72719819D02*
X29224876Y-72815057D01*
X29224876Y-72815057D02*
X29224876Y-73053152D01*
X29224876Y-73053152D02*
X29272495Y-73148390D01*
X29272495Y-73148390D02*
X29320114Y-73196009D01*
X29320114Y-73196009D02*
X29415352Y-73243628D01*
X29415352Y-73243628D02*
X29605828Y-73243628D01*
X29605828Y-73243628D02*
X29701066Y-73196009D01*
X29701066Y-73196009D02*
X29748685Y-73148390D01*
X29748685Y-73148390D02*
X29796304Y-73053152D01*
%TO.C,R4*%
X23480133Y-89258580D02*
X23146800Y-88782390D01*
X22908705Y-89258580D02*
X22908705Y-88258580D01*
X22908705Y-88258580D02*
X23289657Y-88258580D01*
X23289657Y-88258580D02*
X23384895Y-88306200D01*
X23384895Y-88306200D02*
X23432514Y-88353819D01*
X23432514Y-88353819D02*
X23480133Y-88449057D01*
X23480133Y-88449057D02*
X23480133Y-88591914D01*
X23480133Y-88591914D02*
X23432514Y-88687152D01*
X23432514Y-88687152D02*
X23384895Y-88734771D01*
X23384895Y-88734771D02*
X23289657Y-88782390D01*
X23289657Y-88782390D02*
X22908705Y-88782390D01*
X24337276Y-88591914D02*
X24337276Y-89258580D01*
X24099181Y-88210961D02*
X23861086Y-88925247D01*
X23861086Y-88925247D02*
X24480133Y-88925247D01*
%TO.C,C4*%
X64984333Y-15512142D02*
X64936714Y-15559761D01*
X64936714Y-15559761D02*
X64793857Y-15607380D01*
X64793857Y-15607380D02*
X64698619Y-15607380D01*
X64698619Y-15607380D02*
X64555762Y-15559761D01*
X64555762Y-15559761D02*
X64460524Y-15464523D01*
X64460524Y-15464523D02*
X64412905Y-15369285D01*
X64412905Y-15369285D02*
X64365286Y-15178809D01*
X64365286Y-15178809D02*
X64365286Y-15035952D01*
X64365286Y-15035952D02*
X64412905Y-14845476D01*
X64412905Y-14845476D02*
X64460524Y-14750238D01*
X64460524Y-14750238D02*
X64555762Y-14655000D01*
X64555762Y-14655000D02*
X64698619Y-14607380D01*
X64698619Y-14607380D02*
X64793857Y-14607380D01*
X64793857Y-14607380D02*
X64936714Y-14655000D01*
X64936714Y-14655000D02*
X64984333Y-14702619D01*
X65841476Y-14940714D02*
X65841476Y-15607380D01*
X65603381Y-14559761D02*
X65365286Y-15274047D01*
X65365286Y-15274047D02*
X65984333Y-15274047D01*
%TO.C,SW3*%
X26785667Y-97415761D02*
X26928524Y-97463380D01*
X26928524Y-97463380D02*
X27166619Y-97463380D01*
X27166619Y-97463380D02*
X27261857Y-97415761D01*
X27261857Y-97415761D02*
X27309476Y-97368142D01*
X27309476Y-97368142D02*
X27357095Y-97272904D01*
X27357095Y-97272904D02*
X27357095Y-97177666D01*
X27357095Y-97177666D02*
X27309476Y-97082428D01*
X27309476Y-97082428D02*
X27261857Y-97034809D01*
X27261857Y-97034809D02*
X27166619Y-96987190D01*
X27166619Y-96987190D02*
X26976143Y-96939571D01*
X26976143Y-96939571D02*
X26880905Y-96891952D01*
X26880905Y-96891952D02*
X26833286Y-96844333D01*
X26833286Y-96844333D02*
X26785667Y-96749095D01*
X26785667Y-96749095D02*
X26785667Y-96653857D01*
X26785667Y-96653857D02*
X26833286Y-96558619D01*
X26833286Y-96558619D02*
X26880905Y-96511000D01*
X26880905Y-96511000D02*
X26976143Y-96463380D01*
X26976143Y-96463380D02*
X27214238Y-96463380D01*
X27214238Y-96463380D02*
X27357095Y-96511000D01*
X27690429Y-96463380D02*
X27928524Y-97463380D01*
X27928524Y-97463380D02*
X28119000Y-96749095D01*
X28119000Y-96749095D02*
X28309476Y-97463380D01*
X28309476Y-97463380D02*
X28547572Y-96463380D01*
X28833286Y-96463380D02*
X29452333Y-96463380D01*
X29452333Y-96463380D02*
X29119000Y-96844333D01*
X29119000Y-96844333D02*
X29261857Y-96844333D01*
X29261857Y-96844333D02*
X29357095Y-96891952D01*
X29357095Y-96891952D02*
X29404714Y-96939571D01*
X29404714Y-96939571D02*
X29452333Y-97034809D01*
X29452333Y-97034809D02*
X29452333Y-97272904D01*
X29452333Y-97272904D02*
X29404714Y-97368142D01*
X29404714Y-97368142D02*
X29357095Y-97415761D01*
X29357095Y-97415761D02*
X29261857Y-97463380D01*
X29261857Y-97463380D02*
X28976143Y-97463380D01*
X28976143Y-97463380D02*
X28880905Y-97415761D01*
X28880905Y-97415761D02*
X28833286Y-97368142D01*
%TO.C,J7*%
X36915380Y-103330333D02*
X37629666Y-103330333D01*
X37629666Y-103330333D02*
X37772523Y-103377952D01*
X37772523Y-103377952D02*
X37867761Y-103473190D01*
X37867761Y-103473190D02*
X37915380Y-103616047D01*
X37915380Y-103616047D02*
X37915380Y-103711285D01*
X36915380Y-102949380D02*
X36915380Y-102282714D01*
X36915380Y-102282714D02*
X37915380Y-102711285D01*
%TO.C,C31*%
X19611142Y-31797142D02*
X19563523Y-31844761D01*
X19563523Y-31844761D02*
X19420666Y-31892380D01*
X19420666Y-31892380D02*
X19325428Y-31892380D01*
X19325428Y-31892380D02*
X19182571Y-31844761D01*
X19182571Y-31844761D02*
X19087333Y-31749523D01*
X19087333Y-31749523D02*
X19039714Y-31654285D01*
X19039714Y-31654285D02*
X18992095Y-31463809D01*
X18992095Y-31463809D02*
X18992095Y-31320952D01*
X18992095Y-31320952D02*
X19039714Y-31130476D01*
X19039714Y-31130476D02*
X19087333Y-31035238D01*
X19087333Y-31035238D02*
X19182571Y-30940000D01*
X19182571Y-30940000D02*
X19325428Y-30892380D01*
X19325428Y-30892380D02*
X19420666Y-30892380D01*
X19420666Y-30892380D02*
X19563523Y-30940000D01*
X19563523Y-30940000D02*
X19611142Y-30987619D01*
X19944476Y-30892380D02*
X20563523Y-30892380D01*
X20563523Y-30892380D02*
X20230190Y-31273333D01*
X20230190Y-31273333D02*
X20373047Y-31273333D01*
X20373047Y-31273333D02*
X20468285Y-31320952D01*
X20468285Y-31320952D02*
X20515904Y-31368571D01*
X20515904Y-31368571D02*
X20563523Y-31463809D01*
X20563523Y-31463809D02*
X20563523Y-31701904D01*
X20563523Y-31701904D02*
X20515904Y-31797142D01*
X20515904Y-31797142D02*
X20468285Y-31844761D01*
X20468285Y-31844761D02*
X20373047Y-31892380D01*
X20373047Y-31892380D02*
X20087333Y-31892380D01*
X20087333Y-31892380D02*
X19992095Y-31844761D01*
X19992095Y-31844761D02*
X19944476Y-31797142D01*
X21515904Y-31892380D02*
X20944476Y-31892380D01*
X21230190Y-31892380D02*
X21230190Y-30892380D01*
X21230190Y-30892380D02*
X21134952Y-31035238D01*
X21134952Y-31035238D02*
X21039714Y-31130476D01*
X21039714Y-31130476D02*
X20944476Y-31178095D01*
%TO.C,C27*%
X40632142Y-32403142D02*
X40584523Y-32450761D01*
X40584523Y-32450761D02*
X40441666Y-32498380D01*
X40441666Y-32498380D02*
X40346428Y-32498380D01*
X40346428Y-32498380D02*
X40203571Y-32450761D01*
X40203571Y-32450761D02*
X40108333Y-32355523D01*
X40108333Y-32355523D02*
X40060714Y-32260285D01*
X40060714Y-32260285D02*
X40013095Y-32069809D01*
X40013095Y-32069809D02*
X40013095Y-31926952D01*
X40013095Y-31926952D02*
X40060714Y-31736476D01*
X40060714Y-31736476D02*
X40108333Y-31641238D01*
X40108333Y-31641238D02*
X40203571Y-31546000D01*
X40203571Y-31546000D02*
X40346428Y-31498380D01*
X40346428Y-31498380D02*
X40441666Y-31498380D01*
X40441666Y-31498380D02*
X40584523Y-31546000D01*
X40584523Y-31546000D02*
X40632142Y-31593619D01*
X41013095Y-31593619D02*
X41060714Y-31546000D01*
X41060714Y-31546000D02*
X41155952Y-31498380D01*
X41155952Y-31498380D02*
X41394047Y-31498380D01*
X41394047Y-31498380D02*
X41489285Y-31546000D01*
X41489285Y-31546000D02*
X41536904Y-31593619D01*
X41536904Y-31593619D02*
X41584523Y-31688857D01*
X41584523Y-31688857D02*
X41584523Y-31784095D01*
X41584523Y-31784095D02*
X41536904Y-31926952D01*
X41536904Y-31926952D02*
X40965476Y-32498380D01*
X40965476Y-32498380D02*
X41584523Y-32498380D01*
X41917857Y-31498380D02*
X42584523Y-31498380D01*
X42584523Y-31498380D02*
X42155952Y-32498380D01*
%TO.C,U5*%
X84333095Y-50131580D02*
X84333095Y-50941104D01*
X84333095Y-50941104D02*
X84380714Y-51036342D01*
X84380714Y-51036342D02*
X84428333Y-51083961D01*
X84428333Y-51083961D02*
X84523571Y-51131580D01*
X84523571Y-51131580D02*
X84714047Y-51131580D01*
X84714047Y-51131580D02*
X84809285Y-51083961D01*
X84809285Y-51083961D02*
X84856904Y-51036342D01*
X84856904Y-51036342D02*
X84904523Y-50941104D01*
X84904523Y-50941104D02*
X84904523Y-50131580D01*
X85856904Y-50131580D02*
X85380714Y-50131580D01*
X85380714Y-50131580D02*
X85333095Y-50607771D01*
X85333095Y-50607771D02*
X85380714Y-50560152D01*
X85380714Y-50560152D02*
X85475952Y-50512533D01*
X85475952Y-50512533D02*
X85714047Y-50512533D01*
X85714047Y-50512533D02*
X85809285Y-50560152D01*
X85809285Y-50560152D02*
X85856904Y-50607771D01*
X85856904Y-50607771D02*
X85904523Y-50703009D01*
X85904523Y-50703009D02*
X85904523Y-50941104D01*
X85904523Y-50941104D02*
X85856904Y-51036342D01*
X85856904Y-51036342D02*
X85809285Y-51083961D01*
X85809285Y-51083961D02*
X85714047Y-51131580D01*
X85714047Y-51131580D02*
X85475952Y-51131580D01*
X85475952Y-51131580D02*
X85380714Y-51083961D01*
X85380714Y-51083961D02*
X85333095Y-51036342D01*
%TO.C,POW1*%
X13666667Y-24217380D02*
X13666667Y-23217380D01*
X13666667Y-23217380D02*
X14047619Y-23217380D01*
X14047619Y-23217380D02*
X14142857Y-23265000D01*
X14142857Y-23265000D02*
X14190476Y-23312619D01*
X14190476Y-23312619D02*
X14238095Y-23407857D01*
X14238095Y-23407857D02*
X14238095Y-23550714D01*
X14238095Y-23550714D02*
X14190476Y-23645952D01*
X14190476Y-23645952D02*
X14142857Y-23693571D01*
X14142857Y-23693571D02*
X14047619Y-23741190D01*
X14047619Y-23741190D02*
X13666667Y-23741190D01*
X14857143Y-23217380D02*
X15047619Y-23217380D01*
X15047619Y-23217380D02*
X15142857Y-23265000D01*
X15142857Y-23265000D02*
X15238095Y-23360238D01*
X15238095Y-23360238D02*
X15285714Y-23550714D01*
X15285714Y-23550714D02*
X15285714Y-23884047D01*
X15285714Y-23884047D02*
X15238095Y-24074523D01*
X15238095Y-24074523D02*
X15142857Y-24169761D01*
X15142857Y-24169761D02*
X15047619Y-24217380D01*
X15047619Y-24217380D02*
X14857143Y-24217380D01*
X14857143Y-24217380D02*
X14761905Y-24169761D01*
X14761905Y-24169761D02*
X14666667Y-24074523D01*
X14666667Y-24074523D02*
X14619048Y-23884047D01*
X14619048Y-23884047D02*
X14619048Y-23550714D01*
X14619048Y-23550714D02*
X14666667Y-23360238D01*
X14666667Y-23360238D02*
X14761905Y-23265000D01*
X14761905Y-23265000D02*
X14857143Y-23217380D01*
X15619048Y-23217380D02*
X15857143Y-24217380D01*
X15857143Y-24217380D02*
X16047619Y-23503095D01*
X16047619Y-23503095D02*
X16238095Y-24217380D01*
X16238095Y-24217380D02*
X16476191Y-23217380D01*
X17380952Y-24217380D02*
X16809524Y-24217380D01*
X17095238Y-24217380D02*
X17095238Y-23217380D01*
X17095238Y-23217380D02*
X17000000Y-23360238D01*
X17000000Y-23360238D02*
X16904762Y-23455476D01*
X16904762Y-23455476D02*
X16809524Y-23503095D01*
%TO.C,C42*%
X42486342Y-97554142D02*
X42438723Y-97601761D01*
X42438723Y-97601761D02*
X42295866Y-97649380D01*
X42295866Y-97649380D02*
X42200628Y-97649380D01*
X42200628Y-97649380D02*
X42057771Y-97601761D01*
X42057771Y-97601761D02*
X41962533Y-97506523D01*
X41962533Y-97506523D02*
X41914914Y-97411285D01*
X41914914Y-97411285D02*
X41867295Y-97220809D01*
X41867295Y-97220809D02*
X41867295Y-97077952D01*
X41867295Y-97077952D02*
X41914914Y-96887476D01*
X41914914Y-96887476D02*
X41962533Y-96792238D01*
X41962533Y-96792238D02*
X42057771Y-96697000D01*
X42057771Y-96697000D02*
X42200628Y-96649380D01*
X42200628Y-96649380D02*
X42295866Y-96649380D01*
X42295866Y-96649380D02*
X42438723Y-96697000D01*
X42438723Y-96697000D02*
X42486342Y-96744619D01*
X43343485Y-96982714D02*
X43343485Y-97649380D01*
X43105390Y-96601761D02*
X42867295Y-97316047D01*
X42867295Y-97316047D02*
X43486342Y-97316047D01*
X43819676Y-96744619D02*
X43867295Y-96697000D01*
X43867295Y-96697000D02*
X43962533Y-96649380D01*
X43962533Y-96649380D02*
X44200628Y-96649380D01*
X44200628Y-96649380D02*
X44295866Y-96697000D01*
X44295866Y-96697000D02*
X44343485Y-96744619D01*
X44343485Y-96744619D02*
X44391104Y-96839857D01*
X44391104Y-96839857D02*
X44391104Y-96935095D01*
X44391104Y-96935095D02*
X44343485Y-97077952D01*
X44343485Y-97077952D02*
X43772057Y-97649380D01*
X43772057Y-97649380D02*
X44391104Y-97649380D01*
%TO.C,POW3*%
X105107380Y-56233332D02*
X104107380Y-56233332D01*
X104107380Y-56233332D02*
X104107380Y-55852380D01*
X104107380Y-55852380D02*
X104155000Y-55757142D01*
X104155000Y-55757142D02*
X104202619Y-55709523D01*
X104202619Y-55709523D02*
X104297857Y-55661904D01*
X104297857Y-55661904D02*
X104440714Y-55661904D01*
X104440714Y-55661904D02*
X104535952Y-55709523D01*
X104535952Y-55709523D02*
X104583571Y-55757142D01*
X104583571Y-55757142D02*
X104631190Y-55852380D01*
X104631190Y-55852380D02*
X104631190Y-56233332D01*
X104107380Y-55042856D02*
X104107380Y-54852380D01*
X104107380Y-54852380D02*
X104155000Y-54757142D01*
X104155000Y-54757142D02*
X104250238Y-54661904D01*
X104250238Y-54661904D02*
X104440714Y-54614285D01*
X104440714Y-54614285D02*
X104774047Y-54614285D01*
X104774047Y-54614285D02*
X104964523Y-54661904D01*
X104964523Y-54661904D02*
X105059761Y-54757142D01*
X105059761Y-54757142D02*
X105107380Y-54852380D01*
X105107380Y-54852380D02*
X105107380Y-55042856D01*
X105107380Y-55042856D02*
X105059761Y-55138094D01*
X105059761Y-55138094D02*
X104964523Y-55233332D01*
X104964523Y-55233332D02*
X104774047Y-55280951D01*
X104774047Y-55280951D02*
X104440714Y-55280951D01*
X104440714Y-55280951D02*
X104250238Y-55233332D01*
X104250238Y-55233332D02*
X104155000Y-55138094D01*
X104155000Y-55138094D02*
X104107380Y-55042856D01*
X104107380Y-54280951D02*
X105107380Y-54042856D01*
X105107380Y-54042856D02*
X104393095Y-53852380D01*
X104393095Y-53852380D02*
X105107380Y-53661904D01*
X105107380Y-53661904D02*
X104107380Y-53423809D01*
X104107380Y-53138094D02*
X104107380Y-52519047D01*
X104107380Y-52519047D02*
X104488333Y-52852380D01*
X104488333Y-52852380D02*
X104488333Y-52709523D01*
X104488333Y-52709523D02*
X104535952Y-52614285D01*
X104535952Y-52614285D02*
X104583571Y-52566666D01*
X104583571Y-52566666D02*
X104678809Y-52519047D01*
X104678809Y-52519047D02*
X104916904Y-52519047D01*
X104916904Y-52519047D02*
X105012142Y-52566666D01*
X105012142Y-52566666D02*
X105059761Y-52614285D01*
X105059761Y-52614285D02*
X105107380Y-52709523D01*
X105107380Y-52709523D02*
X105107380Y-52995237D01*
X105107380Y-52995237D02*
X105059761Y-53090475D01*
X105059761Y-53090475D02*
X105012142Y-53138094D01*
%TO.C,R1*%
X33742333Y-30254380D02*
X33409000Y-29778190D01*
X33170905Y-30254380D02*
X33170905Y-29254380D01*
X33170905Y-29254380D02*
X33551857Y-29254380D01*
X33551857Y-29254380D02*
X33647095Y-29302000D01*
X33647095Y-29302000D02*
X33694714Y-29349619D01*
X33694714Y-29349619D02*
X33742333Y-29444857D01*
X33742333Y-29444857D02*
X33742333Y-29587714D01*
X33742333Y-29587714D02*
X33694714Y-29682952D01*
X33694714Y-29682952D02*
X33647095Y-29730571D01*
X33647095Y-29730571D02*
X33551857Y-29778190D01*
X33551857Y-29778190D02*
X33170905Y-29778190D01*
X34694714Y-30254380D02*
X34123286Y-30254380D01*
X34409000Y-30254380D02*
X34409000Y-29254380D01*
X34409000Y-29254380D02*
X34313762Y-29397238D01*
X34313762Y-29397238D02*
X34218524Y-29492476D01*
X34218524Y-29492476D02*
X34123286Y-29540095D01*
%TO.C,H1*%
X11638095Y-38767380D02*
X11638095Y-37767380D01*
X11638095Y-38243571D02*
X12209523Y-38243571D01*
X12209523Y-38767380D02*
X12209523Y-37767380D01*
X13209523Y-38767380D02*
X12638095Y-38767380D01*
X12923809Y-38767380D02*
X12923809Y-37767380D01*
X12923809Y-37767380D02*
X12828571Y-37910238D01*
X12828571Y-37910238D02*
X12733333Y-38005476D01*
X12733333Y-38005476D02*
X12638095Y-38053095D01*
%TO.C,C34*%
X22598142Y-19478142D02*
X22550523Y-19525761D01*
X22550523Y-19525761D02*
X22407666Y-19573380D01*
X22407666Y-19573380D02*
X22312428Y-19573380D01*
X22312428Y-19573380D02*
X22169571Y-19525761D01*
X22169571Y-19525761D02*
X22074333Y-19430523D01*
X22074333Y-19430523D02*
X22026714Y-19335285D01*
X22026714Y-19335285D02*
X21979095Y-19144809D01*
X21979095Y-19144809D02*
X21979095Y-19001952D01*
X21979095Y-19001952D02*
X22026714Y-18811476D01*
X22026714Y-18811476D02*
X22074333Y-18716238D01*
X22074333Y-18716238D02*
X22169571Y-18621000D01*
X22169571Y-18621000D02*
X22312428Y-18573380D01*
X22312428Y-18573380D02*
X22407666Y-18573380D01*
X22407666Y-18573380D02*
X22550523Y-18621000D01*
X22550523Y-18621000D02*
X22598142Y-18668619D01*
X22931476Y-18573380D02*
X23550523Y-18573380D01*
X23550523Y-18573380D02*
X23217190Y-18954333D01*
X23217190Y-18954333D02*
X23360047Y-18954333D01*
X23360047Y-18954333D02*
X23455285Y-19001952D01*
X23455285Y-19001952D02*
X23502904Y-19049571D01*
X23502904Y-19049571D02*
X23550523Y-19144809D01*
X23550523Y-19144809D02*
X23550523Y-19382904D01*
X23550523Y-19382904D02*
X23502904Y-19478142D01*
X23502904Y-19478142D02*
X23455285Y-19525761D01*
X23455285Y-19525761D02*
X23360047Y-19573380D01*
X23360047Y-19573380D02*
X23074333Y-19573380D01*
X23074333Y-19573380D02*
X22979095Y-19525761D01*
X22979095Y-19525761D02*
X22931476Y-19478142D01*
X24407666Y-18906714D02*
X24407666Y-19573380D01*
X24169571Y-18525761D02*
X23931476Y-19240047D01*
X23931476Y-19240047D02*
X24550523Y-19240047D01*
%TO.C,RV3*%
X32387380Y-21401238D02*
X31911190Y-21734571D01*
X32387380Y-21972666D02*
X31387380Y-21972666D01*
X31387380Y-21972666D02*
X31387380Y-21591714D01*
X31387380Y-21591714D02*
X31435000Y-21496476D01*
X31435000Y-21496476D02*
X31482619Y-21448857D01*
X31482619Y-21448857D02*
X31577857Y-21401238D01*
X31577857Y-21401238D02*
X31720714Y-21401238D01*
X31720714Y-21401238D02*
X31815952Y-21448857D01*
X31815952Y-21448857D02*
X31863571Y-21496476D01*
X31863571Y-21496476D02*
X31911190Y-21591714D01*
X31911190Y-21591714D02*
X31911190Y-21972666D01*
X31387380Y-21115523D02*
X32387380Y-20782190D01*
X32387380Y-20782190D02*
X31387380Y-20448857D01*
X31387380Y-20210761D02*
X31387380Y-19591714D01*
X31387380Y-19591714D02*
X31768333Y-19925047D01*
X31768333Y-19925047D02*
X31768333Y-19782190D01*
X31768333Y-19782190D02*
X31815952Y-19686952D01*
X31815952Y-19686952D02*
X31863571Y-19639333D01*
X31863571Y-19639333D02*
X31958809Y-19591714D01*
X31958809Y-19591714D02*
X32196904Y-19591714D01*
X32196904Y-19591714D02*
X32292142Y-19639333D01*
X32292142Y-19639333D02*
X32339761Y-19686952D01*
X32339761Y-19686952D02*
X32387380Y-19782190D01*
X32387380Y-19782190D02*
X32387380Y-20067904D01*
X32387380Y-20067904D02*
X32339761Y-20163142D01*
X32339761Y-20163142D02*
X32292142Y-20210761D01*
%TO.C,U7*%
X53213095Y-66770380D02*
X53213095Y-67579904D01*
X53213095Y-67579904D02*
X53260714Y-67675142D01*
X53260714Y-67675142D02*
X53308333Y-67722761D01*
X53308333Y-67722761D02*
X53403571Y-67770380D01*
X53403571Y-67770380D02*
X53594047Y-67770380D01*
X53594047Y-67770380D02*
X53689285Y-67722761D01*
X53689285Y-67722761D02*
X53736904Y-67675142D01*
X53736904Y-67675142D02*
X53784523Y-67579904D01*
X53784523Y-67579904D02*
X53784523Y-66770380D01*
X54165476Y-66770380D02*
X54832142Y-66770380D01*
X54832142Y-66770380D02*
X54403571Y-67770380D01*
%TO.C,D4*%
X82361380Y-62378294D02*
X81361380Y-62378294D01*
X81361380Y-62378294D02*
X81361380Y-62140199D01*
X81361380Y-62140199D02*
X81409000Y-61997342D01*
X81409000Y-61997342D02*
X81504238Y-61902104D01*
X81504238Y-61902104D02*
X81599476Y-61854485D01*
X81599476Y-61854485D02*
X81789952Y-61806866D01*
X81789952Y-61806866D02*
X81932809Y-61806866D01*
X81932809Y-61806866D02*
X82123285Y-61854485D01*
X82123285Y-61854485D02*
X82218523Y-61902104D01*
X82218523Y-61902104D02*
X82313761Y-61997342D01*
X82313761Y-61997342D02*
X82361380Y-62140199D01*
X82361380Y-62140199D02*
X82361380Y-62378294D01*
X81694714Y-60949723D02*
X82361380Y-60949723D01*
X81313761Y-61187818D02*
X82028047Y-61425913D01*
X82028047Y-61425913D02*
X82028047Y-60806866D01*
%TO.C,C5*%
X46442333Y-22399142D02*
X46394714Y-22446761D01*
X46394714Y-22446761D02*
X46251857Y-22494380D01*
X46251857Y-22494380D02*
X46156619Y-22494380D01*
X46156619Y-22494380D02*
X46013762Y-22446761D01*
X46013762Y-22446761D02*
X45918524Y-22351523D01*
X45918524Y-22351523D02*
X45870905Y-22256285D01*
X45870905Y-22256285D02*
X45823286Y-22065809D01*
X45823286Y-22065809D02*
X45823286Y-21922952D01*
X45823286Y-21922952D02*
X45870905Y-21732476D01*
X45870905Y-21732476D02*
X45918524Y-21637238D01*
X45918524Y-21637238D02*
X46013762Y-21542000D01*
X46013762Y-21542000D02*
X46156619Y-21494380D01*
X46156619Y-21494380D02*
X46251857Y-21494380D01*
X46251857Y-21494380D02*
X46394714Y-21542000D01*
X46394714Y-21542000D02*
X46442333Y-21589619D01*
X47347095Y-21494380D02*
X46870905Y-21494380D01*
X46870905Y-21494380D02*
X46823286Y-21970571D01*
X46823286Y-21970571D02*
X46870905Y-21922952D01*
X46870905Y-21922952D02*
X46966143Y-21875333D01*
X46966143Y-21875333D02*
X47204238Y-21875333D01*
X47204238Y-21875333D02*
X47299476Y-21922952D01*
X47299476Y-21922952D02*
X47347095Y-21970571D01*
X47347095Y-21970571D02*
X47394714Y-22065809D01*
X47394714Y-22065809D02*
X47394714Y-22303904D01*
X47394714Y-22303904D02*
X47347095Y-22399142D01*
X47347095Y-22399142D02*
X47299476Y-22446761D01*
X47299476Y-22446761D02*
X47204238Y-22494380D01*
X47204238Y-22494380D02*
X46966143Y-22494380D01*
X46966143Y-22494380D02*
X46870905Y-22446761D01*
X46870905Y-22446761D02*
X46823286Y-22399142D01*
%TO.C,RV2*%
X55612380Y-35774238D02*
X55136190Y-36107571D01*
X55612380Y-36345666D02*
X54612380Y-36345666D01*
X54612380Y-36345666D02*
X54612380Y-35964714D01*
X54612380Y-35964714D02*
X54660000Y-35869476D01*
X54660000Y-35869476D02*
X54707619Y-35821857D01*
X54707619Y-35821857D02*
X54802857Y-35774238D01*
X54802857Y-35774238D02*
X54945714Y-35774238D01*
X54945714Y-35774238D02*
X55040952Y-35821857D01*
X55040952Y-35821857D02*
X55088571Y-35869476D01*
X55088571Y-35869476D02*
X55136190Y-35964714D01*
X55136190Y-35964714D02*
X55136190Y-36345666D01*
X54612380Y-35488523D02*
X55612380Y-35155190D01*
X55612380Y-35155190D02*
X54612380Y-34821857D01*
X54707619Y-34536142D02*
X54660000Y-34488523D01*
X54660000Y-34488523D02*
X54612380Y-34393285D01*
X54612380Y-34393285D02*
X54612380Y-34155190D01*
X54612380Y-34155190D02*
X54660000Y-34059952D01*
X54660000Y-34059952D02*
X54707619Y-34012333D01*
X54707619Y-34012333D02*
X54802857Y-33964714D01*
X54802857Y-33964714D02*
X54898095Y-33964714D01*
X54898095Y-33964714D02*
X55040952Y-34012333D01*
X55040952Y-34012333D02*
X55612380Y-34583761D01*
X55612380Y-34583761D02*
X55612380Y-33964714D01*
%TO.C,C2*%
X94799342Y-30417466D02*
X94846961Y-30465085D01*
X94846961Y-30465085D02*
X94894580Y-30607942D01*
X94894580Y-30607942D02*
X94894580Y-30703180D01*
X94894580Y-30703180D02*
X94846961Y-30846037D01*
X94846961Y-30846037D02*
X94751723Y-30941275D01*
X94751723Y-30941275D02*
X94656485Y-30988894D01*
X94656485Y-30988894D02*
X94466009Y-31036513D01*
X94466009Y-31036513D02*
X94323152Y-31036513D01*
X94323152Y-31036513D02*
X94132676Y-30988894D01*
X94132676Y-30988894D02*
X94037438Y-30941275D01*
X94037438Y-30941275D02*
X93942200Y-30846037D01*
X93942200Y-30846037D02*
X93894580Y-30703180D01*
X93894580Y-30703180D02*
X93894580Y-30607942D01*
X93894580Y-30607942D02*
X93942200Y-30465085D01*
X93942200Y-30465085D02*
X93989819Y-30417466D01*
X93989819Y-30036513D02*
X93942200Y-29988894D01*
X93942200Y-29988894D02*
X93894580Y-29893656D01*
X93894580Y-29893656D02*
X93894580Y-29655561D01*
X93894580Y-29655561D02*
X93942200Y-29560323D01*
X93942200Y-29560323D02*
X93989819Y-29512704D01*
X93989819Y-29512704D02*
X94085057Y-29465085D01*
X94085057Y-29465085D02*
X94180295Y-29465085D01*
X94180295Y-29465085D02*
X94323152Y-29512704D01*
X94323152Y-29512704D02*
X94894580Y-30084132D01*
X94894580Y-30084132D02*
X94894580Y-29465085D01*
%TO.C,R9*%
X50853780Y-92267066D02*
X50377590Y-92600399D01*
X50853780Y-92838494D02*
X49853780Y-92838494D01*
X49853780Y-92838494D02*
X49853780Y-92457542D01*
X49853780Y-92457542D02*
X49901400Y-92362304D01*
X49901400Y-92362304D02*
X49949019Y-92314685D01*
X49949019Y-92314685D02*
X50044257Y-92267066D01*
X50044257Y-92267066D02*
X50187114Y-92267066D01*
X50187114Y-92267066D02*
X50282352Y-92314685D01*
X50282352Y-92314685D02*
X50329971Y-92362304D01*
X50329971Y-92362304D02*
X50377590Y-92457542D01*
X50377590Y-92457542D02*
X50377590Y-92838494D01*
X50853780Y-91790875D02*
X50853780Y-91600399D01*
X50853780Y-91600399D02*
X50806161Y-91505161D01*
X50806161Y-91505161D02*
X50758542Y-91457542D01*
X50758542Y-91457542D02*
X50615685Y-91362304D01*
X50615685Y-91362304D02*
X50425209Y-91314685D01*
X50425209Y-91314685D02*
X50044257Y-91314685D01*
X50044257Y-91314685D02*
X49949019Y-91362304D01*
X49949019Y-91362304D02*
X49901400Y-91409923D01*
X49901400Y-91409923D02*
X49853780Y-91505161D01*
X49853780Y-91505161D02*
X49853780Y-91695637D01*
X49853780Y-91695637D02*
X49901400Y-91790875D01*
X49901400Y-91790875D02*
X49949019Y-91838494D01*
X49949019Y-91838494D02*
X50044257Y-91886113D01*
X50044257Y-91886113D02*
X50282352Y-91886113D01*
X50282352Y-91886113D02*
X50377590Y-91838494D01*
X50377590Y-91838494D02*
X50425209Y-91790875D01*
X50425209Y-91790875D02*
X50472828Y-91695637D01*
X50472828Y-91695637D02*
X50472828Y-91505161D01*
X50472828Y-91505161D02*
X50425209Y-91409923D01*
X50425209Y-91409923D02*
X50377590Y-91362304D01*
X50377590Y-91362304D02*
X50282352Y-91314685D01*
%TO.C,C36*%
X35897542Y-75702942D02*
X35849923Y-75750561D01*
X35849923Y-75750561D02*
X35707066Y-75798180D01*
X35707066Y-75798180D02*
X35611828Y-75798180D01*
X35611828Y-75798180D02*
X35468971Y-75750561D01*
X35468971Y-75750561D02*
X35373733Y-75655323D01*
X35373733Y-75655323D02*
X35326114Y-75560085D01*
X35326114Y-75560085D02*
X35278495Y-75369609D01*
X35278495Y-75369609D02*
X35278495Y-75226752D01*
X35278495Y-75226752D02*
X35326114Y-75036276D01*
X35326114Y-75036276D02*
X35373733Y-74941038D01*
X35373733Y-74941038D02*
X35468971Y-74845800D01*
X35468971Y-74845800D02*
X35611828Y-74798180D01*
X35611828Y-74798180D02*
X35707066Y-74798180D01*
X35707066Y-74798180D02*
X35849923Y-74845800D01*
X35849923Y-74845800D02*
X35897542Y-74893419D01*
X36230876Y-74798180D02*
X36849923Y-74798180D01*
X36849923Y-74798180D02*
X36516590Y-75179133D01*
X36516590Y-75179133D02*
X36659447Y-75179133D01*
X36659447Y-75179133D02*
X36754685Y-75226752D01*
X36754685Y-75226752D02*
X36802304Y-75274371D01*
X36802304Y-75274371D02*
X36849923Y-75369609D01*
X36849923Y-75369609D02*
X36849923Y-75607704D01*
X36849923Y-75607704D02*
X36802304Y-75702942D01*
X36802304Y-75702942D02*
X36754685Y-75750561D01*
X36754685Y-75750561D02*
X36659447Y-75798180D01*
X36659447Y-75798180D02*
X36373733Y-75798180D01*
X36373733Y-75798180D02*
X36278495Y-75750561D01*
X36278495Y-75750561D02*
X36230876Y-75702942D01*
X37707066Y-74798180D02*
X37516590Y-74798180D01*
X37516590Y-74798180D02*
X37421352Y-74845800D01*
X37421352Y-74845800D02*
X37373733Y-74893419D01*
X37373733Y-74893419D02*
X37278495Y-75036276D01*
X37278495Y-75036276D02*
X37230876Y-75226752D01*
X37230876Y-75226752D02*
X37230876Y-75607704D01*
X37230876Y-75607704D02*
X37278495Y-75702942D01*
X37278495Y-75702942D02*
X37326114Y-75750561D01*
X37326114Y-75750561D02*
X37421352Y-75798180D01*
X37421352Y-75798180D02*
X37611828Y-75798180D01*
X37611828Y-75798180D02*
X37707066Y-75750561D01*
X37707066Y-75750561D02*
X37754685Y-75702942D01*
X37754685Y-75702942D02*
X37802304Y-75607704D01*
X37802304Y-75607704D02*
X37802304Y-75369609D01*
X37802304Y-75369609D02*
X37754685Y-75274371D01*
X37754685Y-75274371D02*
X37707066Y-75226752D01*
X37707066Y-75226752D02*
X37611828Y-75179133D01*
X37611828Y-75179133D02*
X37421352Y-75179133D01*
X37421352Y-75179133D02*
X37326114Y-75226752D01*
X37326114Y-75226752D02*
X37278495Y-75274371D01*
X37278495Y-75274371D02*
X37230876Y-75369609D01*
%TO.C,3.3V*%
X24476334Y-23371333D02*
X25343000Y-23371333D01*
X25343000Y-23371333D02*
X24876334Y-23904666D01*
X24876334Y-23904666D02*
X25076334Y-23904666D01*
X25076334Y-23904666D02*
X25209667Y-23971333D01*
X25209667Y-23971333D02*
X25276334Y-24038000D01*
X25276334Y-24038000D02*
X25343000Y-24171333D01*
X25343000Y-24171333D02*
X25343000Y-24504666D01*
X25343000Y-24504666D02*
X25276334Y-24638000D01*
X25276334Y-24638000D02*
X25209667Y-24704666D01*
X25209667Y-24704666D02*
X25076334Y-24771333D01*
X25076334Y-24771333D02*
X24676334Y-24771333D01*
X24676334Y-24771333D02*
X24543000Y-24704666D01*
X24543000Y-24704666D02*
X24476334Y-24638000D01*
X25943000Y-24638000D02*
X26009667Y-24704666D01*
X26009667Y-24704666D02*
X25943000Y-24771333D01*
X25943000Y-24771333D02*
X25876333Y-24704666D01*
X25876333Y-24704666D02*
X25943000Y-24638000D01*
X25943000Y-24638000D02*
X25943000Y-24771333D01*
X26476334Y-23371333D02*
X27343000Y-23371333D01*
X27343000Y-23371333D02*
X26876334Y-23904666D01*
X26876334Y-23904666D02*
X27076334Y-23904666D01*
X27076334Y-23904666D02*
X27209667Y-23971333D01*
X27209667Y-23971333D02*
X27276334Y-24038000D01*
X27276334Y-24038000D02*
X27343000Y-24171333D01*
X27343000Y-24171333D02*
X27343000Y-24504666D01*
X27343000Y-24504666D02*
X27276334Y-24638000D01*
X27276334Y-24638000D02*
X27209667Y-24704666D01*
X27209667Y-24704666D02*
X27076334Y-24771333D01*
X27076334Y-24771333D02*
X26676334Y-24771333D01*
X26676334Y-24771333D02*
X26543000Y-24704666D01*
X26543000Y-24704666D02*
X26476334Y-24638000D01*
X27743000Y-23371333D02*
X28209667Y-24771333D01*
X28209667Y-24771333D02*
X28676333Y-23371333D01*
%TO.C,C43*%
X45381942Y-97604942D02*
X45334323Y-97652561D01*
X45334323Y-97652561D02*
X45191466Y-97700180D01*
X45191466Y-97700180D02*
X45096228Y-97700180D01*
X45096228Y-97700180D02*
X44953371Y-97652561D01*
X44953371Y-97652561D02*
X44858133Y-97557323D01*
X44858133Y-97557323D02*
X44810514Y-97462085D01*
X44810514Y-97462085D02*
X44762895Y-97271609D01*
X44762895Y-97271609D02*
X44762895Y-97128752D01*
X44762895Y-97128752D02*
X44810514Y-96938276D01*
X44810514Y-96938276D02*
X44858133Y-96843038D01*
X44858133Y-96843038D02*
X44953371Y-96747800D01*
X44953371Y-96747800D02*
X45096228Y-96700180D01*
X45096228Y-96700180D02*
X45191466Y-96700180D01*
X45191466Y-96700180D02*
X45334323Y-96747800D01*
X45334323Y-96747800D02*
X45381942Y-96795419D01*
X46239085Y-97033514D02*
X46239085Y-97700180D01*
X46000990Y-96652561D02*
X45762895Y-97366847D01*
X45762895Y-97366847D02*
X46381942Y-97366847D01*
X46667657Y-96700180D02*
X47286704Y-96700180D01*
X47286704Y-96700180D02*
X46953371Y-97081133D01*
X46953371Y-97081133D02*
X47096228Y-97081133D01*
X47096228Y-97081133D02*
X47191466Y-97128752D01*
X47191466Y-97128752D02*
X47239085Y-97176371D01*
X47239085Y-97176371D02*
X47286704Y-97271609D01*
X47286704Y-97271609D02*
X47286704Y-97509704D01*
X47286704Y-97509704D02*
X47239085Y-97604942D01*
X47239085Y-97604942D02*
X47191466Y-97652561D01*
X47191466Y-97652561D02*
X47096228Y-97700180D01*
X47096228Y-97700180D02*
X46810514Y-97700180D01*
X46810514Y-97700180D02*
X46715276Y-97652561D01*
X46715276Y-97652561D02*
X46667657Y-97604942D01*
%TO.C,C17*%
X75760342Y-83838142D02*
X75712723Y-83885761D01*
X75712723Y-83885761D02*
X75569866Y-83933380D01*
X75569866Y-83933380D02*
X75474628Y-83933380D01*
X75474628Y-83933380D02*
X75331771Y-83885761D01*
X75331771Y-83885761D02*
X75236533Y-83790523D01*
X75236533Y-83790523D02*
X75188914Y-83695285D01*
X75188914Y-83695285D02*
X75141295Y-83504809D01*
X75141295Y-83504809D02*
X75141295Y-83361952D01*
X75141295Y-83361952D02*
X75188914Y-83171476D01*
X75188914Y-83171476D02*
X75236533Y-83076238D01*
X75236533Y-83076238D02*
X75331771Y-82981000D01*
X75331771Y-82981000D02*
X75474628Y-82933380D01*
X75474628Y-82933380D02*
X75569866Y-82933380D01*
X75569866Y-82933380D02*
X75712723Y-82981000D01*
X75712723Y-82981000D02*
X75760342Y-83028619D01*
X76712723Y-83933380D02*
X76141295Y-83933380D01*
X76427009Y-83933380D02*
X76427009Y-82933380D01*
X76427009Y-82933380D02*
X76331771Y-83076238D01*
X76331771Y-83076238D02*
X76236533Y-83171476D01*
X76236533Y-83171476D02*
X76141295Y-83219095D01*
X77046057Y-82933380D02*
X77712723Y-82933380D01*
X77712723Y-82933380D02*
X77284152Y-83933380D01*
%TO.C,RV4*%
X55020880Y-21296238D02*
X54544690Y-21629571D01*
X55020880Y-21867666D02*
X54020880Y-21867666D01*
X54020880Y-21867666D02*
X54020880Y-21486714D01*
X54020880Y-21486714D02*
X54068500Y-21391476D01*
X54068500Y-21391476D02*
X54116119Y-21343857D01*
X54116119Y-21343857D02*
X54211357Y-21296238D01*
X54211357Y-21296238D02*
X54354214Y-21296238D01*
X54354214Y-21296238D02*
X54449452Y-21343857D01*
X54449452Y-21343857D02*
X54497071Y-21391476D01*
X54497071Y-21391476D02*
X54544690Y-21486714D01*
X54544690Y-21486714D02*
X54544690Y-21867666D01*
X54020880Y-21010523D02*
X55020880Y-20677190D01*
X55020880Y-20677190D02*
X54020880Y-20343857D01*
X54354214Y-19581952D02*
X55020880Y-19581952D01*
X53973261Y-19820047D02*
X54687547Y-20058142D01*
X54687547Y-20058142D02*
X54687547Y-19439095D01*
%TO.C,C24*%
X40357142Y-26913142D02*
X40309523Y-26960761D01*
X40309523Y-26960761D02*
X40166666Y-27008380D01*
X40166666Y-27008380D02*
X40071428Y-27008380D01*
X40071428Y-27008380D02*
X39928571Y-26960761D01*
X39928571Y-26960761D02*
X39833333Y-26865523D01*
X39833333Y-26865523D02*
X39785714Y-26770285D01*
X39785714Y-26770285D02*
X39738095Y-26579809D01*
X39738095Y-26579809D02*
X39738095Y-26436952D01*
X39738095Y-26436952D02*
X39785714Y-26246476D01*
X39785714Y-26246476D02*
X39833333Y-26151238D01*
X39833333Y-26151238D02*
X39928571Y-26056000D01*
X39928571Y-26056000D02*
X40071428Y-26008380D01*
X40071428Y-26008380D02*
X40166666Y-26008380D01*
X40166666Y-26008380D02*
X40309523Y-26056000D01*
X40309523Y-26056000D02*
X40357142Y-26103619D01*
X40738095Y-26103619D02*
X40785714Y-26056000D01*
X40785714Y-26056000D02*
X40880952Y-26008380D01*
X40880952Y-26008380D02*
X41119047Y-26008380D01*
X41119047Y-26008380D02*
X41214285Y-26056000D01*
X41214285Y-26056000D02*
X41261904Y-26103619D01*
X41261904Y-26103619D02*
X41309523Y-26198857D01*
X41309523Y-26198857D02*
X41309523Y-26294095D01*
X41309523Y-26294095D02*
X41261904Y-26436952D01*
X41261904Y-26436952D02*
X40690476Y-27008380D01*
X40690476Y-27008380D02*
X41309523Y-27008380D01*
X42166666Y-26341714D02*
X42166666Y-27008380D01*
X41928571Y-25960761D02*
X41690476Y-26675047D01*
X41690476Y-26675047D02*
X42309523Y-26675047D01*
%TO.C,C30*%
X45331142Y-26815142D02*
X45283523Y-26862761D01*
X45283523Y-26862761D02*
X45140666Y-26910380D01*
X45140666Y-26910380D02*
X45045428Y-26910380D01*
X45045428Y-26910380D02*
X44902571Y-26862761D01*
X44902571Y-26862761D02*
X44807333Y-26767523D01*
X44807333Y-26767523D02*
X44759714Y-26672285D01*
X44759714Y-26672285D02*
X44712095Y-26481809D01*
X44712095Y-26481809D02*
X44712095Y-26338952D01*
X44712095Y-26338952D02*
X44759714Y-26148476D01*
X44759714Y-26148476D02*
X44807333Y-26053238D01*
X44807333Y-26053238D02*
X44902571Y-25958000D01*
X44902571Y-25958000D02*
X45045428Y-25910380D01*
X45045428Y-25910380D02*
X45140666Y-25910380D01*
X45140666Y-25910380D02*
X45283523Y-25958000D01*
X45283523Y-25958000D02*
X45331142Y-26005619D01*
X45664476Y-25910380D02*
X46283523Y-25910380D01*
X46283523Y-25910380D02*
X45950190Y-26291333D01*
X45950190Y-26291333D02*
X46093047Y-26291333D01*
X46093047Y-26291333D02*
X46188285Y-26338952D01*
X46188285Y-26338952D02*
X46235904Y-26386571D01*
X46235904Y-26386571D02*
X46283523Y-26481809D01*
X46283523Y-26481809D02*
X46283523Y-26719904D01*
X46283523Y-26719904D02*
X46235904Y-26815142D01*
X46235904Y-26815142D02*
X46188285Y-26862761D01*
X46188285Y-26862761D02*
X46093047Y-26910380D01*
X46093047Y-26910380D02*
X45807333Y-26910380D01*
X45807333Y-26910380D02*
X45712095Y-26862761D01*
X45712095Y-26862761D02*
X45664476Y-26815142D01*
X46902571Y-25910380D02*
X46997809Y-25910380D01*
X46997809Y-25910380D02*
X47093047Y-25958000D01*
X47093047Y-25958000D02*
X47140666Y-26005619D01*
X47140666Y-26005619D02*
X47188285Y-26100857D01*
X47188285Y-26100857D02*
X47235904Y-26291333D01*
X47235904Y-26291333D02*
X47235904Y-26529428D01*
X47235904Y-26529428D02*
X47188285Y-26719904D01*
X47188285Y-26719904D02*
X47140666Y-26815142D01*
X47140666Y-26815142D02*
X47093047Y-26862761D01*
X47093047Y-26862761D02*
X46997809Y-26910380D01*
X46997809Y-26910380D02*
X46902571Y-26910380D01*
X46902571Y-26910380D02*
X46807333Y-26862761D01*
X46807333Y-26862761D02*
X46759714Y-26815142D01*
X46759714Y-26815142D02*
X46712095Y-26719904D01*
X46712095Y-26719904D02*
X46664476Y-26529428D01*
X46664476Y-26529428D02*
X46664476Y-26291333D01*
X46664476Y-26291333D02*
X46712095Y-26100857D01*
X46712095Y-26100857D02*
X46759714Y-26005619D01*
X46759714Y-26005619D02*
X46807333Y-25958000D01*
X46807333Y-25958000D02*
X46902571Y-25910380D01*
%TO.C,POW2*%
X70810667Y-20975380D02*
X70810667Y-19975380D01*
X70810667Y-19975380D02*
X71191619Y-19975380D01*
X71191619Y-19975380D02*
X71286857Y-20023000D01*
X71286857Y-20023000D02*
X71334476Y-20070619D01*
X71334476Y-20070619D02*
X71382095Y-20165857D01*
X71382095Y-20165857D02*
X71382095Y-20308714D01*
X71382095Y-20308714D02*
X71334476Y-20403952D01*
X71334476Y-20403952D02*
X71286857Y-20451571D01*
X71286857Y-20451571D02*
X71191619Y-20499190D01*
X71191619Y-20499190D02*
X70810667Y-20499190D01*
X72001143Y-19975380D02*
X72191619Y-19975380D01*
X72191619Y-19975380D02*
X72286857Y-20023000D01*
X72286857Y-20023000D02*
X72382095Y-20118238D01*
X72382095Y-20118238D02*
X72429714Y-20308714D01*
X72429714Y-20308714D02*
X72429714Y-20642047D01*
X72429714Y-20642047D02*
X72382095Y-20832523D01*
X72382095Y-20832523D02*
X72286857Y-20927761D01*
X72286857Y-20927761D02*
X72191619Y-20975380D01*
X72191619Y-20975380D02*
X72001143Y-20975380D01*
X72001143Y-20975380D02*
X71905905Y-20927761D01*
X71905905Y-20927761D02*
X71810667Y-20832523D01*
X71810667Y-20832523D02*
X71763048Y-20642047D01*
X71763048Y-20642047D02*
X71763048Y-20308714D01*
X71763048Y-20308714D02*
X71810667Y-20118238D01*
X71810667Y-20118238D02*
X71905905Y-20023000D01*
X71905905Y-20023000D02*
X72001143Y-19975380D01*
X72763048Y-19975380D02*
X73001143Y-20975380D01*
X73001143Y-20975380D02*
X73191619Y-20261095D01*
X73191619Y-20261095D02*
X73382095Y-20975380D01*
X73382095Y-20975380D02*
X73620191Y-19975380D01*
X73953524Y-20070619D02*
X74001143Y-20023000D01*
X74001143Y-20023000D02*
X74096381Y-19975380D01*
X74096381Y-19975380D02*
X74334476Y-19975380D01*
X74334476Y-19975380D02*
X74429714Y-20023000D01*
X74429714Y-20023000D02*
X74477333Y-20070619D01*
X74477333Y-20070619D02*
X74524952Y-20165857D01*
X74524952Y-20165857D02*
X74524952Y-20261095D01*
X74524952Y-20261095D02*
X74477333Y-20403952D01*
X74477333Y-20403952D02*
X73905905Y-20975380D01*
X73905905Y-20975380D02*
X74524952Y-20975380D01*
%TO.C,R5*%
X34504333Y-17046380D02*
X34171000Y-16570190D01*
X33932905Y-17046380D02*
X33932905Y-16046380D01*
X33932905Y-16046380D02*
X34313857Y-16046380D01*
X34313857Y-16046380D02*
X34409095Y-16094000D01*
X34409095Y-16094000D02*
X34456714Y-16141619D01*
X34456714Y-16141619D02*
X34504333Y-16236857D01*
X34504333Y-16236857D02*
X34504333Y-16379714D01*
X34504333Y-16379714D02*
X34456714Y-16474952D01*
X34456714Y-16474952D02*
X34409095Y-16522571D01*
X34409095Y-16522571D02*
X34313857Y-16570190D01*
X34313857Y-16570190D02*
X33932905Y-16570190D01*
X35409095Y-16046380D02*
X34932905Y-16046380D01*
X34932905Y-16046380D02*
X34885286Y-16522571D01*
X34885286Y-16522571D02*
X34932905Y-16474952D01*
X34932905Y-16474952D02*
X35028143Y-16427333D01*
X35028143Y-16427333D02*
X35266238Y-16427333D01*
X35266238Y-16427333D02*
X35361476Y-16474952D01*
X35361476Y-16474952D02*
X35409095Y-16522571D01*
X35409095Y-16522571D02*
X35456714Y-16617809D01*
X35456714Y-16617809D02*
X35456714Y-16855904D01*
X35456714Y-16855904D02*
X35409095Y-16951142D01*
X35409095Y-16951142D02*
X35361476Y-16998761D01*
X35361476Y-16998761D02*
X35266238Y-17046380D01*
X35266238Y-17046380D02*
X35028143Y-17046380D01*
X35028143Y-17046380D02*
X34932905Y-16998761D01*
X34932905Y-16998761D02*
X34885286Y-16951142D01*
%TO.C,C16*%
X72153542Y-84092142D02*
X72105923Y-84139761D01*
X72105923Y-84139761D02*
X71963066Y-84187380D01*
X71963066Y-84187380D02*
X71867828Y-84187380D01*
X71867828Y-84187380D02*
X71724971Y-84139761D01*
X71724971Y-84139761D02*
X71629733Y-84044523D01*
X71629733Y-84044523D02*
X71582114Y-83949285D01*
X71582114Y-83949285D02*
X71534495Y-83758809D01*
X71534495Y-83758809D02*
X71534495Y-83615952D01*
X71534495Y-83615952D02*
X71582114Y-83425476D01*
X71582114Y-83425476D02*
X71629733Y-83330238D01*
X71629733Y-83330238D02*
X71724971Y-83235000D01*
X71724971Y-83235000D02*
X71867828Y-83187380D01*
X71867828Y-83187380D02*
X71963066Y-83187380D01*
X71963066Y-83187380D02*
X72105923Y-83235000D01*
X72105923Y-83235000D02*
X72153542Y-83282619D01*
X73105923Y-84187380D02*
X72534495Y-84187380D01*
X72820209Y-84187380D02*
X72820209Y-83187380D01*
X72820209Y-83187380D02*
X72724971Y-83330238D01*
X72724971Y-83330238D02*
X72629733Y-83425476D01*
X72629733Y-83425476D02*
X72534495Y-83473095D01*
X73963066Y-83187380D02*
X73772590Y-83187380D01*
X73772590Y-83187380D02*
X73677352Y-83235000D01*
X73677352Y-83235000D02*
X73629733Y-83282619D01*
X73629733Y-83282619D02*
X73534495Y-83425476D01*
X73534495Y-83425476D02*
X73486876Y-83615952D01*
X73486876Y-83615952D02*
X73486876Y-83996904D01*
X73486876Y-83996904D02*
X73534495Y-84092142D01*
X73534495Y-84092142D02*
X73582114Y-84139761D01*
X73582114Y-84139761D02*
X73677352Y-84187380D01*
X73677352Y-84187380D02*
X73867828Y-84187380D01*
X73867828Y-84187380D02*
X73963066Y-84139761D01*
X73963066Y-84139761D02*
X74010685Y-84092142D01*
X74010685Y-84092142D02*
X74058304Y-83996904D01*
X74058304Y-83996904D02*
X74058304Y-83758809D01*
X74058304Y-83758809D02*
X74010685Y-83663571D01*
X74010685Y-83663571D02*
X73963066Y-83615952D01*
X73963066Y-83615952D02*
X73867828Y-83568333D01*
X73867828Y-83568333D02*
X73677352Y-83568333D01*
X73677352Y-83568333D02*
X73582114Y-83615952D01*
X73582114Y-83615952D02*
X73534495Y-83663571D01*
X73534495Y-83663571D02*
X73486876Y-83758809D01*
%TO.C,R6*%
X45634580Y-61888666D02*
X45158390Y-62221999D01*
X45634580Y-62460094D02*
X44634580Y-62460094D01*
X44634580Y-62460094D02*
X44634580Y-62079142D01*
X44634580Y-62079142D02*
X44682200Y-61983904D01*
X44682200Y-61983904D02*
X44729819Y-61936285D01*
X44729819Y-61936285D02*
X44825057Y-61888666D01*
X44825057Y-61888666D02*
X44967914Y-61888666D01*
X44967914Y-61888666D02*
X45063152Y-61936285D01*
X45063152Y-61936285D02*
X45110771Y-61983904D01*
X45110771Y-61983904D02*
X45158390Y-62079142D01*
X45158390Y-62079142D02*
X45158390Y-62460094D01*
X44634580Y-61031523D02*
X44634580Y-61221999D01*
X44634580Y-61221999D02*
X44682200Y-61317237D01*
X44682200Y-61317237D02*
X44729819Y-61364856D01*
X44729819Y-61364856D02*
X44872676Y-61460094D01*
X44872676Y-61460094D02*
X45063152Y-61507713D01*
X45063152Y-61507713D02*
X45444104Y-61507713D01*
X45444104Y-61507713D02*
X45539342Y-61460094D01*
X45539342Y-61460094D02*
X45586961Y-61412475D01*
X45586961Y-61412475D02*
X45634580Y-61317237D01*
X45634580Y-61317237D02*
X45634580Y-61126761D01*
X45634580Y-61126761D02*
X45586961Y-61031523D01*
X45586961Y-61031523D02*
X45539342Y-60983904D01*
X45539342Y-60983904D02*
X45444104Y-60936285D01*
X45444104Y-60936285D02*
X45206009Y-60936285D01*
X45206009Y-60936285D02*
X45110771Y-60983904D01*
X45110771Y-60983904D02*
X45063152Y-61031523D01*
X45063152Y-61031523D02*
X45015533Y-61126761D01*
X45015533Y-61126761D02*
X45015533Y-61317237D01*
X45015533Y-61317237D02*
X45063152Y-61412475D01*
X45063152Y-61412475D02*
X45110771Y-61460094D01*
X45110771Y-61460094D02*
X45206009Y-61507713D01*
%TO.C,J11*%
X87988876Y-20347780D02*
X87988876Y-21062066D01*
X87988876Y-21062066D02*
X87941257Y-21204923D01*
X87941257Y-21204923D02*
X87846019Y-21300161D01*
X87846019Y-21300161D02*
X87703162Y-21347780D01*
X87703162Y-21347780D02*
X87607924Y-21347780D01*
X88988876Y-21347780D02*
X88417448Y-21347780D01*
X88703162Y-21347780D02*
X88703162Y-20347780D01*
X88703162Y-20347780D02*
X88607924Y-20490638D01*
X88607924Y-20490638D02*
X88512686Y-20585876D01*
X88512686Y-20585876D02*
X88417448Y-20633495D01*
X89941257Y-21347780D02*
X89369829Y-21347780D01*
X89655543Y-21347780D02*
X89655543Y-20347780D01*
X89655543Y-20347780D02*
X89560305Y-20490638D01*
X89560305Y-20490638D02*
X89465067Y-20585876D01*
X89465067Y-20585876D02*
X89369829Y-20633495D01*
%TO.C,C3*%
X64984333Y-21227142D02*
X64936714Y-21274761D01*
X64936714Y-21274761D02*
X64793857Y-21322380D01*
X64793857Y-21322380D02*
X64698619Y-21322380D01*
X64698619Y-21322380D02*
X64555762Y-21274761D01*
X64555762Y-21274761D02*
X64460524Y-21179523D01*
X64460524Y-21179523D02*
X64412905Y-21084285D01*
X64412905Y-21084285D02*
X64365286Y-20893809D01*
X64365286Y-20893809D02*
X64365286Y-20750952D01*
X64365286Y-20750952D02*
X64412905Y-20560476D01*
X64412905Y-20560476D02*
X64460524Y-20465238D01*
X64460524Y-20465238D02*
X64555762Y-20370000D01*
X64555762Y-20370000D02*
X64698619Y-20322380D01*
X64698619Y-20322380D02*
X64793857Y-20322380D01*
X64793857Y-20322380D02*
X64936714Y-20370000D01*
X64936714Y-20370000D02*
X64984333Y-20417619D01*
X65317667Y-20322380D02*
X65936714Y-20322380D01*
X65936714Y-20322380D02*
X65603381Y-20703333D01*
X65603381Y-20703333D02*
X65746238Y-20703333D01*
X65746238Y-20703333D02*
X65841476Y-20750952D01*
X65841476Y-20750952D02*
X65889095Y-20798571D01*
X65889095Y-20798571D02*
X65936714Y-20893809D01*
X65936714Y-20893809D02*
X65936714Y-21131904D01*
X65936714Y-21131904D02*
X65889095Y-21227142D01*
X65889095Y-21227142D02*
X65841476Y-21274761D01*
X65841476Y-21274761D02*
X65746238Y-21322380D01*
X65746238Y-21322380D02*
X65460524Y-21322380D01*
X65460524Y-21322380D02*
X65365286Y-21274761D01*
X65365286Y-21274761D02*
X65317667Y-21227142D01*
%TO.C,C37*%
X35897542Y-72302942D02*
X35849923Y-72350561D01*
X35849923Y-72350561D02*
X35707066Y-72398180D01*
X35707066Y-72398180D02*
X35611828Y-72398180D01*
X35611828Y-72398180D02*
X35468971Y-72350561D01*
X35468971Y-72350561D02*
X35373733Y-72255323D01*
X35373733Y-72255323D02*
X35326114Y-72160085D01*
X35326114Y-72160085D02*
X35278495Y-71969609D01*
X35278495Y-71969609D02*
X35278495Y-71826752D01*
X35278495Y-71826752D02*
X35326114Y-71636276D01*
X35326114Y-71636276D02*
X35373733Y-71541038D01*
X35373733Y-71541038D02*
X35468971Y-71445800D01*
X35468971Y-71445800D02*
X35611828Y-71398180D01*
X35611828Y-71398180D02*
X35707066Y-71398180D01*
X35707066Y-71398180D02*
X35849923Y-71445800D01*
X35849923Y-71445800D02*
X35897542Y-71493419D01*
X36230876Y-71398180D02*
X36849923Y-71398180D01*
X36849923Y-71398180D02*
X36516590Y-71779133D01*
X36516590Y-71779133D02*
X36659447Y-71779133D01*
X36659447Y-71779133D02*
X36754685Y-71826752D01*
X36754685Y-71826752D02*
X36802304Y-71874371D01*
X36802304Y-71874371D02*
X36849923Y-71969609D01*
X36849923Y-71969609D02*
X36849923Y-72207704D01*
X36849923Y-72207704D02*
X36802304Y-72302942D01*
X36802304Y-72302942D02*
X36754685Y-72350561D01*
X36754685Y-72350561D02*
X36659447Y-72398180D01*
X36659447Y-72398180D02*
X36373733Y-72398180D01*
X36373733Y-72398180D02*
X36278495Y-72350561D01*
X36278495Y-72350561D02*
X36230876Y-72302942D01*
X37183257Y-71398180D02*
X37849923Y-71398180D01*
X37849923Y-71398180D02*
X37421352Y-72398180D01*
%TO.C,R3*%
X57491333Y-25894380D02*
X57158000Y-25418190D01*
X56919905Y-25894380D02*
X56919905Y-24894380D01*
X56919905Y-24894380D02*
X57300857Y-24894380D01*
X57300857Y-24894380D02*
X57396095Y-24942000D01*
X57396095Y-24942000D02*
X57443714Y-24989619D01*
X57443714Y-24989619D02*
X57491333Y-25084857D01*
X57491333Y-25084857D02*
X57491333Y-25227714D01*
X57491333Y-25227714D02*
X57443714Y-25322952D01*
X57443714Y-25322952D02*
X57396095Y-25370571D01*
X57396095Y-25370571D02*
X57300857Y-25418190D01*
X57300857Y-25418190D02*
X56919905Y-25418190D01*
X57824667Y-24894380D02*
X58443714Y-24894380D01*
X58443714Y-24894380D02*
X58110381Y-25275333D01*
X58110381Y-25275333D02*
X58253238Y-25275333D01*
X58253238Y-25275333D02*
X58348476Y-25322952D01*
X58348476Y-25322952D02*
X58396095Y-25370571D01*
X58396095Y-25370571D02*
X58443714Y-25465809D01*
X58443714Y-25465809D02*
X58443714Y-25703904D01*
X58443714Y-25703904D02*
X58396095Y-25799142D01*
X58396095Y-25799142D02*
X58348476Y-25846761D01*
X58348476Y-25846761D02*
X58253238Y-25894380D01*
X58253238Y-25894380D02*
X57967524Y-25894380D01*
X57967524Y-25894380D02*
X57872286Y-25846761D01*
X57872286Y-25846761D02*
X57824667Y-25799142D01*
%TO.C,12V*%
X50441333Y-38741333D02*
X49641333Y-38741333D01*
X50041333Y-38741333D02*
X50041333Y-37341333D01*
X50041333Y-37341333D02*
X49908000Y-37541333D01*
X49908000Y-37541333D02*
X49774667Y-37674666D01*
X49774667Y-37674666D02*
X49641333Y-37741333D01*
X50974666Y-37474666D02*
X51041333Y-37408000D01*
X51041333Y-37408000D02*
X51174666Y-37341333D01*
X51174666Y-37341333D02*
X51508000Y-37341333D01*
X51508000Y-37341333D02*
X51641333Y-37408000D01*
X51641333Y-37408000D02*
X51708000Y-37474666D01*
X51708000Y-37474666D02*
X51774666Y-37608000D01*
X51774666Y-37608000D02*
X51774666Y-37741333D01*
X51774666Y-37741333D02*
X51708000Y-37941333D01*
X51708000Y-37941333D02*
X50908000Y-38741333D01*
X50908000Y-38741333D02*
X51774666Y-38741333D01*
X52174666Y-37341333D02*
X52641333Y-38741333D01*
X52641333Y-38741333D02*
X53107999Y-37341333D01*
%TO.C,C26*%
X67048142Y-35451142D02*
X67000523Y-35498761D01*
X67000523Y-35498761D02*
X66857666Y-35546380D01*
X66857666Y-35546380D02*
X66762428Y-35546380D01*
X66762428Y-35546380D02*
X66619571Y-35498761D01*
X66619571Y-35498761D02*
X66524333Y-35403523D01*
X66524333Y-35403523D02*
X66476714Y-35308285D01*
X66476714Y-35308285D02*
X66429095Y-35117809D01*
X66429095Y-35117809D02*
X66429095Y-34974952D01*
X66429095Y-34974952D02*
X66476714Y-34784476D01*
X66476714Y-34784476D02*
X66524333Y-34689238D01*
X66524333Y-34689238D02*
X66619571Y-34594000D01*
X66619571Y-34594000D02*
X66762428Y-34546380D01*
X66762428Y-34546380D02*
X66857666Y-34546380D01*
X66857666Y-34546380D02*
X67000523Y-34594000D01*
X67000523Y-34594000D02*
X67048142Y-34641619D01*
X67429095Y-34641619D02*
X67476714Y-34594000D01*
X67476714Y-34594000D02*
X67571952Y-34546380D01*
X67571952Y-34546380D02*
X67810047Y-34546380D01*
X67810047Y-34546380D02*
X67905285Y-34594000D01*
X67905285Y-34594000D02*
X67952904Y-34641619D01*
X67952904Y-34641619D02*
X68000523Y-34736857D01*
X68000523Y-34736857D02*
X68000523Y-34832095D01*
X68000523Y-34832095D02*
X67952904Y-34974952D01*
X67952904Y-34974952D02*
X67381476Y-35546380D01*
X67381476Y-35546380D02*
X68000523Y-35546380D01*
X68857666Y-34546380D02*
X68667190Y-34546380D01*
X68667190Y-34546380D02*
X68571952Y-34594000D01*
X68571952Y-34594000D02*
X68524333Y-34641619D01*
X68524333Y-34641619D02*
X68429095Y-34784476D01*
X68429095Y-34784476D02*
X68381476Y-34974952D01*
X68381476Y-34974952D02*
X68381476Y-35355904D01*
X68381476Y-35355904D02*
X68429095Y-35451142D01*
X68429095Y-35451142D02*
X68476714Y-35498761D01*
X68476714Y-35498761D02*
X68571952Y-35546380D01*
X68571952Y-35546380D02*
X68762428Y-35546380D01*
X68762428Y-35546380D02*
X68857666Y-35498761D01*
X68857666Y-35498761D02*
X68905285Y-35451142D01*
X68905285Y-35451142D02*
X68952904Y-35355904D01*
X68952904Y-35355904D02*
X68952904Y-35117809D01*
X68952904Y-35117809D02*
X68905285Y-35022571D01*
X68905285Y-35022571D02*
X68857666Y-34974952D01*
X68857666Y-34974952D02*
X68762428Y-34927333D01*
X68762428Y-34927333D02*
X68571952Y-34927333D01*
X68571952Y-34927333D02*
X68476714Y-34974952D01*
X68476714Y-34974952D02*
X68429095Y-35022571D01*
X68429095Y-35022571D02*
X68381476Y-35117809D01*
%TO.C,J5*%
X103665380Y-76873333D02*
X104379666Y-76873333D01*
X104379666Y-76873333D02*
X104522523Y-76920952D01*
X104522523Y-76920952D02*
X104617761Y-77016190D01*
X104617761Y-77016190D02*
X104665380Y-77159047D01*
X104665380Y-77159047D02*
X104665380Y-77254285D01*
X103665380Y-75920952D02*
X103665380Y-76397142D01*
X103665380Y-76397142D02*
X104141571Y-76444761D01*
X104141571Y-76444761D02*
X104093952Y-76397142D01*
X104093952Y-76397142D02*
X104046333Y-76301904D01*
X104046333Y-76301904D02*
X104046333Y-76063809D01*
X104046333Y-76063809D02*
X104093952Y-75968571D01*
X104093952Y-75968571D02*
X104141571Y-75920952D01*
X104141571Y-75920952D02*
X104236809Y-75873333D01*
X104236809Y-75873333D02*
X104474904Y-75873333D01*
X104474904Y-75873333D02*
X104570142Y-75920952D01*
X104570142Y-75920952D02*
X104617761Y-75968571D01*
X104617761Y-75968571D02*
X104665380Y-76063809D01*
X104665380Y-76063809D02*
X104665380Y-76301904D01*
X104665380Y-76301904D02*
X104617761Y-76397142D01*
X104617761Y-76397142D02*
X104570142Y-76444761D01*
%TO.C,C14*%
X71747142Y-79272142D02*
X71699523Y-79319761D01*
X71699523Y-79319761D02*
X71556666Y-79367380D01*
X71556666Y-79367380D02*
X71461428Y-79367380D01*
X71461428Y-79367380D02*
X71318571Y-79319761D01*
X71318571Y-79319761D02*
X71223333Y-79224523D01*
X71223333Y-79224523D02*
X71175714Y-79129285D01*
X71175714Y-79129285D02*
X71128095Y-78938809D01*
X71128095Y-78938809D02*
X71128095Y-78795952D01*
X71128095Y-78795952D02*
X71175714Y-78605476D01*
X71175714Y-78605476D02*
X71223333Y-78510238D01*
X71223333Y-78510238D02*
X71318571Y-78415000D01*
X71318571Y-78415000D02*
X71461428Y-78367380D01*
X71461428Y-78367380D02*
X71556666Y-78367380D01*
X71556666Y-78367380D02*
X71699523Y-78415000D01*
X71699523Y-78415000D02*
X71747142Y-78462619D01*
X72699523Y-79367380D02*
X72128095Y-79367380D01*
X72413809Y-79367380D02*
X72413809Y-78367380D01*
X72413809Y-78367380D02*
X72318571Y-78510238D01*
X72318571Y-78510238D02*
X72223333Y-78605476D01*
X72223333Y-78605476D02*
X72128095Y-78653095D01*
X73556666Y-78700714D02*
X73556666Y-79367380D01*
X73318571Y-78319761D02*
X73080476Y-79034047D01*
X73080476Y-79034047D02*
X73699523Y-79034047D01*
%TO.C,R8*%
X35174180Y-61939466D02*
X34697990Y-62272799D01*
X35174180Y-62510894D02*
X34174180Y-62510894D01*
X34174180Y-62510894D02*
X34174180Y-62129942D01*
X34174180Y-62129942D02*
X34221800Y-62034704D01*
X34221800Y-62034704D02*
X34269419Y-61987085D01*
X34269419Y-61987085D02*
X34364657Y-61939466D01*
X34364657Y-61939466D02*
X34507514Y-61939466D01*
X34507514Y-61939466D02*
X34602752Y-61987085D01*
X34602752Y-61987085D02*
X34650371Y-62034704D01*
X34650371Y-62034704D02*
X34697990Y-62129942D01*
X34697990Y-62129942D02*
X34697990Y-62510894D01*
X34602752Y-61368037D02*
X34555133Y-61463275D01*
X34555133Y-61463275D02*
X34507514Y-61510894D01*
X34507514Y-61510894D02*
X34412276Y-61558513D01*
X34412276Y-61558513D02*
X34364657Y-61558513D01*
X34364657Y-61558513D02*
X34269419Y-61510894D01*
X34269419Y-61510894D02*
X34221800Y-61463275D01*
X34221800Y-61463275D02*
X34174180Y-61368037D01*
X34174180Y-61368037D02*
X34174180Y-61177561D01*
X34174180Y-61177561D02*
X34221800Y-61082323D01*
X34221800Y-61082323D02*
X34269419Y-61034704D01*
X34269419Y-61034704D02*
X34364657Y-60987085D01*
X34364657Y-60987085D02*
X34412276Y-60987085D01*
X34412276Y-60987085D02*
X34507514Y-61034704D01*
X34507514Y-61034704D02*
X34555133Y-61082323D01*
X34555133Y-61082323D02*
X34602752Y-61177561D01*
X34602752Y-61177561D02*
X34602752Y-61368037D01*
X34602752Y-61368037D02*
X34650371Y-61463275D01*
X34650371Y-61463275D02*
X34697990Y-61510894D01*
X34697990Y-61510894D02*
X34793228Y-61558513D01*
X34793228Y-61558513D02*
X34983704Y-61558513D01*
X34983704Y-61558513D02*
X35078942Y-61510894D01*
X35078942Y-61510894D02*
X35126561Y-61463275D01*
X35126561Y-61463275D02*
X35174180Y-61368037D01*
X35174180Y-61368037D02*
X35174180Y-61177561D01*
X35174180Y-61177561D02*
X35126561Y-61082323D01*
X35126561Y-61082323D02*
X35078942Y-61034704D01*
X35078942Y-61034704D02*
X34983704Y-60987085D01*
X34983704Y-60987085D02*
X34793228Y-60987085D01*
X34793228Y-60987085D02*
X34697990Y-61034704D01*
X34697990Y-61034704D02*
X34650371Y-61082323D01*
X34650371Y-61082323D02*
X34602752Y-61177561D01*
%TO.C,H3*%
X104244380Y-106425904D02*
X103244380Y-106425904D01*
X103720571Y-106425904D02*
X103720571Y-105854476D01*
X104244380Y-105854476D02*
X103244380Y-105854476D01*
X103244380Y-105473523D02*
X103244380Y-104854476D01*
X103244380Y-104854476D02*
X103625333Y-105187809D01*
X103625333Y-105187809D02*
X103625333Y-105044952D01*
X103625333Y-105044952D02*
X103672952Y-104949714D01*
X103672952Y-104949714D02*
X103720571Y-104902095D01*
X103720571Y-104902095D02*
X103815809Y-104854476D01*
X103815809Y-104854476D02*
X104053904Y-104854476D01*
X104053904Y-104854476D02*
X104149142Y-104902095D01*
X104149142Y-104902095D02*
X104196761Y-104949714D01*
X104196761Y-104949714D02*
X104244380Y-105044952D01*
X104244380Y-105044952D02*
X104244380Y-105330666D01*
X104244380Y-105330666D02*
X104196761Y-105425904D01*
X104196761Y-105425904D02*
X104149142Y-105473523D01*
%TO.C,R2*%
X23150533Y-70073780D02*
X22817200Y-69597590D01*
X22579105Y-70073780D02*
X22579105Y-69073780D01*
X22579105Y-69073780D02*
X22960057Y-69073780D01*
X22960057Y-69073780D02*
X23055295Y-69121400D01*
X23055295Y-69121400D02*
X23102914Y-69169019D01*
X23102914Y-69169019D02*
X23150533Y-69264257D01*
X23150533Y-69264257D02*
X23150533Y-69407114D01*
X23150533Y-69407114D02*
X23102914Y-69502352D01*
X23102914Y-69502352D02*
X23055295Y-69549971D01*
X23055295Y-69549971D02*
X22960057Y-69597590D01*
X22960057Y-69597590D02*
X22579105Y-69597590D01*
X23531486Y-69169019D02*
X23579105Y-69121400D01*
X23579105Y-69121400D02*
X23674343Y-69073780D01*
X23674343Y-69073780D02*
X23912438Y-69073780D01*
X23912438Y-69073780D02*
X24007676Y-69121400D01*
X24007676Y-69121400D02*
X24055295Y-69169019D01*
X24055295Y-69169019D02*
X24102914Y-69264257D01*
X24102914Y-69264257D02*
X24102914Y-69359495D01*
X24102914Y-69359495D02*
X24055295Y-69502352D01*
X24055295Y-69502352D02*
X23483867Y-70073780D01*
X23483867Y-70073780D02*
X24102914Y-70073780D01*
%TO.C,BOOT0*%
X12663571Y-81464333D02*
X12711190Y-81321476D01*
X12711190Y-81321476D02*
X12758809Y-81273857D01*
X12758809Y-81273857D02*
X12854047Y-81226238D01*
X12854047Y-81226238D02*
X12996904Y-81226238D01*
X12996904Y-81226238D02*
X13092142Y-81273857D01*
X13092142Y-81273857D02*
X13139761Y-81321476D01*
X13139761Y-81321476D02*
X13187380Y-81416714D01*
X13187380Y-81416714D02*
X13187380Y-81797666D01*
X13187380Y-81797666D02*
X12187380Y-81797666D01*
X12187380Y-81797666D02*
X12187380Y-81464333D01*
X12187380Y-81464333D02*
X12235000Y-81369095D01*
X12235000Y-81369095D02*
X12282619Y-81321476D01*
X12282619Y-81321476D02*
X12377857Y-81273857D01*
X12377857Y-81273857D02*
X12473095Y-81273857D01*
X12473095Y-81273857D02*
X12568333Y-81321476D01*
X12568333Y-81321476D02*
X12615952Y-81369095D01*
X12615952Y-81369095D02*
X12663571Y-81464333D01*
X12663571Y-81464333D02*
X12663571Y-81797666D01*
X12187380Y-80607190D02*
X12187380Y-80416714D01*
X12187380Y-80416714D02*
X12235000Y-80321476D01*
X12235000Y-80321476D02*
X12330238Y-80226238D01*
X12330238Y-80226238D02*
X12520714Y-80178619D01*
X12520714Y-80178619D02*
X12854047Y-80178619D01*
X12854047Y-80178619D02*
X13044523Y-80226238D01*
X13044523Y-80226238D02*
X13139761Y-80321476D01*
X13139761Y-80321476D02*
X13187380Y-80416714D01*
X13187380Y-80416714D02*
X13187380Y-80607190D01*
X13187380Y-80607190D02*
X13139761Y-80702428D01*
X13139761Y-80702428D02*
X13044523Y-80797666D01*
X13044523Y-80797666D02*
X12854047Y-80845285D01*
X12854047Y-80845285D02*
X12520714Y-80845285D01*
X12520714Y-80845285D02*
X12330238Y-80797666D01*
X12330238Y-80797666D02*
X12235000Y-80702428D01*
X12235000Y-80702428D02*
X12187380Y-80607190D01*
X12187380Y-79559571D02*
X12187380Y-79369095D01*
X12187380Y-79369095D02*
X12235000Y-79273857D01*
X12235000Y-79273857D02*
X12330238Y-79178619D01*
X12330238Y-79178619D02*
X12520714Y-79131000D01*
X12520714Y-79131000D02*
X12854047Y-79131000D01*
X12854047Y-79131000D02*
X13044523Y-79178619D01*
X13044523Y-79178619D02*
X13139761Y-79273857D01*
X13139761Y-79273857D02*
X13187380Y-79369095D01*
X13187380Y-79369095D02*
X13187380Y-79559571D01*
X13187380Y-79559571D02*
X13139761Y-79654809D01*
X13139761Y-79654809D02*
X13044523Y-79750047D01*
X13044523Y-79750047D02*
X12854047Y-79797666D01*
X12854047Y-79797666D02*
X12520714Y-79797666D01*
X12520714Y-79797666D02*
X12330238Y-79750047D01*
X12330238Y-79750047D02*
X12235000Y-79654809D01*
X12235000Y-79654809D02*
X12187380Y-79559571D01*
X12187380Y-78845285D02*
X12187380Y-78273857D01*
X13187380Y-78559571D02*
X12187380Y-78559571D01*
X12187380Y-77750047D02*
X12187380Y-77654809D01*
X12187380Y-77654809D02*
X12235000Y-77559571D01*
X12235000Y-77559571D02*
X12282619Y-77511952D01*
X12282619Y-77511952D02*
X12377857Y-77464333D01*
X12377857Y-77464333D02*
X12568333Y-77416714D01*
X12568333Y-77416714D02*
X12806428Y-77416714D01*
X12806428Y-77416714D02*
X12996904Y-77464333D01*
X12996904Y-77464333D02*
X13092142Y-77511952D01*
X13092142Y-77511952D02*
X13139761Y-77559571D01*
X13139761Y-77559571D02*
X13187380Y-77654809D01*
X13187380Y-77654809D02*
X13187380Y-77750047D01*
X13187380Y-77750047D02*
X13139761Y-77845285D01*
X13139761Y-77845285D02*
X13092142Y-77892904D01*
X13092142Y-77892904D02*
X12996904Y-77940523D01*
X12996904Y-77940523D02*
X12806428Y-77988142D01*
X12806428Y-77988142D02*
X12568333Y-77988142D01*
X12568333Y-77988142D02*
X12377857Y-77940523D01*
X12377857Y-77940523D02*
X12282619Y-77892904D01*
X12282619Y-77892904D02*
X12235000Y-77845285D01*
X12235000Y-77845285D02*
X12187380Y-77750047D01*
X22036761Y-82485952D02*
X22084380Y-82343095D01*
X22084380Y-82343095D02*
X22084380Y-82105000D01*
X22084380Y-82105000D02*
X22036761Y-82009762D01*
X22036761Y-82009762D02*
X21989142Y-81962143D01*
X21989142Y-81962143D02*
X21893904Y-81914524D01*
X21893904Y-81914524D02*
X21798666Y-81914524D01*
X21798666Y-81914524D02*
X21703428Y-81962143D01*
X21703428Y-81962143D02*
X21655809Y-82009762D01*
X21655809Y-82009762D02*
X21608190Y-82105000D01*
X21608190Y-82105000D02*
X21560571Y-82295476D01*
X21560571Y-82295476D02*
X21512952Y-82390714D01*
X21512952Y-82390714D02*
X21465333Y-82438333D01*
X21465333Y-82438333D02*
X21370095Y-82485952D01*
X21370095Y-82485952D02*
X21274857Y-82485952D01*
X21274857Y-82485952D02*
X21179619Y-82438333D01*
X21179619Y-82438333D02*
X21132000Y-82390714D01*
X21132000Y-82390714D02*
X21084380Y-82295476D01*
X21084380Y-82295476D02*
X21084380Y-82057381D01*
X21084380Y-82057381D02*
X21132000Y-81914524D01*
X21084380Y-81581190D02*
X22084380Y-81343095D01*
X22084380Y-81343095D02*
X21370095Y-81152619D01*
X21370095Y-81152619D02*
X22084380Y-80962143D01*
X22084380Y-80962143D02*
X21084380Y-80724048D01*
X22179619Y-80581191D02*
X22179619Y-79819286D01*
X22084380Y-79581190D02*
X21084380Y-79581190D01*
X21084380Y-79581190D02*
X21084380Y-79343095D01*
X21084380Y-79343095D02*
X21132000Y-79200238D01*
X21132000Y-79200238D02*
X21227238Y-79105000D01*
X21227238Y-79105000D02*
X21322476Y-79057381D01*
X21322476Y-79057381D02*
X21512952Y-79009762D01*
X21512952Y-79009762D02*
X21655809Y-79009762D01*
X21655809Y-79009762D02*
X21846285Y-79057381D01*
X21846285Y-79057381D02*
X21941523Y-79105000D01*
X21941523Y-79105000D02*
X22036761Y-79200238D01*
X22036761Y-79200238D02*
X22084380Y-79343095D01*
X22084380Y-79343095D02*
X22084380Y-79581190D01*
X22084380Y-78581190D02*
X21084380Y-78581190D01*
X21084380Y-78581190D02*
X21084380Y-78200238D01*
X21084380Y-78200238D02*
X21132000Y-78105000D01*
X21132000Y-78105000D02*
X21179619Y-78057381D01*
X21179619Y-78057381D02*
X21274857Y-78009762D01*
X21274857Y-78009762D02*
X21417714Y-78009762D01*
X21417714Y-78009762D02*
X21512952Y-78057381D01*
X21512952Y-78057381D02*
X21560571Y-78105000D01*
X21560571Y-78105000D02*
X21608190Y-78200238D01*
X21608190Y-78200238D02*
X21608190Y-78581190D01*
X22084380Y-77581190D02*
X21084380Y-77581190D01*
X21084380Y-77581190D02*
X21084380Y-77343095D01*
X21084380Y-77343095D02*
X21132000Y-77200238D01*
X21132000Y-77200238D02*
X21227238Y-77105000D01*
X21227238Y-77105000D02*
X21322476Y-77057381D01*
X21322476Y-77057381D02*
X21512952Y-77009762D01*
X21512952Y-77009762D02*
X21655809Y-77009762D01*
X21655809Y-77009762D02*
X21846285Y-77057381D01*
X21846285Y-77057381D02*
X21941523Y-77105000D01*
X21941523Y-77105000D02*
X22036761Y-77200238D01*
X22036761Y-77200238D02*
X22084380Y-77343095D01*
X22084380Y-77343095D02*
X22084380Y-77581190D01*
X21084380Y-76724047D02*
X21084380Y-76152619D01*
X22084380Y-76438333D02*
X21084380Y-76438333D01*
X22179619Y-76057381D02*
X22179619Y-75295476D01*
X22084380Y-75152618D02*
X21417714Y-74628809D01*
X21417714Y-75152618D02*
X22084380Y-74628809D01*
X21179619Y-74295475D02*
X21132000Y-74247856D01*
X21132000Y-74247856D02*
X21084380Y-74152618D01*
X21084380Y-74152618D02*
X21084380Y-73914523D01*
X21084380Y-73914523D02*
X21132000Y-73819285D01*
X21132000Y-73819285D02*
X21179619Y-73771666D01*
X21179619Y-73771666D02*
X21274857Y-73724047D01*
X21274857Y-73724047D02*
X21370095Y-73724047D01*
X21370095Y-73724047D02*
X21512952Y-73771666D01*
X21512952Y-73771666D02*
X22084380Y-74343094D01*
X22084380Y-74343094D02*
X22084380Y-73724047D01*
%TO.C,J2*%
X20532380Y-35258333D02*
X21246666Y-35258333D01*
X21246666Y-35258333D02*
X21389523Y-35305952D01*
X21389523Y-35305952D02*
X21484761Y-35401190D01*
X21484761Y-35401190D02*
X21532380Y-35544047D01*
X21532380Y-35544047D02*
X21532380Y-35639285D01*
X20627619Y-34829761D02*
X20580000Y-34782142D01*
X20580000Y-34782142D02*
X20532380Y-34686904D01*
X20532380Y-34686904D02*
X20532380Y-34448809D01*
X20532380Y-34448809D02*
X20580000Y-34353571D01*
X20580000Y-34353571D02*
X20627619Y-34305952D01*
X20627619Y-34305952D02*
X20722857Y-34258333D01*
X20722857Y-34258333D02*
X20818095Y-34258333D01*
X20818095Y-34258333D02*
X20960952Y-34305952D01*
X20960952Y-34305952D02*
X21532380Y-34877380D01*
X21532380Y-34877380D02*
X21532380Y-34258333D01*
%TO.C,C40*%
X44467542Y-50462542D02*
X44419923Y-50510161D01*
X44419923Y-50510161D02*
X44277066Y-50557780D01*
X44277066Y-50557780D02*
X44181828Y-50557780D01*
X44181828Y-50557780D02*
X44038971Y-50510161D01*
X44038971Y-50510161D02*
X43943733Y-50414923D01*
X43943733Y-50414923D02*
X43896114Y-50319685D01*
X43896114Y-50319685D02*
X43848495Y-50129209D01*
X43848495Y-50129209D02*
X43848495Y-49986352D01*
X43848495Y-49986352D02*
X43896114Y-49795876D01*
X43896114Y-49795876D02*
X43943733Y-49700638D01*
X43943733Y-49700638D02*
X44038971Y-49605400D01*
X44038971Y-49605400D02*
X44181828Y-49557780D01*
X44181828Y-49557780D02*
X44277066Y-49557780D01*
X44277066Y-49557780D02*
X44419923Y-49605400D01*
X44419923Y-49605400D02*
X44467542Y-49653019D01*
X45324685Y-49891114D02*
X45324685Y-50557780D01*
X45086590Y-49510161D02*
X44848495Y-50224447D01*
X44848495Y-50224447D02*
X45467542Y-50224447D01*
X46038971Y-49557780D02*
X46134209Y-49557780D01*
X46134209Y-49557780D02*
X46229447Y-49605400D01*
X46229447Y-49605400D02*
X46277066Y-49653019D01*
X46277066Y-49653019D02*
X46324685Y-49748257D01*
X46324685Y-49748257D02*
X46372304Y-49938733D01*
X46372304Y-49938733D02*
X46372304Y-50176828D01*
X46372304Y-50176828D02*
X46324685Y-50367304D01*
X46324685Y-50367304D02*
X46277066Y-50462542D01*
X46277066Y-50462542D02*
X46229447Y-50510161D01*
X46229447Y-50510161D02*
X46134209Y-50557780D01*
X46134209Y-50557780D02*
X46038971Y-50557780D01*
X46038971Y-50557780D02*
X45943733Y-50510161D01*
X45943733Y-50510161D02*
X45896114Y-50462542D01*
X45896114Y-50462542D02*
X45848495Y-50367304D01*
X45848495Y-50367304D02*
X45800876Y-50176828D01*
X45800876Y-50176828D02*
X45800876Y-49938733D01*
X45800876Y-49938733D02*
X45848495Y-49748257D01*
X45848495Y-49748257D02*
X45896114Y-49653019D01*
X45896114Y-49653019D02*
X45943733Y-49605400D01*
X45943733Y-49605400D02*
X46038971Y-49557780D01*
%TO.C,C15*%
X75557142Y-79272142D02*
X75509523Y-79319761D01*
X75509523Y-79319761D02*
X75366666Y-79367380D01*
X75366666Y-79367380D02*
X75271428Y-79367380D01*
X75271428Y-79367380D02*
X75128571Y-79319761D01*
X75128571Y-79319761D02*
X75033333Y-79224523D01*
X75033333Y-79224523D02*
X74985714Y-79129285D01*
X74985714Y-79129285D02*
X74938095Y-78938809D01*
X74938095Y-78938809D02*
X74938095Y-78795952D01*
X74938095Y-78795952D02*
X74985714Y-78605476D01*
X74985714Y-78605476D02*
X75033333Y-78510238D01*
X75033333Y-78510238D02*
X75128571Y-78415000D01*
X75128571Y-78415000D02*
X75271428Y-78367380D01*
X75271428Y-78367380D02*
X75366666Y-78367380D01*
X75366666Y-78367380D02*
X75509523Y-78415000D01*
X75509523Y-78415000D02*
X75557142Y-78462619D01*
X76509523Y-79367380D02*
X75938095Y-79367380D01*
X76223809Y-79367380D02*
X76223809Y-78367380D01*
X76223809Y-78367380D02*
X76128571Y-78510238D01*
X76128571Y-78510238D02*
X76033333Y-78605476D01*
X76033333Y-78605476D02*
X75938095Y-78653095D01*
X77414285Y-78367380D02*
X76938095Y-78367380D01*
X76938095Y-78367380D02*
X76890476Y-78843571D01*
X76890476Y-78843571D02*
X76938095Y-78795952D01*
X76938095Y-78795952D02*
X77033333Y-78748333D01*
X77033333Y-78748333D02*
X77271428Y-78748333D01*
X77271428Y-78748333D02*
X77366666Y-78795952D01*
X77366666Y-78795952D02*
X77414285Y-78843571D01*
X77414285Y-78843571D02*
X77461904Y-78938809D01*
X77461904Y-78938809D02*
X77461904Y-79176904D01*
X77461904Y-79176904D02*
X77414285Y-79272142D01*
X77414285Y-79272142D02*
X77366666Y-79319761D01*
X77366666Y-79319761D02*
X77271428Y-79367380D01*
X77271428Y-79367380D02*
X77033333Y-79367380D01*
X77033333Y-79367380D02*
X76938095Y-79319761D01*
X76938095Y-79319761D02*
X76890476Y-79272142D01*
%TO.C,J4*%
X16811666Y-51647380D02*
X16811666Y-52361666D01*
X16811666Y-52361666D02*
X16764047Y-52504523D01*
X16764047Y-52504523D02*
X16668809Y-52599761D01*
X16668809Y-52599761D02*
X16525952Y-52647380D01*
X16525952Y-52647380D02*
X16430714Y-52647380D01*
X17716428Y-51980714D02*
X17716428Y-52647380D01*
X17478333Y-51599761D02*
X17240238Y-52314047D01*
X17240238Y-52314047D02*
X17859285Y-52314047D01*
%TO.C,Y1*%
X32258038Y-56267561D02*
X32258038Y-56572323D01*
X32044705Y-55932323D02*
X32258038Y-56267561D01*
X32258038Y-56267561D02*
X32471372Y-55932323D01*
X33019943Y-56572323D02*
X32654228Y-56572323D01*
X32837085Y-56572323D02*
X32837085Y-55932323D01*
X32837085Y-55932323D02*
X32776133Y-56023752D01*
X32776133Y-56023752D02*
X32715181Y-56084704D01*
X32715181Y-56084704D02*
X32654228Y-56115180D01*
%TO.C,H4*%
X17018095Y-105260380D02*
X17018095Y-104260380D01*
X17018095Y-104736571D02*
X17589523Y-104736571D01*
X17589523Y-105260380D02*
X17589523Y-104260380D01*
X18494285Y-104593714D02*
X18494285Y-105260380D01*
X18256190Y-104212761D02*
X18018095Y-104927047D01*
X18018095Y-104927047D02*
X18637142Y-104927047D01*
%TO.C,R7*%
X56983333Y-17046380D02*
X56650000Y-16570190D01*
X56411905Y-17046380D02*
X56411905Y-16046380D01*
X56411905Y-16046380D02*
X56792857Y-16046380D01*
X56792857Y-16046380D02*
X56888095Y-16094000D01*
X56888095Y-16094000D02*
X56935714Y-16141619D01*
X56935714Y-16141619D02*
X56983333Y-16236857D01*
X56983333Y-16236857D02*
X56983333Y-16379714D01*
X56983333Y-16379714D02*
X56935714Y-16474952D01*
X56935714Y-16474952D02*
X56888095Y-16522571D01*
X56888095Y-16522571D02*
X56792857Y-16570190D01*
X56792857Y-16570190D02*
X56411905Y-16570190D01*
X57316667Y-16046380D02*
X57983333Y-16046380D01*
X57983333Y-16046380D02*
X57554762Y-17046380D01*
D11*
%TO.C,C25*%
X61938748Y-11865000D02*
X62461252Y-11865000D01*
X61938748Y-13335000D02*
X62461252Y-13335000D01*
%TO.C,J3*%
X22038000Y-22793000D02*
X22038000Y-21463000D01*
X23368000Y-22793000D02*
X22038000Y-22793000D01*
X24638000Y-22793000D02*
X24698000Y-22793000D01*
X24638000Y-22793000D02*
X24638000Y-20133000D01*
X24698000Y-22793000D02*
X24698000Y-20133000D01*
X24638000Y-20133000D02*
X24698000Y-20133000D01*
%TO.C,D2*%
X92710000Y-57862500D02*
X92710000Y-57212500D01*
X92710000Y-57862500D02*
X92710000Y-58512500D01*
X89590000Y-57862500D02*
X89590000Y-57212500D01*
X89590000Y-57862500D02*
X89590000Y-59537500D01*
%TO.C,G\u002A\u002A\u002A*%
G36*
X93079855Y-84428213D02*
G01*
X93121615Y-84474892D01*
X93184359Y-84557403D01*
X93269064Y-84677074D01*
X93376707Y-84835236D01*
X93474714Y-84982383D01*
X93741945Y-85393540D01*
X93978857Y-85773694D01*
X94187492Y-86126886D01*
X94369894Y-86457154D01*
X94528104Y-86768539D01*
X94664167Y-87065079D01*
X94780123Y-87350816D01*
X94878017Y-87629788D01*
X94959890Y-87906036D01*
X94967535Y-87934648D01*
X94994432Y-88039756D01*
X95013811Y-88127953D01*
X95026948Y-88211062D01*
X95035119Y-88300904D01*
X95039598Y-88409299D01*
X95041661Y-88548071D01*
X95042154Y-88626292D01*
X95041058Y-88820230D01*
X95034238Y-88977490D01*
X95019610Y-89108956D01*
X94995090Y-89225510D01*
X94958594Y-89338036D01*
X94908038Y-89457415D01*
X94866321Y-89544507D01*
X94722761Y-89785895D01*
X94546910Y-89993064D01*
X94337805Y-90166797D01*
X94094485Y-90307875D01*
X93815986Y-90417082D01*
X93779300Y-90428337D01*
X93685476Y-90454296D01*
X93597434Y-90473091D01*
X93502912Y-90486284D01*
X93389650Y-90495434D01*
X93245386Y-90502104D01*
X93183187Y-90504208D01*
X93057274Y-90507119D01*
X92937290Y-90507137D01*
X92818322Y-90503606D01*
X92695457Y-90495872D01*
X92563785Y-90483277D01*
X92418391Y-90465165D01*
X92254365Y-90440883D01*
X92066793Y-90409772D01*
X91850764Y-90371179D01*
X91601365Y-90324446D01*
X91313684Y-90268918D01*
X91085164Y-90224123D01*
X90716506Y-90152164D01*
X90388293Y-90089582D01*
X90094404Y-90035414D01*
X89828718Y-89988696D01*
X89585117Y-89948462D01*
X89357478Y-89913750D01*
X89139682Y-89883594D01*
X88925609Y-89857031D01*
X88709138Y-89833097D01*
X88484148Y-89810827D01*
X88429271Y-89805721D01*
X88253753Y-89789565D01*
X88268328Y-89905534D01*
X88278160Y-89998188D01*
X88289892Y-90132981D01*
X88303178Y-90304407D01*
X88317670Y-90506960D01*
X88333020Y-90735131D01*
X88348881Y-90983415D01*
X88364905Y-91246304D01*
X88380745Y-91518292D01*
X88396054Y-91793872D01*
X88410484Y-92067537D01*
X88423687Y-92333780D01*
X88429890Y-92466104D01*
X88436779Y-92649085D01*
X88442698Y-92872365D01*
X88447647Y-93129773D01*
X88451627Y-93415140D01*
X88454638Y-93722295D01*
X88456680Y-94045067D01*
X88457754Y-94377286D01*
X88457861Y-94712782D01*
X88456999Y-95045383D01*
X88455171Y-95368919D01*
X88452376Y-95677221D01*
X88448614Y-95964117D01*
X88443886Y-96223437D01*
X88438193Y-96449010D01*
X88431534Y-96634666D01*
X88429647Y-96675587D01*
X88402969Y-97185468D01*
X88373955Y-97671238D01*
X88343018Y-98126776D01*
X88310568Y-98545958D01*
X88282043Y-98869766D01*
X88265243Y-99041562D01*
X88246023Y-99226159D01*
X88225157Y-99417170D01*
X88203424Y-99608211D01*
X88181597Y-99792897D01*
X88160454Y-99964843D01*
X88140770Y-100117665D01*
X88123322Y-100244978D01*
X88108885Y-100340397D01*
X88098236Y-100397536D01*
X88094977Y-100408841D01*
X88085200Y-100419988D01*
X88063111Y-100425941D01*
X88023004Y-100426143D01*
X87959175Y-100420037D01*
X87865919Y-100407065D01*
X87737531Y-100386669D01*
X87568307Y-100358293D01*
X87555399Y-100356097D01*
X87365249Y-100323732D01*
X87155929Y-100288088D01*
X86944204Y-100252022D01*
X86746844Y-100218390D01*
X86588248Y-100191350D01*
X86145792Y-100115888D01*
X86187592Y-99811436D01*
X86211465Y-99625118D01*
X86237372Y-99401038D01*
X86264363Y-99149040D01*
X86291484Y-98878970D01*
X86317784Y-98600669D01*
X86342311Y-98323984D01*
X86364112Y-98058758D01*
X86382236Y-97814835D01*
X86385920Y-97760752D01*
X86406845Y-97435812D01*
X86424584Y-97132909D01*
X86439369Y-96844221D01*
X86451431Y-96561929D01*
X86461003Y-96278213D01*
X86468316Y-95985253D01*
X86473602Y-95675228D01*
X86477094Y-95340319D01*
X86479022Y-94972705D01*
X86479615Y-94600658D01*
X86478424Y-94088208D01*
X86474357Y-93614228D01*
X86467057Y-93169555D01*
X86456166Y-92745024D01*
X86441327Y-92331474D01*
X86422181Y-91919740D01*
X86398371Y-91500659D01*
X86369540Y-91065068D01*
X86335330Y-90603803D01*
X86312323Y-90313991D01*
X86270299Y-89795587D01*
X86149657Y-89807280D01*
X85550726Y-89872227D01*
X84989488Y-89948042D01*
X84456776Y-90036695D01*
X83943421Y-90140157D01*
X83440254Y-90260400D01*
X82938106Y-90399395D01*
X82427809Y-90559112D01*
X82046103Y-90689492D01*
X81917406Y-90734800D01*
X81802779Y-90775012D01*
X81710496Y-90807235D01*
X81648830Y-90828578D01*
X81627837Y-90835648D01*
X81614738Y-90829883D01*
X81595764Y-90803588D01*
X81569447Y-90753356D01*
X81534319Y-90675783D01*
X81488911Y-90567463D01*
X81431756Y-90424990D01*
X81361384Y-90244958D01*
X81276327Y-90023961D01*
X81264128Y-89992081D01*
X81190982Y-89799586D01*
X81123536Y-89619721D01*
X81063661Y-89457657D01*
X81013229Y-89318565D01*
X80974111Y-89207616D01*
X80948180Y-89129980D01*
X80937307Y-89090830D01*
X80937089Y-89088491D01*
X80942247Y-89055116D01*
X80960625Y-89023633D01*
X80996585Y-88991928D01*
X81054485Y-88957889D01*
X81138687Y-88919400D01*
X81253549Y-88874349D01*
X81403431Y-88820621D01*
X81592695Y-88756104D01*
X81689143Y-88723896D01*
X82379206Y-88506423D01*
X83048037Y-88320913D01*
X83707392Y-88164877D01*
X84369028Y-88035824D01*
X85044700Y-87931264D01*
X85746166Y-87848708D01*
X85885916Y-87835059D01*
X86008169Y-87826296D01*
X86170319Y-87818919D01*
X86365343Y-87812930D01*
X86586219Y-87808332D01*
X86825925Y-87805128D01*
X87077438Y-87803319D01*
X87333737Y-87802907D01*
X87587799Y-87803895D01*
X87832602Y-87806286D01*
X88061125Y-87810080D01*
X88266343Y-87815282D01*
X88441236Y-87821892D01*
X88578782Y-87829914D01*
X88628639Y-87834183D01*
X88918897Y-87864415D01*
X89197805Y-87896776D01*
X89472565Y-87932407D01*
X89750376Y-87972447D01*
X90038439Y-88018037D01*
X90343953Y-88070317D01*
X90674120Y-88130428D01*
X91036139Y-88199508D01*
X91437210Y-88278700D01*
X91442911Y-88279840D01*
X91749952Y-88340755D01*
X92014178Y-88391953D01*
X92239339Y-88434054D01*
X92429184Y-88467684D01*
X92587464Y-88493463D01*
X92717929Y-88512014D01*
X92824328Y-88523961D01*
X92910412Y-88529926D01*
X92954924Y-88530892D01*
X93026457Y-88529697D01*
X93060917Y-88521787D01*
X93068930Y-88500677D01*
X93062375Y-88465306D01*
X93012704Y-88289496D01*
X92938871Y-88083364D01*
X92844288Y-87855512D01*
X92732363Y-87614542D01*
X92695989Y-87541127D01*
X92585473Y-87325859D01*
X92475303Y-87121480D01*
X92360422Y-86919499D01*
X92235774Y-86711429D01*
X92096305Y-86488781D01*
X91936958Y-86243066D01*
X91798900Y-86034849D01*
X91461835Y-85530260D01*
X92243201Y-84979584D01*
X92414933Y-84858814D01*
X92575265Y-84746563D01*
X92719845Y-84645841D01*
X92844320Y-84559657D01*
X92944338Y-84491020D01*
X93015547Y-84442942D01*
X93053594Y-84418430D01*
X93058101Y-84416038D01*
X93079855Y-84428213D01*
G37*
G36*
X93505916Y-91818851D02*
G01*
X93505916Y-92173289D01*
X93774225Y-92214404D01*
X94183111Y-92292859D01*
X94555464Y-92397117D01*
X94890289Y-92526734D01*
X95186587Y-92681266D01*
X95443360Y-92860270D01*
X95643974Y-93046345D01*
X95730411Y-93145317D01*
X95806755Y-93244668D01*
X95868316Y-93336908D01*
X95910405Y-93414549D01*
X95928333Y-93470101D01*
X95923349Y-93492523D01*
X95897502Y-93507114D01*
X95833518Y-93539160D01*
X95736595Y-93586177D01*
X95611929Y-93645680D01*
X95464715Y-93715183D01*
X95300151Y-93792203D01*
X95175399Y-93850193D01*
X95001289Y-93931190D01*
X94840502Y-94006543D01*
X94698298Y-94073744D01*
X94579936Y-94130285D01*
X94490677Y-94173659D01*
X94435779Y-94201358D01*
X94420581Y-94210103D01*
X94379994Y-94212855D01*
X94311219Y-94177157D01*
X94305505Y-94173324D01*
X94156062Y-94092903D01*
X93962240Y-94023757D01*
X93726134Y-93966411D01*
X93449837Y-93921389D01*
X93189244Y-93893565D01*
X92946248Y-93881479D01*
X92688929Y-93883932D01*
X92427584Y-93899796D01*
X92172506Y-93927947D01*
X91933992Y-93967258D01*
X91722337Y-94016602D01*
X91553742Y-94072461D01*
X91419061Y-94126600D01*
X91412939Y-95796758D01*
X91406816Y-97466916D01*
X91983233Y-97482660D01*
X92160086Y-97486747D01*
X92372174Y-97490438D01*
X92607036Y-97493592D01*
X92852207Y-97496065D01*
X93095224Y-97497714D01*
X93323625Y-97498394D01*
X93352202Y-97498404D01*
X93569675Y-97498196D01*
X93744181Y-97497422D01*
X93880453Y-97495863D01*
X93983223Y-97493297D01*
X94057224Y-97489502D01*
X94107188Y-97484258D01*
X94137846Y-97477344D01*
X94153932Y-97468537D01*
X94159233Y-97460679D01*
X94164512Y-97423936D01*
X94168930Y-97349400D01*
X94172097Y-97246974D01*
X94173627Y-97126561D01*
X94173709Y-97091008D01*
X94173709Y-96759061D01*
X93362817Y-96759061D01*
X92551925Y-96759061D01*
X92551925Y-95888545D01*
X92551925Y-95018029D01*
X94235270Y-95018029D01*
X95918616Y-95018029D01*
X95910716Y-97110845D01*
X95909769Y-97427028D01*
X95909329Y-97732625D01*
X95909375Y-98023844D01*
X95909885Y-98296891D01*
X95910837Y-98547974D01*
X95912208Y-98773297D01*
X95913976Y-98969070D01*
X95916120Y-99131497D01*
X95918618Y-99256786D01*
X95921447Y-99341144D01*
X95923882Y-99376194D01*
X95927937Y-99598310D01*
X95887822Y-99813509D01*
X95807051Y-100016136D01*
X95689137Y-100200537D01*
X95537594Y-100361057D01*
X95355934Y-100492041D01*
X95177910Y-100576898D01*
X94948431Y-100640564D01*
X94721954Y-100656861D01*
X94496817Y-100625702D01*
X94271356Y-100547001D01*
X94230141Y-100527550D01*
X94031289Y-100404601D01*
X93864954Y-100249194D01*
X93734008Y-100066245D01*
X93641328Y-99860666D01*
X93589787Y-99637372D01*
X93581287Y-99418261D01*
X93589963Y-99246436D01*
X93220005Y-99231091D01*
X93070265Y-99226004D01*
X92889541Y-99221620D01*
X92694549Y-99218243D01*
X92502003Y-99216175D01*
X92370274Y-99215667D01*
X91890500Y-99215587D01*
X91902418Y-99382157D01*
X91896890Y-99615396D01*
X91848905Y-99834755D01*
X91762645Y-100036371D01*
X91642289Y-100216379D01*
X91492018Y-100370915D01*
X91316013Y-100496115D01*
X91118453Y-100588116D01*
X90903518Y-100643053D01*
X90675390Y-100657063D01*
X90536620Y-100644614D01*
X90331327Y-100591392D01*
X90136987Y-100496791D01*
X89959996Y-100366912D01*
X89806750Y-100207858D01*
X89683643Y-100025731D01*
X89597071Y-99826632D01*
X89569284Y-99721667D01*
X89552227Y-99577268D01*
X89553286Y-99413260D01*
X89571033Y-99249582D01*
X89604040Y-99106173D01*
X89615775Y-99072489D01*
X89623690Y-99051288D01*
X89630729Y-99029490D01*
X89636942Y-99004314D01*
X89642380Y-98972979D01*
X89647096Y-98932705D01*
X89651141Y-98880710D01*
X89654567Y-98814214D01*
X89657424Y-98730436D01*
X89659765Y-98626595D01*
X89661641Y-98499909D01*
X89663103Y-98347599D01*
X89664204Y-98166884D01*
X89664994Y-97954981D01*
X89665525Y-97709112D01*
X89665849Y-97426494D01*
X89666017Y-97104347D01*
X89666080Y-96739890D01*
X89666091Y-96357058D01*
X89666068Y-95939410D01*
X89666084Y-95566639D01*
X89666275Y-95235921D01*
X89666776Y-94944434D01*
X89667721Y-94689353D01*
X89669247Y-94467857D01*
X89671487Y-94277122D01*
X89674578Y-94114326D01*
X89678654Y-93976644D01*
X89683851Y-93861254D01*
X89690303Y-93765334D01*
X89698146Y-93686059D01*
X89707515Y-93620608D01*
X89718545Y-93566156D01*
X89731371Y-93519881D01*
X89746128Y-93478960D01*
X89762952Y-93440570D01*
X89781977Y-93401888D01*
X89803339Y-93360090D01*
X89810190Y-93346588D01*
X89942670Y-93136175D01*
X90117820Y-92943144D01*
X90333514Y-92768498D01*
X90587623Y-92613237D01*
X90878020Y-92478362D01*
X91202578Y-92364876D01*
X91559168Y-92273778D01*
X91945664Y-92206070D01*
X92319390Y-92165798D01*
X92528075Y-92149497D01*
X92528075Y-91806955D01*
X92528075Y-91464414D01*
X93016995Y-91464414D01*
X93505916Y-91464414D01*
X93505916Y-91818851D01*
G37*
G36*
X87575266Y-84001473D02*
G01*
X87827501Y-84066346D01*
X88065603Y-84170042D01*
X88284683Y-84310458D01*
X88479854Y-84485489D01*
X88646229Y-84693031D01*
X88772818Y-84917653D01*
X88867470Y-85176368D01*
X88916750Y-85441085D01*
X88921685Y-85706740D01*
X88883301Y-85968266D01*
X88802624Y-86220598D01*
X88680681Y-86458670D01*
X88518497Y-86677417D01*
X88389681Y-86808953D01*
X88224619Y-86938288D01*
X88033583Y-87052284D01*
X87834831Y-87140991D01*
X87706388Y-87181336D01*
X87559899Y-87209136D01*
X87394089Y-87225947D01*
X87229274Y-87230588D01*
X87085774Y-87221876D01*
X87063367Y-87218735D01*
X86800762Y-87154683D01*
X86553964Y-87049410D01*
X86327997Y-86907108D01*
X86127886Y-86731967D01*
X85958653Y-86528179D01*
X85825323Y-86299935D01*
X85756124Y-86128096D01*
X85691398Y-85862250D01*
X85671565Y-85596719D01*
X85694328Y-85336131D01*
X85757388Y-85085113D01*
X85858449Y-84848292D01*
X85995211Y-84630295D01*
X86165378Y-84435751D01*
X86366652Y-84269285D01*
X86596735Y-84135527D01*
X86782638Y-84060838D01*
X87047947Y-83996614D01*
X87313786Y-83977528D01*
X87575266Y-84001473D01*
G37*
%TO.C,C41*%
X35603548Y-52195400D02*
X36126052Y-52195400D01*
X35603548Y-50725400D02*
X36126052Y-50725400D01*
%TO.C,J6*%
X13470000Y-27130000D02*
X13470000Y-27070000D01*
X16130000Y-27070000D02*
X13470000Y-27070000D01*
X16130000Y-27130000D02*
X13470000Y-27130000D01*
X16130000Y-27130000D02*
X16130000Y-27070000D01*
X16130000Y-28400000D02*
X16130000Y-29730000D01*
X16130000Y-29730000D02*
X14800000Y-29730000D01*
%TO.C,C32*%
X23629252Y-28704000D02*
X23106748Y-28704000D01*
X23629252Y-27234000D02*
X23106748Y-27234000D01*
%TO.C,C18*%
X71858200Y-86759148D02*
X71858200Y-87281652D01*
X73328200Y-86759148D02*
X73328200Y-87281652D01*
%TO.C,C6*%
X46870252Y-17880000D02*
X46347748Y-17880000D01*
X46870252Y-16410000D02*
X46347748Y-16410000D01*
%TO.C,RV1*%
X35328000Y-31436000D02*
X34628000Y-31436000D01*
X33728000Y-31936000D02*
X33328000Y-31936000D01*
X35328000Y-32136000D02*
X35328000Y-31436000D01*
X35128000Y-33036000D02*
X35128000Y-35936000D01*
X31928000Y-33036000D02*
X31928000Y-35936000D01*
X35128000Y-35936000D02*
X34528000Y-35936000D01*
X31928000Y-35936000D02*
X32528000Y-35936000D01*
%TO.C,J10*%
X108930000Y-21349000D02*
G75*
G03*
X108930000Y-21349000I-1680000J0D01*
G01*
X108930000Y-24849000D02*
G75*
G03*
X108930000Y-24849000I-1680000J0D01*
G01*
X108930000Y-28349000D02*
G75*
G03*
X108930000Y-28349000I-1680000J0D01*
G01*
X108930000Y-31849000D02*
G75*
G03*
X108930000Y-31849000I-1680000J0D01*
G01*
X108930000Y-35349000D02*
G75*
G03*
X108930000Y-35349000I-1680000J0D01*
G01*
X108140999Y-37424001D02*
G75*
G03*
X106359808Y-37423497I-890999J-1425002D01*
G01*
X108929999Y-38849000D02*
G75*
G03*
X108674720Y-37958736I-1679989J3D01*
G01*
X108690000Y-39715000D02*
G75*
G03*
X108930098Y-38820326I-1440014J866003D01*
G01*
X105810000Y-37983000D02*
G75*
G03*
X105824642Y-39738894I1439998J-866000D01*
G01*
X106384000Y-40289000D02*
G75*
G03*
X108139894Y-40274358I866000J1439998D01*
G01*
X104090000Y-19538000D02*
X111810000Y-19538000D01*
X106181000Y-20074000D02*
X106309000Y-20203000D01*
X105975000Y-20279000D02*
X106069000Y-20373000D01*
X108431000Y-22324000D02*
X108524000Y-22418000D01*
X108191000Y-22494000D02*
X108319000Y-22623000D01*
X106181000Y-23574000D02*
X106309000Y-23703000D01*
X105975000Y-23779000D02*
X106069000Y-23873000D01*
X108431000Y-25824000D02*
X108524000Y-25918000D01*
X108191000Y-25994000D02*
X108319000Y-26123000D01*
X106181000Y-27074000D02*
X106309000Y-27203000D01*
X105975000Y-27279000D02*
X106069000Y-27373000D01*
X108431000Y-29324000D02*
X108524000Y-29418000D01*
X108191000Y-29494000D02*
X108319000Y-29623000D01*
X106181000Y-30574000D02*
X106309000Y-30703000D01*
X105975000Y-30779000D02*
X106069000Y-30873000D01*
X108431000Y-32824000D02*
X108524000Y-32918000D01*
X108191000Y-32994000D02*
X108319000Y-33123000D01*
X106181000Y-34074000D02*
X106309000Y-34203000D01*
X105975000Y-34279000D02*
X106069000Y-34373000D01*
X108431000Y-36324000D02*
X108524000Y-36418000D01*
X108191000Y-36494000D02*
X108319000Y-36623000D01*
X111810000Y-40659000D02*
X111810000Y-19538000D01*
X111350000Y-40659000D02*
X111350000Y-19538000D01*
X110250000Y-40659000D02*
X110250000Y-19538000D01*
X104090000Y-40659000D02*
X104090000Y-19538000D01*
X104090000Y-40659000D02*
X111810000Y-40659000D01*
X112050000Y-40899000D02*
X112050000Y-40499000D01*
X111410000Y-40899000D02*
X112050000Y-40899000D01*
%TO.C,C23*%
X76477800Y-71584452D02*
X76477800Y-71061948D01*
X75007800Y-71584452D02*
X75007800Y-71061948D01*
%TO.C,J9*%
X59055000Y-101540000D02*
X66735000Y-101540000D01*
X66735000Y-104200000D02*
X66735000Y-101540000D01*
X59055000Y-104200000D02*
X59055000Y-101540000D01*
X59055000Y-104200000D02*
X66735000Y-104200000D01*
X57785000Y-104200000D02*
X56455000Y-104200000D01*
X56455000Y-104200000D02*
X56455000Y-102870000D01*
%TO.C,D1*%
X92510000Y-62062500D02*
X92510000Y-61412500D01*
X92510000Y-62062500D02*
X92510000Y-62712500D01*
X89390000Y-62062500D02*
X89390000Y-61412500D01*
X89390000Y-62062500D02*
X89390000Y-63737500D01*
D12*
%TO.C,12V_IC*%
X48772500Y-23304000D02*
X53472500Y-23304000D01*
X53472500Y-23304000D02*
X53472500Y-12764000D01*
X48772500Y-12764000D02*
X48772500Y-23304000D01*
X53472500Y-12764000D02*
X48772500Y-12764000D01*
D13*
X54272500Y-20574000D02*
G75*
G03*
X54272500Y-20574000I-100000J0D01*
G01*
D11*
%TO.C,Y2*%
X44029000Y-92264200D02*
X45379000Y-92264200D01*
X44029000Y-90514200D02*
X45379000Y-90514200D01*
%TO.C,R10*%
X41397600Y-92827464D02*
X41397600Y-91373336D01*
X39577600Y-92827464D02*
X39577600Y-91373336D01*
D12*
%TO.C,5V*%
X25715000Y-36258000D02*
X30415000Y-36258000D01*
X30415000Y-36258000D02*
X30415000Y-25718000D01*
X25715000Y-25718000D02*
X25715000Y-36258000D01*
X30415000Y-25718000D02*
X25715000Y-25718000D01*
D13*
X31215000Y-33528000D02*
G75*
G03*
X31215000Y-33528000I-100000J0D01*
G01*
D11*
%TO.C,C33*%
X23502252Y-14578000D02*
X22979748Y-14578000D01*
X23502252Y-13108000D02*
X22979748Y-13108000D01*
%TO.C,C22*%
X73467800Y-71584452D02*
X73467800Y-71061948D01*
X71997800Y-71584452D02*
X71997800Y-71061948D01*
%TO.C,C19*%
X75458200Y-86759148D02*
X75458200Y-87281652D01*
X76928200Y-86759148D02*
X76928200Y-87281652D01*
%TO.C,C1*%
X97735000Y-30436452D02*
X97735000Y-29913948D01*
X96265000Y-30436452D02*
X96265000Y-29913948D01*
%TO.C,D3*%
X85918400Y-56888100D02*
X85918400Y-56238100D01*
X85918400Y-56888100D02*
X85918400Y-57538100D01*
X82798400Y-56888100D02*
X82798400Y-56238100D01*
X82798400Y-56888100D02*
X82798400Y-58563100D01*
%TO.C,C20*%
X70135000Y-81461252D02*
X70135000Y-80938748D01*
X68665000Y-81461252D02*
X68665000Y-80938748D01*
%TO.C,C35*%
X63492748Y-28348000D02*
X64015252Y-28348000D01*
X63492748Y-29818000D02*
X64015252Y-29818000D01*
%TO.C,C21*%
X63405652Y-84964600D02*
X62883148Y-84964600D01*
X63405652Y-86434600D02*
X62883148Y-86434600D01*
%TO.C,C29*%
X46362252Y-31977000D02*
X45839748Y-31977000D01*
X46362252Y-30507000D02*
X45839748Y-30507000D01*
%TO.C,BOOT1*%
G36*
X14095000Y-91418000D02*
G01*
X11995000Y-91418000D01*
X11995000Y-89418000D01*
X14095000Y-89418000D01*
X14095000Y-91418000D01*
G37*
D12*
X14095000Y-91418000D02*
X11995000Y-91418000D01*
X11995000Y-89418000D01*
X14095000Y-89418000D01*
X14095000Y-91418000D01*
X14295000Y-100218000D02*
X19895000Y-100218000D01*
X16145000Y-99668000D02*
X18145000Y-99668000D01*
X16145000Y-99668000D02*
X16145000Y-99168000D01*
X18145000Y-99668000D02*
X18145000Y-99168000D01*
X18145000Y-99168000D02*
X16145000Y-99168000D01*
X16145000Y-87168000D02*
X18145000Y-87168000D01*
X16145000Y-87168000D02*
X16145000Y-86668000D01*
X16145000Y-86668000D02*
X18145000Y-86668000D01*
X18145000Y-86668000D02*
X18145000Y-87168000D01*
X14295000Y-86118000D02*
X14295000Y-100218000D01*
X19895000Y-86118000D02*
X19895000Y-100218000D01*
X19895000Y-86118000D02*
X14345000Y-86118000D01*
D11*
%TO.C,C38*%
X27932748Y-95731000D02*
X28455252Y-95731000D01*
X27932748Y-94261000D02*
X28455252Y-94261000D01*
%TO.C,J1*%
X43870000Y-37730000D02*
X43870000Y-36400000D01*
X45200000Y-37730000D02*
X43870000Y-37730000D01*
X46470000Y-37730000D02*
X46530000Y-37730000D01*
X46470000Y-37730000D02*
X46470000Y-35070000D01*
X46530000Y-37730000D02*
X46530000Y-35070000D01*
X46470000Y-35070000D02*
X46530000Y-35070000D01*
%TO.C,C28*%
X40647252Y-21944000D02*
X40124748Y-21944000D01*
X40647252Y-20474000D02*
X40124748Y-20474000D01*
%TO.C,C39*%
X28795652Y-70842200D02*
X28273148Y-70842200D01*
X28795652Y-72312200D02*
X28273148Y-72312200D01*
%TO.C,R4*%
X24373864Y-86161200D02*
X22919736Y-86161200D01*
X24373864Y-87981200D02*
X22919736Y-87981200D01*
%TO.C,C4*%
X61841748Y-14378000D02*
X62364252Y-14378000D01*
X61841748Y-15848000D02*
X62364252Y-15848000D01*
%TO.C,SW3*%
X31619000Y-102096000D02*
X31619000Y-100596000D01*
X30369000Y-98096000D02*
X25869000Y-98096000D01*
X25869000Y-104596000D02*
X30369000Y-104596000D01*
X24619000Y-100596000D02*
X24619000Y-102096000D01*
%TO.C,J7*%
X41148000Y-101667000D02*
X53908000Y-101667000D01*
X53908000Y-104327000D02*
X53908000Y-101667000D01*
X41148000Y-104327000D02*
X41148000Y-101667000D01*
X41148000Y-104327000D02*
X53908000Y-104327000D01*
X39878000Y-104327000D02*
X38548000Y-104327000D01*
X38548000Y-104327000D02*
X38548000Y-102997000D01*
%TO.C,C31*%
X23629252Y-32104000D02*
X23106748Y-32104000D01*
X23629252Y-30634000D02*
X23106748Y-30634000D01*
%TO.C,C27*%
X39362748Y-33428000D02*
X39885252Y-33428000D01*
X39362748Y-34898000D02*
X39885252Y-34898000D01*
%TO.C,U5*%
X95315000Y-49764200D02*
X95315000Y-44523200D01*
X95315000Y-49764200D02*
X74875000Y-49764200D01*
X95315000Y-47924200D02*
X74875000Y-47924200D01*
X95315000Y-44523200D02*
X93639000Y-44523200D01*
X93985000Y-44523200D02*
X93985000Y-41114200D01*
X91790000Y-44523200D02*
X91099000Y-44523200D01*
X91445000Y-44523200D02*
X91445000Y-41129200D01*
X89250000Y-44523200D02*
X88559000Y-44523200D01*
X88905000Y-44523200D02*
X88905000Y-41129200D01*
X86944000Y-49764200D02*
X86944000Y-47924200D01*
X86710000Y-44523200D02*
X86019000Y-44523200D01*
X86365000Y-44523200D02*
X86365000Y-41129200D01*
X84170000Y-44523200D02*
X83479000Y-44523200D01*
X83825000Y-44523200D02*
X83825000Y-41129200D01*
X83245000Y-49764200D02*
X83245000Y-47924200D01*
X81630000Y-44523200D02*
X80939000Y-44523200D01*
X81285000Y-44523200D02*
X81285000Y-41129200D01*
X79090000Y-44523200D02*
X78399000Y-44523200D01*
X78745000Y-44523200D02*
X78745000Y-41129200D01*
X76550000Y-44523200D02*
X74875000Y-44523200D01*
X76205000Y-44523200D02*
X76205000Y-41129200D01*
X74875000Y-49764200D02*
X74875000Y-44523200D01*
D13*
%TO.C,POW1*%
X17922500Y-17940000D02*
G75*
G03*
X17922500Y-17940000I-100000J0D01*
G01*
X15700000Y-23850000D02*
G75*
G03*
X15700000Y-23850000I-100000J0D01*
G01*
D12*
X19600000Y-7700000D02*
X19600000Y-23100000D01*
X11600000Y-7700000D02*
X19600000Y-7700000D01*
X19600000Y-23100000D02*
X11600000Y-23100000D01*
X11600000Y-23100000D02*
X11600000Y-7700000D01*
D11*
%TO.C,C42*%
X43864200Y-95003252D02*
X43864200Y-94480748D01*
X42394200Y-95003252D02*
X42394200Y-94480748D01*
%TO.C,POW3*%
X110580000Y-52650000D02*
G75*
G03*
X110580000Y-52650000I-1680000J0D01*
G01*
X109790999Y-54725001D02*
G75*
G03*
X108009808Y-54724497I-890999J-1425002D01*
G01*
X110579999Y-56150000D02*
G75*
G03*
X110324720Y-55259736I-1679989J3D01*
G01*
X110340000Y-57016000D02*
G75*
G03*
X110580098Y-56121326I-1440014J866003D01*
G01*
X107460000Y-55284000D02*
G75*
G03*
X107474642Y-57039894I1439998J-866000D01*
G01*
X108034000Y-57590000D02*
G75*
G03*
X109789894Y-57575358I866000J1439998D01*
G01*
X105740000Y-50840000D02*
X113460000Y-50840000D01*
X107831000Y-51375000D02*
X107959000Y-51504000D01*
X107625000Y-51580000D02*
X107719000Y-51674000D01*
X110081000Y-53625000D02*
X110174000Y-53719000D01*
X109841000Y-53795000D02*
X109969000Y-53924000D01*
X113460000Y-57960000D02*
X113460000Y-50840000D01*
X113000000Y-57960000D02*
X113000000Y-50840000D01*
X111900000Y-57960000D02*
X111900000Y-50840000D01*
X105740000Y-57960000D02*
X105740000Y-50840000D01*
X105740000Y-57960000D02*
X113460000Y-57960000D01*
X113700000Y-58200000D02*
X113700000Y-57800000D01*
X113060000Y-58200000D02*
X113700000Y-58200000D01*
%TO.C,R1*%
X34636064Y-28977000D02*
X33181936Y-28977000D01*
X34636064Y-27157000D02*
X33181936Y-27157000D01*
%TO.C,C34*%
X23502252Y-18261000D02*
X22979748Y-18261000D01*
X23502252Y-16791000D02*
X22979748Y-16791000D01*
%TO.C,RV3*%
X36344000Y-18228000D02*
X35644000Y-18228000D01*
X34744000Y-18728000D02*
X34344000Y-18728000D01*
X36344000Y-18928000D02*
X36344000Y-18228000D01*
X36144000Y-19828000D02*
X36144000Y-22728000D01*
X32944000Y-19828000D02*
X32944000Y-22728000D01*
X36144000Y-22728000D02*
X35544000Y-22728000D01*
X32944000Y-22728000D02*
X33544000Y-22728000D01*
%TO.C,U7*%
X59085000Y-79913000D02*
X59085000Y-78963000D01*
X59085000Y-69693000D02*
X59085000Y-70643000D01*
X58135000Y-79913000D02*
X59085000Y-79913000D01*
X58135000Y-69693000D02*
X59085000Y-69693000D01*
X49815000Y-79913000D02*
X48865000Y-79913000D01*
X49815000Y-69693000D02*
X48865000Y-69693000D01*
X48865000Y-79913000D02*
X48865000Y-78963000D01*
X48865000Y-70643000D02*
X47525000Y-70643000D01*
X48865000Y-69693000D02*
X48865000Y-70643000D01*
%TO.C,D4*%
X85954000Y-61640200D02*
X85954000Y-60990200D01*
X85954000Y-61640200D02*
X85954000Y-62290200D01*
X82834000Y-61640200D02*
X82834000Y-60990200D01*
X82834000Y-61640200D02*
X82834000Y-63315200D01*
%TO.C,C5*%
X46870252Y-21182000D02*
X46347748Y-21182000D01*
X46870252Y-19712000D02*
X46347748Y-19712000D01*
%TO.C,RV2*%
X59712000Y-32579000D02*
X59012000Y-32579000D01*
X58112000Y-33079000D02*
X57712000Y-33079000D01*
X59712000Y-33279000D02*
X59712000Y-32579000D01*
X59512000Y-34179000D02*
X59512000Y-37079000D01*
X56312000Y-34179000D02*
X56312000Y-37079000D01*
X59512000Y-37079000D02*
X58912000Y-37079000D01*
X56312000Y-37079000D02*
X56912000Y-37079000D01*
%TO.C,C2*%
X93535000Y-30461252D02*
X93535000Y-29938748D01*
X92065000Y-30461252D02*
X92065000Y-29938748D01*
%TO.C,R9*%
X47756400Y-91373336D02*
X47756400Y-92827464D01*
X49576400Y-91373336D02*
X49576400Y-92827464D01*
%TO.C,C36*%
X36279148Y-77845800D02*
X36801652Y-77845800D01*
X36279148Y-76375800D02*
X36801652Y-76375800D01*
D12*
%TO.C,3.3V*%
X25785500Y-23050000D02*
X30485500Y-23050000D01*
X30485500Y-23050000D02*
X30485500Y-12510000D01*
X25785500Y-12510000D02*
X25785500Y-23050000D01*
X30485500Y-12510000D02*
X25785500Y-12510000D01*
D13*
X31285500Y-20320000D02*
G75*
G03*
X31285500Y-20320000I-100000J0D01*
G01*
D11*
%TO.C,C43*%
X46810600Y-94901652D02*
X46810600Y-94379148D01*
X45340600Y-94901652D02*
X45340600Y-94379148D01*
%TO.C,C17*%
X77138200Y-81526052D02*
X77138200Y-81003548D01*
X75668200Y-81526052D02*
X75668200Y-81003548D01*
%TO.C,RV4*%
X59077000Y-17974000D02*
X58377000Y-17974000D01*
X57477000Y-18474000D02*
X57077000Y-18474000D01*
X59077000Y-18674000D02*
X59077000Y-17974000D01*
X58877000Y-19574000D02*
X58877000Y-22474000D01*
X55677000Y-19574000D02*
X55677000Y-22474000D01*
X58877000Y-22474000D02*
X58277000Y-22474000D01*
X55677000Y-22474000D02*
X56277000Y-22474000D01*
%TO.C,C24*%
X38854748Y-27586000D02*
X39377252Y-27586000D01*
X38854748Y-29056000D02*
X39377252Y-29056000D01*
%TO.C,C30*%
X46362252Y-29564000D02*
X45839748Y-29564000D01*
X46362252Y-28094000D02*
X45839748Y-28094000D01*
%TO.C,POW2*%
X72574000Y-16448000D02*
G75*
G03*
X72574000Y-16448000I-1680000J0D01*
G01*
X72969001Y-15557001D02*
G75*
G03*
X72968497Y-17338192I1425002J-890999D01*
G01*
X74394000Y-14768001D02*
G75*
G03*
X73503736Y-15023280I-3J-1679989D01*
G01*
X75260000Y-15008000D02*
G75*
G03*
X74365326Y-14767902I-866003J-1440014D01*
G01*
X73528000Y-17888000D02*
G75*
G03*
X75283894Y-17873358I866000J1439998D01*
G01*
X75834000Y-17314000D02*
G75*
G03*
X75819358Y-15558106I-1439998J866000D01*
G01*
X69084000Y-19608000D02*
X69084000Y-11888000D01*
X69619000Y-17517000D02*
X69748000Y-17389000D01*
X69824000Y-17723000D02*
X69918000Y-17629000D01*
X71869000Y-15267000D02*
X71963000Y-15174000D01*
X72039000Y-15507000D02*
X72168000Y-15379000D01*
X76204000Y-11888000D02*
X69084000Y-11888000D01*
X76204000Y-12348000D02*
X69084000Y-12348000D01*
X76204000Y-13448000D02*
X69084000Y-13448000D01*
X76204000Y-19608000D02*
X69084000Y-19608000D01*
X76204000Y-19608000D02*
X76204000Y-11888000D01*
X76444000Y-11648000D02*
X76044000Y-11648000D01*
X76444000Y-12288000D02*
X76444000Y-11648000D01*
%TO.C,R5*%
X35398064Y-15769000D02*
X33943936Y-15769000D01*
X35398064Y-13949000D02*
X33943936Y-13949000D01*
%TO.C,C16*%
X73379000Y-81576852D02*
X73379000Y-81054348D01*
X71909000Y-81576852D02*
X71909000Y-81054348D01*
%TO.C,R6*%
X45267200Y-60994936D02*
X45267200Y-62449064D01*
X47087200Y-60994936D02*
X47087200Y-62449064D01*
%TO.C,J11*%
X82056000Y-16637000D02*
G75*
G03*
X82056000Y-16637000I-1680000J0D01*
G01*
X85556000Y-16637000D02*
G75*
G03*
X85556000Y-16637000I-1680000J0D01*
G01*
X89056000Y-16637000D02*
G75*
G03*
X89056000Y-16637000I-1680000J0D01*
G01*
X92556000Y-16637000D02*
G75*
G03*
X92556000Y-16637000I-1680000J0D01*
G01*
X96056000Y-16637000D02*
G75*
G03*
X96056000Y-16637000I-1680000J0D01*
G01*
X96451001Y-15746001D02*
G75*
G03*
X96450497Y-17527192I1425002J-890999D01*
G01*
X97876000Y-14957001D02*
G75*
G03*
X96985736Y-15212280I-3J-1679989D01*
G01*
X98742000Y-15197000D02*
G75*
G03*
X97847326Y-14956902I-866003J-1440014D01*
G01*
X97010000Y-18077000D02*
G75*
G03*
X98765894Y-18062358I866000J1439998D01*
G01*
X99316000Y-17503000D02*
G75*
G03*
X99301358Y-15747106I-1439998J866000D01*
G01*
X78565000Y-19797000D02*
X78565000Y-12077000D01*
X79101000Y-17706000D02*
X79230000Y-17578000D01*
X79306000Y-17912000D02*
X79400000Y-17818000D01*
X81351000Y-15456000D02*
X81445000Y-15363000D01*
X81521000Y-15696000D02*
X81650000Y-15568000D01*
X82601000Y-17706000D02*
X82730000Y-17578000D01*
X82806000Y-17912000D02*
X82900000Y-17818000D01*
X84851000Y-15456000D02*
X84945000Y-15363000D01*
X85021000Y-15696000D02*
X85150000Y-15568000D01*
X86101000Y-17706000D02*
X86230000Y-17578000D01*
X86306000Y-17912000D02*
X86400000Y-17818000D01*
X88351000Y-15456000D02*
X88445000Y-15363000D01*
X88521000Y-15696000D02*
X88650000Y-15568000D01*
X89601000Y-17706000D02*
X89730000Y-17578000D01*
X89806000Y-17912000D02*
X89900000Y-17818000D01*
X91851000Y-15456000D02*
X91945000Y-15363000D01*
X92021000Y-15696000D02*
X92150000Y-15568000D01*
X93101000Y-17706000D02*
X93230000Y-17578000D01*
X93306000Y-17912000D02*
X93400000Y-17818000D01*
X95351000Y-15456000D02*
X95445000Y-15363000D01*
X95521000Y-15696000D02*
X95650000Y-15568000D01*
X99686000Y-12077000D02*
X78565000Y-12077000D01*
X99686000Y-12537000D02*
X78565000Y-12537000D01*
X99686000Y-13637000D02*
X78565000Y-13637000D01*
X99686000Y-19797000D02*
X78565000Y-19797000D01*
X99686000Y-19797000D02*
X99686000Y-12077000D01*
X99926000Y-11837000D02*
X99526000Y-11837000D01*
X99926000Y-12477000D02*
X99926000Y-11837000D01*
%TO.C,C3*%
X61587748Y-20093000D02*
X62110252Y-20093000D01*
X61587748Y-21563000D02*
X62110252Y-21563000D01*
%TO.C,C37*%
X36279148Y-74445800D02*
X36801652Y-74445800D01*
X36279148Y-72975800D02*
X36801652Y-72975800D01*
%TO.C,R3*%
X58385064Y-29739000D02*
X56930936Y-29739000D01*
X58385064Y-27919000D02*
X56930936Y-27919000D01*
D12*
%TO.C,12V*%
X48702000Y-36766000D02*
X53402000Y-36766000D01*
X53402000Y-36766000D02*
X53402000Y-26226000D01*
X48702000Y-26226000D02*
X48702000Y-36766000D01*
X53402000Y-26226000D02*
X48702000Y-26226000D01*
D13*
X54202000Y-34036000D02*
G75*
G03*
X54202000Y-34036000I-100000J0D01*
G01*
D11*
%TO.C,C26*%
X63619748Y-34444000D02*
X64142252Y-34444000D01*
X63619748Y-35914000D02*
X64142252Y-35914000D01*
%TO.C,J5*%
X110138000Y-62540000D02*
G75*
G03*
X110138000Y-62540000I-1680000J0D01*
G01*
X110138000Y-66040000D02*
G75*
G03*
X110138000Y-66040000I-1680000J0D01*
G01*
X110138000Y-69540000D02*
G75*
G03*
X110138000Y-69540000I-1680000J0D01*
G01*
X110138000Y-73040000D02*
G75*
G03*
X110138000Y-73040000I-1680000J0D01*
G01*
X110138000Y-76540000D02*
G75*
G03*
X110138000Y-76540000I-1680000J0D01*
G01*
X110138000Y-80040000D02*
G75*
G03*
X110138000Y-80040000I-1680000J0D01*
G01*
X110138000Y-83540000D02*
G75*
G03*
X110138000Y-83540000I-1680000J0D01*
G01*
X110138000Y-87040000D02*
G75*
G03*
X110138000Y-87040000I-1680000J0D01*
G01*
X109348999Y-89115001D02*
G75*
G03*
X107567808Y-89114497I-890999J-1425002D01*
G01*
X110137999Y-90540000D02*
G75*
G03*
X109882720Y-89649736I-1679989J3D01*
G01*
X109898000Y-91406000D02*
G75*
G03*
X110138098Y-90511326I-1440014J866003D01*
G01*
X107018000Y-89674000D02*
G75*
G03*
X107032642Y-91429894I1439998J-866000D01*
G01*
X107592000Y-91980000D02*
G75*
G03*
X109347894Y-91965358I866000J1439998D01*
G01*
X105298000Y-60730000D02*
X113018000Y-60730000D01*
X107389000Y-61265000D02*
X107517000Y-61394000D01*
X107183000Y-61470000D02*
X107277000Y-61564000D01*
X109639000Y-63515000D02*
X109732000Y-63609000D01*
X109399000Y-63685000D02*
X109527000Y-63814000D01*
X107389000Y-64765000D02*
X107517000Y-64894000D01*
X107183000Y-64970000D02*
X107277000Y-65064000D01*
X109639000Y-67015000D02*
X109732000Y-67109000D01*
X109399000Y-67185000D02*
X109527000Y-67314000D01*
X107389000Y-68265000D02*
X107517000Y-68394000D01*
X107183000Y-68470000D02*
X107277000Y-68564000D01*
X109639000Y-70515000D02*
X109732000Y-70609000D01*
X109399000Y-70685000D02*
X109527000Y-70814000D01*
X107389000Y-71765000D02*
X107517000Y-71894000D01*
X107183000Y-71970000D02*
X107277000Y-72064000D01*
X109639000Y-74015000D02*
X109732000Y-74109000D01*
X109399000Y-74185000D02*
X109527000Y-74314000D01*
X107389000Y-75265000D02*
X107517000Y-75394000D01*
X107183000Y-75470000D02*
X107277000Y-75564000D01*
X109639000Y-77515000D02*
X109732000Y-77609000D01*
X109399000Y-77685000D02*
X109527000Y-77814000D01*
X107389000Y-78765000D02*
X107517000Y-78894000D01*
X107183000Y-78970000D02*
X107277000Y-79064000D01*
X109639000Y-81015000D02*
X109732000Y-81109000D01*
X109399000Y-81185000D02*
X109527000Y-81314000D01*
X107389000Y-82265000D02*
X107517000Y-82394000D01*
X107183000Y-82470000D02*
X107277000Y-82564000D01*
X109639000Y-84515000D02*
X109732000Y-84609000D01*
X109399000Y-84685000D02*
X109527000Y-84814000D01*
X107389000Y-85765000D02*
X107517000Y-85894000D01*
X107183000Y-85970000D02*
X107277000Y-86064000D01*
X109639000Y-88015000D02*
X109732000Y-88109000D01*
X109399000Y-88185000D02*
X109527000Y-88314000D01*
X113018000Y-92350000D02*
X113018000Y-60730000D01*
X112558000Y-92350000D02*
X112558000Y-60730000D01*
X111458000Y-92350000D02*
X111458000Y-60730000D01*
X105298000Y-92350000D02*
X105298000Y-60730000D01*
X105298000Y-92350000D02*
X113018000Y-92350000D01*
X113258000Y-92590000D02*
X113258000Y-92190000D01*
X112618000Y-92590000D02*
X113258000Y-92590000D01*
%TO.C,C14*%
X71756600Y-76258748D02*
X71756600Y-76781252D01*
X73226600Y-76258748D02*
X73226600Y-76781252D01*
%TO.C,R8*%
X37536800Y-62499864D02*
X37536800Y-61045736D01*
X35716800Y-62499864D02*
X35716800Y-61045736D01*
%TO.C,R2*%
X22590136Y-72436400D02*
X24044264Y-72436400D01*
X22590136Y-70616400D02*
X24044264Y-70616400D01*
%TO.C,BOOT0*%
G36*
X14095000Y-75876000D02*
G01*
X11995000Y-75876000D01*
X11995000Y-73876000D01*
X14095000Y-73876000D01*
X14095000Y-75876000D01*
G37*
D12*
X14095000Y-75876000D02*
X11995000Y-75876000D01*
X11995000Y-73876000D01*
X14095000Y-73876000D01*
X14095000Y-75876000D01*
X14295000Y-84676000D02*
X19895000Y-84676000D01*
X16145000Y-84126000D02*
X18145000Y-84126000D01*
X16145000Y-84126000D02*
X16145000Y-83626000D01*
X18145000Y-84126000D02*
X18145000Y-83626000D01*
X18145000Y-83626000D02*
X16145000Y-83626000D01*
X16145000Y-71626000D02*
X18145000Y-71626000D01*
X16145000Y-71626000D02*
X16145000Y-71126000D01*
X16145000Y-71126000D02*
X18145000Y-71126000D01*
X18145000Y-71126000D02*
X18145000Y-71626000D01*
X14295000Y-70576000D02*
X14295000Y-84676000D01*
X19895000Y-70576000D02*
X19895000Y-84676000D01*
X19895000Y-70576000D02*
X14345000Y-70576000D01*
D11*
%TO.C,J2*%
X22165000Y-36255000D02*
X22165000Y-34925000D01*
X23495000Y-36255000D02*
X22165000Y-36255000D01*
X24765000Y-36255000D02*
X24825000Y-36255000D01*
X24765000Y-36255000D02*
X24765000Y-33595000D01*
X24825000Y-36255000D02*
X24825000Y-33595000D01*
X24765000Y-33595000D02*
X24825000Y-33595000D01*
%TO.C,C40*%
X44849148Y-52347800D02*
X45371652Y-52347800D01*
X44849148Y-50877800D02*
X45371652Y-50877800D01*
%TO.C,C15*%
X75566600Y-76157148D02*
X75566600Y-76679652D01*
X77036600Y-76157148D02*
X77036600Y-76679652D01*
%TO.C,J4*%
X18475000Y-55880000D02*
X18475000Y-68640000D01*
X15815000Y-68640000D02*
X18475000Y-68640000D01*
X15815000Y-55880000D02*
X18475000Y-55880000D01*
X15815000Y-55880000D02*
X15815000Y-68640000D01*
X15815000Y-54610000D02*
X15815000Y-53280000D01*
X15815000Y-53280000D02*
X17145000Y-53280000D01*
D12*
%TO.C,Y1*%
X35752800Y-58636400D02*
X47152800Y-58636400D01*
X35752800Y-53936400D02*
X47152800Y-53936400D01*
D11*
%TO.C,R7*%
X57877064Y-15769000D02*
X56422936Y-15769000D01*
X57877064Y-13949000D02*
X56422936Y-13949000D01*
%TD*%
M02*
