%TF.GenerationSoftware,KiCad,Pcbnew,(7.0.0)*%
%TF.CreationDate,2023-04-07T04:20:21-05:00*%
%TF.ProjectId,finalproj,66696e61-6c70-4726-9f6a-2e6b69636164,rev?*%
%TF.SameCoordinates,Original*%
%TF.FileFunction,Paste,Top*%
%TF.FilePolarity,Positive*%
%FSLAX46Y46*%
G04 Gerber Fmt 4.6, Leading zero omitted, Abs format (unit mm)*
G04 Created by KiCad (PCBNEW (7.0.0)) date 2023-04-07 04:20:21*
%MOMM*%
%LPD*%
G01*
G04 APERTURE LIST*
G04 Aperture macros list*
%AMRoundRect*
0 Rectangle with rounded corners*
0 $1 Rounding radius*
0 $2 $3 $4 $5 $6 $7 $8 $9 X,Y pos of 4 corners*
0 Add a 4 corners polygon primitive as box body*
4,1,4,$2,$3,$4,$5,$6,$7,$8,$9,$2,$3,0*
0 Add four circle primitives for the rounded corners*
1,1,$1+$1,$2,$3*
1,1,$1+$1,$4,$5*
1,1,$1+$1,$6,$7*
1,1,$1+$1,$8,$9*
0 Add four rect primitives between the rounded corners*
20,1,$1+$1,$2,$3,$4,$5,0*
20,1,$1+$1,$4,$5,$6,$7,0*
20,1,$1+$1,$6,$7,$8,$9,0*
20,1,$1+$1,$8,$9,$2,$3,0*%
G04 Aperture macros list end*
%ADD10RoundRect,0.250000X-0.250000X-0.475000X0.250000X-0.475000X0.250000X0.475000X-0.250000X0.475000X0*%
%ADD11RoundRect,0.150000X0.150000X-0.587500X0.150000X0.587500X-0.150000X0.587500X-0.150000X-0.587500X0*%
%ADD12RoundRect,0.250000X0.250000X0.475000X-0.250000X0.475000X-0.250000X-0.475000X0.250000X-0.475000X0*%
%ADD13RoundRect,0.250000X-0.475000X0.250000X-0.475000X-0.250000X0.475000X-0.250000X0.475000X0.250000X0*%
%ADD14R,1.200000X1.200000*%
%ADD15R,1.600000X1.500000*%
%ADD16RoundRect,0.250000X0.475000X-0.250000X0.475000X0.250000X-0.475000X0.250000X-0.475000X-0.250000X0*%
%ADD17R,1.000000X1.800000*%
%ADD18RoundRect,0.250000X0.625000X-0.400000X0.625000X0.400000X-0.625000X0.400000X-0.625000X-0.400000X0*%
%ADD19RoundRect,0.250000X0.400000X0.625000X-0.400000X0.625000X-0.400000X-0.625000X0.400000X-0.625000X0*%
%ADD20RoundRect,0.075000X-0.075000X-0.700000X0.075000X-0.700000X0.075000X0.700000X-0.075000X0.700000X0*%
%ADD21RoundRect,0.075000X-0.700000X-0.075000X0.700000X-0.075000X0.700000X0.075000X-0.700000X0.075000X0*%
%ADD22RoundRect,0.250000X-0.625000X0.400000X-0.625000X-0.400000X0.625000X-0.400000X0.625000X0.400000X0*%
%ADD23RoundRect,0.250000X-0.400000X-0.625000X0.400000X-0.625000X0.400000X0.625000X-0.400000X0.625000X0*%
%ADD24R,5.600000X2.100000*%
G04 APERTURE END LIST*
D10*
%TO.C,C25*%
X61250000Y-12600000D03*
X63150000Y-12600000D03*
%TD*%
D11*
%TO.C,D2*%
X91150000Y-56925000D03*
X92100000Y-58800000D03*
X90200000Y-58800000D03*
%TD*%
D10*
%TO.C,C41*%
X36814800Y-51460400D03*
X34914800Y-51460400D03*
%TD*%
D12*
%TO.C,C32*%
X24318000Y-27969000D03*
X22418000Y-27969000D03*
%TD*%
D13*
%TO.C,C18*%
X72593200Y-87970400D03*
X72593200Y-86070400D03*
%TD*%
D12*
%TO.C,C6*%
X47559000Y-17145000D03*
X45659000Y-17145000D03*
%TD*%
D14*
%TO.C,RV1*%
X34527999Y-32235999D03*
D15*
X33527999Y-35485999D03*
D14*
X32527999Y-32235999D03*
%TD*%
D16*
%TO.C,C23*%
X75742800Y-70373200D03*
X75742800Y-72273200D03*
%TD*%
D11*
%TO.C,D1*%
X90950000Y-61125000D03*
X91900000Y-63000000D03*
X90000000Y-63000000D03*
%TD*%
D17*
%TO.C,Y2*%
X43453999Y-91389199D03*
X45953999Y-91389199D03*
%TD*%
D18*
%TO.C,R10*%
X40487600Y-90550400D03*
X40487600Y-93650400D03*
%TD*%
D12*
%TO.C,C33*%
X24191000Y-13843000D03*
X22291000Y-13843000D03*
%TD*%
D16*
%TO.C,C22*%
X72732800Y-70373200D03*
X72732800Y-72273200D03*
%TD*%
D13*
%TO.C,C19*%
X76193200Y-87970400D03*
X76193200Y-86070400D03*
%TD*%
D16*
%TO.C,C1*%
X97000000Y-29225200D03*
X97000000Y-31125200D03*
%TD*%
D11*
%TO.C,D3*%
X84358400Y-55950600D03*
X85308400Y-57825600D03*
X83408400Y-57825600D03*
%TD*%
D16*
%TO.C,C20*%
X69400000Y-80250000D03*
X69400000Y-82150000D03*
%TD*%
D10*
%TO.C,C35*%
X62804000Y-29083000D03*
X64704000Y-29083000D03*
%TD*%
D12*
%TO.C,C21*%
X62194400Y-85699600D03*
X64094400Y-85699600D03*
%TD*%
%TO.C,C29*%
X47051000Y-31242000D03*
X45151000Y-31242000D03*
%TD*%
D10*
%TO.C,C38*%
X29144000Y-94996000D03*
X27244000Y-94996000D03*
%TD*%
D12*
%TO.C,C28*%
X41336000Y-21209000D03*
X39436000Y-21209000D03*
%TD*%
%TO.C,C39*%
X27584400Y-71577200D03*
X29484400Y-71577200D03*
%TD*%
D19*
%TO.C,R4*%
X22096800Y-87071200D03*
X25196800Y-87071200D03*
%TD*%
D10*
%TO.C,C4*%
X61153000Y-15113000D03*
X63053000Y-15113000D03*
%TD*%
D12*
%TO.C,C31*%
X24318000Y-31369000D03*
X22418000Y-31369000D03*
%TD*%
D10*
%TO.C,C27*%
X38674000Y-34163000D03*
X40574000Y-34163000D03*
%TD*%
D16*
%TO.C,C42*%
X43129200Y-93792000D03*
X43129200Y-95692000D03*
%TD*%
D19*
%TO.C,R1*%
X35459000Y-28067000D03*
X32359000Y-28067000D03*
%TD*%
D12*
%TO.C,C34*%
X24191000Y-17526000D03*
X22291000Y-17526000D03*
%TD*%
D14*
%TO.C,RV3*%
X35543999Y-19027999D03*
D15*
X34543999Y-22277999D03*
D14*
X33543999Y-19027999D03*
%TD*%
D20*
%TO.C,U7*%
X50225000Y-69128000D03*
X50725000Y-69128000D03*
X51225000Y-69128000D03*
X51725000Y-69128000D03*
X52225000Y-69128000D03*
X52725000Y-69128000D03*
X53225000Y-69128000D03*
X53725000Y-69128000D03*
X54225000Y-69128000D03*
X54725000Y-69128000D03*
X55225000Y-69128000D03*
X55725000Y-69128000D03*
X56225000Y-69128000D03*
X56725000Y-69128000D03*
X57225000Y-69128000D03*
X57725000Y-69128000D03*
D21*
X59650000Y-71053000D03*
X59650000Y-71553000D03*
X59650000Y-72053000D03*
X59650000Y-72553000D03*
X59650000Y-73053000D03*
X59650000Y-73553000D03*
X59650000Y-74053000D03*
X59650000Y-74553000D03*
X59650000Y-75053000D03*
X59650000Y-75553000D03*
X59650000Y-76053000D03*
X59650000Y-76553000D03*
X59650000Y-77053000D03*
X59650000Y-77553000D03*
X59650000Y-78053000D03*
X59650000Y-78553000D03*
D20*
X57725000Y-80478000D03*
X57225000Y-80478000D03*
X56725000Y-80478000D03*
X56225000Y-80478000D03*
X55725000Y-80478000D03*
X55225000Y-80478000D03*
X54725000Y-80478000D03*
X54225000Y-80478000D03*
X53725000Y-80478000D03*
X53225000Y-80478000D03*
X52725000Y-80478000D03*
X52225000Y-80478000D03*
X51725000Y-80478000D03*
X51225000Y-80478000D03*
X50725000Y-80478000D03*
X50225000Y-80478000D03*
D21*
X48300000Y-78553000D03*
X48300000Y-78053000D03*
X48300000Y-77553000D03*
X48300000Y-77053000D03*
X48300000Y-76553000D03*
X48300000Y-76053000D03*
X48300000Y-75553000D03*
X48300000Y-75053000D03*
X48300000Y-74553000D03*
X48300000Y-74053000D03*
X48300000Y-73553000D03*
X48300000Y-73053000D03*
X48300000Y-72553000D03*
X48300000Y-72053000D03*
X48300000Y-71553000D03*
X48300000Y-71053000D03*
%TD*%
D11*
%TO.C,D4*%
X84394000Y-60702700D03*
X85344000Y-62577700D03*
X83444000Y-62577700D03*
%TD*%
D12*
%TO.C,C5*%
X47559000Y-20447000D03*
X45659000Y-20447000D03*
%TD*%
D14*
%TO.C,RV2*%
X58911999Y-33378999D03*
D15*
X57911999Y-36628999D03*
D14*
X56911999Y-33378999D03*
%TD*%
D16*
%TO.C,C2*%
X92800000Y-29250000D03*
X92800000Y-31150000D03*
%TD*%
D22*
%TO.C,R9*%
X48666400Y-93650400D03*
X48666400Y-90550400D03*
%TD*%
D10*
%TO.C,C36*%
X37490400Y-77110800D03*
X35590400Y-77110800D03*
%TD*%
D16*
%TO.C,C43*%
X46075600Y-93690400D03*
X46075600Y-95590400D03*
%TD*%
%TO.C,C17*%
X76403200Y-80314800D03*
X76403200Y-82214800D03*
%TD*%
D14*
%TO.C,RV4*%
X58276999Y-18773999D03*
D15*
X57276999Y-22023999D03*
D14*
X56276999Y-18773999D03*
%TD*%
D10*
%TO.C,C24*%
X38166000Y-28321000D03*
X40066000Y-28321000D03*
%TD*%
D12*
%TO.C,C30*%
X47051000Y-28829000D03*
X45151000Y-28829000D03*
%TD*%
D19*
%TO.C,R5*%
X36221000Y-14859000D03*
X33121000Y-14859000D03*
%TD*%
D16*
%TO.C,C16*%
X72644000Y-80365600D03*
X72644000Y-82265600D03*
%TD*%
D22*
%TO.C,R6*%
X46177200Y-63272000D03*
X46177200Y-60172000D03*
%TD*%
D10*
%TO.C,C3*%
X60899000Y-20828000D03*
X62799000Y-20828000D03*
%TD*%
%TO.C,C37*%
X37490400Y-73710800D03*
X35590400Y-73710800D03*
%TD*%
D19*
%TO.C,R3*%
X59208000Y-28829000D03*
X56108000Y-28829000D03*
%TD*%
D10*
%TO.C,C26*%
X62931000Y-35179000D03*
X64831000Y-35179000D03*
%TD*%
D13*
%TO.C,C14*%
X72491600Y-77470000D03*
X72491600Y-75570000D03*
%TD*%
D18*
%TO.C,R8*%
X36626800Y-60222800D03*
X36626800Y-63322800D03*
%TD*%
D23*
%TO.C,R2*%
X24867200Y-71526400D03*
X21767200Y-71526400D03*
%TD*%
D10*
%TO.C,C40*%
X46060400Y-51612800D03*
X44160400Y-51612800D03*
%TD*%
D13*
%TO.C,C15*%
X76301600Y-77368400D03*
X76301600Y-75468400D03*
%TD*%
D24*
%TO.C,Y1*%
X46202799Y-56286399D03*
X36702799Y-56286399D03*
%TD*%
D19*
%TO.C,R7*%
X58700000Y-14859000D03*
X55600000Y-14859000D03*
%TD*%
M02*
