%TF.GenerationSoftware,KiCad,Pcbnew,7.0.0*%
%TF.CreationDate,2023-03-08T02:35:56-06:00*%
%TF.ProjectId,finalproj_breakout,66696e61-6c70-4726-9f6a-5f627265616b,rev?*%
%TF.SameCoordinates,Original*%
%TF.FileFunction,Legend,Bot*%
%TF.FilePolarity,Positive*%
%FSLAX46Y46*%
G04 Gerber Fmt 4.6, Leading zero omitted, Abs format (unit mm)*
G04 Created by KiCad (PCBNEW 7.0.0) date 2023-03-08 02:35:56*
%MOMM*%
%LPD*%
G01*
G04 APERTURE LIST*
%ADD10C,0.150000*%
%ADD11C,0.120000*%
G04 APERTURE END LIST*
D10*
%TO.C,C21*%
X187078857Y-59598142D02*
X187126476Y-59645761D01*
X187126476Y-59645761D02*
X187269333Y-59693380D01*
X187269333Y-59693380D02*
X187364571Y-59693380D01*
X187364571Y-59693380D02*
X187507428Y-59645761D01*
X187507428Y-59645761D02*
X187602666Y-59550523D01*
X187602666Y-59550523D02*
X187650285Y-59455285D01*
X187650285Y-59455285D02*
X187697904Y-59264809D01*
X187697904Y-59264809D02*
X187697904Y-59121952D01*
X187697904Y-59121952D02*
X187650285Y-58931476D01*
X187650285Y-58931476D02*
X187602666Y-58836238D01*
X187602666Y-58836238D02*
X187507428Y-58741000D01*
X187507428Y-58741000D02*
X187364571Y-58693380D01*
X187364571Y-58693380D02*
X187269333Y-58693380D01*
X187269333Y-58693380D02*
X187126476Y-58741000D01*
X187126476Y-58741000D02*
X187078857Y-58788619D01*
X186697904Y-58788619D02*
X186650285Y-58741000D01*
X186650285Y-58741000D02*
X186555047Y-58693380D01*
X186555047Y-58693380D02*
X186316952Y-58693380D01*
X186316952Y-58693380D02*
X186221714Y-58741000D01*
X186221714Y-58741000D02*
X186174095Y-58788619D01*
X186174095Y-58788619D02*
X186126476Y-58883857D01*
X186126476Y-58883857D02*
X186126476Y-58979095D01*
X186126476Y-58979095D02*
X186174095Y-59121952D01*
X186174095Y-59121952D02*
X186745523Y-59693380D01*
X186745523Y-59693380D02*
X186126476Y-59693380D01*
X185174095Y-59693380D02*
X185745523Y-59693380D01*
X185459809Y-59693380D02*
X185459809Y-58693380D01*
X185459809Y-58693380D02*
X185555047Y-58836238D01*
X185555047Y-58836238D02*
X185650285Y-58931476D01*
X185650285Y-58931476D02*
X185745523Y-58979095D01*
%TO.C,C16*%
X199778857Y-83474142D02*
X199826476Y-83521761D01*
X199826476Y-83521761D02*
X199969333Y-83569380D01*
X199969333Y-83569380D02*
X200064571Y-83569380D01*
X200064571Y-83569380D02*
X200207428Y-83521761D01*
X200207428Y-83521761D02*
X200302666Y-83426523D01*
X200302666Y-83426523D02*
X200350285Y-83331285D01*
X200350285Y-83331285D02*
X200397904Y-83140809D01*
X200397904Y-83140809D02*
X200397904Y-82997952D01*
X200397904Y-82997952D02*
X200350285Y-82807476D01*
X200350285Y-82807476D02*
X200302666Y-82712238D01*
X200302666Y-82712238D02*
X200207428Y-82617000D01*
X200207428Y-82617000D02*
X200064571Y-82569380D01*
X200064571Y-82569380D02*
X199969333Y-82569380D01*
X199969333Y-82569380D02*
X199826476Y-82617000D01*
X199826476Y-82617000D02*
X199778857Y-82664619D01*
X198826476Y-83569380D02*
X199397904Y-83569380D01*
X199112190Y-83569380D02*
X199112190Y-82569380D01*
X199112190Y-82569380D02*
X199207428Y-82712238D01*
X199207428Y-82712238D02*
X199302666Y-82807476D01*
X199302666Y-82807476D02*
X199397904Y-82855095D01*
X197969333Y-82569380D02*
X198159809Y-82569380D01*
X198159809Y-82569380D02*
X198255047Y-82617000D01*
X198255047Y-82617000D02*
X198302666Y-82664619D01*
X198302666Y-82664619D02*
X198397904Y-82807476D01*
X198397904Y-82807476D02*
X198445523Y-82997952D01*
X198445523Y-82997952D02*
X198445523Y-83378904D01*
X198445523Y-83378904D02*
X198397904Y-83474142D01*
X198397904Y-83474142D02*
X198350285Y-83521761D01*
X198350285Y-83521761D02*
X198255047Y-83569380D01*
X198255047Y-83569380D02*
X198064571Y-83569380D01*
X198064571Y-83569380D02*
X197969333Y-83521761D01*
X197969333Y-83521761D02*
X197921714Y-83474142D01*
X197921714Y-83474142D02*
X197874095Y-83378904D01*
X197874095Y-83378904D02*
X197874095Y-83140809D01*
X197874095Y-83140809D02*
X197921714Y-83045571D01*
X197921714Y-83045571D02*
X197969333Y-82997952D01*
X197969333Y-82997952D02*
X198064571Y-82950333D01*
X198064571Y-82950333D02*
X198255047Y-82950333D01*
X198255047Y-82950333D02*
X198350285Y-82997952D01*
X198350285Y-82997952D02*
X198397904Y-83045571D01*
X198397904Y-83045571D02*
X198445523Y-83140809D01*
%TO.C,C19*%
X176432357Y-83347142D02*
X176479976Y-83394761D01*
X176479976Y-83394761D02*
X176622833Y-83442380D01*
X176622833Y-83442380D02*
X176718071Y-83442380D01*
X176718071Y-83442380D02*
X176860928Y-83394761D01*
X176860928Y-83394761D02*
X176956166Y-83299523D01*
X176956166Y-83299523D02*
X177003785Y-83204285D01*
X177003785Y-83204285D02*
X177051404Y-83013809D01*
X177051404Y-83013809D02*
X177051404Y-82870952D01*
X177051404Y-82870952D02*
X177003785Y-82680476D01*
X177003785Y-82680476D02*
X176956166Y-82585238D01*
X176956166Y-82585238D02*
X176860928Y-82490000D01*
X176860928Y-82490000D02*
X176718071Y-82442380D01*
X176718071Y-82442380D02*
X176622833Y-82442380D01*
X176622833Y-82442380D02*
X176479976Y-82490000D01*
X176479976Y-82490000D02*
X176432357Y-82537619D01*
X175479976Y-83442380D02*
X176051404Y-83442380D01*
X175765690Y-83442380D02*
X175765690Y-82442380D01*
X175765690Y-82442380D02*
X175860928Y-82585238D01*
X175860928Y-82585238D02*
X175956166Y-82680476D01*
X175956166Y-82680476D02*
X176051404Y-82728095D01*
X175003785Y-83442380D02*
X174813309Y-83442380D01*
X174813309Y-83442380D02*
X174718071Y-83394761D01*
X174718071Y-83394761D02*
X174670452Y-83347142D01*
X174670452Y-83347142D02*
X174575214Y-83204285D01*
X174575214Y-83204285D02*
X174527595Y-83013809D01*
X174527595Y-83013809D02*
X174527595Y-82632857D01*
X174527595Y-82632857D02*
X174575214Y-82537619D01*
X174575214Y-82537619D02*
X174622833Y-82490000D01*
X174622833Y-82490000D02*
X174718071Y-82442380D01*
X174718071Y-82442380D02*
X174908547Y-82442380D01*
X174908547Y-82442380D02*
X175003785Y-82490000D01*
X175003785Y-82490000D02*
X175051404Y-82537619D01*
X175051404Y-82537619D02*
X175099023Y-82632857D01*
X175099023Y-82632857D02*
X175099023Y-82870952D01*
X175099023Y-82870952D02*
X175051404Y-82966190D01*
X175051404Y-82966190D02*
X175003785Y-83013809D01*
X175003785Y-83013809D02*
X174908547Y-83061428D01*
X174908547Y-83061428D02*
X174718071Y-83061428D01*
X174718071Y-83061428D02*
X174622833Y-83013809D01*
X174622833Y-83013809D02*
X174575214Y-82966190D01*
X174575214Y-82966190D02*
X174527595Y-82870952D01*
%TO.C,C9*%
X198562166Y-66710142D02*
X198609785Y-66757761D01*
X198609785Y-66757761D02*
X198752642Y-66805380D01*
X198752642Y-66805380D02*
X198847880Y-66805380D01*
X198847880Y-66805380D02*
X198990737Y-66757761D01*
X198990737Y-66757761D02*
X199085975Y-66662523D01*
X199085975Y-66662523D02*
X199133594Y-66567285D01*
X199133594Y-66567285D02*
X199181213Y-66376809D01*
X199181213Y-66376809D02*
X199181213Y-66233952D01*
X199181213Y-66233952D02*
X199133594Y-66043476D01*
X199133594Y-66043476D02*
X199085975Y-65948238D01*
X199085975Y-65948238D02*
X198990737Y-65853000D01*
X198990737Y-65853000D02*
X198847880Y-65805380D01*
X198847880Y-65805380D02*
X198752642Y-65805380D01*
X198752642Y-65805380D02*
X198609785Y-65853000D01*
X198609785Y-65853000D02*
X198562166Y-65900619D01*
X198085975Y-66805380D02*
X197895499Y-66805380D01*
X197895499Y-66805380D02*
X197800261Y-66757761D01*
X197800261Y-66757761D02*
X197752642Y-66710142D01*
X197752642Y-66710142D02*
X197657404Y-66567285D01*
X197657404Y-66567285D02*
X197609785Y-66376809D01*
X197609785Y-66376809D02*
X197609785Y-65995857D01*
X197609785Y-65995857D02*
X197657404Y-65900619D01*
X197657404Y-65900619D02*
X197705023Y-65853000D01*
X197705023Y-65853000D02*
X197800261Y-65805380D01*
X197800261Y-65805380D02*
X197990737Y-65805380D01*
X197990737Y-65805380D02*
X198085975Y-65853000D01*
X198085975Y-65853000D02*
X198133594Y-65900619D01*
X198133594Y-65900619D02*
X198181213Y-65995857D01*
X198181213Y-65995857D02*
X198181213Y-66233952D01*
X198181213Y-66233952D02*
X198133594Y-66329190D01*
X198133594Y-66329190D02*
X198085975Y-66376809D01*
X198085975Y-66376809D02*
X197990737Y-66424428D01*
X197990737Y-66424428D02*
X197800261Y-66424428D01*
X197800261Y-66424428D02*
X197705023Y-66376809D01*
X197705023Y-66376809D02*
X197657404Y-66329190D01*
X197657404Y-66329190D02*
X197609785Y-66233952D01*
%TO.C,C4*%
X207960166Y-59725142D02*
X208007785Y-59772761D01*
X208007785Y-59772761D02*
X208150642Y-59820380D01*
X208150642Y-59820380D02*
X208245880Y-59820380D01*
X208245880Y-59820380D02*
X208388737Y-59772761D01*
X208388737Y-59772761D02*
X208483975Y-59677523D01*
X208483975Y-59677523D02*
X208531594Y-59582285D01*
X208531594Y-59582285D02*
X208579213Y-59391809D01*
X208579213Y-59391809D02*
X208579213Y-59248952D01*
X208579213Y-59248952D02*
X208531594Y-59058476D01*
X208531594Y-59058476D02*
X208483975Y-58963238D01*
X208483975Y-58963238D02*
X208388737Y-58868000D01*
X208388737Y-58868000D02*
X208245880Y-58820380D01*
X208245880Y-58820380D02*
X208150642Y-58820380D01*
X208150642Y-58820380D02*
X208007785Y-58868000D01*
X208007785Y-58868000D02*
X207960166Y-58915619D01*
X207103023Y-59153714D02*
X207103023Y-59820380D01*
X207341118Y-58772761D02*
X207579213Y-59487047D01*
X207579213Y-59487047D02*
X206960166Y-59487047D01*
%TO.C,R1*%
X164504666Y-49257380D02*
X164837999Y-48781190D01*
X165076094Y-49257380D02*
X165076094Y-48257380D01*
X165076094Y-48257380D02*
X164695142Y-48257380D01*
X164695142Y-48257380D02*
X164599904Y-48305000D01*
X164599904Y-48305000D02*
X164552285Y-48352619D01*
X164552285Y-48352619D02*
X164504666Y-48447857D01*
X164504666Y-48447857D02*
X164504666Y-48590714D01*
X164504666Y-48590714D02*
X164552285Y-48685952D01*
X164552285Y-48685952D02*
X164599904Y-48733571D01*
X164599904Y-48733571D02*
X164695142Y-48781190D01*
X164695142Y-48781190D02*
X165076094Y-48781190D01*
X163552285Y-49257380D02*
X164123713Y-49257380D01*
X163837999Y-49257380D02*
X163837999Y-48257380D01*
X163837999Y-48257380D02*
X163933237Y-48400238D01*
X163933237Y-48400238D02*
X164028475Y-48495476D01*
X164028475Y-48495476D02*
X164123713Y-48543095D01*
%TO.C,J3*%
X219662333Y-102408380D02*
X219662333Y-103122666D01*
X219662333Y-103122666D02*
X219709952Y-103265523D01*
X219709952Y-103265523D02*
X219805190Y-103360761D01*
X219805190Y-103360761D02*
X219948047Y-103408380D01*
X219948047Y-103408380D02*
X220043285Y-103408380D01*
X219281380Y-102408380D02*
X218662333Y-102408380D01*
X218662333Y-102408380D02*
X218995666Y-102789333D01*
X218995666Y-102789333D02*
X218852809Y-102789333D01*
X218852809Y-102789333D02*
X218757571Y-102836952D01*
X218757571Y-102836952D02*
X218709952Y-102884571D01*
X218709952Y-102884571D02*
X218662333Y-102979809D01*
X218662333Y-102979809D02*
X218662333Y-103217904D01*
X218662333Y-103217904D02*
X218709952Y-103313142D01*
X218709952Y-103313142D02*
X218757571Y-103360761D01*
X218757571Y-103360761D02*
X218852809Y-103408380D01*
X218852809Y-103408380D02*
X219138523Y-103408380D01*
X219138523Y-103408380D02*
X219233761Y-103360761D01*
X219233761Y-103360761D02*
X219281380Y-103313142D01*
%TO.C,J4*%
X167598380Y-105965666D02*
X168312666Y-105965666D01*
X168312666Y-105965666D02*
X168455523Y-105918047D01*
X168455523Y-105918047D02*
X168550761Y-105822809D01*
X168550761Y-105822809D02*
X168598380Y-105679952D01*
X168598380Y-105679952D02*
X168598380Y-105584714D01*
X167931714Y-106870428D02*
X168598380Y-106870428D01*
X167550761Y-106632333D02*
X168265047Y-106394238D01*
X168265047Y-106394238D02*
X168265047Y-107013285D01*
%TO.C,C11*%
X176410857Y-68107142D02*
X176458476Y-68154761D01*
X176458476Y-68154761D02*
X176601333Y-68202380D01*
X176601333Y-68202380D02*
X176696571Y-68202380D01*
X176696571Y-68202380D02*
X176839428Y-68154761D01*
X176839428Y-68154761D02*
X176934666Y-68059523D01*
X176934666Y-68059523D02*
X176982285Y-67964285D01*
X176982285Y-67964285D02*
X177029904Y-67773809D01*
X177029904Y-67773809D02*
X177029904Y-67630952D01*
X177029904Y-67630952D02*
X176982285Y-67440476D01*
X176982285Y-67440476D02*
X176934666Y-67345238D01*
X176934666Y-67345238D02*
X176839428Y-67250000D01*
X176839428Y-67250000D02*
X176696571Y-67202380D01*
X176696571Y-67202380D02*
X176601333Y-67202380D01*
X176601333Y-67202380D02*
X176458476Y-67250000D01*
X176458476Y-67250000D02*
X176410857Y-67297619D01*
X175458476Y-68202380D02*
X176029904Y-68202380D01*
X175744190Y-68202380D02*
X175744190Y-67202380D01*
X175744190Y-67202380D02*
X175839428Y-67345238D01*
X175839428Y-67345238D02*
X175934666Y-67440476D01*
X175934666Y-67440476D02*
X176029904Y-67488095D01*
X174506095Y-68202380D02*
X175077523Y-68202380D01*
X174791809Y-68202380D02*
X174791809Y-67202380D01*
X174791809Y-67202380D02*
X174887047Y-67345238D01*
X174887047Y-67345238D02*
X174982285Y-67440476D01*
X174982285Y-67440476D02*
X175077523Y-67488095D01*
%TO.C,C12*%
X208690357Y-66583142D02*
X208737976Y-66630761D01*
X208737976Y-66630761D02*
X208880833Y-66678380D01*
X208880833Y-66678380D02*
X208976071Y-66678380D01*
X208976071Y-66678380D02*
X209118928Y-66630761D01*
X209118928Y-66630761D02*
X209214166Y-66535523D01*
X209214166Y-66535523D02*
X209261785Y-66440285D01*
X209261785Y-66440285D02*
X209309404Y-66249809D01*
X209309404Y-66249809D02*
X209309404Y-66106952D01*
X209309404Y-66106952D02*
X209261785Y-65916476D01*
X209261785Y-65916476D02*
X209214166Y-65821238D01*
X209214166Y-65821238D02*
X209118928Y-65726000D01*
X209118928Y-65726000D02*
X208976071Y-65678380D01*
X208976071Y-65678380D02*
X208880833Y-65678380D01*
X208880833Y-65678380D02*
X208737976Y-65726000D01*
X208737976Y-65726000D02*
X208690357Y-65773619D01*
X207737976Y-66678380D02*
X208309404Y-66678380D01*
X208023690Y-66678380D02*
X208023690Y-65678380D01*
X208023690Y-65678380D02*
X208118928Y-65821238D01*
X208118928Y-65821238D02*
X208214166Y-65916476D01*
X208214166Y-65916476D02*
X208309404Y-65964095D01*
X207357023Y-65773619D02*
X207309404Y-65726000D01*
X207309404Y-65726000D02*
X207214166Y-65678380D01*
X207214166Y-65678380D02*
X206976071Y-65678380D01*
X206976071Y-65678380D02*
X206880833Y-65726000D01*
X206880833Y-65726000D02*
X206833214Y-65773619D01*
X206833214Y-65773619D02*
X206785595Y-65868857D01*
X206785595Y-65868857D02*
X206785595Y-65964095D01*
X206785595Y-65964095D02*
X206833214Y-66106952D01*
X206833214Y-66106952D02*
X207404642Y-66678380D01*
X207404642Y-66678380D02*
X206785595Y-66678380D01*
%TO.C,C14*%
X208436357Y-76235142D02*
X208483976Y-76282761D01*
X208483976Y-76282761D02*
X208626833Y-76330380D01*
X208626833Y-76330380D02*
X208722071Y-76330380D01*
X208722071Y-76330380D02*
X208864928Y-76282761D01*
X208864928Y-76282761D02*
X208960166Y-76187523D01*
X208960166Y-76187523D02*
X209007785Y-76092285D01*
X209007785Y-76092285D02*
X209055404Y-75901809D01*
X209055404Y-75901809D02*
X209055404Y-75758952D01*
X209055404Y-75758952D02*
X209007785Y-75568476D01*
X209007785Y-75568476D02*
X208960166Y-75473238D01*
X208960166Y-75473238D02*
X208864928Y-75378000D01*
X208864928Y-75378000D02*
X208722071Y-75330380D01*
X208722071Y-75330380D02*
X208626833Y-75330380D01*
X208626833Y-75330380D02*
X208483976Y-75378000D01*
X208483976Y-75378000D02*
X208436357Y-75425619D01*
X207483976Y-76330380D02*
X208055404Y-76330380D01*
X207769690Y-76330380D02*
X207769690Y-75330380D01*
X207769690Y-75330380D02*
X207864928Y-75473238D01*
X207864928Y-75473238D02*
X207960166Y-75568476D01*
X207960166Y-75568476D02*
X208055404Y-75616095D01*
X206626833Y-75663714D02*
X206626833Y-76330380D01*
X206864928Y-75282761D02*
X207103023Y-75997047D01*
X207103023Y-75997047D02*
X206483976Y-75997047D01*
%TO.C,C23*%
X228607857Y-57820142D02*
X228655476Y-57867761D01*
X228655476Y-57867761D02*
X228798333Y-57915380D01*
X228798333Y-57915380D02*
X228893571Y-57915380D01*
X228893571Y-57915380D02*
X229036428Y-57867761D01*
X229036428Y-57867761D02*
X229131666Y-57772523D01*
X229131666Y-57772523D02*
X229179285Y-57677285D01*
X229179285Y-57677285D02*
X229226904Y-57486809D01*
X229226904Y-57486809D02*
X229226904Y-57343952D01*
X229226904Y-57343952D02*
X229179285Y-57153476D01*
X229179285Y-57153476D02*
X229131666Y-57058238D01*
X229131666Y-57058238D02*
X229036428Y-56963000D01*
X229036428Y-56963000D02*
X228893571Y-56915380D01*
X228893571Y-56915380D02*
X228798333Y-56915380D01*
X228798333Y-56915380D02*
X228655476Y-56963000D01*
X228655476Y-56963000D02*
X228607857Y-57010619D01*
X228226904Y-57010619D02*
X228179285Y-56963000D01*
X228179285Y-56963000D02*
X228084047Y-56915380D01*
X228084047Y-56915380D02*
X227845952Y-56915380D01*
X227845952Y-56915380D02*
X227750714Y-56963000D01*
X227750714Y-56963000D02*
X227703095Y-57010619D01*
X227703095Y-57010619D02*
X227655476Y-57105857D01*
X227655476Y-57105857D02*
X227655476Y-57201095D01*
X227655476Y-57201095D02*
X227703095Y-57343952D01*
X227703095Y-57343952D02*
X228274523Y-57915380D01*
X228274523Y-57915380D02*
X227655476Y-57915380D01*
X227322142Y-56915380D02*
X226703095Y-56915380D01*
X226703095Y-56915380D02*
X227036428Y-57296333D01*
X227036428Y-57296333D02*
X226893571Y-57296333D01*
X226893571Y-57296333D02*
X226798333Y-57343952D01*
X226798333Y-57343952D02*
X226750714Y-57391571D01*
X226750714Y-57391571D02*
X226703095Y-57486809D01*
X226703095Y-57486809D02*
X226703095Y-57724904D01*
X226703095Y-57724904D02*
X226750714Y-57820142D01*
X226750714Y-57820142D02*
X226798333Y-57867761D01*
X226798333Y-57867761D02*
X226893571Y-57915380D01*
X226893571Y-57915380D02*
X227179285Y-57915380D01*
X227179285Y-57915380D02*
X227274523Y-57867761D01*
X227274523Y-57867761D02*
X227322142Y-57820142D01*
%TO.C,C20*%
X187078857Y-82966142D02*
X187126476Y-83013761D01*
X187126476Y-83013761D02*
X187269333Y-83061380D01*
X187269333Y-83061380D02*
X187364571Y-83061380D01*
X187364571Y-83061380D02*
X187507428Y-83013761D01*
X187507428Y-83013761D02*
X187602666Y-82918523D01*
X187602666Y-82918523D02*
X187650285Y-82823285D01*
X187650285Y-82823285D02*
X187697904Y-82632809D01*
X187697904Y-82632809D02*
X187697904Y-82489952D01*
X187697904Y-82489952D02*
X187650285Y-82299476D01*
X187650285Y-82299476D02*
X187602666Y-82204238D01*
X187602666Y-82204238D02*
X187507428Y-82109000D01*
X187507428Y-82109000D02*
X187364571Y-82061380D01*
X187364571Y-82061380D02*
X187269333Y-82061380D01*
X187269333Y-82061380D02*
X187126476Y-82109000D01*
X187126476Y-82109000D02*
X187078857Y-82156619D01*
X186697904Y-82156619D02*
X186650285Y-82109000D01*
X186650285Y-82109000D02*
X186555047Y-82061380D01*
X186555047Y-82061380D02*
X186316952Y-82061380D01*
X186316952Y-82061380D02*
X186221714Y-82109000D01*
X186221714Y-82109000D02*
X186174095Y-82156619D01*
X186174095Y-82156619D02*
X186126476Y-82251857D01*
X186126476Y-82251857D02*
X186126476Y-82347095D01*
X186126476Y-82347095D02*
X186174095Y-82489952D01*
X186174095Y-82489952D02*
X186745523Y-83061380D01*
X186745523Y-83061380D02*
X186126476Y-83061380D01*
X185507428Y-82061380D02*
X185412190Y-82061380D01*
X185412190Y-82061380D02*
X185316952Y-82109000D01*
X185316952Y-82109000D02*
X185269333Y-82156619D01*
X185269333Y-82156619D02*
X185221714Y-82251857D01*
X185221714Y-82251857D02*
X185174095Y-82442333D01*
X185174095Y-82442333D02*
X185174095Y-82680428D01*
X185174095Y-82680428D02*
X185221714Y-82870904D01*
X185221714Y-82870904D02*
X185269333Y-82966142D01*
X185269333Y-82966142D02*
X185316952Y-83013761D01*
X185316952Y-83013761D02*
X185412190Y-83061380D01*
X185412190Y-83061380D02*
X185507428Y-83061380D01*
X185507428Y-83061380D02*
X185602666Y-83013761D01*
X185602666Y-83013761D02*
X185650285Y-82966142D01*
X185650285Y-82966142D02*
X185697904Y-82870904D01*
X185697904Y-82870904D02*
X185745523Y-82680428D01*
X185745523Y-82680428D02*
X185745523Y-82442333D01*
X185745523Y-82442333D02*
X185697904Y-82251857D01*
X185697904Y-82251857D02*
X185650285Y-82156619D01*
X185650285Y-82156619D02*
X185602666Y-82109000D01*
X185602666Y-82109000D02*
X185507428Y-82061380D01*
%TO.C,J2*%
X165687333Y-54568380D02*
X165687333Y-55282666D01*
X165687333Y-55282666D02*
X165734952Y-55425523D01*
X165734952Y-55425523D02*
X165830190Y-55520761D01*
X165830190Y-55520761D02*
X165973047Y-55568380D01*
X165973047Y-55568380D02*
X166068285Y-55568380D01*
X165258761Y-54663619D02*
X165211142Y-54616000D01*
X165211142Y-54616000D02*
X165115904Y-54568380D01*
X165115904Y-54568380D02*
X164877809Y-54568380D01*
X164877809Y-54568380D02*
X164782571Y-54616000D01*
X164782571Y-54616000D02*
X164734952Y-54663619D01*
X164734952Y-54663619D02*
X164687333Y-54758857D01*
X164687333Y-54758857D02*
X164687333Y-54854095D01*
X164687333Y-54854095D02*
X164734952Y-54996952D01*
X164734952Y-54996952D02*
X165306380Y-55568380D01*
X165306380Y-55568380D02*
X164687333Y-55568380D01*
%TO.C,C6*%
X186370166Y-76108142D02*
X186417785Y-76155761D01*
X186417785Y-76155761D02*
X186560642Y-76203380D01*
X186560642Y-76203380D02*
X186655880Y-76203380D01*
X186655880Y-76203380D02*
X186798737Y-76155761D01*
X186798737Y-76155761D02*
X186893975Y-76060523D01*
X186893975Y-76060523D02*
X186941594Y-75965285D01*
X186941594Y-75965285D02*
X186989213Y-75774809D01*
X186989213Y-75774809D02*
X186989213Y-75631952D01*
X186989213Y-75631952D02*
X186941594Y-75441476D01*
X186941594Y-75441476D02*
X186893975Y-75346238D01*
X186893975Y-75346238D02*
X186798737Y-75251000D01*
X186798737Y-75251000D02*
X186655880Y-75203380D01*
X186655880Y-75203380D02*
X186560642Y-75203380D01*
X186560642Y-75203380D02*
X186417785Y-75251000D01*
X186417785Y-75251000D02*
X186370166Y-75298619D01*
X185513023Y-75203380D02*
X185703499Y-75203380D01*
X185703499Y-75203380D02*
X185798737Y-75251000D01*
X185798737Y-75251000D02*
X185846356Y-75298619D01*
X185846356Y-75298619D02*
X185941594Y-75441476D01*
X185941594Y-75441476D02*
X185989213Y-75631952D01*
X185989213Y-75631952D02*
X185989213Y-76012904D01*
X185989213Y-76012904D02*
X185941594Y-76108142D01*
X185941594Y-76108142D02*
X185893975Y-76155761D01*
X185893975Y-76155761D02*
X185798737Y-76203380D01*
X185798737Y-76203380D02*
X185608261Y-76203380D01*
X185608261Y-76203380D02*
X185513023Y-76155761D01*
X185513023Y-76155761D02*
X185465404Y-76108142D01*
X185465404Y-76108142D02*
X185417785Y-76012904D01*
X185417785Y-76012904D02*
X185417785Y-75774809D01*
X185417785Y-75774809D02*
X185465404Y-75679571D01*
X185465404Y-75679571D02*
X185513023Y-75631952D01*
X185513023Y-75631952D02*
X185608261Y-75584333D01*
X185608261Y-75584333D02*
X185798737Y-75584333D01*
X185798737Y-75584333D02*
X185893975Y-75631952D01*
X185893975Y-75631952D02*
X185941594Y-75679571D01*
X185941594Y-75679571D02*
X185989213Y-75774809D01*
%TO.C,C18*%
X176410857Y-90967142D02*
X176458476Y-91014761D01*
X176458476Y-91014761D02*
X176601333Y-91062380D01*
X176601333Y-91062380D02*
X176696571Y-91062380D01*
X176696571Y-91062380D02*
X176839428Y-91014761D01*
X176839428Y-91014761D02*
X176934666Y-90919523D01*
X176934666Y-90919523D02*
X176982285Y-90824285D01*
X176982285Y-90824285D02*
X177029904Y-90633809D01*
X177029904Y-90633809D02*
X177029904Y-90490952D01*
X177029904Y-90490952D02*
X176982285Y-90300476D01*
X176982285Y-90300476D02*
X176934666Y-90205238D01*
X176934666Y-90205238D02*
X176839428Y-90110000D01*
X176839428Y-90110000D02*
X176696571Y-90062380D01*
X176696571Y-90062380D02*
X176601333Y-90062380D01*
X176601333Y-90062380D02*
X176458476Y-90110000D01*
X176458476Y-90110000D02*
X176410857Y-90157619D01*
X175458476Y-91062380D02*
X176029904Y-91062380D01*
X175744190Y-91062380D02*
X175744190Y-90062380D01*
X175744190Y-90062380D02*
X175839428Y-90205238D01*
X175839428Y-90205238D02*
X175934666Y-90300476D01*
X175934666Y-90300476D02*
X176029904Y-90348095D01*
X174887047Y-90490952D02*
X174982285Y-90443333D01*
X174982285Y-90443333D02*
X175029904Y-90395714D01*
X175029904Y-90395714D02*
X175077523Y-90300476D01*
X175077523Y-90300476D02*
X175077523Y-90252857D01*
X175077523Y-90252857D02*
X175029904Y-90157619D01*
X175029904Y-90157619D02*
X174982285Y-90110000D01*
X174982285Y-90110000D02*
X174887047Y-90062380D01*
X174887047Y-90062380D02*
X174696571Y-90062380D01*
X174696571Y-90062380D02*
X174601333Y-90110000D01*
X174601333Y-90110000D02*
X174553714Y-90157619D01*
X174553714Y-90157619D02*
X174506095Y-90252857D01*
X174506095Y-90252857D02*
X174506095Y-90300476D01*
X174506095Y-90300476D02*
X174553714Y-90395714D01*
X174553714Y-90395714D02*
X174601333Y-90443333D01*
X174601333Y-90443333D02*
X174696571Y-90490952D01*
X174696571Y-90490952D02*
X174887047Y-90490952D01*
X174887047Y-90490952D02*
X174982285Y-90538571D01*
X174982285Y-90538571D02*
X175029904Y-90586190D01*
X175029904Y-90586190D02*
X175077523Y-90681428D01*
X175077523Y-90681428D02*
X175077523Y-90871904D01*
X175077523Y-90871904D02*
X175029904Y-90967142D01*
X175029904Y-90967142D02*
X174982285Y-91014761D01*
X174982285Y-91014761D02*
X174887047Y-91062380D01*
X174887047Y-91062380D02*
X174696571Y-91062380D01*
X174696571Y-91062380D02*
X174601333Y-91014761D01*
X174601333Y-91014761D02*
X174553714Y-90967142D01*
X174553714Y-90967142D02*
X174506095Y-90871904D01*
X174506095Y-90871904D02*
X174506095Y-90681428D01*
X174506095Y-90681428D02*
X174553714Y-90586190D01*
X174553714Y-90586190D02*
X174601333Y-90538571D01*
X174601333Y-90538571D02*
X174696571Y-90490952D01*
%TO.C,C7*%
X175956166Y-76108142D02*
X176003785Y-76155761D01*
X176003785Y-76155761D02*
X176146642Y-76203380D01*
X176146642Y-76203380D02*
X176241880Y-76203380D01*
X176241880Y-76203380D02*
X176384737Y-76155761D01*
X176384737Y-76155761D02*
X176479975Y-76060523D01*
X176479975Y-76060523D02*
X176527594Y-75965285D01*
X176527594Y-75965285D02*
X176575213Y-75774809D01*
X176575213Y-75774809D02*
X176575213Y-75631952D01*
X176575213Y-75631952D02*
X176527594Y-75441476D01*
X176527594Y-75441476D02*
X176479975Y-75346238D01*
X176479975Y-75346238D02*
X176384737Y-75251000D01*
X176384737Y-75251000D02*
X176241880Y-75203380D01*
X176241880Y-75203380D02*
X176146642Y-75203380D01*
X176146642Y-75203380D02*
X176003785Y-75251000D01*
X176003785Y-75251000D02*
X175956166Y-75298619D01*
X175622832Y-75203380D02*
X174956166Y-75203380D01*
X174956166Y-75203380D02*
X175384737Y-76203380D01*
%TO.C,C5*%
X186751166Y-66964142D02*
X186798785Y-67011761D01*
X186798785Y-67011761D02*
X186941642Y-67059380D01*
X186941642Y-67059380D02*
X187036880Y-67059380D01*
X187036880Y-67059380D02*
X187179737Y-67011761D01*
X187179737Y-67011761D02*
X187274975Y-66916523D01*
X187274975Y-66916523D02*
X187322594Y-66821285D01*
X187322594Y-66821285D02*
X187370213Y-66630809D01*
X187370213Y-66630809D02*
X187370213Y-66487952D01*
X187370213Y-66487952D02*
X187322594Y-66297476D01*
X187322594Y-66297476D02*
X187274975Y-66202238D01*
X187274975Y-66202238D02*
X187179737Y-66107000D01*
X187179737Y-66107000D02*
X187036880Y-66059380D01*
X187036880Y-66059380D02*
X186941642Y-66059380D01*
X186941642Y-66059380D02*
X186798785Y-66107000D01*
X186798785Y-66107000D02*
X186751166Y-66154619D01*
X185846404Y-66059380D02*
X186322594Y-66059380D01*
X186322594Y-66059380D02*
X186370213Y-66535571D01*
X186370213Y-66535571D02*
X186322594Y-66487952D01*
X186322594Y-66487952D02*
X186227356Y-66440333D01*
X186227356Y-66440333D02*
X185989261Y-66440333D01*
X185989261Y-66440333D02*
X185894023Y-66487952D01*
X185894023Y-66487952D02*
X185846404Y-66535571D01*
X185846404Y-66535571D02*
X185798785Y-66630809D01*
X185798785Y-66630809D02*
X185798785Y-66868904D01*
X185798785Y-66868904D02*
X185846404Y-66964142D01*
X185846404Y-66964142D02*
X185894023Y-67011761D01*
X185894023Y-67011761D02*
X185989261Y-67059380D01*
X185989261Y-67059380D02*
X186227356Y-67059380D01*
X186227356Y-67059380D02*
X186322594Y-67011761D01*
X186322594Y-67011761D02*
X186370213Y-66964142D01*
%TO.C,J1*%
X216312380Y-52249666D02*
X217026666Y-52249666D01*
X217026666Y-52249666D02*
X217169523Y-52202047D01*
X217169523Y-52202047D02*
X217264761Y-52106809D01*
X217264761Y-52106809D02*
X217312380Y-51963952D01*
X217312380Y-51963952D02*
X217312380Y-51868714D01*
X217312380Y-53249666D02*
X217312380Y-52678238D01*
X217312380Y-52963952D02*
X216312380Y-52963952D01*
X216312380Y-52963952D02*
X216455238Y-52868714D01*
X216455238Y-52868714D02*
X216550476Y-52773476D01*
X216550476Y-52773476D02*
X216598095Y-52678238D01*
%TO.C,C15*%
X186570857Y-90967142D02*
X186618476Y-91014761D01*
X186618476Y-91014761D02*
X186761333Y-91062380D01*
X186761333Y-91062380D02*
X186856571Y-91062380D01*
X186856571Y-91062380D02*
X186999428Y-91014761D01*
X186999428Y-91014761D02*
X187094666Y-90919523D01*
X187094666Y-90919523D02*
X187142285Y-90824285D01*
X187142285Y-90824285D02*
X187189904Y-90633809D01*
X187189904Y-90633809D02*
X187189904Y-90490952D01*
X187189904Y-90490952D02*
X187142285Y-90300476D01*
X187142285Y-90300476D02*
X187094666Y-90205238D01*
X187094666Y-90205238D02*
X186999428Y-90110000D01*
X186999428Y-90110000D02*
X186856571Y-90062380D01*
X186856571Y-90062380D02*
X186761333Y-90062380D01*
X186761333Y-90062380D02*
X186618476Y-90110000D01*
X186618476Y-90110000D02*
X186570857Y-90157619D01*
X185618476Y-91062380D02*
X186189904Y-91062380D01*
X185904190Y-91062380D02*
X185904190Y-90062380D01*
X185904190Y-90062380D02*
X185999428Y-90205238D01*
X185999428Y-90205238D02*
X186094666Y-90300476D01*
X186094666Y-90300476D02*
X186189904Y-90348095D01*
X184713714Y-90062380D02*
X185189904Y-90062380D01*
X185189904Y-90062380D02*
X185237523Y-90538571D01*
X185237523Y-90538571D02*
X185189904Y-90490952D01*
X185189904Y-90490952D02*
X185094666Y-90443333D01*
X185094666Y-90443333D02*
X184856571Y-90443333D01*
X184856571Y-90443333D02*
X184761333Y-90490952D01*
X184761333Y-90490952D02*
X184713714Y-90538571D01*
X184713714Y-90538571D02*
X184666095Y-90633809D01*
X184666095Y-90633809D02*
X184666095Y-90871904D01*
X184666095Y-90871904D02*
X184713714Y-90967142D01*
X184713714Y-90967142D02*
X184761333Y-91014761D01*
X184761333Y-91014761D02*
X184856571Y-91062380D01*
X184856571Y-91062380D02*
X185094666Y-91062380D01*
X185094666Y-91062380D02*
X185189904Y-91014761D01*
X185189904Y-91014761D02*
X185237523Y-90967142D01*
%TO.C,C8*%
X198921666Y-76108142D02*
X198969285Y-76155761D01*
X198969285Y-76155761D02*
X199112142Y-76203380D01*
X199112142Y-76203380D02*
X199207380Y-76203380D01*
X199207380Y-76203380D02*
X199350237Y-76155761D01*
X199350237Y-76155761D02*
X199445475Y-76060523D01*
X199445475Y-76060523D02*
X199493094Y-75965285D01*
X199493094Y-75965285D02*
X199540713Y-75774809D01*
X199540713Y-75774809D02*
X199540713Y-75631952D01*
X199540713Y-75631952D02*
X199493094Y-75441476D01*
X199493094Y-75441476D02*
X199445475Y-75346238D01*
X199445475Y-75346238D02*
X199350237Y-75251000D01*
X199350237Y-75251000D02*
X199207380Y-75203380D01*
X199207380Y-75203380D02*
X199112142Y-75203380D01*
X199112142Y-75203380D02*
X198969285Y-75251000D01*
X198969285Y-75251000D02*
X198921666Y-75298619D01*
X198350237Y-75631952D02*
X198445475Y-75584333D01*
X198445475Y-75584333D02*
X198493094Y-75536714D01*
X198493094Y-75536714D02*
X198540713Y-75441476D01*
X198540713Y-75441476D02*
X198540713Y-75393857D01*
X198540713Y-75393857D02*
X198493094Y-75298619D01*
X198493094Y-75298619D02*
X198445475Y-75251000D01*
X198445475Y-75251000D02*
X198350237Y-75203380D01*
X198350237Y-75203380D02*
X198159761Y-75203380D01*
X198159761Y-75203380D02*
X198064523Y-75251000D01*
X198064523Y-75251000D02*
X198016904Y-75298619D01*
X198016904Y-75298619D02*
X197969285Y-75393857D01*
X197969285Y-75393857D02*
X197969285Y-75441476D01*
X197969285Y-75441476D02*
X198016904Y-75536714D01*
X198016904Y-75536714D02*
X198064523Y-75584333D01*
X198064523Y-75584333D02*
X198159761Y-75631952D01*
X198159761Y-75631952D02*
X198350237Y-75631952D01*
X198350237Y-75631952D02*
X198445475Y-75679571D01*
X198445475Y-75679571D02*
X198493094Y-75727190D01*
X198493094Y-75727190D02*
X198540713Y-75822428D01*
X198540713Y-75822428D02*
X198540713Y-76012904D01*
X198540713Y-76012904D02*
X198493094Y-76108142D01*
X198493094Y-76108142D02*
X198445475Y-76155761D01*
X198445475Y-76155761D02*
X198350237Y-76203380D01*
X198350237Y-76203380D02*
X198159761Y-76203380D01*
X198159761Y-76203380D02*
X198064523Y-76155761D01*
X198064523Y-76155761D02*
X198016904Y-76108142D01*
X198016904Y-76108142D02*
X197969285Y-76012904D01*
X197969285Y-76012904D02*
X197969285Y-75822428D01*
X197969285Y-75822428D02*
X198016904Y-75727190D01*
X198016904Y-75727190D02*
X198064523Y-75679571D01*
X198064523Y-75679571D02*
X198159761Y-75631952D01*
%TO.C,C13*%
X209303857Y-84109142D02*
X209351476Y-84156761D01*
X209351476Y-84156761D02*
X209494333Y-84204380D01*
X209494333Y-84204380D02*
X209589571Y-84204380D01*
X209589571Y-84204380D02*
X209732428Y-84156761D01*
X209732428Y-84156761D02*
X209827666Y-84061523D01*
X209827666Y-84061523D02*
X209875285Y-83966285D01*
X209875285Y-83966285D02*
X209922904Y-83775809D01*
X209922904Y-83775809D02*
X209922904Y-83632952D01*
X209922904Y-83632952D02*
X209875285Y-83442476D01*
X209875285Y-83442476D02*
X209827666Y-83347238D01*
X209827666Y-83347238D02*
X209732428Y-83252000D01*
X209732428Y-83252000D02*
X209589571Y-83204380D01*
X209589571Y-83204380D02*
X209494333Y-83204380D01*
X209494333Y-83204380D02*
X209351476Y-83252000D01*
X209351476Y-83252000D02*
X209303857Y-83299619D01*
X208351476Y-84204380D02*
X208922904Y-84204380D01*
X208637190Y-84204380D02*
X208637190Y-83204380D01*
X208637190Y-83204380D02*
X208732428Y-83347238D01*
X208732428Y-83347238D02*
X208827666Y-83442476D01*
X208827666Y-83442476D02*
X208922904Y-83490095D01*
X208018142Y-83204380D02*
X207399095Y-83204380D01*
X207399095Y-83204380D02*
X207732428Y-83585333D01*
X207732428Y-83585333D02*
X207589571Y-83585333D01*
X207589571Y-83585333D02*
X207494333Y-83632952D01*
X207494333Y-83632952D02*
X207446714Y-83680571D01*
X207446714Y-83680571D02*
X207399095Y-83775809D01*
X207399095Y-83775809D02*
X207399095Y-84013904D01*
X207399095Y-84013904D02*
X207446714Y-84109142D01*
X207446714Y-84109142D02*
X207494333Y-84156761D01*
X207494333Y-84156761D02*
X207589571Y-84204380D01*
X207589571Y-84204380D02*
X207875285Y-84204380D01*
X207875285Y-84204380D02*
X207970523Y-84156761D01*
X207970523Y-84156761D02*
X208018142Y-84109142D01*
%TO.C,C3*%
X198435166Y-59471142D02*
X198482785Y-59518761D01*
X198482785Y-59518761D02*
X198625642Y-59566380D01*
X198625642Y-59566380D02*
X198720880Y-59566380D01*
X198720880Y-59566380D02*
X198863737Y-59518761D01*
X198863737Y-59518761D02*
X198958975Y-59423523D01*
X198958975Y-59423523D02*
X199006594Y-59328285D01*
X199006594Y-59328285D02*
X199054213Y-59137809D01*
X199054213Y-59137809D02*
X199054213Y-58994952D01*
X199054213Y-58994952D02*
X199006594Y-58804476D01*
X199006594Y-58804476D02*
X198958975Y-58709238D01*
X198958975Y-58709238D02*
X198863737Y-58614000D01*
X198863737Y-58614000D02*
X198720880Y-58566380D01*
X198720880Y-58566380D02*
X198625642Y-58566380D01*
X198625642Y-58566380D02*
X198482785Y-58614000D01*
X198482785Y-58614000D02*
X198435166Y-58661619D01*
X198101832Y-58566380D02*
X197482785Y-58566380D01*
X197482785Y-58566380D02*
X197816118Y-58947333D01*
X197816118Y-58947333D02*
X197673261Y-58947333D01*
X197673261Y-58947333D02*
X197578023Y-58994952D01*
X197578023Y-58994952D02*
X197530404Y-59042571D01*
X197530404Y-59042571D02*
X197482785Y-59137809D01*
X197482785Y-59137809D02*
X197482785Y-59375904D01*
X197482785Y-59375904D02*
X197530404Y-59471142D01*
X197530404Y-59471142D02*
X197578023Y-59518761D01*
X197578023Y-59518761D02*
X197673261Y-59566380D01*
X197673261Y-59566380D02*
X197958975Y-59566380D01*
X197958975Y-59566380D02*
X198054213Y-59518761D01*
X198054213Y-59518761D02*
X198101832Y-59471142D01*
%TO.C,C10*%
X208795857Y-90459142D02*
X208843476Y-90506761D01*
X208843476Y-90506761D02*
X208986333Y-90554380D01*
X208986333Y-90554380D02*
X209081571Y-90554380D01*
X209081571Y-90554380D02*
X209224428Y-90506761D01*
X209224428Y-90506761D02*
X209319666Y-90411523D01*
X209319666Y-90411523D02*
X209367285Y-90316285D01*
X209367285Y-90316285D02*
X209414904Y-90125809D01*
X209414904Y-90125809D02*
X209414904Y-89982952D01*
X209414904Y-89982952D02*
X209367285Y-89792476D01*
X209367285Y-89792476D02*
X209319666Y-89697238D01*
X209319666Y-89697238D02*
X209224428Y-89602000D01*
X209224428Y-89602000D02*
X209081571Y-89554380D01*
X209081571Y-89554380D02*
X208986333Y-89554380D01*
X208986333Y-89554380D02*
X208843476Y-89602000D01*
X208843476Y-89602000D02*
X208795857Y-89649619D01*
X207843476Y-90554380D02*
X208414904Y-90554380D01*
X208129190Y-90554380D02*
X208129190Y-89554380D01*
X208129190Y-89554380D02*
X208224428Y-89697238D01*
X208224428Y-89697238D02*
X208319666Y-89792476D01*
X208319666Y-89792476D02*
X208414904Y-89840095D01*
X207224428Y-89554380D02*
X207129190Y-89554380D01*
X207129190Y-89554380D02*
X207033952Y-89602000D01*
X207033952Y-89602000D02*
X206986333Y-89649619D01*
X206986333Y-89649619D02*
X206938714Y-89744857D01*
X206938714Y-89744857D02*
X206891095Y-89935333D01*
X206891095Y-89935333D02*
X206891095Y-90173428D01*
X206891095Y-90173428D02*
X206938714Y-90363904D01*
X206938714Y-90363904D02*
X206986333Y-90459142D01*
X206986333Y-90459142D02*
X207033952Y-90506761D01*
X207033952Y-90506761D02*
X207129190Y-90554380D01*
X207129190Y-90554380D02*
X207224428Y-90554380D01*
X207224428Y-90554380D02*
X207319666Y-90506761D01*
X207319666Y-90506761D02*
X207367285Y-90459142D01*
X207367285Y-90459142D02*
X207414904Y-90363904D01*
X207414904Y-90363904D02*
X207462523Y-90173428D01*
X207462523Y-90173428D02*
X207462523Y-89935333D01*
X207462523Y-89935333D02*
X207414904Y-89744857D01*
X207414904Y-89744857D02*
X207367285Y-89649619D01*
X207367285Y-89649619D02*
X207319666Y-89602000D01*
X207319666Y-89602000D02*
X207224428Y-89554380D01*
%TO.C,C17*%
X199524857Y-90840142D02*
X199572476Y-90887761D01*
X199572476Y-90887761D02*
X199715333Y-90935380D01*
X199715333Y-90935380D02*
X199810571Y-90935380D01*
X199810571Y-90935380D02*
X199953428Y-90887761D01*
X199953428Y-90887761D02*
X200048666Y-90792523D01*
X200048666Y-90792523D02*
X200096285Y-90697285D01*
X200096285Y-90697285D02*
X200143904Y-90506809D01*
X200143904Y-90506809D02*
X200143904Y-90363952D01*
X200143904Y-90363952D02*
X200096285Y-90173476D01*
X200096285Y-90173476D02*
X200048666Y-90078238D01*
X200048666Y-90078238D02*
X199953428Y-89983000D01*
X199953428Y-89983000D02*
X199810571Y-89935380D01*
X199810571Y-89935380D02*
X199715333Y-89935380D01*
X199715333Y-89935380D02*
X199572476Y-89983000D01*
X199572476Y-89983000D02*
X199524857Y-90030619D01*
X198572476Y-90935380D02*
X199143904Y-90935380D01*
X198858190Y-90935380D02*
X198858190Y-89935380D01*
X198858190Y-89935380D02*
X198953428Y-90078238D01*
X198953428Y-90078238D02*
X199048666Y-90173476D01*
X199048666Y-90173476D02*
X199143904Y-90221095D01*
X198239142Y-89935380D02*
X197572476Y-89935380D01*
X197572476Y-89935380D02*
X198001047Y-90935380D01*
%TO.C,C22*%
X176559357Y-59979142D02*
X176606976Y-60026761D01*
X176606976Y-60026761D02*
X176749833Y-60074380D01*
X176749833Y-60074380D02*
X176845071Y-60074380D01*
X176845071Y-60074380D02*
X176987928Y-60026761D01*
X176987928Y-60026761D02*
X177083166Y-59931523D01*
X177083166Y-59931523D02*
X177130785Y-59836285D01*
X177130785Y-59836285D02*
X177178404Y-59645809D01*
X177178404Y-59645809D02*
X177178404Y-59502952D01*
X177178404Y-59502952D02*
X177130785Y-59312476D01*
X177130785Y-59312476D02*
X177083166Y-59217238D01*
X177083166Y-59217238D02*
X176987928Y-59122000D01*
X176987928Y-59122000D02*
X176845071Y-59074380D01*
X176845071Y-59074380D02*
X176749833Y-59074380D01*
X176749833Y-59074380D02*
X176606976Y-59122000D01*
X176606976Y-59122000D02*
X176559357Y-59169619D01*
X176178404Y-59169619D02*
X176130785Y-59122000D01*
X176130785Y-59122000D02*
X176035547Y-59074380D01*
X176035547Y-59074380D02*
X175797452Y-59074380D01*
X175797452Y-59074380D02*
X175702214Y-59122000D01*
X175702214Y-59122000D02*
X175654595Y-59169619D01*
X175654595Y-59169619D02*
X175606976Y-59264857D01*
X175606976Y-59264857D02*
X175606976Y-59360095D01*
X175606976Y-59360095D02*
X175654595Y-59502952D01*
X175654595Y-59502952D02*
X176226023Y-60074380D01*
X176226023Y-60074380D02*
X175606976Y-60074380D01*
X175226023Y-59169619D02*
X175178404Y-59122000D01*
X175178404Y-59122000D02*
X175083166Y-59074380D01*
X175083166Y-59074380D02*
X174845071Y-59074380D01*
X174845071Y-59074380D02*
X174749833Y-59122000D01*
X174749833Y-59122000D02*
X174702214Y-59169619D01*
X174702214Y-59169619D02*
X174654595Y-59264857D01*
X174654595Y-59264857D02*
X174654595Y-59360095D01*
X174654595Y-59360095D02*
X174702214Y-59502952D01*
X174702214Y-59502952D02*
X175273642Y-60074380D01*
X175273642Y-60074380D02*
X174654595Y-60074380D01*
D11*
%TO.C,C21*%
X187597252Y-63686000D02*
X185274748Y-63686000D01*
X187597252Y-60266000D02*
X185274748Y-60266000D01*
%TO.C,C16*%
X200297252Y-87562000D02*
X197974748Y-87562000D01*
X200297252Y-84142000D02*
X197974748Y-84142000D01*
%TO.C,C19*%
X176950752Y-87435000D02*
X174628248Y-87435000D01*
X176950752Y-84015000D02*
X174628248Y-84015000D01*
%TO.C,C9*%
X199556752Y-70798000D02*
X197234248Y-70798000D01*
X199556752Y-67378000D02*
X197234248Y-67378000D01*
%TO.C,C4*%
X208954752Y-63813000D02*
X206632248Y-63813000D01*
X208954752Y-60393000D02*
X206632248Y-60393000D01*
%TO.C,R1*%
X165135369Y-54280000D02*
X163540631Y-54280000D01*
X165135369Y-49860000D02*
X163540631Y-49860000D01*
%TO.C,J3*%
X216729000Y-56201000D02*
X221929000Y-56201000D01*
X216729000Y-99441000D02*
X216729000Y-56201000D01*
X216729000Y-99441000D02*
X219329000Y-99441000D01*
X216729000Y-100711000D02*
X216729000Y-102041000D01*
X216729000Y-102041000D02*
X218059000Y-102041000D01*
X219329000Y-99441000D02*
X219329000Y-102041000D01*
X219329000Y-102041000D02*
X221929000Y-102041000D01*
X221929000Y-102041000D02*
X221929000Y-56201000D01*
%TO.C,J4*%
X215071000Y-103699000D02*
X215071000Y-108899000D01*
X171831000Y-103699000D02*
X215071000Y-103699000D01*
X171831000Y-103699000D02*
X171831000Y-106299000D01*
X170561000Y-103699000D02*
X169231000Y-103699000D01*
X169231000Y-103699000D02*
X169231000Y-105029000D01*
X171831000Y-106299000D02*
X169231000Y-106299000D01*
X169231000Y-106299000D02*
X169231000Y-108899000D01*
X169231000Y-108899000D02*
X215071000Y-108899000D01*
%TO.C,C11*%
X176929252Y-72195000D02*
X174606748Y-72195000D01*
X176929252Y-68775000D02*
X174606748Y-68775000D01*
%TO.C,C12*%
X209208752Y-70671000D02*
X206886248Y-70671000D01*
X209208752Y-67251000D02*
X206886248Y-67251000D01*
%TO.C,C14*%
X208954752Y-80323000D02*
X206632248Y-80323000D01*
X208954752Y-76903000D02*
X206632248Y-76903000D01*
%TO.C,C23*%
X229126252Y-61908000D02*
X226803748Y-61908000D01*
X229126252Y-58488000D02*
X226803748Y-58488000D01*
%TO.C,C20*%
X187597252Y-87054000D02*
X185274748Y-87054000D01*
X187597252Y-83634000D02*
X185274748Y-83634000D01*
%TO.C,J2*%
X167954000Y-102041000D02*
X162754000Y-102041000D01*
X167954000Y-58801000D02*
X167954000Y-102041000D01*
X167954000Y-58801000D02*
X165354000Y-58801000D01*
X167954000Y-57531000D02*
X167954000Y-56201000D01*
X167954000Y-56201000D02*
X166624000Y-56201000D01*
X165354000Y-58801000D02*
X165354000Y-56201000D01*
X165354000Y-56201000D02*
X162754000Y-56201000D01*
X162754000Y-56201000D02*
X162754000Y-102041000D01*
%TO.C,C6*%
X187364752Y-80196000D02*
X185042248Y-80196000D01*
X187364752Y-76776000D02*
X185042248Y-76776000D01*
%TO.C,C18*%
X176929252Y-95055000D02*
X174606748Y-95055000D01*
X176929252Y-91635000D02*
X174606748Y-91635000D01*
%TO.C,C7*%
X176950752Y-80196000D02*
X174628248Y-80196000D01*
X176950752Y-76776000D02*
X174628248Y-76776000D01*
%TO.C,C5*%
X187745752Y-71052000D02*
X185423248Y-71052000D01*
X187745752Y-67632000D02*
X185423248Y-67632000D01*
%TO.C,J1*%
X170105000Y-55183000D02*
X170105000Y-49983000D01*
X213345000Y-55183000D02*
X170105000Y-55183000D01*
X213345000Y-55183000D02*
X213345000Y-52583000D01*
X214615000Y-55183000D02*
X215945000Y-55183000D01*
X215945000Y-55183000D02*
X215945000Y-53853000D01*
X213345000Y-52583000D02*
X215945000Y-52583000D01*
X215945000Y-52583000D02*
X215945000Y-49983000D01*
X215945000Y-49983000D02*
X170105000Y-49983000D01*
%TO.C,C15*%
X187089252Y-95055000D02*
X184766748Y-95055000D01*
X187089252Y-91635000D02*
X184766748Y-91635000D01*
%TO.C,C8*%
X199916252Y-80196000D02*
X197593748Y-80196000D01*
X199916252Y-76776000D02*
X197593748Y-76776000D01*
%TO.C,C13*%
X209822252Y-88197000D02*
X207499748Y-88197000D01*
X209822252Y-84777000D02*
X207499748Y-84777000D01*
%TO.C,C3*%
X199429752Y-63559000D02*
X197107248Y-63559000D01*
X199429752Y-60139000D02*
X197107248Y-60139000D01*
%TO.C,C10*%
X209314252Y-94547000D02*
X206991748Y-94547000D01*
X209314252Y-91127000D02*
X206991748Y-91127000D01*
%TO.C,C17*%
X200043252Y-94928000D02*
X197720748Y-94928000D01*
X200043252Y-91508000D02*
X197720748Y-91508000D01*
%TO.C,C22*%
X177077752Y-64067000D02*
X174755248Y-64067000D01*
X177077752Y-60647000D02*
X174755248Y-60647000D01*
%TD*%
M02*
