M48
INCH,TZ
T1C0.0157
T2C0.0197
T3C0.0276
T4C0.0394
T5C0.0433
T6C0.0472
T7C0.0488
T8C0.1772
%
G90
G05
T1
X10760Y-25360
X11260Y-3858
X11969Y-9449
X12047Y-27195
X14300Y-33380
X16772Y-27402
X16772Y-28189
X16929Y-29449
X16929Y-32126
X17244Y-31732
X17561Y-30941
X17640Y-26560
X17645Y-26167
X17724Y-25781
X17777Y-27209
X18020Y-30660
X18346Y-9449
X18365Y-28790
X18500Y-29160
X18523Y-27988
X18661Y-32205
X19160Y-33040
X19400Y-27200
X19502Y-28964
X19660Y-33000
X20048Y-32932
X20079Y-25354
X20280Y-28146
X20315Y-3858
X20528Y-31143
X20546Y-28478
X20560Y-27780
X20800Y-28140
X20820Y-26680
X21120Y-33114
X21180Y-30255
X21181Y-30945
X21460Y-26580
X21509Y-33052
X21654Y-27953
X21688Y-25974
X21940Y-32380
X22205Y-28504
X22283Y-26034
X22380Y-32420
X23071Y-20000
X23150Y-20472
X23307Y-19606
X23622Y-32047
X23780Y-32913
X23900Y-33760
X24331Y-27986
X24724Y-27717
X24724Y-31181
X25197Y-16850
X25197Y-29380
X25827Y-29528
X25827Y-24567
X26220Y-24567
X26535Y-29606
X26535Y-30787
X27008Y-24567
X27008Y-29921
X27126Y-23740
X27244Y-17717
X27480Y-24567
X27480Y-28189
X27874Y-28819
X27874Y-29291
X28848Y-13858
X29134Y-19921
X29764Y-22756
X29921Y-21969
X30000Y-10394
X30551Y-5906
X30748Y-22795
X30985Y-13071
X31339Y-21260
X31496Y-10709
X31575Y-13228
X31654Y-26929
X31732Y-5591
X31890Y-26614
X32047Y-26220
X32441Y-19213
X32520Y-21102
X32660Y-21980
X32720Y-23860
X32835Y-21417
X33071Y-11654
X33622Y-19921
X34173Y-20079
X34488Y-20630
X35354Y-24065
X36299Y-13071
X37088Y-14568
X37323Y-13780
X38110Y-20394
X38110Y-21732
X38110Y-22362
X38346Y-13858
X39449Y-17717
X39764Y-8976
X39921Y-23543
X40315Y-23543
X40784Y-28425
X40784Y-28976
X40866Y-17795
X41181Y-24409
T2
X6750Y-29400
X6750Y-30581
X6750Y-31762
X6750Y-35519
X6750Y-36700
X6750Y-37881
T3
X6750Y-28101
X6750Y-33022
X6750Y-34220
X6750Y-39141
T4
X5827Y-11181
X6750Y-21500
X6750Y-22500
X6750Y-23500
X6750Y-24500
X6750Y-25500
X6750Y-26500
X9200Y-8450
X9250Y-13750
X15700Y-40550
X16700Y-40550
X17700Y-40550
X17795Y-14331
X18700Y-40550
X19700Y-40550
X20700Y-40550
X22750Y-40500
X23750Y-40500
X24750Y-40500
X25750Y-40500
X30002Y-15773
X30502Y-17773
X31002Y-15773
X31502Y-17773
X32002Y-15773
X32502Y-17773
X33002Y-15773
X33502Y-17773
X34002Y-15773
X34502Y-17773
X35002Y-15773
X35502Y-17773
X36002Y-15773
X36502Y-17773
X37002Y-15773
T5
X9791Y-39014
X9791Y-40786
X12350Y-39014
X12350Y-40786
T6
X27911Y-6476
X29289Y-6476
X31644Y-6550
X33022Y-6550
X34400Y-6550
X35778Y-6550
X37156Y-6550
X38534Y-6550
X42224Y-8405
X42224Y-9783
X42224Y-11161
X42224Y-12539
X42224Y-13917
X42224Y-15295
X42700Y-24622
X42700Y-26000
X42700Y-27378
X42700Y-28756
X42700Y-30134
X42700Y-31512
X42700Y-32890
X42700Y-34268
X42700Y-35646
X42874Y-20728
X42874Y-22106
T7
X11250Y-11200
X11250Y-12200
X11250Y-13200
X11278Y-6000
X11278Y-7000
X11278Y-8000
X20300Y-11400
X20300Y-12400
X20300Y-13400
X20328Y-6100
X20328Y-7100
X20328Y-8100
T8
X6022Y-4646
X6142Y-7480
T0
M30
