%TF.GenerationSoftware,KiCad,Pcbnew,(7.0.0)*%
%TF.CreationDate,2023-04-06T04:01:54-05:00*%
%TF.ProjectId,finalproj,66696e61-6c70-4726-9f6a-2e6b69636164,rev?*%
%TF.SameCoordinates,Original*%
%TF.FileFunction,Soldermask,Top*%
%TF.FilePolarity,Negative*%
%FSLAX46Y46*%
G04 Gerber Fmt 4.6, Leading zero omitted, Abs format (unit mm)*
G04 Created by KiCad (PCBNEW (7.0.0)) date 2023-04-06 04:01:54*
%MOMM*%
%LPD*%
G01*
G04 APERTURE LIST*
G04 Aperture macros list*
%AMRoundRect*
0 Rectangle with rounded corners*
0 $1 Rounding radius*
0 $2 $3 $4 $5 $6 $7 $8 $9 X,Y pos of 4 corners*
0 Add a 4 corners polygon primitive as box body*
4,1,4,$2,$3,$4,$5,$6,$7,$8,$9,$2,$3,0*
0 Add four circle primitives for the rounded corners*
1,1,$1+$1,$2,$3*
1,1,$1+$1,$4,$5*
1,1,$1+$1,$6,$7*
1,1,$1+$1,$8,$9*
0 Add four rect primitives between the rounded corners*
20,1,$1+$1,$2,$3,$4,$5,0*
20,1,$1+$1,$4,$5,$6,$7,0*
20,1,$1+$1,$6,$7,$8,$9,0*
20,1,$1+$1,$8,$9,$2,$3,0*%
G04 Aperture macros list end*
%ADD10C,3.200000*%
%ADD11RoundRect,0.250000X-0.250000X-0.475000X0.250000X-0.475000X0.250000X0.475000X-0.250000X0.475000X0*%
%ADD12RoundRect,0.250000X0.475000X-0.250000X0.475000X0.250000X-0.475000X0.250000X-0.475000X-0.250000X0*%
%ADD13R,2.100000X5.600000*%
%ADD14RoundRect,0.250000X-0.400000X-0.625000X0.400000X-0.625000X0.400000X0.625000X-0.400000X0.625000X0*%
%ADD15R,6.000000X6.000000*%
%ADD16C,6.000000*%
%ADD17R,1.800000X1.800000*%
%ADD18O,1.800000X1.800000*%
%ADD19R,1.860000X1.860000*%
%ADD20C,1.860000*%
%ADD21R,1.200000X1.200000*%
%ADD22R,1.600000X1.500000*%
%ADD23R,1.500000X1.600000*%
%ADD24RoundRect,0.250000X0.625000X-0.400000X0.625000X0.400000X-0.625000X0.400000X-0.625000X-0.400000X0*%
%ADD25RoundRect,0.250000X-0.625000X0.400000X-0.625000X-0.400000X0.625000X-0.400000X0.625000X0.400000X0*%
%ADD26R,2.400000X2.400000*%
%ADD27C,2.400000*%
%ADD28R,1.700000X1.700000*%
%ADD29O,1.700000X1.700000*%
%ADD30RoundRect,0.150000X0.150000X-0.587500X0.150000X0.587500X-0.150000X0.587500X-0.150000X-0.587500X0*%
%ADD31RoundRect,0.150000X-0.587500X-0.150000X0.587500X-0.150000X0.587500X0.150000X-0.587500X0.150000X0*%
%ADD32R,1.800000X1.000000*%
%ADD33RoundRect,0.075000X-0.700000X-0.075000X0.700000X-0.075000X0.700000X0.075000X-0.700000X0.075000X0*%
%ADD34RoundRect,0.075000X-0.075000X-0.700000X0.075000X-0.700000X0.075000X0.700000X-0.075000X0.700000X0*%
%ADD35C,2.000000*%
%ADD36RoundRect,0.250000X0.400000X0.625000X-0.400000X0.625000X-0.400000X-0.625000X0.400000X-0.625000X0*%
G04 APERTURE END LIST*
D10*
%TO.C,H4*%
X65500000Y-77670000D03*
%TD*%
%TO.C,H3*%
X65500000Y-69720000D03*
%TD*%
%TO.C,H2*%
X65500000Y-61770000D03*
%TD*%
%TO.C,H1*%
X65500000Y-53820000D03*
%TD*%
D11*
%TO.C,C43*%
X84100000Y-75430000D03*
X86000000Y-75430000D03*
%TD*%
%TO.C,C42*%
X84100000Y-72420000D03*
X86000000Y-72420000D03*
%TD*%
%TO.C,C41*%
X84100000Y-69410000D03*
X86000000Y-69410000D03*
%TD*%
%TO.C,C40*%
X84100000Y-66400000D03*
X86000000Y-66400000D03*
%TD*%
%TO.C,C39*%
X84100000Y-63390000D03*
X86000000Y-63390000D03*
%TD*%
%TO.C,C38*%
X84100000Y-60380000D03*
X86000000Y-60380000D03*
%TD*%
%TO.C,C37*%
X84100000Y-57370000D03*
X86000000Y-57370000D03*
%TD*%
%TO.C,C36*%
X84100000Y-54360000D03*
X86000000Y-54360000D03*
%TD*%
%TO.C,C35*%
X84100000Y-51350000D03*
X86000000Y-51350000D03*
%TD*%
D12*
%TO.C,C34*%
X30800000Y-36400000D03*
X30800000Y-34500000D03*
%TD*%
%TO.C,C33*%
X27390000Y-36400000D03*
X27390000Y-34500000D03*
%TD*%
D11*
%TO.C,C32*%
X79650000Y-69410000D03*
X81550000Y-69410000D03*
%TD*%
%TO.C,C31*%
X79650000Y-66400000D03*
X81550000Y-66400000D03*
%TD*%
%TO.C,C30*%
X79650000Y-63390000D03*
X81550000Y-63390000D03*
%TD*%
%TO.C,C29*%
X79650000Y-60380000D03*
X81550000Y-60380000D03*
%TD*%
D12*
%TO.C,C28*%
X23600000Y-36350000D03*
X23600000Y-34450000D03*
%TD*%
D11*
%TO.C,C27*%
X79650000Y-54360000D03*
X81550000Y-54360000D03*
%TD*%
%TO.C,C26*%
X79650000Y-51350000D03*
X81550000Y-51350000D03*
%TD*%
D12*
%TO.C,C25*%
X34600000Y-34450000D03*
X34600000Y-36350000D03*
%TD*%
D11*
%TO.C,C24*%
X75200000Y-72420000D03*
X77100000Y-72420000D03*
%TD*%
%TO.C,C23*%
X95550000Y-82670000D03*
X97450000Y-82670000D03*
%TD*%
%TO.C,C22*%
X95550000Y-79660000D03*
X97450000Y-79660000D03*
%TD*%
%TO.C,C21*%
X75200000Y-63390000D03*
X77100000Y-63390000D03*
%TD*%
%TO.C,C20*%
X95550000Y-74880000D03*
X97450000Y-74880000D03*
%TD*%
%TO.C,C19*%
X95550000Y-71870000D03*
X97450000Y-71870000D03*
%TD*%
%TO.C,C18*%
X95550000Y-68860000D03*
X97450000Y-68860000D03*
%TD*%
%TO.C,C17*%
X95550000Y-65850000D03*
X97450000Y-65850000D03*
%TD*%
%TO.C,C16*%
X95550000Y-62690000D03*
X97450000Y-62690000D03*
%TD*%
%TO.C,C15*%
X95550000Y-59680000D03*
X97450000Y-59680000D03*
%TD*%
%TO.C,C14*%
X95550000Y-56670000D03*
X97450000Y-56670000D03*
%TD*%
%TO.C,C6*%
X70750000Y-66400000D03*
X72650000Y-66400000D03*
%TD*%
%TO.C,C5*%
X70750000Y-63390000D03*
X72650000Y-63390000D03*
%TD*%
%TO.C,C4*%
X70750000Y-60380000D03*
X72650000Y-60380000D03*
%TD*%
%TO.C,C3*%
X70750000Y-57370000D03*
X72650000Y-57370000D03*
%TD*%
%TO.C,C2*%
X70750000Y-54360000D03*
X72650000Y-54360000D03*
%TD*%
%TO.C,C1*%
X70750000Y-51350000D03*
X72650000Y-51350000D03*
%TD*%
D13*
%TO.C,Y1*%
X34999999Y-82949999D03*
X34999999Y-73449999D03*
%TD*%
D14*
%TO.C,R6*%
X38850000Y-85200000D03*
X41950000Y-85200000D03*
%TD*%
D15*
%TO.C,POW1*%
X19999999Y-27999999D03*
D16*
X19695000Y-20800000D03*
%TD*%
D17*
%TO.C,U5*%
X91569999Y-31919999D03*
D18*
X90299999Y-36999999D03*
X89029999Y-31919999D03*
X87759999Y-36999999D03*
X86489999Y-31919999D03*
X85219999Y-36999999D03*
X83949999Y-31919999D03*
X82679999Y-36999999D03*
X81409999Y-31919999D03*
X80139999Y-36999999D03*
X78869999Y-31919999D03*
X77599999Y-36999999D03*
X76329999Y-31919999D03*
X75059999Y-36999999D03*
X73789999Y-31919999D03*
%TD*%
D19*
%TO.C,U4*%
X26319999Y-42999999D03*
D20*
X28860000Y-43000000D03*
X31400000Y-43000000D03*
%TD*%
D19*
%TO.C,U3*%
X40919999Y-42999999D03*
D20*
X43460000Y-43000000D03*
X46000000Y-43000000D03*
%TD*%
D19*
%TO.C,U2*%
X54319999Y-30399999D03*
D20*
X56860000Y-30400000D03*
X59400000Y-30400000D03*
%TD*%
D19*
%TO.C,U1*%
X54519999Y-18999999D03*
D20*
X57060000Y-19000000D03*
X59600000Y-19000000D03*
%TD*%
D21*
%TO.C,RV4*%
X43199999Y-19399999D03*
D22*
X44199999Y-16149999D03*
D21*
X45199999Y-19399999D03*
%TD*%
%TO.C,RV3*%
X23149999Y-47599999D03*
D23*
X26399999Y-48599999D03*
D21*
X23149999Y-49599999D03*
%TD*%
%TO.C,RV2*%
X43199999Y-35999999D03*
D22*
X44199999Y-32749999D03*
D21*
X45199999Y-35999999D03*
%TD*%
%TO.C,RV1*%
X40799999Y-48199999D03*
D23*
X44049999Y-49199999D03*
D21*
X40799999Y-50199999D03*
%TD*%
D24*
%TO.C,R7*%
X49200000Y-36150000D03*
X49200000Y-33050000D03*
%TD*%
D14*
%TO.C,R5*%
X30050000Y-49000000D03*
X33150000Y-49000000D03*
%TD*%
D25*
%TO.C,R3*%
X48400000Y-16250000D03*
X48400000Y-19350000D03*
%TD*%
D14*
%TO.C,R1*%
X46700000Y-49000000D03*
X49800000Y-49000000D03*
%TD*%
D26*
%TO.C,POW3*%
X105799999Y-87399999D03*
D27*
X105800000Y-83900000D03*
%TD*%
D26*
%TO.C,POW2*%
X71999999Y-17999999D03*
D27*
X68500000Y-18000000D03*
%TD*%
D26*
%TO.C,J11*%
X97749999Y-18499999D03*
D27*
X94250000Y-18500000D03*
X90750000Y-18500000D03*
X87250000Y-18500000D03*
X83750000Y-18500000D03*
X80250000Y-18500000D03*
%TD*%
D26*
%TO.C,J10*%
X105599999Y-42599999D03*
D27*
X105600000Y-39100000D03*
X105600000Y-35600000D03*
X105600000Y-32100000D03*
X105600000Y-28600000D03*
X105600000Y-25100000D03*
%TD*%
D28*
%TO.C,J9*%
X101779999Y-93199999D03*
D29*
X104319999Y-93199999D03*
X106859999Y-93199999D03*
X109399999Y-93199999D03*
%TD*%
D28*
%TO.C,J7*%
X96779999Y-97199999D03*
D29*
X99319999Y-97199999D03*
X101859999Y-97199999D03*
X104399999Y-97199999D03*
X106939999Y-97199999D03*
X109479999Y-97199999D03*
%TD*%
D26*
%TO.C,J5*%
X105599999Y-78799999D03*
D27*
X105600000Y-75300000D03*
X105600000Y-71800000D03*
X105600000Y-68300000D03*
X105600000Y-64800000D03*
X105600000Y-61300000D03*
X105600000Y-57800000D03*
X105600000Y-54300000D03*
X105600000Y-50800000D03*
%TD*%
D30*
%TO.C,D4*%
X89200000Y-27400000D03*
X91100000Y-27400000D03*
X90150000Y-25525000D03*
%TD*%
%TO.C,D3*%
X84750000Y-27400000D03*
X86650000Y-27400000D03*
X85700000Y-25525000D03*
%TD*%
D31*
%TO.C,D2*%
X97062500Y-35250000D03*
X97062500Y-37150000D03*
X98937500Y-36200000D03*
%TD*%
%TO.C,D1*%
X97062500Y-30800000D03*
X97062500Y-32700000D03*
X98937500Y-31750000D03*
%TD*%
D32*
%TO.C,Y2*%
X36399999Y-60249999D03*
X36399999Y-57749999D03*
%TD*%
D33*
%TO.C,U7*%
X47925000Y-60850000D03*
X47925000Y-61350000D03*
X47925000Y-61850000D03*
X47925000Y-62350000D03*
X47925000Y-62850000D03*
X47925000Y-63350000D03*
X47925000Y-63850000D03*
X47925000Y-64350000D03*
X47925000Y-64850000D03*
X47925000Y-65350000D03*
X47925000Y-65850000D03*
X47925000Y-66350000D03*
X47925000Y-66850000D03*
X47925000Y-67350000D03*
X47925000Y-67850000D03*
X47925000Y-68350000D03*
D34*
X49850000Y-70275000D03*
X50350000Y-70275000D03*
X50850000Y-70275000D03*
X51350000Y-70275000D03*
X51850000Y-70275000D03*
X52350000Y-70275000D03*
X52850000Y-70275000D03*
X53350000Y-70275000D03*
X53850000Y-70275000D03*
X54350000Y-70275000D03*
X54850000Y-70275000D03*
X55350000Y-70275000D03*
X55850000Y-70275000D03*
X56350000Y-70275000D03*
X56850000Y-70275000D03*
X57350000Y-70275000D03*
D33*
X59275000Y-68350000D03*
X59275000Y-67850000D03*
X59275000Y-67350000D03*
X59275000Y-66850000D03*
X59275000Y-66350000D03*
X59275000Y-65850000D03*
X59275000Y-65350000D03*
X59275000Y-64850000D03*
X59275000Y-64350000D03*
X59275000Y-63850000D03*
X59275000Y-63350000D03*
X59275000Y-62850000D03*
X59275000Y-62350000D03*
X59275000Y-61850000D03*
X59275000Y-61350000D03*
X59275000Y-60850000D03*
D34*
X57350000Y-58925000D03*
X56850000Y-58925000D03*
X56350000Y-58925000D03*
X55850000Y-58925000D03*
X55350000Y-58925000D03*
X54850000Y-58925000D03*
X54350000Y-58925000D03*
X53850000Y-58925000D03*
X53350000Y-58925000D03*
X52850000Y-58925000D03*
X52350000Y-58925000D03*
X51850000Y-58925000D03*
X51350000Y-58925000D03*
X50850000Y-58925000D03*
X50350000Y-58925000D03*
X49850000Y-58925000D03*
%TD*%
D35*
%TO.C,SW3*%
X16750000Y-74550000D03*
X16750000Y-81050000D03*
X21250000Y-74550000D03*
X21250000Y-81050000D03*
%TD*%
D24*
%TO.C,R10*%
X36400000Y-55150000D03*
X36400000Y-52050000D03*
%TD*%
%TO.C,R9*%
X36400000Y-65750000D03*
X36400000Y-62650000D03*
%TD*%
D36*
%TO.C,R8*%
X41950000Y-68600000D03*
X38850000Y-68600000D03*
%TD*%
D14*
%TO.C,R4*%
X51650000Y-94600000D03*
X54750000Y-94600000D03*
%TD*%
%TO.C,R2*%
X51650000Y-91310000D03*
X54750000Y-91310000D03*
%TD*%
D28*
%TO.C,J6*%
X15399999Y-50399999D03*
%TD*%
%TO.C,J4*%
X20199999Y-56459999D03*
D29*
X20199999Y-58999999D03*
X20199999Y-61539999D03*
X20199999Y-64079999D03*
X20199999Y-66619999D03*
X20199999Y-69159999D03*
%TD*%
D28*
%TO.C,J3*%
X15399999Y-46799999D03*
%TD*%
%TO.C,J2*%
X15399999Y-43199999D03*
%TD*%
%TO.C,J1*%
X15399999Y-39399999D03*
%TD*%
M02*
