%TF.GenerationSoftware,KiCad,Pcbnew,7.0.0*%
%TF.CreationDate,2023-03-07T12:34:42-06:00*%
%TF.ProjectId,finalproj_breakout,66696e61-6c70-4726-9f6a-5f627265616b,rev?*%
%TF.SameCoordinates,Original*%
%TF.FileFunction,Soldermask,Top*%
%TF.FilePolarity,Negative*%
%FSLAX46Y46*%
G04 Gerber Fmt 4.6, Leading zero omitted, Abs format (unit mm)*
G04 Created by KiCad (PCBNEW 7.0.0) date 2023-03-07 12:34:42*
%MOMM*%
%LPD*%
G01*
G04 APERTURE LIST*
G04 Aperture macros list*
%AMRoundRect*
0 Rectangle with rounded corners*
0 $1 Rounding radius*
0 $2 $3 $4 $5 $6 $7 $8 $9 X,Y pos of 4 corners*
0 Add a 4 corners polygon primitive as box body*
4,1,4,$2,$3,$4,$5,$6,$7,$8,$9,$2,$3,0*
0 Add four circle primitives for the rounded corners*
1,1,$1+$1,$2,$3*
1,1,$1+$1,$4,$5*
1,1,$1+$1,$6,$7*
1,1,$1+$1,$8,$9*
0 Add four rect primitives between the rounded corners*
20,1,$1+$1,$2,$3,$4,$5,0*
20,1,$1+$1,$4,$5,$6,$7,0*
20,1,$1+$1,$6,$7,$8,$9,0*
20,1,$1+$1,$8,$9,$2,$3,0*%
G04 Aperture macros list end*
%ADD10R,1.700000X1.700000*%
%ADD11O,1.700000X1.700000*%
%ADD12C,2.000000*%
%ADD13RoundRect,0.075000X-0.662500X-0.075000X0.662500X-0.075000X0.662500X0.075000X-0.662500X0.075000X0*%
%ADD14RoundRect,0.075000X-0.075000X-0.662500X0.075000X-0.662500X0.075000X0.662500X-0.075000X0.662500X0*%
G04 APERTURE END LIST*
D10*
%TO.C,J8*%
X226059999Y-65912999D03*
D11*
X226059999Y-68452999D03*
X226059999Y-70992999D03*
X226059999Y-73532999D03*
X226059999Y-76072999D03*
X226059999Y-78612999D03*
%TD*%
D12*
%TO.C,SW1*%
X225624000Y-91440000D03*
X225624000Y-84940000D03*
X230124000Y-91440000D03*
X230124000Y-84940000D03*
%TD*%
D13*
%TO.C,U1*%
X181615500Y-70498000D03*
X181615500Y-70998000D03*
X181615500Y-71498000D03*
X181615500Y-71998000D03*
X181615500Y-72498000D03*
X181615500Y-72998000D03*
X181615500Y-73498000D03*
X181615500Y-73998000D03*
X181615500Y-74498000D03*
X181615500Y-74998000D03*
X181615500Y-75498000D03*
X181615500Y-75998000D03*
X181615500Y-76498000D03*
X181615500Y-76998000D03*
X181615500Y-77498000D03*
X181615500Y-77998000D03*
X181615500Y-78498000D03*
X181615500Y-78998000D03*
X181615500Y-79498000D03*
X181615500Y-79998000D03*
X181615500Y-80498000D03*
X181615500Y-80998000D03*
X181615500Y-81498000D03*
X181615500Y-81998000D03*
X181615500Y-82498000D03*
X181615500Y-82998000D03*
X181615500Y-83498000D03*
X181615500Y-83998000D03*
X181615500Y-84498000D03*
X181615500Y-84998000D03*
X181615500Y-85498000D03*
X181615500Y-85998000D03*
X181615500Y-86498000D03*
X181615500Y-86998000D03*
X181615500Y-87498000D03*
X181615500Y-87998000D03*
D14*
X183528000Y-89910500D03*
X184028000Y-89910500D03*
X184528000Y-89910500D03*
X185028000Y-89910500D03*
X185528000Y-89910500D03*
X186028000Y-89910500D03*
X186528000Y-89910500D03*
X187028000Y-89910500D03*
X187528000Y-89910500D03*
X188028000Y-89910500D03*
X188528000Y-89910500D03*
X189028000Y-89910500D03*
X189528000Y-89910500D03*
X190028000Y-89910500D03*
X190528000Y-89910500D03*
X191028000Y-89910500D03*
X191528000Y-89910500D03*
X192028000Y-89910500D03*
X192528000Y-89910500D03*
X193028000Y-89910500D03*
X193528000Y-89910500D03*
X194028000Y-89910500D03*
X194528000Y-89910500D03*
X195028000Y-89910500D03*
X195528000Y-89910500D03*
X196028000Y-89910500D03*
X196528000Y-89910500D03*
X197028000Y-89910500D03*
X197528000Y-89910500D03*
X198028000Y-89910500D03*
X198528000Y-89910500D03*
X199028000Y-89910500D03*
X199528000Y-89910500D03*
X200028000Y-89910500D03*
X200528000Y-89910500D03*
X201028000Y-89910500D03*
D13*
X202940500Y-87998000D03*
X202940500Y-87498000D03*
X202940500Y-86998000D03*
X202940500Y-86498000D03*
X202940500Y-85998000D03*
X202940500Y-85498000D03*
X202940500Y-84998000D03*
X202940500Y-84498000D03*
X202940500Y-83998000D03*
X202940500Y-83498000D03*
X202940500Y-82998000D03*
X202940500Y-82498000D03*
X202940500Y-81998000D03*
X202940500Y-81498000D03*
X202940500Y-80998000D03*
X202940500Y-80498000D03*
X202940500Y-79998000D03*
X202940500Y-79498000D03*
X202940500Y-78998000D03*
X202940500Y-78498000D03*
X202940500Y-77998000D03*
X202940500Y-77498000D03*
X202940500Y-76998000D03*
X202940500Y-76498000D03*
X202940500Y-75998000D03*
X202940500Y-75498000D03*
X202940500Y-74998000D03*
X202940500Y-74498000D03*
X202940500Y-73998000D03*
X202940500Y-73498000D03*
X202940500Y-72998000D03*
X202940500Y-72498000D03*
X202940500Y-71998000D03*
X202940500Y-71498000D03*
X202940500Y-70998000D03*
X202940500Y-70498000D03*
D14*
X201028000Y-68585500D03*
X200528000Y-68585500D03*
X200028000Y-68585500D03*
X199528000Y-68585500D03*
X199028000Y-68585500D03*
X198528000Y-68585500D03*
X198028000Y-68585500D03*
X197528000Y-68585500D03*
X197028000Y-68585500D03*
X196528000Y-68585500D03*
X196028000Y-68585500D03*
X195528000Y-68585500D03*
X195028000Y-68585500D03*
X194528000Y-68585500D03*
X194028000Y-68585500D03*
X193528000Y-68585500D03*
X193028000Y-68585500D03*
X192528000Y-68585500D03*
X192028000Y-68585500D03*
X191528000Y-68585500D03*
X191028000Y-68585500D03*
X190528000Y-68585500D03*
X190028000Y-68585500D03*
X189528000Y-68585500D03*
X189028000Y-68585500D03*
X188528000Y-68585500D03*
X188028000Y-68585500D03*
X187528000Y-68585500D03*
X187028000Y-68585500D03*
X186528000Y-68585500D03*
X186028000Y-68585500D03*
X185528000Y-68585500D03*
X185028000Y-68585500D03*
X184528000Y-68585500D03*
X184028000Y-68585500D03*
X183528000Y-68585500D03*
%TD*%
D10*
%TO.C,J3*%
X218058999Y-100710999D03*
D11*
X220598999Y-100710999D03*
X218058999Y-98170999D03*
X220598999Y-98170999D03*
X218058999Y-95630999D03*
X220598999Y-95630999D03*
X218058999Y-93090999D03*
X220598999Y-93090999D03*
X218058999Y-90550999D03*
X220598999Y-90550999D03*
X218058999Y-88010999D03*
X220598999Y-88010999D03*
X218058999Y-85470999D03*
X220598999Y-85470999D03*
X218058999Y-82930999D03*
X220598999Y-82930999D03*
X218058999Y-80390999D03*
X220598999Y-80390999D03*
X218058999Y-77850999D03*
X220598999Y-77850999D03*
X218058999Y-75310999D03*
X220598999Y-75310999D03*
X218058999Y-72770999D03*
X220598999Y-72770999D03*
X218058999Y-70230999D03*
X220598999Y-70230999D03*
X218058999Y-67690999D03*
X220598999Y-67690999D03*
X218058999Y-65150999D03*
X220598999Y-65150999D03*
X218058999Y-62610999D03*
X220598999Y-62610999D03*
X218058999Y-60070999D03*
X220598999Y-60070999D03*
X218058999Y-57530999D03*
X220598999Y-57530999D03*
%TD*%
D10*
%TO.C,J4*%
X170560999Y-105028999D03*
D11*
X170560999Y-107568999D03*
X173100999Y-105028999D03*
X173100999Y-107568999D03*
X175640999Y-105028999D03*
X175640999Y-107568999D03*
X178180999Y-105028999D03*
X178180999Y-107568999D03*
X180720999Y-105028999D03*
X180720999Y-107568999D03*
X183260999Y-105028999D03*
X183260999Y-107568999D03*
X185800999Y-105028999D03*
X185800999Y-107568999D03*
X188340999Y-105028999D03*
X188340999Y-107568999D03*
X190880999Y-105028999D03*
X190880999Y-107568999D03*
X193420999Y-105028999D03*
X193420999Y-107568999D03*
X195960999Y-105028999D03*
X195960999Y-107568999D03*
X198500999Y-105028999D03*
X198500999Y-107568999D03*
X201040999Y-105028999D03*
X201040999Y-107568999D03*
X203580999Y-105028999D03*
X203580999Y-107568999D03*
X206120999Y-105028999D03*
X206120999Y-107568999D03*
X208660999Y-105028999D03*
X208660999Y-107568999D03*
X211200999Y-105028999D03*
X211200999Y-107568999D03*
X213740999Y-105028999D03*
X213740999Y-107568999D03*
%TD*%
D10*
%TO.C,J2*%
X166623999Y-57530999D03*
D11*
X164083999Y-57530999D03*
X166623999Y-60070999D03*
X164083999Y-60070999D03*
X166623999Y-62610999D03*
X164083999Y-62610999D03*
X166623999Y-65150999D03*
X164083999Y-65150999D03*
X166623999Y-67690999D03*
X164083999Y-67690999D03*
X166623999Y-70230999D03*
X164083999Y-70230999D03*
X166623999Y-72770999D03*
X164083999Y-72770999D03*
X166623999Y-75310999D03*
X164083999Y-75310999D03*
X166623999Y-77850999D03*
X164083999Y-77850999D03*
X166623999Y-80390999D03*
X164083999Y-80390999D03*
X166623999Y-82930999D03*
X164083999Y-82930999D03*
X166623999Y-85470999D03*
X164083999Y-85470999D03*
X166623999Y-88010999D03*
X164083999Y-88010999D03*
X166623999Y-90550999D03*
X164083999Y-90550999D03*
X166623999Y-93090999D03*
X164083999Y-93090999D03*
X166623999Y-95630999D03*
X164083999Y-95630999D03*
X166623999Y-98170999D03*
X164083999Y-98170999D03*
X166623999Y-100710999D03*
X164083999Y-100710999D03*
%TD*%
D10*
%TO.C,J1*%
X214614999Y-53852999D03*
D11*
X214614999Y-51312999D03*
X212074999Y-53852999D03*
X212074999Y-51312999D03*
X209534999Y-53852999D03*
X209534999Y-51312999D03*
X206994999Y-53852999D03*
X206994999Y-51312999D03*
X204454999Y-53852999D03*
X204454999Y-51312999D03*
X201914999Y-53852999D03*
X201914999Y-51312999D03*
X199374999Y-53852999D03*
X199374999Y-51312999D03*
X196834999Y-53852999D03*
X196834999Y-51312999D03*
X194294999Y-53852999D03*
X194294999Y-51312999D03*
X191754999Y-53852999D03*
X191754999Y-51312999D03*
X189214999Y-53852999D03*
X189214999Y-51312999D03*
X186674999Y-53852999D03*
X186674999Y-51312999D03*
X184134999Y-53852999D03*
X184134999Y-51312999D03*
X181594999Y-53852999D03*
X181594999Y-51312999D03*
X179054999Y-53852999D03*
X179054999Y-51312999D03*
X176514999Y-53852999D03*
X176514999Y-51312999D03*
X173974999Y-53852999D03*
X173974999Y-51312999D03*
X171434999Y-53852999D03*
X171434999Y-51312999D03*
%TD*%
M02*
