%TF.GenerationSoftware,KiCad,Pcbnew,7.0.0*%
%TF.CreationDate,2023-03-07T12:34:42-06:00*%
%TF.ProjectId,finalproj_breakout,66696e61-6c70-4726-9f6a-5f627265616b,rev?*%
%TF.SameCoordinates,Original*%
%TF.FileFunction,Paste,Bot*%
%TF.FilePolarity,Positive*%
%FSLAX46Y46*%
G04 Gerber Fmt 4.6, Leading zero omitted, Abs format (unit mm)*
G04 Created by KiCad (PCBNEW 7.0.0) date 2023-03-07 12:34:42*
%MOMM*%
%LPD*%
G01*
G04 APERTURE LIST*
G04 Aperture macros list*
%AMRoundRect*
0 Rectangle with rounded corners*
0 $1 Rounding radius*
0 $2 $3 $4 $5 $6 $7 $8 $9 X,Y pos of 4 corners*
0 Add a 4 corners polygon primitive as box body*
4,1,4,$2,$3,$4,$5,$6,$7,$8,$9,$2,$3,0*
0 Add four circle primitives for the rounded corners*
1,1,$1+$1,$2,$3*
1,1,$1+$1,$4,$5*
1,1,$1+$1,$6,$7*
1,1,$1+$1,$8,$9*
0 Add four rect primitives between the rounded corners*
20,1,$1+$1,$2,$3,$4,$5,0*
20,1,$1+$1,$4,$5,$6,$7,0*
20,1,$1+$1,$6,$7,$8,$9,0*
20,1,$1+$1,$8,$9,$2,$3,0*%
G04 Aperture macros list end*
%ADD10RoundRect,0.250000X0.537500X1.450000X-0.537500X1.450000X-0.537500X-1.450000X0.537500X-1.450000X0*%
%ADD11RoundRect,0.250000X1.350000X1.975000X-1.350000X1.975000X-1.350000X-1.975000X1.350000X-1.975000X0*%
G04 APERTURE END LIST*
D10*
%TO.C,C21*%
X188573500Y-61976000D03*
X184298500Y-61976000D03*
%TD*%
%TO.C,C16*%
X201273500Y-85852000D03*
X196998500Y-85852000D03*
%TD*%
%TO.C,C19*%
X177927000Y-85725000D03*
X173652000Y-85725000D03*
%TD*%
%TO.C,C9*%
X200533000Y-69088000D03*
X196258000Y-69088000D03*
%TD*%
%TO.C,C4*%
X209931000Y-62103000D03*
X205656000Y-62103000D03*
%TD*%
D11*
%TO.C,R1*%
X166938000Y-52070000D03*
X161738000Y-52070000D03*
%TD*%
D10*
%TO.C,C11*%
X177905500Y-70485000D03*
X173630500Y-70485000D03*
%TD*%
%TO.C,C12*%
X210185000Y-68961000D03*
X205910000Y-68961000D03*
%TD*%
%TO.C,C14*%
X209931000Y-78613000D03*
X205656000Y-78613000D03*
%TD*%
%TO.C,C23*%
X230102500Y-60198000D03*
X225827500Y-60198000D03*
%TD*%
%TO.C,C20*%
X188573500Y-85344000D03*
X184298500Y-85344000D03*
%TD*%
%TO.C,C6*%
X188341000Y-78486000D03*
X184066000Y-78486000D03*
%TD*%
%TO.C,C18*%
X177905500Y-93345000D03*
X173630500Y-93345000D03*
%TD*%
%TO.C,C7*%
X177927000Y-78486000D03*
X173652000Y-78486000D03*
%TD*%
%TO.C,C5*%
X188722000Y-69342000D03*
X184447000Y-69342000D03*
%TD*%
%TO.C,C15*%
X188065500Y-93345000D03*
X183790500Y-93345000D03*
%TD*%
%TO.C,C8*%
X200892500Y-78486000D03*
X196617500Y-78486000D03*
%TD*%
%TO.C,C13*%
X210798500Y-86487000D03*
X206523500Y-86487000D03*
%TD*%
%TO.C,C3*%
X200406000Y-61849000D03*
X196131000Y-61849000D03*
%TD*%
%TO.C,C10*%
X210290500Y-92837000D03*
X206015500Y-92837000D03*
%TD*%
%TO.C,C17*%
X201019500Y-93218000D03*
X196744500Y-93218000D03*
%TD*%
%TO.C,C22*%
X178054000Y-62357000D03*
X173779000Y-62357000D03*
%TD*%
M02*
